<svg xmlns="http://www.w3.org/2000/svg" xmlns:xlink="http://www.w3.org/1999/xlink" viewBox="0 0 303.77 324.39"><defs><style>.cls-1{isolation:isolate;}.cls-2{opacity:0.35;fill:url(#Áåçûìÿííûé_ãðàäèåíò_2);}.cls-3{fill:#575756;opacity:0.3;mix-blend-mode:multiply;}.cls-4{fill:#30193b;}.cls-5{fill:#3b2b5b;}.cls-6{fill:url(#radial-gradient);}.cls-7{fill:#766299;}.cls-8{fill:#a497bb;}.cls-9{fill:#718d9e;}.cls-10{fill:#aacbe8;}.cls-11{fill:#fff0f0;}.cls-12{fill:url(#radial-gradient-2);}.cls-13{fill:#f7c263;}.cls-14{fill:#ffc7c7;}.cls-15{fill:#9b89e5;}.cls-16{fill:#ffcb48;}.cls-17{fill:#ff9a2e;}.cls-18{fill:#8074ce;}.cls-19{fill:#fff;opacity:0.4;}.cls-20{fill:#ff97a6;}.cls-21{fill:#c95d77;}.cls-22{fill:#8376ce;}.cls-23{fill:#d5eaf5;}.cls-24{fill:#a499c8;}.cls-25{fill:#e0812b;}.cls-26{fill:#ffdba1;}.cls-27{fill:#f1f1f1;}</style><linearGradient id="Áåçûìÿííûé_ãðàäèåíò_2" x1="-10670.3" y1="287.58" x2="-10913.37" y2="34.17" gradientTransform="matrix(-1, 0, 0, 1, -10644.79, 0)" gradientUnits="userSpaceOnUse"><stop offset="0" stop-color="#406eb3"/><stop offset="0.05" stop-color="#4466ad"/><stop offset="0.29" stop-color="#514a96"/><stop offset="0.53" stop-color="#5b3685"/><stop offset="0.77" stop-color="#612a7b"/><stop offset="1" stop-color="#632678"/></linearGradient><radialGradient id="radial-gradient" cx="5451.98" cy="195.88" r="79.24" gradientTransform="matrix(-1, 0, 0, 1, 5634.95, 0)" gradientUnits="userSpaceOnUse"><stop offset="0" stop-color="#fff"/><stop offset="0.51" stop-color="#e9eaeb"/><stop offset="1" stop-color="#d9dadc"/></radialGradient><radialGradient id="radial-gradient-2" cx="5419.41" cy="102.47" r="10.03" xlink:href="#radial-gradient"/></defs><g class="cls-1"><g id="Capa_2" data-name="Capa 2"><g id="Header"><path class="cls-2" d="M51,145.75C59.54,157,66,171.28,62.53,185c-3.15,12.62-13.82,21.78-20.22,33.11a53.59,53.59,0,0,0-1.78,48.38A52.3,52.3,0,0,0,52.1,282.22c.46.44.93.86,1.41,1.27,26.45.3,70.92.5,121.31.5,38.32,0,73.21-.11,99.37-.3.76-.54,1.52-1.09,2.26-1.66a60.8,60.8,0,0,0,16.06-78.62C287.7,195,281,187.82,275.6,179.71s-9.39-17.79-7.71-27.36c3.28-18.78,26.37-28.86,30.4-47.49,2.76-12.78-4.82-26.13-15.61-33.51s-24.18-9.85-37.21-11-26.25-1.09-38.94-4.22C167.18,46.45,139,8.21,99.12,1.07c-28-5-58.37,7.91-74.19,31.53S8.75,89.24,24,113.21C31.62,125.09,42.44,134.55,51,145.75Z"/><ellipse class="cls-3" cx="190.71" cy="300.26" rx="94.04" ry="7.29"/><path class="cls-4" d="M237.92,298.19H110.35a7.17,7.17,0,0,1-7.08-8.27l28.5-183.78a7.18,7.18,0,0,1,7.09-6.07H266.43a7.17,7.17,0,0,1,7.08,8.27L245,292.12A7.18,7.18,0,0,1,237.92,298.19Z"/><path class="cls-5" d="M232.5,298.19H104.93a7.17,7.17,0,0,1-7.08-8.27l28.5-183.78a7.17,7.17,0,0,1,7.09-6.07H261a7.18,7.18,0,0,1,7.09,8.27L239.58,292.12A7.17,7.17,0,0,1,232.5,298.19Z"/><polygon class="cls-6" points="230.43 280.32 109.31 280.32 135.5 111.43 256.63 111.43 230.43 280.32"/><polygon class="cls-7" points="135.5 111.43 256.63 111.43 254.03 128.16 132.91 128.16 135.5 111.43"/><polygon class="cls-8" points="139.78 119.13 179.24 119.13 178.31 125.12 138.85 125.12 139.78 119.13"/><polygon class="cls-7" points="183.56 154.35 239.36 154.35 238.58 159.43 182.77 159.43 183.56 154.35"/><polygon class="cls-8" points="135.58 154.35 158.55 154.35 157.76 159.43 134.79 159.43 135.58 154.35"/><polygon class="cls-8" points="180.82 172.16 236.62 172.16 235.84 177.24 180.03 177.24 180.82 172.16"/><polygon class="cls-8" points="132.84 172.16 155.81 172.16 155.02 177.24 132.05 177.24 132.84 172.16"/><polygon class="cls-8" points="191.59 189.98 233.88 189.98 233.09 195.06 190.8 195.06 191.59 189.98"/><polygon class="cls-8" points="130.1 189.98 153.07 189.98 152.28 195.06 129.31 195.06 130.1 189.98"/><polygon class="cls-8" points="175.34 207.8 231.14 207.8 230.35 212.87 174.55 212.87 175.34 207.8"/><polygon class="cls-8" points="127.36 207.8 150.33 207.8 149.54 212.87 126.57 212.87 127.36 207.8"/><path class="cls-9" d="M226.44,89H215.55c2.39-9.1-3.06-16.48-12.16-16.48S185,79.94,182.59,89H171.7c-5.59,0-11.31,4.53-12.77,10.12l-4.64,17.72h75l4.63-17.72C235.38,93.57,232,89,226.44,89Zm-27.76,1.5c-3,0-4.85-2.46-4.06-5.5a7.64,7.64,0,0,1,6.94-5.49c3,0,4.85,2.46,4.05,5.49A7.62,7.62,0,0,1,198.68,90.54Z"/><path class="cls-10" d="M223.36,89H212.47c2.38-9.1-3.06-16.48-12.17-16.48S181.89,79.94,179.5,89H168.61c-5.59,0-11.3,4.53-12.77,10.12l-4.63,17.72h75l4.63-17.72C232.29,93.57,229,89,223.36,89Zm-27.76,1.5c-3,0-4.85-2.46-4.06-5.5a7.62,7.62,0,0,1,6.93-5.49c3,0,4.85,2.46,4.06,5.49A7.63,7.63,0,0,1,195.6,90.54Z"/><path class="cls-8" d="M223.22,246.68H205.78a2.11,2.11,0,0,1-2.08-2.43l3.06-19.56a2.09,2.09,0,0,1,2.08-1.78h17.44a2.11,2.11,0,0,1,2.07,2.43l-3.06,19.56A2.09,2.09,0,0,1,223.22,246.68Zm-17.28-2.25H223.1l3-19.27H209Z"/><path class="cls-8" d="M194.09,246.15H176.65a2.11,2.11,0,0,1-2.08-2.43l3.06-19.56a2.1,2.1,0,0,1,2.08-1.78h17.44a2.11,2.11,0,0,1,2.08,2.43l-3.06,19.56A2.09,2.09,0,0,1,194.09,246.15Zm-17.27-2.25H194l3-19.27H179.83Z"/><ellipse class="cls-7" cx="143.93" cy="242.74" rx="17.92" ry="16.21" transform="matrix(0.86, -0.52, 0.52, 0.86, -105, 109.8)"/><path class="cls-11" d="M136.76,234.21c-5.3,4.22-6.39,11.45-2.43,16.16s11.47,5.11,16.77.89,6.39-11.44,2.43-16.15S142.07,230,136.76,234.21Z"/><path class="cls-7" d="M140.43,238.57a5.54,5.54,0,0,0-1.19,7.9,5.94,5.94,0,0,0,8.2.44,5.55,5.55,0,0,0,1.18-7.9A5.93,5.93,0,0,0,140.43,238.57Z"/><path class="cls-5" d="M186.56,240.54a2.82,2.82,0,0,1-1.21-.8l-7.82-9.12a2.84,2.84,0,0,1,4.26-3.77l6,7.05,20.83-17.42a2.84,2.84,0,0,1,3.64,4.36L189.31,240A2.86,2.86,0,0,1,186.56,240.54Z"/><path class="cls-12" d="M223.31,111.43l3.1-12.6a4.29,4.29,0,0,0-4.17-5.32h-17.7Z"/><path class="cls-10" d="M79.18,154.79c-.62-.62-10.1,3.23-11,3.48-6.16,1.76-28.36,5.56-31.13,7.45-2.28,1.56-2,4.64,3.83,7.43.61.29,13.45-.08,21.1-.86C74.82,171,90.64,166,79.18,154.79Z"/><path class="cls-5" d="M159.91,204.41l12.54-.21-8.09-8.85C162,195.68,159,197.44,159.91,204.41Z"/><path class="cls-13" d="M140.71,194.17a5.53,5.53,0,0,0,.47.44A1.33,1.33,0,0,0,140.71,194.17Z"/><path class="cls-14" d="M159.91,204.41c-.92-7,2.08-8.73,4.45-9.06L150,179.6a17,17,0,0,0-3.92-3.15c-1.9.9-3.66,2.31-3.54,4.44.26,4.55,3.59,10,3.59,10s-5.2-3.07-6.56-.88c-1,1.62.38,3.36,1.16,4.15a1.33,1.33,0,0,1,.47.44,5.53,5.53,0,0,1-.47-.44c-.57-.32-1.66-.37-3.33,1.85-1.33,1.77-1,5.35,0,8.66a14.63,14.63,0,0,0,1.75.07Z"/><path class="cls-15" d="M25.57,124.35,17,120.66A8.29,8.29,0,0,0,6.13,125L.68,137.63A8.28,8.28,0,0,0,5,148.52l8.54,3.69Z"/><path class="cls-16" d="M132.23,203.38a16.47,16.47,0,0,0,5.15,1.3c-1-3.31-1.33-6.89,0-8.66,1.67-2.22,2.76-2.17,3.33-1.85-.78-.79-2.17-2.53-1.16-4.15,1.36-2.19,6.56.88,6.56.88s-3.33-5.46-3.59-10c-.12-2.13,1.64-3.54,3.54-4.44a17.3,17.3,0,0,0-1.82-.93L30.13,126.32l-12,27.86Z"/><rect class="cls-11" x="6.67" y="136.78" width="30.34" height="4.97" transform="translate(-114.69 104.18) rotate(-66.67)"/><path class="cls-17" d="M132.23,203.38a16.47,16.47,0,0,0,5.15,1.3c-1-3.31-1.33-6.89,0-8.66a9.83,9.83,0,0,1,.89-1c-1.88-.84-3.75-1.63-5.56-2.32-13.11-5-19.36-6.6-33.85-12.29s-24.2-15.16-42.4-22.31c-8.53-3.36-22-9.16-33.83-14.37l-4.51,10.47Z"/><path class="cls-18" d="M2.27,134,.68,137.63A8.28,8.28,0,0,0,5,148.52l8.54,3.69L18,141.85A114.62,114.62,0,0,1,2.27,134Z"/><path class="cls-19" d="M32.32,128.86l105.17,46.6s-12.52,1.85-21.17-1.79S31.65,133.9,31.65,133.9Z"/><path class="cls-20" d="M114.69,190.37c1.56,0,3.1-1.42,2.24-2.42a8,8,0,0,0-1.18-.74l-.73-.4s1.31.32,1.25-.14-.73-.63-1.27-.69-3.45-.75-4.8.69c0-.18-.15.5,0,.69C110.77,188.38,113,190.34,114.69,190.37Z"/><path class="cls-20" d="M118.75,189.24s.4.78-1.8-.26l-1.57-2A20.23,20.23,0,0,1,118.75,189.24Z"/><path class="cls-20" d="M50.94,160.44s-1.25,4.43-1.81,4.72a1.64,1.64,0,0,1-2.33-1.09c-.23-1.38,2.2-4.6,2.2-4.6Z"/><path class="cls-21" d="M49.92,163.62a3.73,3.73,0,0,1-2.74-1.16,15.71,15.71,0,0,1,1.22-2.13l2.25,1.11C50.45,162.08,50.19,162.9,49.92,163.62Z"/><path class="cls-20" d="M46.31,159.39a15,15,0,0,1,.23-4.2,2.46,2.46,0,0,1,2.84-2.1c2.12.34,4.45.84,5,1.33.93.76.8,2.2.73,3.28a7.85,7.85,0,0,1-1.32,3.8,4.94,4.94,0,0,1-3.44,1.19C47.48,162.34,46.72,161.5,46.31,159.39Z"/><path class="cls-5" d="M42.43,307.9c0-2.1-3.08-1.82-5.12-2.38.61.36,1.23.89.28,1.19-1.38.43-4.44.06-5.36-.92a6.58,6.58,0,0,0-.36,2.52C31.91,309.23,42.39,309.67,42.43,307.9Z"/><path class="cls-20" d="M37.59,306.71c.95-.3.33-.83-.28-1.19-1.26-.35-2.32-.6-2.56-.7A1.43,1.43,0,0,1,34,304l-.64-.12s-1,1.68-1.08,1.9C33.15,306.77,36.21,307.14,37.59,306.71Z"/><path class="cls-5" d="M74.2,308.83c.19-2.05-3.08-1.82-5.12-2.39.62.37,1.23.9.29,1.19-1.38.43-4.44.07-5.37-.91a6.36,6.36,0,0,0-.35,2.51C63.68,310.15,74,310.59,74.2,308.83Z"/><path class="cls-20" d="M69.37,307.63c.94-.29.33-.82-.29-1.19-1.26-.35-2.32-.59-2.56-.69a1.47,1.47,0,0,1-.8-.81l-.64-.12s-1,1.68-1.08,1.9C64.93,307.7,68,308.06,69.37,307.63Z"/><path class="cls-15" d="M39.69,192.59c0,.31-6.91,7.31-8.68,15.19-4,17.51.1,85,.77,95.12a1.48,1.48,0,0,0,1.43,1.38l1.17,0a1.15,1.15,0,0,0,1.17-.94L50.2,218.31,53.6,244l10.59,61,2.29.23s2.43-51.16,3.54-63.82c2.94-33.4-5.36-46.86-6.18-48.87C61.21,193.85,44.85,194.89,39.69,192.59Z"/><path class="cls-22" d="M39.69,192.59c0,.31-6.91,7.31-8.68,15.19-4,17.51.1,85,.77,95.12a1.48,1.48,0,0,0,1.43,1.38l1.17,0a1.15,1.15,0,0,0,1.17-.94L50.2,218.31A112.66,112.66,0,0,1,48.76,205a45,45,0,0,1,1.18-11.19h-.77C45.37,193.84,41.74,193.51,39.69,192.59Z"/><path class="cls-23" d="M110.89,186.05c0-.65-29.71-7.87-32.21-7.71h-.07a3.17,3.17,0,0,0-1.54,5.81A91.06,91.06,0,0,0,88.81,191C97.65,194.73,111.48,200.18,110.89,186.05Z"/><path class="cls-23" d="M64.1,166.76c4.23,3.48,12.8,9,17.74,12.16a4.18,4.18,0,0,1,1.16,6h0a4.19,4.19,0,0,1-6.22.66c-4-3.7-18.24-12.41-19-13.09C53.6,168.53,59,161.91,64.1,166.76Z"/><path class="cls-23" d="M40.52,165c1.53.08,14.85-2.25,19.47-.45a42.56,42.56,0,0,1,6.86,5.79h0c-.71,1.5-2,10-2.36,13.71a74.37,74.37,0,0,0-.31,9.28c-2.85.69-18.37,2.24-24.5-.72-.56-2.07-2-6.91-2.69-10.75-.45-2.42-2.28-7.76-2.28-7.76S32.72,164.6,40.52,165Z"/><path class="cls-10" d="M50.7,165.63s-.49,0-.64,0c-4.52-.24-8.8-.67-9.68-.67C29.82,165,37,181.82,37,181.82h0c.77,3.82,2.07,8.71,2.65,10.77,2.48,1.17,5.9,1.61,9.62,1.62h.53S47,186.4,48,174.71A23,23,0,0,1,50.7,165.63Z"/><path class="cls-5" d="M50.47,149.93c.67-.36,2.38-1.72,3.73-2.73,1-.77,3.48-.57,3.54.74,1.27-.77,3.14-2,3.83,0,.38,1.11-.45,3.48-1.93,4.43.46.85-.33,2.16-1.2,2.67-2.48,1.45-4.84-.07-6.88.48a22.88,22.88,0,0,0-2.7,3.23,7.34,7.34,0,0,1-.59.74,2.43,2.43,0,0,1-.46.74,1.57,1.57,0,0,1-1.79.42c-1-.41-2.11-2.6-2.16-3.71-.1-2.08-.47-3.52.44-5.12C45.12,150.37,49,148.91,50.47,149.93Z"/><path class="cls-24" d="M54.33,155.56a6.24,6.24,0,0,0,1.86.44,4.4,4.4,0,0,0,2-.28,3.4,3.4,0,0,0,1.6-1.35,3.62,3.62,0,0,0,.46-1A1.5,1.5,0,0,0,60,152l-.08.76a6.48,6.48,0,0,0,1.43-1.67A4.39,4.39,0,0,0,62,149a3.43,3.43,0,0,0-.16-1.11,1.69,1.69,0,0,0-.68-1,1.9,1.9,0,0,0-2.08.29c.64-.19,1.38-.27,1.76.14a1,1,0,0,1,.3.72,3,3,0,0,1,0,.89,5.28,5.28,0,0,1-1.87,3l-.18.15a.35.35,0,0,0,0,.5.31.31,0,0,0,.13.1s.07.17,0,.42a3.71,3.71,0,0,1-.31.73,2.66,2.66,0,0,1-1.1,1.13A6.55,6.55,0,0,1,54.33,155.56Z"/><ellipse class="cls-3" cx="53.96" cy="310.04" rx="42.49" ry="7.29"/><ellipse class="cls-3" cx="208.72" cy="312.93" rx="23.57" ry="3.51"/><ellipse class="cls-3" cx="280.2" cy="320.88" rx="23.57" ry="3.51"/><path class="cls-17" d="M254.8,290.26l-37.6-.06-.26,7.82h0c0,1.72,8.53,3.11,19.05,3.11s19.05-1.39,19.05-3.11Z"/><path class="cls-25" d="M255.05,298l-.25-7.76-18.75,0c1.42,2.26,3.86,3.74,2.83,5.44a12.67,12.67,0,0,0-1.44,5.45C247.29,301,255.05,299.66,255.05,298Z"/><path class="cls-16" d="M254.8,290.2c0,1.72-8.42,3.11-18.8,3.11s-18.8-1.39-18.8-3.11,8.41-3.1,18.8-3.1S254.8,288.49,254.8,290.2Z"/><path class="cls-17" d="M254.8,280.53l-37.6-.06-.26,7.82h0c0,1.72,8.53,3.11,19.05,3.11s19.05-1.39,19.05-3.11Z"/><path class="cls-25" d="M255.05,288.29l-.25-7.76-18.75,0c1.42,2.26,3.86,3.74,2.83,5.44a12.67,12.67,0,0,0-1.44,5.45C247.29,291.27,255.05,289.93,255.05,288.29Z"/><path class="cls-16" d="M254.8,280.47c0,1.72-8.42,3.11-18.8,3.11s-18.8-1.39-18.8-3.11,8.41-3.1,18.8-3.1S254.8,278.76,254.8,280.47Z"/><path class="cls-17" d="M254.8,270.44l-37.6-.06-.26,7.82h0c0,1.72,8.53,3.11,19.05,3.11s19.05-1.39,19.05-3.11Z"/><path class="cls-25" d="M255.05,278.2l-.25-7.76-18.75,0c1.42,2.26,3.86,3.74,2.83,5.44a12.67,12.67,0,0,0-1.44,5.45C247.29,281.18,255.05,279.84,255.05,278.2Z"/><path class="cls-16" d="M254.8,270.38c0,1.72-8.42,3.11-18.8,3.11s-18.8-1.39-18.8-3.11,8.41-3.1,18.8-3.1S254.8,268.67,254.8,270.38Z"/><path class="cls-17" d="M262.56,261.7l-37.6-.05-.26,7.81h0c0,1.72,8.52,3.11,19,3.11s19.05-1.39,19.05-3.11Z"/><path class="cls-25" d="M262.81,269.46l-.25-7.76-18.74,0c1.42,2.25,3.86,3.73,2.83,5.43a12.56,12.56,0,0,0-1.44,5.45C255.05,272.44,262.81,271.1,262.81,269.46Z"/><path class="cls-16" d="M262.56,261.65c0,1.71-8.41,3.1-18.8,3.1s-18.8-1.39-18.8-3.1,8.42-3.11,18.8-3.11S262.56,259.93,262.56,261.65Z"/><path class="cls-26" d="M230.49,262.31a1,1,0,0,1,0-1.86,46.48,46.48,0,0,1,7.63-1.07c5.69-.28,7.39-.42,7.44.49s-11.25,1.87-12.78,2.49A4.13,4.13,0,0,1,230.49,262.31Z"/><path class="cls-17" d="M226,302.58l-37.6-.06-.26,7.82h0c0,1.71,8.53,3.1,19.05,3.1s19.05-1.39,19.05-3.1Z"/><path class="cls-25" d="M226.24,310.34l-.25-7.76-18.75,0c1.42,2.25,3.86,3.73,2.83,5.43a12.71,12.71,0,0,0-1.44,5.46C218.48,313.32,226.24,312,226.24,310.34Z"/><path class="cls-16" d="M226,302.52c0,1.72-8.42,3.11-18.8,3.11s-18.8-1.39-18.8-3.11,8.41-3.1,18.8-3.1S226,300.81,226,302.52Z"/><path class="cls-26" d="M193.91,303.18a1,1,0,0,1,0-1.86,46.29,46.29,0,0,1,7.62-1.06c5.69-.28,7.39-.42,7.44.48s-11.25,1.87-12.78,2.5A4.24,4.24,0,0,1,193.91,303.18Z"/><path class="cls-17" d="M297,312l-37.6-.05-.26,7.81h0c0,1.72,8.53,3.11,19.05,3.11s19-1.39,19-3.11Z"/><path class="cls-25" d="M297.27,319.71,297,312l-18.74,0c1.41,2.25,3.85,3.73,2.83,5.43a12.56,12.56,0,0,0-1.45,5.45C289.51,322.69,297.27,321.35,297.27,319.71Z"/><path class="cls-16" d="M297,311.9c0,1.71-8.42,3.1-18.8,3.1s-18.8-1.39-18.8-3.1,8.42-3.11,18.8-3.11S297,310.18,297,311.9Z"/><path class="cls-26" d="M264.94,312.56a1,1,0,0,1,0-1.86,46.16,46.16,0,0,1,7.63-1.07c5.68-.28,7.39-.42,7.44.49s-11.26,1.87-12.78,2.49A4.17,4.17,0,0,1,264.94,312.56Z"/><path class="cls-27" d="M38.65,79.34c-1.34-4.09,2.62-7.59,6.39-8.53s9.43-.07,12.13,3.23c.11-2.51.56-5,2.25-7a10.7,10.7,0,0,1,8-3.51,8,8,0,0,1,7.4,4.36,30.26,30.26,0,0,1,5-14.13c3.09-4.65,8-8.53,14-7.3s9,7.33,11,12.43a39.36,39.36,0,0,1,2.78,13.44,13.67,13.67,0,0,1,7.73-3.06c5-.18,12.21,4,10.09,9.91-.39,1.12-1.27,2.54-2.49,2.76a10.24,10.24,0,0,1-1.66,0l-8-.13-57.75-.87-16.35-.25A.78.78,0,0,1,38.65,79.34Z"/></g></g></g></svg>