<?xml version="1.0" encoding="utf-8"?>
<!-- Generator: Adobe Illustrator 23.0.3, SVG Export Plug-In . SVG Version: 6.00 Build 0)  -->
<svg version="1.1" id="Capa_1" xmlns="http://www.w3.org/2000/svg" xmlns:xlink="http://www.w3.org/1999/xlink" x="0px" y="0px"
	 viewBox="0 0 328.1 98.7" style="enable-background:new 0 0 328.1 98.7;" xml:space="preserve">
<style type="text/css">
	.st0{fill:#406EB3;}
	.st1{fill:#FFFFFF;}
	.st2{fill:#54565A;}
</style>
<title>Logo_buscacredito</title>
<g>
	<g>
		<path class="st0" d="M90.3,67.7c0,12.4-10.2,22.6-22.6,22.6H22.6C10.2,90.3,0,80.2,0,67.7V22.6C0,10.2,10.2,0,22.6,0h45.2
			c12.4,0,22.6,10.2,22.6,22.6V67.7z"/>
	</g>
	<path class="st1" d="M53,59.9c-0.3,0-0.5-0.2-0.5-0.5V45.9c0-3.7-1.7-5.9-5.2-5.9c-3.1,0-5.3,2.2-5.3,5.6v13.8
		c0,0.3-0.2,0.5-0.5,0.5h-3.1c-0.3,0-0.5-0.2-0.5-0.5V45.9c0-3.7-1.7-5.9-5.2-5.9c-3.1,0-5.3,2.2-5.3,5.6v13.8
		c0,0.3-0.2,0.5-0.5,0.5h-3.1c-0.3,0-0.5-0.2-0.5-0.5V37.3c0-0.3,0.2-0.5,0.5-0.5H27c0.3,0,0.5,0.2,0.5,0.5v2.1h0
		c1.1-1.8,3.3-3.1,6.5-3.1c3.1,0,5.5,1.3,6.8,3.6h0c1.6-2.2,4-3.6,7.5-3.6c5.4,0,8.3,3.4,8.3,8.7v14.5c0,0.3-0.2,0.5-0.5,0.5H53z"/>
	<path class="st1" d="M63.1,31.6c-0.3,0-0.5-0.2-0.5-0.5v-3.5c0-0.3,0.2-0.5,0.5-0.5h3.3c0.3,0,0.5,0.2,0.5,0.5v3.5
		c0,0.3-0.2,0.5-0.5,0.5H63.1z M63.2,59.9c-0.3,0-0.5-0.2-0.5-0.5V37.3c0-0.3,0.2-0.5,0.5-0.5h3.1c0.3,0,0.5,0.2,0.5,0.5v22.2
		c0,0.3-0.2,0.5-0.5,0.5H63.2z"/>
	<g>
		<g>
			<g>
				<path class="st0" d="M124,81c1-1.4,2.7-2.2,5.2-2.2c4.8,0,7.7,3.1,7.7,8.6V90c0,5-2.5,8.7-7.7,8.7c-2.6,0-4.2-0.7-5.2-2v1.7
					h-3.1V71.8h3.1V81z M133.8,90v-2.5c0-3.7-1.8-5.9-4.9-5.9c-3.1,0-4.9,2.1-4.9,5.6V90c0,3.3,1.4,5.9,4.9,5.9
					C132.2,95.9,133.8,93.3,133.8,90z"/>
			</g>
		</g>
		<g>
			<g>
				<path class="st0" d="M156.7,98.4h-3.1v-1.9c-1,1.5-2.3,2.2-5.2,2.2c-4.1,0-7-2.2-7-7.6v-12h3.1v12c0,3.9,2.1,4.7,4.4,4.7
					c2.9,0,4.7-2,4.7-4.7v-12h3.1V98.4z"/>
			</g>
		</g>
		<g>
			<g>
				<path class="st0" d="M173,83.6c-1-1.3-2.1-2-4.8-2c-2.3,0-3.7,0.9-3.7,2.6c0,2.2,1.9,2.9,4.5,3c3.6,0.3,6.9,1.3,6.9,5.7
					c0,3.4-2.3,5.7-7.3,5.7c-3.9,0-6-1.2-7.4-3.2l2.3-1.6c1,1.4,2.4,2,5.2,2c2.6,0,4.1-1,4.1-2.7c0-2.1-1.2-2.8-5-3.1
					c-3.2-0.2-6.4-1.5-6.4-5.7c0-3.2,2.3-5.5,6.9-5.5c3.1,0,5.5,0.8,7,3.2L173,83.6z"/>
			</g>
		</g>
		<g>
			<g>
				<path class="st0" d="M194.6,95.5c-1.2,2.2-3.5,3.2-6.7,3.2c-5.3,0-8.3-3.4-8.3-8.7v-2.5c0-5.5,3.1-8.6,8.3-8.6
					c2.9,0,5.3,1,6.7,3l-2.4,1.7c-0.8-1.2-2.5-1.9-4.2-1.9c-3.3,0-5.2,2.2-5.2,5.9V90c0,3.3,1.5,5.9,5.2,5.9c1.8,0,3.5-0.6,4.3-2.2
					L194.6,95.5z"/>
			</g>
		</g>
		<g>
			<g>
				<path class="st0" d="M204.4,87.2h4.6V85c0-2.7-1.3-3.4-4.3-3.4c-2.3,0-3.5,0.2-4.6,2l-2.3-1.6c1.4-2.2,3.3-3.2,7-3.2
					c4.9,0,7.3,1.6,7.3,6.2v13.4H209v-1.9c-1.1,1.8-2.4,2.2-4.9,2.2c-4.5,0-6.9-2.2-6.9-5.9C197.2,88.6,200.2,87.2,204.4,87.2z
					 M209,89.9h-4.6c-3,0-4.1,1-4.1,3c0,2.2,1.5,3,3.8,3c2.9,0,4.9-0.5,4.9-4.9V89.9z"/>
			</g>
		</g>
		<g>
			<g>
				<path class="st0" d="M231.6,95.5c-1.2,2.2-3.5,3.2-6.7,3.2c-5.3,0-8.3-3.4-8.3-8.7v-2.5c0-5.5,3.1-8.6,8.3-8.6
					c2.9,0,5.3,1,6.7,3l-2.4,1.7c-0.8-1.2-2.5-1.9-4.2-1.9c-3.3,0-5.2,2.2-5.2,5.9V90c0,3.3,1.5,5.9,5.2,5.9c1.8,0,3.5-0.6,4.3-2.2
					L231.6,95.5z"/>
			</g>
		</g>
		<g>
			<g>
				<path class="st0" d="M245.6,83.3c-0.8-1.1-1.8-1.6-3.2-1.6c-2.4,0-4.1,1.8-4.1,4.7v12.1h-3.1V79.1h3.1V81
					c0.8-1.3,2.1-2.2,4.5-2.2c2.6,0,4.3,0.9,5.5,2.6L245.6,83.3z"/>
			</g>
		</g>
		<g>
			<g>
				<path class="st0" d="M264.9,95.5c-1.3,2.4-3.4,3.2-6.7,3.2c-5.2,0-8.3-3.4-8.3-8.7v-2.5c0-5.5,2.6-8.6,7.6-8.6
					c5.1,0,7.6,3.1,7.6,8.6v2H253V90c0,3.3,1.6,5.9,4.9,5.9c2.5,0,3.8-0.7,4.6-2.2L264.9,95.5z M253,86.7h9.1
					c-0.2-3.2-1.6-5.2-4.5-5.2C254.5,81.6,253.1,83.5,253,86.7z M258.3,70.4h3.7l-3.5,6.1h-2.9L258.3,70.4z"/>
			</g>
		</g>
		<g>
			<g>
				<path class="st0" d="M282.1,71.8h3.1v26.6h-3.1v-1.7c-1,1.3-2.7,2-5.2,2c-5.2,0-7.7-3.7-7.7-8.7v-2.5c0-5.5,2.9-8.6,7.7-8.6
					c2.5,0,4.2,0.8,5.2,2.2V71.8z M282.1,90.3v-2.8c0-3.6-1.8-5.9-4.9-5.9c-3.2,0-4.9,2.2-4.9,5.9V90c0,3.3,1.7,5.9,4.9,5.9
					C280.6,95.9,282.1,93.5,282.1,90.3z"/>
			</g>
		</g>
		<g>
			<g>
				<path class="st0" d="M291.1,71.8h3.5v3.5h-3.5V71.8z M291.2,79.1h3.1v19.3h-3.1V79.1z"/>
			</g>
		</g>
		<g>
			<g>
				<path class="st0" d="M298.7,79.1h2.5v-4.2h3.1v4.2h4.4v2.8h-4.4v9.8c0,2.7,0.3,3.8,2.9,3.8h1.5v2.9H307c-4.6,0-5.9-1.9-5.9-5.9
					V81.9h-2.5V79.1z"/>
			</g>
		</g>
		<g>
			<g>
				<path class="st0" d="M328.1,90c0,5-2.5,8.7-8,8.7c-5.1,0-8-3.4-8-8.7v-2.5c0-5.5,3-8.6,8-8.6c5.1,0,8,3.1,8,8.6V90z M325,90
					v-2.5c0-3.7-1.8-5.9-4.9-5.9c-3.2,0-4.9,2.2-4.9,5.9V90c0,3.3,1.4,5.9,4.9,5.9C323.3,95.9,325,93.3,325,90z"/>
			</g>
		</g>
	</g>
	<g>
		<g>
			<path class="st2" d="M119.6,25.8h2.7v33.4h-2.7v-3c-1.4,2.2-3.7,3.2-7.3,3.2c-6.3,0-9.4-4.1-9.4-10.7v-3.5
				c0-6.9,3.4-10.6,9.4-10.6c3.6,0,6,1.2,7.3,3.4V25.8z M119.6,48.9v-3.5c0-4.9-1.9-8.2-7.1-8.2c-4.6,0-7,2.9-7,8.1v3.5
				c0,5.1,2.3,8.2,7,8.2C117.9,57.1,119.6,53.6,119.6,48.9z"/>
		</g>
	</g>
	<g>
		<g>
			<path class="st2" d="M137.8,45.5h7.1v-3c0-4.1-1.6-5.2-6.1-5.2c-2.9,0-4.8,0.2-6.3,2.8l-2-1.4c1.7-2.9,4.1-3.9,8.4-3.9
				c5.9,0,8.7,1.8,8.7,7.7v16.8h-2.7v-3c-1.4,2.6-3.8,3.3-6.9,3.3c-5.4,0-8.4-2.6-8.4-7.2S132.8,45.5,137.8,45.5z M144.9,47.9h-7.1
				c-4.2,0-5.6,1.9-5.6,4.5c0,3.4,2.4,4.6,5.8,4.6c3.9,0,6.9-1.4,6.9-6.8V47.9z"/>
			<path class="st2" d="M152.2,35h3.1v-5.3h2.7V35h6v2.5h-6v13.6c0,3.9,0.4,5.6,4.4,5.6h1.6v2.6h-1.7c-5.4,0-6.9-2.4-6.9-7.5V37.5
				h-3.1V35z"/>
		</g>
	</g>
	<g>
		<g>
			<path class="st2" d="M175.8,45.5h7.1v-3c0-4.1-1.6-5.2-6.1-5.2c-2.9,0-4.8,0.2-6.3,2.8l-2-1.4c1.7-2.9,4.1-3.9,8.4-3.9
				c5.9,0,8.7,1.8,8.7,7.7v16.8h-2.7v-3c-1.4,2.6-3.8,3.3-6.9,3.3c-5.4,0-8.4-2.6-8.4-7.2S170.8,45.5,175.8,45.5z M182.8,47.9h-7.1
				c-4.2,0-5.6,1.9-5.6,4.5c0,3.4,2.4,4.6,5.8,4.6c3.9,0,6.9-1.4,6.9-6.8V47.9z"/>
		</g>
	</g>
	<g>
		<g>
			<path class="st2" d="M211.8,55.6c-1.6,2.6-4.5,3.9-8.2,3.9c-6.5,0-10.2-3.9-10.2-10.7v-3.5c0-6.9,3.8-10.6,10.2-10.6
				c3.5,0,6.4,1.3,8.2,3.7l-2.1,1.5c-1.4-1.8-3.6-2.7-6.1-2.7c-4.8,0-7.6,2.9-7.6,8.1v3.5c0,4.8,2.2,8.2,7.6,8.2
				c2.5,0,4.7-0.8,6.1-3L211.8,55.6z"/>
			<path class="st2" d="M218.7,44.7v14.6H216V35h2.7v3.3c1-2.2,3.1-3.6,6.1-3.6c3.1,0,5.2,1.2,6.8,3.3l-2.2,1.6
				c-1.3-1.6-2.7-2.5-4.8-2.5C220.8,37.3,218.7,40.3,218.7,44.7z"/>
			<path class="st2" d="M236.2,47.8v1c0,4.8,2.2,8.2,7.4,8.2c3,0,4.9-0.9,6.3-3l2.1,1.5c-1.7,2.7-4.4,3.9-8.3,3.9
				c-6.4,0-10.2-4-10.2-10.7v-3.5c0-6.9,3.3-10.6,9.3-10.6c6.1,0,9.3,3.7,9.3,10.6v2.5H236.2z M236.2,45.4h13.4v0
				c0-5.3-2.3-8.1-6.7-8.1S236.2,40.1,236.2,45.4L236.2,45.4z M244.6,24.1h3.2l-4.3,7.7H241L244.6,24.1z"/>
			<path class="st2" d="M273.7,25.8h2.7v33.4h-2.7v-3c-1.4,2.2-3.7,3.2-7.3,3.2c-6.3,0-9.4-4.1-9.4-10.7v-3.5
				c0-6.9,3.4-10.6,9.4-10.6c3.6,0,6,1.2,7.3,3.4V25.8z M273.7,48.9v-3.5c0-4.9-1.9-8.2-7.1-8.2c-4.6,0-7,2.9-7,8.1v3.5
				c0,5.1,2.3,8.2,7,8.2C272,57.1,273.7,53.6,273.7,48.9z"/>
			<path class="st2" d="M283.6,25.8h3.2v3.2h-3.2V25.8z M283.9,35h2.7v24.2h-2.7V35z"/>
			<path class="st2" d="M292,35h3.1v-5.3h2.7V35h6v2.5h-6v13.6c0,3.9,0.4,5.6,4.4,5.6h1.6v2.6H302c-5.4,0-6.9-2.4-6.9-7.5V37.5H292
				V35z"/>
			<path class="st2" d="M317.6,59.5c-6.2,0-9.8-3.9-9.8-10.7v-3.5c0-6.9,3.6-10.6,9.8-10.6c6.2,0,9.8,3.7,9.8,10.6v3.5
				C327.4,55.5,324.1,59.5,317.6,59.5z M324.8,45.3c0-5.3-2.6-8.1-7.2-8.1c-4.6,0-7.2,2.9-7.2,8.1v3.5c0,5.1,2.3,8.2,7.2,8.2
				c4.7,0,7.2-3.1,7.2-8.2V45.3z"/>
		</g>
	</g>
</g>
</svg>
