<?xml version="1.0" encoding="utf-8"?>
<!-- Generator: Adobe Illustrator 23.0.3, SVG Export Plug-In . SVG Version: 6.00 Build 0)  -->
<svg version="1.1" id="Capa_1" xmlns="http://www.w3.org/2000/svg" xmlns:xlink="http://www.w3.org/1999/xlink" x="0px" y="0px"
	 viewBox="0 0 424.2 60" style="enable-background:new 0 0 424.2 60;" xml:space="preserve">
<style type="text/css">
	.st0{fill:#406EB3;}
	.st1{fill:#FFFFFF;}
	.st2{fill:#53565A;}
</style>
<title>Logo_buscacredito</title>
<g>
	<path class="st0" d="M60,45c0,8.2-6.8,15-15,15H15C6.7,60,0,53.3,0,45V15C0,6.8,6.7,0,15,0h30c8.2,0,15,6.8,15,15V45z"/>
	<g>
		<path class="st1" d="M35.2,39.8c-0.2,0-0.3-0.1-0.3-0.3v-9c0-2.5-1.1-3.9-3.4-3.9c-2.1,0-3.5,1.5-3.5,3.8v9.1
			c0,0.2-0.1,0.3-0.3,0.3h-2.1c-0.2,0-0.3-0.1-0.3-0.3v-9c0-2.5-1.1-3.9-3.4-3.9c-2.1,0-3.5,1.5-3.5,3.8v9.1c0,0.2-0.1,0.3-0.3,0.3
			h-2.1c-0.2,0-0.3-0.1-0.3-0.3V24.8c0-0.2,0.1-0.3,0.3-0.3h2.1c0.2,0,0.3,0.1,0.3,0.3v1.4h0c0.7-1.2,2.2-2.1,4.3-2.1
			c2.1,0,3.6,0.9,4.5,2.4h0c1.1-1.5,2.6-2.4,5-2.4c3.6,0,5.5,2.3,5.5,5.8v9.6c0,0.2-0.1,0.3-0.3,0.3H35.2z"/>
		<path class="st1" d="M41.9,21c-0.2,0-0.3-0.1-0.3-0.3v-2.3c0-0.2,0.1-0.3,0.3-0.3h2.2c0.2,0,0.3,0.1,0.3,0.3v2.3
			c0,0.2-0.1,0.3-0.3,0.3H41.9z M42,39.8c-0.2,0-0.3-0.1-0.3-0.3V24.8c0-0.2,0.1-0.3,0.3-0.3H44c0.2,0,0.3,0.1,0.3,0.3v14.7
			c0,0.2-0.1,0.3-0.3,0.3H42z"/>
	</g>
	<g>
		<path class="st0" d="M256.2,25.4c0.9-1.2,2.2-1.8,4.3-1.8c3.9,0,6.4,2.6,6.4,7.1v2.1c0,4.1-2,7.2-6.4,7.2c-2.1,0-3.5-0.5-4.3-1.7
			v1.4h-2.5V17.8h2.5V25.4z M264.3,32.7v-2.1c0-3-1.5-4.8-4.1-4.8c-2.5,0-4.1,1.7-4.1,4.6v2.3c0,2.7,1.1,4.9,4.1,4.9
			C263,37.6,264.3,35.4,264.3,32.7z"/>
		<path class="st0" d="M283.1,39.7h-2.5v-1.6c-0.8,1.2-1.9,1.8-4.3,1.8c-3.4,0-5.8-1.8-5.8-6.2v-9.9h2.5v9.9c0,3.2,1.7,3.9,3.6,3.9
			c2.4,0,3.9-1.7,3.9-3.9v-9.9h2.5V39.7z"/>
		<path class="st0" d="M296.6,27.5c-0.9-1.1-1.7-1.6-3.9-1.6c-1.9,0-3.1,0.7-3.1,2.1c0,1.8,1.6,2.3,3.7,2.5c3,0.2,5.7,1.1,5.7,4.7
			c0,2.8-1.9,4.7-6,4.7c-3.2,0-4.9-1-6.1-2.6l1.9-1.3c0.9,1.1,2,1.6,4.3,1.6c2.1,0,3.4-0.8,3.4-2.3c0-1.7-1-2.3-4.1-2.5
			c-2.7-0.2-5.3-1.3-5.3-4.7c0-2.6,1.9-4.5,5.7-4.5c2.6,0,4.5,0.7,5.8,2.6L296.6,27.5z"/>
		<path class="st0" d="M314.4,37.3c-1,1.8-2.9,2.7-5.5,2.7c-4.4,0-6.9-2.8-6.9-7.2v-2.1c0-4.5,2.6-7.1,6.9-7.1
			c2.4,0,4.4,0.9,5.5,2.5l-2,1.4c-0.7-1-2-1.6-3.5-1.6c-2.7,0-4.3,1.8-4.3,4.8v2.1c0,2.7,1.3,4.9,4.3,4.9c1.5,0,2.9-0.5,3.5-1.8
			L314.4,37.3z"/>
		<path class="st0" d="M322.5,30.5h3.8v-1.8c0-2.3-1-2.8-3.5-2.8c-1.9,0-2.9,0.2-3.8,1.6l-1.9-1.3c1.1-1.8,2.7-2.6,5.7-2.6
			c4,0,6,1.3,6,5.1v11h-2.5v-1.6c-0.9,1.5-2,1.8-4,1.8c-3.7,0-5.7-1.8-5.7-4.9C316.5,31.6,319,30.5,322.5,30.5z M326.2,32.7h-3.8
			c-2.5,0-3.4,0.9-3.4,2.4c0,1.8,1.3,2.5,3.1,2.5c2.3,0,4-0.4,4-4V32.7z"/>
		<path class="st0" d="M344.8,37.3c-1,1.8-2.9,2.7-5.5,2.7c-4.4,0-6.9-2.8-6.9-7.2v-2.1c0-4.5,2.6-7.1,6.9-7.1
			c2.4,0,4.4,0.9,5.5,2.5l-2,1.4c-0.7-1-2-1.6-3.5-1.6c-2.7,0-4.3,1.8-4.3,4.8v2.1c0,2.7,1.3,4.9,4.3,4.9c1.5,0,2.9-0.5,3.5-1.8
			L344.8,37.3z"/>
		<path class="st0" d="M356.4,27.2c-0.7-0.9-1.5-1.3-2.7-1.3c-1.9,0-3.4,1.5-3.4,3.8v9.9h-2.5V23.8h2.5v1.6c0.7-1.1,1.7-1.8,3.7-1.8
			c2.2,0,3.5,0.7,4.5,2.2L356.4,27.2z"/>
		<path class="st0" d="M372.2,37.3c-1.1,1.9-2.8,2.7-5.6,2.7c-4.3,0-6.8-2.8-6.8-7.2v-2.1c0-4.5,2.1-7.1,6.3-7.1
			c4.2,0,6.3,2.6,6.3,7.1v1.7h-10v0.4c0,2.7,1.3,4.9,4.1,4.9c2.1,0,3.1-0.6,3.8-1.8L372.2,37.3z M362.4,30.1h7.5
			c-0.1-2.7-1.3-4.3-3.7-4.3C363.7,25.8,362.5,27.4,362.4,30.1z M366.8,16.6h3l-2.9,5h-2.4L366.8,16.6z"/>
		<path class="st0" d="M386.4,17.8h2.5v21.9h-2.5v-1.4c-0.9,1.1-2.2,1.7-4.3,1.7c-4.3,0-6.4-3-6.4-7.2v-2.1c0-4.5,2.4-7.1,6.4-7.1
			c2.1,0,3.5,0.7,4.3,1.8V17.8z M386.4,33v-2.3c0-3-1.5-4.8-4.1-4.8c-2.6,0-4.1,1.8-4.1,4.8v2.1c0,2.7,1.4,4.9,4.1,4.9
			C385.2,37.6,386.4,35.6,386.4,33z"/>
		<path class="st0" d="M393.8,17.8h2.9v2.9h-2.9V17.8z M393.9,23.8h2.5v15.9h-2.5V23.8z"/>
		<path class="st0" d="M400,23.8h2v-3.5h2.5v3.5h3.7v2.3h-3.7v8.1c0,2.2,0.3,3.1,2.4,3.1h1.3v2.4h-1.4c-3.7,0-4.8-1.6-4.8-4.9v-8.7
			h-2V23.8z"/>
		<path class="st0" d="M424.2,32.7c0,4.1-2,7.2-6.6,7.2c-4.2,0-6.6-2.8-6.6-7.2v-2.1c0-4.5,2.4-7.1,6.6-7.1c4.2,0,6.6,2.6,6.6,7.1
			V32.7z M421.7,32.7v-2.1c0-3-1.5-4.8-4.1-4.8c-2.6,0-4.1,1.8-4.1,4.8v2.1c0,2.7,1.1,4.9,4.1,4.9C420.3,37.6,421.7,35.4,421.7,32.7
			z"/>
	</g>
	<g>
		<g>
			<g>
				<g>
					<path class="st2" d="M79.5,17.2h1.8v22.2h-1.8v-2c-0.9,1.5-2.4,2.2-4.9,2.2c-4.2,0-6.3-2.7-6.3-7.1v-2.3c0-4.6,2.3-7,6.3-7
						c2.4,0,4,0.8,4.9,2.3V17.2z M79.5,32.5v-2.3c0-3.3-1.3-5.4-4.7-5.4c-3.1,0-4.6,1.9-4.6,5.4v2.3c0,3.4,1.5,5.5,4.6,5.5
						C78.4,37.9,79.5,35.6,79.5,32.5z"/>
				</g>
			</g>
			<g>
				<g>
					<path class="st2" d="M91.5,30.2h4.7v-2c0-2.7-1.1-3.5-4.1-3.5c-1.9,0-3.2,0.1-4.2,1.8l-1.4-0.9c1.1-1.9,2.7-2.6,5.6-2.6
						c3.9,0,5.8,1.2,5.8,5.1v11.1h-1.8v-2c-0.9,1.7-2.5,2.2-4.6,2.2c-3.6,0-5.6-1.7-5.6-4.8S88.2,30.2,91.5,30.2z M96.2,31.8h-4.7
						c-2.8,0-3.7,1.3-3.7,3c0,2.3,1.6,3.1,3.8,3.1c2.6,0,4.6-0.9,4.6-4.5V31.8z"/>
					<path class="st2" d="M101.1,23.3h2.1v-3.5h1.8v3.5h4v1.6h-4v9c0,2.6,0.3,3.7,2.9,3.7h1.1v1.7h-1.1c-3.6,0-4.6-1.6-4.6-5v-9.5
						h-2.1V23.3z"/>
				</g>
			</g>
			<g>
				<g>
					<path class="st2" d="M116.8,30.2h4.7v-2c0-2.7-1.1-3.5-4.1-3.5c-1.9,0-3.2,0.1-4.2,1.8l-1.4-0.9c1.1-1.9,2.7-2.6,5.6-2.6
						c3.9,0,5.8,1.2,5.8,5.1v11.1h-1.8v-2c-0.9,1.7-2.5,2.2-4.6,2.2c-3.6,0-5.6-1.7-5.6-4.8S113.5,30.2,116.8,30.2z M121.5,31.8
						h-4.7c-2.8,0-3.7,1.3-3.7,3c0,2.3,1.6,3.1,3.8,3.1c2.6,0,4.6-0.9,4.6-4.5V31.8z"/>
				</g>
			</g>
			<g>
				<g>
					<path class="st2" d="M140.7,36.9c-1.1,1.7-3,2.6-5.5,2.6c-4.3,0-6.8-2.6-6.8-7.1v-2.3c0-4.6,2.5-7,6.8-7c2.3,0,4.2,0.8,5.4,2.5
						l-1.4,1c-0.9-1.2-2.4-1.8-4-1.8c-3.2,0-5,1.9-5,5.4v2.3c0,3.2,1.5,5.5,5,5.5c1.6,0,3.2-0.5,4.1-2L140.7,36.9z"/>
					<path class="st2" d="M145.3,29.7v9.7h-1.8V23.3h1.8v2.2c0.7-1.5,2-2.4,4.1-2.4c2.1,0,3.5,0.8,4.5,2.2l-1.5,1.1
						c-0.8-1.1-1.8-1.6-3.2-1.6C146.7,24.7,145.3,26.7,145.3,29.7z"/>
					<path class="st2" d="M156.9,31.8v0.7c0,3.2,1.5,5.5,4.9,5.5c2,0,3.3-0.6,4.2-2l1.4,1c-1.1,1.8-2.9,2.6-5.5,2.6
						c-4.3,0-6.8-2.6-6.8-7.1v-2.3c0-4.6,2.2-7,6.2-7c4,0,6.2,2.5,6.2,7v1.6H156.9z M156.9,30.2h8.9v0c0-3.5-1.5-5.4-4.4-5.4
						S156.9,26.6,156.9,30.2L156.9,30.2z M162.5,16h2.1l-2.8,5.1h-1.7L162.5,16z"/>
					<path class="st2" d="M181.9,17.2h1.8v22.2h-1.8v-2c-0.9,1.5-2.4,2.2-4.9,2.2c-4.2,0-6.3-2.7-6.3-7.1v-2.3c0-4.6,2.3-7,6.3-7
						c2.4,0,4,0.8,4.9,2.3V17.2z M181.9,32.5v-2.3c0-3.3-1.3-5.4-4.7-5.4c-3.1,0-4.6,1.9-4.6,5.4v2.3c0,3.4,1.5,5.5,4.6,5.5
						C180.7,37.9,181.9,35.6,181.9,32.5z"/>
					<path class="st2" d="M188.4,17.2h2.2v2.2h-2.2V17.2z M188.6,23.3h1.8v16.1h-1.8V23.3z"/>
					<path class="st2" d="M194,23.3h2.1v-3.5h1.8v3.5h4v1.6h-4v9c0,2.6,0.3,3.7,2.9,3.7h1.1v1.7h-1.1c-3.6,0-4.6-1.6-4.6-5v-9.5H194
						V23.3z"/>
					<path class="st2" d="M211,39.5c-4.2,0-6.5-2.6-6.5-7.1v-2.3c0-4.6,2.4-7,6.5-7c4.1,0,6.5,2.5,6.5,7v2.3
						C217.6,36.8,215.3,39.5,211,39.5z M215.8,30.1c0-3.5-1.7-5.4-4.8-5.4c-3.1,0-4.8,1.9-4.8,5.4v2.3c0,3.4,1.5,5.4,4.8,5.4
						c3.1,0,4.8-2.1,4.8-5.4V30.1z"/>
				</g>
			</g>
		</g>
	</g>
	<g>
		<g>
			<rect x="234.1" y="10.3" class="st2" width="0.9" height="39.4"/>
		</g>
	</g>
</g>
</svg>
