<?xml version="1.0" encoding="utf-8"?>
<!-- Generator: Adobe Illustrator 23.0.3, SVG Export Plug-In . SVG Version: 6.00 Build 0)  -->
<svg version="1.1" id="Capa_1" xmlns="http://www.w3.org/2000/svg" xmlns:xlink="http://www.w3.org/1999/xlink" x="0px" y="0px"
	 viewBox="0 0 266 73.4" style="enable-background:new 0 0 266 73.4;" xml:space="preserve">
<style type="text/css">
	.st0{fill:#406EB3;}
	.st1{fill:#FFFFFF;}
	.st2{fill:#575756;}
</style>
<title>Logo_midc</title>
<g>
	<path class="st0" d="M73.4,55c0,10.1-8.3,18.3-18.3,18.3H18.3C8.3,73.4,0,65.1,0,55V18.3C0,8.3,8.3,0,18.3,0H55
		c10.1,0,18.3,8.3,18.3,18.3V55z"/>
	<g>
		<path class="st1" d="M43,48.7c-0.2,0-0.4-0.2-0.4-0.4v-11c0-3-1.4-4.8-4.2-4.8c-2.5,0-4.3,1.8-4.3,4.6v11.2c0,0.2-0.2,0.4-0.4,0.4
			h-2.5c-0.2,0-0.4-0.2-0.4-0.4v-11c0-3-1.4-4.8-4.2-4.8c-2.5,0-4.3,1.8-4.3,4.6v11.2c0,0.2-0.2,0.4-0.4,0.4h-2.5
			c-0.2,0-0.4-0.2-0.4-0.4v-18c0-0.2,0.2-0.4,0.4-0.4h2.5c0.2,0,0.4,0.2,0.4,0.4V32h0c0.9-1.5,2.7-2.5,5.3-2.5
			c2.6,0,4.4,1.1,5.5,2.9h0c1.3-1.8,3.2-2.9,6.1-2.9c4.4,0,6.7,2.8,6.7,7.1v11.8c0,0.2-0.2,0.4-0.4,0.4H43z"/>
		<path class="st1" d="M51.2,25.6c-0.2,0-0.4-0.2-0.4-0.4v-2.9c0-0.2,0.2-0.4,0.4-0.4h2.7c0.2,0,0.4,0.2,0.4,0.4v2.9
			c0,0.2-0.2,0.4-0.4,0.4H51.2z M51.3,48.7c-0.2,0-0.4-0.2-0.4-0.4v-18c0-0.2,0.2-0.4,0.4-0.4h2.5c0.2,0,0.4,0.2,0.4,0.4v18
			c0,0.2-0.2,0.4-0.4,0.4H51.3z"/>
	</g>
	<g>
		<g>
			<g>
				<path class="st2" d="M97.2,21h2.2v27.1h-2.2v-2.4c-1.1,1.8-3,2.6-5.9,2.6c-5.1,0-7.7-3.3-7.7-8.7v-2.8c0-5.6,2.8-8.6,7.7-8.6
					c3,0,4.8,0.9,5.9,2.8V21z M97.2,39.7v-2.8c0-4-1.6-6.6-5.8-6.6c-3.7,0-5.7,2.3-5.7,6.6v2.8c0,4.1,1.8,6.7,5.7,6.7
					C95.8,46.4,97.2,43.6,97.2,39.7z"/>
			</g>
		</g>
		<g>
			<g>
				<path class="st2" d="M111.9,37h5.7v-2.4c0-3.3-1.3-4.2-5-4.2c-2.4,0-3.9,0.2-5.2,2.2l-1.7-1.1c1.4-2.3,3.3-3.1,6.8-3.1
					c4.8,0,7.1,1.5,7.1,6.3v13.6h-2.2v-2.4c-1.1,2.1-3.1,2.7-5.6,2.7c-4.4,0-6.8-2.1-6.8-5.9S107.9,37,111.9,37z M117.7,38.9h-5.7
					c-3.4,0-4.5,1.6-4.5,3.7c0,2.8,1.9,3.8,4.7,3.8c3.2,0,5.6-1.1,5.6-5.5V38.9z"/>
				<path class="st2" d="M123.6,28.5h2.5v-4.3h2.2v4.3h4.8v2h-4.8v11c0,3.1,0.4,4.6,3.5,4.6h1.3v2.1h-1.4c-4.4,0-5.6-2-5.6-6.1V30.5
					h-2.5V28.5z"/>
			</g>
		</g>
		<g>
			<g>
				<path class="st2" d="M142.8,37h5.7v-2.4c0-3.3-1.3-4.2-5-4.2c-2.4,0-3.9,0.2-5.2,2.2l-1.7-1.1c1.4-2.3,3.3-3.1,6.8-3.1
					c4.8,0,7.1,1.5,7.1,6.3v13.6h-2.2v-2.4c-1.1,2.1-3.1,2.7-5.6,2.7c-4.4,0-6.8-2.1-6.8-5.9S138.7,37,142.8,37z M148.5,38.9h-5.7
					c-3.4,0-4.5,1.6-4.5,3.7c0,2.8,1.9,3.8,4.7,3.8c3.2,0,5.6-1.1,5.6-5.5V38.9z"/>
			</g>
		</g>
		<g>
			<g>
				<path class="st2" d="M172.1,45.2c-1.3,2.1-3.6,3.2-6.7,3.2c-5.3,0-8.3-3.1-8.3-8.7v-2.8c0-5.6,3.1-8.6,8.3-8.6
					c2.9,0,5.2,1,6.6,3l-1.7,1.2c-1.1-1.5-3-2.2-4.9-2.2c-3.9,0-6.1,2.4-6.1,6.6v2.8c0,3.9,1.8,6.7,6.1,6.7c2,0,3.9-0.7,5-2.4
					L172.1,45.2z"/>
				<path class="st2" d="M177.7,36.3v11.8h-2.2V28.5h2.2v2.7c0.8-1.8,2.5-2.9,5-2.9c2.6,0,4.2,1,5.5,2.7l-1.8,1.3
					c-1-1.3-2.2-2-3.9-2C179.3,30.3,177.7,32.7,177.7,36.3z"/>
				<path class="st2" d="M191.9,38.8v0.8c0,3.9,1.8,6.7,6,6.7c2.4,0,4-0.7,5.1-2.4l1.7,1.2c-1.4,2.2-3.5,3.2-6.7,3.2
					c-5.2,0-8.3-3.2-8.3-8.7v-2.8c0-5.6,2.7-8.6,7.6-8.6c4.9,0,7.6,3,7.6,8.6v2H191.9z M191.9,36.9h10.9v0c0-4.3-1.8-6.6-5.4-6.6
					C193.7,30.2,191.9,32.6,191.9,36.9L191.9,36.9z M198.7,19.6h2.6l-3.5,6.2h-2.1L198.7,19.6z"/>
				<path class="st2" d="M222.4,21h2.2v27.1h-2.2v-2.4c-1.1,1.8-3,2.6-5.9,2.6c-5.1,0-7.7-3.3-7.7-8.7v-2.8c0-5.6,2.8-8.6,7.7-8.6
					c3,0,4.8,0.9,5.9,2.8V21z M222.4,39.7v-2.8c0-4-1.6-6.6-5.8-6.6c-3.7,0-5.7,2.3-5.7,6.6v2.8c0,4.1,1.8,6.7,5.7,6.7
					C221,46.4,222.4,43.6,222.4,39.7z"/>
				<path class="st2" d="M230.4,21h2.6v2.6h-2.6V21z M230.7,28.5h2.2v19.7h-2.2V28.5z"/>
				<path class="st2" d="M237.2,28.5h2.5v-4.3h2.2v4.3h4.8v2h-4.8v11c0,3.1,0.4,4.6,3.5,4.6h1.3v2.1h-1.4c-4.4,0-5.6-2-5.6-6.1V30.5
					h-2.5V28.5z"/>
				<path class="st2" d="M258,48.4c-5.1,0-8-3.1-8-8.7v-2.9c0-5.6,3-8.6,8-8.6c5,0,8,3,8,8.6v2.9C266,45.1,263.3,48.4,258,48.4z
					 M263.9,36.8c0-4.3-2.1-6.6-5.8-6.6c-3.8,0-5.8,2.3-5.8,6.6v2.9c0,4.1,1.8,6.6,5.8,6.6c3.8,0,5.8-2.5,5.8-6.6V36.8z"/>
			</g>
		</g>
	</g>
</g>
</svg>
