<?xml version="1.0" encoding="utf-8"?>
<!-- Generator: Adobe Illustrator 23.0.3, SVG Export Plug-In . SVG Version: 6.00 Build 0)  -->
<svg version="1.1" id="Capa_1" xmlns="http://www.w3.org/2000/svg" xmlns:xlink="http://www.w3.org/1999/xlink" x="0px" y="0px"
	 viewBox="0 0 130.6 131.7" style="enable-background:new 0 0 130.6 131.7;" xml:space="preserve">
<style type="text/css">
	.st0{fill:#E6E6E6;}
	.st1{fill:#F2F2F2;}
	.st2{fill:#30193B;}
	.st3{fill:#3B2B5B;}
	.st4{fill:#FF97A6;}
	.st5{fill:#CCCCCC;}
	.st6{fill:#FFFFFF;}
	.st7{fill:none;}
	.st8{fill:#C95D77;}
	.st9{fill:#305386;}
	.st10{fill:#26478D;}
	.st11{fill:#406EB3;}
	.st12{fill:#295A6E;}
	.st13{fill:#FFA9BA;}
	.st14{fill:#BFBFBF;}
	.st15{fill:#E82C88;}
</style>
<title>alerta_mail</title>
<g>
	<g>
		<g id="Assets">
			<polygon class="st0" points="14.4,80.3 123.6,86.6 122.1,8 18.9,9.7 			"/>
			<polyline class="st0" points="24,13.3 63.2,40 120.1,10 			"/>
			<polygon class="st1" points="60.2,36 120.1,10 20.9,11.7 			"/>
			<path class="st2" d="M42.5,32c0.2,1.8-0.1,8-10.6,9.8c0,0-8.4,0.8-11.1-3.5c-0.1-0.2-0.1-0.5,0.1-0.7c0.1,0,0.1-0.1,0.2-0.1
				c1.1-0.2,3.4-1.2,4.2-5.1c1.1-5.2,1.7-10,7.1-6.4c0,0,2.6-2.2,4.9,1.7c2.2,3.7,2.7,4.5,4.7,3.8C42.2,31.6,42.4,31.7,42.5,32
				C42.5,31.9,42.5,32,42.5,32z"/>
			<path class="st3" d="M27,26.6c0.2-0.5,0.6-0.9,1-1.2c0.4-0.3,1-0.4,1.5-0.3c0.5,0.1,1,0.2,1.5,0.5c0.5,0.2,0.9,0.5,1.4,0.8
				c0.1,0,0.1,0,0.2,0l0,0c0.5-0.4,1-0.5,1.6-0.5c0.6,0,1.1,0.2,1.6,0.6c0.9,0.8,1.6,1.8,2.1,2.9c0.3,0.5,0.6,1,1,1.6
				c0.4,0.6,0.9,1,1.5,1.3c0.3,0.1,0.7,0.1,1,0.1c0.2,0,0.3-0.1,0.5-0.1L42,32h0.1l0,0c0,0,0.1,0,0.1,0.1c0,0.1,0,0.1,0,0.2v0.2
				c0,0.3,0,0.6,0,0.9c-0.1,1.2-0.5,2.3-1.1,3.3c-0.7,1-1.5,1.9-2.5,2.5c-2,1.3-4.3,2.2-6.7,2.7c2.5-0.3,4.8-1.1,6.9-2.4
				c1.1-0.7,2-1.6,2.7-2.6c0.7-1.1,1.1-2.3,1.3-3.5c0-0.3,0.1-0.6,0-0.9v-0.2c0-0.1,0-0.2,0-0.3c-0.1-0.3-0.3-0.4-0.6-0.4H42h-0.1
				l-0.2,0.1c-0.1,0-0.3,0.1-0.4,0.1c-0.3,0-0.5,0-0.8,0c-0.5-0.2-0.9-0.6-1.2-1.1c-0.4-0.5-0.7-1-1-1.5c-0.6-1.1-1.3-2.2-2.3-3
				c-0.5-0.4-1.2-0.6-1.8-0.6c-0.7,0-1.3,0.3-1.8,0.7h0.2c-0.9-0.6-1.9-1.1-3-1.2c-0.6-0.1-1.1,0.1-1.5,0.4
				C27.5,25.6,27.2,26.1,27,26.6z"/>
			<path class="st2" d="M48.4,127c0.2-1-1.4-0.9-2.4-1.3c0.3,0.2,0.6,0.5,0.1,0.6c-0.9,0.2-1.8,0-2.5-0.6c-0.2,0.4-0.2,0.8-0.2,1.2
				C43.4,127.4,48.3,127.9,48.4,127z"/>
			<path class="st4" d="M46.2,126.3c0.5-0.1,0.2-0.4-0.1-0.6c-0.6-0.2-1.1-0.3-1.2-0.4c-0.2-0.1-0.3-0.2-0.4-0.4l-0.3-0.1
				c0,0-0.5,0.8-0.5,0.9C44.4,126.3,45.3,126.5,46.2,126.3z"/>
			<path class="st2" d="M13,127.2c0-1,1.3-0.8,2.2-1.1c-0.3,0.2-0.5,0.4-0.1,0.5c0.8,0.2,1.7,0,2.3-0.5c0.1,0.4,0.2,0.7,0.2,1.1
				C17.6,127.7,13,128,13,127.2z"/>
			<path class="st4" d="M15.1,126.6c-0.4-0.1-0.2-0.4,0.1-0.5c0.6-0.2,1-0.3,1.1-0.3c0.2-0.1,0.3-0.2,0.3-0.4l0.3-0.1
				c0,0,0.5,0.7,0.5,0.8C16.8,126.6,15.9,126.8,15.1,126.6z"/>
			<path class="st4" d="M43,56.6c0,0.2,4.7,5.9,5.7,10.3c2.9,13.3-3.4,50.9-4.2,58c-0.1,1-0.4,0.9-0.5-0.3
				c-0.5-7.5-5.8-51.8-5.8-51.8l-21.1,52.7l-0.4-0.1c0,0,2.3-23.8,4.2-37.4c1.1-8,2.4-20.3,9.6-31.3C32.7,56.1,39.6,56.4,43,56.6z"
				/>
			<path class="st5" d="M39.3,123.4c21.7,0,39.3,1.9,39.3,4.2s-17.6,4.2-39.3,4.2S0,129.9,0,127.6S17.6,123.4,39.3,123.4z"/>
			<path class="st3" d="M43.5,57.1c0,0,3.8,6.2,4.9,8.6c2.1,4.5,0.9,17.8,0.3,24c0,0-15.8,1.8-22.9-0.4l0.9-10.8l-3.7,10.3l-2.3-0.2
				c0,0,2.2-16.9,5-23s4.6-9.1,4.6-9.1L43.5,57.1z"/>
			<path class="st2" d="M36,90.4c0,0-7.5-0.3-10.1-1.1l0.9-10.8l-3.7,10.3l-2.3-0.2c0,0,1.9-17.2,4.8-23.3c1.3-3.1,3-6,4.9-8.7
				l5.4,0.2c0,0-3.1,9.8-2.4,19.1C33.9,80.8,34.8,85.7,36,90.4z"/>
			<path class="st6" d="M43.4,40.5c1.3,4.2,1.7,5.9,1.1,11.7c-0.2,1.7-15.4,5.3-15.7,4.4l-1.6-4.2c-2.4-6.4-3.3-8.2-2.7-10.8
				c0.4-1.8,0.4-3.9,9.1-6.2c1.9-0.6,4-0.5,5.9,0.2C41.4,36.3,42.9,38.7,43.4,40.5z"/>
			<path class="st7" d="M28.8,31.8L28.8,31.8"/>
			<path class="st6" d="M34.6,35.2c1.6,2.6,2.7,5.3,3.5,8.3c0.8,3.7,1,7.5,0.7,11.3c0,0,3.8-0.6,5.4-2c0.2-0.2,0.4-0.5,0.4-0.8
				c0.2-1.9,0.7-9.5-1.6-13.6C40.4,33.7,34.6,35.2,34.6,35.2z"/>
			<path class="st6" d="M31.7,52.7l-2.2-6.8c0,0-1.7-10-4.5-5.8C23.1,42.9,26,52,29,57C30.1,58.8,32.9,56.3,31.7,52.7z"/>
			<path class="st6" d="M33.8,52.7c0,0,12.7,0.5,13.4,2.3s-0.9,3.8-4.3,4.8c-1.5,0.4-10.8,1.8-13.6-2.4
				C26.6,53.4,33.8,52.7,33.8,52.7z"/>
			<path class="st4" d="M33.8,32.9c0.3,0.9,0.5,1.9,0.6,2.8c-0.2,0.4-0.6,0.6-1,0.4c-0.1,0-0.2-0.1-0.3-0.2
				c-0.5-0.6-0.4-2.9-0.4-2.9L33.8,32.9z"/>
			<path class="st8" d="M34.2,34.5c-0.5,0.3-1.1,0.1-1.5-0.3c-0.1-0.5,0-0.2,0-0.6l1.3-0.1C34.1,33.8,34.1,34.1,34.2,34.5z"/>
			<path class="st4" d="M32.1,33.2c-0.5-0.7-0.9-1.5-1.2-2.3c-0.2-1.5,2.9-2.3,3.5-2.2s1,0.8,1.2,1.3c0.3,0.6,0.5,1.4,0.5,2.1
				c-0.2,0.6-0.7,1.2-1.3,1.5C33.4,34.2,32.8,34.1,32.1,33.2z"/>
			<polygon class="st9" points="29.5,53.5 29.7,55 37.5,57.1 43.5,55.7 37.1,55.2 			"/>
			<polygon class="st10" points="56.9,51.3 37.5,55.2 29.5,53.5 56.4,48.4 			"/>
			<polygon class="st11" points="57.2,52.7 37.5,57.1 37.3,40.9 57.3,37.8 			"/>
			<polygon class="st9" points="36.7,56.7 37.5,57.1 37.3,40.9 36.3,40.9 			"/>
			<polygon class="st12" points="36.4,40.9 55.6,37.9 57.3,37.8 37.3,40.9 			"/>
			<path class="st4" d="M48.1,55.3c0.3-0.4,0.4-0.9,0.3-1.3c0-0.2-0.2-0.3-0.2-0.3s0-0.3-0.2-0.3s-0.4,0.6-0.7,1
				c-0.2,0.2-0.4,0.4-0.6,0.6c0,0,0.1-0.6-0.1-0.6s-0.3,0.7-0.4,1.1S47.7,55.8,48.1,55.3z"/>
			<path class="st4" d="M46.9,54.9c0.3-0.6,0.5-1.5,0.7-1.4s0.2,0.4,0,0.9C47.5,54.6,47.2,54.9,46.9,54.9z"/>
			<path class="st6" d="M36.1,35.5c2.1,2.1,4.9,3.2,7.9,3.1c3.7-0.3,7.7,0.2,10.6-4.8c1.6-2.8-2.4-1.5-2.4-1.5L43,33.9
				C43,33.9,35,34.4,36.1,35.5z"/>
			<path class="st6" d="M50.8,37.5c3.2-0.6,10.5-12.9,7.4-16.7c-0.5-0.8-1.4-1.2-2.3-1.1l-8.5,14C47.3,33.8,47.2,38.2,50.8,37.5z"/>
			<path class="st13" d="M56.6,20.4c0.1,0.1,0.3,0.1,0.4,0l1.5-0.8c0,0,0.8-0.4,0.8-1c0,0-0.1-0.2-0.3,0c0,0,0.4-0.6,0.3-0.8
				s-0.4,0-0.4,0c-0.3,0.3-0.7,0.5-1.1,0.7c-0.3,0.1-0.5,0.2-0.6,0.1s0.3-0.5,0.1-0.5s-0.8,0.8-0.8,1.1c-0.1,0.2-0.1,0.4-0.2,0.5
				C56.2,19.9,56.4,20.2,56.6,20.4z"/>
			<path class="st14" d="M31.7,52.7c-0.3-1.1-0.6-2.2-0.9-3.3s-0.7-2.2-1.1-3.3s-0.7-2.2-1.2-3.2c-0.2-0.5-0.5-1-0.7-1.6
				c-0.1-0.3-0.3-0.5-0.4-0.8c-0.1-0.3-0.3-0.5-0.5-0.7c0.3,0.5,0.6,1,0.7,1.5c0.2,0.5,0.4,1.1,0.6,1.6l1.1,3.3
				c0.4,1.1,0.8,2.2,1.2,3.2S31.2,51.6,31.7,52.7z"/>
			<path class="st15" d="M130.1,16.9c-2.3,6.8-10.1,11.4-16.9,9s-12.6-9.5-10.3-16.3s10.1-11.3,16.9-9S132.4,10.1,130.1,16.9z"/>
		</g>
	</g>
</g>
</svg>
