<svg xmlns="http://www.w3.org/2000/svg" viewBox="0 0 120 120"><defs><style>.cls-1{fill:none;}.cls-2{fill:#757575;}.cls-3{fill:#737373;}</style></defs><title>aliado_lineru_n</title><g id="Capa_2" data-name="Capa 2"><g id="Assets"><rect class="cls-1" width="120" height="120"/><path class="cls-2" d="M55.9,61.36v-11H52.6v11H47.4V46.66H61.1v14.7Z"/><path class="cls-3" d="M91.1,61.36V46.66h5.1v11h3.3v-11h5.2v14.7Z"/><path class="cls-3" d="M75.4,57.76c.2,1,.3,2,.5,3.2a14.19,14.19,0,0,1-2.2.5,15.6,15.6,0,0,1-5.7,0,5.64,5.64,0,0,1-4.9-5.1,13.48,13.48,0,0,1,.1-5.3,5.54,5.54,0,0,1,4.5-4.4,10.38,10.38,0,0,1,4.3,0,5.16,5.16,0,0,1,4.1,3.8,16.19,16.19,0,0,1,.3,4.9H67.5a2.61,2.61,0,0,0,2.5,2.8,13.39,13.39,0,0,0,4.9-.3A.75.75,0,0,0,75.4,57.76Zm-3.2-5.1c0-1-.1-2-1-2.5a2.44,2.44,0,0,0-2.6,0c-.9.5-1,1.5-1.2,2.5Z"/><path class="cls-3" d="M32.7,57.66h5.2v3.7H27.5V46.76h5.1C32.7,50.36,32.7,54,32.7,57.66Z"/><path class="cls-3" d="M89.1,50.36H83.9v11H78.8V46.66H89.2C89.1,47.86,89.1,49.06,89.1,50.36Z"/><path class="cls-3" d="M20.4,73.56v-5.1H15.3v-5.2H25.6v10.3Z"/><path class="cls-3" d="M39.8,61.36V46.66h5.1v14.7Z"/></g></g></svg>