<svg xmlns="http://www.w3.org/2000/svg" viewBox="0 0 120 120"><defs><style>.cls-1{fill:none;}.cls-2,.cls-8{fill:#cc212a;}.cls-2,.cls-3,.cls-4,.cls-5,.cls-6,.cls-7{fill-rule:evenodd;}.cls-3,.cls-6{fill:#0080c0;}.cls-4{fill:#fbe03b;}.cls-5{fill:#e2982f;}.cls-6{stroke:#262424;stroke-miterlimit:3.86;stroke-width:0.19px;}.cls-7{fill:#262424;}</style></defs><title>aliado_davivienda</title><g id="Capa_2" data-name="Capa 2"><g id="Assets"><rect class="cls-1" width="120" height="120"/><path class="cls-2" d="M47.78,52.43c.1.6,0,3.3-2.4,6.9-2.5,4,1.5,10.7,9.5,9a16,16,0,0,0,4.9.7,15.59,15.59,0,0,0,4.9-.7c8.1,1.7,12-5,9.5-9-2.4-3.6-2.5-6.3-2.4-6.9Z"/><path class="cls-3" d="M59.78,69c-7.9-.2-9.3-3.8-7.1-4.6a23.09,23.09,0,0,0,2.9-1.2c-.8-4.1.5-9.3,4.2-9.3s5,5.4,4.2,9.4c0,0,1.7.6,2.9,1.1C69,65.23,67.68,68.83,59.78,69Z"/><path class="cls-4" d="M56.88,66.13c-2.1-5.9-.3-11.3,3-11.3,3.1,0,5.2,5.3,3,11.3a17.74,17.74,0,0,0-3.1-.2A21.28,21.28,0,0,0,56.88,66.13Z"/><path class="cls-5" d="M59.78,69.13c3.2,0,5.7-.7,5.7-1.6s-2.5-1.6-5.7-1.6-5.7.7-5.7,1.6S56.58,69.13,59.78,69.13Z"/><path class="cls-6" d="M49.28,55.33h3.8a1.11,1.11,0,0,1,1.1,1.1V59a1.11,1.11,0,0,1-1.1,1.1h-3.8a1.11,1.11,0,0,1-1.1-1.1v-2.6A1.11,1.11,0,0,1,49.28,55.33Z"/><path class="cls-7" d="M48.88,56.83a.79.79,0,0,1,.8-.8h3a.79.79,0,0,1,.8.8v1.9a.79.79,0,0,1-.8.8h-3a.79.79,0,0,1-.8-.8Z"/><path class="cls-4" d="M53.58,58.23c-1.4-.1-1.8-1.7-2-2.2h1.1a.79.79,0,0,1,.8.8v1.4Z"/><path class="cls-4" d="M50.88,55.93c-.1.5-.5,2.2-2,2.2v-1.4a.79.79,0,0,1,.8-.8Z"/><path class="cls-6" d="M66.48,55.33h3.8a1.11,1.11,0,0,1,1.1,1.1V59a1.11,1.11,0,0,1-1.1,1.1h-3.8a1.11,1.11,0,0,1-1.1-1.1v-2.6A1.11,1.11,0,0,1,66.48,55.33Z"/><path class="cls-7" d="M66.08,56.83a.79.79,0,0,1,.8-.8h3a.79.79,0,0,1,.8.8v1.9a.79.79,0,0,1-.8.8h-3a.79.79,0,0,1-.8-.8Z"/><path class="cls-4" d="M70.78,58.23c-1.4-.1-1.8-1.7-2-2.2H70a.79.79,0,0,1,.8.8Z"/><path class="cls-4" d="M68.08,55.93c-.1.5-.5,2.2-2,2.2v-1.4a.79.79,0,0,1,.8-.8Z"/><path class="cls-2" d="M67.68,42.53c-.4-1.4-.5-2.1.8-2.1h2.8c1.7,0,1,1.3.8,2.5-.2,1.7-.2,2.2-.2,2.2S67.68,42.63,67.68,42.53Z"/><path class="cls-5" d="M59.78,52.33c-4.1,0-9.8.4-13.4.6-2.8.2-4.9-1.9-3.1-3.9,3.9-4.3,13.6-9.7,16.5-9.7,3.1,0,12.6,5.4,16.5,9.7,1.9,2,0,3.9-2.8,3.9C70.38,52.93,63.88,52.33,59.78,52.33Z"/><path class="cls-7" d="M62,61.93a.56.56,0,0,1,.5-.6c.3,0,.5.2.5.6a.47.47,0,0,1-.5.5A.54.54,0,0,1,62,61.93Z"/><path class="cls-7" d="M59.78,65.73a23.85,23.85,0,0,0-3,.2c-2-5.7-.2-11.1,3-11.1s4.9,5.4,3,11.1C62.78,66,61.48,65.73,59.78,65.73Zm2.9.5c1.6.3,2.7.7,2.7,1.3,0,.8-2.5,1.5-5.6,1.5s-5.6-.7-5.6-1.5c0-.5,1.1-1,2.7-1.3,0,0,1.8-.2,2.9-.2A14,14,0,0,1,62.68,66.23ZM63,66c2-5.9.1-11.3-3.1-11.3s-5.2,5.4-3.1,11.3c-1.6.3-2.6.8-2.6,1.4a.55.55,0,0,0,.3.5c-2.7-1.2-2.9-3.1-1.5-3.6s2.8-1,2.8-1c-.8-4,.4-9.3,4.1-9.3s4.9,5.3,4.1,9.3c0,0,1.5.6,2.8,1s1.2,2.4-1.4,3.6c.2-.2.3-.3.3-.5C65.58,66.83,64.48,66.33,63,66Zm4.9-23.5c-.3-1.2-.3-1.8.8-1.8h2.4c1.6,0,.9,1.2.8,2.4-.1.7-.1,1.3-.2,1.8C70.38,44,69.08,43.23,67.88,42.53Zm-2.7,25.8c7.6,1.3,11.3-5.1,8.8-8.9a13.08,13.08,0,0,1-2.4-6.3c-5-.3-8.4-.5-11.8-.6s-6.8.3-11.8.6a13.08,13.08,0,0,1-2.4,6.3c-2.4,3.8,1.3,10.2,8.8,8.9-3.2-1.2-3.6-3.3-1.9-4l2.9-1.1c-.8-4.1.6-9.5,4.3-9.5s5.1,5.4,4.3,9.5c0,0,1.7.6,2.9,1.1C68.78,65,68.38,67.13,65.18,68.33ZM59.78,52c-4.3.1-8.3.4-13.1.7-3,.2-4.6-1.8-2.7-3.8,2.7-3,12.1-9.2,15.8-9.2s13.1,6.2,15.8,9.2c1.9,2,.2,4-2.7,3.8C68.08,52.43,64.08,52.13,59.78,52Zm7.6-9.9c0-.1-.1-.2-.1-.4a1.15,1.15,0,0,1,1.2-1.6h2.8c1.6,0,1.4,1.1,1.2,2.2a11.72,11.72,0,0,0-.4,2.7s2.3,1.7,3.5,2.7c4,3.3,1.4,5.5-2.4,5.3a3.75,3.75,0,0,1-1.1-.1,9.72,9.72,0,0,0,2.1,5.5c4.4,5.2-1.4,11.8-9.6,9.9a15.77,15.77,0,0,1-4.7.7,16.24,16.24,0,0,1-4.7-.7c-8.2,1.8-14-4.7-9.6-9.9a9.72,9.72,0,0,0,2.1-5.5l-1.1.1c-3.8.2-6.3-2-2.4-5.3,5.9-4.9,13-8.6,15.7-8.6C61.28,39.23,64.18,40.33,67.38,42.13Z"/><path class="cls-8" d="M18.18,79.63c1.7.3,5.8.2,5.9-2.4,0-1.1-1.4-2.1-2.7-2.4a7.85,7.85,0,0,0-4.3,0c-1,.4-1.3-.6-.4-.9,1.7-.6,8.6-.8,8.9,3.3-.3,4-6.2,3.7-7.6,3.5-.5-.1-.9-.3-.9-1v-3.4a.6.6,0,0,1,1.2,0Z"/><path class="cls-8" d="M30.88,74.93c-1.3,0-3.6,4-4.2,5.5a.67.67,0,1,1-1.2-.6c.7-1.6,3.4-6.3,5.4-6.2s4.7,4.7,5.4,6.2a.67.67,0,1,1-1.2.6C34.48,78.93,32.28,74.93,30.88,74.93Z"/><path class="cls-8" d="M40.18,79.43c1.3,0,3.6-4,4.2-5.5a.67.67,0,1,1,1.2.6c-.7,1.6-3.4,6.3-5.4,6.2s-4.7-4.7-5.4-6.2a.67.67,0,1,1,1.2-.6C36.68,75.43,38.88,79.43,40.18,79.43Z"/><path class="cls-8" d="M47.88,74.23v5.9a.65.65,0,0,1-1.3,0v-5.9A.65.65,0,1,1,47.88,74.23Z"/><path class="cls-8" d="M54.28,79.43c1.3,0,3.6-4,4.2-5.5a.67.67,0,1,1,1.2.6c-.7,1.6-3.4,6.3-5.4,6.2s-4.7-4.7-5.4-6.2a.67.67,0,1,1,1.2-.6C50.68,75.43,52.88,79.43,54.28,79.43Z"/><path class="cls-8" d="M64.48,77.73a3.79,3.79,0,0,0,2.6,1.7,7.85,7.85,0,0,0,4.3,0c1-.3,1.3.6.4.9-1.8.6-8.5.8-8.9-3.3.2-3.9,5.6-3.8,7.6-3.5,1,.1.8,1.2-.2,1-1.4-.2-5.1-.4-5.8,2.1h3.8c.6,0,.6,1.1,0,1.1Z"/><path class="cls-8" d="M85.68,79.63c1.7.3,5.8.2,5.9-2.4,0-1.1-1.4-2.1-2.7-2.4a7.85,7.85,0,0,0-4.3,0c-1,.4-1.3-.6-.4-.9,1.7-.6,8.6-.8,8.9,3.3-.3,4-6.2,3.7-7.6,3.5-.5-.1-.9-.3-.9-1v-3.4a.6.6,0,0,1,1.2,0Z"/><path class="cls-8" d="M98.38,74.93c-1.3,0-3.6,4-4.2,5.5a.67.67,0,1,1-1.2-.6c.7-1.6,3.4-6.3,5.4-6.2s4.7,4.7,5.4,6.2a.67.67,0,1,1-1.2.6C102,78.93,99.78,74.93,98.38,74.93Z"/><path class="cls-8" d="M61.88,74.23v5.9a.65.65,0,0,1-1.3,0v-5.9A.65.65,0,1,1,61.88,74.23Z"/><path class="cls-8" d="M77.88,78.33c-.8-1.5-1.7-3.5-2.4-3.5-1.5,0-.8,3-.9,5.4,0,.8-1.3.8-1.3-.1,0-3-.6-6.6,2.2-6.6.8,0,1.6,1.3,2.4,2.4.8,1.5,1.8,3.5,2.4,3.6,1.5,0,.8-3,.8-5.3,0-.8,1.3-.8,1.3.1,0,3,.7,6.5-2.2,6.5C79.48,80.83,78.68,79.53,77.88,78.33Z"/></g></g></svg>