<svg xmlns="http://www.w3.org/2000/svg" viewBox="0 0 121.04 149.04"><defs><style>.cls-1{fill:#d4d4d4;}.cls-2{fill:#b0b0b0;}.cls-3{fill:#ffae95;}.cls-4{fill:#933227;}.cls-5{fill:#ff5e4b;}.cls-6{fill:#3e275c;}.cls-7{fill:#ff97a7;}.cls-8{fill:#331239;}.cls-9{fill:#8db4de;}.cls-10{fill:#a289e8;}.cls-11{fill:#9bcbe9;}.cls-12{fill:#b0d5ed;}.cls-13{fill:#c1ddf1;}.cls-14{fill:#e45d79;}.cls-15{fill:#533497;}.cls-16{fill:#fff;}.cls-17{fill:#ff9680;}.cls-18{fill:#ffcb37;}.cls-19{fill:#ffefd1;}.cls-20{fill:#e8d1b2;}</style></defs><title>ayuda_contacto</title><g id="Capa_2" data-name="Capa 2"><g id="Assets"><rect class="cls-1" x="113.46" y="83.15" width="3.75" height="64.76" transform="translate(230.67 231.05) rotate(-180)"/><rect class="cls-2" x="112.55" y="83.15" width="0.91" height="64.76" transform="translate(226.01 231.05) rotate(-180)"/><rect class="cls-1" x="87.31" y="83.15" width="3.75" height="64.76" transform="translate(178.38 231.05) rotate(-180)"/><rect class="cls-2" x="86.4" y="83.15" width="0.91" height="64.76" transform="translate(173.71 231.05) rotate(-180)"/><rect class="cls-2" x="86.86" y="144.55" width="26.6" height="3.35" transform="translate(200.31 292.45) rotate(-180)"/><polygon class="cls-3" points="66.25 105.49 40.12 105.49 28.86 63.14 54.38 63.14 66.25 105.49"/><polygon class="cls-1" points="39.17 147.83 37.37 147.83 37.28 107.5 39.09 107.5 39.17 147.83"/><polygon class="cls-2" points="40.08 147.83 39.17 147.83 39.09 107.5 39.99 107.5 40.08 147.83"/><polygon class="cls-1" points="60.69 147.83 58.88 147.83 58.59 108.53 60.4 108.53 60.69 147.83"/><polygon class="cls-2" points="61.59 147.83 60.69 147.83 60.4 108.53 61.31 108.53 61.59 147.83"/><rect class="cls-1" x="63.92" y="106.28" width="1.81" height="41.65"/><rect class="cls-2" x="65.73" y="106.28" width="0.9" height="41.65"/><rect class="cls-1" x="81.15" y="105.99" width="1.81" height="41.65"/><rect class="cls-2" x="82.95" y="105.99" width="0.9" height="41.65"/><rect class="cls-4" x="56.65" y="105.49" width="29.48" height="3.5"/><polygon class="cls-5" points="28.52 63.14 37.32 108.99 63.09 108.99 63.09 105.49 40.12 105.49 31.73 63.15 28.52 63.14"/><path class="cls-6" d="M84.07,147.93a7.62,7.62,0,0,0-2.6-1.43c.31.21.61.51.11.63a3.67,3.67,0,0,1-2.79-.66,3.41,3.41,0,0,0-.27,1.31C78.5,148.26,83.93,148.85,84.07,147.93Z"/><path class="cls-7" d="M81.58,147.13c.5-.12.2-.42-.11-.63-.65-.23-1.2-.39-1.32-.45a.8.8,0,0,1-.39-.46l-.33-.08s-.58.85-.64,1A3.67,3.67,0,0,0,81.58,147.13Z"/><path class="cls-6" d="M76.71,148.56c0-.27-1.56-1.07-2.61-1.43.31.21.62.51.11.63a3.68,3.68,0,0,1-2.79-.67,3.49,3.49,0,0,0-.27,1.31C71.14,148.89,76.58,149.48,76.71,148.56Z"/><path class="cls-7" d="M74.21,147.76c.51-.12.2-.42-.11-.63-.65-.23-1.2-.4-1.32-.46a.77.77,0,0,1-.39-.45l-.33-.09s-.58.85-.64,1A3.68,3.68,0,0,0,74.21,147.76Z"/><path class="cls-6" d="M53.53,82.61c-1.72,6.51.92,6,.37,13-.76,9.54,26.69,10.49,26.69,10.49s-1.74,34.24-2.21,39.55l2.19.2s12.82-31.76,8-45.63C85.9,92.58,67.76,89,67.76,89L62.85,81.5A41.27,41.27,0,0,1,53.53,82.61Z"/><path class="cls-8" d="M42,82.41c-4.58,12.13-3.63,14.28-1.53,17.68,2.7,4.39,8.93,4.76,15,4.82,5.1,0,9.53.43,9.53.43s5.49,34.23,5.49,40.17c0,.86,2.08,2.25,2.24.21.45-5.66,1.35-22.87,3.53-41.48,1.16-10-20.4-12.81-20.4-12.81l-2.38-8.82S47.58,82.32,42,82.41Z"/><path class="cls-9" d="M87.57,74.27C84.89,73.8,72,72.78,72,72.78S66.19,76.14,69,77.46c3.05,1.46,6.32,2.07,11,3.76s12-1,12-1S90.25,74.74,87.57,74.27Z"/><path class="cls-9" d="M73,74.35s-4.19-9.32-5.56-12a30,30,0,0,0-3.4-5.19c-1.32-1.25-3.2-2.12-6.7-2.12.43,3.12,9.27,18.72,10.66,21.45C69.59,79.53,73,74.35,73,74.35Z"/><path class="cls-6" d="M60.36,48.76a15.4,15.4,0,0,0-3.89-8.36c-1.13-1.17-3.72-2.64-5-1l-.4.12s0,0-.06,0c-5.42-1-9.4,4.36-11.55,8.56-2.69,5.3-4.33,11.82-9.74,15.1a.41.41,0,0,0-.14.55c5.5,7.43,16.14,9.48,24.58,6.42a.44.44,0,0,0,.2-.15.42.42,0,0,0,.53-.17C58.75,63.81,61.44,55.89,60.36,48.76Z"/><path class="cls-10" d="M53.57,38.72a7,7,0,0,1,2.26,1.52,10.36,10.36,0,0,1,1.71,2.08,16.11,16.11,0,0,1,1.28,2.39A11.17,11.17,0,0,1,59.31,46a11.88,11.88,0,0,1,.38,1.29,21.55,21.55,0,0,1,.55,5.39c0,.91-.06,1.82-.16,2.73s-.22,1.83-.38,2.74a21.07,21.07,0,0,0,1.13-5.45,17.56,17.56,0,0,0-.4-5.59A14.42,14.42,0,0,0,58,42,8.13,8.13,0,0,0,53.57,38.72Z"/><path class="cls-11" d="M63,56.31c-.76,0-3.4-2-13.32-1.26-2,.15-8.9,1.16-12.48,5.05-1.42,1.54,5,23.32,4.74,24.65C56.29,88.94,61.5,85,64,84.17,64.35,82.69,63,56.31,63,56.31Z"/><path class="cls-12" d="M49.65,55.05l-1,.11c-2.73.35-8.35,1.56-11.46,4.94-1.42,1.54,5,23.32,4.74,24.65a42.36,42.36,0,0,0,11.33,1.9c.44,0,1.26,0,1.26,0s-6.34-11.52-7-15.79C47,66.91,49.65,55.05,49.65,55.05Z"/><path class="cls-13" d="M40.16,57.8a7.34,7.34,0,0,0-4.44,7.25c0,4.92,1.62,14.09,6.22,17.69,3.41,2.67,2.56-7.57,2.56-7.57s-2-.92-2.82-6.84C41.47,66.92,42.94,60.17,40.16,57.8Z"/><path class="cls-7" d="M52.54,50.52s.51,4.39.28,4.88-1.06,1.14-1.55.05,0-4.93,0-4.93Z"/><path class="cls-14" d="M52.84,53.72a1.52,1.52,0,0,1-1.8.18c0-.8,0-1.7.09-2.38h1.52C52.71,52.15,52.79,53,52.84,53.72Z"/><path class="cls-7" d="M49.61,50.46a8.19,8.19,0,0,1-.26-2.31,2.4,2.4,0,0,1,2.49-2.45,1.5,1.5,0,0,0,.64-.05,6.26,6.26,0,0,1,2.32.49c.73.45.79,1.47.85,2.23a5.55,5.55,0,0,1-.54,2.81,3.52,3.52,0,0,1-2.29,1.19C50.73,52.42,50.11,51.91,49.61,50.46Z"/><path class="cls-6" d="M49.55,50.82h0L49.32,48h0A1.4,1.4,0,0,0,48,49.51h0A1.41,1.41,0,0,0,49.55,50.82Z"/><path class="cls-6" d="M56,48.81s-4.56-.36-6.53-2.55,4.17-3.87,4.17-3.87S57.15,45.27,56,48.81Z"/><path class="cls-6" d="M55.35,51.06h0l.25-2.83h0a1.41,1.41,0,0,1,1.28,1.53v0A1.41,1.41,0,0,1,55.35,51.06Z"/><path class="cls-6" d="M56.53,48.64s.26-3.86-3.42-4.31a4,4,0,0,0-3.23.81,4.12,4.12,0,0,0-1.27,3h.76a3.36,3.36,0,0,1,1-2.43A3.23,3.23,0,0,1,53,45.09a3.16,3.16,0,0,1,2.76,3.49Z"/><rect class="cls-1" x="32.87" y="83.15" width="3.75" height="64.76" transform="translate(69.5 231.05) rotate(-180)"/><rect class="cls-2" x="31.96" y="83.15" width="0.91" height="64.76" transform="translate(64.84 231.05) rotate(-180)"/><rect class="cls-1" x="6.73" y="83.15" width="3.75" height="64.76" transform="translate(17.21 231.05) rotate(-180)"/><rect class="cls-2" x="5.81" y="83.15" width="0.91" height="64.76" transform="translate(12.54 231.05) rotate(-180)"/><rect class="cls-2" x="6.27" y="144.55" width="26.6" height="3.35" transform="translate(39.14 292.45) rotate(-180)"/><path class="cls-7" d="M65.54,76.88h0a10.82,10.82,0,0,1,2.85.26h.68l.83,0c.25,0,.34.27.53.5s.33.67.27.73-.8-.71-.86-.73a2.85,2.85,0,0,1-.5,0c.15.11.3.21.44.33s.83,1.31.52,1.5c0,0-1,.28-3-1a9.28,9.28,0,0,0-1.1-.4,1.76,1.76,0,0,1-.81-.33.06.06,0,0,1,0,0l0,0A1.76,1.76,0,0,1,65.54,76.88Z"/><path class="cls-13" d="M41.57,82c3.41,2.67,22.37,3,24.37-3.24.74-2.31-.45-3.4-.45-3.4L44.29,75S37,78.36,41.57,82Z"/><path class="cls-8" d="M68.83,70.55l5.88-27.39a1.38,1.38,0,0,1,1.34-1.08h.74L70.15,72.21h0A1.37,1.37,0,0,1,68.83,70.55Z"/><polygon class="cls-15" points="70.03 72.21 109.49 71.17 115.6 42.14 76.79 42.08 70.03 72.21"/><path class="cls-8" d="M81.82,79.87h13V78.19H83.5a1.68,1.68,0,0,0-1.68,1.68Z"/><polygon class="cls-8" points="90.95 79.66 88.48 62.19 86.56 62.19 88.89 79.52 90.95 79.66"/><polygon class="cls-15" points="96.9 62.35 88.48 62.35 90.94 79.87 99.24 79.87 96.9 62.35"/><path class="cls-16" d="M91.08,53.79a2,2,0,0,0,2,2.26,2.62,2.62,0,0,0,2.53-2.26,2,2,0,0,0-2-2.26A2.61,2.61,0,0,0,91.08,53.79Z"/><rect class="cls-17" y="79.78" width="96.09" height="4.05" transform="translate(96.09 163.61) rotate(-180)"/><rect class="cls-3" x="24.95" y="79.78" width="96.09" height="4.05" transform="translate(145.99 163.61) rotate(-180)"/><path class="cls-18" d="M58,10.4C58.25,4.9,62.39.62,67.25.84s8.59,4.85,8.34,10.35A10.4,10.4,0,0,1,71.68,19a8.77,8.77,0,0,0-.43,1,9.82,9.82,0,0,1-1,2.6,4.49,4.49,0,0,1-3.85,1.59l-.3,0h-.51c-1.08-.09-2.73-.51-3.33-1.64a3,3,0,0,1-.25-.81,4.45,4.45,0,0,1-.25-.54,12,12,0,0,1-.62-2.72A10.46,10.46,0,0,1,58,10.4Z"/><circle class="cls-18" cx="66.8" cy="10.25" r="10.25"/><path class="cls-19" d="M65.24,15.12c-.35,2.62-.76,5.54.1,8.11a.23.23,0,0,0,.45-.13,23.21,23.21,0,0,1-.15-7c.12-1,.33-2.05.47-3.12a2.64,2.64,0,0,0,.6.2,21.19,21.19,0,0,0-.31,10.31.12.12,0,0,0,.23,0,29.57,29.57,0,0,1,.24-9.34c.07-.29.14-.59.22-.88a2.88,2.88,0,0,0,3-2.29c.14-.7-.07-1.59-1-1.28-1.18.4-1.91,1.9-2.28,3a.94.94,0,0,1,0,.16,2.16,2.16,0,0,1-.65-.26,10.56,10.56,0,0,0,0-2.38c-.08-.69-.7-1.59-1.42-.88s-.28,2.1.23,2.8a3.1,3.1,0,0,0,.56.58C65.47,13.47,65.35,14.3,65.24,15.12Zm2-2.29a5.39,5.39,0,0,1,1.3-2.23c.45-.44,1.09-.71,1.21.1a1.68,1.68,0,0,1-.37,1A2.54,2.54,0,0,1,67.21,12.83Zm-1.58-.71a2.79,2.79,0,0,1-.42-.54c-.09-.16-.5-1-.34-1.25l.84-.3a3.14,3.14,0,0,1,0,.81C65.71,11.27,65.68,11.7,65.63,12.12Z"/><path class="cls-20" d="M61.17,24.15A1.3,1.3,0,0,1,62,22.91a1.16,1.16,0,0,1,.78,0,1,1,0,0,1,.68,0,13.23,13.23,0,0,0,3.42.51c.73-.1,1.44-.24,2.16-.36s1.31-.32,1.71.21a.67.67,0,0,1,.13.61A1.59,1.59,0,0,1,71,25a1.89,1.89,0,0,1-.94,1.1,1.16,1.16,0,0,1,.29,1.13,1.67,1.67,0,0,1-1,1,2.85,2.85,0,0,1-.75.29c.12,2.52-6.92,1.65-6.31-.65l.06-.16a2.54,2.54,0,0,1-.93-1,1.25,1.25,0,0,1,.2-1.43A1.76,1.76,0,0,1,61.17,24.15Z"/></g></g></svg>