<?xml version="1.0" encoding="utf-8"?>
<!-- Generator: Adobe Illustrator 23.0.3, SVG Export Plug-In . SVG Version: 6.00 Build 0)  -->
<svg version="1.1" id="Capa_1" xmlns="http://www.w3.org/2000/svg" xmlns:xlink="http://www.w3.org/1999/xlink" x="0px" y="0px"
	 viewBox="0 0 40 40" style="enable-background:new 0 0 40 40;" xml:space="preserve">
<style type="text/css">
	.st0{fill:#54565A;}
	.st1{fill:#FFFFFF;}
</style>
<title>interfaz_01</title>
<g>
	<g>
		<path class="st0" d="M40,31.8c0,4.5-3.7,8.2-8.2,8.2H8.2C3.7,40,0,36.3,0,31.8V8.2C0,3.7,3.7,0,8.2,0h23.6C36.3,0,40,3.7,40,8.2
			V31.8z"/>
		<path class="st1" d="M16.4,28.9c8.1,0,12.5-6.7,12.5-12.5c0-0.2,0-0.4,0-0.6c0.9-0.6,1.6-1.4,2.2-2.3c-0.8,0.3-1.6,0.6-2.5,0.7
			c0.9-0.5,1.6-1.4,1.9-2.4c-0.8,0.5-1.8,0.9-2.8,1.1c-0.8-0.9-1.9-1.4-3.2-1.4c-2.4,0-4.4,2-4.4,4.4c0,0.3,0,0.7,0.1,1
			c-3.6-0.2-6.9-1.9-9-4.6c-0.4,0.6-0.6,1.4-0.6,2.2c0,1.5,0.8,2.9,1.9,3.6c-0.7,0-1.4-0.2-2-0.5c0,0,0,0,0,0.1
			c0,2.1,1.5,3.9,3.5,4.3c-0.4,0.1-0.8,0.2-1.2,0.2c-0.3,0-0.6,0-0.8-0.1c0.6,1.7,2.2,3,4.1,3c-1.5,1.2-3.4,1.9-5.4,1.9
			c-0.4,0-0.7,0-1-0.1C11.7,28.2,14,28.9,16.4,28.9"/>
	</g>
</g>
</svg>
