<?xml version="1.0" encoding="utf-8"?>
<!-- Generator: Adobe Illustrator 23.0.3, SVG Export Plug-In . SVG Version: 6.00 Build 0)  -->
<svg version="1.1" id="Capa_1" xmlns="http://www.w3.org/2000/svg" xmlns:xlink="http://www.w3.org/1999/xlink" x="0px" y="0px"
	 viewBox="0 0 40 40" style="enable-background:new 0 0 40 40;" xml:space="preserve">
<style type="text/css">
	.st0{fill:#54565A;}
	.st1{fill:#FFFFFF;}
</style>
<title>interfaz_01</title>
<g>
	<g>
		<path class="st0" d="M40,31.8c0,4.5-3.7,8.2-8.2,8.2H8.2C3.7,40,0,36.3,0,31.8V8.2C0,3.7,3.7,0,8.2,0h23.6C36.3,0,40,3.7,40,8.2
			V31.8z"/>
		<path class="st1" d="M23.2,13.1h2.2V9.7h-2.7l0,0h-0.6c0,0-2.1-0.1-3.4,1.7c0,0-0.9,0.8-0.9,3.3h0v2.6h-3.2v3.6h3.2v9.4h3.7v-9.4
			h3.2l0.4-3.6h-3.6v-2.6h0C21.6,14.4,21.7,13.1,23.2,13.1z"/>
	</g>
</g>
</svg>
