<?xml version="1.0" encoding="utf-8"?>
<!-- Generator: Adobe Illustrator 23.0.3, SVG Export Plug-In . SVG Version: 6.00 Build 0)  -->
<svg version="1.1" id="Capa_1" xmlns="http://www.w3.org/2000/svg" xmlns:xlink="http://www.w3.org/1999/xlink" x="0px" y="0px"
	 viewBox="0 0 40 40" style="enable-background:new 0 0 40 40;" xml:space="preserve">
<style type="text/css">
	.st0{fill:#54565A;}
	.st1{fill:#FFFFFF;}
</style>
<title>interfaz_01</title>
<g>
	<g>
		<path class="st0" d="M40,31.8c0,4.5-3.7,8.2-8.2,8.2H8.2C3.7,40,0,36.3,0,31.8V8.2C0,3.7,3.7,0,8.2,0h23.6C36.3,0,40,3.7,40,8.2
			V31.8z"/>
		<g>
			<path class="st1" d="M9.3,16.3h4.6v14.8H9.3V16.3z M11.6,8.9c1.5,0,2.7,1.2,2.7,2.7c0,1.5-1.2,2.7-2.7,2.7
				c-1.5,0-2.7-1.2-2.7-2.7C8.9,10.1,10.1,8.9,11.6,8.9"/>
			<path class="st1" d="M16.8,16.3h4.4v2h0.1c0.6-1.2,2.1-2.4,4.3-2.4c4.6,0,5.5,3.1,5.5,7v8.1h-4.6v-7.2c0-1.7,0-3.9-2.4-3.9
				c-2.4,0-2.8,1.9-2.8,3.8v7.3h-4.6V16.3z"/>
		</g>
	</g>
</g>
</svg>
