<svg xmlns="http://www.w3.org/2000/svg" viewBox="0 0 420.75 173.76"><defs><style>.cls-1{isolation:isolate;}.cls-2{fill:#ccc;mix-blend-mode:multiply;}.cls-3{fill:#380a37;}.cls-4{fill:#331239;}.cls-5{fill:#43225d;}.cls-6{fill:#7ab4df;}.cls-7{fill:#82cbea;}.cls-8{fill:#00928b;}.cls-9{opacity:0.69;}.cls-10{fill:#bfeaf5;}.cls-11{fill:#8fd9ed;}.cls-12{fill:#ff97a8;}.cls-13{fill:#ff5d7b;}.cls-14{fill:#af99cc;}.cls-15{fill:#9bcbe9;}.cls-16{fill:#3e275c;}.cls-17,.cls-18{fill:#cceaf5;}.cls-18{opacity:0.27;}.cls-19{fill:#ff97a7;}.cls-20{fill:#e8853a;}.cls-21{fill:#ffcb48;}.cls-22{fill:#3b2b5b;}.cls-23{fill:#d5eaf5;}.cls-24{fill:#ffc200;}.cls-25{fill:#fff;}.cls-26{fill:#5ac0f9;}.cls-27{fill:#53f9f4;}.cls-28{fill:#bf3904;}.cls-29{fill:#822302;}</style></defs><title>buscando</title><g class="cls-1"><g id="Capa_2" data-name="Capa 2"><g id="Assets"><path class="cls-2" d="M117.81,167C103,167,91,168.47,91,170.35s12,3.41,26.77,3.41,26.76-1.52,26.76-3.41S132.59,167,117.81,167Z"/><path class="cls-3" d="M105.67,168.83c-1.89-.41.37-2.57,1.92-2.82-.42.21-.94.5-.28.66,1,.22,2.27-.63,2.91-1.17a3,3,0,0,1,.26,1.37C110.46,167.38,107.07,169.14,105.67,168.83Z"/><path class="cls-4" d="M107.34,166.92c-.67-.1-.29-.79.19-1.06,1.61-.93,1.53-1.55,1.53-1.55h.8s.29,1.08.36,1.2A3.13,3.13,0,0,1,107.34,166.92Z"/><path class="cls-3" d="M132.56,168.15c.27-1.92-2.25-1.74-3.69-2.07.39.25.86.61.24.78a4.54,4.54,0,0,1-3.45-.72,4.06,4.06,0,0,0-.29,1.62C125.37,168.35,132.49,168.65,132.56,168.15Z"/><path class="cls-4" d="M129.11,166.86c.62-.17.82-.59-.12-.76a7.1,7.1,0,0,1-1.67-.53c-.39-.18-.53-.81-.53-.81l-.76,0s-.31,1.27-.37,1.41A4.54,4.54,0,0,0,129.11,166.86Z"/><path class="cls-5" d="M134.11,102.06c-1.5-4-2.72-6.84-3.63-7.25-4.81-2.08-11.58-5-12.48-4.76-.86.5-6.3,8.61-7.26,13.82-2.29,12.48-2.32,55.85-2.39,60.26a.4.4,0,0,0,.34.4l1.29.19a.4.4,0,0,0,.44-.27c.82-2.6,6.31-20.18,9.33-35.34,2.07-10.43,3.37-19.31,3.92-19.63,1.44,4.56,1.15,47.07,2.06,55.33.15,1.37,2.73.3,2.73-.82,0-4.93,6.1-21.17,7.76-37.2C137.35,115.75,136.34,108,134.11,102.06Z"/><path class="cls-3" d="M134.11,102.06c-1.5-4-2.72-6.84-3.63-7.25-1.27-.55-2.68-1.16-4.08-1.74-1.86-.79,6.4,12.71,7,30.16.25,7-1.24,14.37-2.44,21.17-1.44,8.07-2.6,15.49-3.33,19a5.42,5.42,0,0,1-.81,2c1.16-.31,1.62-1,1.62-1.43,0-4.93,6.1-21.17,7.76-37.2C137.35,115.75,136.34,108,134.11,102.06Z"/><path class="cls-6" d="M151.65,92.53c-1.47-1-8.06-4-8.06-4s-4.33-6.24-5.6-7.69a16.71,16.71,0,0,0-1.31-1.32c-.7-.65-2.34-1.1-4.8-1.45.76,1.89,5.57,8.17,5.56,7.91a34.67,34.67,0,0,0,3.37,4.68,57.71,57.71,0,0,0,4.72,4.85c2.29,2.15,7.45.81,7.45.81S153.12,93.49,151.65,92.53Z"/><path class="cls-7" d="M122.44,78.82a93.11,93.11,0,0,1-5,11.63s-.37,1.17,4.45,4A20.54,20.54,0,0,0,132,96.93a68.33,68.33,0,0,0,4.31-8.08c2.14-4.8,1.64-8.13.88-9-.31-.33-5.57-4.51-10.88-4.13A4.46,4.46,0,0,0,122.44,78.82Z"/><rect class="cls-7" x="155.23" y="75.51" width="13.95" height="6.15" transform="translate(-13.38 119.28) rotate(-38.9)"/><path class="cls-5" d="M192.23,26.35a28,28,0,1,1-17.54,6.19,27.88,27.88,0,0,1,17.54-6.19m0-6.2a34.19,34.19,0,1,0,26.65,12.71,34,34,0,0,0-26.65-12.71Z"/><rect class="cls-8" x="136.42" y="76.2" width="12.62" height="36.2" transform="translate(126.49 -75.99) rotate(51.1)"/><rect class="cls-5" x="136.42" y="78.94" width="12.62" height="30.72" transform="translate(126.5 -75.99) rotate(51.1)"/><g class="cls-9"><circle class="cls-10" cx="192.27" cy="54.33" r="29.54" transform="translate(44.57 188.88) rotate(-58.11)"/></g><path class="cls-6" d="M124.53,95.7A21.58,21.58,0,0,0,132,96.93s2.19-3.66,4.31-8.08c2.29-4.81,1.61-8.11.88-9a16.12,16.12,0,0,0-2.94-2s1,5.63-1.2,9.91C130.61,92.57,124.07,95.53,124.53,95.7Z"/><path class="cls-7" d="M127.24,76.11c-.32-.55-2.23.12-2.6.63a14.31,14.31,0,0,0-2.12,4.42c-1.29,3.64-1.14,11,1.31,14.9,1.81,2.87,15.79,7.63,18.91,3.56a2.52,2.52,0,0,0,.57-2.63L127.1,91.68l.84-9.78S128.52,78.31,127.24,76.11Z"/><path class="cls-11" d="M122.52,81.16a13.47,13.47,0,0,0-.38,1.87c0,.32-.09.63-.12,1s-.06.63-.07,1a30.12,30.12,0,0,0,0,3.8,25.25,25.25,0,0,0,.55,3.76c.07.3.16.61.23.92s.2.6.3.9.23.59.34.89.28.57.42.86a11.21,11.21,0,0,1-1.59-3.5,18.88,18.88,0,0,1-.65-3.8,21.63,21.63,0,0,1,.06-3.86A13.76,13.76,0,0,1,122.52,81.16Z"/><path class="cls-11" d="M130.84,92.9c-.64-.17-1.27-.35-1.9-.54s-1.25-.37-1.88-.56l-.1,0v-.1c0-.82.1-1.64.16-2.45l.2-2.45c.12-1.63.29-3.26.43-4.89h0a14.93,14.93,0,0,0,.15-2.92,10.31,10.31,0,0,0-.2-1.45,6.18,6.18,0,0,0-.48-1.39,6.82,6.82,0,0,1,.9,2.82,12.54,12.54,0,0,1,.06,1.5,9.53,9.53,0,0,1-.1,1.5v0c-.14,1.63-.24,3.27-.4,4.89l-.23,2.45c-.07.81-.16,1.62-.25,2.44l-.09-.14c.62.22,1.24.43,1.85.66Z"/><path class="cls-12" d="M134,75.74s-1.7,1.59-1.65,1.93a1.14,1.14,0,0,0,1.29.9c.73-.19,1.46-2.09,1.46-2.09Z"/><path class="cls-13" d="M132.84,76.94A2.63,2.63,0,0,0,134.29,78,6.18,6.18,0,0,0,134.9,77l-1.27-.85C133.39,76.34,133.09,76.66,132.84,76.94Z"/><path class="cls-5" d="M137.57,73.94a2.8,2.8,0,0,0,2.21-.28,1.59,1.59,0,0,0,.43-1.91s2,0,1.84-2.83-4-2.43-4.62-1.3c0,0-1.39-1.75-2.67-.19a2.56,2.56,0,0,0-3.44,1.1,2.67,2.67,0,0,0,.29,3.43,1.65,1.65,0,0,0-.08,2C133.4,76.2,137.57,73.94,137.57,73.94Z"/><path class="cls-12" d="M138,73.16c-.57-1.47-3.56-1.75-4.15-1.54s-.84,1-1,1.64-.35,3.25,1.48,4C137.77,78.78,138,73.16,138,73.16Z"/><path class="cls-14" d="M131.74,68.77a3.14,3.14,0,0,1,3.17-.86s.74-.86,1.5-.46.91.76.91.76a3.8,3.8,0,0,1,3-1.37,2.91,2.91,0,0,0-2.87.78s-1.39-1.75-2.67-.19a2.56,2.56,0,0,0-3.44,1.1,2.67,2.67,0,0,0,.29,3.43A2.86,2.86,0,0,1,131.74,68.77Z"/><path class="cls-12" d="M151,97.63s.09,0,.14,0c.41-.15,2.4-.9,2.37-1.69,0-1.21-1.33-2-1.72-1.78s.13.87.13.87,0-.15-.32-.07,0,.83,0,1.25S150.35,97.55,151,97.63Z"/><path class="cls-12" d="M144,98.12s.26-.2.5-.42.52-.51.34-.51a1.8,1.8,0,0,0-.76.25c-.64.34-1.26.89-.68.86A1.3,1.3,0,0,0,144,98.12Z"/><path class="cls-12" d="M142.57,98.45a.35.35,0,0,1,.22-.24,9.13,9.13,0,0,1,1.63-.53,3.86,3.86,0,0,1,2.09.68c.11.27-.62.19-.62.19s.8,0,.83.4-1.2.37-1.2.37.44.38.18.43a12,12,0,0,1-1.33,0,4.8,4.8,0,0,1-.76-.11,7.09,7.09,0,0,1-1.2-.58A2.34,2.34,0,0,1,142.57,98.45Z"/><path class="cls-15" d="M178.08,59.22l-1.36.83a.61.61,0,0,1-.84-.21h0a.61.61,0,0,1,.2-.84l1.36-.83Z"/><path class="cls-15" d="M208.12,55.44l-22,13.44a1.31,1.31,0,0,1-1.8-.44L176.69,56a.8.8,0,0,1,.27-1.1l10.87-6.65-.35-.66a1,1,0,0,1,.35-1.29l10.91-6.52a1,1,0,0,1,1.32.32l8.49,13.58A1.32,1.32,0,0,1,208.12,55.44Z"/><polygon class="cls-16" points="208.17 53.12 184.1 68.07 178.63 59.13 202.7 44.27 208.17 53.12"/><path class="cls-17" d="M184.94,55.22a1.07,1.07,0,0,1-.36,1.46,1,1,0,0,1-1.45-.35,1.06,1.06,0,0,1,.35-1.46A1.08,1.08,0,0,1,184.94,55.22Z"/><path class="cls-15" d="M184.57,55.45a.63.63,0,1,1-.87-.21A.63.63,0,0,1,184.57,55.45Z"/><path class="cls-4" d="M187,52.67l-1.69,1a1.15,1.15,0,0,1-1.58-.38h0a1.15,1.15,0,0,1,.38-1.58l1.69-1a1.15,1.15,0,0,1,1.58.38h0A1.15,1.15,0,0,1,187,52.67Z"/><path class="cls-4" d="M179.36,60.31h0a1.14,1.14,0,0,1-1.59-.38l-.67-1.09a1.17,1.17,0,0,1,.38-1.6h0Z"/><path class="cls-17" d="M190.1,47a1,1,0,1,1-1.33-.32A1,1,0,0,1,190.1,47Z"/><path class="cls-4" d="M198.67,51.17a5.66,5.66,0,1,1-7.78-1.88A5.66,5.66,0,0,1,198.67,51.17Z"/><path class="cls-4" d="M197.53,51.86a4.33,4.33,0,1,1-5.95-1.43A4.34,4.34,0,0,1,197.53,51.86Z"/><path class="cls-15" d="M195.86,52.88a2.37,2.37,0,1,1-3.26-.78A2.37,2.37,0,0,1,195.86,52.88Z"/><path class="cls-4" d="M194.48,53.73a.75.75,0,0,1-.25,1,.76.76,0,0,1-.79-1.3A.76.76,0,0,1,194.48,53.73Z"/><path class="cls-16" d="M187,48.7l-3.33,2h0a1,1,0,0,1,.32-1.32l1.69-1a1,1,0,0,1,1.32.32Z"/><path class="cls-4" d="M182.58,51.41l-5.14,3.14h0a.56.56,0,0,1,.19-.76l4.2-2.56a.54.54,0,0,1,.75.18Z"/><path class="cls-16" d="M181.28,51.56l-2.92,1.79h0a1.11,1.11,0,0,1,.37-1.53l1-.63a1.12,1.12,0,0,1,1.53.37Z"/><path class="cls-4" d="M180.09,51l-1.63,1h0a.5.5,0,0,1,.17-.68l.78-.48a.49.49,0,0,1,.68.17Z"/><path class="cls-18" d="M192.63,53.81c.1,1.09-.37,2-1,2.07s-1.29-.78-1.38-1.86.37-2,1-2.08S192.54,52.72,192.63,53.81Z"/><polygon class="cls-4" points="315.53 97.8 297.48 89.48 298.09 83.58 320.28 92.27 315.53 97.8"/><path class="cls-19" d="M300.7,90.26c3-2.45,9.64.5,10.62,1.66s.55,3.2.19,4.64-3.11,7.32-7.92,6.83C294.52,102.45,300.7,90.26,300.7,90.26Z"/><path class="cls-16" d="M311.75,97.54c.36-1.46,1-4.44,0-5.64s-8.32-4.46-11.54-1.79a24.18,24.18,0,0,0-1,2.49A45.2,45.2,0,0,1,311.75,97.54Z"/><path class="cls-4" d="M308.05,103.5s4.35,5.49,5.55,10.17.36,7.54.36,7.54-16.33,2.8-28.64-7.7c0,0,5.35-10.83,11.95-13.2a7.36,7.36,0,0,0,4.58,4A7.11,7.11,0,0,0,308.05,103.5Z"/><path class="cls-4" d="M297.79,96.72a1.87,1.87,0,0,0,2.8-1.21h0a1.44,1.44,0,0,1,1.88,1,.08.08,0,0,0,0,.07,2.08,2.08,0,0,0,1,2.15,2,2,0,0,0,2.61-.7,1.86,1.86,0,0,0-.45-2.37.1.1,0,0,0-.07-.1c-.92-.47-2.37-.55-2.92.52l0,.05a1.75,1.75,0,0,0-2.06-.93,1.83,1.83,0,0,0-.69-1.54.08.08,0,0,0-.06-.1c-.92-.47-2.37-.55-2.93.52A2,2,0,0,0,297.79,96.72Zm5.11-.34c.36-1,1.6-1,2.43-.66l.05.06c1.69,1.07.15,3.51-1.59,2.73A1.76,1.76,0,0,1,302.9,96.38Zm-5.76-2c.36-1,1.6-1,2.43-.66l.05.06c1.68,1.07.14,3.51-1.6,2.73A1.76,1.76,0,0,1,297.14,94.38Z"/><path class="cls-20" d="M228.72,113.27a5.52,5.52,0,0,1,4.55,2.08c1.86,2.33-.4,7.3-2.12,8.1s-5.54.69-6.46-1.23S228.72,113.27,228.72,113.27Z"/><path class="cls-21" d="M231.66,115.67a3.35,3.35,0,0,0-3.8-2.37c-2.05.28-3.35,2.1-3.84,4a7.58,7.58,0,0,0-.18.95,5.11,5.11,0,0,0-.11,1.79,3.13,3.13,0,0,0,.29,1,3.27,3.27,0,0,0,.67,1.18,2.65,2.65,0,0,0,2.07.81,3.32,3.32,0,0,0,3.91-1.17C232.22,119.89,232.84,117.81,231.66,115.67Z"/><path class="cls-22" d="M228.07,118.62a3.72,3.72,0,0,1-.55-.39l.36-2.51a3,3,0,0,1,.92.06c.18,0,.26-.24.08-.28a3.45,3.45,0,0,0-1-.11l.09-.62c0-.19-.26-.27-.28-.08l-.1.73a1.58,1.58,0,0,0-.87.42,1.33,1.33,0,0,0-.18,1.67,3.53,3.53,0,0,0,.63.86c-.12.91-.25,1.81-.38,2.72a2.41,2.41,0,0,1-1.26-.34l.11-.14c.11-.14-.09-.35-.21-.2l-.22.27a.15.15,0,0,0,0,.23,3.1,3.1,0,0,0,1.51.48v.1a.13.13,0,0,0-.05.11v.19c0,.16.27.21.29,0l.06-.43c1,0,2-.37,2.09-1.32C229.26,119.36,228.61,118.94,228.07,118.62Zm-1.4-1.65c-.13-.73.33-1.08.91-1.21-.11.75-.21,1.49-.31,2.24A2,2,0,0,1,226.67,117Zm1.35,4a3.25,3.25,0,0,1-.88.15h0l.34-2.49c.38.24.94.43,1.15.78l.16,1A1.26,1.26,0,0,1,228,120.93Z"/><path class="cls-22" d="M228.43,116.05a15.14,15.14,0,0,1-.32,2,.15.15,0,0,0,.28.08,14.75,14.75,0,0,0,.33-2.08C228.74,115.86,228.45,115.86,228.43,116.05Z"/><path class="cls-22" d="M227.82,119.62a1.64,1.64,0,0,1-.12.7c-.07.18.22.26.28.08a1.89,1.89,0,0,0,.14-.78C228.11,119.44,227.82,119.44,227.82,119.62Z"/><path class="cls-20" d="M261.78,20.84a5.51,5.51,0,0,1,4.54,2.08c1.87,2.33-.4,7.3-2.11,8.1s-5.54.69-6.46-1.23S261.78,20.84,261.78,20.84Z"/><path class="cls-21" d="M264.72,23.24a3.34,3.34,0,0,0-3.81-2.36c-2,.28-3.35,2.09-3.84,4-.07.31-.14.63-.18.95a5.36,5.36,0,0,0-.11,1.79,3.41,3.41,0,0,0,.29,1,3.15,3.15,0,0,0,.68,1.18,2.66,2.66,0,0,0,2.06.82,3.36,3.36,0,0,0,3.92-1.18C265.28,27.47,265.9,25.38,264.72,23.24Z"/><path class="cls-22" d="M261.13,26.19a3.63,3.63,0,0,1-.55-.38l.35-2.52a3,3,0,0,1,.92.06c.18,0,.26-.24.08-.28A3.8,3.8,0,0,0,261,23l.08-.62c0-.19-.25-.27-.28-.08l-.1.73a1.52,1.52,0,0,0-.86.42,1.33,1.33,0,0,0-.19,1.67,3.16,3.16,0,0,0,.64.86c-.13.91-.26,1.82-.38,2.72a2.38,2.38,0,0,1-1.27-.34l.11-.13c.12-.15-.09-.36-.21-.21l-.22.27a.15.15,0,0,0,0,.23,3.11,3.11,0,0,0,1.52.48l0,.1a.13.13,0,0,0-.05.11v.2c0,.15.26.21.29,0l.06-.44c1,0,2-.37,2.08-1.32C262.31,26.93,261.66,26.51,261.13,26.19Zm-1.41-1.65a1,1,0,0,1,.91-1.2c-.1.74-.21,1.48-.31,2.23A2.06,2.06,0,0,1,259.72,24.54Zm1.36,4a3.32,3.32,0,0,1-.89.15h0l.35-2.49c.37.25.93.43,1.15.78l.15,1A1.23,1.23,0,0,1,261.08,28.5Z"/><path class="cls-22" d="M261.49,23.62a16.68,16.68,0,0,1-.33,2c0,.18.24.26.28.08a16.39,16.39,0,0,0,.34-2.08C261.8,23.43,261.5,23.43,261.49,23.62Z"/><path class="cls-22" d="M260.88,27.2a1.7,1.7,0,0,1-.12.7c-.07.17.21.25.28.07a1.84,1.84,0,0,0,.13-.77C261.16,27,260.87,27,260.88,27.2Z"/><path class="cls-20" d="M80.5,67A5.51,5.51,0,0,1,84.43,64c2.93-.58,6.3,3.71,6.23,5.6s-1.94,5.24-4.07,5.17S80.5,67,80.5,67Z"/><path class="cls-21" d="M84,65.52a3.35,3.35,0,0,0-3.85,2.29,5,5,0,0,0,1.78,5.24,5.57,5.57,0,0,0,.76.6,5,5,0,0,0,1.54.92,3,3,0,0,0,1,.21,3,3,0,0,0,1.35-.06,2.64,2.64,0,0,0,1.68-1.46,3.34,3.34,0,0,0,.75-4C88,67,86.42,65.46,84,65.52Z"/><path class="cls-22" d="M85,70.07a5.39,5.39,0,0,1-.59.31l-2.08-1.47a3.13,3.13,0,0,1,.48-.79c.12-.14-.09-.34-.21-.2a3.63,3.63,0,0,0-.54.8l-.51-.37c-.15-.1-.35.11-.2.22l.6.42a1.65,1.65,0,0,0,0,1,1.33,1.33,0,0,0,1.4.93,3.49,3.49,0,0,0,1.06-.16l2.24,1.58a2.38,2.38,0,0,1-.89,1l-.07-.16c-.07-.17-.35-.08-.28.09l.14.32a.15.15,0,0,0,.22.08,3,3,0,0,0,1.12-1.13l.08.06a.13.13,0,0,0,.08.1l.18.08c.14.07.3-.13.16-.23L87,72.22c.46-.88.58-1.91-.21-2.46C86.15,69.36,85.48,69.74,85,70.07Zm-2.11.48a1,1,0,0,1-.65-1.35L84,70.5A2,2,0,0,1,82.84,70.55Zm4.14.62a3.31,3.31,0,0,1-.27.86h0l-2-1.46c.39-.21.81-.63,1.22-.66l.94.31A1.23,1.23,0,0,1,87,71.17Z"/><path class="cls-22" d="M82.83,68.57a14.63,14.63,0,0,1,1.63,1.21c.14.12.34-.1.2-.22A15.68,15.68,0,0,0,83,68.31C82.81,68.21,82.68,68.47,82.83,68.57Z"/><path class="cls-22" d="M85.73,70.75a1.59,1.59,0,0,1,.57.43c.12.14.32-.08.19-.22a1.74,1.74,0,0,0-.63-.47C85.69,70.41,85.56,70.67,85.73,70.75Z"/><path class="cls-20" d="M410.59,71.29a5.51,5.51,0,0,1,3.93-3.08c2.93-.58,6.31,3.71,6.23,5.6s-1.93,5.24-4.06,5.17S410.59,71.29,410.59,71.29Z"/><path class="cls-21" d="M414.07,69.78a3.37,3.37,0,0,0-3.85,2.29c-.69,2,.33,4,1.78,5.25a7.34,7.34,0,0,0,.76.59,5.12,5.12,0,0,0,1.54.92,3.05,3.05,0,0,0,1,.21,3.1,3.1,0,0,0,1.36-.06,2.61,2.61,0,0,0,1.67-1.45,3.36,3.36,0,0,0,.76-4C418.08,71.23,416.51,69.72,414.07,69.78Z"/><path class="cls-22" d="M415.05,74.33a4.21,4.21,0,0,1-.6.31l-2.07-1.47a3,3,0,0,1,.47-.79c.13-.14-.09-.34-.21-.2a3.27,3.27,0,0,0-.53.8l-.52-.37c-.15-.1-.35.11-.2.22l.61.42a1.57,1.57,0,0,0,0,1,1.35,1.35,0,0,0,1.4.94,3.85,3.85,0,0,0,1.06-.17l2.24,1.58a2.36,2.36,0,0,1-.88,1l-.07-.16c-.08-.17-.36-.08-.28.09l.14.32a.14.14,0,0,0,.21.08,3,3,0,0,0,1.12-1.12l.09.05a.12.12,0,0,0,.07.1l.18.08c.14.07.31-.13.17-.23l-.36-.26c.45-.87.57-1.91-.22-2.45C416.25,73.62,415.57,74,415.05,74.33Zm-2.12.48a1,1,0,0,1-.65-1.35l1.84,1.3A2,2,0,0,1,412.93,74.81Zm4.14.62a3.31,3.31,0,0,1-.27.86h0l-2.06-1.45c.39-.22.81-.64,1.22-.67l.94.31A1.24,1.24,0,0,1,417.07,75.43Z"/><path class="cls-22" d="M412.93,72.83A13.65,13.65,0,0,1,414.55,74c.15.12.34-.1.2-.22a14.75,14.75,0,0,0-1.69-1.25C412.9,72.47,412.77,72.73,412.93,72.83Z"/><path class="cls-22" d="M415.82,75a1.72,1.72,0,0,1,.57.43c.12.14.32-.08.2-.22a1.93,1.93,0,0,0-.63-.47C415.79,74.67,415.65,74.93,415.82,75Z"/><path class="cls-23" d="M348.87,38.56c-2.41-1.26-5.26-.54-7.59.55-.38.17-1.57,1.11-2,1-.1,0-.53-1-.64-1.13a5.12,5.12,0,0,0-2.48-1.76,5.43,5.43,0,0,0-3.67,0c-.77-5.59-2.79-11.81-9.29-12.4a6.61,6.61,0,0,0-6.49,3.42c-1.66,3-1.2,6.46-1.72,9.72a6.71,6.71,0,0,0-9.22,3.73c-1.25,3.76,2.09,7.5,5.43,6.5a1.21,1.21,0,0,0,1,.48l25-.52c3.39-.07,7.13.3,10.47-.38,2.13-.43,4.11-1.75,4.31-4.09A5.59,5.59,0,0,0,348.87,38.56Z"/><path class="cls-23" d="M0,73.43A3,3,0,0,0,2.72,76a36.94,36.94,0,0,0,6.57.24L25,76.57a.75.75,0,0,0,.65-.31c2.1.63,4.19-1.71,3.41-4.08a4.21,4.21,0,0,0-5.79-2.34c-.32-2,0-4.23-1.08-6.1a4.15,4.15,0,0,0-4.07-2.15c-4.08.38-5.35,4.28-5.83,7.79a3.42,3.42,0,0,0-2.3,0A3.31,3.31,0,0,0,8.4,70.45c-.06.08-.34.69-.39.71-.3.1-1-.49-1.29-.6-1.46-.68-3.25-1.14-4.76-.34A3.49,3.49,0,0,0,0,73.43Z"/><path class="cls-23" d="M134.48,20.2c-1.44-1-3.12-.41-4.51.41-.23.14-.93.85-1.21.73,0,0,.25-4.77-2-7.13-3.68-3.8-11.72-3.49-12.39,5.53-2-1.25-4.71-.09-5.47,2.84a4,4,0,0,0,3.83,5.31c5,0,9.89-.26,14.84-.39,2-.06,4.22.22,6.21-.3a3.33,3.33,0,0,0,2.56-3.11A4.53,4.53,0,0,0,134.48,20.2Z"/><polygon class="cls-21" points="41.75 5.43 43.95 12.03 45.25 11.6 43.48 6.3 57.17 1.73 58.94 7.03 60.23 6.59 58.03 0 41.75 5.43"/><path class="cls-4" d="M77.18,3.61l8,23.88a2.52,2.52,0,0,1-1.58,3.19l-5.33,1.77a2.51,2.51,0,0,0,1.59-3.18l-8-23.89A2.52,2.52,0,0,0,68.68,3.8L74,2A2.51,2.51,0,0,1,77.18,3.61Z"/><rect class="cls-24" x="36.58" y="8.6" width="40.3" height="30.21" rx="2.52" transform="translate(-4.59 19.18) rotate(-18.45)"/><path class="cls-16" d="M39.1,8.6H74.36a2.52,2.52,0,0,1,2.52,2.52V36.3a2.52,2.52,0,0,1-2.52,2.52H39.09a2.51,2.51,0,0,1-2.51-2.51V11.12A2.52,2.52,0,0,1,39.1,8.6Z" transform="translate(-4.59 19.18) rotate(-18.45)"/><path class="cls-21" d="M40.86,14.21a7.51,7.51,0,0,1-4.75,9.5c-.19.06-.38.12-.57.16l-1.91-5.73A2.51,2.51,0,0,1,35.22,15l5.22-1.74A8,8,0,0,1,40.86,14.21Z"/><path class="cls-21" d="M50,41.51c0,.12.08.23.11.34l-5.29,1.77A2.51,2.51,0,0,1,41.6,42L39.92,37a4.48,4.48,0,0,1,.55-.21A7.5,7.5,0,0,1,50,41.51Z"/><path class="cls-21" d="M71.86,5.38l1.91,5.73-.65.25a7.5,7.5,0,0,1-9.49-4.75,6.36,6.36,0,0,1-.27-1l5.31-1.78A2.53,2.53,0,0,1,71.86,5.38Z"/><path class="cls-21" d="M78.15,24.23l2.48,7.43-7.77,2.59-.12-.34a7.5,7.5,0,0,1,4.74-9.49A5.61,5.61,0,0,1,78.15,24.23Z"/><path class="cls-20" d="M74,2,68.68,3.8a2.52,2.52,0,0,1,3.18,1.58l1.91,5.73h0l5.32-1.78L77.18,3.61A2.51,2.51,0,0,0,74,2Z"/><path class="cls-20" d="M78.15,24.23l2.48,7.43,2.94-1a2.52,2.52,0,0,0,1.58-3.19l-1.69-5.06C80.75,23.33,78.31,24.15,78.15,24.23Z"/><rect class="cls-20" x="43.38" y="9.81" width="1.37" height="0.79" transform="translate(-0.96 14.47) rotate(-18.45)"/><rect class="cls-20" x="58.37" y="4.81" width="1.37" height="0.79" transform="translate(1.39 18.96) rotate(-18.45)"/><rect class="cls-21" x="42.58" y="10.52" width="3.75" height="1.31" transform="translate(-1.25 14.65) rotate(-18.45)"/><rect class="cls-21" x="57.54" y="5.53" width="3.75" height="1.31" transform="matrix(0.95, -0.32, 0.32, 0.95, 1.1, 19.13)"/><rect class="cls-25" x="55.1" y="28.44" width="9.61" height="4.43" transform="translate(-6.62 20.54) rotate(-18.45)"/><rect class="cls-26" x="58.65" y="26.8" width="2.53" height="7.7" transform="translate(70.02 -35.88) rotate(71.55)"/><circle class="cls-25" cx="71.46" cy="18.75" r="3.37" transform="translate(-2.26 23.58) rotate(-18.45)"/><path class="cls-24" d="M73.63,18a2.29,2.29,0,1,1-2.89-1.44A2.29,2.29,0,0,1,73.63,18Z"/><polygon class="cls-25" points="49.82 20.46 43.13 15.53 40.73 23.49 49.82 20.46"/><polygon class="cls-27" points="42.14 22.04 43.64 17.06 47.82 20.14 42.14 22.04"/><rect class="cls-28" x="48.36" y="11.05" width="2.03" height="30.21" transform="translate(-5.74 16.97) rotate(-18.45)"/><polygon class="cls-29" points="45.56 11.51 52.1 31.12 51.44 32.22 50.18 31.76 43.63 12.15 45.56 11.51"/><path class="cls-25" d="M49.86,21.86,46.4,23a1,1,0,0,0-.6,1.22L47,27.68a1,1,0,0,0,1.21.61l3.46-1.16a1,1,0,0,0,.6-1.21l-1.15-3.45A1,1,0,0,0,49.86,21.86Zm1.45,4.37-3.45,1.15L46.7,23.92l3.46-1.15,1.16,3.45Z"/><rect class="cls-28" x="63.37" y="6.04" width="2.03" height="30.21" transform="translate(-3.38 21.47) rotate(-18.45)"/><polygon class="cls-29" points="60.59 6.49 67.13 26.1 66.47 27.2 65.21 26.74 58.66 7.13 60.59 6.49"/><path class="cls-25" d="M64.89,16.84,61.43,18a1,1,0,0,0-.6,1.21L62,22.66a1,1,0,0,0,1.21.61l3.46-1.15a1,1,0,0,0,.6-1.22L66.1,17.45A1,1,0,0,0,64.89,16.84Zm1.45,4.37-3.45,1.15-1.16-3.45,3.46-1.16,1.16,3.46Z"/><rect class="cls-6" x="47.21" y="98.91" width="15.32" height="21.82" rx="1.73" transform="translate(46.32 -12.65) rotate(22.56)"/><rect class="cls-7" x="45.34" y="98.13" width="15.32" height="21.82" rx="1.73" transform="translate(45.88 -11.99) rotate(22.56)"/><path class="cls-25" d="M57.12,111.42a4.88,4.88,0,1,0-6.94,2.35,2.73,2.73,0,0,0,.55.32,2.67,2.67,0,0,0,.6.16A4.88,4.88,0,0,0,57.12,111.42ZM48.36,108l1,.39a7,7,0,0,0-.42,1.72l-.82-.34A4.72,4.72,0,0,1,48.36,108Zm8.5,3.15-1-.39a6.42,6.42,0,0,0,.41-2l.81.34A4.54,4.54,0,0,1,56.86,111.12Zm-1.27-.52L54.07,110a14.16,14.16,0,0,0,.61-1.88l1.31.55A6.23,6.23,0,0,1,55.59,110.6ZM51,113.78l-.13,0-.12,0a2.14,2.14,0,0,1-.13-1.37,10.19,10.19,0,0,1,.2-1.06l1.85.77C52,113.12,51.36,113.73,51,113.78Zm-.09-2.87a16.24,16.24,0,0,1,.57-1.65l2.14.89a15.37,15.37,0,0,1-.77,1.57Zm.7-2a13.62,13.62,0,0,1,.9-1.76l1.86.77a15.24,15.24,0,0,1-.62,1.88Zm2.73-3.55c.19.08.35.5.23,1.46a5.77,5.77,0,0,1-.13.76l-1.75-.73C53.4,105.79,54.05,105.27,54.34,105.39Zm.42,2.35a5.24,5.24,0,0,0,.15-2A3.46,3.46,0,0,1,56,108.25Zm-2.39-1-1.22-.51a3.43,3.43,0,0,1,2.55-1A5.31,5.31,0,0,0,52.37,106.75Zm-.18.3a16.1,16.1,0,0,0-.9,1.76l-1.52-.63a5.93,5.93,0,0,1,1.11-1.67Zm-2.74,1-1-.4A4.47,4.47,0,0,1,49.75,106l.8.34A6.27,6.27,0,0,0,49.45,108.05Zm.19.44,1.52.64a15.28,15.28,0,0,0-.56,1.65l-1.37-.57A6.22,6.22,0,0,1,49.64,108.49Zm.87,2.63a5.85,5.85,0,0,0-.22,2.31,3.58,3.58,0,0,1-1.08-2.85Zm1,2.81A5.82,5.82,0,0,0,53,112.15l1.3.54A3.57,3.57,0,0,1,51.5,113.93Zm1.66-2.08a15.24,15.24,0,0,0,.77-1.57l1.53.63a6.3,6.3,0,0,1-.93,1.51Zm2.62-.81.95.4a4.42,4.42,0,0,1-1.06,1.45l-.81-.34A6.28,6.28,0,0,0,55.78,111Zm1.29-2.34-.74-.3a4.35,4.35,0,0,0-.5-2.05A4.6,4.6,0,0,1,57.07,108.7ZM52.6,105a4.53,4.53,0,0,0-1.79,1.09l-.74-.31A4.55,4.55,0,0,1,52.6,105Zm-4.48,5.11.75.32a4.64,4.64,0,0,0,.39,2.15A4.51,4.51,0,0,1,48.12,110.12Zm4.7,3.95a4.67,4.67,0,0,0,1.8-1.24l.76.31A4.57,4.57,0,0,1,52.82,114.07Z"/></g></g></g></svg>