<?xml version="1.0" encoding="utf-8"?>
<!-- Generator: Adobe Illustrator 23.0.3, SVG Export Plug-In . SVG Version: 6.00 Build 0)  -->
<svg version="1.1" id="Capa_1" xmlns="http://www.w3.org/2000/svg" xmlns:xlink="http://www.w3.org/1999/xlink" x="0px" y="0px"
	 viewBox="0 0 151.9 151.9" style="enable-background:new 0 0 151.9 151.9;" xml:space="preserve">
<style type="text/css">
	.st0{fill:none;}
	.st1{fill:#D5EAF5;}
	.st2{fill:#F7FBFD;}
	.st3{fill:#F4F4F4;}
	.st4{fill:#D4D4D4;}
	.st5{fill:#B0B0B0;}
	.st6{fill:#00928B;}
	.st7{fill:#00615D;}
	.st8{fill:#3E275C;}
	.st9{fill:#FF97A7;}
	.st10{fill:#331239;}
	.st11{fill:#CCCCCC;}
	.st12{fill:#A289E8;}
	.st13{fill:#E6E6E6;}
	.st14{fill:#FFFFFF;}
	.st15{fill:#E45D79;}
	.st16{fill:#533497;}
	.st17{fill:#FFCB37;}
	.st18{fill:#FFEFD1;}
	.st19{fill:#AACBE8;}
	.st20{fill:#FFCB48;}
</style>
<title>Busqueda_Contenido</title>
<g>
	<g>
		<g id="Assets">
			<rect class="st0" width="151.9" height="151.9"/>
			<path class="st1" d="M30.7,131.2h92.2c0,0,1.7-77.2-22.8-92.9C64.3,15.2,38.4,91.2,30.7,131.2z"/>
			<polygon class="st2" points="38.9,27 65.9,27 65.9,38.9 62.5,34.2 38.9,34.2 			"/>
			<rect x="39.9" y="29.3" class="st1" width="24.5" height="1.3"/>
			<rect x="39.9" y="31.6" class="st1" width="4.7" height="1.3"/>
			<rect x="46.4" y="31.6" class="st1" width="4.7" height="1.3"/>
			<rect x="53" y="31.6" class="st1" width="9.2" height="1.3"/>
			<polygon class="st2" points="102.7,45.6 67.2,45.6 67.2,61.4 71.6,55.7 102.7,55.7 			"/>
			<rect x="68.8" y="47.3" class="st1" width="32" height="1.3"/>
			<rect x="68.8" y="49.8" class="st1" width="26.4" height="1.3"/>
			<rect x="68.8" y="52.2" class="st1" width="18.8" height="1.3"/>
			<path class="st3" d="M131.1,132.2c0,3-24.7,5.4-55.2,5.4s-55.2-2.4-55.2-5.4s24.7-5.4,55.2-5.4S131.1,129.3,131.1,132.2z"/>
			<rect x="36.4" y="87.8" class="st4" width="2.6" height="45.2"/>
			<rect x="39" y="87.8" class="st5" width="0.6" height="45.2"/>
			<rect x="54.7" y="87.8" class="st4" width="2.6" height="45.2"/>
			<rect x="57.3" y="87.8" class="st5" width="0.6" height="45.2"/>
			<rect x="39" y="130.6" class="st5" width="18.5" height="2.3"/>
			<polygon class="st6" points="71.9,103.3 90.2,103.3 98,73.8 80.2,73.8 			"/>
			<polygon class="st4" points="90.8,132.9 92.1,132.9 92.2,104.8 90.9,104.8 			"/>
			<polygon class="st5" points="90.2,132.9 90.8,132.9 90.9,104.8 90.3,104.8 			"/>
			<polygon class="st4" points="75.8,132.9 77.1,132.9 77.3,105.5 76,105.5 			"/>
			<polygon class="st5" points="75.2,132.9 75.8,132.9 76,105.5 75.4,105.5 			"/>
			<rect x="72.3" y="103.9" class="st4" width="1.3" height="29"/>
			<rect x="71.7" y="103.9" class="st5" width="0.6" height="29"/>
			<rect x="60.3" y="103.7" class="st4" width="1.3" height="29"/>
			<rect x="59.7" y="103.7" class="st5" width="0.6" height="29"/>
			<rect x="58.1" y="103.4" class="st7" width="20.6" height="2.4"/>
			<polygon class="st7" points="98.3,73.8 92.1,105.8 74.2,105.8 74.2,103.3 90.2,103.3 96,73.8 			"/>
			<path class="st8" d="M59.5,133c0.5-0.4,1.2-0.8,1.8-1c-0.2,0.1-0.4,0.4-0.1,0.4c0.7,0.1,1.4,0,1.9-0.5c0.1,0.3,0.2,0.6,0.2,0.9
				C63.4,133.2,59.6,133.6,59.5,133z"/>
			<path class="st9" d="M61.3,132.4c-0.4-0.1-0.2-0.3,0.1-0.4c0.5-0.2,0.8-0.3,0.9-0.3c0.1-0.1,0.2-0.2,0.3-0.3l0.2-0.1
				c0,0,0.4,0.6,0.4,0.7C62.7,132.3,62,132.5,61.3,132.4z"/>
			<path class="st8" d="M64.7,133.4c0-0.2,1.1-0.7,1.8-1c-0.2,0.1-0.4,0.4-0.1,0.4c0.7,0.1,1.4-0.1,1.9-0.5c0.1,0.3,0.2,0.6,0.2,0.9
				C68.6,133.6,64.8,134,64.7,133.4z"/>
			<path class="st9" d="M66.4,132.8c-0.3-0.1-0.1-0.3,0.1-0.4l0.9-0.3c0.1-0.1,0.2-0.2,0.3-0.3l0.2-0.1c0,0,0.4,0.6,0.4,0.7
				C67.8,132.8,67.1,132.9,66.4,132.8z"/>
			<path class="st8" d="M80.8,87.4c1.2,4.5-0.7,4.2-0.3,9c0.5,6.7-18.6,7.3-18.6,7.3s1.2,23.9,1.5,27.6l-1.5,0.1
				c0,0-9-22.1-5.6-31.8c1.8-5.3,14.5-7.8,14.5-7.8l3.4-5.2C76.5,87.1,78.6,87.4,80.8,87.4z"/>
			<path class="st10" d="M88.8,87.3c3.2,8.5,2.5,10,1.1,12.3c-1.9,3.1-6.2,3.3-10.5,3.3c-3.6,0-6.6,0.3-6.6,0.3s-3.8,23.9-3.8,28
				c0,0.6-1.4,1.6-1.6,0.1c-0.3-4-0.9-16-2.5-28.9c-0.8-7,14.2-8.9,14.2-8.9l1.7-6.2C80.9,87.4,85,87.2,88.8,87.3z"/>
			<path class="st11" d="M57.1,81.6c1.9-0.3,10.9-1,10.9-1s4.1,2.3,2.1,3.3c-2.1,1-4.4,1.4-7.7,2.6s-8.3-0.7-8.3-0.7
				S55.2,81.9,57.1,81.6z"/>
			<path class="st11" d="M67.2,81.6c0,0,2.9-6.5,3.9-8.4c0.7-1.3,1.5-2.5,2.4-3.6c0.9-0.9,2.2-1.5,4.7-1.5c-0.3,2.2-6.5,13.1-7.4,15
				C69.6,85.3,67.2,81.6,67.2,81.6z"/>
			<path class="st8" d="M76.1,63.8c0.3-2.2,1.2-4.2,2.7-5.8c0.8-0.8,2.6-1.8,3.5-0.7l0.3,0.1l0,0c3.8-0.7,6.6,3,8.1,6
				c1.9,3.7,3,8.2,6.8,10.5c0.1,0.1,0.2,0.2,0.1,0.4c-3.8,5.2-11.3,6.6-17.1,4.5c-0.1,0-0.1-0.1-0.1-0.1c-0.1,0.1-0.3,0-0.4-0.1
				C77.2,74.3,75.3,68.8,76.1,63.8z"/>
			<path class="st12" d="M80.8,56.8c-0.6,0.3-1.1,0.6-1.6,1.1c-0.5,0.4-0.9,0.9-1.2,1.4c-0.3,0.5-0.6,1.1-0.9,1.7
				c-0.1,0.3-0.3,0.6-0.3,0.9c-0.1,0.3-0.2,0.6-0.3,0.9c-0.3,1.2-0.4,2.5-0.4,3.7c0,0.6,0,1.3,0.1,1.9c0,0.6,0.2,1.3,0.3,1.9
				c-0.4-1.2-0.7-2.5-0.8-3.8c-0.1-1.3,0-2.6,0.3-3.9c0.3-1.3,0.9-2.5,1.7-3.5C78.4,58,79.5,57.2,80.8,56.8z"/>
			<path class="st13" d="M74.2,69.1c0.5,0,2.4-1.4,9.3-0.9c1.4,0.1,6.2,0.8,8.7,3.5c1,1.1-3.5,16.3-3.3,17.2
				c-10,2.9-13.7,0.2-15.4-0.4C73.3,87.4,74.2,69.1,74.2,69.1z"/>
			<path class="st3" d="M83.5,68.2c0,0,0.4,0,0.7,0.1c1.9,0.3,5.8,1.1,8,3.4c1,1.1-3.5,16.3-3.3,17.2c-2.6,0.8-5.2,1.3-7.9,1.3h-0.9
				c0,0,4.4-8,4.8-11C85.4,76.4,83.5,68.2,83.5,68.2z"/>
			<path class="st14" d="M90.2,70.1c2,0.9,3.2,2.9,3.1,5.1c0,3.4-1.1,9.8-4.3,12.3c-2.4,1.9-1.8-5.3-1.8-5.3s1.4-0.7,2-4.8
				C89.2,76.4,88.2,71.8,90.2,70.1z"/>
			<path class="st9" d="M81.5,65c-0.2,1.1-0.2,2.3-0.2,3.4c0.2,0.3,0.7,0.8,1.1,0s0-3.4,0-3.4L81.5,65z"/>
			<path class="st15" d="M81.3,67.3c0.3,0.3,0.9,0.4,1.3,0.1c0-0.6,0-1.2-0.1-1.7h-1.1C81.4,66.2,81.3,66.7,81.3,67.3z"/>
			<path class="st9" d="M83.6,65c0.1-0.5,0.2-1.1,0.2-1.6c0-0.9-0.7-1.7-1.6-1.7c0,0-0.1,0-0.1,0c-0.2,0-0.4,0-0.4,0
				c-0.6,0-1.1,0.1-1.6,0.3c-0.5,0.3-0.6,1-0.6,1.5c-0.1,0.7,0.1,1.3,0.4,2c0.4,0.5,1,0.8,1.6,0.8C82.8,66.3,83.2,66,83.6,65z"/>
			<path class="st8" d="M83.6,65.2L83.6,65.2l0.2-2l0,0c0.5,0.1,0.9,0.5,0.9,1.1l0,0C84.6,64.8,84.2,65.3,83.6,65.2
				C83.6,65.2,83.6,65.2,83.6,65.2z"/>
			<path class="st8" d="M79.1,63.8c0,0,3.2-0.3,4.6-1.8s-2.9-2.7-2.9-2.7S78.3,61.4,79.1,63.8z"/>
			<path class="st8" d="M79.6,65.4L79.6,65.4l-0.2-2l0,0c-0.5,0.1-0.9,0.5-0.9,1.1l0,0C78.5,65,79,65.4,79.6,65.4z"/>
			<path class="st8" d="M78.7,63.7c-0.1-1.6,1.1-2.9,2.7-3c0.7,0,1.4,0.2,1.9,0.6c0.6,0.5,0.9,1.3,0.9,2.1h-0.5
				c0-0.6-0.3-1.2-0.7-1.7c-0.5-0.4-1.2-0.6-1.8-0.4c-1.2,0.2-2,1.2-1.9,2.4L78.7,63.7z"/>
			<rect x="92.6" y="87.8" class="st4" width="2.6" height="45.2"/>
			<rect x="95.2" y="87.8" class="st5" width="0.6" height="45.2"/>
			<rect x="110.8" y="87.8" class="st4" width="2.6" height="45.2"/>
			<rect x="113.5" y="87.8" class="st5" width="0.6" height="45.2"/>
			<rect x="95.2" y="130.6" class="st5" width="18.5" height="2.3"/>
			<path class="st9" d="M72.4,83.4L72.4,83.4c-0.7,0-1.3,0-2,0.2H70h-0.6c-0.2,0-0.2,0.2-0.4,0.3s-0.2,0.5-0.2,0.5s0.6-0.5,0.6-0.5
				c0.1,0,0.2,0,0.3,0l-0.3,0.2c-0.1,0.1-0.6,0.9-0.4,1c0,0,0.7,0.2,2.1-0.7c0,0,0.5-0.2,0.8-0.3c0.2,0,0.4-0.1,0.6-0.2l0,0l0,0
				C72.6,83.8,72.5,83.6,72.4,83.4z"/>
			<path class="st14" d="M89.2,87c-2.4,1.9-15.6,2.1-17-2.3c-0.4-0.8-0.2-1.7,0.3-2.4l14.8-0.2C87.3,82.1,92.4,84.4,89.2,87z"/>
			<path class="st10" d="M70.2,79l-4.1-19.1c-0.1-0.4-0.5-0.8-0.9-0.8h-0.5l4.6,21l0,0C69.8,80.1,70.2,79.6,70.2,79
				C70.2,79.1,70.2,79,70.2,79z"/>
			<polygon class="st16" points="69.3,80.1 41.8,79.4 37.5,59.2 64.6,59.1 			"/>
			<path class="st10" d="M61.1,85.5h-9v-1.2H60C60.6,84.3,61.1,84.8,61.1,85.5L61.1,85.5L61.1,85.5z"/>
			<polygon class="st10" points="54.7,85.3 56.5,73.2 57.8,73.2 56.2,85.2 			"/>
			<polygon class="st16" points="50.6,73.3 56.5,73.3 54.7,85.5 49,85.5 			"/>
			<path class="st14" d="M54.6,67.3c0.1,0.7-0.4,1.4-1.2,1.6c-0.1,0-0.2,0-0.2,0c-0.9,0-1.6-0.7-1.8-1.6c-0.1-0.8,0.4-1.5,1.2-1.6
				c0.1,0,0.1,0,0.2,0C53.8,65.7,54.5,66.4,54.6,67.3z"/>
			<rect x="51.1" y="85.4" class="st7" width="67" height="2.8"/>
			<rect x="33.7" y="85.4" class="st6" width="67" height="2.8"/>
			<path class="st17" d="M120.5,58.4c-0.2-3.8-3.1-6.8-6.4-6.7s-6,3.4-5.8,7.2c0.1,2.1,1.1,4.1,2.8,5.5c0.1,0.2,0.2,0.4,0.3,0.7
				c0.2,0.6,0.4,1.2,0.7,1.8c0.6,0.8,1.6,1.2,2.6,1.1h0.2h0.3c0.9,0,1.8-0.4,2.3-1.1c0.1-0.2,0.2-0.4,0.2-0.6
				c0.1-0.1,0.1-0.2,0.2-0.4c0.2-0.6,0.4-1.2,0.4-1.9C119.8,62.5,120.6,60.5,120.5,58.4z"/>
			<circle class="st17" cx="114.3" cy="58.3" r="7.2"/>
			<path class="st18" d="M115.2,59.9c0.1-0.1,0.3-0.3,0.4-0.4c0.3-0.5,0.7-1.5,0.2-2s-0.9,0.1-1,0.6c-0.1,0.6-0.1,1.1,0,1.7
				c-0.1,0.1-0.3,0.1-0.4,0.2v-0.1c-0.2-0.9-0.8-1.6-1.6-2.1c-0.6-0.2-0.8,0.4-0.7,0.9c0.2,1,1.1,1.7,2.1,1.6l0.2,0.6
				c0.4,2.2,0.5,4.4,0.2,6.5c0,0.1,0.1,0.1,0.2,0c0.5-2.4,0.4-4.8-0.2-7.2c0.1,0,0.3-0.1,0.4-0.1c0.1,0.7,0.3,1.5,0.3,2.2
				c0.2,1.6,0.2,3.3-0.1,4.9c0,0.1,0.1,0.2,0.2,0.2c0.1,0,0.1,0,0.2-0.1c0.4-1.9,0.5-3.8,0.1-5.7C115.4,61.1,115.3,60.5,115.2,59.9z
				 M112.6,59.3c-0.2-0.2-0.2-0.4-0.3-0.7c0.1-0.6,0.5-0.4,0.8-0.1c0.4,0.4,0.7,1,0.9,1.6C113.5,60.1,112.9,59.8,112.6,59.3z
				 M115.1,58.7c0-0.2,0-0.4,0-0.6l0.6,0.2c0.1,0.2-0.2,0.8-0.2,0.9c-0.1,0.1-0.2,0.3-0.3,0.4C115.1,59.3,115.1,59,115.1,58.7z"/>
			<path class="st19" d="M118.3,68c0-0.4-0.2-0.7-0.6-0.9c-0.2-0.1-0.4-0.1-0.5,0c-0.2-0.1-0.3-0.1-0.5,0c-0.8,0.2-1.6,0.3-2.4,0.4
				c-0.5-0.1-1-0.2-1.5-0.3s-0.9-0.2-1.2,0.1c-0.1,0.1-0.1,0.3-0.1,0.4c-0.1,0.3-0.2,0.6-0.1,0.8c0.1,0.3,0.4,0.6,0.7,0.8
				c-0.2,0.2-0.3,0.5-0.2,0.8c0.1,0.3,0.4,0.6,0.7,0.7c0.2,0.1,0.3,0.2,0.5,0.2c-0.1,1.8,4.8,1.2,4.4-0.4c0,0,0-0.1,0-0.1
				c0.3-0.2,0.5-0.4,0.7-0.7c0.2-0.3,0.1-0.7-0.1-1C118.2,68.6,118.3,68.3,118.3,68z"/>
			<path class="st19" d="M27.8,79.2c-0.2,0-0.4-0.2-0.4-0.4c0-0.1,0-0.2,0.1-0.3l4.9-5.1c0.9-1,0.8-2.6-0.2-3.5c0,0,0,0,0,0
				c-1-0.9-2.6-0.8-3.5,0.2c0,0,0,0,0,0l-4.4,5.1c-0.6,0.7-0.5,1.7,0.2,2.2c0,0,0,0,0,0c0.6,0.5,1.6,0.4,2.1-0.2l4.6-4.9
				c0.3-0.3,0.3-0.9,0-1.2c-0.2-0.2-0.4-0.2-0.6-0.2c-0.2,0-0.4,0.1-0.6,0.3L27,74.7c-0.2,0.2-0.4,0.2-0.6,0c0,0,0,0,0,0
				c-0.2-0.2-0.2-0.4,0-0.6l3.1-3.4c0.3-0.3,0.7-0.5,1.2-0.5c0.4,0,0.9,0.1,1.2,0.4c0.7,0.6,0.7,1.7,0,2.4c0,0,0,0,0,0l-4.6,4.9
				c-0.9,0.9-2.3,1-3.2,0.2c-1-0.8-1.2-2.3-0.4-3.4c0,0,0,0,0.1-0.1l4.4-5.1c0.6-0.7,1.4-1.1,2.3-1.1c0.9-0.1,1.7,0.2,2.4,0.8
				c1.4,1.2,1.5,3.3,0.3,4.6c0,0,0,0.1-0.1,0.1l-4.9,5.1C28.1,79.1,27.9,79.2,27.8,79.2z"/>
			<path class="st19" d="M78.3,33.9c0-0.1,0-0.2,0.1-0.3c0.2-0.2,0.4-0.2,0.6,0c0,0,0,0,0,0l5.1,4.9c0.5,0.5,1.1,0.7,1.8,0.6
				c1.4-0.1,2.4-1.3,2.3-2.6c0-0.7-0.3-1.3-0.9-1.7l-5.1-4.4C81.9,30.1,81.4,30,81,30c-0.4,0-0.8,0.2-1.1,0.6
				c-0.5,0.6-0.4,1.6,0.2,2.1l4.9,4.7c0.3,0.3,0.9,0.3,1.2,0c0.3-0.3,0.3-0.9,0-1.2L82.8,33c-0.2-0.2-0.2-0.4,0-0.6
				c0.2-0.2,0.4-0.2,0.6,0c0,0,0,0,0,0l3.4,3.1c0.7,0.6,0.7,1.7,0.1,2.4c0,0,0,0,0,0c-0.6,0.7-1.7,0.7-2.4,0.1l-4.9-4.6
				c-0.9-0.9-1-2.3-0.2-3.3c0.4-0.5,1-0.8,1.7-0.9c0.6-0.1,1.3,0.1,1.8,0.6l5.1,4.4c1.4,1.2,1.5,3.3,0.3,4.7c0,0,0,0,0,0
				c-0.6,0.7-1.4,1.1-2.3,1.1c-0.9,0.1-1.8-0.3-2.4-0.9l-5.1-4.9C78.3,34.1,78.2,34,78.3,33.9z"/>
			<path class="st19" d="M53.5,50.9l-14.8,1.2c-0.5,0-0.8-0.2-0.7-1.5l0.6-10c0.1-0.3,0.4-0.5,0.7-0.5h15.2c0.4,0,0.7,0.3,0.7,0.7
				c0,0.1,0,0.2,0,0.2l-0.9,9.4C54,50.7,53.8,50.9,53.5,50.9z"/>
			
				<rect x="42.5" y="37.5" transform="matrix(0.7071 -0.7071 0.7071 0.7071 -17.0992 45.9391)" class="st14" width="8.9" height="12.3"/>
			<path class="st19" d="M48.1,51.5l-9-9l6.7-6.7l9,9L48.1,51.5z M39.8,42.5l8.3,8.3l5.9-6l-8.3-8.3L39.8,42.5z"/>
			<path class="st20" d="M54.1,52.2H39c-0.4,0-0.7-0.3-0.7-0.7c0-0.1,0-0.1,0-0.2l3.2-8.9c0.1-0.3,0.4-0.5,0.7-0.5h15.1
				c0.4,0,0.7,0.3,0.7,0.7c0,0.1,0,0.2,0,0.2l-3.2,8.9C54.7,52,54.4,52.2,54.1,52.2z"/>
		</g>
	</g>
</g>
</svg>
