<?xml version="1.0" encoding="utf-8"?>
<!-- Generator: Adobe Illustrator 23.0.3, SVG Export Plug-In . SVG Version: 6.00 Build 0)  -->
<svg version="1.1" id="Capa_1" xmlns="http://www.w3.org/2000/svg" xmlns:xlink="http://www.w3.org/1999/xlink" x="0px" y="0px"
	 viewBox="0 0 80 80" style="enable-background:new 0 0 80 80;" xml:space="preserve">
<style type="text/css">
	.st0{fill:none;}
	.st1{fill:#CECECE;}
	.st2{fill:#406EB3;}
</style>
<title>detalle_radicado</title>
<g>
	<g id="Assets">
		<rect class="st0" width="80" height="80"/>
		<path class="st1" d="M52.7,61.3H27.3c-0.3,0-0.5-0.2-0.5-0.5V36c0-0.3,0.2-0.5,0.5-0.5h15.2c0.3,0,0.5,0.2,0.5,0.5
			s-0.2,0.5-0.5,0.5H27.8v23.8h24.5V24.8H34.3c-0.3,0-0.5-0.2-0.5-0.5c0-0.3,0.2-0.5,0.5-0.5h18.4c0.3,0,0.5,0.2,0.5,0.5v36.5
			C53.2,61.1,53,61.3,52.7,61.3L52.7,61.3z"/>
		<path class="st0" d="M33.8,18.4c0-1.7-1.4-3-3-3c-1.7,0-3,1.4-3,3v1.1h6.1V18.4z"/>
		<path class="st0" d="M34.1,20.5h-6.3v9.6c0,0.8,0.6,1.4,1.4,1.4c0.8,0,1.4-0.6,1.4-1.4v-7.4c0-0.3,0.2-0.5,0.5-0.5
			c0.3,0,0.5,0.2,0.5,0.5v7.4c0,1.3-1.1,2.4-2.4,2.4c-1.3,0-2.4-1.1-2.4-2.4v-9.6H24c-0.8,0-1.5,0.7-1.5,1.5v41.2
			c0,0.8,0.7,1.5,1.5,1.5c0,0,0,0,0,0h32c0.8,0,1.5-0.7,1.5-1.5V22c0-0.8-0.7-1.5-1.5-1.5H34.6c-0.1,0-0.2,0.1-0.3,0.1
			C34.2,20.6,34.2,20.5,34.1,20.5z"/>
		<path class="st1" d="M56,19.5H27.8v1H56c0.8,0,1.5,0.7,1.5,1.5v41.2c0,0.8-0.7,1.5-1.5,1.5h0H24c-0.8,0-1.5-0.7-1.5-1.5V22
			c0-0.8,0.7-1.5,1.5-1.5h2.8v-1H24c-1.4,0-2.5,1.1-2.5,2.5v41.2c0,1.4,1.1,2.5,2.5,2.5h32c1.4,0,2.5-1.1,2.5-2.5V22
			C58.5,20.6,57.4,19.5,56,19.5C56,19.5,56,19.5,56,19.5z"/>
		<path class="st2" d="M30.8,14.3c-2.2,0-4,1.8-4,4V30c0,1.3,1.1,2.4,2.4,2.4c1.3,0,2.4-1.1,2.4-2.4v-7.3c0-0.3-0.2-0.5-0.5-0.5
			c-0.3,0-0.5,0.2-0.5,0.5v7.4c0,0.8-0.6,1.4-1.4,1.4c-0.8,0-1.4-0.6-1.4-1.4V18.4c0-1.7,1.4-3,3-3s3,1.4,3,3v1.1h1v-1.1
			c0-2.2-1.7-4-4-4C30.9,14.3,30.8,14.3,30.8,14.3z"/>
		<path class="st2" d="M44,45.5H30.8c-0.3,0-0.5-0.2-0.5-0.5c0-0.3,0.2-0.5,0.5-0.5H44c0.3,0,0.5,0.2,0.5,0.5S44.3,45.5,44,45.5z"/>
		<path class="st2" d="M40.3,48.5h-9.5c-0.3,0-0.5-0.2-0.5-0.5c0-0.3,0.2-0.5,0.5-0.5h9.5c0.3,0,0.5,0.2,0.5,0.5
			C40.8,48.3,40.5,48.5,40.3,48.5z"/>
	</g>
</g>
</svg>
