<?xml version="1.0" encoding="utf-8"?>
<!-- Generator: Adobe Illustrator 23.0.3, SVG Export Plug-In . SVG Version: 6.00 Build 0)  -->
<svg version="1.1" id="Capa_1" xmlns="http://www.w3.org/2000/svg" xmlns:xlink="http://www.w3.org/1999/xlink" x="0px" y="0px"
	 viewBox="0 0 80 80" style="enable-background:new 0 0 80 80;" xml:space="preserve">
<style type="text/css">
	.st0{fill:none;}
	.st1{fill:#406EB3;}
	.st2{fill:#CECECE;}
</style>
<title>detalle_plazo</title>
<g>
	<g id="Assets">
		<rect class="st0" width="80" height="80"/>
		<rect x="33.6" y="23.4" class="st1" width="12.7" height="1"/>
		<path class="st1" d="M58.9,23.4h-9.8v1h9.8c1,0,1.8,0.8,1.8,1.8V58c0,1-0.8,1.8-1.8,1.8h0H21.1c-1,0-1.8-0.8-1.8-1.8l0,0V26.2
			c0-1,0.8-1.8,1.8-1.8h9.8v-1h-9.8c-1.6,0-2.8,1.3-2.8,2.8V58c0,1.6,1.3,2.8,2.8,2.8h0h37.8c1.6,0,2.8-1.3,2.8-2.8v0V26.2
			C61.7,24.6,60.4,23.4,58.9,23.4z"/>
		<path class="st2" d="M47.7,27.8c-1,0-1.8-0.8-1.9-1.8v-3.4c0.1-1,1-1.8,2-1.7c0.9,0.1,1.7,0.8,1.7,1.7V26
			C49.6,27,48.8,27.8,47.7,27.8z M47.7,21.7c-0.5,0-0.9,0.4-0.9,0.9c0,0,0,0,0,0V26c0.1,0.5,0.5,0.8,1,0.8c0.4,0,0.7-0.4,0.8-0.8
			v-3.4C48.6,22.1,48.2,21.7,47.7,21.7z"/>
		<path class="st2" d="M32.3,27.8c-1,0-1.8-0.8-1.9-1.8v-3.4c0.1-1,1-1.8,2-1.7c0.9,0.1,1.7,0.8,1.7,1.7V26
			C34.1,27,33.3,27.8,32.3,27.8z M32.3,21.7c-0.5,0-0.9,0.4-0.9,0.9v0V26c0.1,0.5,0.5,0.8,1,0.8c0.4,0,0.7-0.4,0.8-0.8v-3.4
			C33.1,22.1,32.8,21.7,32.3,21.7C32.3,21.7,32.3,21.7,32.3,21.7z"/>
		<path class="st2" d="M30.9,43.1h-6.1c-0.3,0-0.5-0.2-0.5-0.5v-4.3c0-0.3,0.2-0.5,0.5-0.5h6.1c0.3,0,0.5,0.2,0.5,0.5v4.3
			C31.4,42.8,31.2,43.1,30.9,43.1z M25.3,42.1h5.1v-3.3h-5.1V42.1z"/>
		<path class="st2" d="M30.9,49.7h-6.1c-0.3,0-0.5-0.2-0.5-0.5v-4.3c0-0.3,0.2-0.5,0.5-0.5h6.1c0.3,0,0.5,0.2,0.5,0.5v4.3
			C31.4,49.4,31.2,49.7,30.9,49.7z M25.3,48.7h5.1v-3.3h-5.1V48.7z"/>
		<path class="st2" d="M30.9,56.3h-6.1c-0.3,0-0.5-0.2-0.5-0.5v-4.3c0-0.3,0.2-0.5,0.5-0.5h6.1c0.3,0,0.5,0.2,0.5,0.5v4.3
			C31.4,56,31.2,56.3,30.9,56.3z M25.3,55.3h5.1V52h-5.1V55.3z"/>
		<path class="st2" d="M39,43.1h-6.1c-0.3,0-0.5-0.2-0.5-0.5v-4.3c0-0.3,0.2-0.5,0.5-0.5H39c0.3,0,0.5,0.2,0.5,0.5v4.3
			C39.5,42.8,39.3,43.1,39,43.1z M33.4,42.1h5.1v-3.3h-5.1V42.1z"/>
		<path class="st2" d="M39,49.7h-6.1c-0.3,0-0.5-0.2-0.5-0.5v-4.3c0-0.3,0.2-0.5,0.5-0.5H39c0.3,0,0.5,0.2,0.5,0.5v4.3
			C39.5,49.4,39.3,49.7,39,49.7z M33.4,48.7h5.1v-3.3h-5.1V48.7z"/>
		<path class="st2" d="M39,56.3h-6.1c-0.3,0-0.5-0.2-0.5-0.5v-4.3c0-0.3,0.2-0.5,0.5-0.5H39c0.3,0,0.5,0.2,0.5,0.5v4.3
			C39.5,56,39.3,56.3,39,56.3z M33.4,55.3h5.1V52h-5.1V55.3z"/>
		<path class="st2" d="M47.1,43.1H41c-0.3,0-0.5-0.2-0.5-0.5v-4.3c0-0.3,0.2-0.5,0.5-0.5h6.1c0.3,0,0.5,0.2,0.5,0.5v4.3
			C47.6,42.8,47.4,43.1,47.1,43.1z M41.5,42.1h5.1v-3.3h-5.1V42.1z"/>
		<path class="st2" d="M47.1,49.7H41c-0.3,0-0.5-0.2-0.5-0.5v-4.3c0-0.3,0.2-0.5,0.5-0.5h6.1c0.3,0,0.5,0.2,0.5,0.5v4.3
			C47.6,49.4,47.4,49.7,47.1,49.7z M41.5,48.7h5.1v-3.3h-5.1V48.7z"/>
		<path class="st2" d="M47.1,56.3H41c-0.3,0-0.5-0.2-0.5-0.5v-4.3c0-0.3,0.2-0.5,0.5-0.5h6.1c0.3,0,0.5,0.2,0.5,0.5v4.3
			C47.6,56.1,47.4,56.3,47.1,56.3z M41.5,55.3h5.1V52h-5.1V55.3z"/>
		<path class="st2" d="M55.2,43.1h-6.1c-0.3,0-0.5-0.2-0.5-0.5v-4.3c0-0.3,0.2-0.5,0.5-0.5h6.1c0.3,0,0.5,0.2,0.5,0.5v4.3
			C55.7,42.8,55.5,43.1,55.2,43.1z M49.6,42.1h5.1v-3.3h-5.1V42.1z"/>
		<path class="st2" d="M55.2,49.7h-6.1c-0.3,0-0.5-0.2-0.5-0.5v-4.3c0-0.3,0.2-0.5,0.5-0.5h6.1c0.3,0,0.5,0.2,0.5,0.5v4.3
			C55.7,49.4,55.5,49.7,55.2,49.7z M49.6,48.7h5.1v-3.3h-5.1V48.7z"/>
		<path class="st1" d="M55.2,36.1H24.8c-0.3,0-0.5-0.2-0.5-0.5v-5.8c0-0.3,0.2-0.5,0.5-0.5h30.4c0.3,0,0.5,0.2,0.5,0.5v5.8
			C55.7,35.8,55.5,36.1,55.2,36.1L55.2,36.1z M25.3,35.1h29.4v-4.8H25.3V35.1z"/>
	</g>
</g>
</svg>
