<?xml version="1.0" encoding="utf-8"?>
<!-- Generator: Adobe Illustrator 23.0.3, SVG Export Plug-In . SVG Version: 6.00 Build 0)  -->
<svg version="1.1" id="Capa_1" xmlns="http://www.w3.org/2000/svg" xmlns:xlink="http://www.w3.org/1999/xlink" x="0px" y="0px"
	 viewBox="0 0 80 80" style="enable-background:new 0 0 80 80;" xml:space="preserve">
<style type="text/css">
	.st0{fill:none;}
	.st1{fill:#CECECE;}
	.st2{fill:#406EB3;}
</style>
<title>detalle_monto</title>
<g>
	<g id="Assets">
		<rect class="st0" width="80" height="80"/>
		<polygon class="st0" points="62.1,20.3 17.9,20.3 17.9,43.3 17.9,43.3 17.9,45.4 62.1,45.4 		"/>
		<rect x="17.9" y="46.4" class="st0" width="44.3" height="2.6"/>
		<rect x="17.9" y="57.2" class="st0" width="44.3" height="2.6"/>
		<rect x="17.9" y="50" class="st0" width="44.3" height="2.6"/>
		<rect x="17.9" y="53.6" class="st0" width="44.3" height="2.6"/>
		<rect x="17.9" y="43.3" class="st1" width="0" height="2"/>
		<path class="st1" d="M63.1,43.3v2.5c0,0.3-0.2,0.5-0.5,0.5h-0.5V49H17.9v-2.6h-0.5c-0.3,0-0.5-0.2-0.5-0.5v14.4
			c0,0.3,0.2,0.5,0.5,0.5h45.3c0.3,0,0.5-0.2,0.5-0.5V43.3z M62.1,59.8H17.9v-2.6h44.3V59.8z M62.1,56.2H17.9v-2.6h44.3V56.2z
			 M62.1,52.6H17.9V50h44.3V52.6z"/>
		<path class="st2" d="M62.6,19.3H17.4c-0.3,0-0.5,0.2-0.5,0.5v26.1c0,0.3,0.2,0.5,0.5,0.5h45.3c0.3,0,0.5-0.2,0.5-0.5V19.8
			C63.1,19.5,62.9,19.3,62.6,19.3z M62.1,43.3v2H17.9V20.3h44.3V43.3z"/>
		<path class="st2" d="M53.1,42.9H26.9c-0.3,0-0.5-0.2-0.5-0.5c0-3.1-2.5-5.6-5.6-5.6c-0.3,0-0.5-0.2-0.5-0.5v-7
			c0-0.3,0.2-0.5,0.5-0.5c3.1,0,5.6-2.5,5.6-5.6c0-0.3,0.2-0.5,0.5-0.5h26.1c0.3,0,0.5,0.2,0.5,0.5c0,3.1,2.5,5.6,5.6,5.6
			c0.3,0,0.5,0.2,0.5,0.5v7c0,0.3-0.2,0.5-0.5,0.5c-3.1,0-5.6,2.5-5.6,5.6C53.6,42.7,53.3,42.9,53.1,42.9z M27.4,42.4L27.4,42.4z
			 M27.4,41.9h25.1c0.3-3.2,2.8-5.8,6.1-6.1v-6c-3.2-0.3-5.8-2.8-6.1-6.1H27.4c-0.3,3.2-2.8,5.8-6.1,6.1v6
			C24.6,36.1,27.2,38.7,27.4,41.9L27.4,41.9z"/>
		<path class="st2" d="M40,39.4L40,39.4c-3.6,0-6.6-3-6.6-6.6s3-6.6,6.6-6.6c3.6,0,6.6,3,6.6,6.6c0,0,0,0,0,0
			C46.6,36.5,43.6,39.4,40,39.4z M40,27.2c-3.1,0-5.6,2.5-5.6,5.6c0,3.1,2.5,5.6,5.6,5.6c3.1,0,5.6-2.5,5.6-5.6l0,0
			C45.6,29.7,43.1,27.2,40,27.2z"/>
	</g>
</g>
</svg>
