<?xml version="1.0" encoding="utf-8"?>
<!-- Generator: Adobe Illustrator 23.0.3, SVG Export Plug-In . SVG Version: 6.00 Build 0)  -->
<svg version="1.1" id="Capa_1" xmlns="http://www.w3.org/2000/svg" xmlns:xlink="http://www.w3.org/1999/xlink" x="0px" y="0px"
	 viewBox="0 0 80 80" style="enable-background:new 0 0 80 80;" xml:space="preserve">
<style type="text/css">
	.st0{fill:none;}
	.st1{fill:#CECECE;}
	.st2{fill:#406EB3;}
</style>
<title>detalle_pago</title>
<g>
	<g id="Assets">
		<rect class="st0" width="80" height="80"/>
		<path class="st1" d="M60.7,47.5h-8.9c-1-1.7-2.8-2.8-4.7-2.8c-1.7,0-3.3,0.9-4.2,2.4l-6.7,2.2c-1.1,0.4-1.8,1.4-1.8,2.5l-4.9-1.3
			c-1.4-0.4-2.9,0.4-3.4,1.8v0.1c-0.5,1.5,0.3,3.1,1.7,3.6l9.8,3.4c0.8,0.3,1.6,0.4,2.4,0.4c1,0,1.9-0.2,2.8-0.6L48,57
			c0.9-0.4,1.8-0.5,2.7-0.5H51v2.4c0,0.3,0.2,0.5,0.5,0.5h2.8v2.8c0,0.3,0.2,0.5,0.5,0.5h5.9c0.3,0,0.5-0.2,0.5-0.5V48
			C61.2,47.8,61,47.6,60.7,47.5z M50.7,55.4c-1.1,0-2.1,0.2-3.1,0.6l-5.2,2.2c-1.4,0.6-3,0.6-4.5,0.1L28.1,55
			c-0.9-0.3-1.4-1.4-1.1-2.3c0,0,0,0,0,0v-0.1c0.3-0.7,0.9-1.2,1.7-1.2c0.2,0,0.3,0,0.5,0.1l5.4,1.5c0.5,1.4,2,2.1,3.4,1.7l5.6-1.6
			c0.3-0.1,0.4-0.4,0.3-0.6c0,0,0,0,0,0c-0.1-0.3-0.4-0.4-0.6-0.3l-5.6,1.6c-1,0.2-1.9-0.3-2.2-1.3c-0.2-0.9,0.2-1.8,1-2.1l6.8-2.3
			c0.1,0,0.2-0.1,0.3-0.2c0.7-1.2,2-2,3.5-2c1.6,0.1,3.1,1,3.9,2.4v7.3H50.7z M54.4,58.3H52v-9.8h2.3L54.4,58.3z M60.3,61.7h-4.9
			V48.5h4.9L60.3,61.7z"/>
		<path class="st0" d="M45.8,30.3c1.8,0.1,3.2,1.6,3.2,3.3c0,1.9-1.5,3.4-3.4,3.4c-0.9,0-1.8-0.4-2.4-1l0,0c-0.6-0.6-1-1.5-1-2.4
			c0-0.2,0-0.4,0-0.6l-2.7,0.9l-0.9,1c0.9,1.2,0.9,2.8,0,4l1.7,1.7c1.2-0.9,2.8-0.9,4,0l8.2-8.1c-0.9-1.2-0.9-2.8,0-4l-1.7-1.7
			c-1.2,0.9-2.8,0.9-4,0l-1.5,1.4c0.2,0.2,0.3,0.5,0.4,0.8C45.9,29.3,45.9,29.8,45.8,30.3z"/>
		<path class="st0" d="M46.4,25.6c0.2-0.2,0.5-0.2,0.7,0c0.9,0.9,2.5,0.9,3.4,0c0,0,0,0,0,0c0.2-0.2,0.5-0.2,0.7,0l2.3,2.4
			c0.2,0.2,0.2,0.5,0,0.7c0,0,0,0,0,0c-0.9,0.9-0.9,2.5,0,3.4c0.2,0.2,0.2,0.5,0,0.7c0,0,0,0,0,0l-8.8,8.8c-0.1,0.1-0.2,0.1-0.4,0.2
			c-0.1,0-0.3-0.1-0.3-0.2c-0.9-0.9-2.5-0.9-3.4,0c-0.2,0.2-0.5,0.2-0.7,0c0,0,0,0,0,0l-2.3-2.3c-0.2-0.2-0.2-0.5,0-0.7
			c0.9-0.9,0.9-2.4,0-3.4c0,0,0,0,0,0c-0.1-0.1-0.1-0.2-0.1-0.3c0-0.1,0-0.2,0.1-0.3l-0.2,0.1c-0.7,1.1-1.8,1.9-3.1,2.2l0,0l8.1,8.1
			l14.5-14.5l-8.1-8.1L44,27.1c0.2,0.1,0.4,0.2,0.6,0.3L46.4,25.6z"/>
		<path class="st0" d="M44,32.4l-0.7,0.2c-0.2,0.3-0.2,0.7-0.2,1c0,0.6,0.2,1.3,0.7,1.7c0.9,0.9,2.4,1,3.4,0c0.9-0.9,1-2.4,0-3.4
			c-0.5-0.5-1.2-0.8-1.9-0.7C45.1,31.8,44.6,32.2,44,32.4z"/>
		<path class="st2" d="M45.3,28.1l1.5-1.5c1.2,0.9,2.8,0.9,4,0l1.7,1.7c-0.9,1.2-0.9,2.8,0,4l-8.1,8.1c-1.2-0.9-2.8-0.9-4,0
			l-1.7-1.7c0.9-1.2,0.9-2.8,0-4l0.9-1l-2,0.7c0,0.1-0.1,0.2-0.1,0.3c0,0.1,0,0.3,0.1,0.3c0.9,0.9,0.9,2.4,0,3.4c0,0,0,0,0,0
			c-0.2,0.2-0.2,0.5,0,0.7l2.3,2.3c0.2,0.2,0.5,0.2,0.7,0c0,0,0,0,0,0c0.9-0.9,2.5-0.9,3.4,0c0.1,0.1,0.2,0.1,0.3,0.2
			c0.1,0,0.3-0.1,0.4-0.2l8.8-8.8c0.2-0.2,0.2-0.5,0-0.7c0,0,0,0,0,0c-0.9-0.9-0.9-2.5,0-3.4c0.2-0.2,0.2-0.5,0-0.7c0,0,0,0,0,0
			l-2.3-2.4c-0.2-0.2-0.5-0.2-0.7,0c-0.9,0.9-2.5,0.9-3.4,0c0,0,0,0,0,0c-0.2-0.2-0.5-0.2-0.7,0l-1.8,1.8
			C44.9,27.6,45.1,27.8,45.3,28.1z"/>
		<path class="st2" d="M43.2,36L43.2,36c0.6,0.6,1.5,1,2.4,1c1.9,0,3.4-1.5,3.4-3.4c0-1.8-1.4-3.2-3.1-3.4c-0.1,0.4-0.2,0.7-0.4,1
			c0.7,0,1.3,0.2,1.8,0.7c0.9,0.9,0.9,2.5,0,3.4s-2.5,0.9-3.4,0c-0.5-0.4-0.7-1.1-0.7-1.7c0-0.3,0.1-0.7,0.2-1L42.2,33
			c0,0.2,0,0.4,0,0.6C42.2,34.5,42.5,35.4,43.2,36z"/>
		<path class="st2" d="M57.9,30l-8.8-8.8c-0.2-0.2-0.5-0.2-0.7,0c0,0,0,0,0,0l-2.4,2.4l-0.8,0.8L42.6,27c0.4-0.1,0.9,0,1.3,0.1
			l4.8-4.8l8.1,8.1L42.3,44.9l-8.1-8.1l0,0c-0.4,0.1-0.8,0.1-1.2,0.2H33c0,0.1,0.1,0.2,0.1,0.2L42,46c0.1,0.1,0.2,0.1,0.3,0.2
			c0.1,0,0.3-0.1,0.4-0.2l15.2-15.3C58.1,30.5,58.1,30.2,57.9,30C57.9,30,57.9,30,57.9,30z"/>
		<path class="st1" d="M45.3,28.1c-0.2-0.3-0.4-0.5-0.7-0.7c-0.2-0.1-0.4-0.2-0.6-0.3c-0.4-0.1-0.9-0.2-1.3-0.1
			c-0.1,0-0.2,0-0.4,0.1l-5.6,1.6c-0.3,0.1-0.4,0.3-0.3,0.6c0,0,0,0,0,0c0.1,0.3,0.4,0.4,0.6,0.3l4.2-1.2l1.3-0.4
			c0.2,0,0.4-0.1,0.5-0.1c0.3,0,0.5,0.1,0.8,0.2c0.3,0.1,0.6,0.4,0.7,0.7c0.1,0.1,0.1,0.2,0.2,0.4c0.1,0.4,0.1,0.8,0,1.1
			c-0.2,0.5-0.6,0.9-1.1,1.1l-1,0.3l-1.6,0.5L39,33l-1.4,0.5l-0.8,0.3c-0.1,0-0.2,0.1-0.3,0.2c-0.6,1-1.6,1.7-2.8,2
			c-0.2,0-0.4,0.1-0.7,0.1c-1.6-0.1-3.1-1-3.9-2.4v-7.3h0.4c1.1,0,2.1-0.2,3.1-0.6l5.2-2.2c1.4-0.6,3-0.7,4.4-0.1l3,1.1l0.8-0.8
			l-3.4-1.3c-1.7-0.6-3.5-0.5-5.2,0.2l-5.2,2.2c-0.8,0.4-1.8,0.5-2.7,0.5h-0.4v-0.9c0-0.3-0.2-0.5-0.5-0.5h-9.2
			c-0.3,0-0.5,0.2-0.5,0.5v14.1c0,0.3,0.2,0.5,0.5,0.5h5.9c0.3,0,0.5-0.2,0.5-0.5v-2.8h2.8c0.3,0,0.5-0.2,0.5-0.5
			c1,1.1,2.4,1.7,3.9,1.8h0.1c0.4,0,0.8-0.1,1.2-0.2c1.3-0.3,2.3-1.1,3.1-2.2l0.2-0.1l2-0.7l2.7-0.8l1.2-0.4l0.7-0.2
			c0.6-0.2,1.1-0.6,1.4-1.2c0.2-0.3,0.3-0.6,0.4-1c0.1-0.4,0.1-0.9-0.1-1.4C45.6,28.6,45.5,28.4,45.3,28.1z M24.9,38H20V24.9h4.9
			L24.9,38L24.9,38z M28.2,34.7h-2.3v-9.8h2.3V34.7z"/>
	</g>
</g>
</svg>
