<?xml version="1.0" encoding="utf-8"?>
<!-- Generator: Adobe Illustrator 23.0.3, SVG Export Plug-In . SVG Version: 6.00 Build 0)  -->
<svg version="1.1" id="Capa_1" xmlns="http://www.w3.org/2000/svg" xmlns:xlink="http://www.w3.org/1999/xlink" x="0px" y="0px"
	 viewBox="0 0 388.3 270.9" style="enable-background:new 0 0 388.3 270.9;" xml:space="preserve">
<style type="text/css">
	.st0{fill:#FFFFFF;}
	.st1{fill:#D8DADE;}
	.st2{fill:#C3C5CA;}
	.st3{fill:#D0D0D0;}
	.st4{fill:#B0AFB5;}
	.st5{fill:#94FFF7;fill-opacity:0;}
	.st6{opacity:1.000000e-02;fill:#94FFF7;enable-background:new    ;}
	.st7{opacity:2.000000e-02;fill:#94FFF7;enable-background:new    ;}
	.st8{opacity:3.000000e-02;fill:#94FFF7;enable-background:new    ;}
	.st9{opacity:4.000000e-02;fill:#94FFF7;enable-background:new    ;}
	.st10{opacity:5.000000e-02;fill:#94FFF7;enable-background:new    ;}
	.st11{opacity:6.000000e-02;fill:#94FFF7;enable-background:new    ;}
	.st12{opacity:7.000000e-02;fill:#94FFF7;enable-background:new    ;}
	.st13{opacity:8.000000e-02;fill:#94FFF7;enable-background:new    ;}
	.st14{opacity:9.000000e-02;fill:#94FFF7;enable-background:new    ;}
	.st15{opacity:0.1;fill:#94FFF7;enable-background:new    ;}
	.st16{opacity:0.11;fill:#94FFF7;enable-background:new    ;}
	.st17{opacity:0.12;fill:#94FFF7;enable-background:new    ;}
	.st18{opacity:0.13;fill:#94FFF7;enable-background:new    ;}
	.st19{opacity:0.14;fill:#94FFF7;enable-background:new    ;}
	.st20{opacity:0.15;fill:#94FFF7;enable-background:new    ;}
	.st21{opacity:0.16;fill:#94FFF7;enable-background:new    ;}
	.st22{opacity:0.17;fill:#94FFF7;enable-background:new    ;}
	.st23{opacity:0.18;fill:#94FFF7;enable-background:new    ;}
	.st24{opacity:0.19;fill:#94FFF7;enable-background:new    ;}
	.st25{opacity:0.2;fill:#94FFF7;enable-background:new    ;}
	.st26{opacity:0.21;fill:#94FFF7;enable-background:new    ;}
	.st27{opacity:0.22;fill:#94FFF7;enable-background:new    ;}
	.st28{opacity:0.23;fill:#94FFF7;enable-background:new    ;}
	.st29{opacity:0.24;fill:#94FFF7;enable-background:new    ;}
	.st30{opacity:0.25;fill:#94FFF7;enable-background:new    ;}
	.st31{opacity:0.26;fill:#94FFF7;enable-background:new    ;}
	.st32{opacity:0.27;fill:#94FFF7;enable-background:new    ;}
	.st33{opacity:0.28;fill:#94FFF7;enable-background:new    ;}
	.st34{opacity:0.29;fill:#94FFF7;enable-background:new    ;}
	.st35{opacity:0.3;fill:#94FFF7;enable-background:new    ;}
	.st36{fill:#EDEEF0;}
	.st37{fill:#00D8C5;}
	.st38{opacity:0.15;fill:#B0AFB5;enable-background:new    ;}
	.st39{fill:#A09EA3;}
</style>
<title>error</title>
<g>
	<g>
		<g id="Assets">
			<path class="st0" d="M204.2,135H39.1c-0.6,0-1-0.4-1-1V29.9c0-0.6,0.4-1,1-1h165.1c0.6,0,1,0.4,1,1V134
				C205.2,134.6,204.7,135,204.2,135z M40.1,133h163.1V30.9H40.1V133z"/>
			<path class="st0" d="M194.4,128.4H48.8c-0.6,0-1-0.4-1-1v-91c0-0.6,0.4-1,1-1h145.6c0.6,0,1,0.4,1,1v91
				C195.4,128,195,128.4,194.4,128.4C194.4,128.4,194.4,128.4,194.4,128.4z M49.8,126.5h143.7V37.4H49.8V126.5z"/>
			<path class="st0" d="M82.4,128H48.8c-0.6,0-1-0.4-1-1V37c0-0.6,0.4-1,1-1h43.6c0.6,0,1,0.4,1,1V48c0.1,13.1-8.4,24.7-20.9,28.7
				c6.3,6.8,9.9,15.7,10.1,25l0.8,25.2c0,0.3-0.1,0.5-0.3,0.7C82.9,127.9,82.7,128,82.4,128z M49.8,126h31.5l-0.7-24.2
				c-0.3-9.3-4.1-18.2-10.7-24.9c-0.3-0.3-0.4-0.6-0.3-1c0.1-0.3,0.4-0.6,0.7-0.7c12.4-3.2,21-14.4,21-27.2V38H49.8L49.8,126z"/>
			<path class="st0" d="M70.6,77.2H48.8c-0.6,0-1-0.4-1-1s0.4-1,1-1h21.8c0.6,0,1,0.4,1,1S71.2,77.2,70.6,77.2z"/>
			<path class="st0" d="M194.4,128h-33.5c-0.3,0-0.5-0.1-0.7-0.3c-0.2-0.2-0.3-0.5-0.3-0.7l0.8-25.2c0.3-9.3,3.9-18.2,10.2-25
				c-12.5-4-20.9-15.6-20.9-28.6V37c0-0.6,0.4-1,1-1h43.6c0.6,0,1,0.4,1,1v90C195.4,127.5,195,128,194.4,128z M161.9,126h31.5V38
				h-41.5V48c0,12.8,8.6,23.9,21,27.2c0.3,0.1,0.6,0.4,0.7,0.7c0.1,0.4,0,0.7-0.3,1c-6.6,6.6-10.4,15.5-10.7,24.8L161.9,126z"/>
			<path class="st0" d="M194.4,77.2h-21.8c-0.6,0-1-0.4-1-1s0.4-1,1-1h21.8c0.6,0,1,0.4,1,1S195,77.2,194.4,77.2z"/>
			<rect x="232" y="160.3" class="st1" width="7.8" height="109.6"/>
			<rect x="303.5" y="160.3" class="st1" width="7.8" height="109.6"/>
			<rect x="58.8" y="160.3" class="st1" width="7.8" height="109.6"/>
			<rect x="130.3" y="160.3" class="st1" width="7.8" height="109.6"/>
			<rect x="237.3" y="160.3" class="st2" width="7.8" height="109.6"/>
			<rect x="308.8" y="160.3" class="st2" width="7.8" height="109.6"/>
			<rect x="64.1" y="160.3" class="st2" width="7.8" height="109.6"/>
			<rect x="135.6" y="160.3" class="st2" width="7.8" height="109.6"/>
			<rect x="39.1" y="156.5" class="st3" width="302.5" height="7.8"/>
			<rect x="212.3" y="156.5" class="st4" width="129.3" height="7.8"/>
			<polygon class="st0" points="127.2,111.6 204.1,111.6 224.1,156.5 147.2,156.5 			"/>
			<polygon class="st5" points="220.1,33.8 387.2,33.8 388.3,156.5 274.8,156.5 			"/>
			<polygon class="st6" points="217.3,36.5 381.1,36.5 382.7,156.4 270.8,156.4 			"/>
			<polygon class="st7" points="214.5,39.1 375,39.1 377.1,156.3 266.8,156.3 			"/>
			<polygon class="st8" points="211.7,41.8 368.9,41.8 371.5,156.2 262.7,156.2 			"/>
			<polygon class="st9" points="208.9,44.4 362.8,44.4 365.9,156.1 258.7,156.1 			"/>
			<polygon class="st10" points="206.2,47.1 356.6,47.1 360.3,156 254.7,156 			"/>
			<polygon class="st11" points="203.4,49.7 350.5,49.7 354.7,155.9 250.7,155.9 			"/>
			<polygon class="st12" points="200.6,52.4 344.4,52.4 349.1,155.8 246.7,155.8 			"/>
			<polygon class="st13" points="197.8,55 338.3,55 343.5,155.7 242.7,155.7 			"/>
			<polygon class="st14" points="195,57.7 332.2,57.7 337.9,155.6 238.7,155.6 			"/>
			<polygon class="st15" points="192.2,60.3 326.1,60.3 332.3,155.5 234.7,155.5 			"/>
			<polygon class="st16" points="189.5,63 320,63 326.7,155.4 230.7,155.4 			"/>
			<polygon class="st17" points="186.7,65.6 313.9,65.6 321.1,155.3 226.6,155.3 			"/>
			<polygon class="st18" points="183.9,68.3 307.8,68.3 315.5,155.2 222.6,155.2 			"/>
			<polygon class="st19" points="181.1,70.9 301.7,70.9 309.9,155.1 218.6,155.1 			"/>
			<polygon class="st20" points="178.3,73.6 295.6,73.6 304.3,155 214.6,155 			"/>
			<polygon class="st20" points="175.5,76.2 289.5,76.2 298.7,154.9 210.6,154.9 			"/>
			<polygon class="st21" points="172.8,78.9 283.4,78.9 293,154.8 206.6,154.8 			"/>
			<polygon class="st22" points="170,81.5 277.3,81.5 287.4,154.7 202.6,154.7 			"/>
			<polygon class="st23" points="167.2,84.2 271.2,84.2 281.8,154.6 198.6,154.6 			"/>
			<polygon class="st24" points="164.4,86.8 265.1,86.8 276.2,154.5 194.6,154.5 			"/>
			<polygon class="st25" points="161.6,89.5 259,89.5 270.6,154.4 190.6,154.4 			"/>
			<polygon class="st26" points="158.8,92.1 252.9,92.1 265,154.3 186.5,154.3 			"/>
			<polygon class="st27" points="156,94.8 246.8,94.8 259.4,154.2 182.5,154.2 			"/>
			<polygon class="st28" points="153.3,97.4 240.7,97.4 253.8,154.1 178.5,154.1 			"/>
			<polygon class="st29" points="150.5,100.1 234.5,100.1 248.2,154 174.5,154 			"/>
			<polygon class="st30" points="147.7,102.8 228.4,102.8 242.6,153.9 170.5,153.9 			"/>
			<polygon class="st31" points="144.9,105.4 222.3,105.4 237,153.8 166.5,153.8 			"/>
			<polygon class="st32" points="142.1,108.1 216.2,108.1 231.4,153.7 162.5,153.7 			"/>
			<polygon class="st33" points="139.3,110.7 210.1,110.7 225.8,153.6 158.5,153.6 			"/>
			<polygon class="st34" points="136.6,113.4 204,113.4 220.2,153.5 154.5,153.5 			"/>
			<polygon class="st35" points="133.8,116 197.9,116 214.6,153.4 150.5,153.4 			"/>
			<rect x="146.5" y="153.4" class="st36" width="124" height="3"/>
			<rect x="146.5" y="153.4" class="st0" width="77.6" height="3"/>
			<polygon class="st36" points="127.2,111.6 204.1,111.6 224.1,156.5 147.2,156.5 			"/>
			<polygon class="st0" points="125.7,111.6 202.6,111.6 222.6,156.5 145.7,156.5 			"/>
			
				<ellipse transform="matrix(0.8246 -0.5657 0.5657 0.8246 -45.3256 122.0673)" class="st37" cx="174.2" cy="134.1" rx="4" ry="5.9"/>
			<path class="st0" d="M384.9,270.9H39.1c-0.6,0-1-0.4-1-1s0.4-1,1-1h345.8c0.6,0,1,0.4,1,1S385.5,270.9,384.9,270.9z"/>
			<path class="st37" d="M98.2,145.6c-1.7,0-3-1.3-3-3v-24.5c0-1.7,1.3-3,3-3s3,1.3,3,3v24.5C101.2,144.3,99.8,145.6,98.2,145.6z"/>
			<polygon class="st4" points="110.7,142.6 85.7,142.6 87.7,156.5 108.7,156.5 			"/>
			<polygon class="st38" points="110.7,142.6 85.7,142.6 108.7,156.5 			"/>
			<rect x="84.7" y="142.6" class="st39" width="27" height="2.8"/>
			<path class="st37" d="M98.2,136.9H87.8c-1.7,0-3-1.3-3-3v-7.9c0-1.7,1.3-3,3-3s3,1.3,3,3v4.9h7.3c1.7,0,3,1.3,3,3
				S99.8,136.9,98.2,136.9z"/>
			<path class="st37" d="M106.9,140.5h-8.7c-1.7,0-3-1.3-3-3s1.3-3,3-3h5.7v-2.9c0-1.7,1.3-3,3-3s3,1.3,3,3v5.9
				C109.9,139.1,108.6,140.5,106.9,140.5z"/>
			<path class="st0" d="M302.8,106.7h-58.1l-9.9,10.1v-10.1h-11.8c-2.1,0-3.8-1.7-3.8-3.8l0,0V81.3c0-2.1,1.7-3.8,3.8-3.8l0,0h79.9
				c2.1,0,3.8,1.7,3.8,3.8l0,0v21.6C306.6,105,304.9,106.7,302.8,106.7C302.8,106.7,302.8,106.7,302.8,106.7z"/>
			<path class="st4" d="M239.4,91.7c0,1-0.2,2.1-0.6,3c-0.4,0.8-0.9,1.5-1.7,2c-0.8,0.5-1.6,0.7-2.5,0.7c-0.9,0-1.8-0.2-2.5-0.7
				c-0.7-0.5-1.3-1.1-1.7-1.9c-0.4-0.9-0.6-1.9-0.6-2.9v-0.6c0-1,0.2-2.1,0.6-3c0.4-0.8,1-1.5,1.7-2c0.8-0.5,1.6-0.7,2.5-0.7
				c0.9,0,1.8,0.2,2.5,0.7c0.8,0.5,1.4,1.2,1.7,2c0.4,0.9,0.6,1.9,0.6,3V91.7z M237.1,91.2c0.1-1-0.2-1.9-0.7-2.7
				c-0.7-1-2.1-1.2-3.1-0.5c-0.2,0.1-0.4,0.3-0.5,0.5c-0.5,0.8-0.7,1.7-0.7,2.7v0.5c-0.1,0.9,0.2,1.9,0.6,2.7c0.4,0.6,1.1,1,1.8,1
				c0.7,0,1.4-0.3,1.8-0.9c0.5-0.8,0.7-1.8,0.7-2.7V91.2z"/>
			<path class="st4" d="M240.6,92.8c0-0.8,0.2-1.5,0.5-2.3c0.3-0.6,0.8-1.2,1.4-1.5c0.6-0.4,1.4-0.6,2.1-0.5c1-0.1,2,0.3,2.8,1
				c0.7,0.8,1.2,1.8,1.2,2.8v0.6c0.1,1.1-0.3,2.3-1.1,3.1c-1.6,1.6-4.2,1.6-5.8,0C241,95.2,240.6,94,240.6,92.8L240.6,92.8z
				 M242.9,93c0,0.6,0.1,1.3,0.4,1.8c0.3,0.4,0.8,0.7,1.3,0.6c0.5,0,1-0.2,1.3-0.6c0.4-0.6,0.5-1.3,0.5-2c0-0.6-0.1-1.3-0.5-1.8
				c-0.5-0.7-1.5-0.9-2.3-0.3c-0.1,0.1-0.2,0.2-0.3,0.3C243,91.6,242.9,92.3,242.9,93L242.9,93z"/>
			<path class="st4" d="M257.7,93c0.1,1.1-0.3,2.2-0.9,3.1c-0.5,0.8-1.4,1.2-2.4,1.2c-0.8,0-1.5-0.3-2.1-0.9v4H250V88.7h2.1l0.1,0.8
				c0.5-0.7,1.3-1,2.1-1c1,0,1.9,0.4,2.4,1.2c0.6,0.9,0.9,2.1,0.9,3.2V93z M255.4,92.8c0-0.6-0.1-1.3-0.4-1.8
				c-0.3-0.4-0.7-0.7-1.2-0.6c-0.6-0.1-1.2,0.3-1.5,0.8v3.5c0.3,0.6,0.9,0.9,1.5,0.8C254.9,95.4,255.4,94.6,255.4,92.8L255.4,92.8z"
				/>
			<path class="st4" d="M263.6,94.8c0-0.3-0.2-0.5-0.4-0.7c-0.4-0.2-0.9-0.3-1.3-0.4c-2-0.4-3-1.3-3-2.6c0-0.7,0.3-1.4,0.9-1.9
				c0.7-0.5,1.6-0.8,2.4-0.8c0.9,0,1.8,0.2,2.6,0.8c0.6,0.5,1,1.2,1,2h-2.3c0-0.3-0.1-0.6-0.3-0.8c-0.3-0.2-0.6-0.4-1-0.3
				c-0.3,0-0.6,0.1-0.9,0.3c-0.2,0.2-0.3,0.4-0.3,0.7c0,0.3,0.1,0.5,0.3,0.6c0.4,0.2,0.8,0.3,1.2,0.4c0.5,0.1,1,0.2,1.4,0.4
				c1.1,0.3,1.8,1.2,1.8,2.3c0,0.8-0.4,1.5-1,1.9c-0.8,0.5-1.7,0.8-2.6,0.7c-0.7,0-1.3-0.1-1.9-0.4c-0.5-0.2-1-0.6-1.3-1
				c-0.3-0.4-0.5-0.9-0.5-1.4h2.1c0,0.4,0.2,0.7,0.4,0.9c0.3,0.2,0.7,0.3,1.1,0.3c0.4,0,0.7-0.1,1-0.3
				C263.6,95.3,263.7,95,263.6,94.8z"/>
			<path class="st4" d="M267.4,96c0-0.3,0.1-0.7,0.4-0.9c0.2-0.2,0.6-0.4,0.9-0.3c0.3,0,0.7,0.1,0.9,0.3c0.2,0.2,0.4,0.5,0.4,0.9
				c0,0.3-0.1,0.6-0.4,0.9c-0.5,0.5-1.3,0.5-1.8,0C267.5,96.6,267.4,96.3,267.4,96z"/>
			<path class="st4" d="M272,96c0-0.3,0.1-0.7,0.4-0.9c0.5-0.5,1.3-0.5,1.8,0c0.5,0.5,0.5,1.2,0,1.7c0,0,0,0,0,0
				c-0.5,0.5-1.3,0.5-1.8,0C272.2,96.6,272,96.3,272,96z"/>
			<path class="st4" d="M276.7,96c0-0.3,0.1-0.6,0.4-0.9c0.5-0.5,1.3-0.5,1.8,0c0.2,0.2,0.4,0.5,0.4,0.9c0,0.3-0.1,0.6-0.4,0.9
				c-0.3,0.2-0.6,0.4-0.9,0.3c-0.3,0-0.7-0.1-0.9-0.3C276.8,96.6,276.7,96.3,276.7,96z"/>
			<path class="st0" d="M195.1,240.3h-39c-0.6,0-1-0.4-1-1v-22.7c0-0.6,0.4-1,1-1h39c0.6,0,1,0.4,1,1v22.7
				C196.1,239.9,195.7,240.3,195.1,240.3z M157.1,238.3h37v-20.7h-37V238.3z"/>
			<path class="st2" d="M170.7,235.2h-6.4c-1.8,0-3.3-1.5-3.3-3.3V224c0-1.8,1.5-3.3,3.3-3.3h6.4c1.8,0,3.3,1.5,3.3,3.3v7.9
				C173.9,233.7,172.5,235.2,170.7,235.2z M164.3,222.8c-0.7,0-1.3,0.6-1.3,1.3c0,0,0,0,0,0v7.9c0,0.7,0.6,1.3,1.3,1.3l0,0h6.4
				c0.7,0,1.3-0.6,1.3-1.3c0,0,0,0,0,0V224c0-0.7-0.6-1.3-1.3-1.3l0,0H164.3z"/>
			<path class="st2" d="M165.6,231c-0.6,0-1-0.4-1-1v-4c0-0.6,0.4-1,1-1s1,0.4,1,1v4C166.6,230.5,166.1,231,165.6,231z"/>
			<path class="st2" d="M169.4,231c-0.6,0-1-0.4-1-1v-4c0-0.6,0.4-1,1-1s1,0.4,1,1v4C170.4,230.5,169.9,231,169.4,231z"/>
			<path class="st0" d="M187,235.2h-6.4c-1.8,0-3.3-1.5-3.3-3.3V224c0-1.8,1.5-3.3,3.3-3.3h6.4c1.8,0,3.3,1.5,3.3,3.3v7.9
				C190.3,233.7,188.8,235.2,187,235.2z M180.6,222.8c-0.7,0-1.3,0.6-1.3,1.3c0,0,0,0,0,0v7.9c0,0.7,0.6,1.3,1.3,1.3l0,0h6.4
				c0.7,0,1.3-0.6,1.3-1.3c0,0,0,0,0,0V224c0-0.7-0.6-1.3-1.3-1.3l0,0H180.6z"/>
			<path class="st0" d="M181.9,231c-0.6,0-1-0.4-1-1v-4c0-0.6,0.4-1,1-1s1,0.4,1,1v4C182.9,230.5,182.5,231,181.9,231z"/>
			<path class="st0" d="M185.7,231c-0.6,0-1-0.4-1-1v-4c0-0.6,0.4-1,1-1s1,0.4,1,1v4C186.7,230.5,186.3,231,185.7,231z"/>
			<path class="st37" d="M202.9,263.4c-0.6,0-1-0.4-1-1s0.4-1,1-1c3.8,0,7.4-1.5,9.9-4.3c13.9-14,13.5-57.4,13.3-83.3
				c-0.1-15.5,0-18.9,1.4-19.7c0.5-0.3,1.1-0.2,1.4,0.3c0.3,0.5,0.2,1.1-0.3,1.4c-0.7,1.3-0.6,9.4-0.5,18
				c0.2,26.2,0.6,70.2-13.9,84.7C211.3,261.7,207.2,263.4,202.9,263.4z M228.5,155.9L228.5,155.9z"/>
			<path class="st2" d="M200.5,268.9h-10.1c-0.6,0-1-0.4-1-1V257c0-0.6,0.4-1,1-1h10.1c1.8,0,3.3,1.5,3.3,3.3v6.4
				C203.7,267.4,202.3,268.9,200.5,268.9z M191.3,266.9h9.1c0.7,0,1.3-0.6,1.3-1.3c0,0,0,0,0,0v-6.4c0-0.7-0.6-1.3-1.3-1.3l0,0h-9.1
				V266.9z"/>
			<path class="st2" d="M189.4,265.3h-4c-0.6,0-1-0.4-1-1s0.4-1,1-1h4c0.6,0,1,0.4,1,1S189.9,265.3,189.4,265.3z"/>
			<path class="st2" d="M189.4,261.6h-4c-0.6,0-1-0.4-1-1s0.4-1,1-1h4c0.6,0,1,0.4,1,1S189.9,261.6,189.4,261.6z"/>
		</g>
	</g>
</g>
</svg>
