<?xml version="1.0" encoding="utf-8"?>
<!-- Generator: Adobe Illustrator 23.0.3, SVG Export Plug-In . SVG Version: 6.00 Build 0)  -->
<svg version="1.1" id="Capa_1" xmlns="http://www.w3.org/2000/svg" xmlns:xlink="http://www.w3.org/1999/xlink" x="0px" y="0px"
	 viewBox="0 0 69.8 69.8" style="enable-background:new 0 0 69.8 69.8;" xml:space="preserve">
<style type="text/css">
	.st0{fill:none;}
	.st1{fill:#406EB3;}
	.st2{fill:#FFFFFF;stroke:#CECECE;stroke-miterlimit:10;}
</style>
<title>estadooferta_03</title>
<g>
	<g id="Assets">
		<rect class="st0" width="69.8" height="69.8"/>
		<path class="st1" d="M47.6,38.5c-0.1,0-0.3,0-0.3-0.1l-5.8-5.8l-3.9,3.9c-0.2,0.2-0.5,0.2-0.7,0c0,0,0,0,0,0l-3.9-3.9L29,36.4
			c-0.2,0.2-0.5,0.2-0.7,0c0,0,0,0,0,0L22,30.1c-0.2-0.2-0.2-0.5,0-0.7c0.2-0.2,0.5-0.2,0.7,0c0,0,0,0,0,0l6,6l3.9-3.9
			c0.2-0.2,0.5-0.2,0.7,0c0,0,0,0,0,0l3.9,3.9l3.9-3.9c0.2-0.2,0.5-0.2,0.7,0c0,0,0,0,0,0l6.2,6.2c0.2,0.2,0.2,0.5,0,0.7
			C47.9,38.4,47.8,38.5,47.6,38.5L47.6,38.5z"/>
		<path class="st1" d="M47.6,44.6c-0.1,0-0.3,0-0.3-0.1l-6-6l-3.9,3.9c-0.2,0.2-0.5,0.2-0.7,0l-3.9-3.9l-3.9,3.9
			c-0.2,0.2-0.5,0.2-0.7,0l-6.2-6.2c-0.2-0.2-0.2-0.5,0-0.7c0.2-0.2,0.5-0.2,0.7,0c0,0,0,0,0,0l5.8,5.8l3.9-3.9
			c0.2-0.2,0.5-0.2,0.7,0l3.9,3.9l3.9-3.9c0.2-0.2,0.5-0.2,0.7,0l6.3,6.3c0.2,0.2,0.2,0.5,0,0.7C47.8,44.6,47.7,44.6,47.6,44.6
			L47.6,44.6z"/>
		<path class="st2" d="M41.9,21.3H28c-0.9,0-1.5-0.7-1.5-1.5v-4c0-0.8,0.7-1.5,1.5-1.5h3.5c0.2,0,0.3-0.1,0.4-0.2
			c0.9-1.7,3.1-2.3,4.8-1.3c0.6,0.3,1,0.8,1.3,1.3c0.1,0.1,0.2,0.2,0.4,0.2h3.5c0.9,0,1.5,0.7,1.5,1.6v4
			C43.4,20.6,42.7,21.3,41.9,21.3C41.9,21.3,41.9,21.3,41.9,21.3z M28,15.2c-0.3,0-0.5,0.2-0.5,0.6v4c0,0.3,0.2,0.5,0.5,0.5h13.9
			c0.3,0,0.5-0.2,0.5-0.5v-4c0-0.3-0.2-0.6-0.5-0.6h-3.5c-0.5,0-1-0.3-1.2-0.7c-0.7-1.2-2.2-1.6-3.4-0.9c-0.4,0.2-0.7,0.5-0.9,0.9
			c-0.3,0.4-0.7,0.7-1.2,0.7H28z"/>
		<path class="st2" d="M47.8,57.6H22c-1.8,0-3.3-1.5-3.3-3.3V18.9c0-1.8,1.5-3.3,3.3-3.3h5c0.3,0,0.5,0.2,0.5,0.5
			c0,0.3-0.2,0.5-0.5,0.5h-5c-1.3,0-2.3,1-2.3,2.3v35.4c0,1.3,1,2.3,2.3,2.3h25.8c1.3,0,2.3-1,2.3-2.3V18.9c0-1.3-1-2.3-2.3-2.3H43
			c-0.3,0-0.5-0.2-0.5-0.5s0.2-0.5,0.5-0.5h4.8c1.8,0,3.3,1.5,3.3,3.3v35.4C51.1,56.1,49.6,57.6,47.8,57.6z"/>
		<path class="st2" d="M47.6,38.5c-0.3,0-0.5-0.2-0.5-0.5V20.3c0-0.3-0.3-0.6-0.6-0.6H43c-0.3,0-0.5-0.2-0.5-0.5s0.2-0.5,0.5-0.5
			h3.5c0.9,0,1.6,0.7,1.6,1.6V38C48,38.3,47.8,38.4,47.6,38.5z"/>
		<path class="st2" d="M46.5,54.5H23.4c-0.9,0-1.6-0.7-1.6-1.6v-17c0-0.3,0.2-0.5,0.5-0.5c0.3,0,0.5,0.2,0.5,0.5v17
			c0,0.3,0.3,0.6,0.6,0.6h23.1c0.3,0,0.6-0.3,0.6-0.6v-8.8c0-0.3,0.2-0.5,0.5-0.5s0.5,0.2,0.5,0.5v8.8
			C48.1,53.8,47.4,54.5,46.5,54.5z"/>
		<path class="st2" d="M22.3,30.2c-0.3,0-0.5-0.2-0.5-0.5v-9.4c0-0.9,0.7-1.6,1.6-1.6l0,0H27c0.3,0,0.5,0.2,0.5,0.5
			c0,0.3-0.2,0.5-0.5,0.5h-3.6c-0.3,0-0.6,0.3-0.6,0.6l0,0v9.4C22.8,30,22.6,30.2,22.3,30.2z"/>
		<path class="st2" d="M34.9,18.6c-0.8,0-1.5-0.7-1.5-1.5s0.7-1.5,1.5-1.5s1.5,0.7,1.5,1.5C36.4,17.9,35.8,18.6,34.9,18.6L34.9,18.6
			z M34.9,16.6c-0.3,0-0.5,0.2-0.5,0.5c0,0,0,0,0,0c0,0.3,0.2,0.5,0.5,0.5c0.3,0,0.5-0.2,0.5-0.5C35.4,16.8,35.2,16.6,34.9,16.6
			C34.9,16.6,34.9,16.6,34.9,16.6z"/>
	</g>
</g>
</svg>
