<svg xmlns="http://www.w3.org/2000/svg" viewBox="0 0 40 40"><defs><style>.cls-1{fill:none;}.cls-2{fill:#fff;}</style></defs><title>D-MDCSH-prototipo-v5</title><g id="Capa_8" data-name="Capa 8"><rect class="cls-1" width="40" height="40"/><path class="cls-2" d="M32.6,31.32l1.18,3.52,1-.34-1.47-4.42.29-.14a2.33,2.33,0,0,0-.23-4.3l-.24-.08V15.77l1.24-.5L20,9.52,5.62,15.27l6.65,2.67v4.51c0,1.18.85,2.25,2.4,3A12.17,12.17,0,0,0,20,26.58a12.25,12.25,0,0,0,5.32-1.11c1.54-.77,2.39-1.84,2.39-3V18l4.38-1.75v9.36l-.24.08a2.33,2.33,0,0,0-.23,4.3l.29.14L30.42,34.5l1,.34Zm0-2.22a1.26,1.26,0,1,1,1.27-1.26A1.27,1.27,0,0,1,32.6,29.1ZM20,25.51c-3.54,0-6.65-1.43-6.65-3.06V18.37L20,21l6.65-2.66v4.08C26.63,24.08,23.52,25.51,20,25.51Zm0-5.63L8.49,15.27,20,10.67l11.52,4.6Z"/></g></svg>