<?xml version="1.0" encoding="utf-8"?>
<!-- Generator: Adobe Illustrator 23.0.3, SVG Export Plug-In . SVG Version: 6.00 Build 0)  -->
<svg version="1.1" id="Capa_1" xmlns="http://www.w3.org/2000/svg" xmlns:xlink="http://www.w3.org/1999/xlink" x="0px" y="0px"
	 viewBox="0 0 138.9 161.9" style="enable-background:new 0 0 138.9 161.9;" xml:space="preserve">
<style type="text/css">
	.st0{fill:#E6E6E6;}
	.st1{opacity:0.91;}
	.st2{fill:#331239;}
	.st3{fill:#9BCBE9;}
	.st4{fill:#FFFFFF;}
	.st5{fill:#406EB3;}
	.st6{opacity:0.8;}
	.st7{fill:#CCEAF5;}
	.st8{fill:#3E275C;}
	.st9{fill:#43225D;}
	.st10{fill:#CCCCCC;}
	.st11{fill:#380A37;}
	.st12{fill:#7AB4DF;}
	.st13{fill:#82CBEA;}
	.st14{opacity:0.69;}
	.st15{fill:#BFEAF5;}
	.st16{fill:#8FD9ED;}
	.st17{fill:#FF97A8;}
	.st18{fill:#FF5D7B;}
	.st19{fill:#AF99CC;}
</style>
<title>home_01</title>
<g>
	<g>
		<g id="Assets">
			<polygon class="st0" points="138.9,139.3 43.1,140.2 40.8,0.1 137.6,0 			"/>
			<g class="st1">
				<polygon class="st2" points="137.3,0.2 40.7,0.1 41,16 137.4,15.1 				"/>
			</g>
			
				<rect x="49" y="9.1" transform="matrix(1 -9.424639e-03 9.424639e-03 1 -9.684341e-02 0.7531)" class="st3" width="61.7" height="3.1"/>
			
				<rect x="44.7" y="18.8" transform="matrix(1 -9.424639e-03 9.424639e-03 1 -0.3138 0.8459)" class="st3" width="89.8" height="29.9"/>
			
				<rect x="45.5" y="124.9" transform="matrix(1 -9.424639e-03 9.424639e-03 1 -1.228 0.8577)" class="st3" width="89.8" height="11.6"/>
			
				<rect x="82.1" y="30.9" transform="matrix(1 -9.424639e-03 9.424639e-03 1 -0.3007 1.0006)" class="st4" width="47.8" height="3.1"/>
			
				<rect x="81.9" y="37.6" transform="matrix(1 -9.424639e-03 9.424639e-03 1 -0.3637 0.9135)" class="st4" width="29.7" height="3"/>
			<path class="st4" d="M117.8,10.2c0.2,0.8-0.4,1.6-1.2,1.8c-0.8,0.2-1.6-0.4-1.8-1.2c0-0.2,0-0.4,0-0.6c0.2-0.8,1-1.4,1.8-1.2
				C117.2,9.2,117.6,9.6,117.8,10.2z"/>
			<path class="st3" d="M123.6,10.2c0,0.8-0.7,1.5-1.5,1.5s-1.5-0.7-1.5-1.5c0-0.8,0.7-1.5,1.5-1.5C122.9,8.7,123.6,9.4,123.6,10.2
				C123.6,10.2,123.6,10.2,123.6,10.2z"/>
			<path class="st5" d="M129.4,10.1c0,0.8-0.7,1.5-1.5,1.5s-1.5-0.7-1.5-1.5c0-0.8,0.7-1.5,1.5-1.5C128.7,8.6,129.4,9.3,129.4,10.1
				C129.4,10.1,129.4,10.1,129.4,10.1z"/>
			<g class="st6">
				<polygon class="st4" points="130.3,87.9 80.3,87.9 80.3,101.2 130.3,101.2 				"/>
			</g>
			<rect x="82.5" y="90.1" class="st7" width="45.3" height="1.7"/>
			<rect x="82.5" y="93.4" class="st7" width="37.9" height="1.7"/>
			<rect x="82.5" y="96.7" class="st7" width="27.8" height="1.7"/>
			<g class="st6">
				<polygon class="st4" points="130.3,103.4 80.3,103.4 80.3,116.7 130.3,116.7 				"/>
			</g>
			<rect x="82.5" y="105.6" class="st7" width="45.3" height="1.7"/>
			<rect x="82.5" y="108.9" class="st7" width="37.9" height="1.7"/>
			<rect x="82.5" y="112.1" class="st7" width="27.8" height="1.7"/>
			<path class="st8" d="M67.3,39c0.2,0.4,0.3,0.8,0.4,1.3h7.8c-0.1-1.6-0.5-3.3-1.2-4.8c-1.4-3.4-4.2-6.1-7.7-7.4L64.1,36
				C65.6,36.5,66.7,37.6,67.3,39z"/>
			<polygon class="st4" points="74.5,29.8 71.5,29.8 71.5,27.1 			"/>
			<path class="st0" d="M59.6,36.5c0.2-0.1,0.3-0.2,0.5-0.3c0.9-0.4,1.9-0.6,2.8-0.5l2.5-7.9c-2.9-0.8-5.9-0.5-8.6,0.9
				c-0.2,0.1-0.4,0.2-0.5,0.3L59.6,36.5z"/>
			<path class="st4" d="M57.2,40.3c0.2-1.1,0.8-2.2,1.6-3l-3.3-7.7c-3.5,2.5-5.7,6.4-6,10.7L57.2,40.3z"/>
			<path class="st4" d="M66.4,68.4c-0.9,1.1-2.2,1.9-3.7,2c-1.1,0.1-2.3-0.2-3.3-0.8l-3.9,6.5c5.6,3.4,12.8,2.1,16.8-3L66.4,68.4z"
				/>
			<path class="st8" d="M67.5,64.1c0,0.2,0.1,0.4,0.1,0.6c0.1,1-0.1,2-0.6,2.8l6,4.8c1.6-2.4,2.4-5.4,2.1-8.3c0-0.2,0-0.4-0.1-0.6
				L67.5,64.1z"/>
			<path class="st3" d="M63.4,59.9c1.7,0.4,3,1.5,3.7,3.1l7.7-0.7c-1.2-5.3-5.5-9.3-10.9-10L63.4,59.9z"/>
			<path class="st3" d="M64,52.3L64,52.3c5.4,0.7,9.8,4.7,11,10l0,0l0,0L67.3,63c0,0,0,0-0.1,0c-0.7-1.5-2-2.6-3.7-3c0,0,0,0,0-0.1
				L64,52.3L64,52.3L64,52.3z"/>
			<path class="st5" d="M54.6,75.5l4-6.6c-0.9-0.9-1.5-2.1-1.6-3.4c-0.3-2.9,1.9-5.5,4.8-5.7c0,0,0,0,0,0c0.2,0,0.3,0,0.5,0l0.5-7.6
				c-0.6,0-1.2,0-1.7,0c-7.1,0.6-12.4,6.8-11.7,13.9C49.7,69.9,51.6,73.3,54.6,75.5z"/>
			<path class="st8" d="M59.5,102.2c1.3-2.4,4.1-3.4,6.6-2.4l2.8-7.1c-6-2.4-12.9,0.1-16,5.8L59.5,102.2z"/>
			<path class="st5" d="M59.3,106.6c-0.1-0.2-0.1-0.4-0.2-0.6c-0.3-0.9-0.3-1.9,0-2.9l-6.7-3.7c-1.2,2.7-1.4,5.7-0.7,8.5
				c0,0.2,0.1,0.4,0.2,0.6L59.3,106.6z"/>
			<path class="st4" d="M64,110c-1.7-0.1-3.3-1-4.2-2.4l-7.5,2c2.1,5,7,8.2,12.5,8L64,110z"/>
			<path class="st4" d="M64.7,117.6L64.7,117.6c-5.4,0.2-10.4-3-12.5-8 M52.2,109.6L52.2,109.6l7.5-2c0,0,0,0,0.1,0
				c0.9,1.4,2.5,2.3,4.2,2.3l0,0l0.8,7.6l0,0L52.2,109.6z M52.3,109.6c2.1,4.9,7,8.1,12.3,7.9l-0.8-7.5c-1.7-0.1-3.2-1-4.2-2.4
				L52.3,109.6z"/>
			<path class="st3" d="M69.9,93.1l-2.8,7.2c1.1,0.7,1.8,1.8,2.2,3c0.8,2.8-0.9,5.7-3.8,6.5c-0.2,0-0.3,0.1-0.5,0.1l0.8,7.6
				c0.6-0.1,1.1-0.2,1.7-0.3c6.9-1.8,11-8.9,9.1-15.8C75.7,97.8,73.2,94.8,69.9,93.1L69.9,93.1z"/>
			<path class="st4" d="M129.3,67h-4.9c-0.2,0-0.4,0-0.4-0.1v-2.6c0-0.1,0.1-0.1,0.2-0.1h4.9c0.1,0,0.4,0,0.4,0.1V67
				C129.5,67,129.4,67,129.3,67z"/>
			<path class="st4" d="M122.6,67v-4.4c0-0.1-0.3-0.2-0.4-0.2h-4.9h-0.2v4.4c0,0.1,0.2,0.2,0.4,0.2h4.9H122.6z M121.8,67
				c-0.8,0.1-1.6,0.1-2.3,0H121.8z"/>
			<path class="st4" d="M115.2,67v-5.7c0-0.1-0.3-0.1-0.4-0.1h-4.9h-0.1v5.7c0,0.1,0.3,0.1,0.4,0.1L115.2,67L115.2,67z M114.2,67
				c-0.8,0.1-1.7,0.1-2.6,0H114.2z"/>
			<path class="st4" d="M108.3,67v-7.3c0-0.1-0.3-0.1-0.4-0.1H103h-0.1v7.3c0,0.1,0.3,0.1,0.4,0.1L108.3,67L108.3,67z M103.2,61.5
				c-0.1-0.3-0.1-0.5,0-0.8V61.5z M106.6,66.9c-0.6,0-1.2,0-1.8,0H106.6z M108,65.7v-1.4C108.1,64.8,108.1,65.2,108,65.7z"/>
			<path class="st4" d="M101,66.9v-8.8c0-0.1-0.2-0.2-0.3-0.2h-4.9c-0.1,0-0.3,0-0.3,0.1v8.8c0,0.1,0.1,0.1,0.2,0.1h5
				C100.8,67.1,101,67,101,66.9z M99.4,66.9c-0.3,0-0.7,0-1.1,0H99.4z"/>
			<path class="st4" d="M93.9,67.1H89c-0.2,0-0.4,0-0.4-0.2V56c0-0.1,0.1-0.1,0.2-0.1h4.9c0.1,0,0.4,0,0.4,0.1v10.9
				C94,67,94,67.1,93.9,67.1z"/>
			<path class="st4" d="M81.4,53.1v13.8c0,0.1,0.2,0.2,0.4,0.1h4.9c0.1,0,0.2,0,0.2-0.1V53.1c0-0.1-0.3-0.1-0.4-0.1h-4.9
				C81.4,53,81.4,53,81.4,53.1z M86.5,53.8c0,0.2,0,0.4,0,0.6V53.8z M83.5,66.9h1.8C84.7,67,84.1,67,83.5,66.9L83.5,66.9z
				 M81.6,54.4v1.1C81.6,55.1,81.6,54.7,81.6,54.4z"/>
			<path class="st3" d="M81.5,69.3h4.9c0.2,0,0.4,0,0.4,0.1v2.7c0,0.1-0.1,0.1-0.2,0.1h-4.9c-0.1,0-0.4,0-0.4-0.1v-2.7
				C81.4,69.3,81.4,69.3,81.5,69.3z"/>
			<path class="st3" d="M88.3,69.3v4.4c0,0.1,0.3,0.2,0.4,0.2h4.9c0,0,0.2,0,0.2-0.1v-4.4c0-0.1-0.2-0.1-0.4-0.2h-4.9
				C88.4,69.3,88.3,69.3,88.3,69.3z M89.1,69.4c0.8-0.1,1.6-0.1,2.3,0H89.1z"/>
			<path class="st3" d="M95.6,69.3V75c0,0.1,0.3,0.1,0.4,0.1h4.9h0.1v-5.7c0-0.1-0.3-0.1-0.4-0.1L95.6,69.3
				C95.7,69.3,95.6,69.3,95.6,69.3z M96.6,69.4c0.8-0.1,1.7-0.1,2.6,0H96.6z"/>
			<path class="st3" d="M102.5,69.3v7.3c0,0.1,0.3,0.1,0.4,0.1h4.9h0.1v-7.3c0-0.1-0.3-0.1-0.4-0.1h-4.9
				C102.6,69.3,102.5,69.3,102.5,69.3z M107.7,74.8c0.1,0.3,0.1,0.5,0,0.8V74.8z M104.2,69.4c0.6,0,1.2,0,1.8,0H104.2z M102.8,70.6
				V72C102.8,71.5,102.8,71.1,102.8,70.6z"/>
			<path class="st3" d="M109.9,69.4v8.8c0,0.1,0.2,0.2,0.3,0.2h4.9c0.1,0,0.2,0,0.2-0.1v-8.8c0-0.1-0.1-0.1-0.2-0.1h-5
				C110,69.3,109.9,69.3,109.9,69.4z M111.5,69.4c0.4,0,0.7,0,1.1,0H111.5z"/>
			<path class="st3" d="M117,69.3h4.9c0.2,0,0.4,0,0.4,0.2v10.9c0,0.1-0.1,0.1-0.2,0.1h-4.9c-0.1,0-0.4,0-0.4-0.2V69.4
				C116.8,69.3,116.9,69.3,117,69.3z"/>
			<path class="st3" d="M124.1,69.4v13.8c0,0.1,0.3,0.1,0.4,0.1h4.9c0.1,0,0.2,0,0.2-0.1V69.4c0-0.1-0.2-0.2-0.4-0.1h-4.9
				C124.2,69.3,124.1,69.3,124.1,69.4z M129.2,80.8c0,0.4,0,0.8,0,1.1V80.8z M125.5,69.4c0.6-0.1,1.2-0.1,1.8,0H125.5z M124.3,81.9
				v0.6C124.3,82.3,124.3,82.1,124.3,81.9z"/>
			<path class="st9" d="M81.5,67.6h47.6c0.1,0,0.2,0,0.3,0.1l0,0l0,0v0.1l0,0v0.8l0,0c0,0.1-0.1,0.1-0.2,0.1H81.8
				c-0.1,0-0.2,0-0.3-0.1h-0.1l0,0l0,0l0,0v-0.9l0,0C81.4,67.7,81.5,67.6,81.5,67.6z"/>
			<path class="st10" d="M24.6,155.6C11,155.6,0,157,0,158.7s11,3.1,24.6,3.1s24.6-1.4,24.6-3.1S38.2,155.6,24.6,155.6z"/>
			<path class="st11" d="M13.5,157.3c-1.7-0.4,0.3-2.4,1.8-2.6c-0.4,0.2-0.9,0.5-0.3,0.6c0.9,0.2,2.1-0.6,2.7-1.1
				c0.2,0.4,0.3,0.8,0.2,1.3C17.9,156,14.8,157.6,13.5,157.3z"/>
			<path class="st2" d="M15,155.6c-0.6-0.1-0.3-0.7,0.2-1c1.5-0.9,1.4-1.4,1.4-1.4h0.7c0,0,0.3,1,0.3,1.1
				C17.1,155.1,16.1,155.6,15,155.6z"/>
			<path class="st11" d="M38.2,156.7c0.3-1.8-2.1-1.6-3.4-1.9c0.4,0.2,0.8,0.6,0.2,0.7c-1.1,0.2-2.3,0-3.2-0.7
				c-0.2,0.5-0.3,1-0.3,1.5C31.6,156.9,38.1,157.1,38.2,156.7z"/>
			<path class="st2" d="M35,155.5c0.6-0.1,0.8-0.6-0.1-0.7c-0.5-0.1-1-0.3-1.5-0.5c-0.4-0.2-0.5-0.8-0.5-0.8h-0.7
				c0,0-0.3,1.2-0.3,1.3C32.7,155.5,33.9,155.7,35,155.5z"/>
			<path class="st9" d="M39.6,95.9c-1.4-3.7-2.5-6.3-3.3-6.7c-4.4-1.9-10.7-4.6-11.5-4.4c-0.8,0.5-5.8,7.9-6.7,12.7
				C16,109,16,148.9,15.9,153c0,0.2,0.1,0.3,0.3,0.4l1.2,0.2c0.2,0,0.4-0.1,0.4-0.3c0.8-2.4,5.8-18.6,8.6-32.5
				c1.9-9.6,3.1-17.8,3.6-18c1.3,4.2,1.1,43.3,1.9,50.9c0.1,1.3,2.5,0.3,2.5-0.8c0-4.5,5.6-19.5,7.1-34.2
				C42.6,108.5,41.7,101.4,39.6,95.9z"/>
			<path class="st11" d="M39.6,95.9c-1.4-3.7-2.5-6.3-3.3-6.7l-3.8-1.6c-1.7-0.7,5.9,11.7,6.5,27.8c0.2,6.4-1.1,13.2-2.3,19.5
				c-1.3,7.4-2.4,14.3-3.1,17.5c-0.1,0.7-0.4,1.3-0.8,1.9c1.1-0.3,1.5-0.9,1.5-1.3c0-4.5,5.6-19.5,7.1-34.2
				C42.6,108.5,41.7,101.4,39.6,95.9z"/>
			<path class="st12" d="M55.8,87.1c-1.3-0.9-7.4-3.7-7.4-3.7s-4-5.7-5.1-7.1c-0.5-0.6-1.2-1.2-1.2-1.2c-0.6-0.6-2.2-1-4.4-1.3
				c1.5,2.6,3.2,5,5.1,7.3c0.9,1.5,1.9,3,3.1,4.3c1.4,1.6,2.8,3.1,4.3,4.5c2.1,2,6.8,0.7,6.8,0.7S57.1,88,55.8,87.1z"/>
			<path class="st13" d="M28.9,74.5c-1.3,3.7-2.8,7.2-4.6,10.7c0,0-0.3,1.1,4.1,3.7c2.8,1.5,6,2.3,9.3,2.3c1.5-2.4,2.8-4.9,4-7.4
				c2-4.4,1.5-7.5,0.8-8.2c-0.3-0.3-5.1-4.2-10-3.8C30.8,71.8,29.4,72.9,28.9,74.5z"/>
			
				<rect x="63.4" y="72.7" transform="matrix(0.7782 -0.628 0.628 0.7782 -31.8863 59.5604)" class="st13" width="9.9" height="4.4"/>
			<path class="st9" d="M89.8,37.7c11,0,19.9,8.9,19.9,19.9s-8.9,19.9-19.9,19.9s-19.9-8.9-19.9-19.9c0-6,2.7-11.7,7.4-15.5
				C80.8,39.3,85.2,37.7,89.8,37.7 M89.8,33.3c-13.4,0-24.3,11-24.3,24.4S76.4,82,89.9,82s24.3-11,24.3-24.4
				c0-5.5-1.9-10.9-5.4-15.2C104.2,36.6,97.2,33.3,89.8,33.3z"/>
			<rect x="41.6" y="81.6" transform="matrix(0.7782 -0.628 0.628 0.7782 -42.0049 53.3276)" class="st5" width="25.8" height="9"/>
			<rect x="43.6" y="81.6" transform="matrix(0.7782 -0.628 0.628 0.7782 -42.0027 53.3339)" class="st9" width="21.9" height="9"/>
			<g class="st14">
				<circle class="st15" cx="89.8" cy="57.7" r="21.1"/>
			</g>
			<path class="st12" d="M30.8,90c2.2,0.8,4.5,1.2,6.9,1.1c0,0,2-3.3,4-7.4c2.1-4.4,1.5-7.5,0.8-8.2c-0.8-0.7-1.7-1.3-2.7-1.8
				c0,0,0.9,5.2-1.1,9.1C36.4,87.2,30.4,89.9,30.8,90z"/>
			<path class="st13" d="M33.3,72c-0.3-0.5-2,0.1-2.4,0.6c-0.9,1.2-1.5,2.6-1.9,4.1c-1.2,3.3-1.1,10.1,1.2,13.7
				c1.7,2.6,14.5,7,17.4,3.3c0.6-0.6,0.8-1.6,0.5-2.4l-14.9-4.9l0.8-9C33.9,77.3,34.5,74,33.3,72z"/>
			<path class="st16" d="M29,76.7c-0.2,0.6-0.3,1.1-0.4,1.7c0,0.3-0.1,0.6-0.1,0.9s0,0.6-0.1,0.9c-0.1,1.2-0.1,2.3,0,3.5
				c0.1,1.2,0.3,2.3,0.5,3.5c0.1,0.3,0.1,0.6,0.2,0.8s0.2,0.6,0.3,0.8s0.2,0.5,0.3,0.8s0.3,0.5,0.4,0.8c-0.7-1-1.2-2.1-1.5-3.2
				c-0.3-1.1-0.5-2.3-0.6-3.5c-0.1-1.2-0.1-2.4,0-3.6C28.3,78.9,28.6,77.8,29,76.7z"/>
			<path class="st16" d="M36.6,87.5c-0.6-0.2-1.2-0.3-1.7-0.5s-1.2-0.3-1.7-0.5H33v-0.1c0-0.8,0.1-1.5,0.2-2.3l0.2-2.3
				c0.1-1.5,0.3-3,0.4-4.5l0,0c0.1-0.9,0.2-1.8,0.1-2.7c0-0.4-0.1-0.9-0.2-1.3c-0.1-0.5-0.2-0.9-0.4-1.3c0.5,0.8,0.7,1.7,0.8,2.6
				c0,0.5,0.1,0.9,0.1,1.4c0,0.5,0,0.9-0.1,1.4l0,0c-0.1,1.5-0.2,3-0.4,4.5l-0.2,2.3c-0.1,0.8-0.2,1.5-0.2,2.3l-0.1-0.1l1.7,0.6
				C35.5,87,36,87.2,36.6,87.5z"/>
			<path class="st17" d="M39.5,71.7c0,0-1.5,1.5-1.5,1.8c0.1,0.5,0.6,0.9,1.1,0.8c0,0,0,0,0,0c0.7-0.2,1.3-1.9,1.3-1.9L39.5,71.7z"
				/>
			<path class="st18" d="M38.5,72.8c0.3,0.5,0.8,0.8,1.3,1c0.2-0.3,0.4-0.6,0.6-1L39.2,72C39,72.2,38.7,72.5,38.5,72.8z"/>
			<path class="st9" d="M42.8,70c0.7,0.2,1.4,0.1,2-0.3c0.5-0.4,0.7-1.2,0.4-1.8c0,0,1.8,0,1.7-2.6s-3.7-2.2-4.3-1.2
				c0,0-1.3-1.6-2.5-0.2c-1.2-0.6-2.6-0.1-3.2,1c-0.7,1-0.6,2.3,0.3,3.2c-0.4,0.5-0.4,1.3,0,1.8C39,72.1,42.8,70,42.8,70z"/>
			<path class="st17" d="M43.2,69.3c-0.5-1.4-3.3-1.6-3.8-1.4s-0.8,1-0.9,1.5s-0.3,3,1.4,3.7C43,74.5,43.2,69.3,43.2,69.3z"/>
			<path class="st19" d="M37.4,65.3c0.7-0.8,1.9-1.1,2.9-0.8c0,0,0.7-0.8,1.4-0.4s0.8,0.7,0.8,0.7c0.7-0.8,1.7-1.3,2.7-1.3
				c-0.9-0.3-1.9,0-2.6,0.7c0,0-1.3-1.6-2.5-0.2c-1.2-0.6-2.6-0.1-3.2,1c-0.7,1-0.6,2.3,0.3,3.2C36.8,67.2,36.8,66.1,37.4,65.3z"/>
			<path class="st17" d="M55.2,91.8c0,0,0.1,0,0.1,0c0.4-0.1,2.2-0.8,2.2-1.6c0-1.1-1.2-1.8-1.6-1.6s0.1,0.8,0.1,0.8s0-0.1-0.3-0.1
				s0,0.8,0,1.1S54.6,91.7,55.2,91.8z"/>
			<path class="st17" d="M48.7,92.3c0,0,0.2-0.2,0.5-0.4s0.5-0.5,0.3-0.5c-0.2,0-0.5,0.1-0.7,0.2c-0.6,0.3-1.2,0.8-0.6,0.8
				C48.3,92.4,48.5,92.4,48.7,92.3z"/>
			<path class="st17" d="M47.4,92.6c0-0.1,0.1-0.2,0.2-0.2c0.5-0.2,1-0.4,1.5-0.5c0.7,0,1.4,0.2,1.9,0.6c0.1,0.2-0.6,0.2-0.6,0.2
				s0.7,0,0.8,0.4s-1.1,0.3-1.1,0.3s0.4,0.3,0.2,0.4c-0.4,0-0.8,0-1.2,0c-0.2,0-0.5,0-0.7-0.1c-0.4-0.1-0.8-0.3-1.1-0.5
				C47.3,92.9,47.3,92.7,47.4,92.6z"/>
		</g>
	</g>
</g>
</svg>
