<svg xmlns="http://www.w3.org/2000/svg" viewBox="0 0 171.63 180.83"><defs><style>.cls-1{isolation:isolate;}.cls-2{fill:#ccc;mix-blend-mode:multiply;}.cls-3{fill:#9bcbe9;}.cls-4{fill:#331239;}.cls-5{fill:#e45d79;}.cls-6{fill:#ffcb37;}.cls-7{fill:#ffe5ae;}.cls-8{fill:#3e275c;}.cls-9{fill:#ff97a7;}.cls-10{fill:#ff9a19;}.cls-11{fill:#ff97a8;}.cls-12{fill:#ff5d7b;}.cls-13{fill:#82cbea;}.cls-14{fill:#bfeaf5;}.cls-15{fill:#8fd9ed;}.cls-16{fill:#380a37;}.cls-17{fill:#43225d;}.cls-18{fill:#00d8c5;}.cls-19{fill:#00928b;}.cls-20{fill:aqua;}.cls-21{fill:none;stroke:#fff;stroke-linecap:round;stroke-linejoin:round;stroke-width:1.94px;}.cls-22{fill:#efeff6;}.cls-23{fill:#fff;}</style></defs><title>home_03</title><g class="cls-1"><g id="Capa_2" data-name="Capa 2"><g id="Assets"><path class="cls-2" d="M91.46,168c-23.91,0-43.29,2.06-43.29,4.6s19.38,4.6,43.29,4.6,43.28-2.06,43.28-4.6S115.36,168,91.46,168Z"/><rect class="cls-3" x="83.71" y="87.65" width="2.71" height="34.86" transform="translate(-18.66 18.37) rotate(-11.12)"/><rect class="cls-3" x="114.6" y="87.65" width="2.71" height="34.86" transform="translate(209.47 230.55) rotate(-168.88)"/><rect class="cls-3" x="67.94" y="121.57" width="2.71" height="51.46" transform="translate(108.89 305.2) rotate(-168.88)"/><path class="cls-4" d="M75.85,90.06h0A12.63,12.63,0,0,1,90.78,75.14l8.15,1.69a12.93,12.93,0,0,0,5.11,0l6.46-1.34a12.41,12.41,0,0,1,14.38,15.78h0a13.43,13.43,0,0,1-12.84,9.5H89A13.42,13.42,0,0,1,75.85,90.06Z"/><rect class="cls-3" x="113.93" y="121.57" width="2.71" height="51.46" transform="translate(-26.24 25) rotate(-11.12)"/><path class="cls-4" d="M113.61,124.14H71a2.35,2.35,0,0,1-2.35-2.34h0A2.35,2.35,0,0,1,71,119.45h42.63A2.35,2.35,0,0,1,116,121.8h0A2.34,2.34,0,0,1,113.61,124.14Z"/><path class="cls-5" d="M85,93s-23.88,6-24.88,24.8,7,57.5,7,57.5l1.14-.26s4.7-50.71,5.31-54.74S99,115.1,103.45,107.85A22.59,22.59,0,0,0,106.39,93Z"/><path class="cls-6" d="M92.64,86c-5,1-16.34-4.82-16.09-13.23C76.9,61.26,89,58.18,91.09,54.6c2.8-4.85,5.71-9.85,9.89-4.5,0,0,3.25-1.39,4.33,3.23,1,4.35,5,8.13,6.63,10.7C126.06,86.89,104.7,83.67,92.64,86Z"/><path class="cls-7" d="M78.54,69.29c1-4,6.54-7.22,10.36-9.77S95.79,50.2,97.17,49a2.65,2.65,0,0,1,2.41-.39c-3.45-2.74-6,1.66-8.49,6C89,58.18,76.9,61.26,76.55,72.77a9.7,9.7,0,0,0,1.27,5A23.46,23.46,0,0,1,78.54,69.29Z"/><path class="cls-8" d="M19.17,153.59c.77-.59,3.15-.32,5,0-.63.07-1.32.27-.67.86.95.86,3.55,1.7,4.67,1.26a5.88,5.88,0,0,1-.65,2.15C27.16,158.57,17.91,154.55,19.17,153.59Z"/><path class="cls-9" d="M23.51,154.43c-.65-.59,0-.79.67-.86,1.15.19,1.89.29,2.12.3a2.57,2.57,0,0,0,1.15-.26l.56.14s.17,1.72.17,1.94C27.06,156.13,24.46,155.29,23.51,154.43Z"/><path class="cls-8" d="M61.54,180.09c-.31-.91,3.07-3.77,4.35-4.3-.39.35-.94,1.05-.35,1.32A3.06,3.06,0,0,0,68.72,176a8.66,8.66,0,0,1,.22,2.35C68.92,179.19,62.28,182.22,61.54,180.09Z"/><path class="cls-5" d="M64.54,177.89c-.6-.27.77-1.62,1.16-2a8.45,8.45,0,0,1,1.43-.85,1.34,1.34,0,0,0,.51-.76l.66-.09a1.56,1.56,0,0,0,.2,1.22,2.25,2.25,0,0,1,.22.54C68.14,176.9,65.4,178.3,64.54,177.89Z"/><path class="cls-10" d="M111.94,64c-1.58-2.57-5.62-6.35-6.63-10.7C104.23,48.71,101,50.1,101,50.1a9.32,9.32,0,0,1,1.21,2.9c.63,2.17-3.74,3-3.74,3l.46,29.22C110.59,84,123.82,83.26,111.94,64Z"/><path class="cls-11" d="M82.75,99.36c4.66-5.14,7.63-23.75,3.7-27.76-1.4-1.43-2.88-2.31-5.37-.77-3.31,2.06-3.44,23.4-3.44,23.4l-2.1-.34C76.73,95.46,80.22,97.78,82.75,99.36Z"/><path class="cls-12" d="M82.75,99.37C86.39,95.35,89,83.12,88.1,76h0c0-.12,0-.23,0-.35v-.07c0-.1,0-.2-.05-.3l0-.1c0-.09,0-.19,0-.28l0-.1a2.56,2.56,0,0,0,0-.27l0-.1-.06-.25s0-.06,0-.08-.09-.3-.13-.44,0-.1,0-.14a1.42,1.42,0,0,1,0-.16,1.11,1.11,0,0,0-.07-.16.88.88,0,0,0-.05-.15.77.77,0,0,1-.07-.16l-.06-.13-.08-.15-.06-.13L87,72.37,87,72.26l-.09-.15L86.8,72l-.11-.15-.06-.07a1.71,1.71,0,0,0-.18-.2h0l-.28-.28q-.24-.22-.48-.42a4.59,4.59,0,0,0-.9-.58c.17,5.45.39,19-1.51,24.06A7.52,7.52,0,0,1,80.57,98Z"/><path class="cls-13" d="M81.08,70.83c2.49-1.54,4-.66,5.37.77,1.84,1.87,2.17,6.92,1.52,12.3l-9.69-2.42C78.76,76.5,79.6,71.75,81.08,70.83Z"/><path class="cls-12" d="M87.55,73.55h0l0-.09Z"/><path class="cls-12" d="M87.11,72.51l0,.11,0-.11Z"/><polygon class="cls-12" points="87.6 73.69 87.6 73.69 87.6 73.69 87.6 73.69"/><path class="cls-12" d="M88.27,79.29c0-.08,0-.17,0-.25C88.28,79.12,88.27,79.21,88.27,79.29Z"/><path class="cls-12" d="M86.63,71.8l0,0,0,0Z"/><path class="cls-12" d="M86.8,72l.06.08L86.8,72Z"/><polygon class="cls-12" points="86.45 71.6 86.45 71.6 86.45 71.6 86.45 71.6 86.45 71.6"/><path class="cls-12" d="M88.05,75.68a1.49,1.49,0,0,1,0,.21,1.49,1.49,0,0,0,0-.21Z"/><polygon class="cls-12" points="88.1 76.05 88.1 76.05 88.1 76.04 88.1 76.05"/><path class="cls-12" d="M88.18,76.8a.31.31,0,0,1,0-.1A.31.31,0,0,0,88.18,76.8Z"/><path class="cls-12" d="M88,75.61h0a.43.43,0,0,1,0-.11A.43.43,0,0,0,88,75.61Z"/><path class="cls-12" d="M87.92,74.93a.43.43,0,0,0,0,.11.43.43,0,0,1,0-.11Z"/><path class="cls-12" d="M88.27,78.43a1.48,1.48,0,0,1,0-.21A1.48,1.48,0,0,0,88.27,78.43Z"/><path class="cls-12" d="M87.75,74.21l.06.25h0l-.06-.25Z"/><path class="cls-12" d="M88.23,77.6a1,1,0,0,0,0-.17A1,1,0,0,1,88.23,77.6Z"/><path class="cls-12" d="M88,83.79c0-.25.05-.49.08-.73C88,83.3,88,83.54,88,83.79Z"/><path class="cls-12" d="M88.17,81.87l0-.4Z"/><path class="cls-12" d="M88.09,82.82c0-.21,0-.41,0-.61C88.13,82.41,88.11,82.61,88.09,82.82Z"/><path class="cls-12" d="M88.23,81c0-.13,0-.25,0-.37C88.24,80.7,88.23,80.82,88.23,81Z"/><polygon class="cls-12" points="86.17 71.32 86.17 71.32 86.17 71.32 86.17 71.32"/><path class="cls-12" d="M85.28,70.6l-.06,0Z"/><path class="cls-12" d="M88.26,80.15c0-.13,0-.26,0-.4C88.27,79.89,88.26,80,88.26,80.15Z"/><path class="cls-14" d="M88.26,78.22c0-.21,0-.42,0-.62C88.25,77.8,88.25,78,88.26,78.22Z"/><path class="cls-14" d="M88,83.9h0l0-.11S88,83.86,88,83.9Z"/><path class="cls-14" d="M88.2,81.47l0-.52Z"/><path class="cls-14" d="M88.24,80.58c0-.14,0-.28,0-.43C88.26,80.3,88.25,80.44,88.24,80.58Z"/><path class="cls-14" d="M88.07,83.06a1.94,1.94,0,0,1,0-.24A1.94,1.94,0,0,0,88.07,83.06Z"/><path class="cls-14" d="M88.27,79.75v0Z"/><path class="cls-14" d="M88.14,82.21l0-.34Z"/><path class="cls-14" d="M88.28,79c0-.2,0-.41,0-.61C88.27,78.63,88.27,78.84,88.28,79Z"/><path class="cls-14" d="M87.44,73.23l-.06-.15a.77.77,0,0,1-.07-.16l-.06-.13-.08-.15v0a7.31,7.31,0,0,1,.36.84l0-.07Z"/><path class="cls-14" d="M87.6,73.69l.15.52s0-.06,0-.08S87.64,73.83,87.6,73.69Z"/><path class="cls-14" d="M87,72.26l-.09-.15h0l.25.41L87,72.37Z"/><path class="cls-14" d="M88.07,75.89l0,.15h0A.59.59,0,0,0,88.07,75.89Z"/><path class="cls-14" d="M86.66,71.83l.14.19-.11-.15Z"/><path class="cls-14" d="M87.84,74.56l0-.1c0,.15.07.31.11.47l0-.1A2.56,2.56,0,0,0,87.84,74.56Z"/><path class="cls-14" d="M88,75.21l0-.17c0,.15,0,.3.08.46l0-.19S88,75.24,88,75.21Z"/><path class="cls-14" d="M86.63,71.8l-.18-.2Z"/><path class="cls-14" d="M88.05,75.68v0Z"/><path class="cls-14" d="M88.17,76.7c0-.22,0-.44-.07-.65C88.12,76.26,88.15,76.48,88.17,76.7Z"/><path class="cls-14" d="M87.6,73.69s0-.1,0-.14S87.58,73.64,87.6,73.69Z"/><path class="cls-14" d="M86.45,71.6l-.28-.28Z"/><path class="cls-14" d="M88.22,77.43c0-.21,0-.42,0-.63C88.2,77,88.21,77.22,88.22,77.43Z"/><path class="cls-14" d="M85.28,70.6a7.2,7.2,0,0,1,.89.72q-.24-.22-.48-.42A3.91,3.91,0,0,0,85.28,70.6Z"/><path class="cls-15" d="M84.47,70.31a3.85,3.85,0,0,0-.47.08h-.06l-.48.13-.56.22h0l-.35.16h0l-.22.12,0,0,0,0-.15.1-.07,0h0l-.13.1-.09.08-.12.11-.08.07,0,0-.11.11-.09.1-.11.12-.1.11a1.47,1.47,0,0,1-.1.13l0,.06-.06.07-.08.11h0q-.12.17-.24.36l0,.06-.12.21-.06.09-.12.22a.35.35,0,0,0,0,.08.47.47,0,0,0-.05.1,1,1,0,0,0-.08.14.59.59,0,0,0,0,.08l-.09.17,0,.1,0,.06-.08.17-.06.13h0c-.09.19-.17.38-.25.58l0,.08c-.07.19-.15.37-.22.56a.88.88,0,0,0,0,.15c-.07.18-.14.37-.2.56a1.46,1.46,0,0,1-.07.19c-.06.18-.12.37-.17.56a1.42,1.42,0,0,0-.07.22c0,.14-.08.28-.13.43s-.06.24-.1.36-.07.27-.1.4l-.09.34-.12.49c0,.12,0,.24-.08.37s0,.22-.07.32l-.12.58c0,.07,0,.15,0,.22,0,.24-.09.47-.13.7l0,.11,3.21.37C82.1,77.45,83.6,72.88,84.47,70.31Z"/><path class="cls-14" d="M85.41,69.67c1.87-2.23,10.7-3.87,19.12-2.55,4.32.68,9.93,3.31,10.77,6,1.69,5.47-9.15,17.36-8.91,19.89-4.59,2-19,1.12-21.37,0C85.06,92.83,82,73.77,85.41,69.67Z"/><path class="cls-9" d="M99.41,62.09s.6,5.15.33,5.73-1.24,1.35-1.82.06,0-5.79,0-5.79Z"/><path class="cls-5" d="M99.76,65.85a1.79,1.79,0,0,1-2.11.21c0-.94,0-2,.1-2.79h1.79C99.61,64,99.7,65,99.76,65.85Z"/><path class="cls-9" d="M95.08,61.61c-.43-.77,3.18-5.48,3.37-5.65a7.5,7.5,0,0,1,2.73.58c.86.52.92,1.72,1,2.62a6.43,6.43,0,0,1-.63,3.29,4.11,4.11,0,0,1-2.69,1.4C96.39,63.91,95.67,63.31,95.08,61.61Z"/><path class="cls-16" d="M102,61.48h0L102,58h.4a1.72,1.72,0,0,1,1.52,1.9v0A1.73,1.73,0,0,1,102,61.48Z"/><path class="cls-16" d="M94.09,56.1a4.45,4.45,0,0,1,3.78-2.66h.07a4.85,4.85,0,0,1,3.9,1.12,6.26,6.26,0,0,1,1.44,4.22l-1-.55a4.11,4.11,0,0,0-1.13-3A4,4,0,0,0,98,54.36C95.78,54.56,93.86,56.62,94.09,56.1Z"/><ellipse class="cls-16" cx="99.48" cy="63" rx="0.61" ry="0.49"/><path class="cls-16" d="M100.72,63.47a3.18,3.18,0,0,1-.91-.13l.13-.41a2.56,2.56,0,0,0,1.85-.17,2,2,0,0,0,.81-1.55l.42.06a2.19,2.19,0,0,1-2.3,2.2Z"/><path class="cls-9" d="M96.57,95c-6.38.2-15.35-1.71-25.55,0s-20,5.36-25.39,18-18.71,40.88-18.71,40.88l1.06.78s32.09-35.31,35-43.35c0,0,21.91,10.42,33.38,9.94,17.74-.74,18.16-21,10-28.24C106.39,93,100.29,94.88,96.57,95Z"/><path class="cls-17" d="M76.55,94.38s5.08,24.35,4.81,26.9c0,0,9,1.41,13.21,1.61,6.4.31,13.12-3.14,15.39-6.58,2.17-3.28,5.52-16.22-3.57-23.27,0,0-17.83,1.59-21.37,0Z"/><path class="cls-11" d="M74.59,96.12s-3.08.27-4-.64C69,94,68.27,92,68.68,91.63s3.15,1.17,3.53,1.63,2.75.66,3.55,1.54C76.05,95.13,75.63,95.89,74.59,96.12Z"/><path class="cls-11" d="M110,100.05c-10.3,7.9-36.45-4.76-36.45-4.76A26.68,26.68,0,0,1,89,91.78c3.55.25,16.7,2.45,16.7,2.45s.12-21.34,3.43-23.4c2.49-1.54,4-.66,5.38.77C118.6,75.81,115.11,96.16,110,100.05Z"/><path class="cls-12" d="M98.13,99.69c2.89.11,10.75,1.12,13.16-5.31,1.9-5.09,1.69-18.61,1.52-24.06a4.91,4.91,0,0,1,.9.58,6.14,6.14,0,0,1,.47.42l.29.28h0l.18.2,0,.07.12.15.06.09.09.15a.41.41,0,0,1,.07.11,1,1,0,0,1,.08.14l.07.13.07.15.06.13.07.16.06.15.06.16.06.16s0,.09,0,.14.09.29.13.44a.19.19,0,0,1,0,.08,1.82,1.82,0,0,1,.07.25s0,.07,0,.1l.06.27s0,.07,0,.1a2.74,2.74,0,0,1,0,.28.36.36,0,0,1,0,.1c0,.1,0,.2,0,.3v.07c0,.12,0,.23,0,.35h0c1,7.54-2.06,20.93-6.07,24-10.3,7.9-36.45-4.76-36.45-4.76s.39-.26,1.12-.64C85,97,96.56,99.64,98.13,99.69Z"/><path class="cls-18" d="M59.13,95.52,55.72,81a3.26,3.26,0,0,1,3.17-4H83.31a3.26,3.26,0,0,1,3.1,4.24L83.5,95.52Z"/><path class="cls-19" d="M59.13,95.52l.35,1.11a3.15,3.15,0,0,0,3,2.22H92.82a3,3,0,0,0,2.86-2.18l.38-1.42-14.24.27Z"/><path class="cls-20" d="M72,86.24a1.86,1.86,0,1,1-1.86-1.85A1.85,1.85,0,0,1,72,86.24Z"/><path class="cls-11" d="M57.94,91.3s-.72-1.68-.41-2.13.74,1.41,1.17,1.77,2.64,2.11,2.67,2.75-1.07.14-1.07.14,1.17.91.79,1.13A1.82,1.82,0,0,1,58.68,94,4.84,4.84,0,0,1,57.94,91.3Z"/><path class="cls-13" d="M109.09,70.83c2.49-1.54,4-.66,5.38.77,1.83,1.87,2.16,6.92,1.52,12.3l-9.7-2.42C106.77,76.5,107.62,71.75,109.09,70.83Z"/><path class="cls-12" d="M115.57,73.55h0l0-.09Z"/><path class="cls-12" d="M115.12,72.51l.06.11-.06-.11Z"/><polygon class="cls-12" points="115.61 73.69 115.61 73.69 115.61 73.69 115.61 73.69"/><path class="cls-12" d="M116.29,79.29v0Z"/><path class="cls-12" d="M114.65,71.8l0,0s0,0,0,0Z"/><path class="cls-12" d="M114.82,72a.35.35,0,0,0,.05.08.35.35,0,0,1-.05-.08Z"/><polygon class="cls-12" points="114.47 71.6 114.47 71.6 114.47 71.6 114.47 71.6 114.47 71.6"/><path class="cls-12" d="M116.06,75.68l0,.21,0-.21Z"/><polygon class="cls-12" points="116.11 76.05 116.11 76.05 116.11 76.04 116.11 76.05"/><path class="cls-12" d="M116.19,76.8a.38.38,0,0,0,0-.1A.38.38,0,0,1,116.19,76.8Z"/><path class="cls-12" d="M116.05,75.61h0a.43.43,0,0,0,0-.11A.43.43,0,0,1,116.05,75.61Z"/><path class="cls-12" d="M115.93,74.93a.43.43,0,0,1,0,.11.43.43,0,0,0,0-.11Z"/><path class="cls-12" d="M116.28,78.43v0Z"/><path class="cls-12" d="M115.76,74.21a1.82,1.82,0,0,1,.07.25h0a1.82,1.82,0,0,0-.07-.25Z"/><path class="cls-12" d="M116.25,77.6s0-.11,0-.17S116.25,77.55,116.25,77.6Z"/><path class="cls-12" d="M116,83.79c0-.25.06-.49.08-.73C116.06,83.3,116,83.54,116,83.79Z"/><path class="cls-12" d="M116.19,81.87c0-.14,0-.27,0-.4C116.21,81.6,116.2,81.73,116.19,81.87Z"/><path class="cls-12" d="M116.11,82.82c0-.21,0-.41,0-.61C116.14,82.41,116.13,82.61,116.11,82.82Z"/><path class="cls-12" d="M116.24,81c0-.13,0-.25,0-.37C116.26,80.7,116.25,80.82,116.24,81Z"/><polygon class="cls-12" points="114.18 71.32 114.18 71.32 114.18 71.32 114.18 71.32"/><path class="cls-12" d="M113.29,70.6l-.05,0Z"/><path class="cls-12" d="M116.28,80.15v0Z"/><path class="cls-14" d="M116.28,78.22l0-.62Z"/><path class="cls-14" d="M116,83.9h0v-.11S116,83.86,116,83.9Z"/><path class="cls-14" d="M116.21,81.47a4.67,4.67,0,0,0,0-.52A4.67,4.67,0,0,1,116.21,81.47Z"/><path class="cls-14" d="M116.26,80.58c0-.14,0-.28,0-.43C116.27,80.3,116.27,80.44,116.26,80.58Z"/><path class="cls-14" d="M116.08,83.06l0-.24Z"/><path class="cls-14" d="M116.28,79.75c0-.15,0-.31,0-.46C116.29,79.44,116.29,79.6,116.28,79.75Z"/><path class="cls-14" d="M116.16,82.21l0-.34Z"/><path class="cls-14" d="M116.29,79c0-.2,0-.41,0-.61C116.29,78.63,116.29,78.84,116.29,79Z"/><path class="cls-14" d="M115.45,73.23l-.06-.15-.07-.16-.06-.13-.07-.15v0a7.31,7.31,0,0,1,.36.84l0-.07Z"/><path class="cls-14" d="M115.61,73.69a4.44,4.44,0,0,1,.15.52.19.19,0,0,0,0-.08C115.7,74,115.66,73.83,115.61,73.69Z"/><path class="cls-14" d="M115,72.26l-.09-.15h0c.09.13.17.27.25.41a1,1,0,0,0-.08-.14A.41.41,0,0,0,115,72.26Z"/><path class="cls-14" d="M116.09,75.89a.77.77,0,0,1,0,.15h0S116.1,75.93,116.09,75.89Z"/><path class="cls-14" d="M114.67,71.83l.15.19-.12-.15Z"/><path class="cls-14" d="M115.85,74.56s0-.07,0-.1c0,.15.07.31.1.47,0,0,0-.07,0-.1Z"/><path class="cls-14" d="M116,75.21l0-.17c0,.15.06.3.08.46l0-.19A.36.36,0,0,0,116,75.21Z"/><path class="cls-14" d="M114.65,71.8l-.18-.2Z"/><path class="cls-14" d="M116.06,75.68v0Z"/><path class="cls-14" d="M116.18,76.7c0-.22,0-.44-.07-.65C116.14,76.26,116.16,76.48,116.18,76.7Z"/><path class="cls-14" d="M115.61,73.69s0-.1,0-.14S115.6,73.64,115.61,73.69Z"/><path class="cls-14" d="M114.47,71.6l-.29-.28Z"/><path class="cls-14" d="M116.24,77.43c0-.21,0-.42,0-.63C116.21,77,116.23,77.22,116.24,77.43Z"/><path class="cls-14" d="M113.29,70.6a6,6,0,0,1,.89.72,6.14,6.14,0,0,0-.47-.42Q113.5,70.74,113.29,70.6Z"/><path class="cls-15" d="M112.49,70.31a4,4,0,0,0-.48.08H112l-.47.13-.56.22h0l-.35.16h0a.94.94,0,0,0-.22.12l0,0,0,0a.71.71,0,0,1-.14.1l-.07,0h0l-.13.1-.09.08-.12.11-.08.07v0a.57.57,0,0,0-.11.11.94.94,0,0,0-.1.1l-.11.12-.09.11-.1.13,0,.06,0,.07a.44.44,0,0,0-.08.11h0a3.27,3.27,0,0,0-.25.36l0,.06-.13.21,0,.09c0,.07-.09.14-.13.22l0,.08,0,.1a1,1,0,0,1-.08.14.2.2,0,0,1,0,.08l-.08.17a.93.93,0,0,0,0,.1l0,.06a.89.89,0,0,0-.08.17l-.06.13h0c-.08.19-.17.38-.25.58l0,.08c-.08.19-.15.37-.22.56l-.06.15c-.07.18-.13.37-.2.56l-.06.19-.18.56c0,.07,0,.14-.07.22l-.12.43c0,.12-.07.24-.1.36s-.07.27-.11.4-.06.23-.08.34l-.12.49-.09.37A3,3,0,0,1,106,80c0,.19-.08.39-.11.58s0,.15,0,.22c0,.24-.09.47-.13.7l0,.11,3.22.37C110.12,77.45,111.61,72.88,112.49,70.31Z"/><path class="cls-14" d="M70.9,52S63.66,46,57.73,46.61,34.8,65.6,14.5,53.18-4.12,14,15.41,3.84C33-5.31,51.84,1.67,61,27.09,64.2,36.17,70.9,52,70.9,52Z"/><polygon class="cls-4" points="38.53 19.01 17.91 16.02 16.77 9.9 41.66 12.04 38.53 19.01"/><path class="cls-9" d="M21.38,15.84c2.25-3.34,9.84-2.37,11.17-1.5S34.06,17.4,34.13,19s-1,8.28-5.94,9.21C18.79,29.93,21.38,15.84,21.38,15.84Z"/><path class="cls-8" d="M34.66,19.87c-.08-1.58-.3-4.77-1.68-5.67s-9.7-2-12.14,1.63a26.87,26.87,0,0,0-.31,2.82A47.13,47.13,0,0,1,34.66,19.87Z"/><path class="cls-4" d="M32.71,27s6,4.22,8.61,8.58S43.93,43,43.93,43s-15.6,7.67-31.1.78c0,0,2.16-12.48,8.09-16.83a7.74,7.74,0,0,0,5.8,2.66A7.47,7.47,0,0,0,32.71,27Z"/><path class="cls-18" d="M48.05,40.69a9.5,9.5,0,1,1-9.49-9.5A9.49,9.49,0,0,1,48.05,40.69Z"/><polyline class="cls-21" points="35.34 43.36 37.48 45.52 42.28 36.15"/><path class="cls-22" d="M123.66,69.5s5.13-3.39,9-2.61,13.7,13.94,27.79,7.2,14.8-24.36,2.73-32.29c-10.89-7.16-23.65-3.86-31.31,12.12C129.1,59.64,123.66,69.5,123.66,69.5Z"/><path class="cls-10" d="M161.55,58a9.55,9.55,0,1,1-9.48-9.37A9.43,9.43,0,0,1,161.55,58Z"/><path class="cls-6" d="M159.87,58a9,9,0,1,1-9-9.37A9.16,9.16,0,0,1,159.87,58Z"/><path class="cls-23" d="M150.59,63.7h0a4.05,4.05,0,0,1-4-4.08v-.53l8.11,0v.54A4.05,4.05,0,0,1,150.59,63.7Z"/><path class="cls-4" d="M147.11,55.52a.79.79,0,0,1-.81.77.78.78,0,1,1,.81-.77Z"/><path class="cls-4" d="M156.07,55.58a.81.81,0,0,1-.81.78.79.79,0,0,1-.79-.79.78.78,0,0,1,.8-.77A.79.79,0,0,1,156.07,55.58Z"/></g></g></g></svg>