<?xml version="1.0" encoding="utf-8"?>
<!-- Generator: Adobe Illustrator 23.0.3, SVG Export Plug-In . SVG Version: 6.00 Build 0)  -->
<svg version="1.1" id="Capa_1" xmlns="http://www.w3.org/2000/svg" xmlns:xlink="http://www.w3.org/1999/xlink" x="0px" y="0px"
	 viewBox="0 0 121.8 153.6" style="enable-background:new 0 0 121.8 153.6;" xml:space="preserve">
<style type="text/css">
	.st0{fill:#43225D;}
	.st1{fill:#E6E6E6;}
	.st2{fill:#406EB3;}
	.st3{fill:#82CBEA;}
	.st4{opacity:0.36;}
	.st5{fill:#B3B3B3;}
	.st6{fill:#FFFFFF;}
	.st7{fill:#9BCBE9;}
	.st8{fill:#3E275C;}
	.st9{fill:#CCCCCC;}
	.st10{fill:#FF97A8;}
	.st11{fill:#FF5D7B;}
	.st12{fill:#331239;}
	.st13{fill:#380A37;}
	.st14{fill:#BFEAF5;}
	.st15{fill:#AF99CC;}
</style>
<title>home_02</title>
<g>
	<g>
		<g id="Assets">
			<path class="st0" d="M7,0h63.8c3.3,0,6,2.7,6,6v125.6c0,3.3-2.7,6-6,6H7c-3.3,0-6-2.7-6-6V6C1,2.7,3.7,0,7,0z"/>
			<rect x="7.1" y="13.7" class="st1" width="63.6" height="102"/>
			<rect x="29.3" y="6.6" class="st2" width="18.2" height="1.8"/>
			<path class="st3" d="M1,28.4L1,28.4c-0.6,0-1-0.4-1-1v-8.8c0-0.6,0.4-1,1-1l0,0V28.4z"/>
			<path class="st3" d="M1,41L1,41c-0.6,0-1-0.4-1-1v-8.8c0-0.6,0.4-1,1-1l0,0V41z"/>
			<path class="st2" d="M46.8,130.1H32.9c-2.1,0-3.8-1.7-3.8-3.8l0,0c0-2.1,1.7-3.8,3.8-3.8h13.9c2.1,0,3.8,1.7,3.8,3.8l0,0
				C50.6,128.4,48.9,130.1,46.8,130.1z"/>
			<path class="st2" d="M65.4,6.6c0,1.1-0.9,1.9-1.9,1.9c-1.1,0-1.9-0.9-1.9-1.9s0.9-1.9,1.9-1.9c0,0,0,0,0,0
				C64.6,4.6,65.5,5.5,65.4,6.6C65.5,6.5,65.5,6.5,65.4,6.6z"/>
			<circle class="st2" cx="67.8" cy="6.7" r="1"/>
			<g class="st4">
				<path class="st5" d="M70.1,137.9H39.9L39.5,0.3h30.6c3.7,0,6.8,3,6.8,6.8v124.2C76.9,134.9,73.8,137.9,70.1,137.9L70.1,137.9z"
					/>
			</g>
			
				<rect x="10.7" y="18.7" transform="matrix(1 -9.424639e-03 9.424639e-03 1 -0.2498 0.3659)" class="st6" width="55.9" height="16"/>
			
				<rect x="13.8" y="21.2" transform="matrix(1 -9.424639e-03 9.424639e-03 1 -0.2506 0.1985)" class="st7" width="14.3" height="10.9"/>
			
				<rect x="31.8" y="21.7" transform="matrix(1 -9.424639e-03 9.424639e-03 1 -0.2171 0.4425)" class="st8" width="30" height="3.1"/>
			
				<rect x="31.8" y="28.4" transform="matrix(1 -9.424639e-03 9.424639e-03 1 -0.2803 0.3883)" class="st7" width="18.6" height="3"/>
			
				<rect x="10.7" y="38.4" transform="matrix(1 -9.424639e-03 9.424639e-03 1 -0.4357 0.3668)" class="st6" width="55.9" height="16"/>
			
				<rect x="13.8" y="41" transform="matrix(1 -9.424639e-03 9.424639e-03 1 -0.4366 0.1993)" class="st7" width="14.3" height="10.9"/>
			
				<rect x="31.9" y="41.4" transform="matrix(1 -9.424639e-03 9.424639e-03 1 -0.4031 0.4434)" class="st8" width="30" height="3.1"/>
			
				<rect x="31.8" y="48.2" transform="matrix(1 -9.424639e-03 9.424639e-03 1 -0.4661 0.3891)" class="st7" width="18.6" height="3"/>
			
				<rect x="10.7" y="58.1" transform="matrix(1 -9.424639e-03 9.424639e-03 1 -0.6215 0.3677)" class="st6" width="55.9" height="16"/>
			
				<rect x="13.8" y="60.7" transform="matrix(1 -9.424639e-03 9.424639e-03 1 -0.6224 0.2002)" class="st7" width="14.3" height="10.9"/>
			
				<rect x="31.8" y="61.2" transform="matrix(1 -9.424639e-03 9.424639e-03 1 -0.5889 0.4443)" class="st8" width="30" height="3.1"/>
			<rect x="31.8" y="67.9" transform="matrix(1 -9.424639e-03 9.424639e-03 1 -0.6521 0.39)" class="st7" width="18.6" height="3"/>
			
				<rect x="10.7" y="77.8" transform="matrix(1 -9.424639e-03 9.424639e-03 1 -0.8074 0.3685)" class="st6" width="55.9" height="16"/>
			
				<rect x="13.8" y="80.4" transform="matrix(1 -9.424639e-03 9.424639e-03 1 -0.8083 0.2011)" class="st7" width="14.3" height="10.9"/>
			
				<rect x="31.9" y="80.9" transform="matrix(0.9999 -9.999500e-03 9.999500e-03 0.9999 -0.8217 0.473)" class="st8" width="30" height="3.1"/>
			
				<rect x="31.8" y="87.6" transform="matrix(1 -9.424639e-03 9.424639e-03 1 -0.8379 0.3909)" class="st7" width="18.6" height="3"/>
			
				<rect x="10.7" y="97.6" transform="matrix(1 -9.424639e-03 9.424639e-03 1 -0.9933 0.3694)" class="st6" width="55.9" height="16"/>
			
				<rect x="13.8" y="100.1" transform="matrix(1 -9.424639e-03 9.424639e-03 1 -0.9941 0.2019)" class="st7" width="14.3" height="10.9"/>
			
				<rect x="31.8" y="100.6" transform="matrix(1 -9.424639e-03 9.424639e-03 1 -0.9607 0.4459)" class="st8" width="30" height="3.1"/>
			
				<rect x="31.8" y="107.3" transform="matrix(1 -9.424639e-03 9.424639e-03 1 -1.0237 0.3917)" class="st7" width="18.6" height="3"/>
			<path class="st9" d="M94.1,146.6c-15.3,0-27.7,1.6-27.7,3.5s12.4,3.5,27.7,3.5s27.7-1.6,27.7-3.5S109.4,146.6,94.1,146.6z"/>
			<path class="st10" d="M54.1,35.9c-0.7-0.8-0.6-2.2,0.3-2.2c0.3,0.1,0.6,0.2,0.9,0.3l0.5,0.2c0,0-0.7-0.5-0.5-0.7s0.6,0.1,0.9,0.3
				s1.9,1.4,1.8,2.7c0.1-0.1-0.2,0.3-0.3,0.3C56.4,37.1,55.1,36.7,54.1,35.9z"/>
			<path class="st10" d="M52.9,33.4c0,0-0.6,0.1,0.9,0.8l1.7-0.1C54.7,33.8,53.8,33.5,52.9,33.4z"/>
			<path class="st10" d="M94.4,49.8c0,0-0.6,3-0.3,3.4c0.4,0.5,1.1,0.6,1.5,0.2c0.1-0.1,0.1-0.1,0.2-0.2c0.5-0.8,0-3.4,0-3.4
				L94.4,49.8z"/>
			<path class="st11" d="M94.1,52c0.6,0.3,1.3,0.4,2,0.1c0-0.6,0-1.1-0.1-1.7h-1.7C94.3,50.9,94.2,51.5,94.1,52z"/>
			<path class="st10" d="M97.6,50.5c0.5-0.8,0.9-1.7,1.1-2.6c0.3-0.9-0.2-1.8-1.1-2.1c0,0,0,0,0,0c-1.1-0.4-2.3-0.6-3.4-0.7
				c-0.8,0.2-1.1,1.1-1.4,1.8c-0.3,0.8-0.5,1.8-0.3,2.7c0.3,0.8,0.9,1.4,1.7,1.7C96,51.9,96.7,51.7,97.6,50.5z"/>
			<path class="st0" d="M100.9,148.4c0-1.4,2.1-1.2,3.4-1.6c-0.4,0.3-0.8,0.6-0.2,0.8c0.9,0.3,3,0.1,3.6-0.6
				c0.2,0.5,0.3,1.1,0.2,1.7C107.9,149.3,100.9,149.6,100.9,148.4z"/>
			<path class="st12" d="M104.1,147.6c-0.6-0.2-0.2-0.6,0.2-0.8c0.8-0.2,1.6-0.4,1.7-0.5c0.2-0.1,0.4-0.3,0.5-0.6l0.4-0.1
				c0,0,0.7,1.1,0.7,1.3C107.1,147.7,105.1,147.9,104.1,147.6z"/>
			<path class="st0" d="M79.6,149.1c-0.1-1.4,2.1-1.2,3.4-1.6c-0.4,0.3-0.8,0.6-0.2,0.8c0.9,0.3,3,0.1,3.6-0.6
				c0.2,0.5,0.3,1.1,0.2,1.7C86.6,150,79.7,150.3,79.6,149.1z"/>
			<path class="st12" d="M82.8,148.3c-0.6-0.2-0.2-0.6,0.2-0.8c0.8-0.2,1.6-0.4,1.7-0.5c0.2-0.1,0.4-0.3,0.5-0.6l0.4-0.1
				c0,0,0.7,1.1,0.7,1.3C85.8,148.3,83.8,148.6,82.8,148.3z"/>
			<path class="st0" d="M102.7,71.1c0,0.2,4.6,4.9,5.8,10.2c2.6,11.7-0.1,57-0.5,63.8c0,0.5-0.5,0.9-1,0.9h-0.8
				c-0.4,0-0.7-0.3-0.8-0.6l-9.8-57l-2.2,17.2l-7.1,40.9l-1.5,0.1c0,0-1.6-34.3-2.4-42.8c-2-22.4,3.6-31.4,4.1-32.8
				C88.3,72,99.3,72.7,102.7,71.1z"/>
			<path class="st13" d="M102.7,71.1c0,0.2,4.6,4.9,5.8,10.2c2.6,11.7-0.1,57-0.5,63.8c0,0.5-0.5,0.9-1,0.9h-0.8
				c-0.4,0-0.7-0.3-0.8-0.6l-9.8-57c0.5-3,0.8-5.9,1-8.9c0.1-2.5-0.2-5-0.8-7.5h0.5C98.5,72.1,100.7,71.8,102.7,71.1z"/>
			<path class="st14" d="M58,36c0.3-0.3,18.4,9.3,19.6,10.5s4.4,4.4,4.4,4.4s-11-1.2-15.2-2.6C60.7,46.2,51.4,42.8,58,36z"/>
			<path class="st14" d="M73.2,44.1c0,0,14.4,8.8,15.9,8.2c3.1-1.2,12,0.3,13.1,0.3c5.2-0.3,3.9,6.1,3.9,6.1s-1.2,3.6-1.5,5.2
				c-0.5,2.6-1.4,5.8-1.8,7.2c-4.1,2-14.5,0.9-16.4,0.5c0.1-2.1,0-4.2-0.2-6.2c-0.3-2.6-1.2-8.8-1.7-9.3c-3-3.5-13.8-7-13.8-7
				L73.2,44.1z"/>
			<path class="st3" d="M95.3,53h0.4c3-0.2,5.9-0.4,6.5-0.5c5.2-0.2,16.3,8,16.3,8l-0.3,4.5c0,0.1-12.2-6.3-12.2-6.3
				s-1.3,3.6-1.6,5.2c-0.5,2.6-1.4,5.8-1.8,7.2c-2.1,0.8-4.2,1.2-6.4,1.1h-0.4c1.3-4.2,1.7-8.7,1.3-13.1C97,57,96.4,54.9,95.3,53z"
				/>
			<path class="st0" d="M97.8,43.6c-0.3-0.4-0.9-1.7-1.4-2.7c-0.4-0.8-1.9-1.4-2.3-0.6c-0.5-0.8-1.3-2.1-2.3-1.1
				c-0.6,1-0.7,2.2-0.2,3.2c-0.5,0.4-0.4,1.4-0.1,2c1.1,1.6,2.9,1.4,4,2.3c0.3,0.9,0.5,1.8,0.7,2.7c0,0.2,0.1,0.4,0.1,0.6
				c0,0.2,0,0.4,0,0.6c0.1,0.4,0.5,0.8,1,0.8c1-0.2,1.8-0.8,2.4-1.6c0.7-1.2,1.3-2,1.3-3.2S99,43.4,97.8,43.6z"/>
			<path class="st15" d="M93.8,45.8c-0.4,0-0.9-0.1-1.3-0.3c-0.4-0.2-0.8-0.4-1.1-0.8c-0.3-0.4-0.5-0.8-0.6-1.3c0-0.2,0-0.5,0-0.7
				c0-0.3,0.2-0.6,0.5-0.8l-0.2,0.5c-0.2-0.5-0.3-0.9-0.4-1.4c0-0.5,0-1,0.3-1.5c0.1-0.2,0.2-0.4,0.4-0.6c0.2-0.2,0.4-0.4,0.7-0.4
				c0.5,0,1,0.3,1.2,0.8c-0.3-0.3-0.8-0.6-1.1-0.4C92.2,39,92,39.1,92,39.3c-0.1,0.2-0.2,0.3-0.3,0.5c-0.2,0.8-0.1,1.6,0.2,2.4
				l0.1,0.2c0,0.1,0,0.3-0.1,0.3c0,0-0.1,0-0.1,0c0,0-0.1,0.1-0.1,0.3c0,0.2,0,0.4,0,0.5c0,0.4,0.1,0.7,0.3,1
				C92.4,45.1,93.1,45.5,93.8,45.8z"/>
			<path class="st10" d="M108.5,74.6c0.2,0.1,0.3,0.3,0.3,0.5c-0.1,0.5-0.4,1.1-0.6,2.1c-0.1,0.5-0.3,0.9-0.4,1.4
				c-0.5-0.6-0.8-1.3-1.1-2c-0.1-0.1-0.2-0.7-0.5-0.7c-1.7-0.5-1.5-0.9-1.5-1c0.1-0.3,1.6,0.5,2.1,0.3c0.3-0.2,0.5-0.5,0.7-0.7
				C107.6,74.3,108.1,74.4,108.5,74.6z"/>
			<path class="st3" d="M107.3,74.3c-0.3-0.4,2.6-4.7,2.8-5.1c1.5-2.9,3.2-6.2,4.4-7.4c1-1,3.9-3.1,4.7,0.1c0.1,0.3-0.4,1.8-1.5,5.6
				C115.8,73.8,111.8,81.2,107.3,74.3z"/>
		</g>
	</g>
</g>
</svg>
