<?xml version="1.0" encoding="utf-8"?>
<!-- Generator: Adobe Illustrator 23.0.6, SVG Export Plug-In . SVG Version: 6.00 Build 0)  -->
<svg version="1.1" xmlns="http://www.w3.org/2000/svg" xmlns:xlink="http://www.w3.org/1999/xlink" x="0px" y="0px"
	 viewBox="0 0 27.1 27.1" style="enable-background:new 0 0 27.1 27.1;" xml:space="preserve">
<style type="text/css">
	.st0{fill:none;}
	.st1{fill:#6E69C5;}
	.st2{fill:#6C67C4;}
	.st3{fill:#FFFFFF;}
	.st4{fill:#E0ECF6;}
	.st5{fill:#8DBBDD;}
	.st6{fill:none;stroke:#3184C1;stroke-width:1.0646;stroke-linecap:round;stroke-linejoin:round;stroke-miterlimit:10;}
	.st7{fill:#A1C7E3;}
	.st8{fill:none;stroke:#8DBBDD;stroke-width:1.0646;stroke-linecap:round;stroke-linejoin:round;stroke-miterlimit:10;}
	.st9{fill:#3184C1;}
	.st10{fill:none;stroke:#0D6EB6;stroke-width:0.957;stroke-linecap:round;stroke-linejoin:round;stroke-miterlimit:10;}
	.st11{fill:none;stroke:#8DBBDD;stroke-width:0.947;stroke-linecap:round;stroke-linejoin:round;stroke-miterlimit:10;}
	.st12{fill:none;stroke:#0D6EB6;stroke-width:0.7385;stroke-linecap:round;stroke-linejoin:round;stroke-miterlimit:10;}
	.st13{fill:#26478D;}
	.st14{fill:#D5EAF5;}
	.st15{fill:#C9E0F2;}
	.st16{fill:#E0E0E0;}
	.st17{fill:#30193B;}
	.st18{fill:#3B2B5B;}
	.st19{fill:#7F65C1;}
	.st20{fill:#BFEAF5;}
	.st21{fill:#82CBEA;}
	.st22{fill:#FF97A6;}
	.st23{fill:#C95D77;}
	.st24{fill:#FFCB48;}
	.st25{fill:#FF9A2E;}
	.st26{display:none;}
	.st27{display:inline;}
	.st28{opacity:0.2;fill:#00FF00;}
	.st29{opacity:0.2;fill:#0000FF;}
</style>
<g id="Capa_1">
</g>
<g id="Fondo">
</g>
<g id="Contenido">
	<g>
		<rect class="st0" width="27.1" height="27.1"/>
		<g>
			<path class="st13" d="M14.2,13.2c0,0-0.1-0.1-0.1-0.1c-0.1-0.1-0.2-0.2-0.3-0.3c0,0,0,0,0,0c0,0,0,0,0,0
				c-0.1-0.1-0.3-0.1-0.5-0.1c0,0,0,0,0,0c-0.2,0-0.4,0-0.5,0c-0.7,0.2-1.2,1-0.9,1.7c0.7,2.4,3.3,4.7,5.8,6.6
				c0.1,0,0.1,0.1,0.1,0.2c0,0.1,0,0.2-0.1,0.2c0,0,0,0,0,0c0,0-0.1,0.1-0.1,0.1c0,0,0,0,0,0c-0.1,0-0.1,0-0.2-0.1
				c-2.5-2-5.2-4.3-6-6.9c0-0.1,0-0.3-0.1-0.4c0,0,0,0,0-0.1c0-0.1,0-0.2,0-0.3c0,0,0,0,0-0.1c0-0.1,0-0.2,0.1-0.3c0,0,0,0,0,0
				c0-0.1,0.1-0.2,0.1-0.3c0,0,0,0,0-0.1c0.1-0.1,0.1-0.2,0.2-0.2c0,0,0.1-0.1,0.1-0.1c0.1-0.1,0.1-0.1,0.2-0.2c0,0,0.1-0.1,0.1-0.1
				c0.1,0,0.1-0.1,0.2-0.1c0.1,0,0.1-0.1,0.2-0.1c0.1,0,0.1,0,0.2-0.1c0.2-0.1,0.4-0.1,0.6-0.1c0,0,0,0,0,0c0.8,0,1.6,0.5,1.9,1.3
				c0,0,0,0,0,0c0,0.1,0.1,0.2,0.1,0.3c0,0,0,0,0,0.1c0,0.1,0.1,0.2,0.1,0.3c0,0.1,0.1,0.1,0.1,0.2c0,0.1,0.1,0.1,0.1,0.2
				c0.4,0.5,0.9,1.1,1.4,1.6c0,0,0.1,0.1,0.1,0.1c0,0,0,0,0.1,0.1c0.9,0.9,1.9,1.7,2.5,2.1c0.1,0,0.1,0.1,0.1,0.2c0,0,0,0,0,0
				c0,0,0,0,0,0c0,0.1,0,0.1-0.1,0.2c-0.1,0.1-0.3,0.1-0.4,0c-2.1-1.7-4.4-3.6-4.8-5.2c0,0,0,0,0-0.1C14.4,13.4,14.3,13.3,14.2,13.2
				z"/>
			<path class="st13" d="M11.8,9.4c-0.2,0.1-0.4,0.1-0.5,0.2c-0.1,0-0.2,0.1-0.3,0.1c-0.2,0.1-0.4,0.2-0.5,0.3
				c-0.1,0.1-0.2,0.1-0.2,0.2c-0.2,0.1-0.3,0.3-0.5,0.5c-0.1,0.1-0.1,0.1-0.2,0.2c-0.2,0.2-0.3,0.4-0.4,0.6c0,0-0.1,0.1-0.1,0.1
				c-0.1,0.2-0.2,0.5-0.3,0.7c0,0,0,0.1-0.1,0.1c-0.1,0.3-0.1,0.5-0.2,0.8c0,0,0,0.1,0,0.1c0,0.3,0,0.6,0,0.8c0,0,0,0.1,0,0.1
				c0,0.3,0.1,0.6,0.2,0.9c0,0,0,0,0,0.1c0,0,0,0,0,0c0,0,0,0,0,0c0.1,0.3,0.1,0.6,0.2,0.8C9,17.9,8,19,6.9,19.3c0,0,0,0,0,0
				c0,0-0.1,0-0.1,0c0,0-0.1,0-0.1,0c0,0,0-0.1-0.1-0.1c0,0,0-0.1,0-0.1c0,0,0-0.1,0-0.1c0,0,0,0,0,0c0-0.1,0.1-0.1,0.2-0.1
				c0.5-0.2,2-0.8,1.3-3.3c-0.5-1.6-0.1-3.2,0.7-4.5c0-0.1,0.1-0.1,0.1-0.2C9,10.7,9,10.6,9.1,10.6c0.7-0.8,1.5-1.4,2.6-1.7
				c0.5-0.1,1-0.2,1.4-0.2c1.7,0,3.3,0.8,4.3,2.2c0.3,0.4,0.6,1,0.8,1.5c0,0,0,0,0,0.1c0,0,0.1,0.1,0.1,0.1c0.4,0.4,1.7,1.4,2.5,2
				c0.1,0.1,0.1,0.1,0.1,0.2c0,0.1,0,0.2-0.1,0.2c-0.1,0.1-0.3,0.1-0.4,0c-2.7-2.2-2.8-2.3-2.8-2.4c0,0,0,0,0-0.1
				C16.9,10.1,14.3,8.7,11.8,9.4C11.8,9.4,11.8,9.4,11.8,9.4C11.8,9.4,11.8,9.4,11.8,9.4z"/>
			<path class="st13" d="M8.6,20.1c0.1,0,0.2-0.1,0.2-0.1C8.9,20,8.9,20,9,19.9c1.1-0.6,1.3-1.9,0.6-5c-0.5-1.9,0.6-3.9,2.5-4.5
				c0.2,0,0.3-0.1,0.5-0.1s0.3,0,0.5,0c1.6,0,3,1,3.5,2.6c0,0,0,0,0,0.1v0c0,0,0,0,0,0c0.1,0.5,0.7,1.3,3.8,3.7c0,0,0,0.1,0,0.1
				c0.1,0.1,0.1,0.2,0,0.3c-0.1,0.1-0.3,0.1-0.4,0c-3.4-2.7-3.8-3.4-4-4c-0.2-0.6-0.5-1-0.9-1.4c-0.8-0.7-1.8-1-2.9-0.7
				c-1.6,0.5-2.5,2.2-2.1,3.8c0.8,3.8,0.3,5.4-2,6.1c-0.1,0-0.1,0-0.2,0c0,0-0.1,0-0.1,0c0,0,0-0.1-0.1-0.1c0,0,0-0.1,0-0.1
				c0,0,0-0.1,0-0.1c0,0,0,0,0-0.1c0-0.1,0.1-0.1,0.2-0.1C8.2,20.3,8.4,20.2,8.6,20.1z"/>
			<path class="st13" d="M6.7,15.4c0.1,0.1,0.1,0.1,0.1,0.2C6.8,16,7,16.4,7.1,16.7l0,0c0,0.1,0,0.1,0,0.2c0,0,0,0.1,0,0.1
				c0,0,0,0.1-0.1,0.1c0,0,0,0,0,0c0,0,0,0,0,0c0,0-0.1,0-0.1,0c0,0,0,0,0,0c0,0-0.1,0-0.1,0c0,0,0,0-0.1-0.1c0,0,0,0,0,0
				c-0.2-0.4-0.4-0.9-0.4-1.4c0,0,0,0,0,0c0-0.1,0-0.2,0.1-0.2c0.1-0.1,0.1-0.1,0.2-0.1C6.5,15.3,6.6,15.4,6.7,15.4z"/>
			<path class="st13" d="M12.1,3.7c0.2,0,0.4,0,0.6,0c0,0,0.1,0,0.1,0c0.1,0,0.3,0,0.4,0c1.3,0,2.5,0.2,3.7,0.7l0.2,0.1
				c0.1,0,0.2,0.1,0.3,0.1c0,0,0,0,0,0c0,0,0.1,0.1,0.1,0.1c0,0,0,0.1,0,0.1c0,0,0,0.1,0,0.1c0,0.1,0,0.1-0.1,0.2c0,0,0,0,0,0
				c-0.1,0.1-0.1,0.1-0.2,0.1c0,0-0.1,0-0.1,0C17,5,16.9,5,16.7,4.9c-0.3-0.1-0.6-0.2-1-0.3c-1-0.3-2-0.4-3-0.3c0,0,0,0,0,0
				c-2,0-2.5,0.2-3.1,0.6C9.4,4.9,9.3,5,9.1,5.1c0,0,0,0,0,0c-0.1,0-0.1,0-0.2,0C8.8,5,8.7,5,8.7,4.9c0-0.1,0-0.1,0-0.2
				c0-0.1,0.1-0.1,0.2-0.2C9,4.5,9.2,4.4,9.3,4.3C9.5,4.2,9.8,4.1,10,4C10.5,3.8,11.1,3.7,12.1,3.7z"/>
			<path class="st13" d="M17.4,19.3c-1.5-1.1-4-3-4.6-5.2c0-0.2,0-0.3,0.2-0.4c0,0,0,0,0.1,0c0,0,0.1,0,0.1,0c0,0,0.1,0,0.1,0
				c0.1,0,0.1,0.1,0.1,0.2c0.4,1.5,1.9,2.9,3.2,4c0.4,0.4,0.8,0.7,1.2,0.9c0,0,0,0,0,0c0.1,0.1,0.2,0.1,0.2,0.2
				c0.2,0.2,0.5,0.4,0.7,0.6c0.1,0.1,0.1,0.3,0,0.4c-0.1,0.1-0.3,0.1-0.4,0c0,0-0.1,0-0.1-0.1C18,19.7,17.7,19.5,17.4,19.3z"/>
			<path class="st13" d="M15.4,22.5c-0.1-0.1-0.3-0.3-0.4-0.5c-0.3-0.4-0.6-0.8-1-1c0,0-0.1,0-0.1,0c-0.1,0-0.2-0.1-0.4-0.1
				c-0.4,0-0.7,0.7-0.8,1.4c-0.1,0.3-0.1,0.6-0.1,0.9c0,0,0,0,0,0c0,0.1-0.1,0.3-0.3,0.3c-0.1,0-0.1,0-0.2-0.1
				C12,23.3,12,23.2,12,23.1c0,0,0,0,0,0c0-0.4,0.2-2.2,1.1-2.6c0.1-0.1,0.3-0.1,0.4-0.1c0.2,0,0.4,0.1,0.6,0.1
				c0.6,0.2,1.1,0.6,1.4,1.2c0,0,0,0,0,0c0.1,0.1,0.2,0.3,0.3,0.4c0.1,0.1,0.1,0.3,0,0.4c-0.1,0.1-0.1,0.1-0.2,0.1
				C15.6,22.6,15.5,22.5,15.4,22.5C15.5,22.5,15.4,22.5,15.4,22.5z"/>
			<path class="st13" d="M9.6,22.5C9.6,22.5,9.6,22.5,9.6,22.5c-0.1-0.1-0.1-0.1-0.1-0.2c0,0,0-0.1,0-0.1c0,0,0-0.1,0-0.1
				c0,0,0.1-0.1,0.1-0.1c0,0,0,0,0,0c0.3-0.1,0.5-0.3,0.8-0.6c0.7-0.8,1-2.3,0.7-3.2c0-0.1,0-0.3,0.2-0.4c0,0,0.1,0,0.1,0
				c0.1,0,0.2,0.1,0.3,0.2c0,0,0,0,0,0c0.2,0.5,0.1,1.3,0,2.1c-0.3,1.1-0.9,2.1-1.8,2.4C9.8,22.6,9.8,22.6,9.6,22.5
				C9.7,22.5,9.7,22.5,9.6,22.5z"/>
			<path class="st13" d="M13.1,7c2,0,3.3,0.6,4.3,1.5c0.8,0.7,1.4,1.6,1.8,2.3l0,0c0.1,0.1,0.2,0.3,0.2,0.4c0,0,0.1,0.1,0.1,0.1
				c0.1,0.1,0.2,0.2,0.2,0.3c0,0,0.1,0.1,0.1,0.1c0.2,0.3,0.5,0.5,0.8,0.6c0,0,0,0,0,0c0,0,0,0,0.1,0.1c0,0,0.1,0.1,0.1,0.1
				c0,0,0,0.1,0,0.1c0,0,0,0.1,0,0.1c0,0.2-0.2,0.2-0.4,0.2c-0.8-0.2-1.2-1-1.8-1.9c-0.3-0.6-0.7-1.1-1.2-1.7c0,0-0.1-0.1-0.1-0.1
				c-0.1-0.1-0.1-0.1-0.2-0.2c-0.9-0.9-2.1-1.5-4.1-1.5c-3.5,0-6.4,2.9-6.4,6.4c0,0.2-0.1,0.3-0.3,0.3c-0.2,0-0.3-0.1-0.3-0.3
				C6.2,10.1,9.3,7,13.1,7z"/>
			<path class="st13" d="M6.6,8c0.1-0.1,0.2-0.2,0.3-0.4c0.7-0.9,2.6-2.3,5.8-2.3c1.6,0,2.9,0.4,4,0.8c0.1,0,0.2,0.1,0.3,0.1
				c0,0,0.1,0,0.1,0.1c1.1,0.5,1.8,1.2,2,1.6c0,0.1,0.1,0.1,0,0.2c0,0.1-0.1,0.1-0.1,0.2c-0.1,0-0.1,0-0.2,0c0,0,0,0,0,0
				c-0.1,0-0.1-0.1-0.2-0.1c0,0,0,0,0,0c-0.4-0.7-2.7-2.4-6-2.4c-0.4,0-0.8,0-1.2,0.1c0,0,0,0-0.1,0C9.6,6.3,8.4,7,7.7,7.7
				c0,0-0.1,0.1-0.1,0.1C7.5,7.9,7.4,7.9,7.3,8C7.2,8.1,7.2,8.2,7.1,8.3c0,0.1-0.1,0.1-0.2,0.1c-0.1,0-0.2,0-0.2,0
				c-0.1,0-0.1-0.1-0.1-0.2C6.6,8.1,6.6,8.1,6.6,8z"/>
			<path class="st13" d="M19.6,8.7c0,0,0.1,0,0.2,0c0,0,0,0,0.1,0c0.1,0,0.1,0.1,0.2,0.1c0.3,0.5,0.6,1.1,0.9,1.7
				c0,0.1,0,0.3-0.2,0.4c-0.1,0-0.2,0-0.2,0c-0.1,0-0.1-0.1-0.1-0.1c0,0,0,0,0,0c-0.2-0.6-0.5-1.1-0.8-1.6c0-0.1-0.1-0.1,0-0.2
				C19.5,8.8,19.6,8.8,19.6,8.7z"/>
		</g>
	</g>
</g>
<g id="Footer">
</g>
<g id="Header">
</g>
<g id="Menú">
</g>
<g id="Bootstrap_x5F_grid" class="st26">
</g>
<g id="Capa_8">
</g>
</svg>
