<svg xmlns="http://www.w3.org/2000/svg" viewBox="0 0 354.09 416.67"><defs><style>.cls-1{isolation:isolate;}.cls-2{fill:#ededed;}.cls-3{fill:#afafaf;}.cls-10,.cls-11,.cls-4{fill:#eec786;}.cls-5{fill:#e8b55d;}.cls-6{fill:#e2a235;}.cls-7,.cls-8{fill:#ef9bde;}.cls-10,.cls-7{opacity:0.39;}.cls-10,.cls-11,.cls-7,.cls-8{mix-blend-mode:multiply;}.cls-8{opacity:0.1;}.cls-21,.cls-9{fill:none;}.cls-9{stroke:#aa7a28;stroke-linecap:round;stroke-linejoin:round;stroke-width:2.55px;}.cls-11{opacity:0.3;}.cls-12{fill:#ecc37c;}.cls-13{fill:#cfcfcf;}.cls-14{fill:#aa7a28;}.cls-15,.cls-24,.cls-25{fill:#fff;}.cls-16{fill:#406eb3;}.cls-17{opacity:0.5;}.cls-18,.cls-30{fill:#707171;}.cls-19{fill:#00a29a;}.cls-20{fill:#fefbfe;mix-blend-mode:overlay;}.cls-20,.cls-24{opacity:0.4;}.cls-21{stroke:#00a29a;stroke-miterlimit:10;stroke-width:2.66px;}.cls-22{fill:#c8c922;}.cls-23{fill:#26478d;}.cls-25{opacity:0.6;}.cls-26{fill:#ba2f7d;}.cls-27{fill:#982881;}.cls-28{fill:#bb0048;}.cls-29{fill:#008e39;}.cls-30{opacity:0.2;}</style></defs><title>D-MDCSH-Beta-v5</title><g class="cls-1"><g id="Capa_8" data-name="Capa 8"><path class="cls-2" d="M208.49,207.2H328a0,0,0,0,1,0,0v71.54a0,0,0,0,1,0,0H193.7a0,0,0,0,1,0,0V222A14.79,14.79,0,0,1,208.49,207.2Z" transform="translate(521.68 485.94) rotate(-180)"/><path class="cls-3" d="M159,278.74H308A14.79,14.79,0,0,1,293.25,264V157.79A14.79,14.79,0,0,0,278.46,143H159Z"/><path class="cls-2" d="M97.05,390.25H241.23A14.79,14.79,0,0,0,256,375.46V157.79A14.79,14.79,0,0,1,270.81,143h-159a14.79,14.79,0,0,0-14.79,14.79Z"/><rect class="cls-4" x="46.98" y="328.54" width="53.48" height="61.71" transform="translate(147.45 718.78) rotate(180)"/><rect class="cls-5" x="100.46" y="328.54" width="4.88" height="61.71"/><rect class="cls-6" x="105.34" y="328.54" width="4.88" height="61.71"/><polygon class="cls-7" points="100.47 390.25 105.34 385.22 105.34 390.25 100.47 390.25"/><polygon class="cls-8" points="105.34 385.22 110.22 390.25 105.34 390.25 105.34 385.22"/><path class="cls-9" d="M60.47,336.65v13.77a13.76,13.76,0,0,0,13.77,13.77h0A13.77,13.77,0,0,0,88,350.42V336.65"/><rect class="cls-4" x="26.11" y="350.42" width="34.52" height="39.83" transform="translate(86.74 740.67) rotate(180)"/><rect class="cls-5" x="60.63" y="350.42" width="3.15" height="39.83"/><rect class="cls-6" x="63.77" y="350.42" width="3.15" height="39.83"/><polygon class="cls-10" points="60.63 390.25 63.77 387 63.77 390.25 60.63 390.25"/><polygon class="cls-11" points="63.77 387 66.92 390.25 63.77 390.25 63.77 387"/><path class="cls-9" d="M34.81,355.66v8.88a8.89,8.89,0,0,0,8.89,8.89h0a8.89,8.89,0,0,0,8.89-8.89v-8.88"/><rect class="cls-12" x="233.41" y="338.28" width="47.82" height="51.96" transform="translate(514.65 728.53) rotate(180)"/><rect class="cls-13" x="253.7" y="338.28" width="7.25" height="51.96" transform="translate(514.65 728.53) rotate(180)"/><rect class="cls-6" x="281.24" y="338.28" width="11.16" height="51.96"/><rect class="cls-2" x="266.73" y="383.05" width="8.49" height="3.82"/><rect class="cls-2" x="236.09" y="343.23" width="8.49" height="3.82"/><path class="cls-3" d="M79.06,390.23l159,0a14.79,14.79,0,0,1-14.79-14.79v-15h-159v15A14.8,14.8,0,0,0,79.06,390.23Z"/><rect class="cls-5" x="269.8" y="357.16" width="30.45" height="33.09" transform="translate(570.05 747.41) rotate(180)"/><rect class="cls-13" x="282.72" y="357.16" width="4.61" height="33.09" transform="translate(570.05 747.41) rotate(180)"/><rect class="cls-14" x="300.25" y="357.16" width="7.11" height="33.09"/><rect class="cls-2" x="291.01" y="385.66" width="5.4" height="2.44"/><rect class="cls-2" x="271.5" y="360.31" width="5.4" height="2.44"/><path class="cls-15" d="M247.59,62H304a7.28,7.28,0,0,1,7.27,7.27v39.48A7.28,7.28,0,0,1,304,116H249.4l-9.08,9.08V69.27A7.28,7.28,0,0,1,247.59,62Z"/><rect class="cls-16" x="247.47" y="70.92" width="23.43" height="27.47" rx="2.08"/><path class="cls-15" d="M267.93,78.82a.7.7,0,0,0-.56-.29H254.11l-.61-1.86a.69.69,0,0,0-.66-.48H251a.7.7,0,0,0,0,1.39h1.34L255.71,88a.67.67,0,0,0,.26.35.71.71,0,0,0,.4.13h8.23a.7.7,0,0,0,.66-.48L268,79.44A.72.72,0,0,0,267.93,78.82Z"/><circle class="cls-15" cx="257.02" cy="91.63" r="1.49"/><path class="cls-15" d="M265.44,91.63A1.5,1.5,0,1,1,264,90.14,1.49,1.49,0,0,1,265.44,91.63Z"/><g class="cls-17"><path class="cls-18" d="M303.74,73.43h-26.4a1.25,1.25,0,0,1-1.26-1.26h0a1.25,1.25,0,0,1,1.26-1.25h26.4A1.25,1.25,0,0,1,305,72.17h0A1.25,1.25,0,0,1,303.74,73.43Z"/><path class="cls-18" d="M303.74,79.66h-26.4a1.25,1.25,0,0,1-1.26-1.25h0a1.25,1.25,0,0,1,1.26-1.26h26.4A1.25,1.25,0,0,1,305,78.41h0A1.25,1.25,0,0,1,303.74,79.66Z"/><path class="cls-18" d="M299.5,85.89H277.34a1.25,1.25,0,0,1-1.26-1.25h0a1.25,1.25,0,0,1,1.26-1.25H299.5a1.25,1.25,0,0,1,1.25,1.25h0A1.25,1.25,0,0,1,299.5,85.89Z"/><path class="cls-18" d="M303.74,92.13h-26.4a1.25,1.25,0,0,1-1.26-1.26h0a1.25,1.25,0,0,1,1.26-1.25h26.4A1.25,1.25,0,0,1,305,90.87h0A1.25,1.25,0,0,1,303.74,92.13Z"/><path class="cls-18" d="M299.5,98.36H277.34a1.25,1.25,0,0,1-1.26-1.25h0a1.25,1.25,0,0,1,1.26-1.26H299.5a1.25,1.25,0,0,1,1.25,1.26h0A1.25,1.25,0,0,1,299.5,98.36Z"/><path class="cls-18" d="M303.74,104.59h-26.4a1.25,1.25,0,0,1-1.26-1.25h0a1.25,1.25,0,0,1,1.26-1.25h26.4a1.25,1.25,0,0,1,1.26,1.25h0A1.25,1.25,0,0,1,303.74,104.59Z"/><path class="cls-18" d="M269.59,104.59H248.72a1.25,1.25,0,0,1-1.25-1.25h0a1.25,1.25,0,0,1,1.25-1.25h20.87a1.25,1.25,0,0,1,1.25,1.25h0A1.25,1.25,0,0,1,269.59,104.59Z"/></g><rect class="cls-19" x="71.77" y="79.41" width="73.37" height="42.6"/><path class="cls-20" d="M140.83,114.29V87.14a4.53,4.53,0,0,1-4.53-4.53H80.55a4.52,4.52,0,0,1-4.46,4.52v27.16a4.53,4.53,0,0,1,4.46,4.53H136.3A4.53,4.53,0,0,1,140.83,114.29Z"/><circle class="cls-19" cx="108.46" cy="100.71" r="10.77" transform="translate(-39.45 106.19) rotate(-45)"/><circle class="cls-20" cx="108.46" cy="100.71" r="8.9"/><path class="cls-19" d="M108.23,105.73v-.45a2.23,2.23,0,0,1-1.77-2.45.73.73,0,0,1,.77-.77.75.75,0,0,1,.77.77v.11c0,.63.33.9.85.9s.84-.27.84-.93-.29-1.28-1.39-2.14c-1.33-1-1.79-1.88-1.79-3a2.2,2.2,0,0,1,1.72-2.4V95a.67.67,0,0,1,1.33,0v.33a2,2,0,0,1,1.75,2,.71.71,0,0,1-.77.78.72.72,0,0,1-.77-.71.71.71,0,0,0-.77-.69.79.79,0,0,0-.86.88c0,.68.29,1.2,1.39,2.08,1.33,1.06,1.79,1.88,1.79,3.06a2.25,2.25,0,0,1-1.76,2.48v.45a.67.67,0,1,1-1.33,0Z"/><path class="cls-21" d="M88.81,100.71A2.78,2.78,0,1,1,86,97.94,2.78,2.78,0,0,1,88.81,100.71Z"/><path class="cls-21" d="M133.18,100.71a2.78,2.78,0,1,1-2.78-2.77A2.78,2.78,0,0,1,133.18,100.71Z"/><rect class="cls-19" x="42.14" y="262.8" width="73.37" height="42.6"/><path class="cls-20" d="M111.19,297.68V270.52a4.52,4.52,0,0,1-4.53-4.52H50.91a4.51,4.51,0,0,1-4.45,4.52v27.16a4.52,4.52,0,0,1,4.45,4.52h55.75A4.52,4.52,0,0,1,111.19,297.68Z"/><circle class="cls-19" cx="78.82" cy="284.1" r="10.77" transform="translate(-177.8 138.95) rotate(-45)"/><circle class="cls-20" cx="78.82" cy="284.1" r="8.9"/><path class="cls-19" d="M78.59,289.12v-.46a2.21,2.21,0,0,1-1.76-2.44.73.73,0,0,1,.77-.77.75.75,0,0,1,.77.77v.1c0,.64.32.91.84.91s.85-.27.85-.94-.3-1.27-1.4-2.13c-1.33-1.05-1.79-1.88-1.79-3a2.2,2.2,0,0,1,1.72-2.4v-.33a.67.67,0,1,1,1.33,0v.33a2,2,0,0,1,1.75,2,.7.7,0,0,1-.77.78.73.73,0,0,1-.77-.71.71.71,0,0,0-.77-.7.79.79,0,0,0-.86.89c0,.68.3,1.2,1.39,2.08,1.34,1.06,1.8,1.88,1.8,3.06a2.24,2.24,0,0,1-1.77,2.47v.46a.67.67,0,1,1-1.33,0Z"/><path class="cls-21" d="M59.17,284.1a2.77,2.77,0,1,1-2.77-2.77A2.77,2.77,0,0,1,59.17,284.1Z"/><path class="cls-21" d="M103.54,284.1a2.78,2.78,0,1,1-2.77-2.77A2.77,2.77,0,0,1,103.54,284.1Z"/><rect class="cls-22" x="269.45" y="291.76" width="28.21" height="28.21" rx="2.45"/><path class="cls-15" d="M284.58,297.73l1.95,3.95a1.1,1.1,0,0,0,.86.62l4.35.64a1.13,1.13,0,0,1,.63,1.94L289.22,308a1.15,1.15,0,0,0-.33,1l.75,4.34a1.14,1.14,0,0,1-1.66,1.2l-3.89-2.05a1.19,1.19,0,0,0-1.07,0l-3.89,2.05a1.14,1.14,0,0,1-1.66-1.2l.74-4.34a1.11,1.11,0,0,0-.32-1l-3.16-3.08a1.14,1.14,0,0,1,.64-1.94l4.35-.64a1.11,1.11,0,0,0,.86-.62l1.95-3.95A1.14,1.14,0,0,1,284.58,297.73Z"/><path class="cls-3" d="M204.49,113.3,202.23,112a1.11,1.11,0,0,1-.53-1.22,10.71,10.71,0,0,0,0-4.69,1.11,1.11,0,0,1,.53-1.22l2.26-1.31a1.12,1.12,0,0,0,.41-1.52l-1.29-2.23a1.11,1.11,0,0,0-1.52-.41l-2.27,1.31a1.1,1.1,0,0,1-1.32-.16,10.84,10.84,0,0,0-4.06-2.34,1.12,1.12,0,0,1-.79-1.07V94.52a1.12,1.12,0,0,0-1.12-1.12H190a1.12,1.12,0,0,0-1.11,1.12v2.61a1.12,1.12,0,0,1-.79,1.07,10.84,10.84,0,0,0-4.06,2.34,1.1,1.1,0,0,1-1.32.16l-2.27-1.31a1.11,1.11,0,0,0-1.52.41L177.59,102a1.11,1.11,0,0,0,.41,1.52l2.26,1.31a1.13,1.13,0,0,1,.53,1.22,10.71,10.71,0,0,0,0,4.69,1.13,1.13,0,0,1-.53,1.22L178,113.3a1.11,1.11,0,0,0-.41,1.52l1.29,2.23a1.11,1.11,0,0,0,1.52.41l2.27-1.31a1.1,1.1,0,0,1,1.32.16,10.84,10.84,0,0,0,4.06,2.34,1.12,1.12,0,0,1,.79,1.07v2.61a1.12,1.12,0,0,0,1.11,1.12h2.58a1.12,1.12,0,0,0,1.12-1.12v-2.61a1.12,1.12,0,0,1,.79-1.07,10.84,10.84,0,0,0,4.06-2.34,1.1,1.1,0,0,1,1.32-.16l2.27,1.31a1.11,1.11,0,0,0,1.52-.41l1.29-2.23A1.12,1.12,0,0,0,204.49,113.3Zm-13.25,1.58a6.46,6.46,0,1,1,6.46-6.45A6.46,6.46,0,0,1,191.24,114.88Z"/><rect class="cls-16" x="264.46" y="166.98" width="54.37" height="33.77" rx="2.69"/><rect x="264.46" y="186.08" width="54.37" height="6.24"/><rect class="cls-23" x="268.03" y="174.59" width="14.32" height="2.84"/><circle class="cls-24" cx="301.77" cy="176.01" r="5.1" transform="translate(-36.07 264.94) rotate(-45)"/><circle class="cls-25" cx="307.59" cy="176.01" r="5.1" transform="translate(-43.94 131.11) rotate(-22.5)"/><rect class="cls-26" x="264.46" y="213.26" width="54.37" height="33.77" rx="2.69"/><rect x="264.46" y="232.36" width="54.37" height="6.24"/><rect class="cls-27" x="268.03" y="220.87" width="14.32" height="2.84"/><circle class="cls-24" cx="301.77" cy="222.29" r="5.1" transform="translate(-68.8 278.49) rotate(-45)"/><circle class="cls-25" cx="307.59" cy="222.29" r="5.1" transform="translate(-61.65 134.63) rotate(-22.5)"/><rect class="cls-15" x="191.71" y="167.79" width="42.82" height="43.6"/><path class="cls-23" d="M215.37,189.37a3,3,0,0,0-5.7,1.65c1.07,3.71,5,7,8.56,9.88a.59.59,0,0,0,.83-.09A.6.6,0,0,0,219,200c-3.44-2.72-7.19-5.9-8.16-9.28a1.79,1.79,0,0,1,3.43-1c.65,2.26,3.87,5.05,6.94,7.48a.59.59,0,0,0,.74-.93C220.3,195,216,191.57,215.37,189.37Z"/><path class="cls-23" d="M219.87,187.84a7.72,7.72,0,0,0-14.78,4.48h0c1,3.39-1.12,4.33-1.78,4.54a.59.59,0,0,0,.35,1.13c1.82-.57,3.58-2.48,2.57-6a6.53,6.53,0,0,1,4.47-8.08h0a6.58,6.58,0,0,1,8.06,4.39.38.38,0,0,0,.06.13c.06.1.19.31,4,3.41a.59.59,0,0,0,.83-.08.6.6,0,0,0-.08-.84C222.2,189.8,220.17,188.12,219.87,187.84Z"/><path class="cls-23" d="M217.66,188.72a5.35,5.35,0,0,0-6.62-3.66,5.46,5.46,0,0,0-3.67,6.58c1.2,5.46.31,6.72-2.16,7.49a.6.6,0,0,0,.36,1.14c3.44-1.07,4.19-3.32,3-8.89a4.27,4.27,0,0,1,2.84-5.18,4.17,4.17,0,0,1,5.14,2.85c.24.81.87,1.92,5.74,5.77a.58.58,0,0,0,.83-.1.59.59,0,0,0-.1-.83C218.58,190.4,217.82,189.29,217.66,188.72Z"/><path class="cls-23" d="M219.29,197c-2-1.53-5.37-4.08-6.2-7a.59.59,0,0,0-.74-.39.58.58,0,0,0-.4.72c.93,3.26,4.49,6,6.62,7.57.43.31.85.65,1.25,1a.6.6,0,0,0,.84,0,.6.6,0,0,0,0-.83A16.08,16.08,0,0,0,219.29,197Z"/><path class="cls-23" d="M216.08,201.12a3.89,3.89,0,0,0-3-2c-2,0-2.33,3.44-2.37,4.13a.61.61,0,0,0,.55.63h0a.59.59,0,0,0,.59-.56c.08-1.23.55-3,1.19-3,.88,0,1.51.85,2,1.53a7.18,7.18,0,0,0,.54.67.59.59,0,0,0,.84,0,.6.6,0,0,0,0-.83A5.43,5.43,0,0,1,216.08,201.12Z"/><path class="cls-23" d="M210.71,196a.6.6,0,0,0-.76-.35.59.59,0,0,0-.37.71c.51,1.59-.49,4.71-2,5.19a.61.61,0,0,0-.39.75.6.6,0,0,0,.75.39h0C210.24,201.9,211.34,197.93,210.71,196Z"/><path class="cls-23" d="M223.39,187.85c-.74-.24-1.32-1.19-2-2.28-1.43-2.31-3.39-5.47-8.87-5.47a10.1,10.1,0,0,0-10.1,10.09.6.6,0,1,0,1.19,0,8.92,8.92,0,0,1,8.91-8.91c4.82,0,6.51,2.73,7.86,4.92.8,1.29,1.49,2.4,2.65,2.78a.6.6,0,0,0,.38-1.13h0Z"/><path class="cls-23" d="M203.61,195a.59.59,0,0,0,.59-.6.58.58,0,0,0-.06-.26,5.49,5.49,0,0,1-.53-1.52.6.6,0,0,0-1.19,0,6.16,6.16,0,0,0,.66,2.05A.59.59,0,0,0,203.61,195Z"/><path class="cls-23" d="M203.3,182.39a.6.6,0,0,0,.82-.2h0c.51-.85,3-3.28,7.8-3.28,4.57,0,7.82,2.31,8.41,3.28a.59.59,0,0,0,.81.2.6.6,0,0,0,.2-.82h0c-.81-1.34-4.41-3.85-9.42-3.85-5.32,0-8.17,2.78-8.82,3.85A.6.6,0,0,0,203.3,182.39Z"/><path class="cls-23" d="M206.82,177.67c.27-.12.5-.24.72-.36.89-.45,1.53-.78,4.38-.78a13.44,13.44,0,0,1,5.65.91l.7.25a.59.59,0,0,0,.78-.56.6.6,0,0,0-.4-.57l-.67-.23a14.56,14.56,0,0,0-6.06-1c-3.14,0-3.92.41-4.92.92l-.66.32a.61.61,0,0,0-.34.78.6.6,0,0,0,.77.33l0,0Z"/><path class="cls-23" d="M222.64,185.62a.61.61,0,0,0,.77.36.6.6,0,0,0,.37-.71,15.06,15.06,0,0,0-1.25-2.51.6.6,0,0,0-.82-.2.59.59,0,0,0-.19.82A13.39,13.39,0,0,1,222.64,185.62Z"/><path class="cls-23" d="M218.59,201a.53.53,0,0,1-.36-.13c-3.59-2.83-7.49-6.17-8.56-9.88a3,3,0,0,1,5.7-1.65c.63,2.2,4.92,5.6,6.53,6.87a.59.59,0,1,1-.7,1l0,0c-3.07-2.43-6.3-5.22-6.95-7.48a1.78,1.78,0,1,0-3.42,1c1,3.37,4.72,6.56,8.15,9.28a.58.58,0,0,1,.1.83.57.57,0,0,1-.47.23Z"/><path class="cls-23" d="M203.49,198a.58.58,0,0,1-.59-.59.6.6,0,0,1,.41-.57c.67-.2,2.76-1.14,1.79-4.53a7.72,7.72,0,0,1,5.28-9.56h0a7.77,7.77,0,0,1,9.48,5.07c.3.28,2.33,2,3.72,3.08a.61.61,0,0,1,.06.84.59.59,0,0,1-.81.08c-3.82-3.1-4-3.31-4-3.41a.38.38,0,0,1-.06-.13,6.53,6.53,0,0,0-12.53,3.7h0c1,3.52-.75,5.43-2.57,6A.55.55,0,0,1,203.49,198Z"/><path class="cls-23" d="M205.39,200.29a.58.58,0,0,1-.59-.59.6.6,0,0,1,.41-.57c2.47-.77,3.36-2,2.16-7.49a5.46,5.46,0,0,1,3.67-6.58,5.36,5.36,0,0,1,6.62,3.66c.16.57.92,1.68,5.32,5.17a.59.59,0,1,1-.7,1l0,0c-4.87-3.85-5.5-5-5.74-5.77a4.16,4.16,0,0,0-5.14-2.86,4.29,4.29,0,0,0-2.84,5.19c1.22,5.57.48,7.81-3,8.89Z"/><path class="cls-23" d="M220.24,199.1a.59.59,0,0,1-.42-.17,15.2,15.2,0,0,0-1.25-1c-2.12-1.61-5.69-4.31-6.62-7.57a.59.59,0,1,1,1.13-.35v0c.83,2.88,4.19,5.43,6.2,6.95.48.35.93.72,1.37,1.11a.6.6,0,0,1,0,.84A.59.59,0,0,1,220.24,199.1Z"/><path class="cls-23" d="M211.33,203.86h0a.6.6,0,0,1-.55-.63c0-.69.35-4.12,2.37-4.12a3.85,3.85,0,0,1,3,2,4.43,4.43,0,0,0,.43.54.59.59,0,0,1-.84.84,5.66,5.66,0,0,1-.54-.67c-.51-.69-1.14-1.54-2-1.54-.64,0-1.11,1.78-1.19,3A.59.59,0,0,1,211.33,203.86Z"/><path class="cls-23" d="M207.77,202.67a.59.59,0,0,1-.19-1.16c1.51-.49,2.5-3.61,2-5.19a.6.6,0,1,1,1.11-.43s0,.05,0,.07c.63,2-.48,5.94-2.76,6.68A.57.57,0,0,1,207.77,202.67Z"/><path class="cls-23" d="M203,190.79a.6.6,0,0,1-.59-.6,10.1,10.1,0,0,1,10.1-10.09c5.48,0,7.44,3.16,8.87,5.47.68,1.09,1.26,2,2,2.28A.59.59,0,0,1,223,189h0c-1.16-.38-1.85-1.49-2.65-2.78-1.35-2.19-3-4.92-7.86-4.92a8.92,8.92,0,0,0-8.91,8.91A.6.6,0,0,1,203,190.79Z"/><path class="cls-23" d="M203.61,195a.59.59,0,0,1-.53-.33,6.16,6.16,0,0,1-.66-2.05.6.6,0,0,1,1.19,0,5.49,5.49,0,0,0,.53,1.52.58.58,0,0,1-.27.79A.59.59,0,0,1,203.61,195Z"/><path class="cls-23" d="M220.84,182.47a.6.6,0,0,1-.51-.28c-.59-1-3.84-3.28-8.41-3.28-4.75,0-7.29,2.43-7.8,3.28a.6.6,0,0,1-.81.22.58.58,0,0,1-.23-.8l0,0c.65-1.07,3.5-3.85,8.82-3.85,5,0,8.61,2.51,9.42,3.85a.6.6,0,0,1-.2.82A.64.64,0,0,1,220.84,182.47Z"/><path class="cls-23" d="M218.46,177.72a.58.58,0,0,1-.19,0l-.7-.25a13.62,13.62,0,0,0-5.65-.91c-2.85,0-3.49.33-4.38.79-.22.11-.45.23-.72.35a.58.58,0,0,1-.78-.3.6.6,0,0,1,.3-.79l.67-.32c1-.51,1.78-.92,4.91-.92a14.72,14.72,0,0,1,6.06,1c.22.08.44.17.67.24a.59.59,0,0,1-.19,1.16Z"/><path class="cls-23" d="M223.21,186a.58.58,0,0,1-.56-.42,14.24,14.24,0,0,0-1.13-2.24.6.6,0,0,1,.19-.82.61.61,0,0,1,.82.19h0a15.87,15.87,0,0,1,1.25,2.51.6.6,0,0,1-.39.75A.57.57,0,0,1,223.21,186Z"/><path class="cls-3" d="M191.62,183.53a.56.56,0,0,1-.55-.56V167.7a.56.56,0,0,1,.55-.56H206.9a.56.56,0,0,1,.55.56.55.55,0,0,1-.55.55H192.18V183A.56.56,0,0,1,191.62,183.53Z"/><path class="cls-3" d="M234.61,183.53a.56.56,0,0,1-.56-.56V168.25H219.34a.55.55,0,0,1-.56-.55.56.56,0,0,1,.56-.56h15.27a.55.55,0,0,1,.55.56V183A.55.55,0,0,1,234.61,183.53Z"/><path class="cls-3" d="M234.61,212H219.34a.56.56,0,1,1,0-1.11h14.71V196.21a.56.56,0,0,1,.56-.56.55.55,0,0,1,.55.56v15.27A.55.55,0,0,1,234.61,212Z"/><path class="cls-3" d="M206.9,212H191.62a.56.56,0,0,1-.55-.56V196.21a.56.56,0,1,1,1.11,0v14.72H206.9a.56.56,0,0,1,0,1.11Z"/><rect class="cls-15" x="122.05" y="231.28" width="108.69" height="54.06"/><g class="cls-17"><path d="M154.5,331.11H118.63a1.25,1.25,0,0,1-1.26-1.25h0a1.25,1.25,0,0,1,1.26-1.26H154.5a1.25,1.25,0,0,1,1.25,1.26h0A1.25,1.25,0,0,1,154.5,331.11Z"/><path class="cls-18" d="M164,342.07H118.63a1.25,1.25,0,0,1-1.26-1.25h0a1.25,1.25,0,0,1,1.26-1.25H164a1.25,1.25,0,0,1,1.25,1.25h0A1.25,1.25,0,0,1,164,342.07Z"/><path class="cls-18" d="M159.72,348.31H118.63a1.25,1.25,0,0,1-1.26-1.26h0a1.25,1.25,0,0,1,1.26-1.25h41.09a1.25,1.25,0,0,1,1.25,1.25h0A1.25,1.25,0,0,1,159.72,348.31Z"/></g><g class="cls-17"><path d="M220,331.11H184.16a1.25,1.25,0,0,1-1.26-1.25h0a1.25,1.25,0,0,1,1.26-1.26H220a1.25,1.25,0,0,1,1.25,1.26h0A1.25,1.25,0,0,1,220,331.11Z"/><path class="cls-18" d="M229.49,345.8H184.16a1.25,1.25,0,0,0-1.26,1.25h0a1.25,1.25,0,0,0,1.26,1.26h45.33a1.25,1.25,0,0,0,1.25-1.26h0A1.25,1.25,0,0,0,229.49,345.8Z"/><path class="cls-18" d="M225.24,339.57H184.16a1.25,1.25,0,0,0-1.26,1.25h0a1.25,1.25,0,0,0,1.26,1.25h41.08a1.25,1.25,0,0,0,1.26-1.25h0A1.25,1.25,0,0,0,225.24,339.57Z"/></g><rect class="cls-26" x="117.37" y="309.62" width="6.42" height="11.29"/><rect class="cls-26" x="126.58" y="305.88" width="6.42" height="15.02"/><rect class="cls-22" x="135.78" y="299.8" width="6.42" height="21.11"/><rect class="cls-26" x="144.98" y="303.13" width="6.42" height="17.77"/><rect class="cls-26" x="201.31" y="309.62" width="6.42" height="11.29" transform="translate(409.04 630.52) rotate(-180)"/><rect class="cls-26" x="192.11" y="305.88" width="6.42" height="15.02"/><rect class="cls-22" x="182.9" y="299.8" width="6.42" height="21.11" transform="translate(372.22 620.7) rotate(-180)"/><rect class="cls-26" x="210.51" y="303.13" width="6.42" height="17.77"/><g class="cls-17"><path d="M160.81,192.52H124.94a1.26,1.26,0,0,1-1.26-1.26h0a1.26,1.26,0,0,1,1.26-1.25h35.87a1.25,1.25,0,0,1,1.25,1.25h0A1.25,1.25,0,0,1,160.81,192.52Z"/><path class="cls-18" d="M170.27,207.21H124.94a1.26,1.26,0,0,0-1.26,1.25h0a1.26,1.26,0,0,0,1.26,1.25h45.33a1.25,1.25,0,0,0,1.25-1.25h0A1.25,1.25,0,0,0,170.27,207.21Z"/><path class="cls-18" d="M166,201H124.94a1.27,1.27,0,0,0-1.26,1.26h0a1.26,1.26,0,0,0,1.26,1.25H166a1.25,1.25,0,0,0,1.25-1.25h0A1.26,1.26,0,0,0,166,201Z"/></g><rect class="cls-26" x="142.09" y="172.91" width="6.42" height="11.29" transform="translate(290.6 357.12) rotate(-180)"/><rect class="cls-26" x="132.89" y="169.18" width="6.42" height="15.02"/><rect class="cls-22" x="123.68" y="163.1" width="6.42" height="21.11" transform="translate(253.79 347.3) rotate(-180)"/><rect class="cls-26" x="151.3" y="166.43" width="6.42" height="17.77"/><path class="cls-22" d="M176.93,245.45v12.2a16.54,16.54,0,0,1,10.82,4.48l8.63-8.62A28.7,28.7,0,0,0,176.93,245.45Z"/><path class="cls-28" d="M159.8,273.71a16.55,16.55,0,0,1,4.49-10.82l-8.63-8.63a28.7,28.7,0,0,0-8.06,19.45Z"/><path class="cls-6" d="M165,262.13a16.54,16.54,0,0,1,10.82-4.48v-12.2a28.7,28.7,0,0,0-19.45,8.06Z"/><path class="cls-29" d="M188.5,262.89A16.55,16.55,0,0,1,193,273.71h12.2a28.7,28.7,0,0,0-8.06-19.45Z"/><polygon points="192.48 243.67 185.64 240.91 187.68 245.71 192.48 243.67"/><path class="cls-15" d="M162.38,156.8H46a9.36,9.36,0,0,0-9.37,9.37v28.56A9.37,9.37,0,0,0,46,204.1H156.06l15.69,15.7V166.17A9.36,9.36,0,0,0,162.38,156.8Z"/><circle class="cls-16" cx="60.12" cy="180.45" r="16.58"/><circle class="cls-15" cx="60.12" cy="174.89" r="5.99"/><path class="cls-15" d="M68.23,192H52v-1.65a8.12,8.12,0,0,1,8.12-8.12h0a8.12,8.12,0,0,1,8.11,8.12Z"/><g class="cls-17"><path d="M147.1,167.54H88.52a1.25,1.25,0,0,1-1.25-1.25h0A1.25,1.25,0,0,1,88.52,165H147.1a1.25,1.25,0,0,1,1.26,1.25h0A1.25,1.25,0,0,1,147.1,167.54Z"/><path class="cls-18" d="M156.57,174.72h-68a1.25,1.25,0,0,1-1.25-1.25h0a1.26,1.26,0,0,1,1.25-1.26h68.05a1.26,1.26,0,0,1,1.25,1.26h0A1.25,1.25,0,0,1,156.57,174.72Z"/><path class="cls-18" d="M152.32,181H88.52a1.25,1.25,0,0,1-1.25-1.25h0a1.25,1.25,0,0,1,1.25-1.25h63.8a1.26,1.26,0,0,1,1.26,1.25h0A1.26,1.26,0,0,1,152.32,181Z"/></g><path class="cls-6" d="M92.61,186.81l.8,1.62a.79.79,0,0,0,.61.44l1.79.26a.81.81,0,0,1,.45,1.38L95,191.77a.81.81,0,0,0-.23.72l.3,1.78a.8.8,0,0,1-1.17.85l-1.6-.84a.83.83,0,0,0-.75,0l-1.6.84a.81.81,0,0,1-1.17-.85l.3-1.78a.81.81,0,0,0-.23-.72l-1.29-1.26a.81.81,0,0,1,.44-1.38l1.79-.26a.78.78,0,0,0,.61-.44l.8-1.62A.81.81,0,0,1,92.61,186.81Z"/><path class="cls-6" d="M106,186.81l.8,1.62a.79.79,0,0,0,.61.44l1.79.26a.81.81,0,0,1,.45,1.38l-1.3,1.26a.81.81,0,0,0-.23.72l.3,1.78a.8.8,0,0,1-1.17.85l-1.6-.84a.83.83,0,0,0-.75,0l-1.6.84a.81.81,0,0,1-1.17-.85l.3-1.78a.81.81,0,0,0-.23-.72L101,190.51a.81.81,0,0,1,.44-1.38l1.79-.26a.78.78,0,0,0,.61-.44l.8-1.62A.81.81,0,0,1,106,186.81Z"/><path class="cls-6" d="M119.47,186.81l.8,1.62a.79.79,0,0,0,.61.44l1.79.26a.81.81,0,0,1,.45,1.38l-1.3,1.26a.81.81,0,0,0-.23.72l.3,1.78a.8.8,0,0,1-1.17.85l-1.6-.84a.83.83,0,0,0-.75,0l-1.6.84a.81.81,0,0,1-1.17-.85l.3-1.78a.81.81,0,0,0-.23-.72l-1.29-1.26a.81.81,0,0,1,.44-1.38l1.79-.26a.78.78,0,0,0,.61-.44l.8-1.62A.81.81,0,0,1,119.47,186.81Z"/><path class="cls-6" d="M132.9,186.81l.8,1.62a.79.79,0,0,0,.61.44l1.79.26a.81.81,0,0,1,.45,1.38l-1.3,1.26a.81.81,0,0,0-.23.72l.3,1.78a.8.8,0,0,1-1.17.85l-1.6-.84a.83.83,0,0,0-.75,0l-1.6.84a.81.81,0,0,1-1.17-.85l.3-1.78a.81.81,0,0,0-.23-.72l-1.29-1.26a.81.81,0,0,1,.44-1.38l1.79-.26a.78.78,0,0,0,.61-.44l.8-1.62A.81.81,0,0,1,132.9,186.81Z"/><path class="cls-30" d="M146.33,186.81l.8,1.62a.79.79,0,0,0,.61.44l1.79.26a.81.81,0,0,1,.45,1.38l-1.3,1.26a.81.81,0,0,0-.23.72l.3,1.78a.8.8,0,0,1-1.17.85l-1.6-.84a.83.83,0,0,0-.75,0l-1.6.84a.81.81,0,0,1-1.17-.85l.3-1.78a.81.81,0,0,0-.23-.72l-1.29-1.26a.81.81,0,0,1,.44-1.38l1.79-.26a.78.78,0,0,0,.61-.44l.8-1.62A.81.81,0,0,1,146.33,186.81Z"/></g></g></svg>