<svg xmlns="http://www.w3.org/2000/svg" viewBox="0 0 25 25"><defs><style>.cls-1{fill:none;}.cls-2{fill:#cecece;}</style></defs><title>interfaz_lupa</title><g id="Capa_2" data-name="Capa 2"><g id="Assets"><rect class="cls-1" width="25" height="25"/><path class="cls-2" d="M11,15.79A4.79,4.79,0,1,1,15.79,11,4.8,4.8,0,0,1,11,15.79Zm0-8A3.21,3.21,0,1,0,14.21,11,3.21,3.21,0,0,0,11,7.79Z"/><path class="cls-2" d="M18,18.79a.8.8,0,0,1-.56-.23l-4-4a.79.79,0,0,1,1.12-1.12l4,4a.79.79,0,0,1,0,1.12A.8.8,0,0,1,18,18.79Z"/></g></g></svg>