<?xml version="1.0" encoding="utf-8"?>
<!-- Generator: Adobe Illustrator 23.0.3, SVG Export Plug-In . SVG Version: 6.00 Build 0)  -->
<svg version="1.1" id="Capa_1" xmlns="http://www.w3.org/2000/svg" xmlns:xlink="http://www.w3.org/1999/xlink" x="0px" y="0px"
	 viewBox="0 0 460 80" style="enable-background:new 0 0 460 80;" xml:space="preserve">
<style type="text/css">
	.st0{fill:#406EB3;}
	.st1{fill:#FFFFFF;}
	.st2{fill:#53565A;}
</style>
<title>logo</title>
<g>
	<path class="st0" d="M77.9,55c0,8.2-6.8,15-15,15h-30c-8.3,0-15-6.7-15-15V25c0-8.3,6.7-15,15-15h30c8.2,0,15,6.8,15,15V55z"/>
	<g>
		<path class="st1" d="M53.1,49.8c-0.2,0-0.3-0.1-0.3-0.3v-9c0-2.5-1.1-3.9-3.4-3.9c-2.1,0-3.5,1.5-3.5,3.8v9.1
			c0,0.2-0.1,0.3-0.3,0.3h-2.1c-0.2,0-0.3-0.1-0.3-0.3v-9c0-2.5-1.1-3.9-3.4-3.9c-2.1,0-3.5,1.5-3.5,3.8v9.1c0,0.2-0.1,0.3-0.3,0.3
			h-2.1c-0.2,0-0.3-0.1-0.3-0.3V34.8c0-0.2,0.1-0.3,0.3-0.3h2.1c0.2,0,0.3,0.1,0.3,0.3v1.4h0c0.7-1.2,2.2-2.1,4.3-2.1
			c2.1,0,3.6,0.9,4.5,2.4h0c1.1-1.5,2.6-2.4,5-2.4c3.6,0,5.5,2.3,5.5,5.8v9.6c0,0.2-0.1,0.3-0.3,0.3H53.1z"/>
		<path class="st1" d="M59.8,31c-0.2,0-0.3-0.1-0.3-0.3v-2.3c0-0.2,0.1-0.3,0.3-0.3H62c0.2,0,0.3,0.1,0.3,0.3v2.3
			c0,0.2-0.1,0.3-0.3,0.3H59.8z M59.9,49.8c-0.2,0-0.3-0.1-0.3-0.3V34.8c0-0.2,0.1-0.3,0.3-0.3h2.1c0.2,0,0.3,0.1,0.3,0.3v14.7
			c0,0.2-0.1,0.3-0.3,0.3H59.9z"/>
	</g>
	<g>
		<path class="st0" d="M274.1,35.4c0.9-1.2,2.2-1.8,4.3-1.8c3.9,0,6.4,2.6,6.4,7.1v2.1c0,4.1-2,7.2-6.4,7.2c-2.1,0-3.5-0.5-4.3-1.7
			v1.4h-2.5V27.8h2.5V35.4z M282.2,42.7v-2.1c0-3-1.5-4.8-4.1-4.8c-2.5,0-4.1,1.7-4.1,4.6v2.3c0,2.7,1.1,4.9,4.1,4.9
			C280.8,47.6,282.2,45.4,282.2,42.7z"/>
		<path class="st0" d="M301,49.7h-2.5v-1.6c-0.8,1.2-1.9,1.8-4.3,1.8c-3.4,0-5.8-1.8-5.8-6.2v-9.9h2.5v9.9c0,3.2,1.7,3.9,3.6,3.9
			c2.4,0,3.9-1.7,3.9-3.9v-9.9h2.5V49.7z"/>
		<path class="st0" d="M314.5,37.5c-0.9-1.1-1.7-1.6-3.9-1.6c-1.9,0-3.1,0.7-3.1,2.1c0,1.8,1.6,2.3,3.7,2.5c3,0.2,5.7,1.1,5.7,4.7
			c0,2.8-1.9,4.7-6,4.7c-3.2,0-4.9-1-6.1-2.6l1.9-1.3c0.9,1.1,2,1.6,4.3,1.6c2.1,0,3.4-0.8,3.4-2.3c0-1.7-1-2.3-4.1-2.5
			c-2.7-0.2-5.3-1.3-5.3-4.7c0-2.6,1.9-4.5,5.7-4.5c2.6,0,4.5,0.7,5.8,2.6L314.5,37.5z"/>
		<path class="st0" d="M332.3,47.3c-1,1.8-2.9,2.7-5.5,2.7c-4.4,0-6.9-2.8-6.9-7.2v-2.1c0-4.5,2.6-7.1,6.9-7.1
			c2.4,0,4.4,0.9,5.5,2.5l-2,1.4c-0.7-1-2-1.6-3.5-1.6c-2.7,0-4.3,1.8-4.3,4.8v2.1c0,2.7,1.3,4.9,4.3,4.9c1.5,0,2.9-0.5,3.5-1.8
			L332.3,47.3z"/>
		<path class="st0" d="M340.3,40.5h3.8v-1.8c0-2.3-1-2.8-3.5-2.8c-1.9,0-2.9,0.2-3.8,1.6l-1.9-1.3c1.1-1.8,2.7-2.6,5.7-2.6
			c4,0,6,1.3,6,5.1v11h-2.5v-1.6c-0.9,1.5-2,1.8-4,1.8c-3.7,0-5.7-1.8-5.7-4.9C334.4,41.6,336.8,40.5,340.3,40.5z M344.1,42.7h-3.8
			c-2.5,0-3.4,0.9-3.4,2.4c0,1.8,1.3,2.5,3.1,2.5c2.3,0,4-0.4,4-4V42.7z"/>
		<path class="st0" d="M362.7,47.3c-1,1.8-2.9,2.7-5.5,2.7c-4.4,0-6.9-2.8-6.9-7.2v-2.1c0-4.5,2.6-7.1,6.9-7.1
			c2.4,0,4.4,0.9,5.5,2.5l-2,1.4c-0.7-1-2-1.6-3.5-1.6c-2.7,0-4.3,1.8-4.3,4.8v2.1c0,2.7,1.3,4.9,4.3,4.9c1.5,0,2.9-0.5,3.5-1.8
			L362.7,47.3z"/>
		<path class="st0" d="M374.2,37.2c-0.7-0.9-1.5-1.3-2.7-1.3c-1.9,0-3.4,1.5-3.4,3.8v9.9h-2.5V33.8h2.5v1.6c0.7-1.1,1.7-1.8,3.7-1.8
			c2.2,0,3.5,0.7,4.5,2.2L374.2,37.2z"/>
		<path class="st0" d="M390.1,47.3c-1.1,1.9-2.8,2.7-5.6,2.7c-4.3,0-6.8-2.8-6.8-7.2v-2.1c0-4.5,2.1-7.1,6.3-7.1
			c4.2,0,6.3,2.6,6.3,7.1v1.7h-10v0.4c0,2.7,1.3,4.9,4.1,4.9c2.1,0,3.1-0.6,3.8-1.8L390.1,47.3z M380.3,40.1h7.5
			c-0.1-2.7-1.3-4.3-3.7-4.3C381.6,35.8,380.4,37.4,380.3,40.1z M384.7,26.6h3l-2.9,5h-2.4L384.7,26.6z"/>
		<path class="st0" d="M404.3,27.8h2.5v21.9h-2.5v-1.4c-0.9,1.1-2.2,1.7-4.3,1.7c-4.3,0-6.4-3-6.4-7.2v-2.1c0-4.5,2.4-7.1,6.4-7.1
			c2.1,0,3.5,0.7,4.3,1.8V27.8z M404.3,43v-2.3c0-3-1.5-4.8-4.1-4.8c-2.6,0-4.1,1.8-4.1,4.8v2.1c0,2.7,1.4,4.9,4.1,4.9
			C403,47.6,404.3,45.6,404.3,43z"/>
		<path class="st0" d="M411.6,27.8h2.9v2.9h-2.9V27.8z M411.8,33.8h2.5v15.9h-2.5V33.8z"/>
		<path class="st0" d="M417.9,33.8h2v-3.5h2.5v3.5h3.7v2.3h-3.7v8.1c0,2.2,0.3,3.1,2.4,3.1h1.3v2.4h-1.4c-3.7,0-4.8-1.6-4.8-4.9
			v-8.7h-2V33.8z"/>
		<path class="st0" d="M442.1,42.7c0,4.1-2,7.2-6.6,7.2c-4.2,0-6.6-2.8-6.6-7.2v-2.1c0-4.5,2.4-7.1,6.6-7.1c4.2,0,6.6,2.6,6.6,7.1
			V42.7z M439.6,42.7v-2.1c0-3-1.5-4.8-4.1-4.8c-2.6,0-4.1,1.8-4.1,4.8v2.1c0,2.7,1.1,4.9,4.1,4.9C438.2,47.6,439.6,45.4,439.6,42.7
			z"/>
	</g>
	<g>
		<g>
			<g>
				<g>
					<path class="st2" d="M97.4,27.2h1.8v22.2h-1.8v-2c-0.9,1.5-2.4,2.2-4.9,2.2c-4.2,0-6.3-2.7-6.3-7.1v-2.3c0-4.6,2.3-7,6.3-7
						c2.4,0,4,0.8,4.9,2.3V27.2z M97.4,42.5v-2.3c0-3.3-1.3-5.4-4.7-5.4c-3.1,0-4.6,1.9-4.6,5.4v2.3c0,3.4,1.5,5.5,4.6,5.5
						C96.2,47.9,97.4,45.6,97.4,42.5z"/>
				</g>
			</g>
			<g>
				<g>
					<path class="st2" d="M109.4,40.2h4.7v-2c0-2.7-1.1-3.5-4.1-3.5c-1.9,0-3.2,0.1-4.2,1.8l-1.4-0.9c1.1-1.9,2.7-2.6,5.6-2.6
						c3.9,0,5.8,1.2,5.8,5.1v11.1h-1.8v-2c-0.9,1.7-2.5,2.2-4.6,2.2c-3.6,0-5.6-1.7-5.6-4.8S106.1,40.2,109.4,40.2z M114.1,41.8
						h-4.7c-2.8,0-3.7,1.3-3.7,3c0,2.3,1.6,3.1,3.8,3.1c2.6,0,4.6-0.9,4.6-4.5V41.8z"/>
					<path class="st2" d="M119,33.3h2.1v-3.5h1.8v3.5h4v1.6h-4v9c0,2.6,0.3,3.7,2.9,3.7h1.1v1.7h-1.1c-3.6,0-4.6-1.6-4.6-5v-9.5H119
						V33.3z"/>
				</g>
			</g>
			<g>
				<g>
					<path class="st2" d="M134.7,40.2h4.7v-2c0-2.7-1.1-3.5-4.1-3.5c-1.9,0-3.2,0.1-4.2,1.8l-1.4-0.9c1.1-1.9,2.7-2.6,5.6-2.6
						c3.9,0,5.8,1.2,5.8,5.1v11.1h-1.8v-2c-0.9,1.7-2.5,2.2-4.6,2.2c-3.6,0-5.6-1.7-5.6-4.8S131.3,40.2,134.7,40.2z M139.4,41.8
						h-4.7c-2.8,0-3.7,1.3-3.7,3c0,2.3,1.6,3.1,3.8,3.1c2.6,0,4.6-0.9,4.6-4.5V41.8z"/>
				</g>
			</g>
			<g>
				<g>
					<path class="st2" d="M158.6,46.9c-1.1,1.7-3,2.6-5.5,2.6c-4.3,0-6.8-2.6-6.8-7.1v-2.3c0-4.6,2.5-7,6.8-7c2.3,0,4.2,0.8,5.4,2.5
						l-1.4,1c-0.9-1.2-2.4-1.8-4-1.8c-3.2,0-5,1.9-5,5.4v2.3c0,3.2,1.5,5.5,5,5.5c1.6,0,3.2-0.5,4.1-2L158.6,46.9z"/>
					<path class="st2" d="M163.2,39.7v9.7h-1.8V33.3h1.8v2.2c0.7-1.5,2-2.4,4.1-2.4c2.1,0,3.5,0.8,4.5,2.2l-1.5,1.1
						c-0.8-1.1-1.8-1.6-3.2-1.6C164.6,34.7,163.2,36.7,163.2,39.7z"/>
					<path class="st2" d="M174.8,41.8v0.7c0,3.2,1.5,5.5,4.9,5.5c2,0,3.3-0.6,4.2-2l1.4,1c-1.1,1.8-2.9,2.6-5.5,2.6
						c-4.3,0-6.8-2.6-6.8-7.1v-2.3c0-4.6,2.2-7,6.2-7s6.2,2.5,6.2,7v1.6H174.8z M174.8,40.2h8.9v0c0-3.5-1.5-5.4-4.4-5.4
						S174.8,36.6,174.8,40.2L174.8,40.2z M180.4,26h2.1l-2.8,5.1H178L180.4,26z"/>
					<path class="st2" d="M199.8,27.2h1.8v22.2h-1.8v-2c-0.9,1.5-2.4,2.2-4.9,2.2c-4.2,0-6.3-2.7-6.3-7.1v-2.3c0-4.6,2.3-7,6.3-7
						c2.4,0,4,0.8,4.9,2.3V27.2z M199.8,42.5v-2.3c0-3.3-1.3-5.4-4.7-5.4c-3.1,0-4.6,1.9-4.6,5.4v2.3c0,3.4,1.5,5.5,4.6,5.5
						C198.6,47.9,199.8,45.6,199.8,42.5z"/>
					<path class="st2" d="M206.3,27.2h2.2v2.2h-2.2V27.2z M206.5,33.3h1.8v16.1h-1.8V33.3z"/>
					<path class="st2" d="M211.9,33.3h2.1v-3.5h1.8v3.5h4v1.6h-4v9c0,2.6,0.3,3.7,2.9,3.7h1.1v1.7h-1.1c-3.6,0-4.6-1.6-4.6-5v-9.5
						h-2.1V33.3z"/>
					<path class="st2" d="M228.9,49.5c-4.2,0-6.5-2.6-6.5-7.1v-2.3c0-4.6,2.4-7,6.5-7s6.5,2.5,6.5,7v2.3
						C235.4,46.8,233.2,49.5,228.9,49.5z M233.7,40.1c0-3.5-1.7-5.4-4.8-5.4c-3.1,0-4.8,1.9-4.8,5.4v2.3c0,3.4,1.5,5.4,4.8,5.4
						c3.1,0,4.8-2.1,4.8-5.4V40.1z"/>
				</g>
			</g>
		</g>
	</g>
	<g>
		<g>
			<rect x="252" y="20.3" class="st2" width="0.9" height="39.4"/>
		</g>
	</g>
</g>
</svg>
