<?xml version="1.0" encoding="utf-8"?>
<!-- Generator: Adobe Illustrator 23.0.3, SVG Export Plug-In . SVG Version: 6.00 Build 0)  -->
<svg version="1.1" id="Capa_1" xmlns="http://www.w3.org/2000/svg" xmlns:xlink="http://www.w3.org/1999/xlink" x="0px" y="0px"
	 viewBox="0 0 340 110" style="enable-background:new 0 0 340 110;" xml:space="preserve">
<style type="text/css">
	.st0{fill:#406EB3;}
	.st1{fill:#FFFFFF;}
	.st2{fill:#54565A;}
</style>
<title>logo</title>
<g>
	<g>
		<path class="st0" d="M96.3,73.4C96.3,85.8,86.1,96,73.7,96H28.5C16.1,96,6,85.8,6,73.4V28.2C6,15.8,16.1,5.6,28.5,5.6h45.2
			c12.4,0,22.6,10.2,22.6,22.6V73.4z"/>
	</g>
	<path class="st1" d="M58.9,65.6c-0.3,0-0.5-0.2-0.5-0.5V51.6c0-3.7-1.7-5.9-5.2-5.9c-3.1,0-5.3,2.2-5.3,5.6v13.8
		c0,0.3-0.2,0.5-0.5,0.5h-3.1c-0.3,0-0.5-0.2-0.5-0.5V51.6c0-3.7-1.7-5.9-5.2-5.9c-3.1,0-5.3,2.2-5.3,5.6v13.8
		c0,0.3-0.2,0.5-0.5,0.5h-3.1c-0.3,0-0.5-0.2-0.5-0.5V42.9c0-0.3,0.2-0.5,0.5-0.5H33c0.3,0,0.5,0.2,0.5,0.5V45h0
		c1.1-1.8,3.3-3.1,6.5-3.1c3.1,0,5.5,1.3,6.8,3.6h0c1.6-2.2,4-3.6,7.5-3.6c5.4,0,8.3,3.4,8.3,8.7v14.5c0,0.3-0.2,0.5-0.5,0.5H58.9z"
		/>
	<path class="st1" d="M69,37.2c-0.3,0-0.5-0.2-0.5-0.5v-3.5c0-0.3,0.2-0.5,0.5-0.5h3.3c0.3,0,0.5,0.2,0.5,0.5v3.5
		c0,0.3-0.2,0.5-0.5,0.5H69z M69.1,65.6c-0.3,0-0.5-0.2-0.5-0.5V42.9c0-0.3,0.2-0.5,0.5-0.5h3.1c0.3,0,0.5,0.2,0.5,0.5v22.2
		c0,0.3-0.2,0.5-0.5,0.5H69.1z"/>
	<g>
		<g>
			<g>
				<path class="st0" d="M129.9,86.7c1-1.4,2.7-2.2,5.2-2.2c4.8,0,7.7,3.1,7.7,8.6v2.5c0,5-2.5,8.7-7.7,8.7c-2.6,0-4.2-0.7-5.2-2
					v1.7h-3.1V77.4h3.1V86.7z M139.8,95.6v-2.5c0-3.7-1.8-5.9-4.9-5.9c-3.1,0-4.9,2.1-4.9,5.6v2.8c0,3.3,1.4,5.9,4.9,5.9
					C138.1,101.6,139.8,98.9,139.8,95.6z"/>
			</g>
		</g>
		<g>
			<g>
				<path class="st0" d="M162.7,104h-3.1v-1.9c-1,1.5-2.3,2.2-5.2,2.2c-4.1,0-7-2.2-7-7.6v-12h3.1v12c0,3.9,2.1,4.7,4.4,4.7
					c2.9,0,4.7-2,4.7-4.7v-12h3.1V104z"/>
			</g>
		</g>
		<g>
			<g>
				<path class="st0" d="M179,89.3c-1-1.3-2.1-2-4.8-2c-2.3,0-3.7,0.9-3.7,2.6c0,2.2,1.9,2.9,4.5,3c3.6,0.3,6.9,1.3,6.9,5.7
					c0,3.4-2.3,5.7-7.3,5.7c-3.9,0-6-1.2-7.4-3.2l2.3-1.6c1,1.4,2.4,2,5.2,2c2.6,0,4.1-1,4.1-2.7c0-2.1-1.2-2.8-5-3.1
					c-3.2-0.2-6.4-1.5-6.4-5.7c0-3.2,2.3-5.5,6.9-5.5c3.1,0,5.5,0.8,7,3.2L179,89.3z"/>
			</g>
		</g>
		<g>
			<g>
				<path class="st0" d="M200.6,101.1c-1.2,2.2-3.5,3.2-6.7,3.2c-5.3,0-8.3-3.4-8.3-8.7v-2.5c0-5.5,3.1-8.6,8.3-8.6
					c2.9,0,5.3,1,6.7,3l-2.4,1.7c-0.8-1.2-2.5-1.9-4.2-1.9c-3.3,0-5.2,2.2-5.2,5.9v2.5c0,3.3,1.5,5.9,5.2,5.9c1.8,0,3.5-0.6,4.3-2.2
					L200.6,101.1z"/>
			</g>
		</g>
		<g>
			<g>
				<path class="st0" d="M210.4,92.9h4.6v-2.2c0-2.7-1.3-3.4-4.3-3.4c-2.3,0-3.5,0.2-4.6,2l-2.3-1.6c1.4-2.2,3.3-3.2,7-3.2
					c4.9,0,7.3,1.6,7.3,6.2V104H215v-1.9c-1.1,1.8-2.4,2.2-4.9,2.2c-4.5,0-6.9-2.2-6.9-5.9C203.2,94.2,206.2,92.9,210.4,92.9z
					 M215,95.5h-4.6c-3,0-4.1,1-4.1,3c0,2.2,1.5,3,3.8,3c2.9,0,4.9-0.5,4.9-4.9V95.5z"/>
			</g>
		</g>
		<g>
			<g>
				<path class="st0" d="M237.6,101.1c-1.2,2.2-3.5,3.2-6.7,3.2c-5.3,0-8.3-3.4-8.3-8.7v-2.5c0-5.5,3.1-8.6,8.3-8.6
					c2.9,0,5.3,1,6.7,3l-2.4,1.7c-0.8-1.2-2.5-1.9-4.2-1.9c-3.3,0-5.2,2.2-5.2,5.9v2.5c0,3.3,1.5,5.9,5.2,5.9c1.8,0,3.5-0.6,4.3-2.2
					L237.6,101.1z"/>
			</g>
		</g>
		<g>
			<g>
				<path class="st0" d="M251.6,88.9c-0.8-1.1-1.8-1.6-3.2-1.6c-2.4,0-4.1,1.8-4.1,4.7V104h-3.1V84.8h3.1v1.9
					c0.8-1.3,2.1-2.2,4.5-2.2c2.6,0,4.3,0.9,5.5,2.6L251.6,88.9z"/>
			</g>
		</g>
		<g>
			<g>
				<path class="st0" d="M270.8,101.1c-1.3,2.4-3.4,3.2-6.7,3.2c-5.2,0-8.3-3.4-8.3-8.7v-2.5c0-5.5,2.6-8.6,7.6-8.6
					c5.1,0,7.6,3.1,7.6,8.6v2h-12.2v0.5c0,3.3,1.6,5.9,4.9,5.9c2.5,0,3.8-0.7,4.6-2.2L270.8,101.1z M258.9,92.4h9.1
					c-0.2-3.2-1.6-5.2-4.5-5.2C260.5,87.2,259.1,89.2,258.9,92.4z M264.2,76.1h3.7l-3.5,6.1h-2.9L264.2,76.1z"/>
			</g>
		</g>
		<g>
			<g>
				<path class="st0" d="M288.1,77.4h3.1V104h-3.1v-1.7c-1,1.3-2.7,2-5.2,2c-5.2,0-7.7-3.7-7.7-8.7v-2.5c0-5.5,2.9-8.6,7.7-8.6
					c2.5,0,4.2,0.8,5.2,2.2V77.4z M288.1,95.9v-2.8c0-3.6-1.8-5.9-4.9-5.9c-3.2,0-4.9,2.2-4.9,5.9v2.5c0,3.3,1.7,5.9,4.9,5.9
					C286.6,101.6,288.1,99.1,288.1,95.9z"/>
			</g>
		</g>
		<g>
			<g>
				<path class="st0" d="M297,77.4h3.5v3.5H297V77.4z M297.2,84.8h3.1V104h-3.1V84.8z"/>
			</g>
		</g>
		<g>
			<g>
				<path class="st0" d="M304.7,84.8h2.5v-4.2h3.1v4.2h4.4v2.8h-4.4v9.8c0,2.7,0.3,3.8,2.9,3.8h1.5v2.9H313c-4.6,0-5.9-1.9-5.9-5.9
					V87.5h-2.5V84.8z"/>
			</g>
		</g>
		<g>
			<g>
				<path class="st0" d="M334,95.6c0,5-2.5,8.7-8,8.7c-5.1,0-8-3.4-8-8.7v-2.5c0-5.5,3-8.6,8-8.6c5.1,0,8,3.1,8,8.6V95.6z M331,95.6
					v-2.5c0-3.7-1.8-5.9-4.9-5.9c-3.2,0-4.9,2.2-4.9,5.9v2.5c0,3.3,1.4,5.9,4.9,5.9C329.3,101.6,331,98.9,331,95.6z"/>
			</g>
		</g>
	</g>
	<g>
		<g>
			<path class="st2" d="M125.6,31.5h2.7v33.4h-2.7v-3c-1.4,2.2-3.7,3.2-7.3,3.2c-6.3,0-9.4-4.1-9.4-10.7V51c0-6.9,3.4-10.6,9.4-10.6
				c3.6,0,6,1.2,7.3,3.4V31.5z M125.6,54.5V51c0-4.9-1.9-8.2-7.1-8.2c-4.6,0-7,2.9-7,8.1v3.5c0,5.1,2.3,8.2,7,8.2
				C123.9,62.7,125.6,59.3,125.6,54.5z"/>
		</g>
	</g>
	<g>
		<g>
			<path class="st2" d="M143.8,51.1h7.1v-3c0-4.1-1.6-5.2-6.1-5.2c-2.9,0-4.8,0.2-6.3,2.8l-2-1.4c1.7-2.9,4.1-3.9,8.4-3.9
				c5.9,0,8.7,1.8,8.7,7.7v16.8h-2.7v-3c-1.4,2.6-3.8,3.3-6.9,3.3c-5.4,0-8.4-2.6-8.4-7.2S138.8,51.1,143.8,51.1z M150.8,53.5h-7.1
				c-4.2,0-5.6,1.9-5.6,4.5c0,3.4,2.4,4.6,5.8,4.6c3.9,0,6.9-1.4,6.9-6.8V53.5z"/>
			<path class="st2" d="M158.1,40.7h3.1v-5.3h2.7v5.3h6v2.5h-6v13.6c0,3.9,0.4,5.6,4.4,5.6h1.6v2.6h-1.7c-5.4,0-6.9-2.4-6.9-7.5
				V43.1h-3.1V40.7z"/>
		</g>
	</g>
	<g>
		<g>
			<path class="st2" d="M181.7,51.1h7.1v-3c0-4.1-1.6-5.2-6.1-5.2c-2.9,0-4.8,0.2-6.3,2.8l-2-1.4c1.7-2.9,4.1-3.9,8.4-3.9
				c5.9,0,8.7,1.8,8.7,7.7v16.8h-2.7v-3c-1.4,2.6-3.8,3.3-6.9,3.3c-5.4,0-8.4-2.6-8.4-7.2S176.7,51.1,181.7,51.1z M188.8,53.5h-7.1
				c-4.2,0-5.6,1.9-5.6,4.5c0,3.4,2.4,4.6,5.8,4.6c3.9,0,6.9-1.4,6.9-6.8V53.5z"/>
		</g>
	</g>
	<g>
		<g>
			<path class="st2" d="M217.8,61.3c-1.6,2.6-4.5,3.9-8.2,3.9c-6.5,0-10.2-3.9-10.2-10.7V51c0-6.9,3.8-10.6,10.2-10.6
				c3.5,0,6.4,1.3,8.2,3.7l-2.1,1.5c-1.4-1.8-3.6-2.7-6.1-2.7c-4.8,0-7.6,2.9-7.6,8.1v3.5c0,4.8,2.2,8.2,7.6,8.2
				c2.5,0,4.7-0.8,6.1-3L217.8,61.3z"/>
			<path class="st2" d="M224.6,50.3v14.6H222V40.7h2.7V44c1-2.2,3.1-3.6,6.1-3.6c3.1,0,5.2,1.2,6.8,3.3l-2.2,1.6
				c-1.3-1.6-2.7-2.5-4.8-2.5C226.7,42.9,224.6,45.9,224.6,50.3z"/>
			<path class="st2" d="M242.2,53.5v1c0,4.8,2.2,8.2,7.4,8.2c3,0,4.9-0.9,6.3-3l2.1,1.5c-1.7,2.7-4.4,3.9-8.3,3.9
				c-6.4,0-10.2-4-10.2-10.7V51c0-6.9,3.3-10.6,9.3-10.6c6.1,0,9.3,3.7,9.3,10.6v2.5H242.2z M242.2,51h13.4v0c0-5.3-2.3-8.1-6.7-8.1
				S242.2,45.8,242.2,51L242.2,51z M250.6,29.8h3.2l-4.3,7.7H247L250.6,29.8z"/>
			<path class="st2" d="M279.7,31.5h2.7v33.4h-2.7v-3c-1.4,2.2-3.7,3.2-7.3,3.2c-6.3,0-9.4-4.1-9.4-10.7V51c0-6.9,3.4-10.6,9.4-10.6
				c3.6,0,6,1.2,7.3,3.4V31.5z M279.7,54.5V51c0-4.9-1.9-8.2-7.1-8.2c-4.6,0-7,2.9-7,8.1v3.5c0,5.1,2.3,8.2,7,8.2
				C278,62.7,279.7,59.3,279.7,54.5z"/>
			<path class="st2" d="M289.6,31.5h3.2v3.2h-3.2V31.5z M289.9,40.7h2.7v24.2h-2.7V40.7z"/>
			<path class="st2" d="M297.9,40.7h3.1v-5.3h2.7v5.3h6v2.5h-6v13.6c0,3.9,0.4,5.6,4.4,5.6h1.6v2.6h-1.7c-5.4,0-6.9-2.4-6.9-7.5
				V43.1h-3.1V40.7z"/>
			<path class="st2" d="M323.6,65.2c-6.2,0-9.8-3.9-9.8-10.7V51c0-6.9,3.6-10.6,9.8-10.6s9.8,3.7,9.8,10.6v3.5
				C333.4,61.1,330.1,65.2,323.6,65.2z M330.7,51c0-5.3-2.6-8.1-7.2-8.1c-4.6,0-7.2,2.9-7.2,8.1v3.5c0,5.1,2.3,8.2,7.2,8.2
				c4.7,0,7.2-3.1,7.2-8.2V51z"/>
		</g>
	</g>
</g>
</svg>
