<svg xmlns="http://www.w3.org/2000/svg" xmlns:xlink="http://www.w3.org/1999/xlink" viewBox="0 0 140 190"><defs><style>.cls-1{isolation:isolate;}.cls-2{fill:#26478d;}.cls-3{fill:#ccc;mix-blend-mode:multiply;}.cls-4{fill:#43225d;}.cls-5{fill:#ff97a8;}.cls-6{fill:#bfeaf5;}.cls-10,.cls-7{fill:#1c1c1b;}.cls-7,.cls-9{opacity:0.1;}.cls-8{fill:#380a37;}.cls-11{fill:#ff5d7b;}.cls-12{fill:#fff;}.cls-13,.cls-21{fill:#375696;}.cls-14{fill:url(#_41_3);}.cls-15{fill:#d1d8e7;}.cls-16{fill:#ececec;}.cls-17{fill:#b5c0d8;}.cls-18{fill:#8c9dc3;}.cls-19{fill:url(#_41_3-2);}.cls-20{fill:#c7cfe1;}.cls-21{opacity:0.3;}.cls-22{fill:#efeff6;}.cls-23{fill:#97a7c8;}</style><linearGradient id="_41_3" x1="-3859.56" y1="-1138.86" x2="-3848.92" y2="-1149.5" gradientTransform="matrix(-0.87, 0.5, 0.5, 0.87, -2706.48, 3022.15)" gradientUnits="userSpaceOnUse"><stop offset="0" stop-color="#fff"/><stop offset="0.45" stop-color="#fafbfc"/><stop offset="1" stop-color="#ebeef5"/></linearGradient><linearGradient id="_41_3-2" x1="-3482.17" y1="-1420.18" x2="-3481.88" y2="-1411.53" gradientTransform="matrix(-0.89, 0.45, 0.45, 0.89, -2388.56, 2887.42)" xlink:href="#_41_3"/></defs><title>D-MDCSH-prototipo-v5</title><g class="cls-1"><g id="Capa_8" data-name="Capa 8"><path class="cls-2" d="M60.81,17.36A15.23,15.23,0,0,0,57,22.08c-3.66,7-2.94,15.76-2.34,23.54.91,11.79.74,24.88-4.27,35.53a36.88,36.88,0,0,1-13.6,15.6c-6.51,4.12-14.61,4.68-21.26,8.83-5.89,3.68-10.87,9.87-11.23,17.23-.9,18.24,21.75,22.78,34.57,24.64,16.32,2.37,33.61,0,48.35-7.39,16.12-8.09,28.89-22.56,37.05-39.3,7.34-15.06,12.33-33.07,10-50.41C132.1,33.74,120.47,19.58,106,13.41,92.24,7.54,72.62,7.47,60.81,17.36Z"/><path class="cls-3" d="M41.93,171.15c-14.64,0-26.51,2.12-26.51,4.73s11.87,4.73,26.51,4.73,26.51-2.11,26.51-4.73S56.57,171.15,41.93,171.15Z"/><path class="cls-4" d="M39.94,85.74s-.8-1.73-3.47-1.27c-2.18.38-1.5,3.71-3,4.08s-1.88-.75-3.19-.45a3.17,3.17,0,0,0-2.79,3.14c0,1.14.55,2.86,4,2.69,1.11-.06,1.94,1.48,3.46,1.3a12.69,12.69,0,0,0,5.88-2C42.58,92.2,45,84.17,39.94,85.74Z"/><path class="cls-5" d="M40.82,94.82c2.5-2,13.22,5.31,14.14,4.51,1.81-1.58-2.49-14.19.51-14.9,2.57-.62,8.78,14.67,3.74,19.64-3.88,3.83-11,.37-13-.7S39,96.32,40.82,94.82Z"/><path class="cls-5" d="M54.48,85.52a8.57,8.57,0,0,1-1.32-1.14c-.26-.56,0-.84,0-.84s-.81-1.18.12-1.42c1.5-.38,1.93,0,2.61,1.15S57.33,85.88,54.48,85.52Z"/><path class="cls-6" d="M40.82,94.82c1.78-1.42,7.74,1.88,11.35,3.61a7.13,7.13,0,0,1-.82,7,24.39,24.39,0,0,1-5.14-2C44.17,102.31,39,96.32,40.82,94.82Z"/><path class="cls-6" d="M53.65,174.55a13.08,13.08,0,0,0,.25-3l3.47-.83s-.53,1.71.07,2.29c.26.25,4.31,1.13,4.46,1.53.25.66-6.82,2.36-8.16,2C53,176.37,53.29,175.52,53.65,174.55Z"/><path class="cls-4" d="M53.73,174.2c.79-.12,1.64.26,2.89,0,1.07-.19,1.2-.69,1.16-1,1,.35,4,1,4.12,1.38.25.66-6.82,2.36-8.16,2-.7-.19-.45-1-.09-2A1.17,1.17,0,0,0,53.73,174.2Z"/><path class="cls-6" d="M15.24,150.16a13.05,13.05,0,0,0,2.94-.48l1.64,3.16s-1.79-.1-2.21.62c-.18.32-.06,4.44-.41,4.69-.58.4-3.94-6-3.9-7.41C13.32,150,14.2,150.05,15.24,150.16Z"/><path class="cls-4" d="M15.6,150.15a23.2,23.2,0,0,0,.66,2.81c.45,1,1,1,1.29.87-.09,1.08-.05,4.11-.35,4.32-.58.4-3.94-6-3.9-7.41,0-.73.9-.69,1.94-.58A1.09,1.09,0,0,0,15.6,150.15Z"/><path class="cls-5" d="M36.54,144.08c.88-1-1.95-14.24-2.33-23-.16-3.73,24.46,2,25.74,6.92a73.81,73.81,0,0,1-2.7,44.58c-.34.89-3.39.65-3.39.65-.34-1.19-2.71-19.06-.42-26,.84-2.55-4.91-19.81-5.45-19.61s.11,5.55-.19,10.76c-.55,9.49,1.12,18.51-30,14.91l-.79-3.28S35.49,145.31,36.54,144.08Z"/><path class="cls-7" d="M47.8,138.3c.21-3.69,0-7.48,0-9.43-1.34-3.73-3-5.67-2.89.44.1,6.72-2.35,10.08-2.57,12.85s-.4,4.44-3.09,5.5-20,4.28-20.53,5a1.73,1.73,0,0,0-.27.58C49,156.69,47.25,147.73,47.8,138.3Z"/><path class="cls-7" d="M57.46,135.63C59.4,140.5,62.28,143,60,150.4s-2.45,3.41-3.33,13.45c-.34,4,.43,9.16.6,8.7A73.81,73.81,0,0,0,60,128a29.81,29.81,0,0,0-1.56-4.35C57.33,127.71,56.38,132.92,57.46,135.63Z"/><path class="cls-7" d="M46.87,103.7c-1-1.73-1.57-3.43-.81-4.1s6,4.46,7.37,6.18A20.34,20.34,0,0,1,46.87,103.7Z"/><path class="cls-8" d="M27.49,91.24a3,3,0,0,1,1.77-2.79A3.71,3.71,0,0,0,30,91.29c.61.78,1.87.35,4.22-.78s2-.68,3.82-.16c1.32.38,3.75-1.23,4.91-2.09-.11,2-1.19,4.43-2.08,5a12.69,12.69,0,0,1-5.88,2c-1.52.18-2.35-1.36-3.46-1.3C28,94.1,27.49,92.38,27.49,91.24Z"/><path class="cls-6" d="M33.48,96c3.35-2.13,8.84-2.88,12-.7,2.4,1.64,1.65,5.2,2,7,.43,2.53,2.94,6.61,3.66,9.6a2.4,2.4,0,0,0,.21.51c-2.73.77-10.26,2.49-16.21,1.71a14.54,14.54,0,0,0,.77-3.17c.43-4.18-1.07-5.55-2.37-7.7C32.9,102.28,30.71,97.79,33.48,96Z"/><g class="cls-9"><path class="cls-10" d="M35.88,111c.43-4.18-1.07-5.55-2.37-7.7-.61-1-2.8-5.48,0-7.24a12.8,12.8,0,0,1,3-1.35c.09,1.07-1,5.88,1.18,7,1.44.73,5.37-1,6.49.13s-4.1,3.9-4.69,4.51c-.3.32.11,4.28.58,8a29.34,29.34,0,0,1-4.9-.16A14.54,14.54,0,0,0,35.88,111Z"/></g><path class="cls-4" d="M60,128c-1.13-4.38-4.32-10.37-9-16.89-5.44,2.53-13,3-15.82,3.06a26.3,26.3,0,0,0-.9,6.91c.28,6.64,2,15.79,2.4,20.32,2,.06,5.8.11,10.17-.14,1.83-.1,3.76-.26,5.68-.5a47.12,47.12,0,0,0,9.38-2A70.36,70.36,0,0,0,60,128Z"/><path class="cls-11" d="M37.41,91.19V95c0,.62,1.56,2.21,2.54,1.41.28-.24-.11-1.09-.38-1.74l-.78-3.24Z"/><path class="cls-7" d="M39.24,93.35a2.21,2.21,0,0,1-1.64-1.53l1.29.06Z"/><path class="cls-5" d="M37.44,88.92l-.21,1.45A2.18,2.18,0,0,0,39,92.86a1.87,1.87,0,0,0,2.23-1.79,4.5,4.5,0,0,0-1.05-2.75C39.44,87.1,37.81,87.26,37.44,88.92Z"/><path class="cls-5" d="M37.5,90.31a1.56,1.56,0,0,1-.1-.37c0-.24-.16-.59-.49-.35s-.19,1.63.43,1.62C37.8,91.2,37.62,90.62,37.5,90.31Z"/><path class="cls-5" d="M40.56,89.84a1.7,1.7,0,0,0,0-.39c0-.25,0-.62.38-.47.56.22.59,1.54,0,1.68C40.49,90.77,40.52,90.16,40.56,89.84Z"/><path class="cls-12" d="M38.88,91a4.36,4.36,0,0,0,1.4-.2,1.71,1.71,0,0,1-.39.86C39.6,91.85,39.18,91.55,38.88,91Z"/><path class="cls-7" d="M39.09,92.38a2.83,2.83,0,0,0,1.53-.44A3,3,0,0,0,41.2,91v.06A1.87,1.87,0,0,1,39,92.86a2.13,2.13,0,0,1-1.56-1.22A2.63,2.63,0,0,0,39.09,92.38Z"/><path class="cls-8" d="M34.21,121.05a26.3,26.3,0,0,1,.9-6.91,62.05,62.05,0,0,0,6.29-.52,100.68,100.68,0,0,0,.89,15.32c.61,4.54,1.31,9.19,1.7,12.41-3.17.11-5.84.06-7.38,0C36.18,136.84,34.49,127.69,34.21,121.05Z"/><path class="cls-13" d="M61.36,102.78l2.32-.37a1.49,1.49,0,0,1,1.31.46l4,4.45a1.45,1.45,0,0,1,.32,1.35l-.7,2.54Z"/><path class="cls-14" d="M60.91,101.7s14.48,15.91,20.28,16.19-3.73,8.37-8.77,6.56S52.76,107.8,52.76,107.8Z"/><path class="cls-12" d="M54.63,82.49c9.51-9.74,15.61-23.17,19.47-32.1l32.55,43A134.82,134.82,0,0,0,68.25,102a17.23,17.23,0,0,1-9.12-6.89A26.89,26.89,0,0,1,54.63,82.49Z"/><path class="cls-15" d="M95.72,78.93l10.93,14.44A134.82,134.82,0,0,0,68.25,102,17.49,17.49,0,0,1,61,97.4c8.91-4,17.69-7.64,22.07-9.89A85.72,85.72,0,0,0,95.72,78.93Z"/><path class="cls-16" d="M42.57,93c2.63-2.1,6.2-5,10-8.54.7-.64,1.38-1.31,2.05-2a26.89,26.89,0,0,0,4.5,12.58A17.23,17.23,0,0,0,68.25,102c-.64.25-1.29.51-1.93.78A93.55,93.55,0,0,0,54,108.89a5.72,5.72,0,0,1-7.48-1.48l-4.91-6.54A5.66,5.66,0,0,1,42.57,93Z"/><ellipse class="cls-17" cx="91.07" cy="71.26" rx="6.37" ry="27.27" transform="translate(-24.55 69.09) rotate(-36.97)"/><path class="cls-18" d="M75.81,58.41c-2-4.56-2.53-7.89-1.13-8.94,2.82-2.1,12.44,5.94,21.5,18l.42.57C90.56,64.19,82.8,60,75.81,58.41Z"/><path class="cls-19" d="M106.35,67.84,91.05,81.72c-1.52-1.87-3-3.9-4.57-6-2-2.89-3.85-5.74-5.4-8.44l17.62-10A6,6,0,0,1,106.51,59l.71,1A5.94,5.94,0,0,1,106.35,67.84Z"/><path class="cls-20" d="M52.76,107.8,57.85,104l3.53-1.77c.55.59,1.54,1.64,2.81,2.92l-7.68,6.35C54.28,109.34,52.76,107.8,52.76,107.8Z"/><path class="cls-18" d="M61,97.4A17.49,17.49,0,0,0,68.25,102c-.64.25-1.29.51-1.93.78A93.55,93.55,0,0,0,54,108.89a5.72,5.72,0,0,1-7.48-1.48l-1.56-2.07C49.6,102.69,55.31,100,61,97.4Z"/><path class="cls-15" d="M106.65,59.22l.57.81a5.94,5.94,0,0,1-.87,7.81L91.05,81.72c-1.52-1.87-3-3.9-4.57-6-.32-.45-.63-.91-.94-1.36,4.7-3.32,11.57-6.61,16.78-10.44C105.14,61.81,106.24,60.25,106.65,59.22Z"/><path class="cls-12" d="M75.12,58.88c-2.37-5.37-2.68-8.75-.93-10.06,3.07-2.3,10.63,3.81,17.87,12.21l-1.45.82a73.76,73.76,0,0,0-8-8.07c-4.15-3.47-6.51-4.16-7.32-3.7l-.07.05c-.74.55-.8,3,1.45,8.1A68.56,68.56,0,0,0,81.41,67c1.55,2.47,3.3,5,5.21,7.55C88.33,76.87,90.09,79,91.83,81a73.2,73.2,0,0,0,7.75,7.74c4.28,3.57,6.66,4.2,7.39,3.65s.8-3-1.45-8.1A74.32,74.32,0,0,0,99.7,73.87l1.23-1.11c6.22,9.42,10.16,18.6,7,20.95l-.24.16c-4,2.26-14.19-7.38-22.41-18.3A89.83,89.83,0,0,1,75.12,58.88Z"/><path class="cls-21" d="M37.87,103.15c.89-.31,2.3-3-.38-5.77-.2-.2,0,3.32-.6,3.16l.6-3.16S37.87,100.79,37.87,103.15Z"/><path class="cls-5" d="M32.58,97.13c1.16-3.38,5.82-.38,5.59,2.34-.26,3.16-1,9.52.41,10.9,1.78,1.75,14.12-4,15.37-3,3,2.36-10.5,12.12-17,9.52C32.41,115.08,28.54,108.9,32.58,97.13Z"/><path class="cls-7" d="M37.8,107.69c-1.76.27-6-1.46-6-1.46l5.92-1.12C37.74,106,37.74,106.9,37.8,107.69Z"/><path class="cls-6" d="M32.58,97.13c1.16-3.38,5.82-.38,5.59,2.34-.14,1.71-.42,4.34-.42,6.63-1.66.26-4.8.61-6.86-.12A28.16,28.16,0,0,1,32.58,97.13Z"/><g class="cls-9"><path class="cls-10" d="M34.47,105.56c0-1.16.44-2.88.59-5.13a13.74,13.74,0,0,0-.87-4.78c1.77-.24,4.15,1.86,4,3.82-.14,1.71-.42,4.34-.42,6.63a25.65,25.65,0,0,1-3.26.31C34.48,106.08,34.48,105.78,34.47,105.56Z"/></g><path class="cls-7" d="M31.42,110.28c1,1.82,2.42,3.91,3.77,4.38,2.46.86,2.9,0,5.75,0s5.69-2,8.43-3.39c2.19-1.13,3.66-2.41,4.9-2.45-1.1,3.49-11.76,10.33-17.33,8.1A9.52,9.52,0,0,1,31.42,110.28Z"/><path class="cls-5" d="M52.84,107.49a4.19,4.19,0,0,1,2-1.22.89.89,0,0,1,.82.28s1.38-.32,1.35.58c0,1.43-.58,1.67-1.85,1.9S52,109.4,52.84,107.49Z"/><path class="cls-22" d="M104.79,45.29a4.42,4.42,0,0,0,.12-1.88c-.42-2.76-1.49-10.7-.31-11.92,1.43-1.48,18.25-4,19.08-2.35s5.3,13.39-.2,14.5a76.53,76.53,0,0,1-12.34,1,7.27,7.27,0,0,0-3,.73l-3.91,1.92Z"/><ellipse class="cls-23" cx="119.56" cy="36.39" rx="1.4" ry="1.39"/><ellipse class="cls-23" cx="114.62" cy="36.77" rx="1.4" ry="1.39"/><ellipse class="cls-23" cx="109.69" cy="37.15" rx="1.4" ry="1.39"/><path class="cls-16" d="M117.52,72.62a5.65,5.65,0,0,0,1.34,1.29l-.77,2,2.31.9.77-1.94a5.81,5.81,0,0,0,1.86,0l.84,1.91,2.27-1-.83-1.92a5.46,5.46,0,0,0,1.29-1.34l2,.77.91-2.3-2-.77a5.29,5.29,0,0,0,0-1.86l1.93-.83-1-2.27-1.93.84a5.51,5.51,0,0,0-1.34-1.3l.77-1.94-2.31-.91-.77,2a5.29,5.29,0,0,0-1.86,0L120.14,62l-2.27,1,.83,1.92a5.43,5.43,0,0,0-1.29,1.33l-2-.77-.91,2.31,2,.76a5.54,5.54,0,0,0,0,1.86l-1.92.83,1,2.27Zm1.21-1.88a3.57,3.57,0,1,1,4.7,1.85A3.56,3.56,0,0,1,118.73,70.74Z"/><polygon class="cls-12" points="117.78 84.84 128.99 88.2 126.43 92.58 117.24 86.85 117.78 84.84"/><polygon class="cls-12" points="92.37 46.82 91.48 39.92 95.05 39.5 93.94 46.99 92.37 46.82"/><polygon class="cls-12" points="125.19 51.12 133.88 46.12 135.74 49.26 126.21 52.92 125.19 51.12"/></g></g></svg>