<svg xmlns="http://www.w3.org/2000/svg" viewBox="0 0 91.57 91.57"><defs><style>.cls-1{fill:none;}.cls-2{fill:#d4d4d4;}.cls-3{fill:#b0b0b0;}.cls-4{fill:#ffae95;}.cls-5{fill:#933227;}.cls-6{fill:#ff5e4b;}.cls-7{fill:#3e275c;}.cls-8{fill:#ff97a7;}.cls-9{fill:#331239;}.cls-10{fill:#8db4de;}.cls-11{fill:#a289e8;}.cls-12{fill:#9bcbe9;}.cls-13{fill:#b0d5ed;}.cls-14{fill:#c1ddf1;}.cls-15{fill:#e45d79;}.cls-16{fill:#533497;}.cls-17{fill:#fff;}.cls-18{fill:#ff9680;}.cls-19{fill:#ffcb37;}.cls-20{fill:#ffefd1;}.cls-21{fill:#e8d1b2;}</style></defs><title>mispedidos_contacto</title><g id="Capa_2" data-name="Capa 2"><g id="Bootstrap_grid"><rect class="cls-1" width="91.57" height="91.57"/><rect class="cls-2" x="73.23" y="50.25" width="1.95" height="33.57" transform="translate(148.4 134.08) rotate(-180)"/><rect class="cls-3" x="72.75" y="50.25" width="0.47" height="33.57" transform="translate(145.98 134.08) rotate(-180)"/><rect class="cls-2" x="59.67" y="50.25" width="1.95" height="33.57" transform="translate(121.29 134.08) rotate(-180)"/><rect class="cls-3" x="59.2" y="50.25" width="0.47" height="33.57" transform="translate(118.87 134.08) rotate(-180)"/><rect class="cls-3" x="59.44" y="82.09" width="13.79" height="1.74" transform="translate(132.66 165.91) rotate(-180)"/><polygon class="cls-4" points="48.75 61.84 35.21 61.84 29.37 39.88 42.6 39.88 48.75 61.84"/><polygon class="cls-2" points="34.72 83.79 33.78 83.79 33.73 62.88 34.67 62.88 34.72 83.79"/><polygon class="cls-3" points="35.18 83.79 34.72 83.79 34.67 62.88 35.14 62.88 35.18 83.79"/><polygon class="cls-2" points="45.87 83.79 44.93 83.79 44.78 63.41 45.72 63.41 45.87 83.79"/><polygon class="cls-3" points="46.34 83.79 45.87 83.79 45.72 63.41 46.19 63.41 46.34 83.79"/><rect class="cls-2" x="47.54" y="62.25" width="0.94" height="21.59"/><rect class="cls-3" x="48.48" y="62.25" width="0.47" height="21.59"/><rect class="cls-2" x="56.48" y="62.09" width="0.94" height="21.59"/><rect class="cls-3" x="57.41" y="62.09" width="0.47" height="21.59"/><rect class="cls-5" x="43.78" y="61.84" width="15.29" height="1.81"/><polygon class="cls-6" points="29.19 39.88 33.75 63.65 47.12 63.65 47.12 61.84 35.21 61.84 30.86 39.89 29.19 39.88"/><path class="cls-7" d="M58,83.84a3.81,3.81,0,0,0-1.35-.74c.16.11.32.27.06.33a1.92,1.92,0,0,1-1.45-.35,1.88,1.88,0,0,0-.14.68C55.11,84,57.92,84.32,58,83.84Z"/><path class="cls-8" d="M56.7,83.43c.26-.06.1-.22-.06-.33-.33-.12-.62-.2-.68-.24a.4.4,0,0,1-.2-.23l-.18,0s-.3.44-.33.5A1.92,1.92,0,0,0,56.7,83.43Z"/><path class="cls-7" d="M54.17,84.17c0-.14-.8-.56-1.35-.75.16.11.32.27.06.33a2,2,0,0,1-1.45-.34,1.83,1.83,0,0,0-.14.67C51.29,84.34,54.11,84.65,54.17,84.17Z"/><path class="cls-8" d="M52.88,83.75c.26-.06.1-.22-.06-.33l-.68-.23a.4.4,0,0,1-.2-.24l-.18,0s-.3.44-.33.5A2,2,0,0,0,52.88,83.75Z"/><path class="cls-7" d="M42.16,50c-.89,3.37.48,3.12.19,6.72-.39,4.95,13.84,5.44,13.84,5.44s-.9,17.75-1.15,20.5l1.13.11s6.65-16.47,4.14-23.66c-1.37-3.94-10.77-5.83-10.77-5.83L47,49.4A21.82,21.82,0,0,1,42.16,50Z"/><path class="cls-9" d="M36.2,49.87c-2.37,6.29-1.88,7.41-.79,9.17,1.4,2.27,4.63,2.47,7.78,2.49,2.64,0,4.94.23,4.94.23S51,79.51,51,82.58c0,.45,1.07,1.17,1.16.12.23-2.94.7-11.86,1.83-21.51.6-5.18-10.58-6.64-10.58-6.64L42.16,50S39.07,49.83,36.2,49.87Z"/><path class="cls-10" d="M59.81,45.65c-1.39-.24-8.07-.77-8.07-.77s-3,1.74-1.58,2.43,3.28,1.07,5.69,1.94,6.21-.49,6.21-.49S61.2,45.9,59.81,45.65Z"/><path class="cls-10" d="M52.27,45.7s-2.17-4.84-2.88-6.21a15.23,15.23,0,0,0-1.76-2.69,4.66,4.66,0,0,0-3.48-1.1c.22,1.62,4.81,9.71,5.53,11.12S52.27,45.7,52.27,45.7Z"/><path class="cls-7" d="M45.7,32.43a8,8,0,0,0-2-4.34c-.58-.61-1.92-1.36-2.58-.54a.83.83,0,0,1-.21.06h0c-2.81-.53-4.87,2.26-6,4.44-1.4,2.74-2.25,6.12-5.05,7.83a.2.2,0,0,0-.08.28c2.85,3.86,8.37,4.92,12.74,3.33a.23.23,0,0,0,.11-.08.21.21,0,0,0,.27-.09C44.87,40.23,46.26,36.12,45.7,32.43Z"/><path class="cls-11" d="M42.18,27.22a3.61,3.61,0,0,1,1.17.79,5.75,5.75,0,0,1,.89,1.08,7.73,7.73,0,0,1,.66,1.24,4.6,4.6,0,0,1,.25.65,4.73,4.73,0,0,1,.2.67,10.8,10.8,0,0,1,.29,2.79,13.71,13.71,0,0,1-.09,1.42c0,.47-.11.94-.19,1.41a10.8,10.8,0,0,0,.58-2.82,8.87,8.87,0,0,0-.21-2.9,7.62,7.62,0,0,0-1.24-2.64A4.25,4.25,0,0,0,42.18,27.22Z"/><path class="cls-12" d="M47.05,36.34c-.39,0-1.76-1-6.9-.65-1,.07-4.62.6-6.47,2.62-.74.8,2.62,12.09,2.45,12.77,7.46,2.18,10.16.16,11.47-.3C47.77,50,47.05,36.34,47.05,36.34Z"/><path class="cls-13" d="M40.15,35.69l-.53.05c-1.42.19-4.33.81-5.94,2.57-.74.8,2.62,12.09,2.45,12.77a22.07,22.07,0,0,0,5.88,1h.65s-3.29-6-3.6-8.19C38.77,41.84,40.15,35.69,40.15,35.69Z"/><path class="cls-14" d="M35.23,37.11a3.8,3.8,0,0,0-2.3,3.76c0,2.55.83,7.31,3.22,9.18,1.77,1.38,1.33-3.93,1.33-3.93s-1-.48-1.47-3.54C35.91,41.84,36.67,38.34,35.23,37.11Z"/><path class="cls-8" d="M41.64,33.34a15.78,15.78,0,0,1,.15,2.53c-.11.26-.55.59-.8,0a8.36,8.36,0,0,1,0-2.56Z"/><path class="cls-15" d="M41.8,35a.8.8,0,0,1-.93.09c0-.41,0-.88,0-1.23h.79C41.73,34.19,41.77,34.62,41.8,35Z"/><path class="cls-8" d="M40.13,33.31a4.08,4.08,0,0,1-.14-1.2,1.24,1.24,0,0,1,1.29-1.27.62.62,0,0,0,.33,0,3.32,3.32,0,0,1,1.21.26c.38.23.41.76.44,1.16A2.9,2.9,0,0,1,43,33.68a1.85,1.85,0,0,1-1.19.62C40.71,34.32,40.39,34.06,40.13,33.31Z"/><path class="cls-7" d="M40.09,33.5h0L40,32h0a.73.73,0,0,0-.68.78h0A.73.73,0,0,0,40.09,33.5Z"/><path class="cls-7" d="M43.44,32.45s-2.36-.18-3.39-1.32,2.17-2,2.17-2S44,30.62,43.44,32.45Z"/><path class="cls-7" d="M43.1,33.62h0l.13-1.47h0a.75.75,0,0,1,.67.8h0A.73.73,0,0,1,43.1,33.62Z"/><path class="cls-7" d="M43.71,32.36a2,2,0,0,0-1.77-2.23,1.9,1.9,0,0,0-2.33,2H40a1.73,1.73,0,0,1,.53-1.25,1.74,1.74,0,0,1,2.79,1.48Z"/><rect class="cls-2" x="31.45" y="50.25" width="1.95" height="33.57" transform="translate(64.84 134.08) rotate(-180)"/><rect class="cls-3" x="30.98" y="50.25" width="0.47" height="33.57" transform="translate(62.43 134.08) rotate(-180)"/><rect class="cls-2" x="17.89" y="50.25" width="1.95" height="33.57" transform="translate(37.73 134.08) rotate(-180)"/><rect class="cls-3" x="17.42" y="50.25" width="0.47" height="33.57" transform="translate(35.32 134.08) rotate(-180)"/><rect class="cls-3" x="17.66" y="82.09" width="13.79" height="1.74" transform="translate(49.11 165.91) rotate(-180)"/><path class="cls-8" d="M48.38,47h0a5.51,5.51,0,0,1,1.48.14h.78c.13,0,.18.14.27.26s.18.35.14.38-.41-.37-.44-.38a1.13,1.13,0,0,1-.26,0,1.88,1.88,0,0,1,.23.16c.11.08.43.69.27.78,0,0-.51.15-1.58-.51a5.72,5.72,0,0,0-.58-.2.84.84,0,0,1-.41-.17v0s0,0,0,0A1.14,1.14,0,0,1,48.38,47Z"/><path class="cls-14" d="M36,49.64C37.73,51,47.56,51.19,48.59,48a1.69,1.69,0,0,0-.23-1.77l-11-.17S33.57,47.77,36,49.64Z"/><path class="cls-9" d="M50.09,43.72l3-14.2a.72.72,0,0,1,.7-.56h.38L50.78,44.58h0A.71.71,0,0,1,50.09,43.72Z"/><polygon class="cls-16" points="50.71 44.58 71.17 44.05 74.34 29 54.22 28.96 50.71 44.58"/><path class="cls-9" d="M56.83,48.56h6.71v-.88H57.7a.87.87,0,0,0-.87.88Z"/><polygon class="cls-9" points="61.56 48.44 60.28 39.39 59.28 39.39 60.49 48.37 61.56 48.44"/><polygon class="cls-16" points="64.64 39.48 60.28 39.48 61.55 48.56 65.85 48.56 64.64 39.48"/><path class="cls-17" d="M61.63,35a1,1,0,0,0,1,1.17A1.36,1.36,0,0,0,64,35a1,1,0,0,0-1-1.18A1.35,1.35,0,0,0,61.63,35Z"/><rect class="cls-18" x="14.41" y="48.51" width="49.82" height="2.1" transform="translate(78.63 99.12) rotate(-180)"/><rect class="cls-4" x="27.34" y="48.51" width="49.82" height="2.1" transform="translate(104.5 99.12) rotate(-180)"/><path class="cls-19" d="M44.48,12.54c.13-2.85,2.27-5.07,4.79-5A4.9,4.9,0,0,1,53.6,13a5.41,5.41,0,0,1-2,4.06,4.46,4.46,0,0,0-.22.5,5.37,5.37,0,0,1-.54,1.35,2.35,2.35,0,0,1-2,.83h-.42a2.16,2.16,0,0,1-1.73-.85,1.6,1.6,0,0,1-.13-.42c0-.09-.09-.18-.13-.28a6.91,6.91,0,0,1-.32-1.41A5.39,5.39,0,0,1,44.48,12.54Z"/><circle class="cls-19" cx="49.04" cy="12.46" r="5.31"/><path class="cls-20" d="M48.23,15a9.6,9.6,0,0,0,.05,4.2.13.13,0,0,0,.24-.07,11.63,11.63,0,0,1-.08-3.63c.06-.51.17-1.07.24-1.62A1.63,1.63,0,0,0,49,14a11,11,0,0,0-.16,5.34c0,.06.13.05.12,0a15.12,15.12,0,0,1,.13-4.84c0-.15.07-.31.11-.46a1.48,1.48,0,0,0,1.57-1.19c.07-.36,0-.82-.51-.66a2.42,2.42,0,0,0-1.18,1.55s0,.05,0,.08a1.43,1.43,0,0,1-.34-.14,5.08,5.08,0,0,0,0-1.23c0-.36-.37-.82-.74-.46s-.14,1.09.12,1.45a2.16,2.16,0,0,0,.29.31C48.35,14.13,48.29,14.56,48.23,15Zm1-1.19a2.88,2.88,0,0,1,.67-1.16c.24-.23.57-.36.63.06a.89.89,0,0,1-.19.51A1.33,1.33,0,0,1,49.25,13.8Zm-.82-.37a1.24,1.24,0,0,1-.22-.28c0-.08-.25-.54-.17-.65l.44-.15a2,2,0,0,1,0,.42C48.47,13,48.45,13.21,48.43,13.43Z"/><path class="cls-21" d="M46.12,19.67a.67.67,0,0,1,.43-.64.56.56,0,0,1,.4,0,.55.55,0,0,1,.36,0,7.09,7.09,0,0,0,1.77.27l1.12-.19c.31-.11.68-.17.88.11a.31.31,0,0,1,.07.31.86.86,0,0,1,.06.63,1,1,0,0,1-.49.57.6.6,0,0,1,.15.58.86.86,0,0,1-.5.54A1.66,1.66,0,0,1,50,22c.06,1.3-3.58.85-3.27-.34l0-.09a1.25,1.25,0,0,1-.48-.52.65.65,0,0,1,.1-.74A.93.93,0,0,1,46.12,19.67Z"/></g></g></svg>