<?xml version="1.0" encoding="utf-8"?>
<!-- Generator: Adobe Illustrator 23.0.3, SVG Export Plug-In . SVG Version: 6.00 Build 0)  -->
<svg version="1.1" id="Capa_1" xmlns="http://www.w3.org/2000/svg" xmlns:xlink="http://www.w3.org/1999/xlink" x="0px" y="0px"
	 viewBox="0 0 494.1 300.7" style="enable-background:new 0 0 494.1 300.7;" xml:space="preserve">
<style type="text/css">
	.st0{fill:#D5EAF5;}
	.st1{opacity:0.5;}
	.st2{fill:#FFFFFF;}
	.st3{fill:none;stroke:#3E275C;stroke-width:0.9;stroke-miterlimit:10;}
	.st4{fill:#9BCBE9;}
	.st5{fill:#3E275C;}
	.st6{fill:#E6E6E6;}
	.st7{opacity:0.7;}
	.st8{fill:none;stroke:#3E275C;stroke-width:0.75;stroke-miterlimit:10;}
	.st9{fill:#43225D;}
	.st10{fill:#406EB3;}
	.st11{fill:#82CBEA;}
	.st12{opacity:0.36;}
	.st13{fill:#B3B3B3;}
	.st14{fill:#CCCCCC;}
	.st15{fill:#FF97A8;}
	.st16{fill:#FF5D7B;}
	.st17{fill:#331239;}
	.st18{fill:#380A37;}
	.st19{fill:#BFEAF5;}
	.st20{fill:#AF99CC;}
</style>
<title>mispedidos</title>
<g>
	<g>
		<g id="Assets">
			<path class="st0" d="M34.8,72.3c1.3-1.6,2.6-3.1,4-4.6c7.3-8.2,15.4-15.7,24-22.5c3.9-3.1,7.8-5.9,11.6-8.4
				c6.9-4.7,14.2-8.7,21.9-11.8c57.9-22.2,166.4-35,255.5-14.9c3.9,0.9,7.7,1.8,11.5,2.8c21.7,5.7,41.9,13.5,59.7,23.8
				c2.3,1.3,4.6,2.7,6.9,4.2s4.2,2.8,6.3,4.2c35.2,24.7,58,61.1,57.9,112.6c0,4.7-0.2,9.5-0.6,14.5
				c-6.9,86.7-74.3,127.3-140.6,128.4c-2,0.1-4,0.1-5.9,0c-10-0.2-20-1.3-29.9-3.3c-49.3-10.1-68.5-36.9-99.8-63.4
				c-53.8-45.5-107.6,30.8-182.5-45.2C-5.7,147.7,8.4,104.4,34.8,72.3z"/>
			<g class="st1">
				<path class="st2" d="M136.4,59.8h105.8c4.5,0,8.2,3.7,8.2,8.2v79c0,4.5-3.7,8.2-8.2,8.2H136.4c-4.5,0-8.2-3.7-8.2-8.2V68
					C128.2,63.5,131.9,59.8,136.4,59.8z"/>
				<circle class="st3" cx="140.8" cy="68.8" r="2.3"/>
				<circle class="st3" cx="149.8" cy="68.8" r="2.3"/>
				<circle class="st3" cx="158.9" cy="68.8" r="2.3"/>
				<line class="st3" x1="128.2" y1="78.5" x2="250.4" y2="78.5"/>
				
					<rect x="133.9" y="86.9" transform="matrix(0.9999 -1.029726e-02 1.029726e-02 0.9999 -1.0893 1.9467)" class="st4" width="109.1" height="39.7"/>
				<polygon class="st2" points="237,106.7 183.6,107.3 183.6,103.3 237,102.7 				"/>
				<polygon class="st2" points="212.7,115.6 183.3,116 183.3,112 212.6,111.7 				"/>
				<path class="st5" d="M163.9,113.7c0.2,0.5,0.4,1.1,0.5,1.7h10.3c-0.2-2.2-0.7-4.3-1.5-6.3c-1.9-4.5-5.6-8.1-10.2-9.8l-3.3,10.4
					C161.6,110.4,163.1,111.9,163.9,113.7z"/>
				<polygon class="st2" points="173.5,101.6 169.4,101.6 169.4,97.9 				"/>
				<path class="st6" d="M153.8,110.4c0.2-0.2,0.5-0.3,0.7-0.4c1.2-0.6,2.5-0.8,3.8-0.7l3.3-10.5c-3.8-1-7.9-0.6-11.4,1.2l-0.7,0.4
					L153.8,110.4z"/>
				<path class="st2" d="M150.5,115.4c0.3-1.5,1-2.9,2.1-4l-4.4-10.2c-4.7,3.3-7.6,8.5-8,14.2L150.5,115.4z"/>
			</g>
			<g class="st7">
				<path class="st2" d="M86.9,128.6h94.4c3,0,5.4,2.4,5.4,5.4v43.4c0,3-2.4,5.4-5.4,5.4H86.9c-3,0-5.4-2.4-5.4-5.4V134
					C81.5,131,83.9,128.6,86.9,128.6z"/>
				<path class="st8" d="M94.3,137.1c0,1.1-0.9,2-2,2s-2-0.9-2-2s0.9-2,2-2S94.3,136,94.3,137.1z"/>
				<circle class="st8" cx="100" cy="137.1" r="2"/>
				<circle class="st8" cx="107.8" cy="137.1" r="2"/>
				<line class="st8" x1="81.5" y1="144.6" x2="186.8" y2="144.6"/>
				<path class="st6" d="M133.6,162.8h-4.4c-0.1,0-0.3-0.1-0.3-0.1v-2.6c0-0.1,0.1-0.1,0.1-0.1h4.4c0.1,0,0.3,0,0.3,0.1v2.6
					C133.7,162.8,133.6,162.8,133.6,162.8z"/>
				<path class="st6" d="M127.5,162.7v-4.3c0-0.1-0.2-0.1-0.3-0.1h-4.4c0,0-0.1,0-0.1,0.1v4.3c0,0.1,0.2,0.1,0.3,0.1h4.4
					C127.4,162.8,127.5,162.8,127.5,162.7z M126.8,162.7c-0.7,0-1.4,0-2.1,0H126.8z"/>
				<path class="st6" d="M120.9,162.7v-5.5c0-0.1-0.3-0.1-0.4-0.1h-4.4H116v5.5c0,0.1,0.2,0.1,0.4,0.1L120.9,162.7
					C120.8,162.7,120.9,162.8,120.9,162.7z M119.9,162.7c-0.8,0.1-1.5,0.1-2.3,0H119.9z"/>
				<path class="st6" d="M114.6,162.7v-7.1c0-0.1-0.3-0.1-0.4-0.1h-4.4h-0.1v7.1c0,0.1,0.3,0.1,0.4,0.1L114.6,162.7
					C114.6,162.7,114.6,162.8,114.6,162.7z M110,157.4c-0.1-0.2-0.1-0.5,0-0.8V157.4z M113.1,162.7c-0.5,0-1.1,0-1.6,0H113.1z
					 M114.4,161.5v-1.4C114.4,160.6,114.4,161.1,114.4,161.5L114.4,161.5z"/>
				<path class="st6" d="M108,162.7v-8.6c0-0.1-0.2-0.1-0.3-0.1h-4.4c-0.1,0-0.2,0-0.2,0.1v8.6c0,0.1,0.1,0.1,0.2,0.1h4.5
					C107.9,162.8,108,162.8,108,162.7z M106.6,162.7c-0.3,0-0.7,0-1,0H106.6z"/>
				<path class="st6" d="M101.6,162.8h-4.4c-0.1,0-0.3,0-0.3-0.1V152c0-0.1,0.1-0.1,0.2-0.1h4.4c0.1,0,0.3,0,0.3,0.1v10.7
					C101.8,162.8,101.7,162.8,101.6,162.8z"/>
				<path class="st6" d="M90.4,149.2v13.4c0,0.1,0.2,0.1,0.3,0.1h4.4c0.1,0,0.2,0,0.2-0.1v-13.4c0-0.1-0.3-0.1-0.3-0.1h-4.4
					C90.4,149.1,90.4,149.2,90.4,149.2z M95,150c0,0.2,0,0.4,0,0.6V150z M92.3,162.7H94C93.4,162.7,92.9,162.7,92.3,162.7
					L92.3,162.7z M90.6,150.5v1.1C90.6,151.2,90.6,150.8,90.6,150.5L90.6,150.5z"/>
				<path class="st4" d="M90.5,165h4.4c0.1,0,0.3,0,0.3,0.1v2.6c0,0.1-0.1,0.1-0.2,0.1h-4.4c-0.1,0-0.3,0-0.3-0.1v-2.6
					C90.4,165,90.4,165,90.5,165z"/>
				<path class="st4" d="M96.6,165v4.3c0,0.1,0.2,0.1,0.3,0.1h4.4h0.1v-4.3c0-0.1-0.2-0.1-0.3-0.1h-4.4H96.6z M97.3,165.1
					c0.7-0.1,1.4-0.1,2.1,0H97.3z"/>
				<path class="st4" d="M103.2,165v5.5c0,0.1,0.3,0.1,0.4,0.1h4.4h0.1v-5.5c0-0.1-0.2-0.1-0.4-0.1L103.2,165L103.2,165z
					 M104.2,165.1c0.8-0.1,1.5-0.1,2.3,0H104.2z"/>
				<path class="st4" d="M109.5,165v7.1c0,0.1,0.3,0.1,0.4,0.1h4.4h0.1v-7.1c0-0.1-0.3-0.1-0.4-0.1H109.5L109.5,165z M114.1,170.3
					c0.1,0.2,0.1,0.5,0,0.8V170.3z M111,165.1c0.5,0,1.1,0,1.6,0H111z M109.7,166.3v1.4C109.7,167.2,109.7,166.7,109.7,166.3
					L109.7,166.3z"/>
				<path class="st4" d="M116.1,165.1v8.6c0,0.1,0.2,0.1,0.3,0.1h4.4c0.1,0,0.2,0,0.2-0.1v-8.6c0-0.1-0.1-0.1-0.2-0.1h-4.5
					C116.2,165,116.1,165,116.1,165.1z M117.5,165.1c0.3,0,0.7,0,1,0H117.5z"/>
				<path class="st4" d="M122.5,165h4.4c0.1,0,0.3,0,0.3,0.1v10.6c0,0.1-0.1,0.1-0.2,0.1h-4.4c-0.1,0-0.3,0-0.3-0.1v-10.7
					C122.3,165,122.4,165,122.5,165z"/>
				<path class="st4" d="M128.9,165.1v13.4c0,0.1,0.3,0.1,0.3,0.1h4.4c0.1,0,0.1,0,0.1-0.1v-13.4c0-0.1-0.2-0.1-0.3-0.1H129
					C128.9,165,128.9,165,128.9,165.1z M133.5,176.2c0,0.4,0,0.7,0,1.1V176.2z M130.1,165.1c0.6-0.1,1.1-0.1,1.7,0H130.1z
					 M129.1,177.2v0.6C129.1,177.6,129.1,177.4,129.1,177.2L129.1,177.2z"/>
				<path class="st9" d="M90.5,163.4h42.8c0.1,0,0.2,0,0.3,0.1l0,0l0,0l0,0l0,0v0.8l0,0c0,0-0.1,0-0.1,0H90.7c-0.1,0-0.2,0-0.3,0
					l0,0l0,0v-0.1l0,0L90.5,163.4L90.5,163.4C90.5,163.4,90.5,163.4,90.5,163.4z"/>
				<path class="st5" d="M155.7,166c1.3,2.5,4.3,3.5,6.9,2.5l2.9,7.3c-6.3,2.5-13.4-0.1-16.6-6L155.7,166z"/>
				<path class="st10" d="M155.4,161.4c-0.1,0.2-0.1,0.4-0.2,0.6c-0.3,1-0.2,2,0.1,3l-7,3.8c-1.2-2.8-1.5-5.9-0.7-8.8
					c0.1-0.2,0.1-0.4,0.2-0.6L155.4,161.4z"/>
				<path class="st2" d="M160.3,157.9c-1.8,0.1-3.4,1-4.3,2.5l-7.8-2.1c2.1-5.2,7.3-8.5,12.9-8.3L160.3,157.9z"/>
				<path class="st2" d="M161.1,150L161.1,150l-0.8,7.9c0,0,0,0.1-0.1,0.1c-1.7,0.1-3.3,1-4.3,2.4c0,0,0,0-0.1,0l-7.8-2.1l0,0
					 M148.1,158.2c2.2-5.2,7.4-8.5,13-8.3l0,0L148.1,158.2z M155.9,160.3c1-1.4,2.6-2.4,4.3-2.4l0.8-7.8c-5.5-0.2-10.6,3.1-12.8,8.2
					L155.9,160.3z"/>
				<path class="st4" d="M166.4,175.4l-2.9-7.4c2.5-1.7,3.2-5.1,1.5-7.6c-0.7-1.1-1.9-1.9-3.1-2.2c-0.2,0-0.3-0.1-0.5-0.1l0.8-7.8
					c0.6,0.1,1.2,0.2,1.8,0.3c7.1,1.9,11.4,9.2,9.5,16.3C172.4,170.5,169.9,173.6,166.4,175.4L166.4,175.4z"/>
			</g>
			<path class="st10" d="M142.4,208.5H70.6c-1.5,0-2.8-1.2-2.8-2.8l0,0c0-1.5,1.3-2.7,2.8-2.7h71.8c1.5,0,2.8,1.2,2.8,2.8l0,0
				C145.2,207.3,144,208.5,142.4,208.5z"/>
			<path class="st2" d="M359.4,66.1h8.3c2.2,0,3.9,1.8,3.9,3.9v7.8c0,2.2-1.8,3.9-3.9,3.9h-8.3c-2.2,0-3.9-1.8-3.9-3.9V70
				C355.5,67.8,357.3,66.1,359.4,66.1z"/>
			<path class="st2" d="M92.6,47.8h8.3c2.2,0,3.9,1.8,3.9,3.9v7.8c0,2.2-1.8,3.9-3.9,3.9h-8.3c-2.2,0-3.9-1.8-3.9-3.9v-7.8
				C88.6,49.6,90.4,47.8,92.6,47.8z"/>
			<path class="st5" d="M2.1,189.6h4.5c1.2,0,2.1,1,2.1,2.1v4.2c0,1.2-1,2.1-2.1,2.1H2.1c-1.2,0-2.1-1-2.1-2.1v-4.2
				C0,190.6,1,189.6,2.1,189.6z"/>
			<path class="st5" d="M373.9,164.6h4.5c1.2,0,2.1,1,2.1,2.1v4.2c0,1.2-1,2.1-2.1,2.1h-4.5c-1.2,0-2.1-1-2.1-2.1v-4.2
				C371.8,165.5,372.7,164.6,373.9,164.6z"/>
			<path class="st10" d="M45.7,118.3H19.1c-2,0-3.6-1.6-3.6-3.5c0,0,0,0,0,0l0,0c0-2,1.6-3.6,3.6-3.6c0,0,0,0,0,0h26.6
				c2,0,3.6,1.6,3.6,3.6l0,0C49.3,116.7,47.7,118.3,45.7,118.3z"/>
			<path class="st10" d="M318.6,61.3H292c-2,0-3.6-1.6-3.6-3.6l0,0c0-2,1.6-3.6,3.6-3.6h26.6c2,0,3.6,1.6,3.6,3.6l0,0
				C322.1,59.7,320.6,61.3,318.6,61.3C318.6,61.3,318.6,61.3,318.6,61.3z"/>
			<path class="st9" d="M196.3,48.5h69.5c3.6,0,6.6,2.9,6.6,6.6v136.8c0,3.6-2.9,6.6-6.6,6.6h-69.5c-3.6,0-6.6-2.9-6.6-6.6V55.1
				C189.7,51.5,192.6,48.5,196.3,48.5z"/>
			<rect x="196.4" y="63.4" class="st6" width="69.3" height="111.1"/>
			<rect x="220.5" y="55.7" class="st10" width="19.8" height="1.9"/>
			<path class="st11" d="M189.7,79.5L189.7,79.5c-0.6,0-1.1-0.5-1.1-1.1v-9.6c0-0.6,0.5-1.1,1.1-1.1l0,0V79.5z"/>
			<path class="st11" d="M189.7,93.2L189.7,93.2c-0.6,0-1.1-0.5-1.1-1.1v-9.6c0-0.6,0.5-1.1,1.1-1.1c0,0,0,0,0,0l0,0V93.2z"/>
			<path class="st10" d="M239.6,190.3h-15.2c-2.3,0-4.1-1.9-4.1-4.1l0,0c0-2.3,1.9-4.1,4.1-4.1h15.2c2.3,0,4.1,1.9,4.1,4.1l0,0
				C243.8,188.4,241.9,190.3,239.6,190.3L239.6,190.3z"/>
			<path class="st10" d="M259.9,55.7c0,1.2-0.9,2.1-2.1,2.1s-2.1-0.9-2.1-2.1s0.9-2.1,2.1-2.1l0,0C259,53.6,259.9,54.5,259.9,55.7z"
				/>
			<circle class="st10" cx="262.5" cy="55.9" r="1.1"/>
			<g class="st12">
				<path class="st13" d="M265,198.8h-33l-0.4-150H265c4.1,0,7.4,3.3,7.4,7.4c0,0,0,0,0,0v135.3C272.4,195.5,269.1,198.8,265,198.8
					C265,198.8,265,198.8,265,198.8z"/>
			</g>
			
				<rect x="200.3" y="68.9" transform="matrix(1 -9.424639e-03 9.424639e-03 1 -0.7214 2.1783)" class="st2" width="60.9" height="17.4"/>
			
				<rect x="203.6" y="71.7" transform="matrix(1 -9.424639e-03 9.424639e-03 1 -0.7223 1.996)" class="st4" width="15.6" height="11.9"/>
			
				<rect x="223.3" y="72.2" transform="matrix(1 -9.424639e-03 9.424639e-03 1 -0.6858 2.2617)" class="st5" width="32.7" height="3.3"/>
			
				<rect x="223.2" y="79.5" transform="matrix(1 -9.424639e-03 9.424639e-03 1 -0.7545 2.2026)" class="st4" width="20.3" height="3.3"/>
			
				<rect x="200.3" y="90.4" transform="matrix(1 -9.424639e-03 9.424639e-03 1 -0.9238 2.1792)" class="st2" width="60.9" height="17.4"/>
			
				<rect x="203.6" y="93.2" transform="matrix(1 -9.424639e-03 9.424639e-03 1 -0.9248 1.997)" class="st4" width="15.6" height="11.9"/>
			
				<rect x="223.3" y="93.7" transform="matrix(1 -9.424639e-03 9.424639e-03 1 -0.8882 2.2626)" class="st5" width="32.7" height="3.3"/>
			
				<rect x="223.2" y="101" transform="matrix(1 -9.424639e-03 9.424639e-03 1 -0.9569 2.2036)" class="st4" width="20.3" height="3.3"/>
			
				<rect x="200.3" y="111.9" transform="matrix(1 -9.424639e-03 9.424639e-03 1 -1.1263 2.1802)" class="st2" width="60.9" height="17.4"/>
			
				<rect x="203.6" y="114.7" transform="matrix(1 -9.424639e-03 9.424639e-03 1 -1.1273 1.9979)" class="st4" width="15.6" height="11.9"/>
			
				<rect x="223.3" y="115.2" transform="matrix(1 -9.424639e-03 9.424639e-03 1 -1.0907 2.2635)" class="st5" width="32.7" height="3.3"/>
			
				<rect x="223.2" y="122.5" transform="matrix(1 -9.424639e-03 9.424639e-03 1 -1.1596 2.2045)" class="st4" width="20.3" height="3.3"/>
			
				<rect x="200.3" y="133.3" transform="matrix(1 -9.424639e-03 9.424639e-03 1 -1.3287 2.1811)" class="st2" width="60.9" height="17.4"/>
			
				<rect x="203.6" y="136.1" transform="matrix(1 -9.424639e-03 9.424639e-03 1 -1.3297 1.9988)" class="st4" width="15.6" height="11.9"/>
			
				<rect x="223.3" y="136.7" transform="matrix(1 -9.424639e-03 9.424639e-03 1 -1.2933 2.2645)" class="st5" width="32.7" height="3.4"/>
			
				<rect x="223.2" y="144" transform="matrix(1 -9.424639e-03 9.424639e-03 1 -1.362 2.2054)" class="st4" width="20.3" height="3.3"/>
			
				<rect x="200.3" y="154.8" transform="matrix(1 -9.424639e-03 9.424639e-03 1 -1.5312 2.1821)" class="st2" width="60.9" height="17.4"/>
			
				<rect x="203.6" y="157.6" transform="matrix(1 -9.424639e-03 9.424639e-03 1 -1.5322 1.9998)" class="st4" width="15.6" height="11.9"/>
			
				<rect x="223.3" y="158.2" transform="matrix(1 -9.424639e-03 9.424639e-03 1 -1.4957 2.2655)" class="st5" width="32.7" height="3.4"/>
			
				<rect x="223.2" y="165.5" transform="matrix(1 -9.424639e-03 9.424639e-03 1 -1.5644 2.2064)" class="st4" width="20.3" height="3.3"/>
			<path class="st14" d="M291.1,208.2c-16.7,0-30.2,1.7-30.2,3.8s13.5,3.9,30.2,3.9s30.2-1.7,30.2-3.9S307.8,208.2,291.1,208.2z"/>
			<path class="st15" d="M247.6,87.7c-0.8-0.8-0.7-2.4,0.3-2.4c0.3,0.1,0.7,0.2,1,0.3l0.6,0.2c0,0-0.8-0.6-0.5-0.8s0.7,0.1,1,0.4
				s2.1,1.6,1.9,3c0.1-0.1-0.2,0.3-0.4,0.3C250,89,248.6,88.6,247.6,87.7z"/>
			<path class="st15" d="M246.3,84.9c0,0-0.6,0.2,1,0.9l1.9-0.1C248.2,85.4,247.2,85.1,246.3,84.9z"/>
			<path class="st15" d="M291.5,102.8c0,0-0.6,3.3-0.3,3.7c0.4,0.5,1.2,0.6,1.7,0.2c0.1-0.1,0.1-0.1,0.2-0.2c0.6-0.8,0-3.7,0-3.7
				L291.5,102.8z"/>
			<path class="st16" d="M291.1,105.2c0.7,0.3,1.5,0.4,2.2,0.1c0-0.6,0-1.2-0.1-1.8h-1.8C291.3,104,291.2,104.6,291.1,105.2z"/>
			<path class="st15" d="M294.9,103.6c0.5-0.9,0.9-1.8,1.2-2.8c0.3-0.9-0.2-2-1.1-2.3c0,0,0,0-0.1,0c-1.2-0.5-2.5-0.7-3.7-0.8
				c-0.9,0.2-1.2,1.2-1.5,1.9c-0.4,0.9-0.5,1.9-0.4,2.9c0.4,0.8,1,1.5,1.9,1.9C293.1,105.1,293.9,104.8,294.9,103.6z"/>
			<path class="st9" d="M298.5,210.2c0-1.5,2.2-1.3,3.7-1.7c-0.5,0.3-0.9,0.6-0.2,0.9c1,0.3,3.2,0,3.9-0.7c0.2,0.6,0.3,1.2,0.3,1.8
				C306.2,211.2,298.5,211.5,298.5,210.2z"/>
			<path class="st17" d="M302,209.4c-0.7-0.2-0.3-0.6,0.2-0.9c0.9-0.3,1.7-0.4,1.9-0.5c0.3-0.1,0.5-0.3,0.6-0.6l0.5-0.1
				c0,0,0.7,1.2,0.8,1.4C305.3,209.4,303,209.7,302,209.4z"/>
			<path class="st9" d="M275.3,210.9c-0.1-1.5,2.3-1.3,3.7-1.7c-0.4,0.3-0.9,0.6-0.2,0.9c1,0.3,3.2,0,3.9-0.7
				c0.2,0.6,0.3,1.2,0.3,1.8C283,211.9,275.4,212.2,275.3,210.9z"/>
			<path class="st17" d="M278.8,210.1c-0.7-0.2-0.2-0.6,0.2-0.9c0.9-0.3,1.7-0.4,1.9-0.5c0.3-0.1,0.5-0.3,0.6-0.6l0.5-0.1
				c0,0,0.7,1.2,0.8,1.4C282.1,210.1,279.8,210.4,278.8,210.1z"/>
			<path class="st9" d="M300.5,126c0,0.2,5,5.3,6.3,11.1c2.9,12.8-0.1,62.1-0.6,69.5c0,0.5-0.5,1-1,1h-0.9c-0.4,0-0.8-0.3-0.9-0.7
				l-10.7-62.1l-2.5,18.8l-7.7,44.6l-1.7,0.2c0,0-1.8-37.4-2.6-46.6c-2.1-24.4,3.9-34.2,4.5-35.7C284.8,126.9,296.7,127.7,300.5,126
				z"/>
			<path class="st18" d="M300.5,126c0,0.2,5,5.3,6.3,11.1c2.9,12.8-0.1,62.1-0.6,69.5c0,0.5-0.5,1-1,1h-0.9c-0.4,0-0.8-0.3-0.9-0.7
				l-10.7-62.1c0.5-3.2,0.9-6.5,1-9.7c0.1-2.7-0.2-5.5-0.9-8.2h0.6C296,127,298.3,126.7,300.5,126z"/>
			<path class="st19" d="M251.8,87.8c0.3-0.3,20,10.1,21.3,11.4s4.9,4.8,4.9,4.8s-12-1.3-16.5-2.8C254.8,98.9,244.6,95.2,251.8,87.8
				z"/>
			<path class="st19" d="M268.4,96.6c0,0,15.7,9.6,17.3,9c3.4-1.3,13.1,0.4,14.2,0.3c5.7-0.3,4.3,6.7,4.3,6.7s-1.3,3.9-1.7,5.7
				c-0.5,2.8-1.6,6.3-2,7.9c-4.5,2.2-15.8,1-17.9,0.5c0.1-2.3,0-4.5-0.2-6.8c-0.3-2.8-1.3-9.6-1.8-10.2c-3.2-3.8-15-7.7-15-7.7
				L268.4,96.6z"/>
			<path class="st11" d="M292.5,106.3h0.5c3.3-0.2,6.4-0.5,7.1-0.5c5.7-0.2,17.7,8.7,17.7,8.7l-0.3,4.8c0,0.1-13.2-6.8-13.2-6.8
				s-1.4,3.9-1.7,5.7c-0.6,2.8-1.5,6.4-1.9,7.9c-2.2,0.9-4.6,1.3-7,1.2h-0.4c1.4-4.6,1.9-9.5,1.4-14.2
				C294.3,110.7,293.6,108.4,292.5,106.3z"/>
			<path class="st9" d="M295.2,96c-0.3-0.4-1-1.9-1.6-3c-0.4-0.8-2.1-1.5-2.5-0.7c-0.6-0.9-1.4-2.3-2.5-1.2
				c-0.7,1.1-0.8,2.4-0.2,3.5c-0.6,0.4-0.5,1.5-0.1,2.1c1.1,1.8,3.2,1.5,4.4,2.5c0.3,1,0.6,2,0.7,3c0,0.2,0.1,0.5,0.1,0.7
				c0,0.2,0,0.4,0.1,0.6c0.1,0.5,0.5,0.8,1,0.9c1.1-0.2,2-0.8,2.6-1.7c0.7-1.3,1.5-2.2,1.4-3.5S296.5,95.8,295.2,96z"/>
			<path class="st20" d="M290.8,98.5c-0.5,0-0.9-0.1-1.4-0.3c-0.5-0.2-0.9-0.5-1.2-0.8c-0.4-0.4-0.6-0.9-0.6-1.4c0-0.3,0-0.5,0-0.8
				c0-0.4,0.2-0.7,0.6-0.8l-0.2,0.5c-0.2-0.5-0.4-1-0.4-1.6c-0.1-0.5,0-1.1,0.3-1.6c0.1-0.2,0.3-0.5,0.5-0.7
				c0.2-0.2,0.5-0.4,0.8-0.4c0.6,0,1.1,0.3,1.3,0.8c-0.4-0.3-0.8-0.6-1.2-0.5c-0.2,0.1-0.3,0.2-0.4,0.4c-0.1,0.2-0.2,0.4-0.3,0.6
				c-0.2,0.9-0.1,1.8,0.3,2.6l0.1,0.2c0,0.1,0,0.3-0.1,0.3c0,0-0.1,0-0.1,0c0,0-0.1,0.1-0.1,0.3c0,0.2,0,0.4,0,0.6
				c0,0.4,0.1,0.8,0.4,1.1C289.3,97.6,290,98.2,290.8,98.5z"/>
			<path class="st15" d="M306.8,129.8c0.2,0.1,0.3,0.3,0.3,0.6c-0.1,0.6-0.4,1.3-0.7,2.3c-0.1,0.5-0.3,1-0.5,1.6
				c-0.5-0.7-0.9-1.4-1.2-2.2c-0.1-0.1-0.3-0.7-0.5-0.8c-1.9-0.5-1.6-0.9-1.6-1.1c0.1-0.4,1.7,0.6,2.3,0.3c0.3-0.2,0.5-0.5,0.8-0.8
				C305.8,129.4,306.4,129.6,306.8,129.8z"/>
			<path class="st11" d="M305.5,129.5c-0.3-0.4,2.8-5.2,3.1-5.6c1.6-3.2,3.5-6.7,4.8-8c1.1-1.1,4.2-3.4,5.1,0.1
				c0.1,0.4-0.4,2-1.6,6.1C314.8,128.9,310.4,137,305.5,129.5z"/>
		</g>
	</g>
</g>
</svg>
