<?xml version="1.0" encoding="utf-8"?>
<!-- Generator: Adobe Illustrator 23.0.3, SVG Export Plug-In . SVG Version: 6.00 Build 0)  -->
<svg version="1.1" id="Capa_1" xmlns="http://www.w3.org/2000/svg" xmlns:xlink="http://www.w3.org/1999/xlink" x="0px" y="0px"
	 viewBox="0 0 35 35" style="enable-background:new 0 0 35 35;" xml:space="preserve">
<style type="text/css">
	.st0{fill:#767579;}
	.st1{fill:none;}
</style>
<title>mispedidos_maspedidos</title>
<g>
	<g id="Icono">
		<path class="st0" d="M26,17C26,17,26,17,26,17L18,17l0-8c0-0.3-0.2-0.5-0.5-0.5c0,0,0,0,0,0C17.2,8.5,17,8.7,17,9l0,8l-8,0
			c-0.3,0-0.5,0.2-0.5,0.5C8.5,17.8,8.7,18,9,18c0,0,0,0,0,0l8,0l0,8.1c0,0.3,0.2,0.5,0.5,0.5c0,0,0,0,0,0c0.3,0,0.5-0.2,0.5-0.5
			l0-8l8.1,0c0.3,0,0.5-0.2,0.5-0.5C26.5,17.2,26.3,17,26,17z"/>
		<rect class="st1" width="35" height="35"/>
	</g>
</g>
</svg>
