<?xml version="1.0" encoding="utf-8"?>
<!-- Generator: Adobe Illustrator 23.0.3, SVG Export Plug-In . SVG Version: 6.00 Build 0)  -->
<svg version="1.1" id="Capa_1" xmlns="http://www.w3.org/2000/svg" xmlns:xlink="http://www.w3.org/1999/xlink" x="0px" y="0px"
	 viewBox="0 0 228.6 151.9" style="enable-background:new 0 0 228.6 151.9;" xml:space="preserve">
<style type="text/css">
	.st0{fill:none;}
	.st1{fill:#D5EAF5;}
	.st2{fill:#406EB3;}
	.st3{fill:#FFFFFF;}
	.st4{fill:#3E275C;}
	.st5{fill:#FEFEF4;}
	.st6{fill:#E6E6E6;}
	.st7{fill:none;stroke:#FEFEF4;stroke-width:0.45;stroke-miterlimit:10;}
	.st8{opacity:0.8;}
	.st9{fill:#CCEAF5;}
	.st10{fill:#9BCBE9;}
	.st11{fill:none;stroke:#3E275C;stroke-width:0.33;stroke-miterlimit:10;}
	.st12{fill:#43225D;}
	.st13{fill:none;stroke:#FEFEF4;stroke-width:1.05;stroke-miterlimit:10;}
	.st14{fill:#D8DADE;}
	.st15{fill:#30193B;}
	.st16{fill:#FF97A6;}
	.st17{fill:#3B2B5B;}
	.st18{fill:#A289E8;}
	.st19{fill:#AACBE8;}
	.st20{fill:#99B4DD;}
	.st21{fill:#C95D77;}
	.st22{fill:#C6E0F4;}
	.st23{fill:#00C2B9;}
	.st24{opacity:0.69;}
	.st25{fill:#B7D9ED;}
</style>
<title>busqueda_NoEncontrado</title>
<g>
	<g>
		<g id="Assets">
			<rect class="st0" width="228.6" height="151.9"/>
			<path class="st1" d="M186.3,105.2c-0.4,0.6-0.9,1.2-1.4,1.7c-2.5,3-5.3,5.8-8.3,8.4c-1.4,1.1-2.7,2.2-4,3.1
				c-2.4,1.7-4.9,3.2-7.6,4.4c-20,8.2-57.5,13-88.3,5.5c-1.3-0.3-2.7-0.7-4-1.1c-7.3-2-14.2-5-20.6-8.9c-0.8-0.5-1.6-1-2.4-1.6
				s-1.5-1-2.2-1.6c-12.2-9.2-20-22.7-20-41.8c0-1.8,0.1-3.5,0.2-5.4C30.3,36,53.5,20.9,76.5,20.5c0.7,0,1.4,0,2.1,0
				c3.5,0.1,6.9,0.5,10.3,1.2c17,3.7,23.7,13.7,34.5,23.5c18.6,16.9,37.2-11.4,63,16.8C200.3,77.2,195.4,93.3,186.3,105.2z"/>
			<path class="st2" d="M71.7,45.2H45.2c-0.6,0-1-0.4-1-1l0,0c0-0.6,0.4-1,1-1h26.5c0.6,0,1,0.4,1,1l0,0
				C72.7,44.7,72.2,45.2,71.7,45.2z"/>
			<path class="st2" d="M188.6,99.9h-26.5c-0.6,0-1-0.4-1-1l0,0c0-0.6,0.4-1,1-1h26.5c0.6,0,1,0.4,1,1l0,0
				C189.6,99.4,189.2,99.9,188.6,99.9z"/>
			<path class="st2" d="M120.5,17.8h-17.3c-0.6,0-1-0.4-1-1c0,0,0,0,0-0.1l0,0c0-0.6,0.4-1,1-1h17.3c0.6,0,1,0.4,1,1l0,0
				C121.6,17.3,121.1,17.8,120.5,17.8C120.6,17.8,120.6,17.8,120.5,17.8z"/>
			<path class="st3" d="M60.9,50.9h3c0.8,0,1.5,0.6,1.5,1.5v2.9c0,0.8-0.6,1.5-1.5,1.5h-3c-0.8,0-1.5-0.6-1.5-1.5v-2.9
				C59.5,51.6,60.1,50.9,60.9,50.9z"/>
			<path class="st3" d="M114.8,105.8h3.1c0.8,0,1.4,0.6,1.4,1.4v2.9c0,0.8-0.6,1.4-1.4,1.4h-3.1c-0.8,0-1.4-0.6-1.4-1.4v-2.9
				C113.3,106.5,114,105.8,114.8,105.8z"/>
			<path class="st4" d="M159,111.3h1.7c0.4,0,0.8,0.4,0.8,0.8v1.6c0,0.4-0.4,0.8-0.8,0.8H159c-0.4,0-0.8-0.4-0.8-0.8v-1.6
				C158.2,111.7,158.5,111.3,159,111.3z"/>
			<path class="st4" d="M173.8,39.7h1.7c0.4,0,0.8,0.4,0.8,0.8V42c0,0.4-0.4,0.8-0.8,0.8h-1.7c-0.4,0-0.8-0.4-0.8-0.8v-1.6
				C173,40,173.3,39.7,173.8,39.7z"/>
			<path class="st4" d="M47.1,59h1.7c0.4,0,0.8,0.4,0.8,0.8v1.6c0,0.4-0.4,0.8-0.8,0.8h-1.7c-0.4,0-0.8-0.4-0.8-0.8v-1.6
				C46.3,59.3,46.7,59,47.1,59z"/>
			<polygon class="st5" points="59.2,100.1 50.8,104.4 53.2,105.6 50.2,109.2 52.5,111.1 55.5,107.2 57.4,109.3 			"/>
			<path class="st2" d="M107.4,121.2h-9.8c-0.7,0-1.3-0.6-1.3-1.3l0,0c0-0.7,0.6-1.3,1.3-1.3h9.8c0.7,0,1.3,0.6,1.3,1.3c0,0,0,0,0,0
				l0,0C108.7,120.6,108.1,121.2,107.4,121.2z"/>
			<path class="st6" d="M72.4,30.7h79c0.9,0,1.7,0.7,1.7,1.7v65.8c0,0.9-0.7,1.7-1.7,1.7h-79c-0.9,0-1.7-0.7-1.7-1.7V32.4
				C70.7,31.5,71.5,30.7,72.4,30.7z"/>
			<line class="st7" x1="70.7" y1="39" x2="153" y2="39"/>
			<path class="st7" d="M72.4,30.7h79c0.9,0,1.7,0.7,1.7,1.7v65.8c0,0.9-0.7,1.7-1.7,1.7h-79c-0.9,0-1.7-0.7-1.7-1.7V32.4
				C70.7,31.5,71.5,30.7,72.4,30.7z"/>
			<circle class="st7" cx="77.7" cy="35" r="1.2"/>
			<circle class="st7" cx="82.2" cy="35" r="1.2"/>
			<circle class="st7" cx="86.7" cy="35" r="1.2"/>
			<g class="st8">
				<polygon class="st3" points="142.2,68.1 99.7,68.1 99.6,79.4 142.2,79.4 				"/>
			</g>
			<rect x="101.5" y="70" class="st9" width="38.6" height="1.4"/>
			<rect x="101.5" y="72.8" class="st9" width="32.3" height="1.4"/>
			<rect x="101.5" y="75.5" class="st9" width="23.7" height="1.4"/>
			<path class="st4" d="M89.5,71.2c-0.9-1.7-3-2.5-4.8-1.7l-2-5.2c4.4-1.7,9.4,0.1,11.7,4.2L89.5,71.2z"/>
			<path class="st2" d="M89.7,74.5c0-0.1,0.1-0.3,0.1-0.4c0.2-0.7,0.2-1.4,0-2.1l4.9-2.7c0.9,2,1,4.2,0.5,6.2c0,0.1-0.1,0.3-0.1,0.4
				L89.7,74.5z"/>
			<path class="st3" d="M86.3,76.9c1.2-0.1,2.3-0.7,3-1.7l5.5,1.5c-1.5,3.6-5.1,6-9.1,5.8L86.3,76.9z"/>
			<path class="st3" d="M85.7,82.5L85.7,82.5l0.6-5.5l0,0c1.2-0.1,2.3-0.7,3-1.7l0,0l5.5,1.5l0,0l0,0C93.2,80.3,89.6,82.6,85.7,82.5
				L85.7,82.5L85.7,82.5z M89.3,75.2c-0.7,1-1.8,1.6-3,1.7l-0.6,5.5c3.9,0.1,7.5-2.1,9-5.8L89.3,75.2z"/>
			<path class="st10" d="M81.9,64.6l2,5.2c-1.8,1.2-2.3,3.6-1.1,5.4c0.5,0.8,1.4,1.4,2.3,1.6l0.4,0.1l-0.6,5.5
				c-0.4-0.1-0.8-0.1-1.2-0.2c-5-1.3-8-6.5-6.7-11.5C77.7,68.1,79.5,65.9,81.9,64.6L81.9,64.6z"/>
			<path class="st3" d="M46,67.1h41.8c1.3,0,2.4,1.1,2.4,2.4v19.2c0,1.3-1.1,2.4-2.4,2.4H46c-1.3,0-2.4-1.1-2.4-2.4V69.5
				C43.6,68.2,44.7,67.1,46,67.1z"/>
			<path class="st11" d="M49.2,70.8c0,0.5-0.4,0.9-0.9,0.9s-0.9-0.4-0.9-0.9s0.4-0.9,0.9-0.9l0,0C48.8,70,49.2,70.3,49.2,70.8
				C49.2,70.8,49.2,70.8,49.2,70.8z"/>
			<circle class="st11" cx="51.8" cy="70.8" r="0.9"/>
			<circle class="st11" cx="55.2" cy="70.8" r="0.9"/>
			<line class="st11" x1="43.6" y1="74.2" x2="90.2" y2="74.2"/>
			<path class="st6" d="M66.7,82.2h-1.9c-0.1,0-0.2,0-0.2-0.1v-0.6l0,0V81c0,0,0,0,0.1,0h1.9c0,0,0.2,0,0.2,0.1L66.7,82.2
				C66.7,82.2,66.7,82.2,66.7,82.2z"/>
			<path class="st6" d="M64,82.2v-1.9c0,0-0.1-0.1-0.2-0.1h-2h-0.1v1.9c0,0,0.1,0.1,0.2,0.1H64C63.9,82.2,64,82.2,64,82.2z
				 M63.7,82.2c-0.3,0-0.6,0-0.9,0H63.7z"/>
			<path class="st6" d="M61,82.2v-2.4c0-0.1-0.1-0.1-0.2-0.1h-1.9l0,0v2.4c0,0,0.1,0,0.2,0L61,82.2C61,82.2,61,82.2,61,82.2z
				 M60.6,82.2c-0.3,0-0.7,0-1,0H60.6z"/>
			<path class="st6" d="M58.3,82.2v-3.1c0,0-0.1-0.1-0.2-0.1h-2l0,0v3.1c0,0,0.1,0.1,0.2,0L58.3,82.2C58.2,82.2,58.3,82.2,58.3,82.2
				z M56.3,79.8c0-0.1,0-0.2,0-0.3V79.8z M57.6,82.2c-0.2,0-0.5,0-0.7,0H57.6z M58.2,81.7v-0.6C58.2,81.3,58.2,81.5,58.2,81.7
				L58.2,81.7z"/>
			<path class="st6" d="M55.3,82.2v-3.8c0,0-0.1-0.1-0.1-0.1h-1.9c0,0-0.1,0-0.1,0v3.8c0,0,0,0,0.1,0.1L55.3,82.2
				C55.3,82.3,55.3,82.2,55.3,82.2z M54.7,82.2c-0.1,0-0.3,0-0.5,0H54.7z"/>
			<path class="st6" d="M52.5,82.3h-1.9c-0.1,0-0.2,0-0.2-0.1v-4.7c0,0,0,0,0.1,0h2c0,0,0.1,0,0.1,0.1v4.7
				C52.6,82.2,52.5,82.3,52.5,82.3z"/>
			<path class="st6" d="M47.5,76.2v6c0,0,0.1,0.1,0.2,0.1h1.9h0.1v-6c0,0-0.1-0.1-0.2-0.1H47.5C47.6,76.2,47.5,76.2,47.5,76.2z
				 M49.6,76.6c0,0.1,0,0.2,0,0.3V76.6z M48.4,82.2h0.7C48.9,82.2,48.6,82.2,48.4,82.2z M47.6,76.8v0.5
				C47.6,77.1,47.6,76.9,47.6,76.8z"/>
			<path class="st10" d="M47.6,83.2h1.9c0.1,0,0.2,0,0.2,0.1v0.6l0,0v0.6c0,0,0,0-0.1,0h-1.9c0,0-0.2,0-0.2-0.1v-0.6l0,0L47.6,83.2
				C47.5,83.2,47.5,83.2,47.6,83.2z"/>
			<path class="st10" d="M50.3,83.2v1.9c0,0,0.1,0.1,0.2,0.1h1.9h0.1v-1.9c0,0-0.1-0.1-0.2-0.1L50.3,83.2
				C50.3,83.2,50.3,83.2,50.3,83.2z M50.6,83.2c0.2,0,0.6,0,0.9,0H50.6z"/>
			<path class="st10" d="M53.2,83.2v2.4c0,0,0.1,0.1,0.2,0.1h2v-2.5c0,0-0.1-0.1-0.2-0.1L53.2,83.2C53.2,83.2,53.2,83.2,53.2,83.2z
				 M53.6,83.2c0.3,0,0.7,0,1,0H53.6z"/>
			<path class="st10" d="M56,83.2v3.1c0,0,0.1,0,0.2,0h2l0,0v-3.1c0,0-0.1-0.1-0.2-0.1L56,83.2C56,83.2,56,83.2,56,83.2z M58,85.6
				c0,0.1,0,0.2,0,0.3V85.6z M56.6,83.3c0.2,0,0.5,0,0.7,0H56.6z M56,83.8v0.6C56,84.2,56,84,56,83.8L56,83.8z"/>
			<path class="st10" d="M58.9,83.3V87c0,0,0.1,0.1,0.1,0.1h2c0,0,0.1,0,0.1-0.1v-3.8c0,0,0-0.1-0.1-0.1L58.9,83.3
				C59,83.2,58.9,83.2,58.9,83.3z M59.5,83.3L59.5,83.3z"/>
			<path class="st10" d="M61.7,83.2h1.9c0.1,0,0.2,0,0.2,0.1V88c0,0,0,0-0.1,0h-2c0,0-0.1,0-0.1-0.1v-4.7
				C61.6,83.2,61.7,83.2,61.7,83.2z"/>
			<path class="st10" d="M64.6,83.3v6c0,0,0.1,0,0.1,0h2h0.1v-6c0,0-0.1-0.1-0.2-0.1L64.6,83.3C64.6,83.2,64.6,83.2,64.6,83.3z
				 M66.6,88.2c0,0.2,0,0.3,0,0.5V88.2z M65.1,83.3c0.2,0,0.5,0,0.7,0H65.1z M64.6,88.6L64.6,88.6z"/>
			<path class="st12" d="M47.6,82.5h19h0.1l0,0l0,0l0,0v0.4l0,0c0,0,0,0-0.1,0h-19c0,0-0.1,0-0.1,0l0,0l0,0l0,0L47.6,82.5L47.6,82.5
				C47.5,82.5,47.6,82.5,47.6,82.5z"/>
			<path class="st10" d="M144.2,20.5H163c1.6,0,2.8,1.3,2.8,2.8v15.1c0,1.6-1.3,2.8-2.8,2.8h-18.8c-1.6,0-2.8-1.3-2.8-2.8V23.3
				C141.4,21.8,142.7,20.5,144.2,20.5z"/>
			<path class="st5" d="M152.1,33.3c-2.3,0-4.2-1.9-4.2-4.2s1.9-4.2,4.2-4.2s4.2,1.9,4.2,4.2c0,0,0,0,0,0
				C156.3,31.4,154.4,33.3,152.1,33.3L152.1,33.3z M152.1,25.8c-1.8,0-3.3,1.5-3.3,3.3c0,1.8,1.5,3.3,3.3,3.3c1.8,0,3.3-1.5,3.3-3.3
				c0,0,0,0,0,0C155.3,27.3,153.9,25.8,152.1,25.8z"/>
			
				<rect x="154.8" y="31.4" transform="matrix(0.7071 -0.7071 0.7071 0.7071 22.6419 119.2999)" class="st5" width="1" height="1.8"/>
			<path class="st5" d="M157.9,36.4l-2.5-2.5c-0.3-0.3-0.3-0.7,0-0.9l0.6-0.6c0.3-0.3,0.7-0.3,0.9,0l2.5,2.5c0.3,0.3,0.3,0.7,0,0.9
				l-0.6,0.6C158.6,36.7,158.2,36.7,157.9,36.4z"/>
			<path class="st4" d="M52.8,19.1h10.8c1.8,0,3.3,1.5,3.3,3.3v9.1c0,1.8-1.5,3.3-3.3,3.3H52.8c-1.8,0-3.3-1.5-3.3-3.3v-9.1
				C49.5,20.6,51,19.1,52.8,19.1z"/>
			<path class="st5" d="M58.2,30.3c-2,0-3.7-1.6-3.7-3.7s1.6-3.7,3.7-3.7c2,0,3.7,1.6,3.7,3.7c0,0,0,0,0,0
				C61.8,28.7,60.2,30.3,58.2,30.3z M58.2,24.1c-1.4,0-2.6,1.1-2.6,2.6s1.1,2.6,2.6,2.6s2.6-1.1,2.6-2.6c0,0,0,0,0,0
				C60.7,25.2,59.6,24.1,58.2,24.1z"/>
			<line class="st13" x1="60.3" y1="24.1" x2="56.1" y2="29.2"/>
			<path class="st3" d="M143.5,54.8h39.1c1.7,0,3,1.4,3,3V87c0,1.7-1.4,3-3,3h-39.1c-1.7,0-3-1.4-3-3V57.8
				C140.5,56.2,141.9,54.8,143.5,54.8z"/>
			<circle class="st11" cx="145.2" cy="58.1" r="0.9"/>
			<circle class="st11" cx="148.5" cy="58.1" r="0.9"/>
			<circle class="st11" cx="151.8" cy="58.1" r="0.9"/>
			<line class="st11" x1="140.5" y1="61.7" x2="185.6" y2="61.7"/>
			
				<rect x="142.6" y="64.8" transform="matrix(0.9999 -1.029726e-02 1.029726e-02 0.9999 -0.734 1.68)" class="st10" width="40.3" height="14.7"/>
			<polygon class="st3" points="180.7,72.1 161,72.3 160.9,70.8 180.7,70.6 			"/>
			<polygon class="st3" points="171.7,75.4 160.9,75.5 160.9,74.1 171.7,73.9 			"/>
			<path class="st4" d="M153.7,74.7c0.1,0.2,0.2,0.4,0.2,0.6h3.8c-0.1-0.8-0.2-1.6-0.6-2.3c-0.7-1.7-2.1-3-3.8-3.6l-1.2,3.8
				C152.9,73.5,153.4,74,153.7,74.7z"/>
			<polygon class="st3" points="157.2,70.2 155.7,70.2 155.7,68.9 			"/>
			<path class="st6" d="M150,73.5l0.3-0.2c0.4-0.2,0.9-0.3,1.4-0.2l1.2-3.9c-1.4-0.4-2.9-0.2-4.2,0.4l-0.3,0.1L150,73.5z"/>
			<path class="st3" d="M148.8,75.3c0.1-0.6,0.4-1.1,0.8-1.5l-1.6-3.8c-1.7,1.2-2.8,3.2-2.9,5.3H148.8z"/>
			<g class="st8">
				<polygon class="st3" points="119.3,47.5 76.7,47.5 76.7,58.8 119.3,58.8 				"/>
			</g>
			<rect x="78.6" y="49.4" class="st9" width="38.6" height="1.4"/>
			<rect x="78.6" y="52.2" class="st9" width="32.3" height="1.4"/>
			<rect x="78.6" y="54.9" class="st9" width="23.7" height="1.4"/>
			<path class="st4" d="M129.4,50.6c0.5-0.9,1.4-1.6,2.4-1.9c0.8-0.2,1.7-0.2,2.4,0.2l2-5.2c-4.4-1.7-9.4,0.1-11.7,4.2L129.4,50.6z"
				/>
			<path class="st2" d="M129.2,53.8c-0.1-0.1-0.1-0.3-0.1-0.4c-0.2-0.7-0.2-1.4,0-2.1l-4.9-2.7c-0.9,2-1,4.2-0.5,6.2l0.1,0.4
				L129.2,53.8z"/>
			<path class="st3" d="M132.6,56.3c-1.2-0.1-2.4-0.7-3.1-1.7l-5.5,1.4c1.5,3.7,5.1,6,9.1,5.8L132.6,56.3z"/>
			<path class="st3" d="M133.2,61.9L133.2,61.9c-4,0.2-7.6-2.2-9.1-5.9l0,0l0,0l5.5-1.5l0,0c0.7,1,1.8,1.7,3,1.7l0,0l0.6,5.5l0,0
				L133.2,61.9z M124.2,56c1.5,3.6,5.1,5.9,9,5.8l-0.6-5.5c-1.2-0.1-2.3-0.7-3-1.7L124.2,56z"/>
			<path class="st10" d="M137,44l-2,5.2c1.8,1.2,2.3,3.6,1.1,5.4c-0.5,0.8-1.3,1.3-2.2,1.6c-0.1,0-0.2,0.1-0.4,0.1l0.6,5.5
				c5.1-0.7,8.8-5.4,8.1-10.5C141.8,48.1,139.8,45.4,137,44z"/>
			<path class="st14" d="M76.8,137.6c-10.3,0-18.7,1.1-18.7,2.4s8.3,2.4,18.7,2.4s18.7-1.1,18.7-2.4S87.1,137.6,76.8,137.6z"/>
			<path class="st14" d="M136.9,134.4c10.3,0,18.6,1.1,18.6,2.4s-8.4,2.4-18.6,2.4s-18.7-1.1-18.7-2.4S126.6,134.4,136.9,134.4z"/>
			<path class="st15" d="M67.4,141c-1.3-0.3,0.3-1.8,1.3-2c-0.3,0.1-0.7,0.4-0.2,0.4c0.7,0,1.5-0.3,2-0.8c0.1,0.3,0.2,0.7,0.2,1
				C70.7,140,68.3,141.2,67.4,141z"/>
			<path class="st16" d="M68.5,139.6c-0.5-0.1-0.2-0.6,0.1-0.7c1.1-0.6,1.1-1.1,1.1-1.1h0.6c0,0,0.2,0.8,0.3,0.8
				C70.1,139.3,69.3,139.7,68.5,139.6z"/>
			<path class="st15" d="M86.1,140.5c0.2-1.3-1.6-1.2-2.6-1.4c0.3,0.2,0.6,0.4,0.2,0.5c-0.8,0.2-1.7,0-2.4-0.5
				c-0.1,0.4-0.2,0.7-0.2,1.1C81.1,140.6,86.1,140.8,86.1,140.5z"/>
			<path class="st16" d="M83.7,139.6c0.4-0.1,0.6-0.4-0.1-0.5c-0.4-0.1-0.8-0.2-1.2-0.4c-0.3-0.1-0.4-0.6-0.4-0.6h-0.5
				c0,0-0.2,0.9-0.3,1C82,139.6,82.9,139.8,83.7,139.6z"/>
			<path class="st17" d="M87.2,94.4c-1-2.8-1.9-4.8-2.5-5.1c-3.3-1.4-8.1-3.4-8.7-3.3c-0.6,0.3-4.4,6-5,9.6
				c-1.6,8.7-1.6,38.9-1.7,42c0,0.1,0.1,0.3,0.2,0.3l0.9,0.1c0.1,0,0.3-0.1,0.3-0.2c0.6-1.8,4.4-14.1,6.5-24.6
				c1.4-7.3,2.3-13.4,2.7-13.7c1,3.2,0.8,32.8,1.4,38.5c0.1,1,1.9,0.2,1.9-0.6c0-3.4,4.3-14.8,5.4-25.9
				C89.4,104,88.7,98.6,87.2,94.4z"/>
			<path class="st15" d="M87.2,94.4c-1-2.8-1.9-4.8-2.5-5.1c-0.9-0.4-1.9-0.8-2.8-1.2c-1.3-0.6,4.5,8.8,4.9,21
				c0.2,4.9-0.9,10-1.7,14.7c-1,5.6-1.8,10.8-2.3,13.3c-0.1,0.5-0.3,1-0.6,1.4c0.8-0.2,1.1-0.7,1.1-1c0-3.4,4.3-14.8,5.4-25.9
				C89.4,104,88.7,98.6,87.2,94.4z"/>
			<path class="st4" d="M141.4,58c0,0,2-1.4,3.2,0.5c0.7,0.9,1,2.1,0.9,3.3c1.8,1.4,2.9,3.4,3,5.6c0,1-0.4,5.8-5.2,5.8
				c-0.2,0-6-1.5-7.1-3.5c-0.5-1.4-0.7-2.8-0.4-4.3c0.2-2.1,0.9-4.2,2.1-5.9C138.9,58.3,140.2,57.1,141.4,58z"/>
			<path class="st18" d="M139.1,58.3c0.3-0.3,0.7-0.4,1.1-0.5c0.2,0,0.4,0,0.6,0c0.2,0.1,0.4,0.2,0.5,0.3l0,0h0.1
				c0.5-0.3,1.1-0.5,1.6-0.5c0.3,0,0.5,0.1,0.8,0.3L144,58c0.1,0,0.1,0.1,0.2,0.2c0.1,0.1,0.2,0.2,0.3,0.3c0.3,0.5,0.6,1,0.8,1.6
				c0.2,0.5,0.2,1.1,0.1,1.7v0.1h0.1c0.4,0.3,0.8,0.7,1.2,1.1c0.4,0.4,0.7,0.8,0.9,1.3c0.6,0.9,0.9,2,0.9,3.1c0-1.1-0.2-2.2-0.8-3.2
				c-0.3-0.5-0.6-1-0.9-1.4c-0.4-0.4-0.8-0.8-1.2-1.2v0.1c0.1-0.6,0.1-1.2-0.1-1.8c-0.2-0.6-0.5-1.1-0.8-1.6
				c-0.1-0.1-0.2-0.2-0.3-0.4c-0.1,0-0.1-0.1-0.2-0.2l-0.2-0.1c-0.3-0.2-0.6-0.3-0.9-0.3c-0.6,0-1.2,0.2-1.8,0.5h0.1
				c-0.2-0.1-0.4-0.2-0.6-0.3c-0.2,0-0.4,0-0.6,0C139.8,57.7,139.4,58,139.1,58.3z"/>
			<path class="st19" d="M122.7,83.5c1-1.3,6.1-5.8,6.1-5.8s2.2-6.9,2.9-8.6c0.2-0.5,0.5-1,0.8-1.6c0.4-0.8,2.2-1.7,4.4-2
				c-0.2,1.9-3.3,8.4-3.4,8.2c-0.4,1.8-1,3.5-1.7,5.2c-0.9,2-1.8,3.9-2.9,5.7c-1.5,2.6-6.4,2.6-6.4,2.6S121.7,84.7,122.7,83.5z"/>
			<path class="st15" d="M150.4,136.8c0.1-1.1-1.3-1-2.1-1.1c0.2,0.1,0.5,0.3,0.1,0.4c-0.7,0.1-1.4,0-1.9-0.4
				c-0.1,0.3-0.2,0.6-0.2,0.9C146.4,136.9,150.4,137,150.4,136.8z"/>
			<path class="st16" d="M148.5,136c0.3-0.1,0.4-0.3-0.1-0.4c-0.3-0.1-0.6-0.2-0.9-0.3c-0.2-0.1-0.3-0.4-0.3-0.4h-0.4
				c0,0-0.2,0.7-0.2,0.8C147.1,136,147.8,136.1,148.5,136z"/>
			<path class="st15" d="M124.2,136.6c-0.1-1.1,1.3-0.9,2.1-1c-0.2,0.1-0.5,0.3-0.2,0.4c0.7,0.2,1.4,0.1,1.9-0.3
				c0.1,0.3,0.1,0.6,0.1,0.9C128.2,136.9,124.2,136.8,124.2,136.6z"/>
			<path class="st16" d="M126.1,135.9c-0.3-0.1-0.4-0.4,0.1-0.4c0.3,0,0.6-0.1,0.9-0.2c0.2-0.1,0.3-0.4,0.3-0.4h0.4
				c0,0,0.1,0.7,0.2,0.8C127.5,136,126.8,136.1,126.1,135.9z"/>
			<path class="st1" d="M145.8,68.1c-2.4-3.3-10-3.4-12.1-1.2c-2.3,2.4-1,12-1,12l12.4,1.9C145.1,80.8,147.8,70.9,145.8,68.1z"/>
			<path class="st17" d="M130.1,85c1.6-3.5,2.9-5.6,3.5-5.9c1.9,0.1,10.7,1.4,11.5,1.5c0.6,0.4,0.9,2.8,2.3,6.4
				c3.4,9.2,0.5,48,0.5,48l-2,0.1c0,0-2.1-16.8-4.5-28.8c-1.5-7.6-3.6-15-3.6-15c-1.1,3.3-7.5,36.8-8.5,42.8c-0.2,1-2.2,1.6-2.2,0.7
				C127,128.6,125.9,93.8,130.1,85z"/>
			<path class="st20" d="M99.4,87.8c-1-0.7-5.6-2.8-5.6-2.8s-3-4.3-3.9-5.3c-0.3-0.3-0.6-0.6-0.9-0.9c-1-0.6-2.2-1-3.3-1
				c1.1,2,2.4,3.8,3.8,5.5c0.7,1.1,1.5,2.2,2.3,3.3c1,1.2,2.1,2.3,3.3,3.4c1.6,1.5,5.2,0.6,5.2,0.6S100.4,88.5,99.4,87.8z"/>
			<path class="st19" d="M79,78.2c-1,2.8-2.1,5.5-3.5,8.1c0,0-0.3,0.8,3.1,2.8c2.2,1.2,4.6,1.7,7,1.7c1.1-1.8,2.1-3.7,3-5.6
				c1.5-3.3,1.2-5.7,0.6-6.2c-0.2-0.2-3.9-3.2-7.6-2.9C80.4,76.2,79.4,77.1,79,78.2z"/>
			<path class="st1" d="M143.1,66.1c2.1,0.4,3.9,1.6,5.2,3.3c1.6,2.2,3.6,6,3.2,9.1c-0.3,2.3-3.4-1.8-3.4-1.8l-3.4-5.9
				C144.8,70.8,142.7,66,143.1,66.1z"/>
			<path class="st19" d="M138.3,69.1c0.4-1.3,1-2.5,1.6-3.7c0,0-4.7-0.3-5.8,0.9c-2.3,2.4-1.4,12.6-1.4,12.6l5.4,0.7
				C138.1,79.6,137.2,72.8,138.3,69.1z"/>
			<path class="st1" d="M150.6,80.6c-2.1,1.1-12.2-0.9-12.6-4.5c-0.2-0.7,0.1-1.3,0.6-1.8l11.6,2.5
				C150.1,76.8,153.1,79.3,150.6,80.6z"/>
			<path class="st16" d="M140,64c0.3,0.7,0.5,1.5,0.6,2.3c-0.1,0.3-0.4,0.6-0.7,0.2c-0.3-0.7-0.4-1.5-0.5-2.3L140,64z"/>
			<path class="st21" d="M139.6,65.5c0-0.3-0.1-0.5-0.1-0.8l0.8-0.1c0,0,0.1,0.3,0.2,0.6c-0.1,0.3-0.4,0.4-0.7,0.3
				C139.7,65.6,139.6,65.5,139.6,65.5z"/>
			<path class="st16" d="M138.2,63.8c-0.1-0.6-0.1-1.2,0-1.7c0-0.6,0.5-1,1.1-0.9c0,0,0,0,0.1,0c0.7,0,1.4,0.2,2.1,0.5
				c0.4,0.3,0.4,0.9,0.4,1.3c0,0.6-0.2,1.1-0.5,1.6c-0.4,0.3-0.8,0.5-1.3,0.5C138.7,65,138.4,64.6,138.2,63.8z"/>
			<path class="st22" d="M138.5,74.3c1,0.3,1.9,0.5,2.9,0.7s1.9,0.4,2.9,0.7s1.9,0.4,2.9,0.6l1.5,0.3c0.5,0.1,1,0.2,1.5,0.2
				l-1.4-0.4l-1.4-0.3c-1-0.2-1.9-0.4-2.9-0.7s-1.9-0.4-2.9-0.6S139.5,74.5,138.5,74.3z"/>
			<path class="st22" d="M150.6,80.6c-0.5,0.2-1,0.2-1.6,0.2c-0.5,0-1.1,0-1.6-0.1c-1.1-0.1-2.1-0.3-3.2-0.6c-1-0.3-2-0.6-3-1
				c-0.5-0.2-1-0.5-1.4-0.7c-0.5-0.3-0.9-0.6-1.3-1c0.7,0.8,1.6,1.5,2.6,1.9c1,0.5,2,0.8,3.1,1.1c1.1,0.3,2.1,0.4,3.2,0.5
				c0.5,0,1.1,0.1,1.6,0c0.3,0,0.5,0,0.8-0.1C150.1,80.8,150.3,80.8,150.6,80.6z"/>
			<path class="st15" d="M130.1,85c1.6-3.5,2.9-5.6,3.5-5.9c0.8,0,4.6,0.5,4.6,0.5s-5.8,8.7-7.1,15.3c-2.8,14.3-2.4,39.9-2.8,40.1
				s-1.2,0.2-1.2-0.3C127,128.6,125.9,93.8,130.1,85z"/>
			
				<rect x="100.1" y="81" transform="matrix(0.7782 -0.628 0.628 0.7782 -28.8671 83.5445)" class="st19" width="7.5" height="3.3"/>
			<path class="st17" d="M120.1,54.5c8.3,0,15.1,6.8,15.1,15.1c0,4.6-2.1,8.9-5.6,11.8c-6.5,5.2-16,4.2-21.2-2.3
				c-5.2-6.5-4.2-16,2.3-21.3C113.3,55.6,116.6,54.4,120.1,54.5 M120.1,51.1c-10.2,0-18.5,8.3-18.5,18.5S109.9,88,120.1,88
				c10.2,0,18.5-8.3,18.5-18.5c0-4.2-1.4-8.3-4.1-11.6C130.9,53.6,125.6,51.1,120.1,51.1L120.1,51.1z"/>
			
				<rect x="83.6" y="87.7" transform="matrix(0.7782 -0.628 0.628 0.7782 -36.5355 78.8198)" class="st23" width="19.5" height="6.8"/>
			
				<rect x="85" y="87.7" transform="matrix(0.7782 -0.628 0.628 0.7782 -36.5298 78.8233)" class="st17" width="16.6" height="6.8"/>
			<g class="st24">
				<circle class="st1" cx="120.1" cy="69.6" r="15.9"/>
			</g>
			<path class="st16" d="M99.3,91.1C99.3,91.1,99.3,91.1,99.3,91.1c0.4-0.1,1.8-0.6,1.8-1.2c0-0.8-0.9-1.4-1.2-1.3s0.1,0.6,0.1,0.6
				s0-0.1-0.2,0s0,0.6,0,0.9S98.8,91.1,99.3,91.1z"/>
			<path class="st16" d="M94.4,91.5c0,0,0.2-0.1,0.3-0.3s0.4-0.4,0.2-0.4c-0.2,0-0.4,0.1-0.5,0.2c-0.4,0.2-0.9,0.6-0.5,0.6
				C94.1,91.6,94.2,91.6,94.4,91.5z"/>
			<path class="st16" d="M93.4,91.7c0-0.1,0.1-0.1,0.2-0.2c0.4-0.2,0.7-0.3,1.1-0.4c0.5,0,1,0.2,1.4,0.5c0.1,0.2-0.4,0.1-0.4,0.1
				s0.6,0,0.6,0.3s-0.8,0.3-0.8,0.3s0.3,0.3,0.1,0.3c-0.3,0-0.6,0-0.9,0c-0.2,0-0.4,0-0.5-0.1c-0.3-0.1-0.6-0.2-0.8-0.4
				C93.3,92,93.3,91.8,93.4,91.7z"/>
			<path class="st16" d="M124.9,87.5c0,0-1.5,0.7-1.8,0.3s-1.1-0.9-1-1.1s0.5,0.3,0.5,0.3s-0.4-0.4-0.4-0.5s0.2,0,0.2,0
				s-0.1,0,0.1-0.1s1,0.6,1.2,0.7s1.2-0.2,1.6,0.1C125.4,87.2,125.3,87.3,124.9,87.5z"/>
			<path class="st16" d="M138.3,75c0,0,0.7-0.8,0.5-1.4c-0.2-0.5-0.5-0.9-0.9-1.3c-0.2,0,0.3,0.7,0.3,0.7s-0.7-0.9-0.9-0.8
				s0.1,0.4,0.1,0.4s0-0.2-0.2,0s0.3,0.8,0.4,1s-0.2,1-0.1,1.4C137.6,75.3,138,75.3,138.3,75z"/>
			<path class="st20" d="M80.5,90c1.7,0.6,3.4,0.9,5.2,0.8c0,0,1.5-2.5,3-5.6c1.6-3.3,1.1-5.7,0.6-6.2c-0.6-0.5-1.3-1-2-1.4
				c0.4,2.3,0.1,4.7-0.8,6.9C84.7,87.8,80.2,89.9,80.5,90z"/>
			<path class="st19" d="M82.4,76.3c-0.2-0.4-1.6,0.1-1.8,0.4c-0.7,0.9-1.2,2-1.5,3.1c-0.9,2.5-0.8,7.7,0.9,10.4
				c1.3,2,11,5.3,13.2,2.5c0.5-0.5,0.6-1.2,0.4-1.8l-11.3-3.7l0.6-6.8C83.1,79,82.9,77.6,82.4,76.3z"/>
			<path class="st25" d="M79.1,79.9c-0.1,0.4-0.2,0.9-0.3,1.3c0,0.2-0.1,0.4-0.1,0.7c0,0.2,0,0.4,0,0.7c-0.1,0.9-0.1,1.8,0,2.7
				c0.1,0.9,0.2,1.8,0.4,2.6c0,0.2,0.1,0.4,0.2,0.6s0.1,0.4,0.2,0.6s0.2,0.4,0.2,0.6s0.2,0.4,0.3,0.6c-0.5-0.7-0.9-1.6-1.1-2.4
				c-0.2-0.9-0.4-1.8-0.5-2.7c-0.1-0.9-0.1-1.8,0-2.7C78.6,81.6,78.8,80.7,79.1,79.9z"/>
			<path class="st25" d="M84.9,88.1l-1.3-0.4l-1.3-0.4h-0.1v-0.1c0-0.6,0.1-1.1,0.1-1.7l0.1-1.7c0.1-1.1,0.2-2.3,0.3-3.4l0,0
				c0.1-0.7,0.1-1.3,0.1-2c0-0.3-0.1-0.7-0.1-1c-0.1-0.3-0.2-0.7-0.3-1c0.4,0.6,0.6,1.3,0.6,2c0,0.3,0,0.7,0,1c0,0.3,0,0.7-0.1,1
				l0,0c-0.1,1.1-0.2,2.3-0.3,3.4l-0.2,1.7c0,0.6-0.1,1.1-0.2,1.7l-0.1-0.1l1.3,0.5C84,87.7,84.5,87.9,84.9,88.1z"/>
			<path class="st16" d="M87.1,76.1c0,0-1.2,1.1-1.1,1.4c0.1,0.4,0.5,0.7,0.9,0.6c0.5-0.1,1-1.4,1-1.4L87.1,76.1z"/>
			<path class="st21" d="M86.3,76.9c0.2,0.4,0.6,0.6,1,0.8c0.2-0.2,0.3-0.5,0.4-0.8l-0.9-0.6C86.7,76.5,86.5,76.7,86.3,76.9z"/>
			<path class="st4" d="M89.8,75.4c0.6-0.5,1-1.3,1.2-2.1c0-0.6-0.1-1.1-0.4-1.6c0,0-0.1-0.1-0.1,0c0,0,0,0,0,0
				c-0.1,0.3-0.3,0.9-0.7,0.9c-0.6,0-2.9-1.4-3.1,0.7c0,0-1.6,0.2,0.2,2.9L89.8,75.4z"/>
			<path class="st16" d="M89.4,76.9c0.3-0.4,0.5-0.9,0.6-1.3c0.2-0.4-0.1-0.9-0.5-1.1c0,0,0,0,0,0c-0.6-0.2-1.2-0.3-1.8-0.4
				c-0.4,0.1-0.6,0.6-0.7,0.9c-0.2,0.4-0.2,0.9-0.2,1.4c0.2,0.4,0.5,0.7,0.9,0.9C88.6,77.7,89,77.5,89.4,76.9z"/>
			<path class="st18" d="M91,73.3c0-0.3-0.1-0.6-0.1-0.8c0-0.1-0.1-0.3-0.2-0.4c0-0.1-0.1-0.1-0.1-0.2v-0.1l0,0l0,0v0.1
				c0,0.1,0,0.1-0.1,0.2c0,0.1-0.1,0.3-0.2,0.4c-0.1,0.2-0.3,0.3-0.4,0.3c-0.2,0-0.3,0-0.5-0.1c-0.5-0.2-1.1-0.3-1.6-0.3
				c-0.3,0-0.5,0.1-0.7,0.3c-0.2,0.2-0.2,0.5-0.3,0.7l0,0c0,0.1-0.1,0.1-0.1,0.1c-0.2,0-0.4,0.2-0.5,0.4c-0.1,0.3-0.1,0.5,0,0.8
				c0,0.1,0.1,0.3,0.1,0.4c0,0.1,0.1,0.3,0.2,0.4c0.1,0.3,0.2,0.5,0.4,0.8c-0.2-0.2-0.3-0.5-0.5-0.7c-0.1-0.2-0.3-0.5-0.3-0.8
				c-0.1-0.3-0.1-0.6,0-0.9c0.1-0.3,0.3-0.6,0.7-0.6l-0.1,0.1c0-0.1,0-0.3-0.1-0.4l0.1-0.2l0.1-0.2c0.2-0.2,0.5-0.4,0.9-0.4
				c0.6,0,1.2,0.2,1.7,0.4c0.1,0.1,0.2,0.1,0.4,0.1c0.1,0,0.2-0.1,0.3-0.2c0.1-0.1,0.1-0.2,0.2-0.3c0-0.1,0.1-0.1,0.1-0.2v-0.1
				c0-0.1,0.1-0.1,0.1-0.1c0.1,0,0.1,0,0.2,0.1v0.1c0,0.1,0.1,0.1,0.1,0.2c0.1,0.1,0.1,0.3,0.1,0.4C90.9,72.8,91,73.1,91,73.3z"/>
		</g>
	</g>
</g>
</svg>
