<svg xmlns="http://www.w3.org/2000/svg" viewBox="0 0 40 40"><defs><style>.cls-1{fill:#fff;}.cls-2{fill:none;}</style></defs><title>D-MDCSH-prototipo-v5</title><g id="Capa_8" data-name="Capa 8"><path class="cls-1" d="M24.06,12.23V10.08a.46.46,0,0,0-.45-.45H21.8a3.16,3.16,0,0,0-6.31,0,2.25,2.25,0,1,1-4.5,0V9.18h-.91v.45a3.16,3.16,0,1,0,6.31,0,2.26,2.26,0,0,1,4.51,0H19.1a.45.45,0,0,0-.45.45v2.15a10.81,10.81,0,1,0,5.41,0ZM21.35,32.62A9.91,9.91,0,0,1,19.2,13a.46.46,0,0,0,.35-.44V10.54h3.6v2.05a.46.46,0,0,0,.36.44,9.91,9.91,0,0,1-2.16,19.59Zm0,0"/><rect class="cls-1" x="10.08" y="6.48" width="0.9" height="1.35"/><rect class="cls-1" x="7.83" y="8.73" width="1.35" height="0.9"/><rect class="cls-1" x="11.89" y="8.73" width="1.35" height="0.9"/><path class="cls-1" d="M8,7.25l.64-.64.9.9-.64.64Zm0,0"/><path class="cls-1" d="M11.57,7.51l.9-.9.64.64-.9.9Zm0,0"/><path class="cls-1" d="M8,11.12l.9-.9.64.63-.9.91Zm0,0"/><path class="cls-1" d="M22.67,22.25H20a1.35,1.35,0,1,1,0-2.7h4v-.9H21.8v-.9h-.9v.9H20a2.25,2.25,0,0,0,0,4.5h2.64a1.36,1.36,0,1,1,0,2.71h-4v.9H20.9v.9h.9v-.9h.87a2.26,2.26,0,1,0,0-4.51Zm0,0"/><rect class="cls-2" width="40" height="40"/></g></svg>