<?xml version="1.0" encoding="utf-8"?>
<!-- Generator: Adobe Illustrator 23.0.3, SVG Export Plug-In . SVG Version: 6.00 Build 0)  -->
<svg version="1.1" id="Capa_1" xmlns="http://www.w3.org/2000/svg" xmlns:xlink="http://www.w3.org/1999/xlink" x="0px" y="0px"
	 viewBox="0 0 46.6 46.6" style="enable-background:new 0 0 46.6 46.6;" xml:space="preserve">
<style type="text/css">
	.st0{fill:none;}
	.st1{fill:#406EB3;}
	.st2{fill:#CECECE;}
</style>
<title>qwery_plazo</title>
<g>
	<g id="Assets">
		<rect class="st0" width="46.6" height="46.6"/>
		<rect x="19.6" y="13.4" class="st1" width="7.4" height="1"/>
		<path class="st1" d="M34.3,13.4h-5.7v1h5.7c0.5,0,0.8,0.4,0.8,0.9v18.5c0,0.5-0.4,0.8-0.8,0.8h-22c-0.5,0-0.9-0.4-0.9-0.8V15.3
			c0-0.5,0.4-0.9,0.9-0.9H18v-1h-5.7c-1,0-1.9,0.8-1.9,1.8c0,0,0,0,0,0v18.5c0,1,0.8,1.9,1.8,1.9c0,0,0,0,0,0h22
			c1,0,1.8-0.8,1.8-1.8V15.3C36.2,14.3,35.3,13.4,34.3,13.4z"/>
		<path class="st2" d="M18.5,25.3H14v-3.5h4.5L18.5,25.3z M15,24.3h2.6v-1.5H15L15,24.3z"/>
		<path class="st2" d="M18.5,29.2H14v-3.5h4.5L18.5,29.2z M15,28.2h2.6v-1.5H15L15,28.2z"/>
		<path class="st2" d="M18.5,33H14v-3.5h4.5L18.5,33z M15,32h2.5v-1.5H15V32z"/>
		<path class="st2" d="M23.2,25.3h-4.5v-3.5h4.6L23.2,25.3z M19.7,24.3h2.5v-1.5h-2.5V24.3z"/>
		<path class="st2" d="M23.2,29.2h-4.5v-3.5h4.6L23.2,29.2z M19.7,28.2h2.5v-1.5h-2.5V28.2z"/>
		<path class="st2" d="M23.2,33h-4.5v-3.5h4.6L23.2,33z M19.7,32h2.5v-1.5h-2.5V32z"/>
		<path class="st2" d="M28,25.3h-4.6v-3.5H28V25.3z M24.4,24.3H27v-1.5h-2.6L24.4,24.3z"/>
		<path class="st2" d="M28,29.2h-4.6v-3.5H28V29.2z M24.4,28.2H27v-1.5h-2.6L24.4,28.2z"/>
		<path class="st2" d="M28,33h-4.6v-3.5H28V33z M24.4,32H27v-1.5h-2.6V32z"/>
		<path class="st2" d="M32.7,25.3h-4.5v-3.5h4.6L32.7,25.3z M29.1,24.3h2.5v-1.5h-2.5L29.1,24.3z"/>
		<path class="st2" d="M32.7,29.2h-4.5v-3.5h4.6L32.7,29.2z M29.1,28.2h2.5v-1.5h-2.5L29.1,28.2z"/>
		<path class="st1" d="M32.7,21.2H14v-4.4h18.7L32.7,21.2z M15,20.2h16.7v-2.4H15L15,20.2z"/>
		<path class="st2" d="M18.8,16.4c-0.7,0-1.3-0.6-1.3-1.3v-1.9c0-0.7,0.6-1.3,1.3-1.3c0.7,0,1.3,0.6,1.3,1.3l0,0v1.9
			C20.1,15.8,19.5,16.4,18.8,16.4L18.8,16.4z M18.8,12.9c-0.2,0-0.3,0.1-0.3,0.3c0,0,0,0,0,0v1.9c0,0.2,0.1,0.3,0.3,0.3
			c0.2,0,0.3-0.1,0.3-0.3v-1.9C19.1,13,19,12.9,18.8,12.9C18.8,12.9,18.8,12.9,18.8,12.9z"/>
		<path class="st2" d="M27.8,16.4c-0.7,0-1.3-0.6-1.3-1.3v-1.9c-0.1-0.7,0.5-1.4,1.2-1.4s1.4,0.5,1.4,1.2c0,0.1,0,0.2,0,0.2v1.9
			C29.1,15.8,28.5,16.4,27.8,16.4z M27.8,12.9c-0.2,0-0.3,0.1-0.3,0.3v1.9c0,0.2,0.2,0.3,0.4,0.2c0.1,0,0.2-0.1,0.2-0.2v-1.9
			C28.1,13,28,12.9,27.8,12.9L27.8,12.9z"/>
	</g>
</g>
</svg>
