<?xml version="1.0" encoding="utf-8"?>
<!-- Generator: Adobe Illustrator 23.0.3, SVG Export Plug-In . SVG Version: 6.00 Build 0)  -->
<svg version="1.1" id="Capa_1" xmlns="http://www.w3.org/2000/svg" xmlns:xlink="http://www.w3.org/1999/xlink" x="0px" y="0px"
	 viewBox="0 0 46.6 46.6" style="enable-background:new 0 0 46.6 46.6;" xml:space="preserve">
<style type="text/css">
	.st0{fill:none;}
	.st1{fill:#CECECE;}
	.st2{fill:#406EB3;}
</style>
<title>qwery_monto</title>
<g>
	<g id="Assets">
		<rect class="st0" width="46.6" height="46.6"/>
		<path class="st1" d="M36,26.8v1.6H10.6v-1.6h-1v8.9H37v-8.9H36z M36,34.6H10.6v-1.1H36V34.6z M36,32.5H10.6v-1.1H36V32.5z
			 M36,30.4H10.6v-1.1H36V30.4z"/>
		<path class="st2" d="M37,27.3H9.6V11H37V27.3z M10.6,26.3H36V12H10.6L10.6,26.3z"/>
		<path class="st2" d="M31.4,25.2H15.2v-0.5c0-1.7-1.4-3-3.1-3h-0.5v-5.1h0.5c1.7,0,3.1-1.4,3.1-3.1v-0.5h16.2v0.5
			c0,1.7,1.4,3,3.1,3.1H35v5.1h-0.5c-1.7,0-3,1.3-3,3L31.4,25.2z M16.2,24.2h14.3c0.2-1.8,1.7-3.3,3.5-3.5v-3.1
			c-1.8-0.2-3.3-1.7-3.5-3.5H16.2c-0.2,1.8-1.7,3.3-3.5,3.5v3.1C14.5,20.9,15.9,22.4,16.2,24.2z"/>
		<path class="st2" d="M23.3,23.2L23.3,23.2c-2.2,0-4.1-1.8-4.1-4.1c0-2.2,1.8-4.1,4.1-4.1s4.1,1.8,4.1,4.1l0,0
			C27.4,21.4,25.6,23.2,23.3,23.2z M23.3,16.1c-1.7,0-3.1,1.4-3.1,3.1c0,1.7,1.4,3.1,3.1,3.1c1.7,0,3.1-1.4,3.1-3.1c0,0,0,0,0,0
			C26.4,17.4,25,16.1,23.3,16.1z"/>
	</g>
</g>
</svg>
