<?xml version="1.0" encoding="utf-8"?>
<!-- Generator: Adobe Illustrator 23.0.3, SVG Export Plug-In . SVG Version: 6.00 Build 0)  -->
<svg version="1.1" id="Capa_1" xmlns="http://www.w3.org/2000/svg" xmlns:xlink="http://www.w3.org/1999/xlink" x="0px" y="0px"
	 viewBox="0 0 25 25" style="enable-background:new 0 0 25 25;" xml:space="preserve">
<style type="text/css">
	.st0{fill:none;}
	.st1{fill:#406EB3;}
	.st2{fill:#CECECE;}
</style>
<title>qwery_bullet</title>
<g>
	<g id="Assets">
		<rect class="st0" width="25" height="25"/>
		<path class="st1" d="M12.5,15.6c-0.2,0-0.3-0.1-0.5-0.2l-3.7-3.8C8,11.4,8,11,8.3,10.8c0,0,0,0,0,0c0.3-0.3,0.7-0.3,0.9,0l3.3,3.3
			l7.6-7.6c0.3-0.3,0.7-0.3,0.9,0c0.3,0.3,0.3,0.7,0,0.9c0,0,0,0,0,0l-8,8C12.9,15.5,12.7,15.6,12.5,15.6z"/>
		<path class="st2" d="M19.6,9.7c0.4,0.9,0.5,1.8,0.5,2.8c0,4.1-3.3,7.5-7.4,7.5s-7.5-3.3-7.5-7.4s3.3-7.5,7.4-7.5
			c2.1,0,4.1,0.8,5.5,2.4l-0.7,0.7C15.1,5.6,11,5.4,8.4,7.8s-2.8,6.5-0.4,9.1s6.5,2.8,9.1,0.4c1.3-1.2,2.1-3,2.1-4.8
			c0-0.7-0.1-1.4-0.3-2L19.6,9.7z"/>
	</g>
</g>
</svg>
