<svg xmlns="http://www.w3.org/2000/svg" viewBox="0 0 40 40"><defs><style>.cls-1{fill:#fff;}.cls-2{fill:none;}</style></defs><title>D-MDCSH-prototipo-v5</title><g id="Capa_8" data-name="Capa 8"><path class="cls-1" d="M31.7,17,28,13.12A9.78,9.78,0,0,0,25,11l-2.9-1.35a.65.65,0,0,0-.24-.06H18.11a.46.46,0,0,0-.2,0L15,11A9.78,9.78,0,0,0,12,13.12L8.3,17a.48.48,0,0,0,0,.67L11.57,21a.5.5,0,0,0,.68,0l.87-.89v9.82a.48.48,0,0,0,.47.48H26.41a.48.48,0,0,0,.47-.48V20.07l.87.89a.5.5,0,0,0,.68,0l3.27-3.34A.48.48,0,0,0,31.7,17ZM23,11.52l0-.39,1.32.61,0,.09a3.6,3.6,0,0,1,.09,2.06,6.15,6.15,0,0,1-1.12,2.23l-.17.21-.19-.19a3.2,3.2,0,0,0-1.13-.78l-.31-.11.22-.26A5.2,5.2,0,0,0,23,12.07,5,5,0,0,0,23,11.52Zm-4.77-.84.07-.1h3.42l.07.1A2.12,2.12,0,0,1,22,12a4.33,4.33,0,0,1-1.91,3.15l-.13.09-.13-.09A4.36,4.36,0,0,1,18,12,2.12,2.12,0,0,1,18.22,10.68Zm-2.54,1.15,0-.09L17,11.13l0,.39a3.39,3.39,0,0,0,0,.55A5.13,5.13,0,0,0,18.3,15l.22.26-.32.11a3.29,3.29,0,0,0-1.13.78l-.19.19-.16-.21a6.19,6.19,0,0,1-1.13-2.23A3.6,3.6,0,0,1,15.68,11.83ZM28.09,20l-1.34-1.37a.48.48,0,0,0-.52-.11h0a.47.47,0,0,0-.29.44V29.42H14.06V18.91a.47.47,0,0,0-.29-.44.48.48,0,0,0-.52.11L11.91,20,9.3,17.28l3.42-3.5a9,9,0,0,1,1.46-1.22l.38-.25,0,.46a6.54,6.54,0,0,0,2,4.63.48.48,0,0,0,.35.16h0a.52.52,0,0,0,.36-.19,2.26,2.26,0,0,1,2-1.23h.22v4a.47.47,0,0,0,.47.47.48.48,0,0,0,.48-.47v-4h.22a2.27,2.27,0,0,1,2,1.23.48.48,0,0,0,.35.19h0a.48.48,0,0,0,.35-.16,6.54,6.54,0,0,0,2-4.63l0-.46.38.26a8.46,8.46,0,0,1,1.46,1.21l3.41,3.5Z"/><rect class="cls-2" width="40" height="40"/></g></svg>