<svg xmlns="http://www.w3.org/2000/svg" viewBox="0 0 40 40"><defs><style>.cls-1{fill:#fff;}.cls-2{fill:none;}</style></defs><title>D-MDCSH-prototipo-v5</title><g id="Capa_8" data-name="Capa 8"><path class="cls-1" d="M25.32,13.79H22.66V8.91h.89A.44.44,0,0,0,24,8.47V7.14a.44.44,0,0,0-.44-.44h-7.1a.44.44,0,0,0-.44.44V8.47a.44.44,0,0,0,.44.44h.89v4.88H14.68A2.21,2.21,0,0,0,12.46,16V29.76A2.21,2.21,0,0,0,14.68,32v.89a.44.44,0,0,0,.44.44H16.9a.44.44,0,0,0,.44-.44V32h5.32v.89a.44.44,0,0,0,.44.44h1.78a.44.44,0,0,0,.44-.44V32a2.21,2.21,0,0,0,2.22-2.21V16a2.21,2.21,0,0,0-2.22-2.22ZM16.9,7.58h6.2V8H16.9Zm1.33,1.33h3.54v4.88H18.23ZM16.45,32.42h-.88V32h.88Zm8,0h-.88V32h.88Zm2.22-2.66a1.33,1.33,0,0,1-1.33,1.33H14.68a1.33,1.33,0,0,1-1.33-1.33V16a1.32,1.32,0,0,1,1.33-1.33H25.32A1.32,1.32,0,0,1,26.65,16Zm0,0"/><path class="cls-1" d="M20,15.57a.44.44,0,0,0-.44.44V29.76a.44.44,0,0,0,.88,0V16a.44.44,0,0,0-.44-.44Zm0,0"/><path class="cls-1" d="M23.55,16.45a.45.45,0,0,0-.45.45v12a.45.45,0,0,0,.89,0v-12a.45.45,0,0,0-.44-.45Zm0,0"/><path class="cls-1" d="M16.45,16.45a.45.45,0,0,0-.44.45v12a.45.45,0,0,0,.89,0v-12a.45.45,0,0,0-.45-.45Zm0,0"/><rect class="cls-2" width="40" height="40"/></g></svg>