<svg xmlns="http://www.w3.org/2000/svg" viewBox="0 0 151.9 151.9"><defs><style>.cls-1{fill:none;}.cls-2{fill:#767579;}.cls-3{fill:#00c2b9;}</style></defs><title>Alerta_noencontrado</title><g id="Capa_2" data-name="Capa 2"><g id="Icono"><rect class="cls-1" width="151.9" height="151.9"/><path class="cls-2" d="M124.36,125.18H82.22v-5h42.14a3,3,0,0,0,3-3V20.33a3,3,0,0,0-3-3H27.54a3,3,0,0,0-3,3v96.81a3,3,0,0,0,3,3H69.68v5H27.54a8,8,0,0,1-8-8V20.33a8,8,0,0,1,8-8h96.82a8,8,0,0,1,8,8v96.81A8,8,0,0,1,124.36,125.18Z"/><path class="cls-2" d="M132.4,36.18H19.5V20.33a8,8,0,0,1,8-8h96.82a8,8,0,0,1,8,8Zm-107.9-5H127.4V20.33a3,3,0,0,0-3-3H27.54a3,3,0,0,0-3,3Z"/><path class="cls-2" d="M34.08,24.23a2.77,2.77,0,1,1-2.77-2.76A2.77,2.77,0,0,1,34.08,24.23Z"/><path class="cls-2" d="M41.76,24.23A2.77,2.77,0,1,1,39,21.47,2.77,2.77,0,0,1,41.76,24.23Z"/><path class="cls-2" d="M49.43,24.23a2.77,2.77,0,1,1-2.76-2.76A2.76,2.76,0,0,1,49.43,24.23Z"/><path class="cls-3" d="M76,105.29a30.47,30.47,0,1,1,30.47-30.46A30.5,30.5,0,0,1,76,105.29Zm0-55.93a25.47,25.47,0,1,0,25.47,25.47A25.5,25.5,0,0,0,76,49.36Z"/><path class="cls-2" d="M76,89.75a2.3,2.3,0,0,1-2.3-2.3V86.28a2.3,2.3,0,1,1,4.6,0v1.17A2.3,2.3,0,0,1,76,89.75Z"/><path class="cls-2" d="M76,82a2.29,2.29,0,0,1-2.3-2.29v-2A6.12,6.12,0,0,1,77.39,72a3.87,3.87,0,0,0,2.35-4.46,3.82,3.82,0,0,0-2.93-2.93,3.89,3.89,0,0,0-4.74,3.79,2.3,2.3,0,0,1-4.59,0,8.48,8.48,0,1,1,11.61,7.87,1.51,1.51,0,0,0-.84,1.42v2A2.29,2.29,0,0,1,76,82Z"/><rect class="cls-3" x="73.45" y="102.79" width="5" height="7.47"/><path class="cls-3" d="M82.22,139.61a2.49,2.49,0,0,1-2.5-2.5V113.34a.58.58,0,0,0-.58-.58H72.76a.58.58,0,0,0-.58.58v23.77a2.5,2.5,0,0,1-5,0V113.34a5.58,5.58,0,0,1,5.58-5.58h6.38a5.59,5.59,0,0,1,5.58,5.58v23.77A2.5,2.5,0,0,1,82.22,139.61Z"/></g></g></svg>