<svg xmlns="http://www.w3.org/2000/svg" viewBox="0 0 120.38 120.38"><defs><style>.cls-1{fill:none;}.cls-2{fill:#767579;}.cls-3{fill:#00c2b9;}</style></defs><title>Alerta_ok</title><g id="Capa_2" data-name="Capa 2"><g id="Icono"><rect class="cls-1" width="120.38" height="120.38"/><path class="cls-2" d="M99.05,48.29a44.85,44.85,0,0,1,3.31,16.9,45.35,45.35,0,1,1-11.9-30.56l-4.32,4.29A39.48,39.48,0,1,0,94.31,53Z"/><path class="cls-3" d="M55.76,84.26a4,4,0,0,1-2.83-1.17L30.13,60.28a4,4,0,0,1,5.66-5.66l20,20,46-46a4,4,0,0,1,5.66,5.66L58.59,83.09A4,4,0,0,1,55.76,84.26Z"/></g></g></svg>