<svg xmlns="http://www.w3.org/2000/svg" viewBox="0 0 120 120"><defs><style>.cls-1{fill:none;}.cls-2{fill:#00c2b9;}.cls-3{fill:#767579;}</style></defs><title>Alerta_buscando</title><g id="Capa_2" data-name="Capa 2"><g id="Icono"><rect class="cls-1" width="120" height="120"/><path class="cls-2" d="M81.51,99.62a1.91,1.91,0,0,0-2.65-.56A37.75,37.75,0,0,1,27,46.32a1.91,1.91,0,0,0-3.17-2.14A41.58,41.58,0,0,0,81,102.27,1.93,1.93,0,0,0,81.51,99.62Z"/><path class="cls-2" d="M87.93,93.82a1.91,1.91,0,0,0-2.7,0l-.07.07a1.91,1.91,0,1,0,2.72,2.69l.08-.08A1.9,1.9,0,0,0,87.93,93.82Z"/><path class="cls-2" d="M95.68,42.38a2,2,0,0,0,1.36.56,1.91,1.91,0,0,0,1.35-.56l3.19-3.19a5.84,5.84,0,0,0,0-8.24l-6.83-6.83a5.84,5.84,0,0,0-8.24,0l-3.19,3.19a1.91,1.91,0,0,0,0,2.7l.91.91-2.3,2.29a41.13,41.13,0,0,0-16.18-6.7V23.27H70a1.91,1.91,0,0,0,1.91-1.92V12.93A1.91,1.91,0,0,0,70,11H46.62a1.92,1.92,0,0,0-1.92,1.91v8.42a1.92,1.92,0,0,0,1.92,1.92h4.21v3.24a41.56,41.56,0,0,0-15.4,6.17,1.92,1.92,0,0,0,2.11,3.2A37.75,37.75,0,0,1,90.36,87.31,1.92,1.92,0,0,0,92,90.24a1.89,1.89,0,0,0,1.62-.91,41.58,41.58,0,0,0-1.12-45.56l2.29-2.3ZM61.92,26c-1.2-.1-2.41-.16-3.63-.16s-2.43.06-3.64.16V23.27h7.27V26Zm-9.18-6.56H48.53V14.85H68.05v4.59H52.74ZM90.14,40.7c-.78-.92-1.6-1.82-2.46-2.68S85.92,36.34,85,35.56l1.93-1.93,5.14,5.14ZM88.29,29.57h0l-.9-.91,1.83-1.83a2,2,0,0,1,2.83,0l6.83,6.83a2,2,0,0,1,0,2.82L97,38.32l-.91-.9h0Z"/><path class="cls-3" d="M58.29,40.29a1.91,1.91,0,0,0-1.91,1.92v4.2a1.91,1.91,0,1,0,3.82,0v-4.2A1.91,1.91,0,0,0,58.29,40.29Z"/><path class="cls-3" d="M77.46,48.24a1.88,1.88,0,0,0-2.7,0,1.88,1.88,0,0,0-.56,1.35,1.91,1.91,0,0,0,3.82,0A1.88,1.88,0,0,0,77.46,48.24Z"/><path class="cls-3" d="M83.49,65.5H79.28a1.91,1.91,0,0,0,0,3.82h4.21a1.91,1.91,0,1,0,0-3.82Z"/><path class="cls-3" d="M77.46,83.88a1.91,1.91,0,0,0-3.26,1.35,1.92,1.92,0,0,0,.56,1.36,1.91,1.91,0,0,0,2.7,0,1.92,1.92,0,0,0,0-2.71Z"/><path class="cls-3" d="M58.29,86.49a1.91,1.91,0,0,0-1.91,1.92v4.21a1.91,1.91,0,1,0,3.82,0V88.41A1.91,1.91,0,0,0,58.29,86.49Z"/><path class="cls-3" d="M41.82,83.88a1.92,1.92,0,0,0-2.71,0,1.92,1.92,0,1,0,2.71,0Z"/><path class="cls-3" d="M37.29,65.5H33.08a1.91,1.91,0,0,0,0,3.82h4.21a1.91,1.91,0,1,0,0-3.82Z"/><path class="cls-3" d="M41.82,48.24a1.92,1.92,0,0,0-3.27,1.35,2,2,0,0,0,.56,1.35,1.92,1.92,0,0,0,2.71,0,2,2,0,0,0,.56-1.35A1.92,1.92,0,0,0,41.82,48.24Z"/><path class="cls-2" d="M73.23,52.47a1.92,1.92,0,0,0-2.35-.28L55.09,61.75c-.17.1-.41.24-.57.36a6.5,6.5,0,1,0,9,9.09,4.56,4.56,0,0,0,.38-.59l9.56-15.79A1.92,1.92,0,0,0,73.23,52.47ZM60.65,68.66l-.15.26a2.68,2.68,0,1,1-3.72-3.72L57,65a2.75,2.75,0,0,1,1.25-.31A2.68,2.68,0,0,1,61,67.41,2.64,2.64,0,0,1,60.65,68.66Zm3-4.94A6.63,6.63,0,0,0,62,62.05l4.24-2.56Z"/><path class="cls-3" d="M58.29,34.27A33.14,33.14,0,1,0,91.43,67.41,33.18,33.18,0,0,0,58.29,34.27Zm0,62.46A29.32,29.32,0,1,1,87.61,67.41,29.35,29.35,0,0,1,58.29,96.73Z"/><path class="cls-2" d="M31.72,37.9a1.92,1.92,0,1,0,.56,1.35A2,2,0,0,0,31.72,37.9Z"/></g></g></svg>