<svg xmlns="http://www.w3.org/2000/svg" viewBox="0 0 120 120"><defs><style>.cls-1{fill:none;}.cls-2{fill:#c72a93;}.cls-3{fill:#767579;}</style></defs><title>Alerta_fallo</title><g id="Capa_2" data-name="Capa 2"><g id="Icono"><rect class="cls-1" width="120" height="120"/><path class="cls-2" d="M60,95.21H29.51A17.72,17.72,0,0,1,26,94.9c-4.9-1.05-7.37-5.21-5.95-10A12.39,12.39,0,0,1,21.24,82L52.1,30a11.7,11.7,0,0,1,2.42-3c3.87-3.29,8.82-2.91,12,1.08C69.15,31.45,71,35.33,73.23,39q12.69,21.27,25.3,42.61A11.05,11.05,0,0,1,100.38,88c-.25,4.12-3.37,6.89-8.1,7.2-1.84.11-3.69,0-5.53,0ZM60,91q15.39,0,30.78,0a9.85,9.85,0,0,0,2.66-.33,3.27,3.27,0,0,0,2.47-4.25,11.14,11.14,0,0,0-1.36-3Q83.38,64.57,72.18,45.7c-2.66-4.5-5.31-9-8-13.48C61.62,28,58.45,28,55.86,32.15c0,0-.06.08-.08.12Q40.47,58.07,25.16,83.88C22.54,88.3,24.11,91,29.24,91Z"/><path class="cls-3" d="M60,43.47c2.77,0,4.66,2.54,4.32,5.6-.55,4.92-1,9.85-1.47,14.77-.21,2.12-.35,4.25-.64,6.35-.16,1.2-.74,2.2-2.16,2.27a2.34,2.34,0,0,1-2.23-2.36c-.43-4.43-.81-8.87-1.24-13.3-.25-2.57-.49-5.13-.83-7.68C55.31,46.08,57.22,43.48,60,43.47Z"/><path class="cls-3" d="M60,84.76a4.25,4.25,0,0,1-4.27-4.05,4.32,4.32,0,0,1,8.63-.06A4.25,4.25,0,0,1,60,84.76Z"/></g></g></svg>