<svg xmlns="http://www.w3.org/2000/svg" viewBox="0 0 79.72 69.6"><defs><style>.cls-1{fill:#26478d;}</style></defs><title>Casa</title><g id="Capa_2" data-name="Capa 2"><g id="Fondo"><path class="cls-1" d="M56.64,37.91H45.81a5.38,5.38,0,0,0-5.38,5.37v8.31A5.38,5.38,0,0,0,45.81,57H56.64A5.38,5.38,0,0,0,62,51.59V43.28A5.38,5.38,0,0,0,56.64,37.91ZM58.1,51.59a1.46,1.46,0,0,1-1.46,1.46H45.81a1.46,1.46,0,0,1-1.47-1.46V43.28a1.48,1.48,0,0,1,1.47-1.47H56.64a1.47,1.47,0,0,1,1.46,1.47Z"/><path class="cls-1" d="M79.72,22.81a1.83,1.83,0,0,0-.26-1L67.6,1a2,2,0,0,0-1.69-1H13.8a2,2,0,0,0-1.7,1L.26,21.84a2,2,0,0,0-.26,1A11.43,11.43,0,0,0,6.84,33.26V67.65a2,2,0,0,0,2,1.95H70.91a2,2,0,0,0,2-1.95V33.51a1.34,1.34,0,0,0,0-.21A11.47,11.47,0,0,0,79.72,22.81ZM14.94,3.93H64.77L74,20.23H5.68Zm41.8,20.19a7.51,7.51,0,0,1-14.79,0Zm-19,0a7.52,7.52,0,0,1-14.81,0ZM4,24.12H18.85A7.52,7.52,0,0,1,4,24.12Zm28.8,41.57H21.6V44.6a2.79,2.79,0,0,1,2.79-2.79h5.68a2.79,2.79,0,0,1,2.79,2.79V65.69Zm36.11,0H36.75V44.6a6.7,6.7,0,0,0-6.7-6.69H24.37a6.7,6.7,0,0,0-6.7,6.69V65.71H10.75V34.22c.23,0,.46,0,.69,0a11.42,11.42,0,0,0,9.48-5.05,11.42,11.42,0,0,0,19,0,11.39,11.39,0,0,0,18.92,0,11.42,11.42,0,0,0,9.48,5.05l.67,0V65.69Zm-.67-35.36a7.51,7.51,0,0,1-7.39-6.19H75.7A7.57,7.57,0,0,1,68.28,30.33Z"/></g></g></svg>