<svg xmlns="http://www.w3.org/2000/svg" viewBox="0 0 50.13 83.4"><defs><style>.cls-1{fill:#26478d;}</style></defs><title>Cel</title><g id="Capa_2" data-name="Capa 2"><g id="Fondo"><path class="cls-1" d="M25.07,68.11a4.63,4.63,0,1,0,4.62,4.63A4.64,4.64,0,0,0,25.07,68.11Zm0,6a1.42,1.42,0,1,1,1.42-1.42A1.43,1.43,0,0,1,25.07,74.16Z"/><path class="cls-1" d="M32.66,6.59H24.45a1.69,1.69,0,1,0,0,3.38h8.21a1.69,1.69,0,1,0,0-3.38Z"/><circle class="cls-1" cx="19.25" cy="8.32" r="1.78"/><path class="cls-1" d="M44.79,0H5.34A5.35,5.35,0,0,0,0,5.34V78.06A5.35,5.35,0,0,0,5.34,83.4H44.79a5.34,5.34,0,0,0,5.34-5.34V5.34A5.35,5.35,0,0,0,44.79,0Zm1.78,78.06a1.78,1.78,0,0,1-1.78,1.78H5.34a1.78,1.78,0,0,1-1.78-1.78V5.34A1.78,1.78,0,0,1,5.34,3.56H44.79a1.78,1.78,0,0,1,1.78,1.78V78.06Z"/><path class="cls-1" d="M28.07,33.43a1.77,1.77,0,0,0-2.52,0L17,42a1.77,1.77,0,0,0,0,2.52,1.79,1.79,0,0,0,2.52,0l8.55-8.56A1.78,1.78,0,0,0,28.07,33.43Z"/><path class="cls-1" d="M33.14,38.38a1.79,1.79,0,0,0-2.52,0l-3.41,3.41a1.78,1.78,0,0,0,2.52,2.52l3.41-3.41A1.79,1.79,0,0,0,33.14,38.38Z"/><path class="cls-1" d="M41.25,13.18H8.88a1.6,1.6,0,0,0-1.6,1.6V63.85a1.61,1.61,0,0,0,1.6,1.61H41.25a1.6,1.6,0,0,0,1.6-1.61V14.78A1.59,1.59,0,0,0,41.25,13.18Zm-1.6,49.07H10.48V16.38H39.65Z"/></g></g></svg>