<?xml version="1.0" encoding="utf-8"?>
<!-- Generator: Adobe Illustrator 23.0.3, SVG Export Plug-In . SVG Version: 6.00 Build 0)  -->
<svg version="1.1" id="Capa_1" xmlns="http://www.w3.org/2000/svg" xmlns:xlink="http://www.w3.org/1999/xlink" x="0px" y="0px"
	 viewBox="0 0 230 230" style="enable-background:new 0 0 230 230;" xml:space="preserve">
<style type="text/css">
	.st0{fill:none;}
	.st1{fill:#00C4BB;}
	.st2{fill:#A4FFF6;}
	.st3{enable-background:new    ;}
	.st4{fill:none;stroke:#A4FFF6;stroke-linecap:round;stroke-linejoin:round;}
</style>
<title>ComoFunciona-01ldpi</title>
<g>
	<g id="Contenido">
		<g>
			<rect class="st0" width="230" height="230"/>
		</g>
		<g>
			<path class="st1" d="M68.3,185.7c-10.6,0-19.3-8.6-19.3-19.3V61.1c0-10.6,8.7-19.3,19.3-19.3h68.8c10.7,0,19.3,8.7,19.3,19.3
				v62.6c0,1.1-0.9,2-2,2s-2-0.9-2-2V61.1c0-8.4-6.9-15.3-15.3-15.3H68.3c-4.1,0-8,1.6-10.9,4.5C54.6,53.2,53,57,53,61.1v105.3
				c0,8.5,6.9,15.3,15.3,15.3c0,0,0,0,0,0h68.8c1.1,0,2,0.9,2,2s-0.9,2-2,2H68.3C68.3,185.7,68.3,185.7,68.3,185.7z"/>
		</g>
		<g>
			<path class="st2" d="M159,170.4c-0.6,0-1.1-0.2-1.6-0.6l-7-5.6c-1.1-0.9-1.2-2.4-0.4-3.5c0.9-1.1,2.4-1.3,3.5-0.4l4.9,3.9
				l11-15.8c0.8-1.1,2.3-1.4,3.5-0.6c1.1,0.8,1.4,2.3,0.6,3.5l-12.5,18c-0.4,0.6-1,0.9-1.7,1C159.2,170.4,159.1,170.4,159,170.4z"/>
		</g>
		<g>
			<path class="st2" d="M115.7,137.7H72.4c-1.4,0-2.5-1.1-2.5-2.5s1.1-2.5,2.5-2.5h43.4c1.4,0,2.5,1.1,2.5,2.5
				S117.1,137.7,115.7,137.7z"/>
		</g>
		<g>
			<path class="st2" d="M133,125.5H72.4c-1.4,0-2.5-1.1-2.5-2.5s1.1-2.5,2.5-2.5H133c1.4,0,2.5,1.1,2.5,2.5S134.4,125.5,133,125.5z"
				/>
		</g>
		<g>
			<path class="st2" d="M133,112.6H72.4c-1.4,0-2.5-1.1-2.5-2.5s1.1-2.5,2.5-2.5H133c1.4,0,2.5,1.1,2.5,2.5S134.4,112.6,133,112.6z"
				/>
		</g>
		<g>
			<path class="st2" d="M133,99.8H72.4c-1.4,0-2.5-1.1-2.5-2.5s1.1-2.5,2.5-2.5H133c1.4,0,2.5,1.1,2.5,2.5S134.4,99.8,133,99.8z"/>
		</g>
		<g>
			<path class="st1" d="M161.7,188.2c-16.1,0-29.3-13.1-29.3-29.3s13.1-29.3,29.3-29.3S191,142.8,191,159S177.9,188.2,161.7,188.2z
				 M161.7,133.7c-13.9,0-25.3,11.3-25.3,25.3c0,13.9,11.3,25.3,25.3,25.3c13.9,0,25.3-11.3,25.3-25.3
				C187,145,175.7,133.7,161.7,133.7z"/>
		</g>
		<g>
			<path class="st2" d="M111.1,161.5H85c-1.4,0-2.5-1.1-2.5-2.5s1.1-2.5,2.5-2.5h26.1c1.4,0,2.5,1.1,2.5,2.5
				S112.5,161.5,111.1,161.5z"/>
		</g>
		<g class="st3">
			<path class="st2" d="M77.3,161.3c0-0.6-0.2-1.1-0.7-1.6c-0.4-0.4-1.2-0.8-2.2-1.2c-1.4-0.4-2.5-1-3.2-1.7c-0.7-0.7-1-1.6-1-2.7
				c0-1.1,0.3-2,1-2.7c0.6-0.7,1.5-1.1,2.7-1.3V148h1.5v2.2c1.1,0.2,2,0.6,2.7,1.4s1,1.9,1,3.3h-1.9c0-1-0.2-1.7-0.7-2.3
				s-1.1-0.8-1.8-0.8c-0.8,0-1.4,0.2-1.9,0.6c-0.4,0.4-0.6,1-0.6,1.7c0,0.7,0.2,1.2,0.7,1.7s1.2,0.8,2.2,1.1c1,0.3,1.8,0.7,2.4,1.1
				s1,0.9,1.3,1.4c0.3,0.5,0.4,1.2,0.4,1.9c0,1.1-0.3,2.1-1,2.8s-1.7,1.1-2.9,1.2v1.9h-1.5v-1.9c-1.3-0.1-2.2-0.6-3-1.3
				c-0.7-0.8-1.1-1.8-1.1-3.2h1.9c0,0.9,0.2,1.7,0.7,2.2c0.5,0.5,1.2,0.8,2.1,0.8c0.9,0,1.6-0.2,2.1-0.6S77.3,162.1,77.3,161.3z"/>
		</g>
		<g class="st3">
			<path class="st4" d="M77.3,161.3c0-0.6-0.2-1.1-0.7-1.6c-0.4-0.4-1.2-0.8-2.2-1.2c-1.4-0.4-2.5-1-3.2-1.7c-0.7-0.7-1-1.6-1-2.7
				c0-1.1,0.3-2,1-2.7c0.6-0.7,1.5-1.1,2.7-1.3V148h1.5v2.2c1.1,0.2,2,0.6,2.7,1.4s1,1.9,1,3.3h-1.9c0-1-0.2-1.7-0.7-2.3
				s-1.1-0.8-1.8-0.8c-0.8,0-1.4,0.2-1.9,0.6c-0.4,0.4-0.6,1-0.6,1.7c0,0.7,0.2,1.2,0.7,1.7s1.2,0.8,2.2,1.1c1,0.3,1.8,0.7,2.4,1.1
				s1,0.9,1.3,1.4c0.3,0.5,0.4,1.2,0.4,1.9c0,1.1-0.3,2.1-1,2.8s-1.7,1.1-2.9,1.2v1.9h-1.5v-1.9c-1.3-0.1-2.2-0.6-3-1.3
				c-0.7-0.8-1.1-1.8-1.1-3.2h1.9c0,0.9,0.2,1.7,0.7,2.2c0.5,0.5,1.2,0.8,2.1,0.8c0.9,0,1.6-0.2,2.1-0.6S77.3,162.1,77.3,161.3z"/>
		</g>
		<g>
			<path class="st2" d="M81.1,75.5c-3.5,0-6.4-2.9-6.4-6.4s2.9-6.4,6.4-6.4s6.4,2.9,6.4,6.4S84.6,75.5,81.1,75.5z M81.1,67.7
				c-0.8,0-1.4,0.6-1.4,1.4s0.6,1.4,1.4,1.4s1.4-0.6,1.4-1.4S81.9,67.7,81.1,67.7z"/>
		</g>
		<g>
			<path class="st2" d="M88.1,84.2c-0.1,0-0.2,0-0.3,0c-1.4-0.1-2.4-1.4-2.2-2.7c0-0.3,0-0.6,0-0.9c-0.1-1.2-0.7-2.3-1.6-3
				c-0.9-0.8-2.1-1.1-3.3-1c-1.2,0.1-2.3,0.7-3,1.6s-1.1,2.1-1,3.3c0.1,1.4-0.9,2.6-2.2,2.7c-1.4,0.1-2.6-0.9-2.7-2.2
				c-0.5-5.2,3.3-9.9,8.5-10.4c2.5-0.3,5,0.5,7,2.1c2,1.6,3.2,3.9,3.4,6.4c0.1,0.6,0.1,1.3,0,1.9C90.4,83.3,89.3,84.2,88.1,84.2z"/>
		</g>
	</g>
</g>
</svg>
