<?xml version="1.0" encoding="utf-8"?>
<!-- Generator: Adobe Illustrator 23.0.3, SVG Export Plug-In . SVG Version: 6.00 Build 0)  -->
<svg version="1.1" id="Capa_1" xmlns="http://www.w3.org/2000/svg" xmlns:xlink="http://www.w3.org/1999/xlink" x="0px" y="0px"
	 viewBox="0 0 230 230" style="enable-background:new 0 0 230 230;" xml:space="preserve">
<style type="text/css">
	.st0{fill:none;}
	.st1{fill:#00C4BB;}
	.st2{fill:#A4FFF6;}
	.st3{enable-background:new    ;}
	.st4{fill:none;stroke:#A4FFF6;stroke-linecap:round;stroke-linejoin:round;}
</style>
<title>ComoFunciona-03ldpi</title>
<g>
	<g id="Contenido">
		<rect class="st0" width="230" height="230"/>
		<g>
			<path class="st1" d="M190.9,197.3h-68.1c-12.1,0-22-9.9-22-22v-39.9c0-12.1,9.9-22,22-22h68.1c12.1,0,22,9.9,22,22v39.9
				C212.9,187.4,203,197.3,190.9,197.3z M122.8,117.3c-9.9,0-18,8.1-18,18v39.9c0,9.9,8.1,18,18,18h68.1c9.9,0,18-8.1,18-18v-39.9
				c0-9.9-8.1-18-18-18H122.8z"/>
		</g>
		<g>
			<path class="st1" d="M101.3,197.3H38.2c-11.7,0-21.1-9.5-21.1-21.1V53.9c0-11.7,9.5-21.1,21.1-21.1h72.7c5.6,0,10.9,2.2,14.9,6.2
				c4,4,6.2,9.3,6.2,14.9v53c0,1.1-0.9,2-2,2s-2-0.9-2-2v-53c0-4.6-1.8-8.9-5-12.1c-3.2-3.2-7.5-5-12.1-5H38.2
				c-9.4,0-17.1,7.7-17.1,17.1v122.3c0,9.4,7.7,17.1,17.1,17.1h63.1c1.1,0,2,0.9,2,2S102.4,197.3,101.3,197.3z"/>
		</g>
		<g>
			<path class="st2" d="M135.5,177.8h-17.3c-1.4,0-2.5-1.1-2.5-2.5s1.1-2.5,2.5-2.5h17.3c1.4,0,2.5,1.1,2.5,2.5
				S136.9,177.8,135.5,177.8z"/>
		</g>
		<g>
			<path class="st2" d="M165.5,177.8h-17.3c-1.4,0-2.5-1.1-2.5-2.5s1.1-2.5,2.5-2.5h17.3c1.4,0,2.5,1.1,2.5,2.5
				S166.9,177.8,165.5,177.8z"/>
		</g>
		<g>
			<path class="st2" d="M195.5,177.8h-17.3c-1.4,0-2.5-1.1-2.5-2.5s1.1-2.5,2.5-2.5h17.3c1.4,0,2.5,1.1,2.5,2.5
				S196.9,177.8,195.5,177.8z"/>
		</g>
		<g>
			<path class="st2" d="M133.8,154.7h-15.7c-1.4,0-2.5-1.1-2.5-2.5v-16.9c0-1.4,1.1-2.5,2.5-2.5h15.7c1.4,0,2.5,1.1,2.5,2.5v16.9
				C136.3,153.6,135.2,154.7,133.8,154.7z M120.7,149.7h10.7v-11.9h-10.7V149.7z"/>
		</g>
		<g>
			<path class="st2" d="M100.5,98H39.1c-1.4,0-2.5-1.1-2.5-2.5s1.1-2.5,2.5-2.5h61.4c1.4,0,2.5,1.1,2.5,2.5S101.9,98,100.5,98z"/>
		</g>
		<g>
			<path class="st2" d="M100.5,112.9H39.1c-1.4,0-2.5-1.1-2.5-2.5s1.1-2.5,2.5-2.5h61.4c1.4,0,2.5,1.1,2.5,2.5
				S101.9,112.9,100.5,112.9z"/>
		</g>
		<g>
			<path class="st2" d="M78.8,127.9H39.1c-1.4,0-2.5-1.1-2.5-2.5s1.1-2.5,2.5-2.5h39.7c1.4,0,2.5,1.1,2.5,2.5S80.2,127.9,78.8,127.9
				z"/>
		</g>
		<g>
			<path class="st2" d="M84.7,160.6H54.5c-1.4,0-2.5-1.1-2.5-2.5s1.1-2.5,2.5-2.5h30.1c1.4,0,2.5,1.1,2.5,2.5S86.1,160.6,84.7,160.6
				z"/>
		</g>
		<g>
			<path class="st2" d="M54.7,74.9H39.1c-1.4,0-2.5-1.1-2.5-2.5V55.6c0-1.4,1.1-2.5,2.5-2.5h15.7c1.4,0,2.5,1.1,2.5,2.5v16.9
				C57.2,73.8,56.1,74.9,54.7,74.9z M41.6,69.9h10.7V58.1H41.6V69.9z"/>
		</g>
		<g class="st3">
			<path class="st2" d="M45.7,160.9c0-0.7-0.3-1.3-0.8-1.8c-0.5-0.5-1.4-0.9-2.6-1.3c-1.7-0.5-2.9-1.2-3.6-2s-1.1-1.9-1.1-3.1
				c0-1.3,0.4-2.3,1.1-3.2c0.7-0.8,1.8-1.3,3.1-1.5v-2.6h1.8v2.6c1.3,0.2,2.3,0.7,3.1,1.7c0.7,0.9,1.1,2.2,1.1,3.8h-2.2
				c0-1.1-0.3-2-0.8-2.6c-0.5-0.7-1.2-1-2.1-1c-0.9,0-1.6,0.2-2.1,0.7s-0.7,1.2-0.7,2c0,0.8,0.3,1.4,0.8,1.9
				c0.5,0.5,1.4,0.9,2.6,1.3c1.2,0.4,2.1,0.8,2.8,1.3c0.7,0.5,1.2,1,1.5,1.6c0.3,0.6,0.5,1.3,0.5,2.2c0,1.3-0.4,2.4-1.2,3.2
				c-0.8,0.8-1.9,1.3-3.3,1.4v2.2h-1.7v-2.2c-1.5-0.1-2.6-0.7-3.4-1.6c-0.8-0.9-1.2-2.1-1.2-3.7h2.2c0,1.1,0.3,1.9,0.9,2.5
				c0.6,0.6,1.4,0.9,2.4,0.9c1,0,1.8-0.2,2.4-0.7C45.4,162.4,45.7,161.7,45.7,160.9z"/>
		</g>
		<g class="st3">
			<path class="st4" d="M45.7,160.9c0-0.7-0.3-1.3-0.8-1.8c-0.5-0.5-1.4-0.9-2.6-1.3c-1.7-0.5-2.9-1.2-3.6-2s-1.1-1.9-1.1-3.1
				c0-1.3,0.4-2.3,1.1-3.2c0.7-0.8,1.8-1.3,3.1-1.5v-2.6h1.8v2.6c1.3,0.2,2.3,0.7,3.1,1.7c0.7,0.9,1.1,2.2,1.1,3.8h-2.2
				c0-1.1-0.3-2-0.8-2.6c-0.5-0.7-1.2-1-2.1-1c-0.9,0-1.6,0.2-2.1,0.7s-0.7,1.2-0.7,2c0,0.8,0.3,1.4,0.8,1.9
				c0.5,0.5,1.4,0.9,2.6,1.3c1.2,0.4,2.1,0.8,2.8,1.3c0.7,0.5,1.2,1,1.5,1.6c0.3,0.6,0.5,1.3,0.5,2.2c0,1.3-0.4,2.4-1.2,3.2
				c-0.8,0.8-1.9,1.3-3.3,1.4v2.2h-1.7v-2.2c-1.5-0.1-2.6-0.7-3.4-1.6c-0.8-0.9-1.2-2.1-1.2-3.7h2.2c0,1.1,0.3,1.9,0.9,2.5
				c0.6,0.6,1.4,0.9,2.4,0.9c1,0,1.8-0.2,2.4-0.7C45.4,162.4,45.7,161.7,45.7,160.9z"/>
		</g>
		<g>
			<path class="st1" d="M100,72.3c-0.5,0-0.9-0.2-1.3-0.4l-4.9-3.9c-0.9-0.7-1-2-0.3-2.8c0.7-0.9,2-1,2.8-0.3l3.2,2.6l7.5-10.8
				c0.6-0.9,1.9-1.1,2.8-0.5c0.9,0.6,1.1,1.9,0.5,2.8l-8.7,12.5c-0.3,0.5-0.8,0.8-1.4,0.8C100.2,72.3,100.1,72.3,100,72.3z"/>
		</g>
	</g>
</g>
</svg>
