<?xml version="1.0" encoding="utf-8"?>
<!-- Generator: Adobe Illustrator 23.0.3, SVG Export Plug-In . SVG Version: 6.00 Build 0)  -->
<svg version="1.1" id="Capa_1" xmlns="http://www.w3.org/2000/svg" xmlns:xlink="http://www.w3.org/1999/xlink" x="0px" y="0px"
	 viewBox="0 0 230 230" style="enable-background:new 0 0 230 230;" xml:space="preserve">
<style type="text/css">
	.st0{fill:none;}
	.st1{fill:#A4FFF6;}
	.st2{fill:#00C4BB;}
</style>
<title>ComoFunciona-02ldpi</title>
<g>
	<g id="Contenido">
		<g>
			<rect class="st0" width="230" height="230"/>
		</g>
		<g>
			<rect x="89" y="163.2" class="st1" width="5" height="23.1"/>
		</g>
		<g>
			<rect x="140.5" y="163.2" class="st1" width="5" height="23.1"/>
		</g>
		<g>
			<path class="st2" d="M175.8,165.2H54.2c-12.1,0-22-9.9-22-22V63.7c0-12.1,9.9-22,22-22h121.6c12.1,0,22,9.9,22,22v79.4
				C197.8,155.3,187.9,165.2,175.8,165.2z M54.2,45.7c-9.9,0-18,8.1-18,18v79.4c0,9.9,8.1,18,18,18h121.6c9.9,0,18-8.1,18-18V63.7
				c0-9.9-8.1-18-18-18H54.2z"/>
		</g>
		<g>
			<path class="st2" d="M175.8,188.3H54.2c-1.1,0-2-0.9-2-2s0.9-2,2-2h121.6c1.1,0,2,0.9,2,2S176.9,188.3,175.8,188.3z"/>
		</g>
		<g>
			<path class="st1" d="M138.5,77.3H68.4c-1.4,0-2.5-1.1-2.5-2.5V60.7c0-1.4,1.1-2.5,2.5-2.5h70.1c1.4,0,2.5,1.1,2.5,2.5v14.1
				C141,76.2,139.9,77.3,138.5,77.3z M70.9,72.3H136v-9.1H70.9V72.3z"/>
		</g>
		<g>
			<path class="st2" d="M138.5,100.9H68.4c-1.1,0-2-0.9-2-2V84.8c0-1.1,0.9-2,2-2h70.1c1.1,0,2,0.9,2,2v14.1
				C140.5,100,139.6,100.9,138.5,100.9z M70.4,96.9h66.1V86.8H70.4V96.9z"/>
		</g>
		<g>
			<path class="st2" d="M155.5,100.7c-0.5,0-0.9-0.2-1.3-0.4L149,96c-0.9-0.7-1-2-0.3-2.8c0.7-0.9,2-1,2.8-0.3l3.7,2.9l8.3-11.9
				c0.6-0.9,1.9-1.1,2.8-0.5c0.9,0.6,1.1,1.9,0.5,2.8l-9.5,13.7c-0.3,0.5-0.8,0.8-1.4,0.8C155.7,100.7,155.6,100.7,155.5,100.7z"/>
		</g>
		<g>
			<path class="st1" d="M138.5,125.5H68.4c-1.4,0-2.5-1.1-2.5-2.5v-14.1c0-1.4,1.1-2.5,2.5-2.5h70.1c1.4,0,2.5,1.1,2.5,2.5V123
				C141,124.4,139.9,125.5,138.5,125.5z M70.9,120.5H136v-9.1H70.9V120.5z"/>
		</g>
		<g>
			<path class="st1" d="M138.5,149.7H68.4c-1.4,0-2.5-1.1-2.5-2.5V133c0-1.4,1.1-2.5,2.5-2.5h70.1c1.4,0,2.5,1.1,2.5,2.5v14.1
				C141,148.6,139.9,149.7,138.5,149.7z M70.9,144.7H136v-9.1H70.9V144.7z"/>
		</g>
	</g>
</g>
</svg>
