<svg xmlns="http://www.w3.org/2000/svg" viewBox="0 0 151.9 151.9"><defs><style>.cls-1{fill:none;}.cls-2{fill:#767579;}.cls-3{fill:#00c2b9;}</style></defs><title>contenido</title><g id="Capa_2" data-name="Capa 2"><g id="Icono"><rect class="cls-1" width="151.9" height="151.9"/><path class="cls-2" d="M120.53,111.08H79v-8.16h-3v8.16H67.89v-1.69a6.27,6.27,0,0,0-6.27-6.27H45.7a.1.1,0,0,1-.1-.1V93.47a1.5,1.5,0,1,0-3,0V103a3.08,3.08,0,0,0,3.09,3.08h9.65v5H40.92A4.89,4.89,0,0,1,36,106.2V87.67a3.58,3.58,0,0,1,2.55-3.44l6.26-1.93a19.34,19.34,0,0,0,15.8,8.2,19.7,19.7,0,0,0,2.66-.18v-3a16.94,16.94,0,0,1-2.66.21,16.35,16.35,0,0,1-12.77-6.14l1.87-.57a4,4,0,0,0,2.85-3.87V75.21l1.59,1.32a5.34,5.34,0,0,0,3.4,1.23h4.87a4.8,4.8,0,0,0,.85-.07V74.61a2.26,2.26,0,0,1-.85.17H57.59a2.37,2.37,0,0,1-1.49-.54L51,70a3.62,3.62,0,0,1-1.25-2.19l-1.25-7.85h.2a2.76,2.76,0,0,0,2.73-2.31l.69-4.16a5.27,5.27,0,0,0,2.19-1,5.32,5.32,0,0,0,6.37,0,5.32,5.32,0,0,0,6.37,0,5.37,5.37,0,0,0,2.2,1l.69,4.16a2.75,2.75,0,0,0,1.69,2.1l-.32,2h3l.26-1.64a1,1,0,0,1,.52.9v.74h3V61a4,4,0,0,0-.91-2.55,4.09,4.09,0,0,0,.84-1.8,5.32,5.32,0,0,0,2.62-4.57A5.26,5.26,0,0,0,80,49.52a5.28,5.28,0,0,0-1.92-7.09,5.12,5.12,0,0,0,0-.56,5.32,5.32,0,0,0-4.59-5.26A5.29,5.29,0,0,0,68.94,34a4.59,4.59,0,0,0-.73.06,5.89,5.89,0,0,0-3.73-1.33,4.89,4.89,0,0,0-.54,0,6.51,6.51,0,0,0-7.83,0,4.89,4.89,0,0,0-.54,0A5.92,5.92,0,0,0,51.86,34a5.32,5.32,0,0,0-4,2.57,5.32,5.32,0,0,0-4.58,5.26,5.12,5.12,0,0,0,0,.56,5.28,5.28,0,0,0-1.92,7.09,5.26,5.26,0,0,0-.66,2.54,5.32,5.32,0,0,0,2.62,4.57,3.9,3.9,0,0,0,.36,1.06A4,4,0,0,0,42,61v2.55a4,4,0,0,0,4,4h.67l.11.68a6.59,6.59,0,0,0,2.28,4l.55.45v4.21a1,1,0,0,1-.75,1L37.71,81.38a6.54,6.54,0,0,0-4.65,6.29V106.2a7.77,7.77,0,0,0,1.7,4.88h-3.4a3.08,3.08,0,0,0-3.08,3.09v3.18a3.09,3.09,0,0,0,3.08,3.09h89.17a3.09,3.09,0,0,0,3.09-3.09v-3.18A3.09,3.09,0,0,0,120.53,111.08ZM46,64.58a1,1,0,0,1-1-1V61a1,1,0,0,1,.52-.9l.72,4.5Zm1-7.68a1.06,1.06,0,0,1-.79-1,.59.59,0,0,0,0-.14,1.49,1.49,0,0,0-1-1.54,2.34,2.34,0,0,1-1.56-2.19,2.29,2.29,0,0,1,.6-1.54,1.5,1.5,0,0,0,0-2,2.34,2.34,0,0,1-.6-1.55,2.31,2.31,0,0,1,1.72-2.23,1.54,1.54,0,0,0,1-.78,1.52,1.52,0,0,0,0-1.22,2.26,2.26,0,0,1-.18-.87,2.33,2.33,0,0,1,2.28-2.32l.19,0a1.51,1.51,0,0,0,1.5-1A2.31,2.31,0,0,1,52.33,37h.09a1.46,1.46,0,0,0,1.07-.43,3,3,0,0,1,2.08-.85,3.2,3.2,0,0,1,.65.08,1.49,1.49,0,0,0,1.35-.37,3.61,3.61,0,0,1,2.46-1,3.55,3.55,0,0,1,2.45,1,1.51,1.51,0,0,0,1.35.36,3.2,3.2,0,0,1,.65-.08,2.92,2.92,0,0,1,2.19,1,1.49,1.49,0,0,0,1.58.41,2.23,2.23,0,0,1,.69-.12,2.33,2.33,0,0,1,2.19,1.57,1.49,1.49,0,0,0,1.5,1l.19,0a2.32,2.32,0,0,1,2.27,2.32,2.25,2.25,0,0,1-.17.87A1.49,1.49,0,0,0,75,44a1.54,1.54,0,0,0,1,.78A2.32,2.32,0,0,1,77.64,47,2.3,2.3,0,0,1,77,48.52a1.5,1.5,0,0,0,0,2,2.25,2.25,0,0,1,.61,1.54,2.33,2.33,0,0,1-1.57,2.19,1.49,1.49,0,0,0-1,1.54c0,.05,0,.1,0,.14a1.05,1.05,0,0,1-.78,1l-1.48,0L72,51.79a1.48,1.48,0,0,0-1.58-1.24l-.21,0h0a2.31,2.31,0,0,1-1.9-1A1.5,1.5,0,0,0,67,48.86a1.49,1.49,0,0,0-1.24.67,2.33,2.33,0,0,1-3.88,0,1.5,1.5,0,0,0-1.25-.67,1.49,1.49,0,0,0-1.24.67,2.33,2.33,0,0,1-3.88,0,1.5,1.5,0,0,0-1.25-.67,1.49,1.49,0,0,0-1.24.67,2.33,2.33,0,0,1-1.9,1h0l-.2,0a1.5,1.5,0,0,0-1.59,1.24l-.86,5.15Zm11.31,49.2h3.29a3.29,3.29,0,0,1,3.28,3.29v1.69H58.33Zm62.3,11.25a.09.09,0,0,1-.1.1H31.36a.09.09,0,0,1-.09-.1v-3.18a.09.09,0,0,1,.09-.1h89.17a.09.09,0,0,1,.1.1Z"/><path class="cls-3" d="M93.47,74.46a4.68,4.68,0,1,0,4.67,4.67A4.68,4.68,0,0,0,93.47,74.46Zm0,6.37a1.7,1.7,0,1,1,1.69-1.7A1.7,1.7,0,0,1,93.47,80.83Z"/><path class="cls-3" d="M117.35,61.72H69.58A6.27,6.27,0,0,0,63.31,68V96.65a6.27,6.27,0,0,0,6.27,6.27H83.69l-1.09,8.16h3l2.59-19.43a1.69,1.69,0,0,1,1.67-1.47h7.17a1.69,1.69,0,0,1,1.67,1.47l2.59,19.43h3l-1.09-8.16h14.11a6.27,6.27,0,0,0,6.27-6.27V68A6.27,6.27,0,0,0,117.35,61.72Zm3.28,34.93a3.28,3.28,0,0,1-3.28,3.28H103l-.18,0-1.16-8.7a4.69,4.69,0,0,0-4.63-4H89.88a4.69,4.69,0,0,0-4.63,4L84.09,100l-.18,0H69.58a3.28,3.28,0,0,1-3.28-3.28V68a3.29,3.29,0,0,1,3.28-3.29h47.77A3.29,3.29,0,0,1,120.63,68Z"/></g></g></svg>