<svg xmlns="http://www.w3.org/2000/svg" viewBox="0 0 80 80"><defs><style>.cls-1{fill:none;}.cls-2{fill:#767579;}.cls-3{fill:#00c4bb;}</style></defs><title>DO_monto</title><g id="Capa_2" data-name="Capa 2"><g id="Icono"><rect class="cls-1" width="80" height="80"/><path class="cls-2" d="M62.14,40.3V49H17.86V40.3h-1V60.24a.5.5,0,0,0,.5.5H62.64a.5.5,0,0,0,.5-.5V40.3Zm0,19.44H17.86V57.15H62.14Zm0-3.59H17.86V53.56H62.14Zm0-3.59H17.86V50H62.14Z"/><path class="cls-3" d="M62.64,46.38H17.36a.5.5,0,0,1-.5-.5V19.76a.5.5,0,0,1,.5-.5H62.64a.5.5,0,0,1,.5.5V45.88A.5.5,0,0,1,62.64,46.38Zm-44.78-1H62.14V20.26H17.86Z"/><path class="cls-3" d="M53.06,42.9H26.94a.5.5,0,0,1-.5-.5,5.6,5.6,0,0,0-5.6-5.6.5.5,0,0,1-.5-.5v-7a.5.5,0,0,1,.5-.5,5.6,5.6,0,0,0,5.6-5.59.5.5,0,0,1,.5-.5H53.06a.5.5,0,0,1,.5.5,5.6,5.6,0,0,0,5.6,5.59.5.5,0,0,1,.5.5v7a.5.5,0,0,1-.5.5,5.6,5.6,0,0,0-5.6,5.6A.5.5,0,0,1,53.06,42.9Zm-25.62-.5h0Zm0-.5H52.58a6.61,6.61,0,0,1,6.08-6.08v-6a6.62,6.62,0,0,1-6.08-6.08H27.42a6.62,6.62,0,0,1-6.08,6.08v6A6.61,6.61,0,0,1,27.42,41.9Z"/><path class="cls-3" d="M40,39.41h0a6.6,6.6,0,1,1,6.6-6.59A6.6,6.6,0,0,1,40,39.41Zm0-12.19a5.6,5.6,0,1,0,5.6,5.6A5.6,5.6,0,0,0,40,27.22Z"/></g></g></svg>