<svg xmlns="http://www.w3.org/2000/svg" viewBox="0 0 80 80"><defs><style>.cls-1{fill:none;}.cls-2{fill:#767579;}.cls-3{fill:#00c4bb;}</style></defs><title>DO_pago</title><g id="Capa_2" data-name="Capa 2"><g id="Icono"><rect class="cls-1" width="80" height="80"/><path class="cls-2" d="M39.94,59.74a7.15,7.15,0,0,1-2.37-.4l-9.83-3.43A2.82,2.82,0,0,1,26,52.33l0-.1a2.8,2.8,0,0,1,3.38-1.75l4.9,1.35a2.78,2.78,0,0,1,1.84-2.54l6.68-2.18a5.06,5.06,0,0,1,4.22-2.37A5.69,5.69,0,0,1,52,47.83a.54.54,0,0,1,0,.22v7.88a.5.5,0,0,1-.5.5h-.84A6.87,6.87,0,0,0,48,57l-5.24,2.21A7.33,7.33,0,0,1,39.94,59.74ZM28.7,51.37a1.81,1.81,0,0,0-1.7,1.2l0,.1A1.72,1.72,0,0,0,27,54a1.76,1.76,0,0,0,1,.92l9.83,3.43a6.16,6.16,0,0,0,4.45-.14l5.24-2.2a7.92,7.92,0,0,1,3.08-.62H51V48.17a4.66,4.66,0,0,0-3.93-2.43,4.14,4.14,0,0,0-3.45,2,.53.53,0,0,1-.29.24L36.5,50.23a1.8,1.8,0,0,0,1.15,3.4L43.22,52a.49.49,0,0,1,.62.34.5.5,0,0,1-.34.62l-5.57,1.63a2.78,2.78,0,0,1-3.39-1.66l-5.37-1.49A2,2,0,0,0,28.7,51.37Z"/><path class="cls-2" d="M54.85,59.33H51.51a.5.5,0,0,1-.5-.5V48.05a.5.5,0,0,1,.5-.5h3.34a.5.5,0,0,1,.5.5V58.83A.51.51,0,0,1,54.85,59.33Zm-2.84-1h2.34V48.55H52Z"/><path class="cls-2" d="M60.71,62.68H54.85a.5.5,0,0,1-.5-.5V48.05a.5.5,0,0,1,.5-.5h5.86a.5.5,0,0,1,.5.5V62.18A.51.51,0,0,1,60.71,62.68Zm-5.36-1h4.86V48.55H55.35Z"/><path class="cls-3" d="M48,31.19a3.37,3.37,0,0,0-2.66-1,2.28,2.28,0,0,1-.59,1.14,2.39,2.39,0,0,1,2.55.54,2.4,2.4,0,1,1-3.43,0l-1.45.48A3.39,3.39,0,0,0,43.15,36h0a3.39,3.39,0,0,0,2.41,1A3.35,3.35,0,0,0,48,36,3.4,3.4,0,0,0,48,31.19Z"/><path class="cls-3" d="M57.93,30l-8.79-8.79a.5.5,0,0,0-.71,0L42,27.71l.46-.14a2.24,2.24,0,0,1,1.12,0l5.25-5.25,8.09,8.08L42.33,44.91l-8.09-8.09.91-.9a4.29,4.29,0,0,1-1.93.51l0,0a.51.51,0,0,0,0,.71L42,46a.49.49,0,0,0,.35.15.51.51,0,0,0,.36-.15L57.93,30.73A.5.5,0,0,0,57.93,30Z"/><path class="cls-3" d="M53.53,28.67a.48.48,0,0,0,0-.7l-2.34-2.35a.51.51,0,0,0-.71,0,2.4,2.4,0,0,1-3.4,0,.5.5,0,0,0-.7,0l-2.17,2.17a2.26,2.26,0,0,1,.73.68l1.82-1.81a3.41,3.41,0,0,0,4.05,0l1.69,1.69a3.41,3.41,0,0,0,0,4l-8.14,8.14a3.41,3.41,0,0,0-4,0l-1.69-1.69a3.41,3.41,0,0,0,0-4.05l1.72-1.73-2.1.69-.66.66a.5.5,0,0,0,0,.7,2.4,2.4,0,0,1,0,3.4.51.51,0,0,0,0,.71l2.35,2.34a.48.48,0,0,0,.7,0,2.42,2.42,0,0,1,3.4,0,.5.5,0,0,0,.35.15.51.51,0,0,0,.36-.15l8.79-8.79a.5.5,0,0,0,0-.71A2.42,2.42,0,0,1,53.53,28.67Z"/><path class="cls-2" d="M29.54,26.25a7.73,7.73,0,0,0,3.07-.62l5.24-2.2a6.19,6.19,0,0,1,4.44-.15l3,1.1.78-.78-3.43-1.26a7.15,7.15,0,0,0-5.17.17l-5.24,2.2a6.86,6.86,0,0,1-2.68.54h-.85a.5.5,0,0,0-.5.5v7.88a.54.54,0,0,0,0,.22,5.67,5.67,0,0,0,4.88,3.09,5.08,5.08,0,0,0,4.22-2.36L44,32.39a2.79,2.79,0,0,0-1.76-5.3L36.7,28.73a.49.49,0,0,0-.34.62.5.5,0,0,0,.62.34l5.57-1.64a1.8,1.8,0,0,1,1.15,3.4l-6.84,2.23a.57.57,0,0,0-.29.24,4.11,4.11,0,0,1-3.45,2,4.64,4.64,0,0,1-3.93-2.43V26.25Z"/><path class="cls-2" d="M28.69,35.66H25.35a.51.51,0,0,1-.5-.5V24.38a.5.5,0,0,1,.5-.5h3.34a.5.5,0,0,1,.5.5V35.16A.5.5,0,0,1,28.69,35.66Zm-2.84-1h2.34V24.88H25.85Z"/><path class="cls-2" d="M25.35,39H19.49a.51.51,0,0,1-.5-.5V24.38a.5.5,0,0,1,.5-.5h5.86a.5.5,0,0,1,.5.5V38.51A.5.5,0,0,1,25.35,39ZM20,38h4.86V24.88H20Z"/></g></g></svg>