<svg xmlns="http://www.w3.org/2000/svg" viewBox="0 0 69.85 69.85"><defs><style>.cls-1{fill:none;}.cls-2{fill:#00c4bb;}.cls-3{fill:#767579;}</style></defs><title>EO_obsoleto</title><g id="Capa_2" data-name="Capa 2"><g id="Icono"><rect class="cls-1" width="69.85" height="69.85"/><path class="cls-2" d="M47.57,38.45a.5.5,0,0,1-.35-.14L41.4,32.49,37.49,36.4a.5.5,0,0,1-.71,0l-3.91-3.91L29,36.4a.48.48,0,0,1-.7,0l-6.33-6.32a.51.51,0,0,1,0-.71.5.5,0,0,1,.71,0l6,6,3.91-3.91a.5.5,0,0,1,.71,0l3.91,3.91,3.92-3.91a.48.48,0,0,1,.7,0l6.17,6.17a.5.5,0,0,1-.35.85Z"/><path class="cls-2" d="M47.57,44.62a.5.5,0,0,1-.35-.14l-6-6-3.92,3.92a.5.5,0,0,1-.7,0L32.71,38.5,28.8,42.42a.51.51,0,0,1-.71,0l-6.17-6.17a.51.51,0,0,1,0-.71.5.5,0,0,1,.71,0l5.82,5.82,3.91-3.92a.53.53,0,0,1,.71,0L37,41.36l3.91-3.92a.53.53,0,0,1,.71,0l6.32,6.33a.5.5,0,0,1-.35.85Z"/><path class="cls-3" d="M41.86,21.27H28a1.55,1.55,0,0,1-1.55-1.54v-4A1.54,1.54,0,0,1,28,14.21h3.52a.42.42,0,0,0,.37-.21A3.5,3.5,0,0,1,38,14a.44.44,0,0,0,.37.21h3.53a1.55,1.55,0,0,1,1.55,1.55v4A1.55,1.55,0,0,1,41.86,21.27ZM28,15.21a.55.55,0,0,0-.55.55v4a.55.55,0,0,0,.55.55H41.86a.55.55,0,0,0,.55-.55v-4a.55.55,0,0,0-.55-.55H38.33a1.44,1.44,0,0,1-1.23-.71,2.5,2.5,0,0,0-4.35,0,1.44,1.44,0,0,1-1.24.71Z"/><path class="cls-3" d="M47.81,57.62H22a3.3,3.3,0,0,1-3.3-3.3V18.88a3.3,3.3,0,0,1,3.3-3.3h5a.5.5,0,0,1,.5.5.51.51,0,0,1-.5.5H22a2.3,2.3,0,0,0-2.3,2.3V54.32a2.3,2.3,0,0,0,2.3,2.3H47.81a2.3,2.3,0,0,0,2.3-2.3V18.88a2.3,2.3,0,0,0-2.3-2.3H43a.5.5,0,0,1-.5-.5.5.5,0,0,1,.5-.5h4.8a3.3,3.3,0,0,1,3.3,3.3V54.32A3.3,3.3,0,0,1,47.81,57.62Z"/><path class="cls-3" d="M47.57,38.45a.5.5,0,0,1-.5-.5V20.28a.6.6,0,0,0-.6-.6H43a.5.5,0,0,1-.5-.5.5.5,0,0,1,.5-.5h3.46a1.6,1.6,0,0,1,1.6,1.6V38A.5.5,0,0,1,47.57,38.45Z"/><path class="cls-3" d="M46.47,54.52H23.38a1.6,1.6,0,0,1-1.6-1.6v-17a.5.5,0,0,1,.5-.5.51.51,0,0,1,.5.5v17a.6.6,0,0,0,.6.6H46.47a.6.6,0,0,0,.6-.6v-8.8a.5.5,0,0,1,1,0v8.8A1.6,1.6,0,0,1,46.47,54.52Z"/><path class="cls-3" d="M22.28,30.22a.5.5,0,0,1-.5-.5V20.28a1.6,1.6,0,0,1,1.6-1.6H27a.5.5,0,0,1,.5.5.51.51,0,0,1-.5.5H23.38a.6.6,0,0,0-.6.6v9.44A.5.5,0,0,1,22.28,30.22Z"/><path class="cls-3" d="M34.92,18.59a1.52,1.52,0,1,1,1.52-1.52A1.52,1.52,0,0,1,34.92,18.59Zm0-2a.51.51,0,0,0-.51.52.52.52,0,1,0,.51-.52Z"/></g></g></svg>