<svg xmlns="http://www.w3.org/2000/svg" viewBox="0 0 425.67 284.61"><defs><style>.cls-1{isolation:isolate;}.cls-2,.cls-42{fill:none;}.cls-3{fill:#fff;}.cls-4{fill:#d8dade;}.cls-5{fill:#c3c5ca;}.cls-6{fill:#d0d0d0;}.cls-43,.cls-7{fill:#b0afb5;}.cls-10,.cls-11,.cls-12,.cls-13,.cls-14,.cls-15,.cls-16,.cls-17,.cls-18,.cls-19,.cls-20,.cls-21,.cls-22,.cls-23,.cls-24,.cls-25,.cls-26,.cls-27,.cls-28,.cls-29,.cls-30,.cls-31,.cls-32,.cls-33,.cls-34,.cls-35,.cls-36,.cls-37,.cls-38,.cls-39,.cls-8,.cls-9{fill:#94fff7;}.cls-8{opacity:0;}.cls-9{opacity:0.01;}.cls-10{opacity:0.02;}.cls-11{opacity:0.03;}.cls-12{opacity:0.04;}.cls-13{opacity:0.05;}.cls-14{opacity:0.06;}.cls-15{opacity:0.07;}.cls-16{opacity:0.08;}.cls-17{opacity:0.09;}.cls-18{opacity:0.1;}.cls-19{opacity:0.11;}.cls-20{opacity:0.12;}.cls-21{opacity:0.13;}.cls-22{opacity:0.14;}.cls-23{opacity:0.15;}.cls-24{opacity:0.15;}.cls-25{opacity:0.16;}.cls-26{opacity:0.17;}.cls-27{opacity:0.18;}.cls-28{opacity:0.19;}.cls-29{opacity:0.2;}.cls-30{opacity:0.21;}.cls-31{opacity:0.22;}.cls-32{opacity:0.23;}.cls-33{opacity:0.24;}.cls-34{opacity:0.25;}.cls-35{opacity:0.26;}.cls-36{opacity:0.27;}.cls-37{opacity:0.28;}.cls-38{opacity:0.29;}.cls-39{opacity:0.3;}.cls-40{fill:#edeef0;}.cls-41{fill:#00c2b9;}.cls-42{stroke:#fff;stroke-linecap:round;stroke-linejoin:round;stroke-width:2px;}.cls-43{opacity:0.15;mix-blend-mode:multiply;}.cls-44{fill:#a09ea3;}</style></defs><title>error</title><g class="cls-1"><g id="Capa_2" data-name="Capa 2"><g id="Icono"><rect class="cls-2" width="425.67" height="284.61"/><path class="cls-3" d="M207.47,127.42H42.37a1,1,0,0,1-1-1V22.29a1,1,0,0,1,1-1h165.1a1,1,0,0,1,1,1V126.42A1,1,0,0,1,207.47,127.42Zm-164.1-2h163.1V23.29H43.37Z"/><path class="cls-3" d="M197.6,120.34H52a1,1,0,0,1-1-1v-90a1,1,0,0,1,1-1H197.6a1,1,0,0,1,1,1v90A1,1,0,0,1,197.6,120.34Zm-144.6-2H196.6v-88H53Z"/><path class="cls-3" d="M85.57,120.34H52a1,1,0,0,1-1-1v-90a1,1,0,0,1,1-1H95.57a1,1,0,0,1,1,1V40.46A30.07,30.07,0,0,1,75.65,69.1a38.64,38.64,0,0,1,10.14,25l.78,25.21a1,1,0,0,1-.28.72A1,1,0,0,1,85.57,120.34Zm-32.57-2H84.54L83.8,94.16A36.73,36.73,0,0,0,73.08,69.3a1,1,0,0,1-.26-1,1,1,0,0,1,.72-.71,28.05,28.05,0,0,0,21-27.16V30.37H53Z"/><path class="cls-3" d="M73.79,69.59H52a1,1,0,0,1,0-2H73.79a1,1,0,0,1,0,2Z"/><path class="cls-3" d="M197.6,120.34H164a1,1,0,0,1-.72-.31,1,1,0,0,1-.28-.72l.77-25.21A38.7,38.7,0,0,1,174,69.1,30.07,30.07,0,0,1,153,40.46V29.37a1,1,0,0,1,1-1H197.6a1,1,0,0,1,1,1v90A1,1,0,0,1,197.6,120.34Zm-32.53-2H196.6v-88H155V40.46a28.05,28.05,0,0,0,21,27.16,1,1,0,0,1,.71.71,1,1,0,0,1-.25,1,36.73,36.73,0,0,0-10.72,24.86Z"/><path class="cls-3" d="M197.6,69.59H175.82a1,1,0,0,1,0-2H197.6a1,1,0,0,1,0,2Z"/><rect class="cls-4" x="239.48" y="152.72" width="7.75" height="109.59"/><rect class="cls-4" x="311.02" y="152.72" width="7.75" height="109.59"/><rect class="cls-4" x="66.27" y="152.72" width="7.75" height="109.59"/><rect class="cls-4" x="137.81" y="152.72" width="7.75" height="109.59"/><rect class="cls-5" x="244.8" y="152.72" width="7.75" height="109.59"/><rect class="cls-5" x="316.34" y="152.72" width="7.75" height="109.59"/><rect class="cls-5" x="71.58" y="152.72" width="7.75" height="109.59"/><rect class="cls-5" x="143.12" y="152.72" width="7.75" height="109.59"/><rect class="cls-6" x="193.96" y="1.48" width="7.75" height="302.47" transform="translate(350.55 -45.12) rotate(90)"/><rect class="cls-7" x="280.57" y="88.09" width="7.75" height="129.25" transform="translate(437.16 -131.72) rotate(90)"/><polygon class="cls-3" points="134.71 103.99 211.63 103.99 231.63 148.84 154.71 148.84 134.71 103.99"/><polygon class="cls-8" points="227.6 26.2 386.62 26.2 386.62 148.84 282.29 148.84 227.6 26.2"/><polygon class="cls-9" points="224.81 28.85 380.77 28.85 381.31 148.74 278.28 148.74 224.81 28.85"/><polygon class="cls-10" points="222.03 31.5 374.93 31.5 376 148.65 274.27 148.65 222.03 31.5"/><polygon class="cls-11" points="219.25 34.15 369.08 34.15 370.69 148.55 270.26 148.55 219.25 34.15"/><polygon class="cls-12" points="216.46 36.8 363.24 36.8 365.39 148.45 266.25 148.45 216.46 36.8"/><polygon class="cls-13" points="213.68 39.45 357.39 39.45 360.08 148.35 262.24 148.35 213.68 39.45"/><polygon class="cls-14" points="210.89 42.11 351.55 42.11 354.77 148.25 258.23 148.25 210.89 42.11"/><polygon class="cls-15" points="208.11 44.76 345.7 44.76 349.47 148.16 254.22 148.16 208.11 44.76"/><polygon class="cls-16" points="205.32 47.41 339.86 47.41 344.16 148.06 250.2 148.06 205.32 47.41"/><polygon class="cls-17" points="202.54 50.06 334.01 50.06 338.86 147.96 246.19 147.96 202.54 50.06"/><polygon class="cls-18" points="199.76 52.71 328.17 52.71 333.55 147.86 242.18 147.86 199.76 52.71"/><polygon class="cls-19" points="196.97 55.36 322.32 55.36 328.24 147.76 238.17 147.76 196.97 55.36"/><polygon class="cls-20" points="194.19 58.02 316.48 58.02 322.94 147.66 234.16 147.66 194.19 58.02"/><polygon class="cls-21" points="191.4 60.67 310.63 60.67 317.63 147.56 230.15 147.56 191.4 60.67"/><polygon class="cls-22" points="188.62 63.32 304.79 63.32 312.32 147.47 226.14 147.47 188.62 63.32"/><polygon class="cls-23" points="185.84 65.97 298.95 65.97 307.02 147.37 222.13 147.37 185.84 65.97"/><polygon class="cls-24" points="183.05 68.62 293.1 68.62 301.71 147.27 218.12 147.27 183.05 68.62"/><polygon class="cls-25" points="180.27 71.27 287.26 71.27 296.4 147.17 214.11 147.17 180.27 71.27"/><polygon class="cls-26" points="177.48 73.92 281.41 73.92 291.1 147.07 210.1 147.07 177.48 73.92"/><polygon class="cls-27" points="174.7 76.58 275.57 76.58 285.79 146.97 206.09 146.97 174.7 76.58"/><polygon class="cls-28" points="171.91 79.23 269.72 79.23 280.48 146.88 202.08 146.88 171.91 79.23"/><polygon class="cls-29" points="169.13 81.88 263.88 81.88 275.18 146.78 198.07 146.78 169.13 81.88"/><polygon class="cls-30" points="166.35 84.53 258.03 84.53 269.87 146.68 194.06 146.68 166.35 84.53"/><polygon class="cls-31" points="163.56 87.18 252.19 87.18 264.56 146.58 190.05 146.58 163.56 87.18"/><polygon class="cls-32" points="160.78 89.83 246.34 89.83 259.26 146.48 186.04 146.48 160.78 89.83"/><polygon class="cls-33" points="157.99 92.48 240.5 92.48 253.95 146.38 182.03 146.38 157.99 92.48"/><polygon class="cls-34" points="155.21 95.14 234.66 95.14 248.64 146.29 178.02 146.29 155.21 95.14"/><polygon class="cls-35" points="152.43 97.79 228.81 97.79 243.34 146.19 174.01 146.19 152.43 97.79"/><polygon class="cls-36" points="149.64 100.44 222.97 100.44 238.03 146.09 170 146.09 149.64 100.44"/><polygon class="cls-37" points="146.86 103.09 217.12 103.09 232.72 145.99 165.99 145.99 146.86 103.09"/><polygon class="cls-38" points="144.07 105.74 211.28 105.74 227.42 145.89 161.98 145.89 144.07 105.74"/><polygon class="cls-39" points="141.29 108.39 205.43 108.39 222.11 145.79 157.97 145.79 141.29 108.39"/><rect class="cls-40" x="154.04" y="145.8" width="123.97" height="3.05"/><rect class="cls-3" x="154.04" y="145.8" width="77.59" height="3.05"/><polygon class="cls-40" points="134.71 103.99 211.63 103.99 231.63 148.84 154.71 148.84 134.71 103.99"/><polygon class="cls-3" points="133.24 103.99 210.16 103.99 230.16 148.84 153.24 148.84 133.24 103.99"/><ellipse class="cls-41" cx="181.7" cy="126.42" rx="4.01" ry="5.87" transform="matrix(0.82, -0.57, 0.57, 0.82, -39.65, 124.97)"/><line class="cls-42" x1="44.37" y1="262.31" x2="390.15" y2="262.31"/><path class="cls-41" d="M119.09,138a3,3,0,0,1-3-3V110.51a3,3,0,0,1,6,0V135A3,3,0,0,1,119.09,138Z"/><polygon class="cls-7" points="131.58 134.99 106.6 134.99 108.6 148.84 129.58 148.84 131.58 134.99"/><polygon class="cls-43" points="131.58 134.99 106.6 134.99 129.58 148.84 131.58 134.99"/><rect class="cls-44" x="105.6" y="134.99" width="26.98" height="2.85"/><path class="cls-41" d="M119.09,129.25H108.74a3,3,0,0,1-3-3v-7.94a3,3,0,0,1,6,0v4.94h7.35a3,3,0,0,1,0,6Z"/><path class="cls-41" d="M127.79,132.84h-8.7a3,3,0,0,1,0-6h5.7V124a3,3,0,1,1,6,0v5.87A3,3,0,0,1,127.79,132.84Z"/><path class="cls-3" d="M316.17,99.05H258l-9.92,10.08V99.05H236.27a3.79,3.79,0,0,1-3.79-3.78V73.64a3.79,3.79,0,0,1,3.79-3.79h79.9A3.79,3.79,0,0,1,320,73.64V95.27A3.78,3.78,0,0,1,316.17,99.05Z"/><path class="cls-7" d="M254.72,84.06a6.85,6.85,0,0,1-.6,3,4.44,4.44,0,0,1-1.7,1.95,4.66,4.66,0,0,1-2.53.69,4.76,4.76,0,0,1-2.52-.68A4.46,4.46,0,0,1,245.65,87a6.7,6.7,0,0,1-.62-2.91v-.56a6.7,6.7,0,0,1,.61-3,4.47,4.47,0,0,1,1.71-2,5,5,0,0,1,5.05,0,4.47,4.47,0,0,1,1.71,2,6.69,6.69,0,0,1,.61,2.94Zm-2.38-.51a4.75,4.75,0,0,0-.64-2.72,2.26,2.26,0,0,0-3.65,0,4.75,4.75,0,0,0-.64,2.69v.55a4.87,4.87,0,0,0,.64,2.71,2.23,2.23,0,0,0,3.65,0,4.81,4.81,0,0,0,.64-2.7Z"/><path class="cls-7" d="M255.92,85.19a5,5,0,0,1,.49-2.25,3.53,3.53,0,0,1,1.39-1.52,4.06,4.06,0,0,1,2.11-.54,3.87,3.87,0,0,1,2.8,1.05,4.2,4.2,0,0,1,1.2,2.84l0,.58a4.38,4.38,0,0,1-1.09,3.12,3.74,3.74,0,0,1-2.91,1.18A3.8,3.8,0,0,1,257,88.48a4.51,4.51,0,0,1-1.09-3.19Zm2.26.16a3.16,3.16,0,0,0,.45,1.84,1.63,1.63,0,0,0,2.58,0,3.44,3.44,0,0,0,.46-2,3.14,3.14,0,0,0-.46-1.83,1.51,1.51,0,0,0-1.3-.65,1.48,1.48,0,0,0-1.28.65A3.52,3.52,0,0,0,258.18,85.35Z"/><path class="cls-7" d="M272.93,85.34a5.06,5.06,0,0,1-.89,3.13,2.83,2.83,0,0,1-2.39,1.18,2.63,2.63,0,0,1-2.07-.89v4h-2.26V81h2.09l.08.83a2.65,2.65,0,0,1,2.14-1A2.87,2.87,0,0,1,272.06,82a5.19,5.19,0,0,1,.87,3.19Zm-2.26-.16a3.31,3.31,0,0,0-.42-1.82,1.35,1.35,0,0,0-1.21-.64,1.47,1.47,0,0,0-1.46.81V87a1.5,1.5,0,0,0,1.47.84C270.13,87.83,270.67,86.94,270.67,85.18Z"/><path class="cls-7" d="M278.91,87.16a.73.73,0,0,0-.42-.66,4.77,4.77,0,0,0-1.31-.42c-2-.42-3-1.28-3-2.56a2.31,2.31,0,0,1,.94-1.88,3.71,3.71,0,0,1,2.44-.76,4.07,4.07,0,0,1,2.57.76,2.38,2.38,0,0,1,1,2h-2.26a1.13,1.13,0,0,0-.31-.8,1.34,1.34,0,0,0-1-.32,1.36,1.36,0,0,0-.88.26.81.81,0,0,0-.32.66.68.68,0,0,0,.36.6,3.51,3.51,0,0,0,1.2.4,9.48,9.48,0,0,1,1.42.38,2.34,2.34,0,0,1,1.79,2.27,2.2,2.2,0,0,1-1,1.87,4.26,4.26,0,0,1-2.56.72,4.52,4.52,0,0,1-1.89-.38,3.12,3.12,0,0,1-1.29-1,2.38,2.38,0,0,1-.47-1.43H276a1.2,1.2,0,0,0,.44.93,1.81,1.81,0,0,0,1.11.32,1.64,1.64,0,0,0,1-.25A.77.77,0,0,0,278.91,87.16Z"/><path class="cls-7" d="M282.67,88.38a1.12,1.12,0,0,1,.36-.87,1.4,1.4,0,0,1,1.83,0,1.22,1.22,0,0,1,0,1.74,1.32,1.32,0,0,1-.93.33,1.29,1.29,0,0,1-.91-.33A1.14,1.14,0,0,1,282.67,88.38Z"/><path class="cls-7" d="M287.32,88.38a1.12,1.12,0,0,1,.36-.87,1.4,1.4,0,0,1,1.83,0,1.12,1.12,0,0,1,.36.87,1.14,1.14,0,0,1-.36.87,1.43,1.43,0,0,1-1.83,0A1.14,1.14,0,0,1,287.32,88.38Z"/><path class="cls-7" d="M292,88.38a1.12,1.12,0,0,1,.36-.87,1.4,1.4,0,0,1,1.83,0,1.12,1.12,0,0,1,.36.87,1.14,1.14,0,0,1-.36.87,1.43,1.43,0,0,1-1.83,0A1.14,1.14,0,0,1,292,88.38Z"/><path class="cls-3" d="M213.85,232.72H174.9a1,1,0,0,1-1-1V209a1,1,0,0,1,1-1h38.95a1,1,0,0,1,1,1v22.68A1,1,0,0,1,213.85,232.72Zm-37.95-2h36.95V210H175.9Z"/><path class="cls-5" d="M189.4,227.55H183a3.27,3.27,0,0,1-3.26-3.27v-7.87a3.27,3.27,0,0,1,3.26-3.27h6.4a3.28,3.28,0,0,1,3.27,3.27v7.87A3.28,3.28,0,0,1,189.4,227.55ZM183,215.14a1.27,1.27,0,0,0-1.26,1.27v7.87a1.27,1.27,0,0,0,1.26,1.27h6.4a1.27,1.27,0,0,0,1.27-1.27v-7.87a1.27,1.27,0,0,0-1.27-1.27Z"/><path class="cls-5" d="M184.32,223.37a1,1,0,0,1-1-1v-4.05a1,1,0,0,1,2,0v4.05A1,1,0,0,1,184.32,223.37Z"/><path class="cls-5" d="M188.09,223.37a1,1,0,0,1-1-1v-4.05a1,1,0,0,1,2,0v4.05A1,1,0,0,1,188.09,223.37Z"/><path class="cls-3" d="M205.74,227.55h-6.39a3.27,3.27,0,0,1-3.27-3.27v-7.87a3.27,3.27,0,0,1,3.27-3.27h6.39a3.28,3.28,0,0,1,3.27,3.27v7.87A3.28,3.28,0,0,1,205.74,227.55Zm-6.39-12.41a1.27,1.27,0,0,0-1.27,1.27v7.87a1.27,1.27,0,0,0,1.27,1.27h6.39a1.27,1.27,0,0,0,1.27-1.27v-7.87a1.27,1.27,0,0,0-1.27-1.27Z"/><path class="cls-3" d="M200.66,223.37a1,1,0,0,1-1-1v-4.05a1,1,0,0,1,2,0v4.05A1,1,0,0,1,200.66,223.37Z"/><path class="cls-3" d="M204.43,223.37a1,1,0,0,1-1-1v-4.05a1,1,0,0,1,2,0v4.05A1,1,0,0,1,204.43,223.37Z"/><path class="cls-41" d="M221.09,255.83a1,1,0,0,1,0-2,13.43,13.43,0,0,0,9.92-4.3c13.86-14,13.51-57.37,13.3-83.3-.12-15.5,0-18.9,1.44-19.69a1,1,0,0,1,1.1,1.67c-.67,1.28-.61,9.41-.54,18,.21,26.24.57,70.16-13.88,84.72A15.54,15.54,0,0,1,221.09,255.83ZM246.7,148.31Z"/><path class="cls-5" d="M218.82,261.29H208.68a1,1,0,0,1-1-1V249.36a1,1,0,0,1,1-1h10.14a3.28,3.28,0,0,1,3.27,3.27V258A3.28,3.28,0,0,1,218.82,261.29Zm-9.14-2h9.14a1.27,1.27,0,0,0,1.27-1.27v-6.39a1.27,1.27,0,0,0-1.27-1.27h-9.14Z"/><path class="cls-5" d="M207.91,257.71h-4a1,1,0,0,1,0-2h4a1,1,0,1,1,0,2Z"/><path class="cls-5" d="M207.91,253.94h-4a1,1,0,0,1,0-2h4a1,1,0,1,1,0,2Z"/></g></g></g></svg>