<svg xmlns="http://www.w3.org/2000/svg" viewBox="0 0 80 80"><defs><style>.cls-1{fill:none;}.cls-2{fill:#767579;}.cls-3{fill:#00c4bb;}</style></defs><title>estado</title><g id="Capa_2" data-name="Capa 2"><g id="Icono"><rect class="cls-1" width="80" height="80"/><path class="cls-2" d="M56,65.66H24a2.5,2.5,0,0,1-2.5-2.5V22a2.5,2.5,0,0,1,2.5-2.5H56a2.5,2.5,0,0,1,2.5,2.5v41.2A2.5,2.5,0,0,1,56,65.66ZM24,20.46a1.5,1.5,0,0,0-1.5,1.5v41.2a1.5,1.5,0,0,0,1.5,1.5H56a1.5,1.5,0,0,0,1.5-1.5V22a1.5,1.5,0,0,0-1.5-1.5Z"/><path class="cls-2" d="M52.74,61.31H27.26a.5.5,0,0,1-.5-.5V36a.5.5,0,0,1,.5-.5H42.5a.5.5,0,0,1,0,1H27.76V60.31H52.24V24.81H34.34a.51.51,0,0,1-.5-.5.5.5,0,0,1,.5-.5h18.4a.5.5,0,0,1,.5.5v36.5A.5.5,0,0,1,52.74,61.31Z"/><path class="cls-3" d="M30.8,14.34a4,4,0,0,0-4,4v11.7a2.4,2.4,0,0,0,4.8,0V22.7a.5.5,0,0,0-.5-.5.51.51,0,0,0-.5.5v7.38a1.4,1.4,0,0,1-2.8,0V18.38a3,3,0,0,1,6.08,0v1.08h1V18.38A4,4,0,0,0,30.8,14.34Z"/><path class="cls-3" d="M44,45.46H30.8a.5.5,0,0,1-.5-.5.51.51,0,0,1,.5-.5H44a.5.5,0,0,1,.5.5A.5.5,0,0,1,44,45.46Z"/><path class="cls-3" d="M40.27,48.51H30.8a.5.5,0,0,1-.5-.5.51.51,0,0,1,.5-.5h9.47a.51.51,0,0,1,.5.5A.5.5,0,0,1,40.27,48.51Z"/></g></g></svg>