<svg xmlns="http://www.w3.org/2000/svg" viewBox="0 0 70.94 47.29"><defs><style>.cls-1{fill:#d0d0d0;}</style></defs><title>img-tcldpi</title><g id="Capa_2" data-name="Capa 2"><g id="Header"><path class="cls-1" d="M70.94,10.35h0V7.39A7.4,7.4,0,0,0,63.55,0H7.39A7.4,7.4,0,0,0,0,7.39V39.9a7.4,7.4,0,0,0,7.39,7.39H63.55a7.4,7.4,0,0,0,7.39-7.39V19.22h0ZM3,11.82H68v5.91H3ZM7.39,3H63.55A4.44,4.44,0,0,1,68,7.39V8.87H3V7.39A4.43,4.43,0,0,1,7.39,3ZM63.55,44.34H7.39A4.43,4.43,0,0,1,3,39.9V20.69H68V39.9h0A4.44,4.44,0,0,1,63.55,44.34Z"/><path class="cls-1" d="M28.08,29.56H10.35a1.48,1.48,0,1,0,0,2.95H28.08a1.48,1.48,0,1,0,0-2.95Z"/><path class="cls-1" d="M28.08,35.47H10.35a1.48,1.48,0,1,0,0,3H28.08a1.48,1.48,0,1,0,0-3Z"/><path class="cls-1" d="M57.64,26.6h-3A4.44,4.44,0,0,0,50.25,31v3a4.43,4.43,0,0,0,4.43,4.43h3A4.43,4.43,0,0,0,62.07,34V31A4.44,4.44,0,0,0,57.64,26.6ZM59.11,34a1.47,1.47,0,0,1-1.47,1.48h-3A1.48,1.48,0,0,1,53.2,34V31a1.48,1.48,0,0,1,1.48-1.48h3A1.47,1.47,0,0,1,59.11,31Z"/></g></g></svg>