<svg xmlns="http://www.w3.org/2000/svg" viewBox="0 0 25 25"><defs><style>.cls-1{fill:none;}.cls-2{fill:#66d5d0;}.cls-3{fill:#cecece;}</style></defs><title>Recurso 1ldpi</title><g id="Capa_2" data-name="Capa 2"><g id="Contenido"><rect class="cls-1" width="25" height="25"/><path class="cls-2" d="M12.5,15.63a.66.66,0,0,1-.47-.19L8.29,11.69a.65.65,0,0,1,0-.93.67.67,0,0,1,.93,0l3.28,3.29,7.56-7.57a.67.67,0,0,1,.93,0,.65.65,0,0,1,0,.93l-8,8A.66.66,0,0,1,12.5,15.63Z"/><path class="cls-3" d="M19.61,9.72a7.37,7.37,0,0,1,.55,2.78,7.46,7.46,0,1,1-2-5l-.71.7a6.44,6.44,0,1,0,1.67,4.32,6.59,6.59,0,0,0-.32-2Z"/></g></g></svg>