<?xml version="1.0" encoding="utf-8"?>
<!-- Generator: Adobe Illustrator 23.0.3, SVG Export Plug-In . SVG Version: 6.00 Build 0)  -->
<svg version="1.1" id="Capa_1" xmlns="http://www.w3.org/2000/svg" xmlns:xlink="http://www.w3.org/1999/xlink" x="0px" y="0px"
	 viewBox="0 0 50 50" style="enable-background:new 0 0 50 50;" xml:space="preserve">
<style type="text/css">
	.st0{fill:#FFFFFF;}
</style>
<title>Assets_3_01042019</title>
<g>
	<path class="st0" d="M25,30.6c-0.6,0-1,0.4-1,1s0.4,1,1,1c4.2,0,7.6-3.4,7.6-7.6c0-4.2-3.4-7.6-7.6-7.6c-4.2,0-7.6,3.4-7.6,7.6
		c0,0.6,0.4,1,1,1s1-0.4,1-1c0-3.1,2.5-5.6,5.6-5.6c3.1,0,5.6,2.5,5.6,5.6C30.6,28.1,28.1,30.6,25,30.6z"/>
	<path class="st0" d="M22.4,30.8c0-1.1-0.4-2.2-1.2-3c-1.6-1.6-4.3-1.6-6,0.1l-0.8,1c-0.1,0-0.3,0.1-0.4,0.2
		c-0.1,0.1-0.2,0.3-0.3,0.5l-4.5,5.3C9.1,35,9,35.1,9,35.3l-0.9,4.3c-0.1,0.6,0.1,1.3,0.5,1.8c0.4,0.4,0.9,0.6,1.4,0.6
		c0.1,0,0.3,0,0.4,0l4.3-0.9c0.2,0,0.4-0.2,0.6-0.3l5.9-6.9C22,33,22.4,31.9,22.4,30.8z M14,39.1L10.1,40l0.8-4.1l3.9-4.6l3.1,3.1
		L14,39.1z M19.7,32.4l-0.4,0.5l-3.1-3.1l0.5-0.6c0.9-0.9,2.3-0.9,3.1,0c0.4,0.4,0.6,1,0.6,1.6S20.2,32,19.7,32.4z"/>
	<path class="st0" d="M39.2,20.8h-0.6c-0.3,0-0.6-0.2-0.7-0.5c-0.1-0.4-0.3-0.8-0.5-1.2c-0.1-0.3-0.1-0.6,0.1-0.8l0.4-0.4
		c1.1-1.1,1.1-2.8,0-3.8L35.9,12c-1.1-1.1-2.8-1.1-3.8,0l-0.4,0.4c-0.2,0.2-0.5,0.3-0.8,0.1c-0.4-0.2-0.8-0.3-1.2-0.5
		c-0.3-0.1-0.5-0.4-0.5-0.7v-0.6c0-1.5-1.2-2.7-2.7-2.7h-2.9c-1.5,0-2.7,1.2-2.7,2.7v0.6c0,0.3-0.2,0.6-0.5,0.7
		c-0.4,0.1-0.8,0.3-1.2,0.5c-0.3,0.1-0.6,0.1-0.8-0.1L17.9,12c-1.1-1.1-2.8-1.1-3.8,0L12,14.1c-1.1,1.1-1.1,2.8,0,3.8l0.4,0.4
		c0.2,0.2,0.3,0.5,0.1,0.8c-0.2,0.4-0.3,0.8-0.5,1.2c-0.1,0.3-0.4,0.5-0.7,0.5h-0.6c-1.5,0-2.7,1.2-2.7,2.7v2.9
		c0,1.5,1.2,2.7,2.7,2.7h0.6c0.6,0,1-0.4,1-1s-0.4-1-1-1h-0.6c-0.4,0-0.7-0.3-0.7-0.7v-2.9c0-0.4,0.3-0.7,0.7-0.7h0.6
		c1.1,0,2.2-0.7,2.6-1.8c0.1-0.3,0.3-0.7,0.4-1c0.5-1,0.3-2.3-0.5-3.1l-0.4-0.4c-0.3-0.3-0.3-0.7,0-1l2.1-2.1c0.3-0.3,0.7-0.3,1,0
		l0.4,0.4c0.8,0.8,2,1,3.1,0.5c0.3-0.2,0.7-0.3,1-0.4c1.1-0.4,1.8-1.4,1.8-2.6v-0.6c0-0.4,0.3-0.7,0.7-0.7h2.9
		c0.4,0,0.7,0.3,0.7,0.7v0.6c0,1.1,0.7,2.2,1.8,2.6c0.3,0.1,0.7,0.3,1,0.4c1,0.5,2.3,0.3,3.1-0.5l0.4-0.4c0.3-0.3,0.7-0.3,1,0
		l2.1,2.1c0.3,0.3,0.3,0.7,0,1l-0.4,0.4c-0.8,0.8-1,2-0.5,3.1c0.2,0.3,0.3,0.7,0.4,1c0.4,1.1,1.4,1.8,2.6,1.8h0.6
		c0.4,0,0.7,0.3,0.7,0.7v2.9c0,0.4-0.3,0.7-0.7,0.7h-0.6c-1.1,0-2.2,0.7-2.6,1.8c-0.1,0.3-0.3,0.7-0.4,1c-0.5,1-0.3,2.3,0.5,3.1
		l0.4,0.4c0.3,0.3,0.3,0.7,0,1l-2.1,2.1c-0.3,0.3-0.7,0.3-1,0l-0.4-0.4c-0.8-0.8-2-1-3.1-0.5c-0.3,0.2-0.7,0.3-1,0.4
		c-1.1,0.4-1.8,1.4-1.8,2.6v0.6c0,0.4-0.3,0.7-0.7,0.7h-2.9c-0.4,0-0.7-0.3-0.7-0.7v-0.6c0-0.6-0.4-1-1-1s-1,0.4-1,1v0.6
		c0,1.5,1.2,2.7,2.7,2.7h2.9c1.5,0,2.7-1.2,2.7-2.7v-0.6c0-0.3,0.2-0.6,0.5-0.7c0.4-0.1,0.8-0.3,1.2-0.5c0.3-0.1,0.6-0.1,0.8,0.1
		l0.4,0.4c1.1,1.1,2.8,1.1,3.8,0l2.1-2.1c1.1-1.1,1.1-2.8,0-3.8l-0.4-0.4c-0.2-0.2-0.3-0.5-0.1-0.8c0.2-0.4,0.3-0.8,0.5-1.2
		c0.1-0.3,0.4-0.5,0.7-0.5h0.6c1.5,0,2.7-1.2,2.7-2.7v-2.9C41.9,22,40.7,20.8,39.2,20.8z"/>
</g>
</svg>
