<?xml version="1.0" encoding="utf-8"?>
<!-- Generator: Adobe Illustrator 23.0.3, SVG Export Plug-In . SVG Version: 6.00 Build 0)  -->
<svg version="1.1" id="Capa_1" xmlns="http://www.w3.org/2000/svg" xmlns:xlink="http://www.w3.org/1999/xlink" x="0px" y="0px"
	 viewBox="0 0 50 50" style="enable-background:new 0 0 50 50;" xml:space="preserve">
<style type="text/css">
	.st0{fill:#55565A;}
	.st1{fill:#FFFFFF;}
	.st2{fill:#757478;}
</style>
<title>Assets_3_01042019</title>
<g>
	<g>
		<path class="st0" d="M34.9,37H17.2C16,37,15,36,15,34.8V17.6c0-1.2,1-2.2,2.2-2.2h17.7c1.2,0,2.2,1,2.2,2.2v17.2
			C37.1,36,36.1,37,34.9,37z"/>
		<path class="st1" d="M34.9,37.5H17.2c-1.5,0-2.7-1.2-2.7-2.7V17.6c0-1.5,1.2-2.7,2.7-2.7h17.7c1.5,0,2.7,1.2,2.7,2.7v17.2
			C37.6,36.3,36.4,37.5,34.9,37.5z M17.2,16c-0.9,0-1.7,0.8-1.7,1.7v17.2c0,0.9,0.8,1.7,1.7,1.7h17.7c0.9,0,1.7-0.8,1.7-1.7V17.6
			c0-0.9-0.8-1.7-1.7-1.7H17.2z"/>
	</g>
	<g>
		<g>
			<path class="st0" d="M21,18L21,18c-0.4,0-0.7,0-1.6,0v-5c0.7,0,1.2,0,1.6,0h0c0.4,0,0.8,0.4,0.8,0.8v3.3C21.8,17.6,21.4,18,21,18
				z"/>
			<path class="st1" d="M21,18.5h-1.6c-0.3,0-0.5-0.2-0.5-0.5v-5c0-0.3,0.2-0.5,0.5-0.5H21c0.7,0,1.3,0.6,1.3,1.3v3.3
				C22.3,17.9,21.7,18.5,21,18.5z M19.8,17.5H21c0.2,0,0.3-0.1,0.3-0.3v-3.3c0-0.2-0.1-0.3-0.3-0.3h-1.1V17.5z"/>
		</g>
		<g>
			<path class="st0" d="M30.1,18L30.1,18c-0.4,0-0.7,0-1.6,0v-5c0.7,0,1.2,0,1.6,0h0c0.4,0,0.8,0.4,0.8,0.8v3.3
				C30.9,17.6,30.6,18,30.1,18z"/>
			<path class="st1" d="M30.1,18.5h-1.6c-0.3,0-0.5-0.2-0.5-0.5v-5c0-0.3,0.2-0.5,0.5-0.5h1.6c0.7,0,1.3,0.6,1.3,1.3v3.3
				C31.4,17.9,30.8,18.5,30.1,18.5z M29,17.5h1.1c0.2,0,0.3-0.1,0.3-0.3v-3.3c0-0.2-0.1-0.3-0.3-0.3H29V17.5z"/>
		</g>
	</g>
	<g>
		<path class="st2" d="M32.8,37H15.1c-1.2,0-2.2-1-2.2-2.2V17.6c0-1.2,1-2.2,2.2-2.2h17.7c1.2,0,2.2,1,2.2,2.2v17.2
			C35,36,34,37,32.8,37z"/>
		<path class="st1" d="M32.8,37.5H15.1c-1.5,0-2.7-1.2-2.7-2.7V17.6c0-1.5,1.2-2.7,2.7-2.7h17.7c1.5,0,2.7,1.2,2.7,2.7v17.2
			C35.5,36.3,34.3,37.5,32.8,37.5z M15.1,16c-0.9,0-1.7,0.8-1.7,1.7v17.2c0,0.9,0.8,1.7,1.7,1.7h17.7c0.9,0,1.7-0.8,1.7-1.7V17.6
			c0-0.9-0.8-1.7-1.7-1.7H15.1z"/>
	</g>
	<g>
		<g>
			<path class="st0" d="M19.8,18h-0.8c-0.2,0-0.4-0.2-0.4-0.4v-4.1c0-0.2,0.2-0.4,0.4-0.4h0.8c0.2,0,0.4,0.2,0.4,0.4v4.1
				C20.2,17.8,20,18,19.8,18z"/>
			<path class="st1" d="M19.8,18.5h-0.8c-0.5,0-0.9-0.4-0.9-0.9v-4.1c0-0.5,0.4-0.9,0.9-0.9h0.8c0.5,0,0.9,0.4,0.9,0.9v4.1
				C20.7,18.1,20.3,18.5,19.8,18.5z M19,17.5h0.6v-4H19V17.5z"/>
		</g>
		<g>
			<path class="st0" d="M28.9,18l-0.8,0c-0.2,0-0.4-0.2-0.4-0.4v-4.1c0-0.2,0.2-0.4,0.4-0.4h0.8c0.2,0,0.4,0.2,0.4,0.4l0,4.1
				C29.3,17.8,29.1,18,28.9,18z"/>
			<path class="st1" d="M28.9,18.5h-0.8c-0.5,0-0.9-0.4-0.9-0.9v-4.1c0-0.5,0.4-0.9,0.9-0.9h0.8c0.5,0,0.9,0.4,0.9,0.9v4.1
				C29.8,18.1,29.4,18.5,28.9,18.5z M28.2,17.5h0.6v-4h-0.6V17.5z"/>
		</g>
	</g>
	<g>
		<g>
			<rect x="15.7" y="24" class="st1" width="4.1" height="3.5"/>
			<path class="st2" d="M20.3,27.9h-5.1v-4.5h5.1V27.9z M16.2,26.9h3.1v-2.5h-3.1V26.9z"/>
		</g>
		<g>
			<rect x="15.7" y="19.4" class="st0" width="16.5" height="3.5"/>
		</g>
		<g>
			<rect x="15.7" y="27.4" class="st1" width="4.1" height="3.5"/>
			<path class="st2" d="M20.3,31.4h-5.1v-4.5h5.1V31.4z M16.2,30.4h3.1v-2.5h-3.1V30.4z"/>
		</g>
		<g>
			<rect x="15.7" y="30.9" class="st1" width="4.1" height="3.5"/>
			<path class="st2" d="M20.3,34.8h-5.1v-4.5h5.1V34.8z M16.2,33.8h3.1v-2.5h-3.1V33.8z"/>
		</g>
		<g>
			<rect x="19.8" y="24" class="st1" width="4.1" height="3.5"/>
			<path class="st2" d="M24.4,27.9h-5.1v-4.5h5.1V27.9z M20.3,26.9h3.1v-2.5h-3.1V26.9z"/>
		</g>
		<g>
			<rect x="19.8" y="27.4" class="st1" width="4.1" height="3.5"/>
			<path class="st2" d="M24.4,31.4h-5.1v-4.5h5.1V31.4z M20.3,30.4h3.1v-2.5h-3.1V30.4z"/>
		</g>
		<g>
			<rect x="19.8" y="30.9" class="st1" width="4.1" height="3.5"/>
			<path class="st2" d="M24.4,34.8h-5.1v-4.5h5.1V34.8z M20.3,33.8h3.1v-2.5h-3.1V33.8z"/>
		</g>
		<g>
			<rect x="23.9" y="24" class="st1" width="4.1" height="3.5"/>
			<path class="st2" d="M28.5,27.9h-5.1v-4.5h5.1V27.9z M24.4,26.9h3.1v-2.5h-3.1V26.9z"/>
		</g>
		<g>
			<rect x="23.9" y="27.4" class="st1" width="4.1" height="3.5"/>
			<path class="st2" d="M28.5,31.4h-5.1v-4.5h5.1V31.4z M24.4,30.4h3.1v-2.5h-3.1V30.4z"/>
		</g>
		<g>
			<rect x="23.9" y="30.9" class="st1" width="4.1" height="3.5"/>
			<path class="st2" d="M28.5,34.8h-5.1v-4.5h5.1V34.8z M24.4,33.8h3.1v-2.5h-3.1V33.8z"/>
		</g>
		<g>
			<rect x="28" y="24" class="st1" width="4.1" height="3.5"/>
			<path class="st2" d="M32.7,27.9h-5.1v-4.5h5.1V27.9z M28.5,26.9h3.1v-2.5h-3.1V26.9z"/>
		</g>
		<g>
			<rect x="28" y="27.4" class="st1" width="4.1" height="3.5"/>
			<path class="st2" d="M32.7,31.4h-5.1v-4.5h5.1V31.4z M28.5,30.4h3.1v-2.5h-3.1V30.4z"/>
		</g>
	</g>
</g>
</svg>
