<?xml version="1.0" encoding="utf-8"?>
<!-- Generator: Adobe Illustrator 23.0.3, SVG Export Plug-In . SVG Version: 6.00 Build 0)  -->
<svg version="1.1" id="Capa_1" xmlns="http://www.w3.org/2000/svg" xmlns:xlink="http://www.w3.org/1999/xlink" x="0px" y="0px"
	 viewBox="0 0 50 50" style="enable-background:new 0 0 50 50;" xml:space="preserve">
<style type="text/css">
	.st0{fill:#757478;}
	.st1{fill:#FFFFFF;}
	.st2{fill:#55565A;}
</style>
<title>Assets_3_01042019</title>
<g>
	<g>
		<path class="st0" d="M34.8,37H15.2C14,37,13,36,13,34.8V23.7c0-1.2,1-2.2,2.2-2.2h19.6c1.2,0,2.2,1,2.2,2.2v11.1
			C37,36,36,37,34.8,37z"/>
		<path class="st1" d="M34.8,37.5H15.2c-1.5,0-2.7-1.2-2.7-2.7V23.7c0-1.5,1.2-2.7,2.7-2.7h19.6c1.5,0,2.7,1.2,2.7,2.7v11.1
			C37.5,36.3,36.3,37.5,34.8,37.5z M15.2,22c-0.9,0-1.7,0.8-1.7,1.7v11.1c0,0.9,0.8,1.7,1.7,1.7h19.6c0.9,0,1.7-0.8,1.7-1.7V23.7
			c0-0.9-0.8-1.7-1.7-1.7H15.2z"/>
	</g>
	<g>
		<path class="st0" d="M34.8,34.8H15.2c-1.2,0-2.2-1-2.2-2.2V21.5c0-1.2,1-2.2,2.2-2.2h19.6c1.2,0,2.2,1,2.2,2.2v11.1
			C37,33.9,36,34.8,34.8,34.8z"/>
		<path class="st1" d="M34.8,35.3H15.2c-1.5,0-2.7-1.2-2.7-2.7V21.5c0-1.5,1.2-2.7,2.7-2.7h19.6c1.5,0,2.7,1.2,2.7,2.7v11.1
			C37.5,34.1,36.3,35.3,34.8,35.3z M15.2,19.9c-0.9,0-1.7,0.8-1.7,1.7v11.1c0,0.9,0.8,1.7,1.7,1.7h19.6c0.9,0,1.7-0.8,1.7-1.7V21.5
			c0-0.9-0.8-1.7-1.7-1.7H15.2z"/>
	</g>
	<g>
		<path class="st0" d="M34.8,32.9H15.2c-1.2,0-2.2-1-2.2-2.2V19.6c0-1.2,1-2.2,2.2-2.2h19.6c1.2,0,2.2,1,2.2,2.2v11.1
			C37,31.9,36,32.9,34.8,32.9z"/>
		<path class="st1" d="M34.8,33.4H15.2c-1.5,0-2.7-1.2-2.7-2.7V19.6c0-1.5,1.2-2.7,2.7-2.7h19.6c1.5,0,2.7,1.2,2.7,2.7v11.1
			C37.5,32.2,36.3,33.4,34.8,33.4z M15.2,17.9c-0.9,0-1.7,0.8-1.7,1.7v11.1c0,0.9,0.8,1.7,1.7,1.7h19.6c0.9,0,1.7-0.8,1.7-1.7V19.6
			c0-0.9-0.8-1.7-1.7-1.7H15.2z"/>
	</g>
	<g>
		<path class="st0" d="M34.8,30.6H15.2c-1.2,0-2.2-1-2.2-2.2V17.3c0-1.2,1-2.2,2.2-2.2h19.6c1.2,0,2.2,1,2.2,2.2v11.1
			C37,29.6,36,30.6,34.8,30.6z"/>
		<path class="st1" d="M34.8,31.1H15.2c-1.5,0-2.7-1.2-2.7-2.7V17.3c0-1.5,1.2-2.7,2.7-2.7h19.6c1.5,0,2.7,1.2,2.7,2.7v11.1
			C37.5,29.9,36.3,31.1,34.8,31.1z M15.2,15.6c-0.9,0-1.7,0.8-1.7,1.7v11.1c0,0.9,0.8,1.7,1.7,1.7h19.6c0.9,0,1.7-0.8,1.7-1.7V17.3
			c0-0.9-0.8-1.7-1.7-1.7H15.2z"/>
	</g>
	<g>
		<path class="st0" d="M34.8,28.5H15.2c-1.2,0-2.2-1-2.2-2.2V15.2c0-1.2,1-2.2,2.2-2.2h19.6c1.2,0,2.2,1,2.2,2.2v11.1
			C37,27.5,36,28.5,34.8,28.5z"/>
		<path class="st1" d="M34.8,29H15.2c-1.5,0-2.7-1.2-2.7-2.7V15.2c0-1.5,1.2-2.7,2.7-2.7h19.6c1.5,0,2.7,1.2,2.7,2.7v11.1
			C37.5,27.8,36.3,29,34.8,29z M15.2,13.5c-0.9,0-1.7,0.8-1.7,1.7v11.1c0,0.9,0.8,1.7,1.7,1.7h19.6c0.9,0,1.7-0.8,1.7-1.7V15.2
			c0-0.9-0.8-1.7-1.7-1.7H15.2z"/>
	</g>
	<g>
		<g>
			<path class="st2" d="M18.6,24.6h12.9c0.2-1,1-1.7,1.9-1.9v-3.9c-1-0.2-1.7-1-1.9-1.9H18.6c-0.2,1-1,1.7-1.9,1.9v3.9
				C17.6,22.9,18.4,23.7,18.6,24.6z"/>
		</g>
	</g>
	<g>
		<circle class="st0" cx="25" cy="20.7" r="5.3"/>
		<path class="st1" d="M25,26.5c-3.2,0-5.8-2.6-5.8-5.8s2.6-5.8,5.8-5.8s5.8,2.6,5.8,5.8S28.2,26.5,25,26.5z M25,15.9
			c-2.6,0-4.8,2.2-4.8,4.8c0,2.6,2.2,4.8,4.8,4.8c2.7,0,4.8-2.2,4.8-4.8C29.8,18.1,27.7,15.9,25,15.9z"/>
	</g>
	<g>
		<g>
			<circle class="st0" cx="16.1" cy="25.1" r="1.2"/>
			<path class="st1" d="M16.1,26.8c-0.9,0-1.7-0.8-1.7-1.7s0.8-1.7,1.7-1.7s1.7,0.8,1.7,1.7S17,26.8,16.1,26.8z M16.1,24.5
				c-0.4,0-0.7,0.3-0.7,0.7s0.3,0.7,0.7,0.7s0.7-0.3,0.7-0.7S16.5,24.5,16.1,24.5z"/>
		</g>
		<g>
			<circle class="st0" cx="16.1" cy="16.3" r="1.2"/>
			<path class="st1" d="M16.1,18c-0.9,0-1.7-0.8-1.7-1.7s0.8-1.7,1.7-1.7s1.7,0.8,1.7,1.7S17,18,16.1,18z M16.1,15.6
				c-0.4,0-0.7,0.3-0.7,0.7s0.3,0.7,0.7,0.7s0.7-0.3,0.7-0.7S16.5,15.6,16.1,15.6z"/>
		</g>
		<g>
			<circle class="st0" cx="33.9" cy="25.1" r="1.2"/>
			<path class="st1" d="M33.9,26.8c-0.9,0-1.7-0.8-1.7-1.7s0.8-1.7,1.7-1.7s1.7,0.8,1.7,1.7S34.8,26.8,33.9,26.8z M33.9,24.5
				c-0.4,0-0.7,0.3-0.7,0.7s0.3,0.7,0.7,0.7s0.7-0.3,0.7-0.7S34.3,24.5,33.9,24.5z"/>
		</g>
		<g>
			<circle class="st0" cx="33.9" cy="16.3" r="1.2"/>
			<path class="st1" d="M33.9,18c-0.9,0-1.7-0.8-1.7-1.7s0.8-1.7,1.7-1.7s1.7,0.8,1.7,1.7S34.8,18,33.9,18z M33.9,15.6
				c-0.4,0-0.7,0.3-0.7,0.7s0.3,0.7,0.7,0.7s0.7-0.3,0.7-0.7S34.3,15.6,33.9,15.6z"/>
		</g>
	</g>
</g>
</svg>
