<svg xmlns="http://www.w3.org/2000/svg" viewBox="0 0 72.61 72.61"><defs><style>.cls-1{fill:none;}.cls-2{fill:#767579;}</style></defs><title>SAC</title><g id="Capa_2" data-name="Capa 2"><g id="Icono"><rect class="cls-1" width="72.61" height="72.61"/><path class="cls-2" d="M36.3,52.43,32.83,47.1l3.4-3.59,3.57,3.58-3.5,5.34m0,3.8L36.5,56c.2-.29,4.77-7.1,5.58-8.54a39,39,0,0,0,2.75-5.94l4.05,1.35a12.26,12.26,0,0,1,7.79,9.67v1.7C55.78,55.57,49,65.26,36.32,65.26s-19.51-9.6-20.4-11V52.7a12.28,12.28,0,0,1,7.83-9.87l4.05-1.35a40.66,40.66,0,0,0,2.77,6c.8,1.4,5.37,8.2,5.56,8.49l.19.27m-.14-15.77L34.53,38.8a9.66,9.66,0,0,0,1.78.16,9.15,9.15,0,0,0,1.38-.1l-1.51,1.6m-4.44,4.69a37.67,37.67,0,0,1-2.12-4.94l1.1-2.2,4,4-3,3.14m9.14,0L37.69,42l4.06-4.28L43,40.21a37.86,37.86,0,0,1-2.13,4.95M34.35,32.88a.9.9,0,1,1,0-1.79h2a.9.9,0,1,1,0,1.79h-2m-7.85-2a.9.9,0,0,1-.9-.9v-.89h.65l.2,1.18c0,.2.07.4.12.61H26.5m-2-3.93a.89.89,0,0,1-.9-.89V21h1.83v.26c.07,1.9.23,3.88.47,5.75h-1.4m22.15,0c.24-1.91.4-3.95.47-5.92V21H49V26.1a.9.9,0,0,1-.9.89h-1.4M28.78,30.92a56.13,56.13,0,0,1-1.16-9.41l1.3-1.74a6.82,6.82,0,0,1,5-2.7,17.93,17.93,0,0,0,9.69,4.69L45,22c-.1,2-.3,4.06-.57,5.92-.06.41-.12.73-.21,1.26l-.13.83a8.17,8.17,0,0,1-5.86,6.63,7.68,7.68,0,0,1-3.81,0,7.82,7.82,0,0,1-4.68-3.54h1.79a3,3,0,0,0,2.83,2h2a3,3,0,1,0,0-6.06h-2a3,3,0,0,0-2.84,2H28.78M27.64,18a7.85,7.85,0,0,1,7.8-6.8h1.75a7.89,7.89,0,0,1,7.87,7.9v.74l-1.14-.16a15.69,15.69,0,0,1-8.81-4.41,1.07,1.07,0,0,0-.76-.32,9,9,0,0,0-6.71,3m-4,.88a12.67,12.67,0,0,1,25.26,0H47.19A10,10,0,0,0,37.19,9H35.44a10,10,0,0,0-10,9.81H23.68M36.31,5.11a14.82,14.82,0,0,0-14.8,14.81V26.1a3,3,0,0,0,2,2.83V30a3,3,0,0,0,3,3h.81a10.57,10.57,0,0,0,1.63,2.52c.13.14.25.28.4.43l-1.63,3.26L23.08,40.8a14.46,14.46,0,0,0-9.3,11.87v2.22l.15.26c.3.51,7.38,12.35,22.39,12.35S58.46,55.6,58.76,55.09l0-.05V52.31A14.49,14.49,0,0,0,49.55,40.8l-4.63-1.54L43.29,36a10.82,10.82,0,0,0,2.89-5.69l.2-1.18h1.71a3,3,0,0,0,3-3V19.92A14.82,14.82,0,0,0,36.31,5.11"/></g></g></svg>