<svg xmlns="http://www.w3.org/2000/svg" viewBox="0 0 83.4 55.6"><defs><style>.cls-1{fill:#26478d;}</style></defs><title>Tarjeta</title><g id="Capa_2" data-name="Capa 2"><g id="Fondo"><path class="cls-1" d="M74.71,0h-66A8.7,8.7,0,0,0,0,8.69V46.91A8.7,8.7,0,0,0,8.69,55.6h66a8.7,8.7,0,0,0,8.69-8.69V8.69A8.7,8.7,0,0,0,74.71,0Zm5.22,46.91a5.22,5.22,0,0,1-5.22,5.22h-66a5.22,5.22,0,0,1-5.21-5.22V8.69A5.21,5.21,0,0,1,8.69,3.48h66a5.22,5.22,0,0,1,5.22,5.21V46.91Z"/><path class="cls-1" d="M81.66,10.43H1.74A1.73,1.73,0,0,0,0,12.16V22.59a1.74,1.74,0,0,0,1.74,1.74H81.66a1.74,1.74,0,0,0,1.74-1.74V12.16A1.73,1.73,0,0,0,81.66,10.43ZM79.93,20.85H3.48v-7H79.93v7Z"/><path class="cls-1" d="M33,34.75H12.16a1.74,1.74,0,0,0,0,3.48H33a1.74,1.74,0,1,0,0-3.48Z"/><path class="cls-1" d="M33,41.7H12.16a1.74,1.74,0,0,0,0,3.48H33a1.74,1.74,0,1,0,0-3.48Z"/><path class="cls-1" d="M67.76,31.28H64.29a5.21,5.21,0,0,0-5.21,5.21V40a5.22,5.22,0,0,0,5.21,5.22h3.47A5.22,5.22,0,0,0,73,40V36.49A5.22,5.22,0,0,0,67.76,31.28ZM69.5,40a1.74,1.74,0,0,1-1.74,1.74H64.29A1.74,1.74,0,0,1,62.55,40V36.49a1.74,1.74,0,0,1,1.74-1.74h3.47a1.74,1.74,0,0,1,1.74,1.74Z"/></g></g></svg>