<svg xmlns="http://www.w3.org/2000/svg" xmlns:xlink="http://www.w3.org/1999/xlink" viewBox="0 0 80.02 76.66"><defs><style>.cls-1{isolation:isolate;}.cls-2{fill:#ff9a2e;}.cls-3{fill:#ffcb48;}.cls-4{fill:#fff;}.cls-5{opacity:0.2;mix-blend-mode:multiply;fill:url(#linear-gradient);}.cls-6{fill:#c6c6c6;opacity:0.4;}</style><linearGradient id="linear-gradient" x1="2932.1" y1="9.39" x2="2960.57" y2="55.17" gradientTransform="matrix(-1, 0, 0, 1, 3012.09, 0)" gradientUnits="userSpaceOnUse"><stop offset="0" stop-color="#ffc444"/><stop offset="1" stop-color="#f36f56"/></linearGradient></defs><g class="cls-1"><g id="Capa_2" data-name="Capa 2"><g id="Header"><path class="cls-2" d="M0,9.53V44.72A9.32,9.32,0,0,0,9.53,53.9l19.59-.08h2.59L40.85,65a2.55,2.55,0,0,0,2.92-.11l1.35-1.79,7.1-9.38h.65l17.92-.07a7.55,7.55,0,0,0,4.95-1.87,8.41,8.41,0,0,0,2.89-6.52V13.35a8.73,8.73,0,0,0-8-8.84l-3.8-.23L9.43.88a9.25,9.25,0,0,0-4,.63A8.48,8.48,0,0,0,0,9.53Z"/><path class="cls-3" d="M1.4,8.63V43.71A9.44,9.44,0,0,0,11,52.88l18.53,0h3.65l9.1,10.69a1.61,1.61,0,0,0,2.47,0l.34-.4,7.75-9.39.77-.93,18.48,0a7.68,7.68,0,0,0,3.68-1A8.35,8.35,0,0,0,80,44.39V12.56a8.75,8.75,0,0,0-8-8.83l-4.37-.26L11.11,0a9.52,9.52,0,0,0-5.8,1.49A8.52,8.52,0,0,0,1.4,8.63Z"/><path class="cls-4" d="M45.52,34.05,42.34,34a1.76,1.76,0,0,1-1.66-1.67L39.52,10A1.41,1.41,0,0,1,40,8.8a1.45,1.45,0,0,1,1.21-.38l5.46.38a1.69,1.69,0,0,1,1.19.53,1.74,1.74,0,0,1,.44,1.22l-1.13,22A1.61,1.61,0,0,1,45.52,34.05Z"/><path class="cls-4" d="M40.62,39.52A4.49,4.49,0,0,1,44,38.42a4.69,4.69,0,0,1,3.36,1.16,4.4,4.4,0,0,1,1.15,3.3,4.32,4.32,0,0,1-1.17,3.24A4.56,4.56,0,0,1,44,47.27a4.5,4.5,0,0,1-3.33-1.19,4.42,4.42,0,0,1-1.2-3.27A4.29,4.29,0,0,1,40.62,39.52Z"/><path class="cls-5" d="M29.09,53.82h2.6L40.84,65a2.55,2.55,0,0,0,2.92-.11l1.36-1.79,7.75-9.39,17.92-.07a7.73,7.73,0,0,0,5-1.87A8.35,8.35,0,0,0,80,44.39V12.56a8.75,8.75,0,0,0-8-8.83l-4.37-.26c-.27.26-.52.53-.78.81-2.92,3.22-5,8-4.6,15,1.11,20.78-12.7,24.14-25.18,28a12.7,12.7,0,0,0-7.52,5.57C29.42,53.16,29.25,53.49,29.09,53.82Z"/><path class="cls-6" d="M2.94,73.08c0,5.67,75.81,3.78,75.69,0C78.47,68.32,3,67.93,2.94,73.08Z"/></g></g></g></svg>