<svg xmlns="http://www.w3.org/2000/svg" viewBox="0 0 104.66 128.87"><defs><style>.cls-1{fill:#d4d4d4;}.cls-2{fill:#b0b0b0;}.cls-3{fill:#ffae95;}.cls-4{fill:#933227;}.cls-5{fill:#ff5e4b;}.cls-6{fill:#3e275c;}.cls-7{fill:#ff97a7;}.cls-8{fill:#331239;}.cls-9{fill:#8db4de;}.cls-10{fill:#a289e8;}.cls-11{fill:#9bcbe9;}.cls-12{fill:#b0d5ed;}.cls-13{fill:#c1ddf1;}.cls-14{fill:#e45d79;}.cls-15{fill:#533497;}.cls-16{fill:#fff;}.cls-17{fill:#ff9680;}.cls-18{fill:#ffcb37;}.cls-19{fill:#ffefd1;}.cls-20{fill:#e8d1b2;}</style></defs><g id="Capa_2" data-name="Capa 2"><g id="Header"><rect class="cls-1" x="98.1" y="71.89" width="3.24" height="55.99" transform="translate(199.45 199.78) rotate(-180)"/><rect class="cls-2" x="97.31" y="71.89" width="0.79" height="55.99" transform="translate(195.42 199.78) rotate(-180)"/><rect class="cls-1" x="75.49" y="71.89" width="3.24" height="55.99" transform="translate(154.23 199.78) rotate(-180)"/><rect class="cls-2" x="74.71" y="71.89" width="0.79" height="55.99" transform="translate(150.2 199.78) rotate(-180)"/><rect class="cls-2" x="75.1" y="124.99" width="23" height="2.9" transform="translate(173.2 252.87) rotate(-180)"/><polygon class="cls-3" points="57.28 91.22 34.69 91.22 24.95 54.59 47.02 54.59 57.28 91.22"/><polygon class="cls-1" points="33.87 127.83 32.31 127.83 32.23 92.95 33.8 92.95 33.87 127.83"/><polygon class="cls-2" points="34.65 127.83 33.87 127.83 33.8 92.95 34.58 92.95 34.65 127.83"/><polygon class="cls-1" points="52.47 127.83 50.91 127.83 50.66 93.84 52.23 93.84 52.47 127.83"/><polygon class="cls-2" points="53.25 127.83 52.47 127.83 52.23 93.84 53.01 93.84 53.25 127.83"/><rect class="cls-1" x="55.27" y="91.9" width="1.56" height="36.01"/><rect class="cls-2" x="56.83" y="91.9" width="0.78" height="36.01"/><rect class="cls-1" x="70.16" y="91.64" width="1.56" height="36.01"/><rect class="cls-2" x="71.73" y="91.64" width="0.78" height="36.01"/><rect class="cls-4" x="48.98" y="91.22" width="25.49" height="3.02"/><polygon class="cls-5" points="24.66 54.59 32.27 94.24 54.55 94.24 54.55 91.22 34.69 91.22 27.44 54.6 24.66 54.59"/><path class="cls-6" d="M72.7,127.91a6.61,6.61,0,0,0-2.26-1.24c.27.19.53.45.1.55a3.13,3.13,0,0,1-2.41-.58,3,3,0,0,0-.24,1.14C67.88,128.19,72.57,128.71,72.7,127.91Z"/><path class="cls-7" d="M70.54,127.22c.43-.1.17-.36-.1-.55-.56-.19-1-.34-1.14-.39a.67.67,0,0,1-.34-.39l-.28-.08s-.5.74-.55.83A3.13,3.13,0,0,0,70.54,127.22Z"/><path class="cls-6" d="M66.32,128.45c0-.23-1.34-.92-2.25-1.24.27.19.53.45.1.55a3.17,3.17,0,0,1-2.41-.57,2.87,2.87,0,0,0-.24,1.13C61.51,128.74,66.22,129.25,66.32,128.45Z"/><path class="cls-7" d="M64.17,127.76c.43-.1.17-.36-.1-.55-.56-.19-1-.34-1.14-.39a.67.67,0,0,1-.34-.39l-.28-.08s-.51.74-.55.84A3.17,3.17,0,0,0,64.17,127.76Z"/><path class="cls-6" d="M46.28,71.43c-1.48,5.63.8,5.21.33,11.21C46,90.9,69.68,91.71,69.68,91.71s-1.5,29.61-1.9,34.2l1.88.18s11.09-27.46,6.9-39.46c-2.29-6.58-18-9.72-18-9.72l-4.24-6.44A35.92,35.92,0,0,1,46.28,71.43Z"/><path class="cls-8" d="M36.35,71.25c-4,10.5-3.14,12.35-1.32,15.3,2.33,3.79,7.72,4.11,13,4.16,4.4,0,8.24.37,8.24.37S61,120.68,61,125.81c0,.75,1.79,2,1.93.19.39-4.89,1.17-19.78,3.05-35.87,1-8.63-17.63-11.07-17.63-11.07l-2.07-7.63S41.14,71.18,36.35,71.25Z"/><path class="cls-9" d="M75.72,64.22c-2.32-.41-13.46-1.29-13.46-1.29s-5,2.91-2.63,4.05c2.64,1.26,5.46,1.79,9.5,3.25s10.34-.83,10.34-.83S78,64.63,75.72,64.22Z"/><path class="cls-9" d="M63.15,64.29s-3.62-8.06-4.8-10.36a26.08,26.08,0,0,0-2.94-4.48c-1.14-1.08-2.77-1.83-5.8-1.83.37,2.7,8,16.19,9.23,18.55C60.17,68.77,63.15,64.29,63.15,64.29Z"/><path class="cls-6" d="M52.19,42.16a13.42,13.42,0,0,0-3.36-7.23c-1-1-3.22-2.28-4.31-.9a2.3,2.3,0,0,1-.35.1s0,0,0,0c-4.69-.89-8.13,3.77-10,7.41-2.33,4.57-3.75,10.21-8.42,13a.35.35,0,0,0-.13.47c4.76,6.43,14,8.2,21.26,5.56a.39.39,0,0,0,.17-.13.37.37,0,0,0,.46-.15C50.8,55.18,53.13,48.33,52.19,42.16Z"/><path class="cls-10" d="M46.32,33.48a6.08,6.08,0,0,1,2,1.31,9.15,9.15,0,0,1,1.49,1.8,14.64,14.64,0,0,1,1.1,2.07,10.06,10.06,0,0,1,.42,1.08,10.33,10.33,0,0,1,.33,1.12,18.51,18.51,0,0,1,.48,4.65A23.54,23.54,0,0,1,52,47.88c-.07.79-.19,1.58-.33,2.36a17.88,17.88,0,0,0,1-4.7,15.19,15.19,0,0,0-.35-4.84,12.55,12.55,0,0,0-2.08-4.4A7.06,7.06,0,0,0,46.32,33.48Z"/><path class="cls-11" d="M54.44,48.69c-.65,0-2.93-1.7-11.51-1.09-1.75.13-7.7,1-10.79,4.37-1.23,1.33,4.37,20.16,4.1,21.31,12.43,3.63,16.94.25,19.13-.5C55.64,71.5,54.44,48.69,54.44,48.69Z"/><path class="cls-12" d="M42.93,47.6l-.88.09C39.69,48,34.83,49,32.14,52c-1.23,1.33,4.37,20.16,4.1,21.31A36.66,36.66,0,0,0,46,74.93l1.08,0s-5.48-10-6-13.65C40.63,57.85,42.93,47.6,42.93,47.6Z"/><path class="cls-13" d="M34.72,50a6.37,6.37,0,0,0-3.83,6.28c0,4.25,1.39,12.18,5.38,15.3,2.94,2.3,2.21-6.55,2.21-6.55s-1.69-.8-2.44-5.91C35.86,57.86,37.13,52,34.72,50Z"/><path class="cls-7" d="M45.43,43.68a26.55,26.55,0,0,1,.24,4.22c-.19.43-.91,1-1.34.05s0-4.27,0-4.27Z"/><path class="cls-14" d="M45.69,46.45a1.31,1.31,0,0,1-1.56.15c0-.69,0-1.47.08-2.05h1.31C45.58,45.1,45.64,45.81,45.69,46.45Z"/><path class="cls-7" d="M42.9,43.63a7.1,7.1,0,0,1-.23-2,2.08,2.08,0,0,1,2.16-2.12,1.2,1.2,0,0,0,.55,0,5.53,5.53,0,0,1,2,.43c.63.38.68,1.27.73,1.93a4.71,4.71,0,0,1-.47,2.42,3,3,0,0,1-2,1C43.86,45.33,43.33,44.88,42.9,43.63Z"/><path class="cls-6" d="M42.84,43.94h0l-.19-2.45h0a1.22,1.22,0,0,0-1.12,1.32h0A1.21,1.21,0,0,0,42.84,43.94Z"/><path class="cls-6" d="M48.42,42.2s-3.94-.3-5.65-2.2,3.61-3.34,3.61-3.34S49.42,39.15,48.42,42.2Z"/><path class="cls-6" d="M47.86,44.15h0l.21-2.44h0A1.21,1.21,0,0,1,49.18,43h0A1.21,1.21,0,0,1,47.86,44.15Z"/><path class="cls-6" d="M48.88,42.05s.22-3.33-3-3.72a3.42,3.42,0,0,0-2.79.7A3.59,3.59,0,0,0,42,41.62h.66a2.9,2.9,0,0,1,.87-2.1A2.82,2.82,0,0,1,45.84,39a2.73,2.73,0,0,1,2.38,3Z"/><rect class="cls-1" x="28.42" y="71.89" width="3.24" height="55.99" transform="translate(60.09 199.78) rotate(-180)"/><rect class="cls-2" x="27.64" y="71.89" width="0.79" height="55.99" transform="translate(56.06 199.78) rotate(-180)"/><rect class="cls-1" x="5.82" y="71.89" width="3.24" height="55.99" transform="translate(14.88 199.78) rotate(-180)"/><rect class="cls-2" x="5.03" y="71.89" width="0.79" height="55.99" transform="translate(10.84 199.78) rotate(-180)"/><rect class="cls-2" x="5.42" y="124.99" width="23" height="2.9" transform="translate(33.85 252.87) rotate(-180)"/><path class="cls-7" d="M56.67,66.47h0a9.24,9.24,0,0,1,2.48.22s0,0,0,0h.56l.72,0c.21,0,.29.24.45.44a1.11,1.11,0,0,1,.24.63c-.16.14-.69-.61-.74-.63a3.16,3.16,0,0,1-.43,0l.38.28c.18.13.71,1.14.45,1.3,0,0-.86.24-2.65-.85a9.15,9.15,0,0,0-.95-.34,1.42,1.42,0,0,1-.69-.29l0,0s0,0,0,0A1.6,1.6,0,0,1,56.67,66.47Z"/><path class="cls-13" d="M36,70.88c2.94,2.3,19.34,2.57,21.06-2.8a2.79,2.79,0,0,0-.38-2.94L38.3,64.85S32,67.76,36,70.88Z"/><path class="cls-8" d="M59.51,61,64.6,37.32a1.19,1.19,0,0,1,1.16-.94h.63L60.66,62.44h0A1.19,1.19,0,0,1,59.51,61Z"/><polygon class="cls-15" points="60.55 62.44 94.67 61.54 99.95 36.44 66.39 36.38 60.55 62.44"/><path class="cls-8" d="M70.75,69.06H82V67.61H72.2a1.45,1.45,0,0,0-1.45,1.45Z"/><polygon class="cls-8" points="78.64 68.88 76.51 53.78 74.85 53.78 76.86 68.76 78.64 68.88"/><polygon class="cls-15" points="83.79 53.91 76.5 53.91 78.63 69.06 85.81 69.06 83.79 53.91"/><path class="cls-16" d="M78.75,46.51a1.71,1.71,0,0,0,1.73,2,2.25,2.25,0,0,0,2.18-2,1.7,1.7,0,0,0-1.72-1.95A2.26,2.26,0,0,0,78.75,46.51Z"/><rect class="cls-17" y="68.98" width="83.09" height="3.5" transform="translate(83.09 141.46) rotate(-180)"/><rect class="cls-3" x="21.57" y="68.98" width="83.09" height="3.5" transform="translate(126.23 141.46) rotate(-180)"/><path class="cls-18" d="M50.15,9c.22-4.75,3.8-8.45,8-8.27s7.43,4.2,7.21,9A9,9,0,0,1,62,16.44a7.26,7.26,0,0,0-.37.85,8.68,8.68,0,0,1-.9,2.25,3.89,3.89,0,0,1-3.33,1.38l-.26,0h-.44c-.93-.08-2.36-.44-2.88-1.42a2.4,2.4,0,0,1-.22-.7,5.12,5.12,0,0,1-.22-.47A10.33,10.33,0,0,1,52.83,16,9,9,0,0,1,50.15,9Z"/><circle class="cls-18" cx="57.76" cy="8.86" r="8.86"/><path class="cls-19" d="M56.41,13.07c-.3,2.27-.66,4.79.09,7a.2.2,0,0,0,.39-.11,19.54,19.54,0,0,1-.13-6.06c.1-.85.28-1.77.4-2.69a3.16,3.16,0,0,0,.52.17,18.3,18.3,0,0,0-.27,8.91c0,.11.21.08.2,0a25.77,25.77,0,0,1,.21-8.08c.06-.25.12-.5.19-.76a2.49,2.49,0,0,0,2.62-2c.12-.61-.06-1.37-.85-1.11-1,.35-1.65,1.65-2,2.58a.74.74,0,0,0,0,.14,2.35,2.35,0,0,1-.57-.23,8.82,8.82,0,0,0,0-2.05C57.17,8.18,56.63,7.4,56,8s-.24,1.82.2,2.42a2.38,2.38,0,0,0,.49.51C56.61,11.65,56.5,12.36,56.41,13.07Zm1.71-2a4.59,4.59,0,0,1,1.12-1.93c.39-.38.94-.61,1,.09a1.36,1.36,0,0,1-.32.85A2.16,2.16,0,0,1,58.12,11.09Zm-1.37-.61a2.13,2.13,0,0,1-.37-.47c-.07-.13-.42-.89-.29-1.08l.73-.25a3.27,3.27,0,0,1,0,.7C56.82,9.74,56.79,10.11,56.75,10.48Z"/><path class="cls-20" d="M52.89,20.88a1.12,1.12,0,0,1,.72-1.07.91.91,0,0,1,.67,0,.84.84,0,0,1,.59,0,11.91,11.91,0,0,0,3,.44c.63-.09,1.25-.21,1.87-.31s1.13-.28,1.47.18a.58.58,0,0,1,.12.52,1.47,1.47,0,0,1,.09,1,1.67,1.67,0,0,1-.82,1,1,1,0,0,1,.25,1,1.44,1.44,0,0,1-.83.88,2.14,2.14,0,0,1-.65.25c.1,2.18-6,1.43-5.45-.56a.58.58,0,0,1,0-.14,2.22,2.22,0,0,1-.81-.87,1.09,1.09,0,0,1,.18-1.24A1.49,1.49,0,0,1,52.89,20.88Z"/></g></g></svg>