<svg xmlns="http://www.w3.org/2000/svg" viewBox="0 0 80 80"><defs><style>.cls-1{fill:#406eb3;}.cls-2{fill:#767579;}.cls-3{fill:none;}</style></defs><g id="Capa_2" data-name="Capa 2"><g id="Header"><path class="cls-1" d="M40,48.56a6.83,6.83,0,1,1,6.83-6.83A6.83,6.83,0,0,1,40,48.56ZM40,35.9a5.83,5.83,0,1,0,5.83,5.83A5.83,5.83,0,0,0,40,35.9Z"/><path class="cls-1" d="M43.17,42.23H40a.5.5,0,0,1-.5-.5V37.62a.5.5,0,0,1,1,0v3.61h2.67a.5.5,0,0,1,0,1Z"/><path class="cls-2" d="M47.94,24.29H32.06a1.71,1.71,0,0,1-1.71-1.7V18.05a1.71,1.71,0,0,1,1.71-1.7h4a.58.58,0,0,0,.49-.28,3.93,3.93,0,0,1,6.84,0,.58.58,0,0,0,.49.28h4a1.71,1.71,0,0,1,1.71,1.7v4.54A1.71,1.71,0,0,1,47.94,24.29ZM32.06,17.35a.7.7,0,0,0-.71.7v4.53a.71.71,0,0,0,.71.71H47.94a.7.7,0,0,0,.71-.7V18.05a.7.7,0,0,0-.71-.7h-4a1.56,1.56,0,0,1-1.35-.78,2.94,2.94,0,0,0-5.12,0,1.56,1.56,0,0,1-1.35.78Z"/><path class="cls-2" d="M54.76,65.92H25.24a3.72,3.72,0,0,1-3.71-3.71V21.62a3.72,3.72,0,0,1,3.71-3.71H31a.51.51,0,0,1,.5.5.5.5,0,0,1-.5.5H25.24a2.72,2.72,0,0,0-2.71,2.71V62.21a2.71,2.71,0,0,0,2.71,2.71H54.76a2.71,2.71,0,0,0,2.71-2.71V21.62a2.72,2.72,0,0,0-2.71-2.71h-5.5a.5.5,0,0,1-.5-.5.5.5,0,0,1,.5-.5h5.5a3.72,3.72,0,0,1,3.71,3.71V62.21A3.72,3.72,0,0,1,54.76,65.92Z"/><path class="cls-2" d="M53.22,62.37H26.78A1.77,1.77,0,0,1,25,60.61V23.23a1.78,1.78,0,0,1,1.77-1.77H31a.51.51,0,0,1,.5.5.5.5,0,0,1-.5.5H26.78a.78.78,0,0,0-.77.77V60.61a.77.77,0,0,0,.77.76H53.22a.77.77,0,0,0,.77-.76V23.23a.78.78,0,0,0-.77-.77h-4a.5.5,0,0,1-.5-.5.5.5,0,0,1,.5-.5h4A1.78,1.78,0,0,1,55,23.23V60.61A1.77,1.77,0,0,1,53.22,62.37Z"/><path class="cls-2" d="M40,21.21a1.66,1.66,0,1,1,1.66-1.66A1.66,1.66,0,0,1,40,21.21Zm0-2.32a.66.66,0,1,0,.66.66A.65.65,0,0,0,40,18.89Z"/><rect class="cls-3" width="80" height="80"/></g></g></svg>