<svg xmlns="http://www.w3.org/2000/svg" viewBox="0 0 80 80"><defs><style>.cls-1{fill:none;}.cls-2{fill:#406eb3;}.cls-3{fill:#767579;}</style></defs><g id="Capa_2" data-name="Capa 2"><g id="Header"><rect class="cls-1" width="80" height="80"/><rect class="cls-2" x="33.64" y="23.37" width="12.72" height="1"/><path class="cls-2" d="M58.89,23.37H49.11v1h9.78a1.83,1.83,0,0,1,1.83,1.82V58a1.83,1.83,0,0,1-1.83,1.83H21.11A1.83,1.83,0,0,1,19.28,58V26.19a1.83,1.83,0,0,1,1.83-1.82h9.78v-1H21.11a2.83,2.83,0,0,0-2.83,2.82V58a2.83,2.83,0,0,0,2.83,2.83H58.89A2.83,2.83,0,0,0,61.72,58V26.19A2.83,2.83,0,0,0,58.89,23.37Z"/><path class="cls-3" d="M47.74,27.82A1.88,1.88,0,0,1,45.86,26V22.61a1.88,1.88,0,0,1,3.75,0V26A1.87,1.87,0,0,1,47.74,27.82Zm0-6.08a.87.87,0,0,0-.88.87V26a.88.88,0,0,0,1.75,0V22.61A.87.87,0,0,0,47.74,21.74Z"/><path class="cls-3" d="M32.26,27.82A1.87,1.87,0,0,1,30.39,26V22.61a1.88,1.88,0,0,1,3.75,0V26A1.88,1.88,0,0,1,32.26,27.82Zm0-6.08a.87.87,0,0,0-.87.87V26a.88.88,0,0,0,1.75,0V22.61A.87.87,0,0,0,32.26,21.74Z"/><path class="cls-3" d="M30.91,43.06H24.82a.5.5,0,0,1-.5-.5V38.25a.5.5,0,0,1,.5-.5h6.09a.5.5,0,0,1,.5.5v4.31A.5.5,0,0,1,30.91,43.06Zm-5.59-1h5.09V38.75H25.32Z"/><path class="cls-3" d="M30.91,49.67H24.82a.51.51,0,0,1-.5-.5V44.85a.51.51,0,0,1,.5-.5h6.09a.5.5,0,0,1,.5.5v4.32A.5.5,0,0,1,30.91,49.67Zm-5.59-1h5.09V45.35H25.32Z"/><path class="cls-3" d="M30.91,56.27H24.82a.5.5,0,0,1-.5-.5V51.46a.5.5,0,0,1,.5-.5h6.09a.5.5,0,0,1,.5.5v4.31A.5.5,0,0,1,30.91,56.27Zm-5.59-1h5.09V52H25.32Z"/><path class="cls-3" d="M39,43.06H32.91a.5.5,0,0,1-.5-.5V38.25a.5.5,0,0,1,.5-.5H39a.5.5,0,0,1,.5.5v4.31A.5.5,0,0,1,39,43.06Zm-5.59-1H38.5V38.75H33.41Z"/><path class="cls-3" d="M39,49.67H32.91a.5.5,0,0,1-.5-.5V44.85a.5.5,0,0,1,.5-.5H39a.5.5,0,0,1,.5.5v4.32A.5.5,0,0,1,39,49.67Zm-5.59-1H38.5V45.35H33.41Z"/><path class="cls-3" d="M39,56.27H32.91a.5.5,0,0,1-.5-.5V51.46a.5.5,0,0,1,.5-.5H39a.5.5,0,0,1,.5.5v4.31A.5.5,0,0,1,39,56.27Zm-5.59-1H38.5V52H33.41Z"/><path class="cls-3" d="M47.09,43.06H41a.5.5,0,0,1-.5-.5V38.25a.5.5,0,0,1,.5-.5h6.09a.5.5,0,0,1,.5.5v4.31A.5.5,0,0,1,47.09,43.06Zm-5.59-1h5.09V38.75H41.5Z"/><path class="cls-3" d="M47.09,49.67H41a.5.5,0,0,1-.5-.5V44.85a.5.5,0,0,1,.5-.5h6.09a.5.5,0,0,1,.5.5v4.32A.5.5,0,0,1,47.09,49.67Zm-5.59-1h5.09V45.35H41.5Z"/><path class="cls-3" d="M47.09,56.27H41a.5.5,0,0,1-.5-.5V51.46A.5.5,0,0,1,41,51h6.09a.5.5,0,0,1,.5.5v4.31A.5.5,0,0,1,47.09,56.27Zm-5.59-1h5.09V52H41.5Z"/><path class="cls-3" d="M55.18,43.06H49.09a.5.5,0,0,1-.5-.5V38.25a.5.5,0,0,1,.5-.5h6.09a.5.5,0,0,1,.5.5v4.31A.5.5,0,0,1,55.18,43.06Zm-5.59-1h5.09V38.75H49.59Z"/><path class="cls-3" d="M55.18,49.67H49.09a.5.5,0,0,1-.5-.5V44.85a.5.5,0,0,1,.5-.5h6.09a.51.51,0,0,1,.5.5v4.32A.51.51,0,0,1,55.18,49.67Zm-5.59-1h5.09V45.35H49.59Z"/><path class="cls-2" d="M55.18,36.06H24.82a.5.5,0,0,1-.5-.5V29.72a.51.51,0,0,1,.5-.5H55.18a.51.51,0,0,1,.5.5v5.84A.5.5,0,0,1,55.18,36.06Zm-29.86-1H54.68V30.22H25.32Z"/></g></g></svg>