<svg xmlns="http://www.w3.org/2000/svg" viewBox="0 0 80 80"><defs><style>.cls-1{fill:none;}.cls-2{fill:#767579;}.cls-3{fill:#406eb3;}</style></defs><g id="Capa_2" data-name="Capa 2"><g id="Header"><rect class="cls-1" width="80" height="80"/><path class="cls-2" d="M56,65.66H24a2.5,2.5,0,0,1-2.5-2.5V22a2.51,2.51,0,0,1,2.5-2.5H56a2.51,2.51,0,0,1,2.5,2.5V63.16A2.5,2.5,0,0,1,56,65.66ZM24,20.45a1.51,1.51,0,0,0-1.5,1.5V63.16a1.5,1.5,0,0,0,1.5,1.5H56a1.5,1.5,0,0,0,1.5-1.5V22a1.51,1.51,0,0,0-1.5-1.5Z"/><path class="cls-2" d="M52.74,61.31H27.26a.5.5,0,0,1-.5-.5V36a.5.5,0,0,1,.5-.5H42.5a.5.5,0,0,1,0,1H27.76V60.31H52.24V24.81H34.34a.51.51,0,0,1-.5-.5.5.5,0,0,1,.5-.5h18.4a.5.5,0,0,1,.5.5v36.5A.5.5,0,0,1,52.74,61.31Z"/><path class="cls-3" d="M29.16,32.48a2.41,2.41,0,0,1-2.4-2.4V18.38a4,4,0,0,1,8.08,0V20a.5.5,0,0,1-.5.5.5.5,0,0,1-.5-.5V18.38a3,3,0,0,0-6.08,0v11.7a1.4,1.4,0,0,0,2.8,0V22.7a.51.51,0,0,1,.5-.5.5.5,0,0,1,.5.5v7.38A2.4,2.4,0,0,1,29.16,32.48Z"/><path class="cls-3" d="M44,45.46H30.8a.5.5,0,0,1-.5-.5.51.51,0,0,1,.5-.5H44a.5.5,0,0,1,.5.5A.5.5,0,0,1,44,45.46Z"/><path class="cls-3" d="M40.27,48.51H30.8a.5.5,0,0,1-.5-.5.51.51,0,0,1,.5-.5h9.47a.51.51,0,0,1,.5.5A.5.5,0,0,1,40.27,48.51Z"/></g></g></svg>