<svg xmlns="http://www.w3.org/2000/svg" viewBox="0 0 20 225.13"><defs><style>.cls-1{fill:#cecece;}</style></defs><g id="Capa_2" data-name="Capa 2"><g id="Header"><path class="cls-1" d="M7,139.82a.68.68,0,0,0-.57.26A3.22,3.22,0,0,0,6,141a7.3,7.3,0,0,1-.43,1.08A1.76,1.76,0,0,1,4,143.16a1.52,1.52,0,0,1-.91-.29,1.86,1.86,0,0,1-.63-.83,3.11,3.11,0,0,1-.22-1.21,2.86,2.86,0,0,1,.24-1.2,1.85,1.85,0,0,1,1.71-1.12v1.3a.87.87,0,0,0-.68.28,1.1,1.1,0,0,0-.24.76,1.26,1.26,0,0,0,.2.75.65.65,0,0,0,.53.26.6.6,0,0,0,.52-.31,3.47,3.47,0,0,0,.39-.91A3.93,3.93,0,0,1,5.75,139,1.64,1.64,0,0,1,7,138.51a1.51,1.51,0,0,1,1.28.62,2.67,2.67,0,0,1,.47,1.67,3.19,3.19,0,0,1-.27,1.33,2,2,0,0,1-.73.91,1.85,1.85,0,0,1-1.07.32v-1.31c.7,0,1-.42,1-1.25a1.16,1.16,0,0,0-.19-.72A.61.61,0,0,0,7,139.82Z"/><path class="cls-1" d="M2.33,132.63H6.49a2.14,2.14,0,0,1,1.64.65,2.5,2.5,0,0,1,.6,1.77,2.53,2.53,0,0,1-.58,1.76,2.11,2.11,0,0,1-1.61.66H2.33v-1.3H6.5a1.19,1.19,0,0,0,.9-.3,1.12,1.12,0,0,0,.29-.82c0-.73-.39-1.1-1.16-1.11H2.33Z"/><path class="cls-1" d="M6.42,130H8.64v1.31H2.33v-2.47a2.91,2.91,0,0,1,.26-1.25,2,2,0,0,1,.74-.83,2.09,2.09,0,0,1,1.09-.29,1.78,1.78,0,0,1,1.46.64,2.62,2.62,0,0,1,.54,1.75Zm-1,0v-1.16a1.09,1.09,0,0,0-.25-.78.87.87,0,0,0-.69-.27,1,1,0,0,0-.75.27,1,1,0,0,0-.29.75V130Z"/><path class="cls-1" d="M5.91,121.6v2.5H7.6v-2.93h1v4.23H2.33v-4.23H3.39v2.93h1.5v-2.5Z"/><path class="cls-1" d="M6.33,117.84v1H8.64v1.3H2.33v-2.34a2.66,2.66,0,0,1,.5-1.73,1.73,1.73,0,0,1,1.41-.61,2,2,0,0,1,1.08.28,2,2,0,0,1,.68.85l2.58-1.37h.06v1.4Zm-1,1v-1a1.06,1.06,0,0,0-.25-.76.89.89,0,0,0-.69-.27,1,1,0,0,0-.7.26,1.06,1.06,0,0,0-.25.78v1Z"/><path class="cls-1" d="M8.64,112.91v1.3H2.33v-1.3Z"/><path class="cls-1" d="M8.64,106.35v1.3l-4.15,2.53H8.64v1.3H2.33v-1.3l4.16-2.53H2.33v-1.3Z"/><path class="cls-1" d="M3.39,100.24v1.93H8.64v1.3H3.39v1.91H2.33v-5.14Z"/><path class="cls-1" d="M5.91,95.48V98H7.6V95.05h1v4.23H2.33V95.05H3.39V98h1.5v-2.5Z"/><path class="cls-1" d="M8.64,88.93v1.3L4.49,92.76H8.64v1.3H2.33v-1.3l4.16-2.54H2.33V88.93Z"/><path class="cls-1" d="M8.64,87.57H2.33V85.63a3,3,0,0,1,.38-1.49,2.63,2.63,0,0,1,1.06-1,3.38,3.38,0,0,1,1.58-.36h.29a3.32,3.32,0,0,1,1.56.36,2.54,2.54,0,0,1,1.06,1,3,3,0,0,1,.38,1.49Zm-5.25-1.3H7.6v-.63a1.39,1.39,0,0,0-.5-1.16,2.28,2.28,0,0,0-1.43-.42H5.34a2.33,2.33,0,0,0-1.46.4,1.42,1.42,0,0,0-.49,1.17Z"/><path class="cls-1" d="M5.91,77.78v2.5H7.6V77.35h1v4.23H2.33V77.36H3.39v2.92h1.5v-2.5Z"/><path class="cls-1" d="M8.64,71.23v1.3L4.49,75.06H8.64v1.3H2.33v-1.3l4.16-2.53H2.33v-1.3Z"/><path class="cls-1" d="M6.54,64.92a2.26,2.26,0,0,1,1.61.75,2.64,2.64,0,0,1,.58,1.79,2.37,2.37,0,0,1-.82,1.91,3.35,3.35,0,0,1-2.24.69H5.28a3.69,3.69,0,0,1-1.6-.32,2.34,2.34,0,0,1-1.06-.92,2.5,2.5,0,0,1-.37-1.38,2.58,2.58,0,0,1,.58-1.76,2.43,2.43,0,0,1,1.64-.77v1.3a1.28,1.28,0,0,0-.88.34,1.22,1.22,0,0,0-.28.89,1.1,1.1,0,0,0,.47,1,2.51,2.51,0,0,0,1.44.33H5.7a2.91,2.91,0,0,0,1.5-.3,1.11,1.11,0,0,0,.47-1,1.26,1.26,0,0,0-.28-.9,1.22,1.22,0,0,0-.85-.34Z"/><path class="cls-1" d="M8.64,62.46v1.3H2.33v-1.3Z"/><path class="cls-1" d="M7.34,57.47v2.28l1.3.43v1.38L2.33,59.22V58l6.31-2.36V57Zm-1,1.93V57.82l-2.36.79Z"/><path class="cls-1" d="M6.06,48.6v2.5H8.64v1.3H2.33V48.29H3.39V51.1H5V48.6Z"/><path class="cls-1" d="M8.64,45.93v1.3H2.33v-1.3Z"/><path class="cls-1" d="M8.64,39.37v1.3L4.49,43.21H8.64v1.3H2.33v-1.3l4.16-2.54H2.33v-1.3Z"/><path class="cls-1" d="M7.34,34.45v2.28l1.3.44v1.38L2.33,36.2V35l6.31-2.36V34Zm-1,1.93V34.8l-2.36.8Z"/><path class="cls-1" d="M8.64,26.69V28L4.49,30.52H8.64v1.3H2.33v-1.3L6.49,28H2.33V26.69Z"/><path class="cls-1" d="M6.54,20.37a2.23,2.23,0,0,1,1.61.76,2.61,2.61,0,0,1,.58,1.78,2.36,2.36,0,0,1-.82,1.91,3.3,3.3,0,0,1-2.24.7H5.28a3.84,3.84,0,0,1-1.6-.32,2.34,2.34,0,0,1-1.06-.92,2.52,2.52,0,0,1-.37-1.38,2.56,2.56,0,0,1,.58-1.76,2.38,2.38,0,0,1,1.64-.77v1.3a1.28,1.28,0,0,0-.88.34,1.22,1.22,0,0,0-.28.89,1.1,1.1,0,0,0,.47,1,2.51,2.51,0,0,0,1.44.33H5.7a2.8,2.8,0,0,0,1.5-.31,1.09,1.09,0,0,0,.47-1A1.22,1.22,0,0,0,7.39,22a1.17,1.17,0,0,0-.85-.34Z"/><path class="cls-1" d="M8.64,17.92v1.3H2.33v-1.3Z"/><path class="cls-1" d="M5.91,12.69v2.5H7.6V12.26h1v4.23H2.33V12.27H3.39v2.92h1.5v-2.5Z"/><path class="cls-1" d="M6.33,8.94v1H8.64v1.3H2.33V8.93a2.68,2.68,0,0,1,.5-1.73,1.73,1.73,0,0,1,1.41-.61,2,2,0,0,1,1.08.28A2,2,0,0,1,6,7.72L8.58,6.36h.06V7.75Zm-1,1V8.92A1.07,1.07,0,0,0,5,8.16a.88.88,0,0,0-.69-.26,1,1,0,0,0-.7.25,1.06,1.06,0,0,0-.25.78v1Z"/><path class="cls-1" d="M7.34,1.82V4.1l1.3.43V5.92L2.33,3.57V2.36L8.64,0V1.38Zm-1,1.93V2.17L3.93,3Z"/><path class="cls-1" d="M17.08,101.15H10.77V99.21a2.94,2.94,0,0,1,.37-1.49,2.66,2.66,0,0,1,1.07-1,3.33,3.33,0,0,1,1.57-.36h.29a3.33,3.33,0,0,1,1.57.36,2.6,2.6,0,0,1,1.06,1,3,3,0,0,1,.38,1.49Zm-5.26-1.3H16v-.63a1.39,1.39,0,0,0-.49-1.16,2.3,2.3,0,0,0-1.43-.42h-.33a2.31,2.31,0,0,0-1.46.4,1.43,1.43,0,0,0-.5,1.17Z"/><path class="cls-1" d="M14.34,91.36v2.5H16V90.93h1v4.23H10.77V90.94h1.05v2.92h1.5v-2.5Z"/><path class="cls-1" d="M15,82.55a2.2,2.2,0,0,1,1.6.76,2.63,2.63,0,0,1,.59,1.79,2.38,2.38,0,0,1-.82,1.9,3.33,3.33,0,0,1-2.25.7h-.38a3.81,3.81,0,0,1-1.6-.32,2.36,2.36,0,0,1-1.07-.92,2.52,2.52,0,0,1-.37-1.38,2.56,2.56,0,0,1,.59-1.76,2.36,2.36,0,0,1,1.64-.77v1.3a1.3,1.3,0,0,0-.89.34,1.26,1.26,0,0,0-.27.89,1.09,1.09,0,0,0,.46,1,2.55,2.55,0,0,0,1.45.33h.48a2.74,2.74,0,0,0,1.49-.31,1.06,1.06,0,0,0,.47-1,1.27,1.27,0,0,0-.27-.9,1.21,1.21,0,0,0-.85-.34Z"/><path class="cls-1" d="M14.07,76.29a3.8,3.8,0,0,1,1.63.33,2.45,2.45,0,0,1,1.08.95,2.52,2.52,0,0,1,.39,1.4,2.62,2.62,0,0,1-.38,1.4,2.53,2.53,0,0,1-1.08,1,3.74,3.74,0,0,1-1.61.34h-.31a3.7,3.7,0,0,1-1.64-.34,2.47,2.47,0,0,1-1.09-1,2.6,2.6,0,0,1-.38-1.4,2.65,2.65,0,0,1,.38-1.4,2.47,2.47,0,0,1,1.09-1,3.83,3.83,0,0,1,1.63-.34Zm-.29,1.32a2.65,2.65,0,0,0-1.51.36,1.15,1.15,0,0,0-.51,1,1.17,1.17,0,0,0,.5,1,2.59,2.59,0,0,0,1.5.36h.31a2.77,2.77,0,0,0,1.5-.35,1.17,1.17,0,0,0,.53-1,1.14,1.14,0,0,0-.51-1,2.64,2.64,0,0,0-1.5-.36Z"/><path class="cls-1" d="M16,73.83V71.06h1v4.07H10.77v-1.3Z"/><path class="cls-1" d="M14.07,65.19a3.8,3.8,0,0,1,1.63.33,2.43,2.43,0,0,1,1.08.94,2.58,2.58,0,0,1,.39,1.41,2.65,2.65,0,0,1-.38,1.4,2.45,2.45,0,0,1-1.08,1,3.74,3.74,0,0,1-1.61.35h-.31a3.84,3.84,0,0,1-1.64-.34,2.47,2.47,0,0,1-1.09-1,2.65,2.65,0,0,1-.38-1.4,2.6,2.6,0,0,1,.38-1.4,2.47,2.47,0,0,1,1.09-1,3.68,3.68,0,0,1,1.63-.34Zm-.29,1.32a2.74,2.74,0,0,0-1.51.35,1.27,1.27,0,0,0,0,2,2.76,2.76,0,0,0,1.5.36h.31a2.68,2.68,0,0,0,1.5-.36,1.25,1.25,0,0,0,0-2,2.73,2.73,0,0,0-1.5-.35Z"/><path class="cls-1" d="M10.77,62.32l4.57-1.62-4.57-1.61V57.38h6.31v1.31H15.35l-3-.13,4.7,1.7v.89l-4.7,1.7,3-.13h1.73V64H10.77Z"/><path class="cls-1" d="M17.08,56H10.77V53.81a2.87,2.87,0,0,1,.44-1.74,1.48,1.48,0,0,1,1.29-.59,1.45,1.45,0,0,1,.81.23,1.35,1.35,0,0,1,.52.67,1.36,1.36,0,0,1,.49-.77,1.51,1.51,0,0,1,.9-.28,1.68,1.68,0,0,1,1.38.58,2.67,2.67,0,0,1,.48,1.66Zm-3.67-1.3v-1c0-.66-.27-1-.78-1A.71.71,0,0,0,12,53a1.24,1.24,0,0,0-.19.78v.91Zm.92,0H16V53.61a1.1,1.1,0,0,0-.21-.72.77.77,0,0,0-.61-.26c-.58,0-.87.3-.88.9Z"/><path class="cls-1" d="M17.08,48.75v1.3H10.77v-1.3Z"/><path class="cls-1" d="M15.78,43.76V46l1.3.44v1.38l-6.31-2.35V44.3l6.31-2.36v1.38Zm-1.06,1.93V44.11l-2.36.8Z"/><path class="cls-1" d="M13.09,218.78l-8-2.4V214l10.58,3.68v2.28L5.13,223.59v-2.42Z"/><path class="cls-1" d="M15.71,210.27v2.18H5.13v-2.18Z"/><path class="cls-1" d="M14.37,199.51a3.75,3.75,0,0,1,1.1,1.66,7,7,0,0,1,.39,2.38,4.71,4.71,0,0,1-.6,2.41,4,4,0,0,1-1.74,1.6,6.08,6.08,0,0,1-2.68.58h-.72a6.65,6.65,0,0,1-2.75-.53,4,4,0,0,1-1.77-1.55,5.1,5.1,0,0,1,.28-5.3,3.87,3.87,0,0,1,2.62-1.25v2.12a2.07,2.07,0,0,0-1.33.64,2,2,0,0,0-.43,1.37,1.92,1.92,0,0,0,.84,1.69,4.36,4.36,0,0,0,2.49.59h.67a4.22,4.22,0,0,0,2.52-.63,2.18,2.18,0,0,0,.85-1.85,2.39,2.39,0,0,0-.53-1.75H11.76v2H10.15v-4.16Z"/><path class="cls-1" d="M15.71,195.05v2.18H5.13v-2.18Z"/><path class="cls-1" d="M14,190.48v-4.63h1.75v6.81H5.13v-2.18Z"/><path class="cls-1" d="M13.53,178.11v3.83l2.18.72V185L5.13,181v-2l10.58-4v2.32Zm-1.76,3.24V178.7l-4,1.33Z"/><path class="cls-1" d="M15.71,173.7H5.13v-3.26A4.9,4.9,0,0,1,5.76,168a4.31,4.31,0,0,1,1.79-1.72,5.52,5.52,0,0,1,2.63-.62h.49a5.45,5.45,0,0,1,2.62.61,4.26,4.26,0,0,1,1.78,1.71,5,5,0,0,1,.64,2.49ZM6.9,171.52H14v-1.05a2.36,2.36,0,0,0-.84-2,3.76,3.76,0,0,0-2.39-.69h-.56a3.8,3.8,0,0,0-2.44.67,2.35,2.35,0,0,0-.83,1.95Z"/><path class="cls-1" d="M10.66,155a6.35,6.35,0,0,1,2.74.56,4.08,4.08,0,0,1,1.82,1.58,4.67,4.67,0,0,1,0,4.7,4.28,4.28,0,0,1-1.81,1.6,6.23,6.23,0,0,1-2.7.58H10.2a6.25,6.25,0,0,1-2.75-.57,4.13,4.13,0,0,1-1.83-1.59,4.7,4.7,0,0,1,0-4.7,4.13,4.13,0,0,1,1.83-1.59,6.24,6.24,0,0,1,2.74-.57Zm-.48,2.21a4.44,4.44,0,0,0-2.53.6,2,2,0,0,0-.86,1.7,1.93,1.93,0,0,0,.85,1.69,4.44,4.44,0,0,0,2.51.61h.51a4.51,4.51,0,0,0,2.52-.6,2,2,0,0,0,.89-1.72,1.92,1.92,0,0,0-.86-1.68,4.55,4.55,0,0,0-2.51-.6Z"/><rect class="cls-1" y="152.46" width="1.58" height="72.67"/><rect class="cls-1" x="18.42" y="152.46" width="1.58" height="72.67"/></g></g></svg>