<?xml version="1.0" encoding="utf-8"?>
<!-- Generator: Adobe Illustrator 23.1.0, SVG Export Plug-In . SVG Version: 6.00 Build 0)  -->
<svg version="1.1" id="Capa_1" xmlns="http://www.w3.org/2000/svg" xmlns:xlink="http://www.w3.org/1999/xlink" x="0px" y="0px"
	 viewBox="0 0 524.8 363.3" style="enable-background:new 0 0 524.8 363.3;" xml:space="preserve">
<style type="text/css">
	.st0{fill:#EAEAEA;}
	.st1{fill:#D5EAF5;}
	.st2{fill:#A3BED1;}
	.st3{fill:#C9E0F2;}
	.st4{fill:#E0E0E0;}
	.st5{fill:#30193B;}
	.st6{fill:#3B2B5B;}
	.st7{fill:#7F65C1;}
	.st8{fill:#BFEAF5;}
	.st9{fill:#82CBEA;}
	.st10{fill:#FF97A6;}
	.st11{fill:#C95D77;}
	.st12{fill:#FFCB48;}
	.st13{fill:#FF9A2E;}
	.st14{fill:#FFFFFF;}
</style>
<title>IMG</title>
<g>
	<g>
		<g id="Contenido">
			<path class="st0" d="M524.5,75.4H524c0.1-0.1,0.1-0.2,0.1-0.3c0-4.6-3.7-8.3-8.3-8.3c0,0-0.1,0-0.1,0c-0.3-3.4-1-7.4-4.1-9.2
				c-2-1.3-4.6-1.1-6.5,0.3c-0.4-4.5-1-9.1-3.9-12.6c-2.6-3.3-7-4.6-11-3.3c-9.1,2.9-10.6,13-12.3,21.4c-1.3-6.4-7.6-10.6-14-9.3
				c-2.8,0.6-5.2,2.1-7,4.3c-0.6-2.7-2.4-5.3-5.2-5.6c-1.9-0.2-3.8,0.6-4.9,2.2c-0.5-6,0.2-12.1-1.9-17.8c-1.6-4.3-4.8-8.6-9.4-9.7
				c-5-1.3-9.8,1.8-12.9,5.5c-3.6,4.4-6,9.5-7,15.1c-1.2,5.9-0.8,12,1,17.8c-5.9-2.2-12.2,3.5-9.7,9.8c-0.1,0.1-0.1,0.3,0,0.4
				c0.1,0.1,0.1,0.1,0.2,0.1c7.6,0.5,15.3,0.2,22.9,0.2h68.7c8.6,0,17.3,0.3,25.9-0.2c0.2,0,0.3-0.2,0.3-0.3
				C524.9,75.6,524.7,75.4,524.5,75.4z"/>
			<path class="st0" d="M86.2,160.6c0.2-6.7-5-12.3-11.7-12.6c-0.1,0-0.3,0-0.4,0c0.4-3.8-2.3-7.2-6-7.6c-1.3-0.1-2.5,0.1-3.7,0.6
				c2-9.2-4.8-17.9-13.9-19.7c-10.2-2-19.9,3.9-25.2,12.4c-3.2,5.3-5.1,11.3-5.6,17.4c-3.5-2.7-8.3-3.2-12.3-1.4
				c-4.3,2.1-6.8,6.7-6.3,11.5c0,0.1,0.1,0.2,0.3,0.2v0.1c-0.5,0.1-0.9,0.1-1.4,0.2c0,0,0,0.1,0,0.1c3.3,0.4,6.7,0.5,10.1,0.4
				l10.8,0.1c7.2,0,14.4,0,21.6,0c14.4,0,28.8,0.2,43.3-0.3c0.1,0,0.2-0.1,0.1-0.2c0-0.1-0.1-0.1-0.1-0.1h-0.2v-0.6
				C85.9,161.2,86.2,160.9,86.2,160.6z"/>
			<path class="st1" d="M322.1,297.4L322.1,297.4c-1.1-0.3-2.1-0.8-3.1-1.2c-0.2-0.1-0.3-0.3-0.2-0.5c0.1-0.2,0.3-0.3,0.5-0.2
				c1,0.5,2,0.9,3,1.2c0.2,0.1,0.3,0.3,0.3,0.5c0,0,0,0,0,0C322.5,297.3,322.3,297.5,322.1,297.4
				C322.1,297.4,322.1,297.4,322.1,297.4z M325.3,298.2c-0.2-0.1-0.3-0.3-0.3-0.5c0.1-0.2,0.2-0.3,0.4-0.3l1,0.1
				c0.7,0.1,1.5,0.2,2.3,0.2c0.2,0,0.4,0.2,0.4,0.4c0,0.2-0.2,0.4-0.4,0.4c-0.8,0-1.6-0.1-2.3-0.2L325.3,298.2L325.3,298.2z
				 M316.1,294.6l-0.1-0.1c-0.9-0.6-1.8-1.2-2.7-1.9c-0.2-0.1-0.2-0.4-0.1-0.6c0.1-0.2,0.4-0.2,0.6-0.1c0.8,0.7,1.7,1.3,2.6,1.9
				c0.2,0.1,0.3,0.4,0.2,0.6C316.5,294.6,316.3,294.7,316.1,294.6z M331.8,298.4c-0.2,0-0.3-0.2-0.3-0.4c0-0.2,0.1-0.4,0.4-0.4
				c0,0,0,0,0,0c1.1-0.1,2.1-0.3,3.2-0.6c0.2-0.1,0.4,0.1,0.5,0.3c0.1,0.2-0.1,0.4-0.3,0.5c0,0,0,0,0,0c-1.1,0.3-2.2,0.5-3.3,0.6
				L331.8,298.4z M311,290.5c-0.1,0-0.1-0.1-0.2-0.1c-0.8-0.8-1.5-1.6-2.3-2.4c-0.1-0.2-0.1-0.4,0.1-0.6c0.2-0.1,0.4-0.1,0.6,0l0,0
				c0.7,0.8,1.5,1.6,2.2,2.4c0.2,0.2,0.2,0.4,0,0.6C311.3,290.5,311.1,290.6,311,290.5z M338.3,296.8c-0.2-0.1-0.3-0.3-0.3-0.5
				c0-0.1,0.1-0.2,0.3-0.3c1-0.4,2-0.9,2.9-1.4c0.2-0.1,0.4,0,0.6,0.2c0,0,0,0,0,0c0.1,0.2,0,0.5-0.2,0.6c-1,0.5-2,1-3,1.4
				C338.5,296.9,338.3,296.9,338.3,296.8L338.3,296.8z M227.3,266.9l-0.5-0.1c-0.2-0.1-0.3-0.3-0.3-0.5c0.1-0.2,0.3-0.4,0.5-0.3l0,0
				l0.5,0.1c0.9,0.2,1.8,0.4,2.7,0.5c0.2,0,0.4,0.2,0.4,0.5c0,0.2-0.2,0.4-0.5,0.4C229.1,267.3,228.2,267.1,227.3,266.9z
				 M223.7,265.7L223.7,265.7c-1.1-0.4-2.1-0.9-3.1-1.5l0.4-0.7l0,0c0.9,0.5,1.9,1,2.9,1.4c0.2,0.1,0.3,0.3,0.2,0.5c0,0,0,0,0,0
				C224,265.6,223.9,265.7,223.7,265.7z M233.3,267.7c-0.2,0-0.3-0.2-0.3-0.4c0-0.2,0.2-0.4,0.4-0.4c0,0,0,0,0,0
				c1.1,0,2.2,0,3.3-0.1c0.2,0,0.4,0.3,0.4,0.5c0,0.2-0.2,0.3-0.4,0.4C235.5,267.8,234.4,267.8,233.3,267.7L233.3,267.7z
				 M124.3,240.4h-0.1c-1-0.3-2.1-0.6-3.1-1c-0.2-0.1-0.3-0.3-0.2-0.5c0.1-0.2,0.3-0.3,0.5-0.2c1,0.4,2,0.7,3,0.9h0.1
				c0.2,0.1,0.4,0.3,0.3,0.5C124.7,240.3,124.5,240.4,124.3,240.4C124.3,240.4,124.3,240.4,124.3,240.4z M127.5,241
				c-0.2,0-0.3-0.2-0.3-0.4c0-0.2,0.2-0.4,0.5-0.4c1.1,0.1,2.2,0.2,3.2,0.2c0.2,0,0.4,0.2,0.4,0.4c0,0,0,0,0,0
				c0,0.2-0.2,0.4-0.4,0.4l0,0C129.8,241.2,128.6,241.1,127.5,241L127.5,241z M306.7,285.5c-0.1,0-0.2-0.1-0.2-0.2
				c-0.6-0.9-1.2-1.9-1.8-2.8c-0.1-0.2,0-0.5,0.2-0.6c0.2-0.1,0.4,0,0.6,0.2c0,0,0,0,0,0c0.5,0.9,1.1,1.9,1.7,2.8
				c0.1,0.2,0.1,0.4-0.1,0.6C307,285.5,306.8,285.5,306.7,285.5z M118.1,238L118.1,238c-1.1-0.5-2-1.1-2.9-1.8
				c-0.2-0.1-0.2-0.4-0.1-0.6c0.1-0.2,0.4-0.2,0.6-0.1l0,0c0.9,0.6,1.8,1.2,2.8,1.7c0.2,0.1,0.3,0.4,0.2,0.6c0,0,0,0,0,0
				C118.5,238,118.3,238,118.1,238z M218,262.4c-0.1,0-0.1,0-0.2-0.1c-0.9-0.7-1.7-1.5-2.4-2.3c-0.2-0.2-0.2-0.4,0-0.6c0,0,0,0,0,0
				c0.2-0.2,0.4-0.2,0.6,0c0,0,0,0,0,0c0.7,0.8,1.5,1.5,2.4,2.2c0.2,0.1,0.2,0.4,0.1,0.6c0,0,0,0,0,0
				C218.3,262.3,218.2,262.4,218,262.4z M344,293.7c-0.1,0-0.2-0.1-0.2-0.2c-0.1-0.2-0.1-0.4,0.1-0.6c0.9-0.6,1.7-1.3,2.6-2
				c0.2-0.1,0.4-0.1,0.6,0c0.1,0.2,0.1,0.4,0,0.6c-0.8,0.7-1.7,1.4-2.6,2.1C344.2,293.7,344.1,293.7,344,293.7z M134.1,241.1
				c-0.2-0.1-0.3-0.2-0.3-0.4c0-0.2,0.2-0.4,0.4-0.4c1.1-0.1,2.1-0.2,3.2-0.4c0.2,0,0.4,0.1,0.5,0.3c0,0,0,0,0,0
				c0,0.2-0.1,0.4-0.3,0.5c0,0,0,0,0,0c-1.1,0.2-2.2,0.4-3.3,0.4L134.1,241.1z M239.9,267.3c-0.2,0-0.4-0.2-0.3-0.5
				c0-0.2,0.2-0.3,0.3-0.3c1.1-0.2,2.1-0.4,3.2-0.6c0.2,0,0.4,0.1,0.5,0.4c0,0.2-0.1,0.4-0.3,0.4c-1.1,0.3-2.2,0.5-3.3,0.6
				C240,267.3,239.9,267.3,239.9,267.3z M112.8,234.2c-0.1,0-0.1,0-0.2-0.1c-0.8-0.8-1.6-1.6-2.3-2.4c-0.1-0.2-0.1-0.5,0.1-0.6
				c0.2-0.1,0.4-0.1,0.5,0c0.7,0.8,1.4,1.6,2.2,2.4c0.2,0.2,0.2,0.4,0,0.6C113.1,234.2,112.9,234.2,112.8,234.2z M140.5,239.9
				c-0.1,0-0.3-0.1-0.3-0.3c-0.1-0.2,0.1-0.4,0.3-0.5c0,0,0,0,0,0c1-0.3,2.1-0.6,3.1-1c0.2-0.1,0.4,0,0.5,0.2c0.1,0.2,0,0.4-0.2,0.5
				c0,0,0,0,0,0c-1,0.4-2.1,0.7-3.2,1C140.7,239.9,140.6,240,140.5,239.9L140.5,239.9z M246.3,265.8c-0.1,0-0.3-0.1-0.3-0.3
				c-0.1-0.2,0.1-0.4,0.3-0.5c1-0.3,2.1-0.7,3.1-1.1c0.2-0.1,0.5,0,0.5,0.2c0.1,0.2,0,0.5-0.2,0.5c-1,0.4-2.1,0.8-3.1,1.1
				C246.4,265.8,246.4,265.8,246.3,265.8z M213.5,257.6c-0.1,0-0.2-0.1-0.2-0.2c-0.7-0.9-1.2-1.9-1.8-2.9c-0.1-0.2,0-0.5,0.2-0.6
				c0.2-0.1,0.5,0,0.6,0.2l0,0c0.5,1,1.1,1.9,1.7,2.8c0.1,0.2,0.1,0.4-0.1,0.6C213.8,257.6,213.7,257.6,213.5,257.6z M303.5,279.8
				c-0.1,0-0.2-0.1-0.3-0.2c-0.5-1-0.9-2.1-1.3-3.1c-0.1-0.2,0-0.5,0.3-0.5s0.5,0,0.5,0.3c0.4,1,0.8,2,1.2,3c0.1,0.2,0,0.4-0.2,0.5
				C303.6,279.8,303.6,279.8,303.5,279.8L303.5,279.8z M349,289.4c-0.1,0-0.1,0-0.2-0.1c-0.2-0.2-0.2-0.4,0-0.6c0,0,0,0,0,0
				c0.7-0.8,1.4-1.6,2.1-2.5c0.1-0.2,0.4-0.2,0.6-0.1c0.2,0.1,0.2,0.4,0.1,0.6c-0.7,0.9-1.4,1.7-2.1,2.6
				C349.3,289.4,349.1,289.4,349,289.4L349,289.4z M108.6,229.1c-0.1,0-0.2-0.1-0.2-0.2c-0.6-0.9-1.2-1.9-1.7-2.9
				c-0.1-0.2,0-0.4,0.2-0.6c0.2-0.1,0.5,0,0.6,0.2c0.5,1,1,1.9,1.6,2.8c0.1,0.2,0.1,0.4-0.1,0.6
				C108.8,229.1,108.7,229.1,108.6,229.1z M146.7,237.7c-0.1,0-0.2-0.1-0.3-0.2c-0.1-0.2,0-0.4,0.2-0.5c0,0,0,0,0,0
				c1-0.4,2-1,2.9-1.5c0.2-0.1,0.4-0.1,0.5,0.1c0,0,0,0,0,0c0.1,0.2,0,0.4-0.1,0.6c-1,0.6-2,1.1-3,1.5
				C146.9,237.7,146.8,237.7,146.7,237.7L146.7,237.7z M252.4,263.4c-0.1,0-0.2-0.1-0.3-0.2c-0.1-0.2,0-0.4,0.2-0.5c0,0,0,0,0,0
				c1-0.5,2-0.9,2.9-1.5c0.2-0.1,0.4,0,0.5,0.2c0,0,0,0,0,0c0.1,0.2,0,0.4-0.2,0.6c0,0,0,0,0,0c-1,0.5-2,1-3,1.5
				C252.6,263.4,252.5,263.4,252.4,263.4z M210.4,251.8c-0.1,0-0.2-0.1-0.3-0.3c-0.4-1-0.7-2.1-0.9-3.2c0-0.2,0.1-0.4,0.3-0.5
				c0,0,0,0,0,0c0.2,0,0.4,0.1,0.5,0.3l0,0c0.2,1.1,0.5,2.1,0.9,3.1c0.1,0.2,0,0.4-0.2,0.5c0,0,0,0,0,0
				C210.6,251.8,210.5,251.8,210.4,251.8L210.4,251.8z M301.2,273.6c-0.1,0-0.3-0.1-0.3-0.3c-0.3-1.1-0.5-2.2-0.7-3.3
				c0-0.2,0.1-0.4,0.3-0.5c0.2,0,0.4,0.1,0.5,0.3c0.2,1.1,0.4,2.1,0.7,3.2c0.1,0.2-0.1,0.4-0.3,0.5c0,0,0,0,0,0
				C301.4,273.6,301.3,273.6,301.2,273.6L301.2,273.6z M105.7,223.2c-0.1,0-0.2-0.1-0.3-0.3c-0.4-1-0.7-2.1-1-3.2
				c-0.1-0.2,0.1-0.4,0.3-0.5c0.2-0.1,0.4,0.1,0.5,0.3c0.3,1.1,0.6,2.1,1,3.1c0.1,0.2,0,0.4-0.2,0.5c0,0,0,0,0,0
				C105.9,223.2,105.8,223.2,105.7,223.2z M152.4,234.4c-0.1,0-0.2-0.1-0.2-0.2c-0.1-0.2-0.1-0.4,0.1-0.6c0,0,0,0,0,0
				c0.9-0.6,1.8-1.3,2.6-2c0.2-0.1,0.4-0.1,0.6,0.1s0.1,0.4-0.1,0.6c-0.8,0.7-1.7,1.4-2.6,2C152.7,234.4,152.6,234.4,152.4,234.4z
				 M352.9,284.1l-0.1,0c-0.2-0.1-0.3-0.4-0.1-0.5c0,0,0,0,0,0c0.5-0.9,1.1-1.9,1.5-2.9c0.1-0.2,0.3-0.3,0.5-0.2
				c0.2,0.1,0.3,0.3,0.2,0.5c0,0,0,0,0,0c-0.5,1-1,2-1.6,3C353.3,284.1,353.1,284.2,352.9,284.1L352.9,284.1z M258.2,260.3
				c-0.1,0-0.2-0.1-0.3-0.2c-0.1-0.2-0.1-0.4,0.1-0.6c0.9-0.5,1.8-1.1,2.8-1.7c0.2-0.1,0.4-0.1,0.6,0.1s0.1,0.4-0.1,0.6
				c-1,0.6-1.9,1.2-2.8,1.8C258.5,260.3,258.3,260.3,258.2,260.3L258.2,260.3z M209.1,245.3c-0.2,0-0.3-0.2-0.3-0.4v-0.4
				c-0.1-1-0.1-2,0-3c0-0.2,0.2-0.4,0.4-0.4c0.2,0,0.4,0.2,0.4,0.4c0,0,0,0,0,0c-0.1,1-0.1,1.9,0,2.9v0.4c0,0.2-0.2,0.4-0.4,0.4
				L209.1,245.3z M300.1,267.1c-0.2,0-0.3-0.2-0.3-0.4c-0.1-1.1-0.2-2.2-0.2-3.3c0-0.2,0.2-0.4,0.4-0.4c0,0,0,0,0,0
				c0.2,0,0.4,0.2,0.4,0.4c0,0,0,0,0,0c0,1.1,0.1,2.2,0.2,3.3c0,0.2-0.1,0.4-0.4,0.5C300.2,267.1,300.2,267.1,300.1,267.1
				L300.1,267.1z M103.9,216.9c-0.2,0-0.3-0.2-0.3-0.3c-0.2-1.1-0.3-2.2-0.4-3.3c0-0.2,0.1-0.4,0.4-0.4c0,0,0,0,0,0
				c0.2,0,0.4,0.1,0.4,0.4c0,0,0,0,0,0c0.1,1.1,0.3,2.2,0.4,3.2c0,0.2-0.1,0.4-0.3,0.5c0,0,0,0,0,0C104,216.9,104,216.9,103.9,216.9
				z M157.5,230.2c-0.1,0-0.1-0.1-0.2-0.1c-0.2-0.2-0.2-0.4,0-0.6c0,0,0,0,0,0c0.7-0.7,1.5-1.5,2.3-2.4c0.2-0.2,0.4-0.2,0.6,0
				c0.2,0.2,0.2,0.4,0,0.6l0,0c-0.8,0.9-1.5,1.7-2.3,2.4C157.8,230.2,157.6,230.2,157.5,230.2z M263.8,256.7
				c-0.2-0.1-0.4-0.3-0.3-0.5c0-0.1,0.1-0.2,0.2-0.2c0.9-0.6,1.8-1.3,2.7-1.9c0.2-0.1,0.4-0.1,0.6,0.1c0,0,0,0,0,0
				c0.1,0.2,0.1,0.4-0.1,0.6c-0.9,0.6-1.8,1.3-2.7,1.9C264,256.7,263.9,256.7,263.8,256.7z M355.7,278.1L355.7,278.1
				c-0.2-0.1-0.3-0.3-0.3-0.5c0.2-0.6,0.4-1.3,0.6-2c0.1-0.4,0.2-0.8,0.3-1.1c0-0.2,0.3-0.4,0.5-0.3c0,0,0,0,0,0
				c0.2,0,0.4,0.3,0.3,0.5c-0.1,0.4-0.2,0.8-0.3,1.2c-0.2,0.7-0.4,1.4-0.6,2.1C356.1,278.1,355.9,278.2,355.7,278.1
				C355.7,278.1,355.7,278.1,355.7,278.1L355.7,278.1z M209.6,238.8c-0.2-0.1-0.4-0.3-0.3-0.5l0.1-0.7c0.2-0.9,0.5-1.7,0.8-2.6
				c0.1-0.2,0.3-0.3,0.5-0.2s0.3,0.3,0.2,0.5l0,0c-0.3,0.8-0.6,1.6-0.8,2.5l-0.1,0.6C210.1,238.7,209.8,238.8,209.6,238.8
				L209.6,238.8L209.6,238.8z M269.1,252.9c-0.1,0-0.2-0.1-0.2-0.1c-0.1-0.2-0.1-0.4,0.1-0.6c0,0,0,0,0,0c0.8-0.6,1.5-1.1,2.3-1.7
				l0.3-0.2c0.2-0.1,0.4-0.1,0.6,0.1c0.1,0.2,0.1,0.4-0.1,0.6c0,0,0,0,0,0l-0.3,0.2l-2.3,1.7C269.4,252.9,269.2,252.9,269.1,252.9
				L269.1,252.9z M299.8,260.5c-0.2,0-0.3-0.2-0.3-0.4c0-1.1,0.1-2.2,0.1-3.3c0-0.2,0.2-0.4,0.4-0.4s0.4,0.2,0.4,0.4
				c-0.1,1.1-0.1,2.2-0.1,3.3c0,0.2-0.2,0.4-0.4,0.4C299.9,260.5,299.9,260.5,299.8,260.5L299.8,260.5z M161.9,225.3
				c-0.1,0-0.1,0-0.2-0.1c-0.2-0.1-0.2-0.4-0.1-0.6c0,0,0,0,0,0c0.7-0.8,1.4-1.7,2.1-2.5c0.1-0.2,0.4-0.2,0.6-0.1c0,0,0,0,0,0
				c0.2,0.1,0.2,0.4,0.1,0.6c-0.7,0.9-1.4,1.7-2.1,2.6C162.3,225.3,162.1,225.4,161.9,225.3z M103.3,210.3c-0.2,0-0.3-0.2-0.3-0.4
				c0-1.1,0-2.2,0.1-3.3c0-0.2,0.2-0.4,0.4-0.4c0,0,0,0,0,0c0.2,0,0.4,0.2,0.4,0.4c0,0,0,0,0,0c-0.1,1.1-0.1,2.2-0.1,3.3
				c0,0.2-0.2,0.4-0.4,0.4C103.4,210.3,103.4,210.3,103.3,210.3L103.3,210.3z M224.7,238.7h-0.1c-0.2-0.1-0.3-0.3-0.3-0.5
				c0-0.2,0.2-0.3,0.5-0.3c0,0,0,0,0,0h0.1c1,0.2,2,0.4,3,0.4c0.2,0,0.4,0.3,0.4,0.5c0,0.2-0.2,0.3-0.4,0.4
				C226.8,239.1,225.7,239,224.7,238.7L224.7,238.7z M357,271.7c-0.2-0.1-0.3-0.2-0.3-0.4c0-0.2,0-0.5,0-0.7c0-0.8,0-1.7,0-2.5
				c0-0.2,0.2-0.4,0.4-0.4c0,0,0,0,0,0c0.2,0,0.4,0.2,0.4,0.4c0,0,0,0,0,0c0,0.9,0,1.7,0,2.6c0,0.3,0,0.5,0,0.8
				C357.5,271.6,357.3,271.7,357,271.7L357,271.7z M221.5,237.4c0,0-0.1,0-0.1,0c-1-0.5-1.9-1.2-2.8-1.9c-0.2-0.1-0.2-0.4-0.1-0.6
				c0,0,0,0,0,0c0.1-0.2,0.4-0.2,0.6-0.1c0,0,0,0,0,0c0.8,0.7,1.7,1.3,2.6,1.8c0.2,0.1,0.3,0.4,0.2,0.6c0,0,0,0,0,0
				C221.9,237.4,221.7,237.4,221.5,237.4L221.5,237.4z M231.1,238.7c-0.2,0-0.3-0.1-0.3-0.3c-0.1-0.2,0.1-0.4,0.3-0.5c0,0,0,0,0,0
				c1-0.2,2.1-0.6,3-1.1c0.2-0.1,0.5,0,0.6,0.2c0.1,0.2,0,0.5-0.2,0.6l0,0c-1,0.5-2.1,0.9-3.2,1.2
				C231.2,238.7,231.1,238.7,231.1,238.7L231.1,238.7z M274.4,249c-0.1,0-0.2-0.1-0.2-0.2c-0.1-0.2-0.1-0.4,0.1-0.6
				c0.9-0.7,1.8-1.3,2.7-1.9c0.2-0.1,0.4-0.1,0.6,0.1c0.1,0.2,0.1,0.4-0.1,0.6l-2.7,1.9C274.7,248.9,274.5,249,274.4,249L274.4,249z
				 M211.9,232.6h-0.1c-0.2-0.1-0.3-0.4-0.2-0.6c0,0,0,0,0,0c0.5-1,1.1-1.9,1.8-2.9c0.1-0.2,0.4-0.2,0.6-0.1
				c0.2,0.1,0.2,0.4,0.1,0.6c-0.6,0.9-1.2,1.8-1.7,2.8C212.2,232.6,212,232.7,211.9,232.6L211.9,232.6z M216.4,233.3
				c-0.1,0-0.2-0.1-0.2-0.1c-0.7-0.8-1.4-1.7-2.1-2.6c-0.1-0.2-0.1-0.4,0.1-0.6c0,0,0,0,0,0c0.2-0.1,0.4-0.1,0.6,0.1
				c0.6,0.9,1.3,1.7,2.1,2.5c0.2,0.2,0.2,0.4,0,0.6c0,0,0,0,0,0C216.7,233.3,216.6,233.3,216.4,233.3L216.4,233.3z M300.3,254
				c-0.2-0.1-0.3-0.2-0.3-0.4c0.1-1.1,0.3-2.2,0.5-3.3c0-0.2,0.3-0.4,0.5-0.3c0.2,0,0.4,0.3,0.3,0.5c0,0,0,0,0,0
				c-0.2,1.1-0.3,2.2-0.5,3.2C300.8,253.8,300.6,254,300.3,254L300.3,254z M166.1,220.2c-0.1,0-0.1,0-0.2-0.1
				c-0.2-0.1-0.2-0.4-0.1-0.6c0.7-0.9,1.4-1.7,2.1-2.5c0.1-0.2,0.4-0.2,0.6-0.1s0.2,0.4,0.1,0.6l0,0c-0.7,0.8-1.4,1.7-2.1,2.5
				C166.4,220.2,166.3,220.3,166.1,220.2z M103.8,203.7c-0.2-0.1-0.3-0.3-0.3-0.5c0.1-0.4,0.1-0.8,0.2-1.1c0.1-0.7,0.3-1.4,0.4-2.1
				c0.1-0.2,0.3-0.4,0.5-0.3c0.2,0,0.3,0.2,0.3,0.4c0,0,0,0,0,0.1c-0.2,0.7-0.3,1.4-0.4,2.1c-0.1,0.4-0.1,0.8-0.2,1.1
				C104.2,203.6,104,203.8,103.8,203.7C103.8,203.7,103.8,203.7,103.8,203.7L103.8,203.7z M236.8,235.6c-0.1,0-0.1-0.1-0.2-0.1
				c-0.2-0.2-0.2-0.4,0-0.6c0,0,0,0,0,0c0.7-0.7,1.3-1.6,1.7-2.6c0.1-0.2,0.3-0.3,0.5-0.2s0.3,0.3,0.2,0.5l0,0
				c-0.4,1.1-1.1,2.1-1.9,2.9C237.1,235.5,236.9,235.6,236.8,235.6L236.8,235.6z M356.7,265.1c-0.2,0-0.3-0.2-0.3-0.3
				c-0.2-1.1-0.4-2.1-0.6-3.2c-0.1-0.2,0.1-0.4,0.3-0.5c0.2-0.1,0.4,0.1,0.5,0.3c0.3,1.1,0.5,2.2,0.6,3.3c0,0.2-0.1,0.4-0.3,0.5
				c0,0,0,0,0,0C356.8,265.1,356.8,265.1,356.7,265.1L356.7,265.1z M279.7,245.1c-0.1,0-0.2-0.1-0.2-0.2c-0.1-0.2-0.1-0.4,0.1-0.6
				c0,0,0,0,0,0c0.9-0.6,1.8-1.2,2.8-1.8c0.2-0.1,0.4-0.1,0.6,0.1s0.1,0.4-0.1,0.6c-0.9,0.6-1.8,1.2-2.7,1.8
				C280,245.1,279.9,245.1,279.7,245.1L279.7,245.1z M212.5,228c-0.1,0-0.2-0.1-0.3-0.2c-0.5-0.9-1.1-1.8-1.7-2.9
				c-0.1-0.2,0-0.4,0.2-0.6c0,0,0,0,0,0c0.2-0.1,0.4-0.1,0.5,0.1c0,0,0,0,0,0c0.6,1.1,1.1,2,1.7,2.8c0.1,0.2,0.1,0.4-0.1,0.6
				C212.7,228,212.6,228,212.5,228z M215.7,227.3c-0.1,0-0.1-0.1-0.2-0.1c-0.2-0.2-0.2-0.4,0-0.6c0,0,0,0,0,0
				c0.8-0.8,1.6-1.6,2.5-2.3c0.2-0.1,0.4-0.1,0.6,0.1c0.1,0.2,0.1,0.4-0.1,0.6c-0.8,0.7-1.6,1.4-2.4,2.2
				C216,227.3,215.8,227.3,215.7,227.3L215.7,227.3z M170.4,215.3c-0.1,0-0.1-0.1-0.2-0.1c-0.2-0.2-0.2-0.4,0-0.6
				c0.7-0.8,1.4-1.5,2.1-2.1l0.2-0.2c0.2-0.2,0.4-0.2,0.6,0c0,0,0,0,0,0c0.2,0.2,0.2,0.4,0,0.6l-0.2,0.2c-0.7,0.6-1.4,1.3-2.1,2.1
				C170.7,215.3,170.6,215.3,170.4,215.3L170.4,215.3z M301.4,247.5c-0.2-0.1-0.3-0.3-0.3-0.5c0.2-1.1,0.5-2.1,0.7-3.2
				c0.1-0.2,0.3-0.4,0.5-0.3l0,0c0.2,0.1,0.4,0.3,0.3,0.5c0,0,0,0,0,0c-0.3,1.1-0.5,2.1-0.7,3.2
				C301.9,247.4,301.7,247.5,301.4,247.5C301.5,247.5,301.4,247.5,301.4,247.5L301.4,247.5z M105.2,197.3L105.2,197.3
				c-0.2-0.1-0.3-0.3-0.3-0.5c0,0,0,0,0,0c0.3-1.1,0.7-2.1,1-3.1c0.1-0.2,0.3-0.3,0.5-0.3s0.3,0.3,0.3,0.5c-0.4,1-0.7,2.1-1,3.1
				C105.7,197.3,105.4,197.4,105.2,197.3z M285.3,241.5c-0.1,0-0.2-0.1-0.3-0.2c-0.1-0.2-0.1-0.4,0.1-0.6c0.7-0.4,1.4-0.8,2-1.2
				l0.8-0.4c0.2-0.1,0.4,0,0.6,0.2c0,0,0,0,0,0c0.1,0.2,0,0.5-0.2,0.6l-0.8,0.4c-0.7,0.4-1.4,0.8-2,1.2
				C285.5,241.5,285.4,241.6,285.3,241.5L285.3,241.5z M209.2,222.3c-0.1,0-0.2-0.1-0.3-0.2l-0.4-0.8c-0.4-0.7-0.8-1.4-1.2-2.1
				c-0.1-0.2-0.1-0.4,0.1-0.6c0.2-0.1,0.4-0.1,0.6,0.1c0,0,0,0,0,0c0.4,0.7,0.8,1.4,1.2,2.1l0.4,0.8c0.1,0.2,0,0.4-0.2,0.6
				c0,0,0,0,0,0C209.4,222.3,209.3,222.3,209.2,222.3L209.2,222.3z M355.1,258.7c-0.1,0-0.2-0.1-0.3-0.3c-0.4-1-0.8-2-1.3-3
				c-0.1-0.2,0-0.5,0.2-0.6c0.2-0.1,0.5,0,0.5,0.2c0.5,1,0.9,2,1.3,3.1c0.1,0.2,0,0.4-0.2,0.5c0,0,0,0,0,0
				C355.3,258.8,355.2,258.8,355.1,258.7z M239.1,229.6c-0.2,0-0.3-0.2-0.3-0.4c-0.1-1-0.4-2.1-0.9-3c-0.1-0.2,0-0.4,0.2-0.6
				c0.2-0.1,0.4,0,0.5,0.2c0,0,0,0,0,0c0.6,1,0.9,2.1,1,3.3c0,0.2-0.2,0.4-0.4,0.4L239.1,229.6z M220.9,223.2
				c-0.2,0-0.4-0.3-0.3-0.5c0-0.1,0.1-0.2,0.2-0.3c1-0.6,2-1,3.1-1.4c0.2-0.1,0.5,0,0.5,0.3c0.1,0.2,0,0.4-0.3,0.5
				c-1,0.4-2,0.8-2.9,1.3C221.1,223.2,221,223.2,220.9,223.2L220.9,223.2z M175.3,210.8c-0.2-0.1-0.4-0.3-0.3-0.5
				c0-0.1,0.1-0.2,0.1-0.2c0.9-0.7,1.8-1.3,2.8-1.9c0.2-0.1,0.4-0.1,0.6,0.1c0,0,0,0,0,0c0.1,0.2,0.1,0.4-0.1,0.6c0,0,0,0,0,0
				c-0.9,0.6-1.8,1.2-2.7,1.8C175.6,210.8,175.4,210.8,175.3,210.8L175.3,210.8z M291.2,238.4c-0.2-0.1-0.4-0.3-0.3-0.5
				c0-0.1,0.1-0.2,0.2-0.3c1-0.5,2-0.9,3-1.3c0.2-0.1,0.4,0,0.5,0.2c0,0,0,0,0,0c0.1,0.2,0,0.4-0.2,0.5c0,0,0,0,0,0
				c-1,0.4-2,0.9-3,1.3C291.3,238.4,291.2,238.5,291.2,238.4L291.2,238.4z M303,241L303,241c-0.2-0.1-0.3-0.3-0.3-0.5c0,0,0,0,0,0
				c0.2-0.6,0.4-1.3,0.5-1.9l0.4-1.2c0.1-0.2,0.3-0.3,0.5-0.3c0.2,0.1,0.3,0.3,0.3,0.5l0,0c-0.1,0.4-0.3,0.8-0.4,1.2
				c-0.2,0.6-0.4,1.3-0.5,1.9C303.4,240.9,303.2,241.1,303,241C302.9,241,302.9,241,303,241L303,241z M206,216.5
				c-0.1,0-0.2-0.1-0.2-0.2c-0.6-1-1.2-1.9-1.9-2.7c-0.1-0.2-0.1-0.4,0.1-0.6c0,0,0,0,0,0c0.2-0.1,0.4-0.1,0.5,0.1c0,0,0,0,0,0
				c0.6,0.8,1.3,1.7,1.9,2.7c0.1,0.2,0.1,0.4-0.1,0.6C206.2,216.6,206,216.6,206,216.5L206,216.5z M236.3,223.9
				c-0.1,0-0.1-0.1-0.2-0.1c-0.8-0.7-1.7-1.3-2.7-1.8c-0.2-0.1-0.3-0.3-0.2-0.5c0.1-0.2,0.3-0.3,0.5-0.2c0,0,0,0,0,0
				c1,0.5,2,1.1,2.8,1.9c0.2,0.2,0.2,0.4,0,0.6C236.5,223.9,236.3,223.9,236.3,223.9L236.3,223.9z M352.4,252.8
				c-0.1,0-0.2-0.1-0.3-0.2c-0.5-0.9-1.1-1.9-1.8-2.7c-0.1-0.2-0.1-0.4,0.1-0.6c0.2-0.1,0.4-0.1,0.6,0.1c0.6,0.9,1.3,1.9,1.8,2.8
				c0.1,0.2,0,0.4-0.1,0.6C352.6,252.8,352.5,252.8,352.4,252.8L352.4,252.8z M227,221.1c-0.2,0-0.3-0.2-0.3-0.4
				c0-0.2,0.1-0.4,0.4-0.5c1.1-0.1,2.3-0.1,3.4,0c0.2,0,0.4,0.2,0.4,0.5c0,0,0,0,0,0c0,0.2-0.2,0.4-0.5,0.4c-1.1-0.1-2.1-0.1-3.2,0
				C227.1,221.1,227,221.1,227,221.1z M107.4,191.1L107.4,191.1c-0.3-0.1-0.4-0.3-0.3-0.5c0.4-1,0.9-2,1.4-3
				c0.1-0.2,0.3-0.3,0.5-0.2c0.2,0.1,0.3,0.3,0.2,0.6c-0.5,1-0.9,2-1.4,3C107.8,191.1,107.7,191.2,107.4,191.1L107.4,191.1z
				 M180.9,207.3c-0.1,0-0.2-0.1-0.3-0.2c-0.1-0.2,0-0.4,0.2-0.5c0,0,0,0,0,0c1-0.5,2.1-0.9,3.1-1.2c0.2-0.1,0.4,0.1,0.5,0.3
				s-0.1,0.4-0.3,0.5c-1,0.3-2,0.7-3,1.1C181.1,207.4,181,207.4,180.9,207.3L180.9,207.3z M297.2,236c-0.1,0-0.2-0.1-0.3-0.3
				c-0.1-0.2,0-0.4,0.2-0.5c0,0,0,0,0,0c1-0.4,2.1-0.7,3.2-1c0.2-0.1,0.4,0.1,0.5,0.3c0.1,0.2-0.1,0.4-0.3,0.5l0,0
				c-1,0.3-2.1,0.6-3.1,1C297.4,236,297.3,236,297.2,236z M201.9,211.4c-0.1,0-0.1-0.1-0.2-0.1c-0.7-0.8-1.5-1.5-2.4-2.2
				c-0.2-0.1-0.2-0.4-0.1-0.6c0.1-0.2,0.4-0.2,0.6-0.1c0,0,0,0,0,0c0.9,0.7,1.7,1.5,2.4,2.3c0.2,0.2,0.2,0.4,0,0.6c0,0,0,0,0,0
				C202.2,211.4,202,211.4,201.9,211.4L201.9,211.4z M348.6,247.4c-0.1,0-0.2-0.1-0.2-0.1c-0.7-0.8-1.4-1.6-2.2-2.4
				c-0.2-0.2-0.2-0.4,0-0.6c0.2-0.2,0.4-0.2,0.6,0c0.8,0.8,1.5,1.6,2.2,2.5c0.1,0.2,0.1,0.4,0,0.6c0,0,0,0,0,0
				C348.8,247.4,348.7,247.4,348.6,247.4L348.6,247.4z M187.2,205.5c-0.2-0.1-0.3-0.3-0.3-0.5c0-0.2,0.2-0.3,0.3-0.3
				c1.1-0.1,2.2-0.2,3.4-0.1c0.2,0,0.4,0.2,0.4,0.4c0,0,0,0,0,0c0,0.2-0.2,0.4-0.4,0.4c-1.1-0.1-2.1,0-3.2,0.1
				C187.3,205.5,187.2,205.5,187.2,205.5z M304.9,234.7L304.9,234.7c-0.2-0.1-0.3-0.3-0.3-0.5c0,0,0,0,0,0l0.1-0.3l-0.9,0.2
				c-0.2,0-0.4-0.1-0.5-0.3c0-0.2,0.1-0.4,0.3-0.5l0,0c0.5-0.1,1-0.2,1.5-0.3c0.2-0.7,0.5-1.3,0.7-1.9c0.1-0.2,0.3-0.3,0.5-0.2
				c0.2,0.1,0.3,0.3,0.2,0.5c0,0,0,0,0,0l-0.6,1.4l0.9-0.1c0.2,0,0.4,0.1,0.5,0.3c0,0,0,0,0,0c0,0.2-0.1,0.4-0.3,0.5c0,0,0,0,0,0
				l-1.3,0.3l-0.3,0.7C305.3,234.7,305.1,234.8,304.9,234.7z M196.8,207.3h-0.1c-0.9-0.5-1.8-0.9-2.8-1.2l-0.2-0.1
				c-0.2-0.1-0.3-0.3-0.3-0.5c0,0,0,0,0,0c0.1-0.2,0.3-0.3,0.5-0.3l0.2,0.1c1,0.3,2,0.7,2.9,1.2c0.2,0.1,0.3,0.3,0.2,0.5
				c0,0,0,0,0,0C197.1,207.2,196.9,207.3,196.8,207.3z M110.4,185.2L110.4,185.2c-0.3-0.1-0.4-0.4-0.3-0.6c0,0,0,0,0,0
				c0.5-0.9,1.1-1.9,1.6-2.9c0.1-0.2,0.3-0.3,0.5-0.2c0,0,0,0,0,0c0.2,0.1,0.3,0.4,0.2,0.6c-0.6,1-1.1,1.9-1.6,2.9
				C110.7,185.2,110.5,185.2,110.4,185.2z M343.9,242.7c-0.1,0-0.1,0-0.2-0.1c-0.8-0.7-1.7-1.4-2.6-2c-0.2-0.1-0.3-0.4-0.2-0.6
				c0.1-0.2,0.4-0.3,0.6-0.2c0,0,0.1,0,0.1,0.1c0.9,0.6,1.8,1.4,2.6,2.1c0.2,0.1,0.2,0.4,0.1,0.6c0,0,0,0,0,0
				C344.2,242.7,344.1,242.7,343.9,242.7z M310.1,233c-0.2-0.1-0.3-0.3-0.3-0.5c0-0.2,0.2-0.3,0.3-0.3c1.1-0.1,2.2-0.2,3.3-0.3
				c0.2,0,0.4,0.2,0.4,0.4c0,0,0,0,0,0c0,0.2-0.2,0.4-0.4,0.4c0,0,0,0,0,0c-1.1,0-2.2,0.1-3.3,0.3C310.2,233,310.1,233,310.1,233z
				 M338.6,238.8h-0.1c-0.9-0.6-1.9-1.1-2.9-1.6c-0.2-0.1-0.3-0.3-0.2-0.5c0.1-0.2,0.3-0.3,0.5-0.2c0,0,0,0,0,0c1,0.5,2,1,2.9,1.6
				c0.2,0.1,0.3,0.4,0.1,0.5c0,0,0,0,0,0C339,238.8,338.8,238.9,338.6,238.8L338.6,238.8z M316.6,232.7c-0.2-0.1-0.3-0.2-0.3-0.4
				c0-0.2,0.2-0.4,0.4-0.4c0,0,0,0,0,0c1.1,0,2.2,0.1,3.3,0.2c0.2,0,0.4,0.2,0.4,0.4c0,0,0,0,0,0c0,0.2-0.2,0.4-0.4,0.4c0,0,0,0,0,0
				c-1.1-0.1-2.2-0.1-3.3-0.2L316.6,232.7z M332.7,235.8L332.7,235.8l-0.8-0.3c-0.8-0.3-1.6-0.6-2.4-0.8c-0.2-0.1-0.3-0.3-0.3-0.5
				c0.1-0.2,0.3-0.3,0.5-0.3c0.8,0.3,1.6,0.5,2.4,0.8l0.8,0.3c0.2,0.1,0.3,0.3,0.3,0.5C333.2,235.8,332.9,235.9,332.7,235.8
				L332.7,235.8z M323.2,233.2c-0.2,0-0.3-0.2-0.3-0.5c0-0.2,0.2-0.4,0.4-0.3c0,0,0,0,0,0c1.1,0.2,2.2,0.4,3.3,0.6
				c0.2,0.1,0.4,0.3,0.3,0.5c0,0.2-0.3,0.4-0.5,0.3c0,0,0,0,0,0C325.4,233.6,324.3,233.4,323.2,233.2L323.2,233.2z M307.3,228.6
				L307.3,228.6c-0.3-0.1-0.4-0.3-0.3-0.5c0,0,0,0,0,0c0.5-1,1-2,1.4-3c0.1-0.2,0.4-0.3,0.6-0.2c0.2,0.1,0.3,0.4,0.2,0.6
				c-0.5,0.9-1,1.9-1.4,2.9C307.7,228.5,307.5,228.6,307.3,228.6L307.3,228.6z M113.7,179.5c0,0-0.1,0-0.1-0.1
				c-0.2-0.1-0.3-0.4-0.1-0.6c0,0,0,0,0,0c0.6-0.9,1.2-1.9,1.8-2.8c0.1-0.2,0.4-0.2,0.6-0.1c0.2,0.1,0.2,0.4,0.1,0.6
				c-0.6,0.9-1.2,1.8-1.8,2.8C114.1,179.5,113.9,179.6,113.7,179.5z M310.4,222.8h-0.1c-0.2-0.1-0.3-0.4-0.1-0.6
				c0.6-1,1.2-1.9,1.8-2.8c0.1-0.2,0.4-0.2,0.6-0.1c0.2,0.1,0.2,0.4,0.1,0.6l0,0c-0.6,0.9-1.2,1.8-1.7,2.8
				C310.7,222.7,310.5,222.8,310.4,222.8z M117.4,174.1c0,0-0.1,0-0.1-0.1c-0.2-0.1-0.2-0.4-0.1-0.6c0.6-0.9,1.3-1.8,1.9-2.7
				c0.1-0.2,0.4-0.2,0.6-0.1c0.2,0.1,0.2,0.4,0.1,0.6c0,0,0,0,0,0c-0.7,0.9-1.3,1.8-1.9,2.7C117.7,174,117.5,174.1,117.4,174.1
				L117.4,174.1z M314,217.3c-0.1,0-0.1,0-0.2-0.1c-0.2-0.1-0.2-0.4-0.1-0.6c0.7-0.9,1.4-1.8,2.2-2.5c0.2-0.2,0.4-0.2,0.6,0
				c0,0,0,0,0,0c0.2,0.2,0.2,0.4,0,0.6c0,0,0,0,0,0c-0.7,0.8-1.4,1.6-2.1,2.5C314.3,217.3,314.2,217.3,314,217.3L314,217.3z
				 M121.3,168.8c-0.1,0-0.1,0-0.2-0.1c-0.2-0.1-0.2-0.4-0.1-0.6c0,0,0,0,0,0l2-2.6c0.1-0.2,0.4-0.2,0.6-0.1
				c0.2,0.1,0.2,0.4,0.1,0.6l0,0l-2,2.6C121.6,168.7,121.5,168.8,121.3,168.8z M318.5,212.5c-0.1,0-0.1-0.1-0.2-0.1
				c-0.2-0.2-0.2-0.4,0-0.6c0.8-0.8,1.7-1.5,2.6-2.1c0.2-0.2,0.4-0.2,0.6,0c0.2,0.2,0.2,0.4,0,0.6c0,0-0.1,0.1-0.1,0.1
				c-0.9,0.6-1.7,1.3-2.5,2.1C318.8,212.4,318.6,212.5,318.5,212.5L318.5,212.5z M125.3,163.5c-0.1,0-0.1,0-0.2-0.1
				c-0.2-0.1-0.2-0.4-0.1-0.6c0,0,0,0,0,0l2-2.6c0.1-0.2,0.4-0.2,0.6-0.1c0.2,0.1,0.2,0.4,0.1,0.6l0,0l-2,2.6
				C125.7,163.5,125.5,163.6,125.3,163.5z M323.8,208.5c-0.1,0-0.2-0.1-0.3-0.2c-0.1-0.2,0-0.4,0.1-0.6c1-0.6,2-1.1,3-1.5
				c0.2-0.1,0.4,0,0.5,0.2c0.1,0.2,0,0.4-0.2,0.5c0,0,0,0,0,0c-1,0.4-2,0.9-2.9,1.5C324.1,208.6,323.9,208.6,323.8,208.5
				L323.8,208.5z M129.4,158.3c-0.1,0-0.1,0-0.1-0.1c-0.2-0.1-0.2-0.4-0.1-0.6c0,0,0,0,0,0c0.7-0.9,1.3-1.7,2-2.6
				c0.1-0.2,0.4-0.2,0.6-0.1c0,0,0,0,0,0c0.2,0.1,0.2,0.4,0.1,0.6c-0.7,0.9-1.3,1.8-2,2.6C129.7,158.3,129.5,158.4,129.4,158.3z
				 M329.9,206c-0.1,0-0.3-0.1-0.3-0.3c-0.1-0.2,0.1-0.4,0.3-0.5c0,0,0,0,0,0c1.1-0.3,2.2-0.6,3.3-0.8c0.2,0,0.4,0.1,0.5,0.3
				c0,0.2-0.1,0.4-0.3,0.5c-1.1,0.2-2.1,0.4-3.2,0.7C330,206,329.9,206,329.9,206z M336.3,204.9c-0.2,0-0.3-0.2-0.3-0.4
				c0-0.2,0.2-0.4,0.4-0.4c0,0,0,0,0,0c1.1-0.1,2.2-0.1,3.3-0.1c0.2,0,0.4,0.2,0.4,0.4s-0.2,0.4-0.4,0.4c-1.1,0-2.2,0-3.3,0.1
				L336.3,204.9z M133.3,153l-0.1-0.1c-0.2-0.1-0.2-0.4-0.1-0.6c0.6-0.9,1.3-1.8,1.9-2.7c0.1-0.2,0.4-0.3,0.6-0.1
				c0.2,0.1,0.3,0.4,0.1,0.6c0,0,0,0,0,0c-0.6,0.9-1.3,1.8-1.9,2.7C133.7,153,133.5,153,133.3,153z M342.9,204.9
				c-0.2,0-0.3-0.2-0.3-0.4c0-0.2,0.2-0.4,0.5-0.4c1,0.1,2.1,0.2,3.3,0.4c0.2,0,0.4,0.2,0.4,0.5s-0.2,0.4-0.5,0.4l0,0
				C345.1,205.1,344,205,342.9,204.9L342.9,204.9z M349.5,205.7c-0.2-0.1-0.3-0.3-0.3-0.5c0.1-0.2,0.2-0.3,0.4-0.3
				c1.1,0.2,2.2,0.4,3.3,0.6c0.2,0,0.4,0.3,0.3,0.5c0,0.2-0.3,0.4-0.5,0.3c0,0,0,0,0,0C351.6,206.1,350.6,205.9,349.5,205.7
				L349.5,205.7z M355.9,207c-0.2-0.1-0.3-0.3-0.3-0.5c0-0.2,0.2-0.4,0.5-0.3c0,0,0,0,0,0l0,0l3.2,0.6c0.2,0,0.4,0.2,0.3,0.4
				c0,0,0,0,0,0c0,0.2-0.3,0.4-0.5,0.3L355.9,207L355.9,207z M362.4,208.2c-0.2-0.1-0.3-0.3-0.3-0.5c0-0.2,0.2-0.4,0.5-0.3
				c0,0,0,0,0,0c1.2,0.2,2.2,0.4,3.3,0.5c0.2,0,0.4,0.2,0.4,0.5c0,0.2-0.2,0.4-0.4,0.4c0,0,0,0,0,0
				C364.7,208.6,363.6,208.4,362.4,208.2L362.4,208.2z M368.9,209.1c-0.2,0-0.4-0.2-0.3-0.5s0.2-0.4,0.5-0.3l1.1,0.1
				c0.7,0,1.5,0.1,2.2,0.1c0.2,0,0.4,0.2,0.4,0.4c0,0,0,0,0,0c0,0.2-0.2,0.4-0.4,0.4c0,0,0,0,0,0c-0.7,0-1.5,0-2.2-0.1L368.9,209.1
				L368.9,209.1z M375.5,209.2c-0.2,0-0.3-0.2-0.3-0.4c0-0.2,0.2-0.4,0.4-0.4c1.1-0.1,2.2-0.2,3.2-0.3c0.2,0,0.4,0.1,0.5,0.3
				c0,0,0,0,0,0c0,0.2-0.1,0.4-0.4,0.5c-1.1,0.2-2.2,0.3-3.3,0.4L375.5,209.2z M137.1,147.6h-0.1c-0.2-0.1-0.2-0.4-0.1-0.6
				c0.6-0.9,1.2-1.9,1.7-2.8c0.1-0.2,0.4-0.3,0.6-0.1c0.2,0.1,0.3,0.4,0.1,0.6c-0.6,0.9-1.2,1.9-1.8,2.8
				C137.4,147.6,137.2,147.7,137.1,147.6z M382,208.3c-0.2,0-0.3-0.1-0.3-0.3c-0.1-0.2,0.1-0.4,0.3-0.5c0,0,0,0,0,0
				c1.1-0.2,2.1-0.6,3.1-0.9c0.2-0.1,0.5,0,0.5,0.3s0,0.5-0.3,0.5c-1.1,0.4-2.1,0.7-3.2,0.9C382.2,208.3,382.1,208.3,382,208.3
				L382,208.3z M119.7,141L119.7,141c-1.1-0.3-2.1-0.6-3.2-1c-0.2-0.1-0.3-0.3-0.2-0.5c0.1-0.2,0.3-0.3,0.5-0.2c1,0.4,2.1,0.7,3.1,1
				c0.2,0.1,0.4,0.3,0.3,0.5C120.2,141,119.9,141.1,119.7,141L119.7,141L119.7,141z M122.9,141.8c-0.2-0.1-0.3-0.3-0.3-0.5
				c0-0.2,0.2-0.4,0.5-0.3c0,0,0,0,0,0c1.1,0.2,2.2,0.4,3.2,0.5c0.2,0,0.4,0.2,0.4,0.5c0,0.2-0.2,0.4-0.5,0.4c0,0,0,0,0,0
				C125.1,142.2,124,142,122.9,141.8L122.9,141.8z M113.5,138.8L113.5,138.8c-1.1-0.5-2.1-1-3.1-1.5c-0.2-0.1-0.3-0.4-0.2-0.6
				c0.1-0.2,0.4-0.3,0.6-0.2c0.9,0.5,1.9,1,2.9,1.5c0.2,0.1,0.3,0.3,0.2,0.5C113.9,138.7,113.7,138.8,113.5,138.8L113.5,138.8z
				 M129.4,142.6c-0.2-0.1-0.3-0.2-0.3-0.4c0-0.2,0.2-0.4,0.4-0.4c0,0,0,0,0,0c1.1,0,2.2,0,3.3,0c0.2,0,0.4,0.3,0.4,0.5
				c0,0.2-0.2,0.3-0.4,0.4C131.7,142.6,130.6,142.7,129.4,142.6L129.4,142.6z M388.3,206.1c-0.1,0-0.2-0.1-0.3-0.2
				c-0.1-0.2,0-0.4,0.2-0.5c0,0,0,0,0,0c1-0.5,1.9-1,2.8-1.6c0.2-0.1,0.4-0.1,0.6,0.1c0,0,0,0,0,0c0.1,0.2,0.1,0.4-0.1,0.6
				c0,0,0,0,0,0c-0.9,0.6-1.9,1.1-2.9,1.6C388.4,206.1,388.3,206.1,388.3,206.1L388.3,206.1z M107.8,135.5c0,0-0.1,0-0.1-0.1
				c-0.9-0.6-1.8-1.3-2.7-1.9c-0.2-0.1-0.2-0.4-0.1-0.6c0.1-0.2,0.4-0.2,0.6-0.1c0.8,0.7,1.7,1.3,2.7,1.9c0.2,0.1,0.2,0.4,0.1,0.6
				c0,0,0,0,0,0C108.1,135.5,107.9,135.6,107.8,135.5z M136,142.2c-0.2,0-0.4-0.2-0.3-0.5c0-0.2,0.2-0.3,0.3-0.3
				c1.1-0.1,2.1-0.4,3.2-0.6c0.2-0.1,0.4,0.1,0.5,0.3c0,0.2-0.1,0.4-0.3,0.5l0,0c-1.1,0.3-2.2,0.5-3.3,0.6
				C136.1,142.2,136,142.2,136,142.2z M140.4,141.9c0,0-0.1,0-0.1,0c-0.2-0.1-0.3-0.4-0.2-0.6c0,0,0,0,0,0c0.5-1,1-1.9,1.5-2.9
				c0.1-0.2,0.4-0.3,0.6-0.2c0.2,0.1,0.3,0.4,0.2,0.6c-0.5,1-1,2-1.5,2.9C140.8,142,140.6,142,140.4,141.9L140.4,141.9z
				 M102.6,131.5c-0.1,0-0.1,0-0.2-0.1c-0.8-0.8-1.6-1.6-2.3-2.4c-0.2-0.2-0.2-0.4,0-0.6c0,0,0,0,0,0c0.2-0.2,0.4-0.2,0.6,0
				c0,0,0,0,0,0c0.7,0.8,1.5,1.6,2.3,2.3c0.2,0.2,0.2,0.4,0,0.6c0,0,0,0,0,0C102.8,131.4,102.7,131.5,102.6,131.5L102.6,131.5z
				 M142.4,140.7c-0.1,0-0.2-0.1-0.3-0.3c-0.1-0.2,0-0.4,0.2-0.5c0,0,0,0,0,0c1-0.4,2-0.8,3-1.2c0.2-0.1,0.5,0,0.5,0.2
				s0,0.5-0.2,0.5l0,0c-1,0.4-2.1,0.9-3.1,1.2C142.6,140.7,142.5,140.7,142.4,140.7L142.4,140.7z M393.8,202.5
				c-0.1,0-0.2-0.1-0.2-0.1c-0.2-0.2-0.2-0.4,0-0.6c0,0,0,0,0,0c0.8-0.7,1.6-1.5,2.3-2.3c0.2-0.2,0.4-0.2,0.6,0c0,0,0,0,0,0
				c0.2,0.2,0.2,0.4,0,0.6c0,0,0,0,0,0c-0.7,0.8-1.5,1.6-2.4,2.4C394,202.5,393.9,202.5,393.8,202.5L393.8,202.5z M98.1,126.6
				c-0.1,0-0.2-0.1-0.2-0.2c-0.7-0.9-1.3-1.8-1.9-2.7c-0.1-0.2-0.1-0.4,0.1-0.6c0,0,0,0,0,0c0.2-0.1,0.4-0.1,0.6,0.1
				c0.6,0.9,1.2,1.8,1.9,2.7c0.1,0.2,0.1,0.4-0.1,0.6c0,0,0,0,0,0C98.4,126.6,98.2,126.7,98.1,126.6z M148.4,138
				c-0.1,0-0.2-0.1-0.3-0.2c-0.1-0.2,0-0.4,0.1-0.6c0.9-0.5,1.9-1.1,2.8-1.7c0.2-0.1,0.4-0.1,0.6,0.1s0.1,0.4-0.1,0.6l0,0
				c-0.9,0.6-1.9,1.2-2.8,1.8C148.7,138,148.5,138,148.4,138z M143.4,136.1L143.4,136.1c-0.3-0.1-0.4-0.3-0.3-0.5c0,0,0,0,0,0
				c0.4-1,0.9-2,1.3-3c0.1-0.2,0.3-0.3,0.5-0.2c0,0,0,0,0,0c0.2,0.1,0.3,0.3,0.2,0.5c0,0,0,0,0,0c-0.4,1-0.8,2.1-1.3,3.1
				C143.7,136,143.5,136.1,143.4,136.1L143.4,136.1z M398,197.5h-0.1c-0.2-0.1-0.3-0.4-0.2-0.6c0,0,0,0,0,0c0.5-0.9,1-1.9,1.4-2.9
				c0.1-0.2,0.3-0.3,0.5-0.3c0,0,0,0,0,0c0.2,0.1,0.3,0.3,0.3,0.5c-0.4,1.1-0.9,2.1-1.4,3.1C398.4,197.5,398.2,197.6,398,197.5z
				 M94.5,121.1c-0.1,0-0.2-0.1-0.3-0.2c-0.5-1-1-2-1.5-3c-0.1-0.2,0-0.4,0.2-0.5c0,0,0,0,0,0c0.2-0.1,0.4,0,0.6,0.2
				c0.5,1,1,2,1.5,2.9c0.1,0.2,0,0.4-0.2,0.6c0,0,0,0,0,0C94.7,121.1,94.6,121.2,94.5,121.1z M153.9,134.3c-0.1,0-0.2-0.1-0.2-0.1
				c-0.1-0.2-0.1-0.4,0.1-0.6c0.8-0.7,1.7-1.4,2.4-2.2c0.2-0.2,0.4-0.2,0.6,0s0.2,0.4,0,0.6l0,0c-0.8,0.8-1.6,1.5-2.5,2.2
				C154.1,134.3,154,134.3,153.9,134.3z M145.8,129.9L145.8,129.9c-0.2-0.1-0.3-0.3-0.3-0.5c0,0,0,0,0,0c0.3-1,0.7-2.1,1-3.1
				c0.1-0.2,0.3-0.3,0.5-0.3c0,0,0,0,0,0c0.2,0.1,0.3,0.3,0.3,0.5c-0.3,1.1-0.6,2.1-1,3.2C146.2,129.9,146,130,145.8,129.9
				C145.8,129.9,145.8,129.9,145.8,129.9z M91.8,115.2c-0.1,0-0.2-0.1-0.3-0.3c-0.4-1-0.8-2.1-1.1-3.1c-0.1-0.2,0.1-0.4,0.3-0.5
				c0.2-0.1,0.4,0.1,0.5,0.3c0,0,0,0,0,0c0.3,1,0.7,2.1,1.1,3.1c0.1,0.2,0,0.4-0.2,0.5c0,0,0,0,0,0
				C91.9,115.2,91.8,115.2,91.8,115.2L91.8,115.2z M400.3,191.4c-0.2,0-0.3-0.3-0.3-0.5c0.2-1.1,0.3-2.1,0.3-3.2
				c0-0.2,0.1-0.4,0.4-0.5c0.2,0,0.4,0.1,0.5,0.4c0,0,0,0.1,0,0.1c0,1.1-0.1,2.2-0.4,3.4C400.8,191.3,400.6,191.4,400.3,191.4
				L400.3,191.4z M158.6,129.7c-0.1,0-0.1,0-0.2-0.1c-0.2-0.1-0.2-0.4-0.1-0.6c0,0,0,0,0,0c0.7-0.8,1.4-1.7,2-2.6
				c0.1-0.2,0.4-0.2,0.6-0.1c0.2,0.1,0.2,0.4,0.1,0.6c-0.6,0.9-1.4,1.8-2.1,2.6C158.9,129.7,158.7,129.7,158.6,129.7L158.6,129.7z
				 M147.6,123.6c-0.2-0.1-0.4-0.3-0.3-0.5c0.3-1.1,0.5-2.1,0.7-3.2c0-0.2,0.3-0.4,0.5-0.3c0,0,0,0,0,0c0.2,0,0.4,0.2,0.3,0.5
				c0,0,0,0,0,0c-0.2,1.1-0.4,2.2-0.7,3.2C148.1,123.5,147.9,123.6,147.6,123.6L147.6,123.6L147.6,123.6z M89.8,108.9
				c-0.2,0-0.3-0.2-0.3-0.3c-0.2-1.1-0.4-2.2-0.6-3.3c0-0.2,0.1-0.4,0.3-0.5c0.2,0,0.4,0.1,0.5,0.3c0.2,1.1,0.4,2.2,0.6,3.2
				c0,0.2-0.1,0.4-0.3,0.5C89.9,108.9,89.9,108.9,89.8,108.9z M400.4,184.9c-0.2,0-0.3-0.2-0.3-0.3c-0.2-1.1-0.4-2.1-0.8-3.1
				c-0.1-0.2,0-0.5,0.3-0.5c0.2-0.1,0.5,0,0.5,0.3c0.4,1.1,0.6,2.2,0.8,3.3c0,0.2-0.1,0.4-0.4,0.5L400.4,184.9z M162.4,124.4h-0.1
				c-0.2-0.1-0.3-0.4-0.1-0.6c0,0,0,0,0,0c0.6-0.9,1.1-1.9,1.5-2.9c0.1-0.2,0.3-0.3,0.5-0.2c0,0,0,0,0,0c0.2,0.1,0.3,0.3,0.2,0.5
				c0,0,0,0,0,0c-0.5,1-1,2-1.6,2.9C162.8,124.3,162.6,124.4,162.4,124.4L162.4,124.4z M88.7,102.4c-0.2,0-0.3-0.2-0.3-0.4
				c-0.1-1.1-0.2-2.2-0.2-3.3c0-0.2,0.2-0.4,0.4-0.4c0,0,0,0,0,0c0.2,0,0.4,0.2,0.4,0.4c0,0,0,0,0,0c0,1.1,0.1,2.2,0.2,3.3
				c0,0.2-0.1,0.4-0.4,0.4C88.9,102.4,88.8,102.4,88.7,102.4L88.7,102.4z M148.7,117.1c-0.2,0-0.3-0.2-0.3-0.5
				c0.1-1.1,0.3-2.2,0.4-3.3c0-0.2,0.2-0.4,0.4-0.4c0.2,0,0.4,0.2,0.4,0.5l0,0c-0.1,1.1-0.2,2.2-0.4,3.3
				C149.2,117,149,117.2,148.7,117.1L148.7,117.1z M367.1,171.2c-0.9-0.2-1.8-0.5-2.7-0.8c-0.2-0.1-0.3-0.4-0.2-0.6
				c0.1-0.2,0.3-0.3,0.5-0.2c1,0.4,2,0.7,3.1,0.9c0.2,0,0.4,0.3,0.3,0.5l0,0c0,0.2-0.3,0.4-0.5,0.3L367.1,171.2z M370.8,171.8
				c-0.2-0.1-0.3-0.2-0.3-0.4c0-0.2,0.2-0.4,0.4-0.4c0,0,0,0,0.1,0c1,0.1,2,0.1,3.3,0.1c0.2,0,0.4,0.2,0.4,0.4l0,0
				c0,0.2-0.2,0.4-0.4,0.4l0,0c-1.2,0-2.3-0.1-3.3-0.1L370.8,171.8z M398.2,178.7c-0.1,0-0.2-0.1-0.3-0.2c-0.6-0.9-1.2-1.7-2-2.5
				c-0.2-0.2-0.2-0.4,0-0.6c0.2-0.2,0.4-0.2,0.6,0c0,0,0,0,0,0c0.8,0.8,1.5,1.7,2.1,2.6c0.1,0.2,0.1,0.4-0.1,0.6
				C398.4,178.7,398.3,178.7,398.2,178.7L398.2,178.7z M361.5,169L361.5,169c-1.1-0.5-2-1.1-2.9-1.8c-0.2-0.1-0.2-0.4-0.1-0.6
				c0.1-0.2,0.4-0.2,0.6-0.1c0.9,0.6,1.8,1.2,2.7,1.7c0.2,0.1,0.3,0.4,0.2,0.6c0,0,0,0,0,0C361.8,169,361.6,169.1,361.5,169z
				 M377.5,171.9c-0.2-0.1-0.3-0.2-0.3-0.4c0-0.2,0.2-0.4,0.4-0.4c0,0,0,0,0,0h1.1l2.2-0.1c0.2,0,0.4,0.2,0.4,0.4c0,0,0,0,0,0
				c0,0.2-0.2,0.4-0.4,0.4c0,0,0,0,0,0l-2.2,0.1h-1.1L377.5,171.9z M165.3,118.4L165.3,118.4c-0.2-0.1-0.3-0.3-0.3-0.5
				c0.4-1,0.7-2.1,1-3.1c0.1-0.2,0.3-0.4,0.5-0.3l0,0c0.2,0.1,0.3,0.3,0.3,0.5c-0.3,1.1-0.6,2.1-1,3.2
				C165.8,118.4,165.5,118.5,165.3,118.4C165.3,118.4,165.3,118.4,165.3,118.4z M356.2,165.1c-0.1,0-0.1,0-0.2-0.1
				c-0.8-0.8-1.5-1.6-2.2-2.6c-0.1-0.2-0.1-0.4,0.1-0.6c0.2-0.1,0.4-0.1,0.6,0.1c0.6,0.9,1.3,1.7,2.1,2.5c0.2,0.2,0.2,0.4,0,0.6
				c0,0,0,0,0,0C356.5,165.1,356.3,165.1,356.2,165.1L356.2,165.1z M384,171.8c-0.2-0.1-0.3-0.2-0.3-0.4c0-0.2,0.2-0.4,0.4-0.4
				c0,0,0,0,0,0c1.1,0,2.2,0.1,3.3,0.3c0.2,0,0.4,0.2,0.4,0.4c0,0,0,0,0,0c0,0.2-0.2,0.4-0.5,0.4C386.2,171.9,385.2,171.8,384,171.8
				L384,171.8z M393.5,174.1h-0.1c-0.9-0.5-1.9-1-2.9-1.3c-0.2-0.1-0.3-0.3-0.3-0.5c0,0,0,0,0,0c0.1-0.2,0.3-0.3,0.5-0.3
				c0,0,0,0,0,0c1.1,0.3,2.1,0.8,3.1,1.4c0.2,0.1,0.3,0.4,0.2,0.6c0,0,0,0,0,0C393.9,174.1,393.7,174.1,393.5,174.1L393.5,174.1z
				 M88.7,95.8c-0.2,0-0.3-0.2-0.3-0.4c0.1-1.1,0.2-2.2,0.3-3.3c0-0.2,0.2-0.4,0.5-0.4c0.2,0,0.4,0.2,0.4,0.5c0,0,0,0,0,0
				c-0.1,1.1-0.2,2.2-0.3,3.3C89.2,95.6,89,95.8,88.7,95.8C88.8,95.8,88.8,95.8,88.7,95.8L88.7,95.8z M149.4,110.5
				c-0.2,0-0.3-0.2-0.3-0.4c0-1.1,0.1-2.2,0.1-3.3c0-0.2,0.2-0.4,0.4-0.4c0,0,0,0,0,0c0.2,0,0.4,0.2,0.4,0.4v0c0,1.1,0,2.2-0.1,3.3
				C149.9,110.4,149.7,110.6,149.4,110.5C149.5,110.5,149.5,110.5,149.4,110.5L149.4,110.5z M356.9,162.2L356.9,162.2
				c-1.1-0.3-2.1-0.8-3.1-1.3c-0.2-0.1-0.3-0.4-0.2-0.6c0.1-0.2,0.4-0.3,0.6-0.1c0.9,0.5,1.9,0.9,3,1.3c0.2,0.1,0.3,0.3,0.3,0.5
				C357.4,162.1,357.1,162.3,356.9,162.2L356.9,162.2L356.9,162.2z M360.1,162.9c-0.2,0-0.4-0.3-0.3-0.5c0-0.2,0.3-0.4,0.5-0.3l0,0
				c1.1,0.1,2.1,0.2,3.2,0.2c0.2,0,0.4,0.2,0.4,0.4c0,0.2-0.2,0.4-0.4,0.4C362.4,163.2,361.2,163.1,360.1,162.9L360.1,162.9z
				 M352.3,159.7c-0.1,0-0.2-0.1-0.3-0.2l-0.1-0.3c-0.1-0.2-0.2-0.4-0.3-0.6c0,0.1,0,0.1-0.1,0.2c-0.2,0.2-0.4,0.2-0.6,0
				c0,0,0,0,0,0c-0.9-0.7-1.6-1.5-2.4-2.4c-0.1-0.2-0.1-0.4,0-0.6c0,0,0,0,0,0c0.2-0.1,0.4-0.1,0.6,0.1c0.7,0.8,1.4,1.6,2.2,2.3
				c-0.2-0.6-0.5-1.3-0.6-1.9c-0.1-0.2,0.1-0.4,0.3-0.5c0.2-0.1,0.4,0.1,0.5,0.3c0.3,0.9,0.6,1.8,1,2.7l0.1,0.3
				c0.1,0.2,0,0.5-0.2,0.6C352.5,159.7,352.4,159.7,352.3,159.7z M366.7,162.8c-0.2,0-0.3-0.2-0.3-0.3c0-0.2,0.1-0.4,0.3-0.5
				c0,0,0,0,0,0c1.1-0.2,2.1-0.4,3.1-0.8c0.2-0.1,0.4,0.1,0.5,0.3c0.1,0.2-0.1,0.4-0.3,0.5c-1.1,0.3-2.2,0.6-3.3,0.8
				C366.8,162.9,366.7,162.8,366.7,162.8z M167,112.1c-0.2-0.1-0.3-0.3-0.3-0.5c0.1-0.9,0.3-1.9,0.3-2.8v-0.4c0-0.2,0.2-0.4,0.4-0.4
				c0,0,0,0,0,0c0.2,0,0.4,0.2,0.4,0.4c0,0,0,0,0,0v0.5c-0.1,1-0.2,1.9-0.3,2.9C167.5,111.9,167.3,112.1,167,112.1
				C167.1,112.1,167,112.1,167,112.1L167,112.1z M373,160.9c-0.1,0-0.2-0.1-0.3-0.2c-0.1-0.2,0-0.4,0.2-0.5c0,0,0,0,0,0l0.1-0.1
				c0.9-0.5,1.7-1.1,2.4-1.8c0.2-0.2,0.4-0.2,0.6,0c0.2,0.2,0.2,0.4,0,0.6c-0.7,0.8-1.6,1.5-2.6,2l-0.1,0.1
				C373.1,160.9,373,160.9,373,160.9L373,160.9z M347,153.9c-0.1,0-0.2-0.1-0.3-0.2c-0.5-0.8-0.9-1.7-1.3-2.6l-0.2-0.4
				c-0.1-0.2,0-0.5,0.2-0.5c0.2-0.1,0.4,0,0.5,0.2l0.2,0.4c0.4,0.9,0.8,1.7,1.3,2.5c0.1,0.2,0,0.4-0.2,0.6c0,0,0,0,0,0
				C347.2,153.9,347.1,154,347,153.9z M89.5,89.2c-0.2-0.1-0.3-0.3-0.3-0.5c0.2-0.8,0.3-1.7,0.6-2.5c0.1-0.3,0.1-0.5,0.2-0.7
				c0.1-0.2,0.3-0.3,0.5-0.3c0.2,0.1,0.3,0.3,0.3,0.5c-0.1,0.2-0.1,0.4-0.2,0.7c-0.2,0.8-0.4,1.7-0.6,2.5
				C89.9,89.1,89.7,89.3,89.5,89.2C89.5,89.2,89.5,89.2,89.5,89.2L89.5,89.2z M149.5,103.9c-0.2,0-0.3-0.2-0.3-0.4
				c0-1.1-0.1-2.2-0.2-3.3c0-0.2,0.1-0.4,0.4-0.4c0.2,0,0.4,0.1,0.4,0.4c0.1,1.1,0.2,2.2,0.2,3.3c0,0.2-0.2,0.4-0.4,0.4c0,0,0,0,0,0
				L149.5,103.9z M350.6,153.4c-0.2,0-0.3-0.2-0.3-0.4c-0.1-1.1-0.1-2.2,0-3.4c0-0.2,0.2-0.4,0.4-0.4s0.4,0.2,0.4,0.4l0,0
				c-0.1,1.1-0.1,2.1,0,3.2c0,0.2-0.1,0.4-0.4,0.4c0,0,0,0,0,0L350.6,153.4z M167.4,105.5c-0.2-0.1-0.3-0.2-0.3-0.4
				c0-1-0.1-2.1-0.2-3.3c0-0.2,0.1-0.4,0.4-0.4c0,0,0,0,0,0c0.2,0,0.4,0.1,0.4,0.4c0,0,0,0,0,0c0.1,1.1,0.2,2.3,0.2,3.3
				c0,0.2-0.2,0.4-0.4,0.4c0,0,0,0,0,0L167.4,105.5z M377.4,156.2C377.4,156.2,377.4,156.2,377.4,156.2c-0.3-0.1-0.4-0.3-0.3-0.6
				c0.5-1,0.9-2,1.1-3c0.1-0.2,0.3-0.3,0.5-0.3c0.2,0.1,0.3,0.3,0.3,0.5c-0.3,1.1-0.7,2.2-1.2,3.2
				C377.8,156.2,377.6,156.2,377.4,156.2L377.4,156.2z M344.5,147.9c-0.1,0-0.3-0.1-0.3-0.3c-0.3-1.1-0.6-2.1-0.8-3.2
				c0-0.2,0.1-0.4,0.4-0.4c0.2,0,0.4,0.1,0.4,0.3c0.2,1.1,0.5,2.1,0.8,3.2c0.1,0.2-0.1,0.4-0.3,0.5c0,0,0,0,0,0
				C344.6,147.9,344.6,147.9,344.5,147.9z M148.9,97.4c-0.2,0-0.3-0.2-0.3-0.3c-0.1-1.1-0.3-2.2-0.5-3.2c0-0.2,0.1-0.4,0.3-0.5
				c0,0,0,0,0,0c0.2,0,0.4,0.1,0.5,0.3c0.2,1.1,0.4,2.2,0.5,3.3c0,0.2-0.1,0.4-0.3,0.5c0,0,0,0,0,0C149,97.4,149,97.4,148.9,97.4z
				 M91.2,82.9L91.2,82.9c-0.2-0.1-0.3-0.3-0.2-0.5c0,0,0,0,0,0c0.4-1,0.8-2.1,1.3-3.1c0.1-0.2,0.3-0.3,0.5-0.2c0,0,0,0,0,0
				c0.2,0.1,0.3,0.3,0.2,0.5c-0.5,1-0.9,2-1.3,3C91.7,82.8,91.4,83,91.2,82.9C91.2,82.9,91.2,82.9,91.2,82.9z M351.1,146.9
				L351.1,146.9c-0.2-0.1-0.4-0.3-0.3-0.5c0,0,0,0,0,0c0.3-1.1,0.7-2.2,1.2-3.2c0.1-0.2,0.3-0.3,0.5-0.2c0.2,0.1,0.3,0.3,0.2,0.5
				c0,0,0,0,0,0c-0.5,1-0.8,2-1.1,3C351.6,146.8,351.4,146.9,351.1,146.9C351.1,146.9,351.1,146.9,351.1,146.9z M166.7,98.9
				c-0.2,0-0.3-0.2-0.3-0.3c-0.2-1.1-0.3-2.2-0.5-3.2c0-0.2,0.1-0.4,0.3-0.5c0.2,0,0.4,0.1,0.5,0.3l0,0c0.2,1.1,0.4,2.2,0.5,3.3
				c0,0.2-0.1,0.4-0.3,0.5c0,0,0,0,0,0L166.7,98.9z M343.2,141.4c-0.2,0-0.3-0.2-0.3-0.4c-0.1-1.1-0.2-2.2-0.3-3.3
				c0-0.2,0.3-0.4,0.5-0.4c0.2,0,0.3,0.2,0.4,0.4c0,1.1,0.1,2.2,0.3,3.3c0,0.2-0.1,0.4-0.4,0.5c0,0,0,0,0,0L343.2,141.4z
				 M379.1,149.8c-0.2,0-0.3-0.2-0.3-0.4c0.1-1.1,0.1-2.2-0.1-3.2c0-0.2,0.1-0.4,0.4-0.4c0,0,0,0,0,0c0.2,0,0.4,0.1,0.4,0.3
				c0,0,0,0,0,0c0.1,1.1,0.1,2.2,0.1,3.4C379.6,149.7,379.4,149.8,379.1,149.8L379.1,149.8z M147.8,90.8c-0.1,0-0.3-0.2-0.3-0.3
				c-0.3-1-0.5-2.1-0.9-3.2c-0.1-0.2,0.1-0.4,0.3-0.5c0,0,0,0,0,0c0.2-0.1,0.4,0.1,0.5,0.3c0.3,1.1,0.6,2.1,0.9,3.2
				c0.1,0.2-0.1,0.4-0.3,0.5c0,0,0,0,0,0C147.9,90.9,147.8,90.9,147.8,90.8L147.8,90.8z M94,76.9L94,76.9c-0.3-0.1-0.4-0.4-0.3-0.6
				c0.6-1,1.2-1.9,1.8-2.8c0.1-0.2,0.4-0.2,0.6-0.1c0.2,0.1,0.2,0.4,0.1,0.6c-0.6,0.9-1.2,1.8-1.7,2.8C94.4,76.9,94.2,77,94,76.9z
				 M354,141c-0.1,0-0.1,0-0.1-0.1c-0.2-0.1-0.2-0.4-0.1-0.6c0,0,0,0,0,0c0.6-0.8,1.3-1.5,2-2.2l0.3-0.3c0.2-0.1,0.5-0.1,0.6,0.1
				c0.1,0.2,0.1,0.4,0,0.5l-0.3,0.3c-0.7,0.6-1.3,1.3-1.9,2.1C354.3,141,354.2,141,354,141z M165.6,92.4c-0.2,0-0.3-0.2-0.3-0.3
				l-0.6-3.2c0-0.2,0.1-0.4,0.3-0.5c0,0,0,0,0,0c0.2,0,0.4,0.1,0.5,0.3c0,0,0,0,0,0l0.6,3.2c0,0.2-0.1,0.4-0.3,0.5L165.6,92.4z
				 M343,134.8c-0.2,0-0.3-0.2-0.3-0.4c0-1.1,0.1-2.2,0.3-3.3c0-0.2,0.2-0.4,0.5-0.4c0.2,0,0.4,0.2,0.4,0.5
				c-0.1,1.1-0.3,2.1-0.3,3.2C343.5,134.7,343.3,134.8,343,134.8C343.1,134.8,343.1,134.8,343,134.8L343,134.8z M378.4,143.4
				c-0.1,0-0.2-0.1-0.3-0.3c-0.3-1-0.8-2-1.4-2.8c-0.1-0.2-0.1-0.4,0.1-0.6c0.2-0.1,0.4-0.1,0.6,0.1c0.6,0.9,1.1,2,1.5,3.1
				c0.1,0.2,0,0.4-0.2,0.5c0,0,0,0,0,0C378.6,143.4,378.5,143.4,378.4,143.4L378.4,143.4z M145.8,84.6c-0.1,0-0.2-0.1-0.3-0.3
				c-0.4-1-0.8-2-1.3-3c-0.1-0.2,0-0.5,0.2-0.6c0.2-0.1,0.4,0,0.5,0.2c0.5,1,0.9,2,1.3,3.1c0.1,0.2,0,0.4-0.2,0.5c0,0,0,0,0,0
				C146,84.6,145.9,84.6,145.8,84.6z M97.7,71.5c-0.1,0-0.1-0.1-0.2-0.1c-0.2-0.1-0.2-0.4-0.1-0.5c0,0,0,0,0,0
				c0.7-0.9,1.5-1.7,2.2-2.5c0.2-0.2,0.4-0.2,0.6,0s0.2,0.4,0,0.6c-0.8,0.8-1.5,1.6-2.2,2.4C98,71.4,97.8,71.5,97.7,71.5z
				 M359,136.8c-0.2-0.1-0.4-0.3-0.3-0.5c0-0.1,0.1-0.2,0.2-0.3c1-0.5,2.1-0.9,3.2-1.1c0.2-0.1,0.4,0.1,0.5,0.3c0,0,0,0,0,0
				c0.1,0.2-0.1,0.4-0.3,0.5c0,0,0,0,0,0c-1,0.3-2,0.6-3,1.1C359.2,136.8,359.1,136.8,359,136.8z M164.3,86c-0.2,0-0.3-0.2-0.3-0.3
				c-0.2-1.2-0.4-2.3-0.5-3.3c0-0.2,0.1-0.4,0.4-0.5c0.2,0,0.4,0.1,0.5,0.4c0.1,1,0.3,2.1,0.5,3.2c0,0.2-0.1,0.4-0.3,0.5
				C164.5,86,164.4,86,164.3,86z M374.6,138.1c-0.1,0-0.1,0-0.2-0.1c-0.8-0.6-1.8-1.2-2.7-1.6c-0.2-0.1-0.3-0.3-0.3-0.5
				s0.3-0.3,0.5-0.3c0,0,0.1,0,0.1,0c1,0.4,2,1,2.9,1.7c0.2,0.1,0.2,0.4,0.1,0.6c0,0,0,0,0,0C374.9,138.1,374.8,138.1,374.6,138.1
				L374.6,138.1z M365.4,135.3c-0.2,0-0.3-0.2-0.3-0.4c0-0.2,0.2-0.4,0.4-0.4c0,0,0,0,0,0c1.1,0,2.3,0,3.4,0.2
				c0.2,0,0.4,0.3,0.3,0.5c0,0.2-0.2,0.4-0.5,0.3c0,0,0,0,0,0c-1.1-0.2-2.1-0.3-3.2-0.2L365.4,135.3z M143.1,78.6
				c-0.1,0-0.2-0.1-0.3-0.2c-0.5-1-1.1-1.9-1.6-2.8c-0.1-0.2-0.1-0.4,0.1-0.6c0,0,0,0,0,0c0.2-0.1,0.4-0.1,0.6,0.1c0,0,0,0,0,0
				c0.6,0.9,1.2,1.9,1.7,2.9c0.1,0.2,0,0.5-0.2,0.6C143.3,78.6,143.2,78.6,143.1,78.6z M343.9,128.3L343.9,128.3
				c-0.2-0.1-0.3-0.3-0.3-0.5c0.2-0.9,0.5-1.8,0.9-2.7l0.2-0.5c0.1-0.2,0.3-0.3,0.5-0.3s0.3,0.3,0.3,0.5c0,0,0,0,0,0.1l-0.2,0.5
				c-0.3,0.8-0.6,1.7-0.8,2.6C344.4,128.2,344.1,128.4,343.9,128.3C343.9,128.3,343.9,128.3,343.9,128.3z M102.3,66.8
				c-0.1,0-0.2-0.1-0.2-0.1c-0.1-0.2-0.1-0.4,0-0.6c0,0,0,0,0,0c0.9-0.7,1.8-1.4,2.7-2c0.2-0.1,0.4-0.1,0.6,0.1c0,0,0,0,0,0
				c0.1,0.2,0.1,0.4-0.1,0.6c-0.9,0.6-1.8,1.2-2.6,1.9C102.6,66.8,102.4,66.8,102.3,66.8z M163.5,79.4c-0.2,0-0.3-0.2-0.3-0.4
				c-0.1-1.2-0.1-2.3-0.1-3.3c0-0.2,0.2-0.4,0.4-0.4s0.4,0.2,0.4,0.4c0,1,0.1,2.1,0.2,3.3c0,0.2-0.2,0.4-0.4,0.4c0,0,0,0,0,0
				C163.6,79.4,163.5,79.4,163.5,79.4z M139.5,73c-0.1,0-0.2-0.1-0.2-0.2c-0.7-0.9-1.4-1.7-2.1-2.5c-0.2-0.2-0.2-0.4,0-0.6
				c0.2-0.2,0.4-0.2,0.6,0c0,0,0,0,0,0c0.7,0.8,1.4,1.7,2.1,2.6c0.1,0.2,0.1,0.4-0.1,0.6C139.7,73,139.6,73,139.5,73L139.5,73z
				 M107.8,63.2c-0.1,0-0.2-0.1-0.3-0.2c-0.1-0.2,0-0.4,0.2-0.5c0,0,0,0,0,0c1-0.5,2-0.9,3.1-1.3c0.2-0.1,0.4,0,0.5,0.3c0,0,0,0,0,0
				c0.1,0.2,0,0.4-0.3,0.5c-1,0.3-2,0.7-3,1.2C108,63.2,107.9,63.2,107.8,63.2L107.8,63.2z M346.2,122.1L346.2,122.1
				c-0.3-0.1-0.4-0.3-0.3-0.5c0,0,0,0,0,0c0.5-1.1,0.9-2.1,1.4-3c0.1-0.2,0.3-0.3,0.5-0.2c0,0,0,0,0,0c0.2,0.1,0.3,0.3,0.2,0.5
				c0,0,0,0,0,0c-0.4,0.9-0.9,1.9-1.4,3C346.6,122.1,346.4,122.2,346.2,122.1z M135.2,68.1c-0.1,0-0.1-0.1-0.2-0.1
				c-0.8-0.7-1.6-1.4-2.5-2.1c-0.2-0.1-0.2-0.4-0.1-0.6c0.1-0.2,0.4-0.2,0.6-0.1c0.9,0.7,1.7,1.4,2.6,2.2c0.2,0.2,0.2,0.4,0,0.6
				C135.5,68.1,135.3,68.2,135.2,68.1L135.2,68.1z M114.1,61.1c-0.2,0-0.4-0.2-0.3-0.5c0-0.2,0.2-0.3,0.3-0.3
				c1.1-0.2,2.2-0.3,3.3-0.3c0.2,0,0.4,0.2,0.4,0.4c0,0,0,0,0,0c0,0.2-0.2,0.4-0.4,0.4c-1.1,0-2.2,0.1-3.2,0.3
				C114.2,61.2,114.1,61.2,114.1,61.1L114.1,61.1z M163.5,72.8c-0.2,0-0.3-0.2-0.3-0.4c0.1-1.1,0.2-2.2,0.5-3.3
				c0-0.2,0.3-0.4,0.5-0.3c0,0,0,0,0,0c0.2,0,0.4,0.2,0.3,0.5c0,0,0,0,0,0c-0.2,1-0.4,2.1-0.4,3.2C164,72.7,163.8,72.8,163.5,72.8
				L163.5,72.8z M130,64.2h-0.1c-0.9-0.6-1.9-1-2.9-1.5c-0.2-0.1-0.3-0.3-0.2-0.5c0,0,0,0,0,0c0.1-0.2,0.3-0.3,0.5-0.2c0,0,0,0,0,0
				c1,0.4,2,0.9,3,1.5c0.2,0.1,0.3,0.4,0.1,0.6C130.3,64.2,130.1,64.2,130,64.2L130,64.2z M120.6,61c-0.2-0.1-0.3-0.2-0.3-0.5
				c0-0.2,0.2-0.4,0.5-0.4c0,0,0,0,0,0c1.1,0.1,2.2,0.3,3.3,0.6c0.2,0.1,0.3,0.3,0.3,0.5c-0.1,0.2-0.3,0.4-0.5,0.3c0,0,0,0,0,0
				C122.8,61.3,121.8,61.1,120.6,61L120.6,61z M349.1,116.2H349c-0.2-0.1-0.3-0.4-0.1-0.6c0.6-1,1.1-2,1.7-2.8
				c0.1-0.2,0.4-0.2,0.6-0.1c0.2,0.1,0.2,0.4,0.1,0.6c0,0,0,0,0,0c-0.6,0.8-1.1,1.8-1.7,2.8C349.4,116.2,349.2,116.3,349.1,116.2
				L349.1,116.2z M164.7,66.4L164.7,66.4c-0.2-0.1-0.3-0.3-0.3-0.5c0,0,0,0,0,0c0.4-1.1,0.8-2.1,1.3-3.1c0.1-0.2,0.3-0.3,0.6-0.2
				s0.3,0.3,0.2,0.6l0,0c-0.5,1-0.9,2-1.2,3C165.2,66.4,164.9,66.5,164.7,66.4z M352.7,110.8c-0.1,0-0.1-0.1-0.2-0.1
				c-0.2-0.1-0.2-0.4,0-0.6c0.7-0.9,1.5-1.7,2.3-2.4c0.2-0.2,0.4-0.2,0.6,0c0,0,0,0,0,0c0.2,0.2,0.2,0.4,0,0.6c0,0,0,0,0,0
				c-0.8,0.7-1.5,1.5-2.2,2.3C353.1,110.7,352.9,110.8,352.7,110.8L352.7,110.8z M191.2,67c-0.2-0.1-0.3-0.3-0.3-0.5
				c0.1-0.2,0.2-0.3,0.4-0.3c1.1,0.2,2.1,0.2,3.2,0.2c0.2,0,0.4,0.2,0.4,0.4c0,0.2-0.2,0.4-0.4,0.4C193.5,67.3,192.3,67.2,191.2,67
				L191.2,67z M188.1,66.2L188.1,66.2c-1-0.4-2-0.9-3-1.5c-0.2-0.1-0.3-0.4-0.1-0.5c0,0,0,0,0,0c0.1-0.2,0.4-0.3,0.6-0.1
				c0,0,0,0,0,0c0.9,0.6,1.9,1,2.9,1.4c0.2,0.1,0.3,0.3,0.3,0.5c0,0,0,0,0,0C188.6,66.1,188.3,66.3,188.1,66.2
				C188.1,66.2,188.1,66.2,188.1,66.2L188.1,66.2z M167.6,60.4c0,0-0.1,0-0.1-0.1c-0.2-0.1-0.2-0.4-0.1-0.6c0,0,0,0,0,0
				c0.6-0.9,1.3-1.8,2-2.7c0.2-0.2,0.4-0.1,0.6,0c0.1,0.1,0.1,0.3,0,0.5c-0.7,0.8-1.4,1.7-2,2.7C167.9,60.4,167.7,60.5,167.6,60.4
				L167.6,60.4z M182.4,62.8c-0.1,0-0.1-0.1-0.2-0.1c-0.8-0.7-1.6-1.5-2.4-2.4c-0.1-0.2-0.1-0.4,0-0.6s0.4-0.1,0.6,0l0,0
				c0.7,0.8,1.5,1.6,2.3,2.3c0.2,0.2,0.2,0.4,0,0.6C182.7,62.8,182.6,62.8,182.4,62.8L182.4,62.8z M197.7,66.6
				c-0.1,0-0.2-0.1-0.3-0.3c-0.1-0.2,0-0.4,0.2-0.5c0,0,0,0,0,0c1-0.3,1.9-0.9,2.7-1.6c0.2-0.2,0.4-0.1,0.6,0c0.2,0.2,0.1,0.4,0,0.6
				l0,0c-0.9,0.8-1.9,1.4-3,1.7C197.9,66.6,197.8,66.6,197.7,66.6L197.7,66.6z M357.6,106.3c-0.1,0-0.2-0.1-0.2-0.2
				c-0.1-0.2-0.1-0.4,0.1-0.6l0.9-0.7c0.6-0.4,1.2-0.9,1.8-1.3c0.2-0.1,0.4-0.1,0.6,0.1c0,0,0,0,0,0c0.1,0.2,0.1,0.4-0.1,0.6
				c0,0,0,0,0,0c-0.6,0.4-1.1,0.8-1.8,1.3l-0.9,0.7C357.8,106.3,357.7,106.3,357.6,106.3L357.6,106.3z M385.3,112.4
				c-0.2-0.1-0.3-0.2-0.3-0.4c0.1-1,0-2.1-0.2-3.1c-0.1-0.2,0.1-0.4,0.3-0.5c0.2-0.1,0.4,0.1,0.5,0.3c0,0,0,0,0,0
				c0.3,1.1,0.4,2.3,0.3,3.4C385.8,112.3,385.6,112.5,385.3,112.4L385.3,112.4z M178.1,57.9c-0.1,0-0.2-0.1-0.2-0.2
				c-0.6-0.9-1.2-1.9-1.7-2.9c-0.1-0.2,0-0.5,0.2-0.6c0.2-0.1,0.5,0,0.6,0.2l0,0c0.5,1,1,1.9,1.6,2.8c0.1,0.2,0.1,0.4-0.1,0.6
				C178.3,57.9,178.2,57.9,178.1,57.9z M171.8,55.4c-0.1,0-0.1-0.1-0.2-0.1c-0.2-0.2-0.2-0.4,0-0.6c0.8-0.8,1.7-1.5,2.5-2.2
				c0.2-0.1,0.4-0.1,0.6,0.1c0.1,0.2,0.1,0.4-0.1,0.6c-0.9,0.7-1.7,1.4-2.5,2.1C172,55.4,171.9,55.4,171.8,55.4z M363,102.6
				c-0.1,0-0.2-0.1-0.3-0.2c-0.1-0.2,0-0.4,0.2-0.6c0,0,0,0,0,0c1-0.5,2-1,3-1.4c0.2-0.1,0.5,0,0.5,0.3c0.1,0.2,0,0.4-0.2,0.5
				c0,0,0,0,0,0c-1,0.4-2,0.8-2.9,1.4C363.2,102.6,363.1,102.6,363,102.6z M202.5,62.3L202.5,62.3c-0.3-0.1-0.4-0.3-0.3-0.5
				c0.2-0.4,0.3-0.8,0.4-1.2c0.2-0.6,0.2-1.2,0.2-1.8c0-0.2,0.2-0.4,0.4-0.4l0,0c0.2,0,0.4,0.2,0.4,0.4c0,0.7-0.1,1.3-0.3,2
				c-0.1,0.5-0.3,0.9-0.4,1.3C202.9,62.3,202.7,62.4,202.5,62.3z M383.7,106.2c-0.1,0-0.2-0.1-0.3-0.2c-0.6-0.9-1.3-1.7-2.1-2.4
				c-0.2-0.2-0.2-0.4,0-0.6c0,0,0,0,0,0c0.2-0.2,0.4-0.2,0.6,0c0,0,0,0,0,0c0.8,0.8,1.6,1.6,2.2,2.6c0.1,0.2,0.1,0.4-0.1,0.6
				C384,106.2,383.8,106.2,383.7,106.2L383.7,106.2z M175.2,52c-0.1,0-0.2-0.1-0.3-0.3c-0.4-1.1-0.7-2.1-0.9-3.2
				c0-0.2,0.1-0.4,0.3-0.5s0.4,0.1,0.5,0.3c0.2,1.1,0.5,2.1,0.9,3.1c0.1,0.2,0,0.4-0.3,0.5c0,0,0,0,0,0C175.4,52,175.3,52,175.2,52z
				 M369.2,100.5c-0.2,0-0.3-0.2-0.3-0.3c0-0.2,0.1-0.4,0.4-0.5c0,0,0,0,0,0c1.1-0.1,2.2-0.1,3.4-0.1c0.2,0,0.4,0.2,0.4,0.4
				c0,0,0,0,0,0c0,0.2-0.2,0.4-0.4,0.4c-1.1-0.1-2.1-0.1-3.2,0.1L369.2,100.5z M177,51.4c-0.1,0-0.2-0.1-0.3-0.2
				c-0.1-0.2,0-0.4,0.1-0.6c1-0.6,2-1.1,3-1.5c0.2-0.1,0.4,0,0.5,0.2c0.1,0.2,0,0.5-0.2,0.5c-1,0.4-2,0.9-2.9,1.5
				C177.2,51.4,177.1,51.5,177,51.4z M378.9,101.8C378.9,101.8,378.8,101.8,378.9,101.8c-1-0.5-2-0.8-3.1-1c-0.2,0-0.4-0.3-0.3-0.5
				c0-0.2,0.3-0.4,0.5-0.3c0,0,0,0,0,0c1.1,0.2,2.2,0.5,3.2,1.1c0.2,0.1,0.3,0.3,0.2,0.5c0,0,0,0,0,0
				C379.3,101.8,379.1,101.8,378.9,101.8L378.9,101.8z M202.6,55.9c-0.1,0-0.2-0.1-0.3-0.3c-0.3-1-0.8-2-1.4-2.8
				c-0.1-0.2-0.1-0.4,0.1-0.6c0.2-0.1,0.4-0.1,0.6,0.1c0.7,0.9,1.2,1.9,1.6,3c0.1,0.2,0,0.4-0.3,0.5c0,0,0,0,0,0
				C202.8,55.9,202.7,55.9,202.6,55.9z M183,48.8c-0.1,0-0.3-0.1-0.3-0.3c-0.1-0.2,0.1-0.4,0.3-0.5c0,0,0,0,0,0
				c0.9-0.3,1.8-0.5,2.6-0.6l0.6-0.1c0.2,0,0.4,0.1,0.5,0.3c0,0.2-0.1,0.4-0.3,0.5l-0.6,0.1c-0.9,0.2-1.7,0.4-2.6,0.6
				C183.2,48.8,183.1,48.8,183,48.8z M173.8,45.6c-0.2,0-0.3-0.2-0.3-0.4c-0.1-1.1-0.2-2.2-0.2-3.3c0-0.2,0.2-0.4,0.4-0.4
				c0.2,0,0.4,0.2,0.4,0.4v0c0,1.1,0,2.2,0.1,3.3c0,0.2-0.1,0.4-0.4,0.5C173.9,45.6,173.8,45.6,173.8,45.6L173.8,45.6z M198.8,50.6
				c-0.1,0-0.1,0-0.1-0.1c-0.8-0.6-1.8-1.1-2.7-1.5c-0.2-0.1-0.3-0.3-0.2-0.5c0.1-0.2,0.3-0.3,0.5-0.2c0,0,0,0,0,0
				c1.1,0.4,2.1,1,3,1.7c0.2,0.1,0.2,0.4,0.1,0.6C199.2,50.6,199,50.7,198.8,50.6L198.8,50.6z M189.5,47.8c-0.2-0.1-0.3-0.2-0.3-0.4
				c0-0.2,0.2-0.4,0.4-0.4c0,0,0,0,0,0c1.1,0,2.2,0.1,3.4,0.3c0.2,0,0.4,0.3,0.3,0.5c0,0,0,0,0,0c0,0.2-0.2,0.4-0.5,0.3c0,0,0,0,0,0
				C191.7,47.9,190.7,47.8,189.5,47.8L189.5,47.8z M229.1,55.8L229.1,55.8c-0.2-0.1-0.3-0.3-0.3-0.5c0.2-0.6,0.4-1.2,0.5-1.8
				s0.2-0.9,0.3-1.4c0-0.2,0.2-0.4,0.5-0.3c0,0,0,0,0,0c0.2,0,0.4,0.3,0.3,0.5c0,0,0,0,0,0c-0.1,0.5-0.2,1-0.3,1.4s-0.3,1.2-0.5,1.8
				C229.5,55.8,229.3,55.9,229.1,55.8C229.1,55.9,229.1,55.9,229.1,55.8L229.1,55.8z M173.9,39c-0.2,0-0.3-0.2-0.3-0.5
				c0.1-1.1,0.3-2.2,0.6-3.3c0-0.2,0.3-0.4,0.5-0.3c0,0,0,0,0,0c0.2,0,0.4,0.3,0.3,0.5c0,0,0,0,0,0l0,0c-0.3,1-0.5,2.1-0.6,3.2
				C174.3,38.9,174.1,39,173.9,39L173.9,39z M230.4,49.4c-0.2,0-0.3-0.2-0.3-0.4c0.1-1.1,0.1-2.2,0.1-3.3c0-0.2,0.3-0.4,0.5-0.4
				c0.2,0,0.3,0.2,0.4,0.4c0,1.1,0,2.2-0.1,3.3C230.9,49.3,230.7,49.4,230.4,49.4C230.5,49.4,230.5,49.4,230.4,49.4L230.4,49.4z
				 M175.5,32.6L175.5,32.6c-0.3-0.1-0.4-0.3-0.3-0.5c0.4-1,0.9-2,1.4-3c0.1-0.2,0.4-0.3,0.6-0.2c0.2,0.1,0.3,0.3,0.2,0.5
				c0,0,0,0,0,0c-0.5,0.9-0.9,1.9-1.3,2.9C175.9,32.6,175.7,32.7,175.5,32.6z M230.3,42.8c-0.2,0-0.3-0.2-0.3-0.3
				c-0.1-1.1-0.3-2.1-0.6-3.2c-0.1-0.2,0.1-0.4,0.3-0.5c0.2-0.1,0.4,0.1,0.5,0.3c0.3,1.1,0.4,2.2,0.6,3.3c0,0.2-0.1,0.4-0.4,0.5
				C230.3,42.8,230.3,42.8,230.3,42.8z M178.7,26.9l-0.1-0.1c-0.2-0.1-0.2-0.4-0.1-0.6c0,0,0,0,0,0c0.7-0.9,1.4-1.7,2.2-2.5
				c0.2-0.2,0.4-0.2,0.6,0c0.2,0.2,0.2,0.4,0,0.6c0,0,0,0,0,0c-0.8,0.8-1.5,1.6-2.1,2.5C179,26.9,178.8,26.9,178.7,26.9z
				 M228.8,36.4c-0.1,0-0.2-0.1-0.3-0.3c-0.4-1-0.7-2-1.2-3c-0.1-0.2,0-0.4,0.2-0.5c0.2-0.1,0.4,0,0.5,0.2c0,0,0,0,0,0
				c0.5,1,0.9,2,1.2,3.1c0.1,0.2,0,0.4-0.3,0.5c0,0,0,0,0,0C228.9,36.4,228.9,36.4,228.8,36.4L228.8,36.4z M183.3,22.2
				c-0.1,0-0.2-0.1-0.2-0.1c-0.1-0.2-0.1-0.4,0.1-0.6c0,0,0,0,0,0c0.9-0.7,1.8-1.3,2.8-1.9c0.2-0.1,0.4,0,0.6,0.1
				c0.1,0.2,0.1,0.4-0.1,0.6c0,0,0,0,0,0c-0.9,0.6-1.8,1.2-2.7,1.8C183.5,22.2,183.4,22.2,183.3,22.2z M226.1,30.4
				c-0.1,0-0.2-0.1-0.3-0.2c-0.6-0.9-1.1-1.9-1.8-2.7c-0.1-0.2,0-0.4,0.1-0.6c0.2-0.1,0.4-0.1,0.5,0.1c0.7,0.9,1.3,1.8,1.8,2.8
				c0.1,0.2,0.1,0.4-0.1,0.5c0,0,0,0,0,0C226.3,30.4,226.2,30.4,226.1,30.4z M188.9,18.8c-0.1,0-0.2-0.1-0.3-0.2
				c-0.1-0.2,0-0.4,0.2-0.5c1-0.5,2.1-0.9,3.2-1.2c0.2-0.1,0.4,0,0.5,0.3c0.1,0.2,0,0.4-0.3,0.5l0,0c-1,0.3-2,0.7-3,1.2
				C189.2,18.8,189,18.8,188.9,18.8z M222.2,25.1c-0.1,0-0.2,0-0.2-0.1c-0.7-0.8-1.5-1.6-2.3-2.3c-0.2-0.2-0.2-0.4,0-0.6
				c0.2-0.2,0.4-0.2,0.6,0l0,0c0.8,0.7,1.6,1.5,2.4,2.3c0.2,0.2,0.2,0.4,0,0.6c0,0,0,0,0,0C222.5,25.1,222.3,25.1,222.2,25.1z
				 M195.2,16.8c-0.2-0.1-0.4-0.3-0.3-0.5c0-0.1,0.2-0.3,0.3-0.3c1.1-0.2,2.2-0.4,3.3-0.5c0.2,0,0.4,0.1,0.5,0.4
				c0,0.2-0.1,0.4-0.4,0.5c-1.1,0.1-2.1,0.3-3.2,0.5C195.3,16.8,195.2,16.8,195.2,16.8z M217.3,20.8c0,0-0.1,0-0.1-0.1
				c-0.5-0.4-1.1-0.7-1.6-1c-0.4-0.2-0.8-0.4-1.2-0.6c-0.2-0.1-0.3-0.4-0.2-0.6s0.4-0.3,0.6-0.2c0.4,0.2,0.8,0.4,1.2,0.7
				c0.6,0.3,1.1,0.7,1.7,1c0.2,0.1,0.2,0.4,0.1,0.6C217.6,20.7,217.4,20.8,217.3,20.8L217.3,20.8z M201.7,16.1
				c-0.2,0-0.3-0.2-0.3-0.4c0-0.2,0.2-0.4,0.4-0.4c1.1,0,2.2,0.1,3.3,0.2c0.2,0,0.4,0.3,0.3,0.5c0,0.2-0.2,0.3-0.4,0.3
				C204,16.1,202.9,16.1,201.7,16.1L201.7,16.1z M211.4,17.8L211.4,17.8c-1-0.4-2.1-0.7-3.1-0.9c-0.2,0-0.4-0.3-0.3-0.5
				c0-0.2,0.3-0.4,0.5-0.3c0,0,0,0,0,0c1.1,0.2,2.2,0.6,3.2,1c0.2,0.1,0.3,0.3,0.3,0.5C211.9,17.7,211.6,17.8,211.4,17.8
				C211.4,17.8,211.4,17.8,211.4,17.8L211.4,17.8z"/>
			<path class="st2" d="M275.5,92.2c10.2-18.8,20.3-27.4,38.5-39.5c7.5,8.4,14.5,17.1,21.2,25.9c-15.6,10.5-24.7,21.7-33.1,37.7
				C292.6,109.1,283.7,101,275.5,92.2z"/>
			<path class="st3" d="M300.5,79.9c13.1-12.7,23.5-17.1,41.5-22.3c3.9,8.8,7.4,17.6,10.6,26.5c-15.4,4.6-25.7,11.3-36.6,22.2
				C310.1,98,304.9,89.2,300.5,79.9z"/>
			<path class="st3" d="M122.6,0c3.8,14,24.4,17.2,30.9,29.2c-7.1,6.3-14.2,12.7-21.5,19.2c-3.9-14.1-25.8-17.1-33.2-29.4
				C106.6,12.7,114.5,6.4,122.6,0z"/>
			<g>
				<ellipse class="st4" cx="188.8" cy="357.6" rx="38" ry="5.7"/>
			</g>
			<g>
				<ellipse class="st4" cx="358.6" cy="357.6" rx="38" ry="5.7"/>
			</g>
			<g>
				<ellipse class="st4" cx="267.6" cy="345" rx="38" ry="5.7"/>
			</g>
			<path class="st5" d="M228.3,299.3c1.4-2.5,4-0.2,5.9,0.5c-0.6,0-1.5,0-0.9,0.7c0.9,1,3.4,2.2,4.6,1.9c-0.2,0.8-0.5,1.5-0.9,2.1
				C236.5,305.3,228,300,228.3,299.3z"/>
			<path class="st5" d="M233.3,300.6c-0.6-0.7-0.5-1.3,0.8-0.8c0.7,0.3,1.5,0.6,2.3,0.7c0.5,0,0.9-0.2,1.3-0.5l0.9,0.6
				c0,0-0.6,1.7-0.7,1.9C236.7,302.8,234.2,301.6,233.3,300.6z"/>
			<path class="st5" d="M261.9,274.3c2.8-0.5,1.7-3.6,1.7-5.7c-0.2,0.6-0.6,1.4-1,0.6c-0.6-1.2-0.8-4,0-4.9
				c-0.8-0.1-1.6-0.1-2.3,0.1C259.4,264.5,261.1,274.4,261.9,274.3z"/>
			<path class="st5" d="M262.6,269.1c0.4,0.8,1,0.9,1-0.4c0-0.8,0-1.6,0.2-2.4c0.1-0.6,1-1,1-1l-0.2-1c0,0-1.8,0-2-0.1
				C261.8,265.2,262,268,262.6,269.1z"/>
			<path class="st6" d="M259,205c2.1-5.6,9-14.7,10.3-15.1c7-2.1,19.9-5.5,21.1-5c1.1,0.8,5.3,14.7,8.8,21.3
				c3.7,6.9,13.3,25.8,12,32.6c-2.3,11.9-46.4,27.8-46.8,27.5s-0.3-2.3-0.3-2.3c2-2.1,31.6-27.7,31.6-27.7l-17.2-24.4
				c-0.3,5.8-33.5,76.5-38.4,88.8c-0.5,1.4-3.4-0.4-3.2-2.1c1-7.5,7.5-29.7,13.9-57.4C254.9,222.9,256.1,212.9,259,205z"/>
			<path class="st5" d="M259,205c2.1-5.6,9-14.7,10.3-15.1c2.7-0.8,9.6,0,13.1-0.9c1.8-0.5-10.6,12.8-16.9,29.6
				c-21.2,57.2-27,82.3-27.5,81.8c-0.7-0.5-1-1.2-1-2c1-7.5,7.5-29.7,13.9-57.4C254.9,222.9,256.1,212.9,259,205z"/>
			<path class="st6" d="M272.3,153.9c0.5-0.4,2.4-5.6-1.9-9.4s-9.2-2.9-10.6-1.3c1-0.2,2,0.2,2.6,0.9c0,0-6.7-1.4-8,3.8
				c-0.6,1.6,0.2,3.4,1.8,4c0,0,0.1,0,0.1,0c0-0.1-0.1-0.3-0.1-0.4c-0.2-0.8,0.3-1.7,1.1-1.9s1.7,0.3,1.9,1.1c0.1,0.3,0.1,0.7,0.1,1
				c0,2.4,0.4,6.6,8.3,6.7L272.3,153.9z"/>
			<path class="st7" d="M272.3,153.9c0.5-0.8,0.9-1.6,1-2.6c0.2-0.9,0.2-1.9,0-2.8c-0.4-1.9-1.5-3.6-3-4.8c-1.5-1.3-3.3-2.1-5.2-2.4
				c-1-0.1-2-0.1-2.9,0.1c-1,0.2-2,0.7-2.7,1.4c-0.2,0.2-0.2,0.6,0,0.8c0,0,0,0,0,0c0.1,0.1,0.3,0.2,0.5,0.1l0,0c0.2,0,0.4,0,0.6,0
				c0.2,0,0.4,0,0.6,0.1c0.4,0.1,0.7,0.3,1,0.6l0.5-0.8c-0.8-0.1-1.7-0.2-2.5-0.1c-0.9,0.1-1.7,0.3-2.5,0.6c-0.8,0.3-1.5,0.9-2,1.5
				c-0.5,0.7-0.9,1.4-1,2.3c0.3-0.7,0.7-1.4,1.2-2c0.6-0.5,1.3-0.9,2-1.2c1.5-0.4,3.1-0.4,4.6-0.1c0.3,0.1,0.5-0.1,0.6-0.4
				c0,0,0,0,0,0c0-0.2,0-0.3-0.1-0.4c-0.4-0.4-0.9-0.8-1.4-0.9c-0.3-0.1-0.5-0.1-0.8-0.2c-0.3,0-0.6,0-0.9,0l0.5,0.9
				c0.6-0.5,1.3-0.9,2.1-1c0.8-0.2,1.7-0.2,2.5-0.1c1.7,0.2,3.3,0.9,4.7,2c1.4,1,2.5,2.5,3,4.2C273.1,150.4,273,152.2,272.3,153.9z"
				/>
			<path class="st8" d="M287.7,142.3c-0.5,0.5-0.6,1.2-0.4,1.8c2.1,4.4,10.7,22.1,12.5,23.9c1.5,1.5,5.1,5.2,6.6,0.5
				c0.6-1.8,0-8.7-0.7-11.4C302.7,146.3,294.9,134.8,287.7,142.3z"/>
			<path class="st9" d="M230.8,139.3c0.6-0.3,1.3-0.2,1.8,0.3c3.4,3.4,17.5,18.4,20.4,21.3c1.6,1.6,6.4,6.5,0.4,6.9
				c-2.6,0.2-12.9-5.9-15.4-7.5C229.7,155.3,218.3,145.9,230.8,139.3z"/>
			<path class="st10" d="M228.1,142.6c-0.3,0.1-0.6,0-0.8-0.3c-0.4-0.7-1.5-2.3-2.4-3.6c0,0-1.3-2-0.9-3.2c0,0,0.4-0.2,0.6,0.4
				c0,0-0.3-1.9,0.2-2.2s0.9,0.4,0.9,0.4c0.1-0.3,0.3-0.4,0.6-0.3c0,0,0,0,0,0c0.5,0.2,1.8,2.8,2,4c0,0-0.2-1.4,0.3-1.3
				s0.9,2.8,0.6,3.6c0,0.5,0,1,0,1.5C229.4,142,228.7,142.4,228.1,142.6z"/>
			<path class="st10" d="M290.9,142c0.2-0.2,0.3-0.6,0.1-0.9c-0.4-0.7-1.3-2.4-2.1-3.8c0,0-1.1-2.1-2.4-2.2c0,0-0.4,0.2,0.1,0.7
				c0,0-1.5-1.1-2-0.9s0,1,0,1c-0.3-0.1-0.5,0.1-0.6,0.4c0,0,0,0,0,0c-0.1,0.5,1.6,2.9,2.6,3.7c0,0-1.1-0.8-1.3-0.4s2,2.1,2.9,2.2
				c0.5,0.2,0.9,0.4,1.3,0.7C289.8,142.8,290.5,142.4,290.9,142z"/>
			<path class="st8" d="M248.1,157.1c3.1,2.4,6.5,4.4,10.2,5.8c2.2,0.8,4.7,0.9,6.9,0.1c4.7-1.5,13.3-6.2,17.7-5.9s15,4.3,15,4.3
				l5.3,9l-13.5-4.3c1.3,2.8,2.2,5.7,2.7,8.8c0.9,4.6,0.7,9.3-0.4,13.8c-5.1,4.5-20,1.3-22.9,1.4c-0.6-2.7-1.4-5.4-2.4-8.1
				c-1-3.1-2.5-6.1-4.3-8.8c-0.9-0.9-1.9-1.7-3-2.4c-0.9-0.5-1.9-1-2.9-1.3c-10.7-3.8-14.6-10.1-14.6-10.1L248.1,157.1z"/>
			<path class="st10" d="M269.3,157.8c0,0,2,4.1,2.6,4.3c0.8,0.3,1.7-0.2,2-1.1c0-0.1,0.1-0.3,0.1-0.4c0-1.4-3-4.1-3-4.1
				L269.3,157.8z"/>
			<path class="st11" d="M270.9,160.8c1-0.2,1.9-0.8,2.5-1.6c-0.5-0.7-1-1.3-1.6-1.9l-2,1.5C270.1,159.4,270.5,160.1,270.9,160.8z"
				/>
			<path class="st10" d="M273.5,155.3c-0.3-1.4-0.9-2.7-1.5-3.9c-0.6-1.2-2.1-1.7-3.3-1.1c0,0,0,0-0.1,0c-1.9,1-4,2.2-4.4,2.9
				c-0.6,1,0,2.3,0.4,3.3c0.5,1.3,1.4,2.4,2.5,3.2c1.2,0.5,2.5,0.5,3.6,0C273.3,158.4,273.7,157.4,273.5,155.3z"/>
			<path class="st9" d="M248.1,157.1c3.1,2.5,6.5,4.4,10.2,5.8c4.1,1.4,10-1,10-1c-0.1,4.9,1.1,9.7,3.5,14
				c3.1,5.2,6.6,10.3,10.2,15.2c-2.2,0.1-4.5-0.1-6.7-0.4c-2.1-0.3-4.1-0.5-6.2-0.6c-0.6-2.7-1.4-5.4-2.4-8.1
				c-1-3.1-2.5-6.1-4.3-8.8c-0.9-0.9-1.9-1.7-3-2.4c-0.9-0.5-1.9-1-2.9-1.3c-10.7-3.8-14.6-10.1-14.6-10.1L248.1,157.1z"/>
			<path class="st5" d="M199.4,348.9c0.7-1.1-1.7-4.9-2.5-5.8c0.2,0.4,0.6,1.2,0,1.2c-1.1-0.2-1.9-0.9-2.3-1.9
				c-0.4,0.5-0.7,1.1-0.9,1.7C193.4,344.8,198.3,350.4,199.4,348.9z"/>
			<path class="st10" d="M196.5,338.5c-0.2,0.4-0.1,4,0.5,4.8c0.2,0.4,0.9,1.9,0.3,1.9c-0.8,0.1-2.5-1.9-2.7-2.8
				c0.2-0.2,0.4-0.4,0.4-0.7c0.1-1.2,0-2.4-0.1-3.5C194.9,337.6,196.2,338.5,196.5,338.5z"/>
			<path class="st5" d="M180.2,321.4c-0.4-0.2-0.6-2.9-0.3-4.4c0.1,0.5,0.2,1.1,0.7,0.6c0.7-0.7,1.4-2.7,1-3.6
				c0.7,0.1,1.3,0.3,1.9,0.7C184.2,315.1,181.5,322,180.2,321.4z"/>
			<path class="st10" d="M180.7,317.6c-0.5,0.5-0.7-0.1-0.7-0.6c0.1-0.9,0.5-2,0.5-2.2c0-0.5-0.7-1.3-0.7-1.3l0.9-0.7
				c0,0,0.4,1.2,1.1,1.2C182.1,315,181.4,316.9,180.7,317.6z"/>
			<path class="st10" d="M199.3,251.7c2.2,2.5,3.8,5.5,4.7,8.7c3.1,9.7-5.7,71-7.6,81.1c-0.2,0.9-0.5,0.2-1-0.1
				c-0.3-0.2-0.4,0.5-0.5,0.2l-11.7-73.2L163,280.3l18.2,33.5l-0.5,1.5c0,0-30.8-26.4-31.1-40.3c-0.2-11.8,21.3-26.8,23-29.3
				C175.8,245.2,194.4,251.1,199.3,251.7z"/>
			<path class="st6" d="M196.6,246.2c0,0,8.2,7.9,8,18.1c-0.3,20.2,8.4,23.4,13.1,25.4S191,314.9,162.2,277c-2.3-3-8.3-6.1-13.2-7.6
				c0,0,20.2-26.6,27.8-28.9S196.6,246.2,196.6,246.2z"/>
			<path class="st10" d="M237.7,211.1c0.2,0.1,0.5,0.1,0.7-0.1c0.5-0.4,1.6-1.5,2.5-2.3c0,0,1.4-1.3,1.2-2.3c0,0-0.2-0.3-0.5,0.2
				c0,0,0.6-1.4,0.3-1.7s-0.8,0.2-0.8,0.2c0-0.2-0.2-0.4-0.4-0.4c0,0,0,0,0,0c-1,0.7-1.8,1.6-2.3,2.7c0,0,0.4-1,0-1.1
				s-1.2,2-1.1,2.6c-0.1,0.4-0.2,0.8-0.3,1.1C236.8,210.4,237.3,210.9,237.7,211.1z"/>
			<path class="st10" d="M186.9,171.6c-0.2,0-0.4-0.3-0.5-0.5c-0.1-0.6-0.2-2.2-0.4-3.4c0,0-0.2-1.9,0.6-2.5c0,0,0.3,0,0.3,0.5
				c0,0,0.5-1.4,0.9-1.5s0.5,0.6,0.5,0.6c0.1-0.2,0.4-0.2,0.5,0c0,0,0,0,0,0c0.3,1.2,0.3,2.4-0.1,3.5c0,0,0.4-1,0.7-0.8
				s-0.4,2.3-0.9,2.7c-0.2,0.3-0.4,0.7-0.5,1.1C188,171.6,187.4,171.7,186.9,171.6z"/>
			<path class="st5" d="M180.1,293.4c0,0-8.5-3.4-17.9-16.4c-2.3-3.1-8.3-6.1-13.2-7.6c0,0,20.2-26.6,27.8-28.9
				c2.6-0.8,8.7,4.4,11.6,5.2s-10.3,6.6-12.6,20.4C172.6,285,180.1,293.4,180.1,293.4z"/>
			<path class="st6" d="M204.7,208c-1,0.2,0-3.9-5.4-5.3c-4-1.1-7.3,4.3-4.1,8.5c0,0-4.5,3.7-1.6,14c0,0,0.8,18.4,8.1,22.6
				s20.4,4.9,22.7-8.7s-8.4-14.6-8.4-14.6s1.1-4.6-3.4-5.1C212.6,219.4,215.1,206.2,204.7,208z"/>
			<path class="st7" d="M224.4,239.1l0.4-2.4c0-0.8,0.1-1.6,0.1-2.4c0-1.6-0.4-3.3-1-4.8c-0.7-1.5-1.8-2.8-3.2-3.8
				c-1.4-1-3-1.6-4.6-1.9l0.6,0.8c0.2-0.7,0.2-1.3,0.1-2c0-0.7-0.3-1.4-0.6-2c-0.4-0.6-0.9-1.1-1.6-1.4c-0.6-0.3-1.3-0.5-1.9-0.6
				l0.6,0.8c0.4-2.1,0.3-4.3-0.1-6.5c-0.2-1.1-0.7-2.1-1.3-3c-0.3-0.5-0.7-0.9-1.1-1.3c-0.5-0.3-1-0.6-1.5-0.9
				c-1.1-0.4-2.2-0.5-3.3-0.4l-0.8,0.1c-0.2,0-0.7,0-0.5,0.1c-0.1-0.2-0.2-0.3-0.2-0.5c-0.1-0.2-0.2-0.5-0.3-0.8
				c-0.4-1-1.1-1.9-2-2.5c-0.9-0.6-1.9-1-2.9-1.1c1,0.3,1.9,0.8,2.7,1.4c0.8,0.6,1.3,1.5,1.6,2.5l0.2,0.7c0.1,0.3,0.2,0.6,0.4,0.9
				c0.1,0.1,0.3,0.2,0.4,0.2h0.3h0.4h0.8c1,0,1.9,0.1,2.8,0.5c1.7,0.9,2.8,2.6,3,4.5c0.3,2,0.3,4,0,5.9c-0.1,0.4,0.2,0.8,0.6,0.8
				c0,0,0,0,0,0l0,0c0.5,0.1,1,0.2,1.4,0.4c0.4,0.2,0.8,0.5,1,0.9c0.2,0.4,0.4,0.9,0.4,1.4c0,0.5,0,1-0.1,1.5l0,0
				c-0.1,0.4,0.2,0.7,0.5,0.8c0,0,0,0,0,0l0,0c1.5,0.2,2.9,0.7,4.1,1.5c1.3,0.8,2.3,1.9,3,3.3c0.7,1.4,1.1,2.9,1.3,4.4
				c0.1,0.8,0.1,1.6,0.1,2.3L224.4,239.1z"/>
			<path class="st8" d="M200.1,250.6c-4.4,0.1-18-4.3-23.4-10.1c0,0-1-8,1.9-13.6c2.7-5.2,3.5-6.3,5.3-8c-2.6-7.7-4.7-15.6-6.2-23.7
				c-1.6-10.1,4.5-22.8,7-24.7c0.3-0.3,0.8-0.4,1.2-0.3c1.4,0.5,2.6,1.5,3.4,2.9c0.2,0.4-2.3,21.7-2.3,21.7s2.9,23.2,3.8,23.9
				c3.9,2.7,14.8,7.9,18.2,8.5c6.6,1.2,15.7,0,15.7,0s6.9-11.4,8.5-14.2c0.6-0.9,1.3-1.8,2.1-2.6c0.3-0.4,0.8-0.5,1.3-0.4
				c1.2,0.3,3.6,0.9,4.2,1.6c0.3,0.3,0.4,0.8,0.4,1.2c-0.4,3.1-2.9,16.7-12.5,20.3c-5.6,2.1-16.3,2.6-23.2,1.3"/>
			<path class="st10" d="M198.6,218.6c0,0-1.2,4.7-1.7,5.1c-0.5,0.4-1.2,0.4-1.7-0.1c-0.2-0.2-0.3-0.4-0.3-0.7c-0.2-1.4,2-5,2-5
				L198.6,218.6z"/>
			<path class="st11" d="M197.7,222.1c-0.9,0.2-1.8-0.1-2.4-0.8c0.3-0.8,0.7-1.6,1.1-2.4l1.9,0.8
				C198.1,220.4,197.9,221.3,197.7,222.1z"/>
			<path class="st10" d="M197.6,211.1c2.4-1,6,2.2,6.4,3.1s-0.3,2.1-0.8,3s-3.4,4-6.4,2.8C191.3,217.6,197.6,211.1,197.6,211.1z"/>
			<path class="st9" d="M184.7,170.5c0.3-0.3,0.8-0.4,1.2-0.3c1.4,0.5,2.6,1.5,3.4,2.9c0.2,0.4-2.3,21.7-2.3,21.7s2.9,23.2,3.8,23.9
				c0.8,0.5,1.9,1.2,1.9,1.2s-5.3,3.4-7.6,13c-1.6,6.4,1.9,14.2,1.9,14.2c-1.7-0.7-3.4-1.6-5-2.5c-1.9-1.1-3.7-2.5-5.3-4.1
				c0,0-1-8,1.9-13.6c2.7-5.2,3.5-6.3,5.3-8c-2.6-7.7-4.7-15.6-6.2-23.7C176.2,185.1,182.3,172.4,184.7,170.5z"/>
			<path class="st6" d="M347.2,195.7c0,0-7.9,3.4-1.3,9.8L347.2,195.7z"/>
			<path class="st5" d="M370.1,350.2c-0.7-1.3,0-2.4,1-4c-0.1,0.5-0.3,1.3,0.4,0.9c1-0.6,2.6-2.5,2.6-3.6c0.6,0.3,1.1,0.6,1.6,1.1
				C376.2,345.2,370.4,350.7,370.1,350.2z"/>
			<path class="st10" d="M371.6,347.1c-0.7,0.4-1.2,0.2-0.5-0.8c0.4-0.6,0.8-1.2,1.1-1.9c0.2-0.5-0.2-1.6-0.2-1.6l0.7-0.2
				c0,0,1.3,0.8,1.5,0.9C374.1,344.6,372.6,346.6,371.6,347.1z"/>
			<path class="st5" d="M347.6,309.8c-0.4-0.8,0.5-2.4,1.8-3.6c-0.3,0.5-0.5,1.1,0.2,0.9c1.1-0.3,2.9-1.9,3.1-2.9
				c0.5,0.4,0.9,0.8,1.3,1.4C354.4,306.1,347.9,310.3,347.6,309.8z"/>
			<path class="st10" d="M349.6,307c-0.7,0.2-1.2,0-0.3-0.8c0.5-0.5,1-1,1.4-1.6c0.2-0.3,0.2-0.7,0.1-1.1l0.8-0.5c0,0,1.1,1,1.2,1.1
				C352.5,305.1,350.7,306.7,349.6,307z"/>
			<path class="st10" d="M372.3,241.8c-1.9-4.3-5.5-7.7-9.9-9.4c-4.1,0.4-13.8,3.3-15.4,3.4c-1.3,0.8-6.9,6.4-12.3,13.7
				c-4.5,5.9-16.1,17-14.6,22.3c2.9,10.3,29.9,31.8,30.7,32.2c1.3,0.6,1.6,0.1,1.3-0.8c-3.2-8.4-19.2-29.2-19.2-29.2
				s22.9-10.3,24.3-13.2c1,2.6,0.6,18.6,2.5,27.7c6.6,32.1,12.5,55.1,12.5,55.1l1.3-0.4c0,0,0.7-35.1,0.9-47.4
				C374.6,280.1,379.5,256.7,372.3,241.8z"/>
			<path class="st10" d="M385.2,176.7c0.1,0.1,0.1,0.4,0.3,0.3c0.5-0.3,1.6-0.6,2.5-1.1c0.5-0.3,0.9-0.6,1.2-1.1
				c0.3-0.4,0.4-1.2,0-0.9c0.1-0.4,0.3-0.7,0.3-1.1c-0.1-0.4-0.3-0.2-0.3-0.2s0.2-0.9-0.1-1c-0.2,0-0.7,0.5-1.3,1.4
				c-0.3,0.5-0.8,0.8-1.3,1c-0.1-0.2-0.2-0.4-0.1-0.6c0.1-0.6,0.3-1.3,0-1.3s-1.1,1.7-1.1,2.3c0,0.3-0.1,0.7-0.2,1
				C385,175.9,385,176.4,385.2,176.7z"/>
			<path class="st6" d="M345.2,237l-7.6,8.9l-10.3,12.5c0,0,0.3,4.1,3,6.4l9.3-7.7l-7,9.4c0,0,13.7,17.5,35,15.2
				c0,0,11.4-2.3,18.4-9.6c0,0-9-23-12-29.2c-2.5-5-6.7-8.9-12-10.8L345.2,237z"/>
			<path class="st5" d="M338,271.6c0,0,1.2,1,1.5,1.2c6,4.7,15.8,9.9,28.1,8.6c0,0,11.4-2.3,18.4-9.6c0,0-9-23-12-29.2
				c-2.5-5-6.8-8.9-12.1-10.7l-7.4,2.2c0,0,7.3,11.1,2.1,21.2C352.5,263.6,338,271.6,338,271.6z"/>
			<path class="st10" d="M316.5,202c-0.2,0.1-0.4,0-0.5-0.2c-0.3-0.5-0.8-0.3-1.4-1.1c-0.5-0.6-0.8-1.3-0.9-2c0-0.2,0.2-0.7,0.3-0.3
				c-0.2-0.4-0.2-0.8-0.1-1.2c0.1-0.2,0.3-0.3,0.5-0.3c0,0-0.1-0.6,0.2-0.5s0.6,1,1.1,1.7c0.2,0.4,0.5,0.6,0.9,0.7
				c0,0-0.1-0.9,0.2-0.9s0.6,1.9,0.4,2.4c0,0.3,0,0.7,0,1C317.2,201.8,316.9,201.9,316.5,202z"/>
			<path class="st8" d="M376.8,179.8c-2.9,4.7-5.3,9.5-7.4,14.6c-2.8,7.1,0.4,7.9,2.5,7.2c2.6-0.9,5.1-4.7,6.7-6.6
				c3.4-3.9,7.8-8.9,9.2-10.8c1.9-2.6-2.1-8.5-2.1-8.5S379.6,174.7,376.8,179.8z"/>
			<path class="st8" d="M375.6,198.3c-10,11.8-12.1,15.4-16.1,17.1c-1.9,0.8-7.2-0.1-5.4-2.5c5.2-3.5,15-18.4,17.5-18.8
				C373.4,193.8,378.7,194.6,375.6,198.3z"/>
			<path class="st10" d="M349,204.1c0,0,1.5,4,1.3,4.6s-1,1.8-1.9,0.7s-1-4.9-1-4.9L349,204.1z"/>
			<path class="st11" d="M349.9,206.6c-0.4,0.8-1.3,1.2-2.1,1c-0.1-0.6-0.2-1.3-0.3-1.9l2-0.4C349.6,205.9,349.6,205.8,349.9,206.6z
				"/>
			<path class="st10" d="M352,199.4c-0.5-0.5-2.6-1-4.6-1.4c-1.2-0.3-2.5,0.5-2.8,1.7c-0.3,1.2-0.5,2.5-0.4,3.7
				c0.3,1.9,0.9,2.7,3.6,3.1c1.2,0.1,2.3-0.2,3.2-0.9c0.8-1,1.3-2.1,1.4-3.3C352.6,201.4,352.8,200.1,352,199.4z"/>
			<path class="st9" d="M364.4,213.1l0.7,12l-0.1,8.2c0,0-0.2,1.1-9.1,3.7c-3.9,1.2-7.9,1.7-12,1.6c0.7,1.4-9.6-21.4-6-25.1
				c2.8-2.9,7-4.3,15.1-5.5C357.3,207.3,363.2,209.2,364.4,213.1z"/>
			<path class="st9" d="M345.2,217.2c0,0-15.5,8.8-23.4,7.6c-6.4-1-12-14.9-8.3-21.5c1.4-2.4,4.4-1.5,4.4-1.5l6.5,16.5l15.7-6.5
				L345.2,217.2z"/>
			<path class="st8" d="M364.4,213.1l0.7,12l-0.1,8.2c0,0-0.2,1-8.4,3.5L356,237c0,0,1.8-10.1,1-17.4c-0.9-7.5-3.8-11.7-3.8-11.7
				s7.7-0.5,8.1-0.5C365.2,207.2,363.3,209.5,364.4,213.1z"/>
			<path class="st6" d="M346.3,194.8c0,0-3.6,1.7-0.8,5.9s4.3,6.5,7.2,4.8s4.3-7,2.3-8.4c0,0,4.6-0.9,5,3.1c0,0-3.6,3.9-1.8,7.8
				s7.6,3.2,8.5,2.3c0,0-3,5.7,3.5,9.8c2.6,1.7,5.7,2.2,8.6,1.6c2.3-0.4,4.2-2,5-4.1c0,0-6,0.6-6.6-2.9s4.1-15.3-2.5-19.3
				c-2-1.3-4.3-1.8-6.7-1.6c0,0-1.2-6-5.8-6s-7.8,4-7.7,8.5C354.5,196.3,350.3,192.9,346.3,194.8z"/>
			<path class="st7" d="M350.2,206c-0.8-0.2-1.5-0.7-2-1.3c-0.5-0.6-1-1.3-1.5-1.9c-1.1-1.2-1.9-2.6-2.5-4.2
				c-0.2-0.9-0.1-1.8,0.3-2.5c0.4-0.7,1.1-1.3,1.9-1.7c1.5-0.6,3.3-0.5,4.8,0.2c-1.5-0.5-3.1-0.4-4.5,0.2c-0.6,0.3-1.2,0.9-1.6,1.5
				c-0.3,0.6-0.4,1.4-0.2,2.1c0.3,1.5,1.4,2.7,2.2,4S348.6,205.4,350.2,206z"/>
			<path class="st7" d="M354.6,195.1c0.1-1.9,0.8-3.7,2-5.1c0.6-0.7,1.4-1.3,2.2-1.7c0.8-0.4,1.8-0.7,2.7-0.8l0,0
				c0.9-0.2,1.8,0,2.6,0.4c0.8,0.4,1.4,0.9,1.9,1.7c-0.3-0.3-0.6-0.6-1-0.8c-0.3-0.2-0.7-0.4-1.1-0.5c-0.7-0.3-1.5-0.3-2.3-0.1l0,0
				c-0.9,0.2-1.7,0.4-2.5,0.8c-0.8,0.4-1.5,0.9-2.1,1.5c-0.6,0.6-1.1,1.3-1.5,2.1C355.2,193.3,354.8,194.2,354.6,195.1z"/>
			<path class="st7" d="M360.3,200.1c-1.7,1.8-2.5,4.3-2.2,6.8c0.2,1.2,0.8,2.2,1.7,2.9c1,0.7,2.2,1.1,3.4,1.3
				c-1.3,0.1-2.6-0.2-3.7-0.8c-1.2-0.7-1.9-1.9-2.1-3.3c-0.2-1.3,0-2.6,0.5-3.8C358.5,202,359.3,200.9,360.3,200.1z"/>
			<path class="st7" d="M366.6,210.4c-0.4,1.2-0.5,2.4-0.4,3.7c0.2,1.2,0.6,2.4,1.3,3.3c0.8,1,1.7,1.8,2.7,2.5
				c0.5,0.3,1.1,0.6,1.6,0.9s1.1,0.5,1.7,0.8c-0.6-0.1-1.2-0.4-1.9-0.5s-1.2-0.5-1.8-0.8c-1.2-0.6-2.2-1.5-3-2.5
				c-0.8-1.1-1.3-2.4-1.3-3.7C365.7,212.8,366,211.5,366.6,210.4z"/>
			<path class="st12" d="M348.1,150.2c-3.8,5.6-11.4,7-17,3.1c-5.6-3.8-7-11.4-3.1-17c3.8-5.5,11.2-6.9,16.7-3.3
				C350.4,136.8,351.9,144.5,348.1,150.2z"/>
			<path class="st13" d="M334.9,154.8c-4.2-1-7.3-4.4-8.1-8.6c-1.2-6.2,2.7-12.3,8.9-13.8c5.9-1.4,11.9,2.3,13.3,8.3
				c0,0.1,0.1,0.3,0.1,0.4c0.6,3,0,6.1-1.7,8.7l0,0C344.7,153.8,339.7,155.9,334.9,154.8z M340.6,133.4c-1.6-0.4-3.2-0.4-4.8,0
				c-5.6,1.4-9.2,6.9-8.1,12.6c0.5,2.7,2.1,5,4.4,6.5c4.9,3,11.3,1.5,14.4-3.3c1.5-2.4,2.1-5.2,1.5-8c-0.5-2.7-2.1-5-4.4-6.5
				C342.7,134.1,341.7,133.6,340.6,133.4L340.6,133.4z"/>
			<path class="st13" d="M343.6,142.8c0.7-1.3,0.8-2.8,0.2-4.1c-0.5-1-1.4-1.7-2.5-2c-1.1-0.5-2.3-0.6-3.5-0.5
				c-1.3,0.3-2.2,1.4-2.3,2.8c-0.2,1.3,0.1,2.6,1,3.6c1,1.2,2.2,2.3,2.7,3.8c0.8,2.6-2.1,4.1-4.2,2.6c-1.7-1.3-2.9-3.8-1.3-5.6
				c0.3-0.3-1-0.8-1.3-0.6c-2.3,2.7,0.5,6.1,3.1,7.1c1.2,0.6,2.7,0.6,3.9,0c1.2-0.7,1.7-2.3,1.1-3.6c-0.6-1.2-1.4-2.4-2.4-3.4
				c-1.3-1.3-1.5-3.3-0.7-4.9c0.9-1.6,3.3-1.6,4.6-0.5s1.2,3.4,0.4,4.8C342.1,142.6,343.4,143.2,343.6,142.8L343.6,142.8z"/>
			<path class="st13" d="M340.8,134.9l-10,15.5c-0.2,0.3,1.1,0.9,1.4,0.4l10-15.5C342.4,135.1,341.1,134.5,340.8,134.9L340.8,134.9z
				"/>
			<path class="st13" d="M342.8,135.8c-3.3,5.2-6.7,10.3-10,15.5c-0.2,0.3,1.1,0.9,1.4,0.4l10-15.5
				C344.4,136,343.1,135.4,342.8,135.8L342.8,135.8z"/>
			<path class="st12" d="M250.2,51.2c-3.8,5.6-11.5,6.9-17,3.1s-6.9-11.5-3.1-17c3.8-5.4,11.1-6.9,16.7-3.3
				C252.5,37.8,254,45.5,250.2,51.2C250.2,51.2,250.2,51.2,250.2,51.2z"/>
			<path class="st13" d="M236.9,55.8c-4.2-1-7.3-4.4-8.1-8.6c-1.2-6.2,2.7-12.3,8.9-13.8c5.9-1.4,11.9,2.2,13.3,8.1
				c0,0.2,0.1,0.3,0.1,0.5c0.6,3,0,6.1-1.7,8.7l0,0C246.8,54.9,241.7,56.9,236.9,55.8z M242.7,34.4c-1.6-0.4-3.2-0.4-4.8,0
				c-5.6,1.3-9.2,6.9-8.1,12.6c0.5,2.7,2.1,5,4.4,6.5c4.9,3,11.3,1.5,14.4-3.3c1.5-2.3,2.1-5.2,1.5-7.9
				C249.3,38.4,246.5,35.4,242.7,34.4L242.7,34.4z"/>
			<path class="st13" d="M245.6,43.9c0.7-1.3,0.8-2.8,0.2-4.2c-0.5-1-1.4-1.7-2.5-2c-1.1-0.5-2.3-0.6-3.5-0.5
				c-1.3,0.3-2.2,1.4-2.3,2.8c-0.2,1.3,0.1,2.6,1,3.6c1,1.2,2.3,2.3,2.7,3.8c0.8,2.7-2.1,4.1-4.2,2.5c-1.7-1.3-2.9-3.8-1.3-5.7
				c0.3-0.3-1-0.8-1.3-0.6c-2.3,2.7,0.5,6,3.1,7.2c1.2,0.6,2.7,0.6,3.9,0c1.2-0.7,1.7-2.3,1.1-3.5c-0.6-1.3-1.5-2.4-2.5-3.4
				c-1.3-1.3-1.6-3.3-0.7-4.9c0.8-1.7,3.3-1.6,4.6-0.5s1.2,3.4,0.4,4.8C244.1,43.6,245.4,44.2,245.6,43.9L245.6,43.9z"/>
			<path class="st13" d="M242.9,36l-10,15.5c-0.2,0.3,1.1,0.8,1.4,0.4l10-15.5C244.4,36.2,243.1,35.6,242.9,36L242.9,36z"/>
			<path class="st13" d="M244.9,36.9l-10,15.5c-0.2,0.3,1.1,0.8,1.4,0.4l10-15.5C246.4,37,245.1,36.5,244.9,36.9z"/>
			<path class="st12" d="M403.8,125.1c-3.8,5.6-11.4,6.9-17,3.1c-5.6-3.8-6.9-11.4-3.1-17c3.8-5.4,11.1-6.9,16.7-3.3
				C406.1,111.7,407.6,119.4,403.8,125.1z"/>
			<path class="st13" d="M390.5,129.7c-1.2-0.3-2.3-0.8-3.3-1.4c-2.5-1.6-4.3-4.2-4.9-7.2c-1.2-6.2,2.7-12.3,8.9-13.8
				c5.9-1.4,11.9,2.3,13.3,8.2c0,0.2,0.1,0.3,0.1,0.5c0.6,3,0,6.1-1.7,8.7l0,0C400.4,128.8,395.3,130.8,390.5,129.7z M396.3,108.3
				c-1.6-0.4-3.2-0.4-4.8,0c-5.6,1.3-9.2,6.9-8.1,12.6c0.5,2.7,2.1,5,4.4,6.5c4.9,3,11.3,1.5,14.4-3.3c1.5-2.3,2.1-5.2,1.5-7.9
				C403,112.3,400.1,109.3,396.3,108.3L396.3,108.3z"/>
			<path class="st13" d="M399.2,117.8c0.7-1.3,0.8-2.8,0.2-4.2c-0.5-1-1.4-1.7-2.5-2c-1.1-0.5-2.3-0.6-3.5-0.5
				c-1.3,0.3-2.2,1.4-2.3,2.8c-0.2,1.3,0.1,2.6,1,3.6c1,1.2,2.2,2.3,2.7,3.8c0.8,2.7-2.1,4.1-4.2,2.6c-1.7-1.3-2.9-3.8-1.3-5.7
				c0.3-0.3-1-0.8-1.3-0.6c-2.3,2.7,0.5,6,3.1,7.1c1.2,0.6,2.7,0.6,3.9,0c1.2-0.7,1.7-2.3,1.1-3.6c-0.6-1.3-1.5-2.4-2.5-3.4
				c-1.3-1.3-1.5-3.3-0.7-4.9c0.9-1.7,3.3-1.6,4.6-0.5s1.2,3.4,0.4,4.8C397.7,117.5,399,118.1,399.2,117.8L399.2,117.8z"/>
			<path class="st13" d="M396.5,109.9l-10,15.5c-0.2,0.3,1.1,0.8,1.4,0.4c3.3-5.2,6.7-10.3,10-15.5
				C398.1,110,396.8,109.5,396.5,109.9L396.5,109.9z"/>
			<path class="st13" d="M398.5,110.8l-10,15.5c-0.2,0.3,1.1,0.8,1.4,0.4c3.3-5.1,6.7-10.3,10-15.5
				C400.1,110.9,398.8,110.4,398.5,110.8L398.5,110.8z"/>
			<path class="st12" d="M124.7,216.6c-1.5-6.6,2.5-13.1,9.1-14.7c6.6-1.5,13.1,2.5,14.7,9.1c1.5,6.4-2.4,12.9-8.7,14.6
				C133.1,227.3,126.4,223.3,124.7,216.6z"/>
			<path class="st13" d="M130.2,203.7c3.6-2.4,8.2-2.5,11.9-0.2c5.4,3.3,7.3,10.3,4.2,15.9c-2.9,5.3-9.6,7.3-14.9,4.4
				c-0.2-0.1-0.3-0.2-0.5-0.3c-2.6-1.6-4.5-4.1-5.3-7.1l0,0C124.3,211.6,126.1,206.5,130.2,203.7z M142.2,222.4
				c1.3-0.9,2.4-2.1,3.2-3.5c2.8-5.1,1.1-11.5-3.9-14.5c-2.3-1.4-5.2-1.8-7.8-1.1c-5.5,1.6-8.7,7.3-7.2,12.9c0.7,2.7,2.4,5,4.8,6.5
				C134.8,224.6,139,224.5,142.2,222.4L142.2,222.4z"/>
			<path class="st13" d="M133.2,218.2c0.5,1.4,1.6,2.5,2.9,2.9c1.1,0.2,2.2,0.1,3.2-0.5c1.1-0.5,2-1.3,2.7-2.3
				c0.7-1.2,0.4-2.6-0.5-3.6c-0.8-1-2.1-1.6-3.4-1.7c-1.6-0.1-3.2,0.1-4.6-0.5c-2.5-1.2-1.6-4.3,0.9-4.8c2.1-0.4,4.8,0.4,5.1,2.8
				c0,0.4,1.3-0.2,1.3-0.6c-0.4-3.5-4.8-3.7-7.4-2.5c-1.3,0.5-2.2,1.6-2.6,2.9c-0.3,1.4,0.5,2.8,1.9,3.2c1.4,0.4,2.8,0.5,4.2,0.4
				c1.8,0,3.5,1,4.1,2.7c0.6,1.7-1,3.5-2.8,3.7s-3.3-1.5-3.8-2.9C134.4,217.2,133.1,217.8,133.2,218.2L133.2,218.2z"/>
			<path class="st13" d="M140.9,221.4c-1.6-5.9-3.2-11.8-4.8-17.8c-0.1-0.3-1.4,0.3-1.3,0.7c1.6,5.9,3.2,11.9,4.8,17.8
				C139.8,222.5,141.1,221.9,140.9,221.4L140.9,221.4z"/>
			<path class="st13" d="M138.9,222.3c-1.6-5.9-3.2-11.9-4.8-17.8c-0.1-0.3-1.4,0.3-1.3,0.7c1.6,5.9,3.2,11.9,4.8,17.8
				C137.7,223.4,139,222.8,138.9,222.3L138.9,222.3z"/>
			<circle class="st12" cx="400.1" cy="238.5" r="8.8"/>
			<path class="st14" d="M403.5,241.4c-0.8,2.1-3.1,3.1-5.2,2.3c-1.7-0.7-2.7-2.4-2.5-4.2L403.5,241.4z"/>
			<path class="st14" d="M405.6,238.7c-0.7-1.1-2.1-1.4-3.2-0.8c0,0,0,0,0,0l-0.4-0.6c1.4-0.9,3.3-0.5,4.1,0.9c0,0,0,0,0,0.1
				L405.6,238.7z"/>
			<path class="st14" d="M395.2,236.1c1.1-0.6,2.5-0.3,3.2,0.8l0.6-0.4c-0.9-1.4-2.7-1.9-4.1-1c0,0,0,0-0.1,0L395.2,236.1z"/>
			<circle class="st12" cx="197" cy="111.2" r="8.8"/>
			<path class="st14" d="M200.4,114.1c-0.3,2.2-2.3,3.8-4.5,3.5s-3.8-2.3-3.5-4.5c0-0.3,0.1-0.7,0.2-1L200.4,114.1z"/>
			<path class="st14" d="M202.5,111.4c-0.7-1.1-2.1-1.4-3.2-0.8c0,0,0,0,0,0L199,110c1.4-0.9,3.3-0.5,4.1,0.9c0,0,0,0,0,0.1
				L202.5,111.4z"/>
			<path class="st14" d="M192.1,108.8c1.1-0.7,2.5-0.3,3.2,0.8l0.6-0.4c-0.8-1.4-2.7-1.9-4.1-1.1c0,0,0,0-0.1,0L192.1,108.8z"/>
		</g>
	</g>
</g>
</svg>
