<?xml version="1.0" encoding="utf-8"?>
<!-- Generator: Adobe Illustrator 23.0.6, SVG Export Plug-In . SVG Version: 6.00 Build 0)  -->
<svg version="1.1" xmlns="http://www.w3.org/2000/svg" xmlns:xlink="http://www.w3.org/1999/xlink" x="0px" y="0px"
	 viewBox="0 0 191.8 217.4" style="enable-background:new 0 0 191.8 217.4;" xml:space="preserve">
<style type="text/css">
	.st0{fill:none;}
	.st1{fill:#6E69C5;}
	.st2{fill:#6C67C4;}
	.st3{fill:#FFFFFF;}
	.st4{fill:#E0ECF6;}
	.st5{fill:#8DBBDD;}
	.st6{fill:none;stroke:#3184C1;stroke-width:1.0646;stroke-linecap:round;stroke-linejoin:round;stroke-miterlimit:10;}
	.st7{fill:#A1C7E3;}
	.st8{fill:none;stroke:#8DBBDD;stroke-width:1.0646;stroke-linecap:round;stroke-linejoin:round;stroke-miterlimit:10;}
	.st9{fill:#3184C1;}
	.st10{fill:none;stroke:#0D6EB6;stroke-width:0.957;stroke-linecap:round;stroke-linejoin:round;stroke-miterlimit:10;}
	.st11{fill:none;stroke:#8DBBDD;stroke-width:0.947;stroke-linecap:round;stroke-linejoin:round;stroke-miterlimit:10;}
	.st12{fill:none;stroke:#0D6EB6;stroke-width:0.7385;stroke-linecap:round;stroke-linejoin:round;stroke-miterlimit:10;}
	.st13{fill:#26478D;}
	.st14{fill:#D5EAF5;}
	.st15{fill:#C9E0F2;}
	.st16{fill:#E0E0E0;}
	.st17{fill:#30193B;}
	.st18{fill:#3B2B5B;}
	.st19{fill:#7F65C1;}
	.st20{fill:#BFEAF5;}
	.st21{fill:#82CBEA;}
	.st22{fill:#FF97A6;}
	.st23{fill:#C95D77;}
	.st24{fill:#FFCB48;}
	.st25{fill:#FF9A2E;}
	.st26{display:none;}
	.st27{display:inline;}
	.st28{opacity:0.2;fill:#00FF00;}
	.st29{opacity:0.2;fill:#0000FF;}
</style>
<g id="Capa_1">
</g>
<g id="Fondo">
</g>
<g id="Contenido">
	<g>
		<g>
			<path class="st14" d="M139.8,177.9C139.8,177.9,139.8,177.9,139.8,177.9c-0.6-0.2-1.3-0.5-1.9-0.7c-0.1-0.1-0.2-0.2-0.1-0.3
				c0.1-0.1,0.2-0.2,0.3-0.1c0.6,0.3,1.2,0.5,1.8,0.7c0.1,0,0.2,0.2,0.2,0.3C140.1,177.9,140,177.9,139.8,177.9z M141.8,178.4
				c-0.1,0-0.2-0.2-0.2-0.3c0-0.1,0.2-0.2,0.3-0.2c0.2,0,0.4,0.1,0.6,0.1c0.4,0.1,0.9,0.1,1.4,0.1c0.1,0,0.2,0.1,0.2,0.3
				c0,0.1-0.1,0.2-0.3,0.2c-0.5,0-0.9-0.1-1.4-0.1C142.2,178.5,142,178.4,141.8,178.4C141.8,178.4,141.8,178.4,141.8,178.4z
				 M136.3,176.2C136.3,176.2,136.2,176.2,136.3,176.2c-0.6-0.4-1.2-0.8-1.7-1.2c-0.1-0.1-0.1-0.2,0-0.3c0.1-0.1,0.2-0.1,0.3,0
				c0.5,0.4,1,0.8,1.6,1.1c0.1,0.1,0.2,0.2,0.1,0.3C136.5,176.2,136.4,176.3,136.3,176.2z M145.7,178.5c-0.1,0-0.2-0.1-0.2-0.2
				c0-0.1,0.1-0.3,0.2-0.3c0.6-0.1,1.3-0.2,1.9-0.3c0.1,0,0.3,0,0.3,0.2c0,0.1,0,0.3-0.2,0.3C147.1,178.3,146.4,178.5,145.7,178.5
				C145.7,178.5,145.7,178.5,145.7,178.5z M133.2,173.8c0,0-0.1,0-0.1-0.1c-0.5-0.5-0.9-0.9-1.4-1.5c-0.1-0.1-0.1-0.3,0-0.3
				c0.1-0.1,0.3-0.1,0.3,0c0.4,0.5,0.9,1,1.3,1.4c0.1,0.1,0.1,0.3,0,0.3C133.4,173.8,133.3,173.8,133.2,173.8z M149.5,177.6
				c-0.1,0-0.1-0.1-0.2-0.1c0-0.1,0-0.3,0.1-0.3c0.6-0.2,1.2-0.5,1.8-0.8c0.1-0.1,0.3,0,0.3,0.1c0.1,0.1,0,0.3-0.1,0.3
				c-0.6,0.3-1.2,0.6-1.8,0.8C149.6,177.6,149.5,177.6,149.5,177.6z M83.2,159.7l-0.3-0.1c-0.1,0-0.2-0.2-0.2-0.3
				c0-0.1,0.2-0.2,0.3-0.2c0,0,0,0,0,0l0.3,0.1c0.5,0.1,1.1,0.2,1.6,0.3c0.1,0,0.2,0.1,0.2,0.3c0,0.1-0.1,0.2-0.3,0.2
				C84.2,159.9,83.7,159.8,83.2,159.7z M81,159C81,159,81,159,81,159c-0.6-0.3-1.2-0.6-1.8-0.9l0.2-0.4l0,0c0.5,0.3,1.1,0.6,1.7,0.9
				c0.1,0.1,0.2,0.2,0.1,0.3C81.2,158.9,81.1,159,81,159z M86.7,160.2c-0.1,0-0.2-0.1-0.2-0.2c0-0.1,0.1-0.2,0.3-0.2
				c0.6,0,1.3,0,1.9,0c0.1,0,0.3,0.1,0.3,0.2c0,0.1-0.1,0.3-0.2,0.3C88.1,160.2,87.4,160.2,86.7,160.2
				C86.8,160.2,86.8,160.2,86.7,160.2z M21.5,143.8L21.5,143.8c-0.7-0.2-1.3-0.4-1.9-0.6c-0.1,0-0.2-0.2-0.1-0.3
				c0-0.1,0.2-0.2,0.3-0.1c0.6,0.2,1.2,0.4,1.8,0.6l0.1,0c0.1,0,0.2,0.2,0.2,0.3C21.8,143.8,21.6,143.8,21.5,143.8z M23.4,144.2
				c-0.1,0-0.2-0.1-0.2-0.3c0-0.1,0.1-0.2,0.3-0.2c0.6,0.1,1.3,0.1,1.9,0.1c0.1,0,0.2,0.1,0.2,0.3c0,0.1-0.1,0.2-0.3,0.2
				C24.8,144.3,24.1,144.2,23.4,144.2C23.5,144.2,23.4,144.2,23.4,144.2z M130.7,170.8c-0.1,0-0.1,0-0.1-0.1
				c-0.4-0.5-0.7-1.1-1.1-1.7c-0.1-0.1,0-0.3,0.1-0.3c0.1-0.1,0.3,0,0.3,0.1c0.3,0.6,0.7,1.1,1,1.6c0.1,0.1,0.1,0.3-0.1,0.3
				C130.8,170.8,130.7,170.8,130.7,170.8z M17.8,142.4C17.8,142.4,17.8,142.4,17.8,142.4c-0.6-0.3-1.2-0.7-1.8-1.1
				c-0.1-0.1-0.1-0.2-0.1-0.3c0.1-0.1,0.2-0.1,0.3-0.1c0.5,0.4,1.1,0.7,1.6,1c0.1,0.1,0.2,0.2,0.1,0.3
				C18.1,142.4,17.9,142.4,17.8,142.4z M77.6,157C77.6,156.9,77.5,156.9,77.6,157c-0.6-0.5-1.1-0.9-1.6-1.4c-0.1-0.1-0.1-0.3,0-0.3
				c0.1-0.1,0.3-0.1,0.3,0c0.4,0.5,0.9,0.9,1.4,1.3c0.1,0.1,0.1,0.2,0,0.3C77.8,156.9,77.7,157,77.6,157z M153,175.7
				c-0.1,0-0.1,0-0.1-0.1c-0.1-0.1-0.1-0.3,0.1-0.3c0.5-0.4,1-0.8,1.5-1.2c0.1-0.1,0.3-0.1,0.3,0c0.1,0.1,0.1,0.3,0,0.3
				c-0.5,0.4-1,0.9-1.6,1.2C153.1,175.7,153,175.7,153,175.7z M27.4,144.2c-0.1,0-0.2-0.1-0.2-0.2c0-0.1,0.1-0.3,0.2-0.3
				c0.6-0.1,1.3-0.1,1.9-0.3c0.1,0,0.3,0.1,0.3,0.2c0,0.1-0.1,0.3-0.2,0.3C28.8,144.1,28.1,144.2,27.4,144.2
				C27.4,144.2,27.4,144.2,27.4,144.2z M90.7,159.9c-0.1,0-0.2-0.1-0.2-0.2c0-0.1,0.1-0.3,0.2-0.3c0.6-0.1,1.3-0.2,1.9-0.4
				c0.1,0,0.3,0.1,0.3,0.2c0,0.1-0.1,0.3-0.2,0.3C92.1,159.7,91.4,159.8,90.7,159.9C90.7,159.9,90.7,159.9,90.7,159.9z M14.6,140.1
				c0,0-0.1,0-0.1-0.1c-0.5-0.5-0.9-0.9-1.4-1.5c-0.1-0.1-0.1-0.3,0-0.3c0.1-0.1,0.3-0.1,0.3,0c0.4,0.5,0.9,1,1.3,1.4
				c0.1,0.1,0.1,0.2,0,0.3C14.8,140.1,14.7,140.1,14.6,140.1z M31.2,143.5c-0.1,0-0.2-0.1-0.2-0.2c0-0.1,0-0.3,0.2-0.3
				c0.6-0.2,1.2-0.4,1.9-0.6c0.1,0,0.3,0,0.3,0.1s0,0.3-0.1,0.3c-0.6,0.2-1.3,0.4-1.9,0.6C31.3,143.6,31.3,143.6,31.2,143.5z
				 M94.5,159c-0.1,0-0.1-0.1-0.2-0.2c0-0.1,0-0.3,0.2-0.3c0.6-0.2,1.2-0.4,1.8-0.6c0.1,0,0.3,0,0.3,0.1c0,0.1,0,0.3-0.1,0.3
				c-0.6,0.2-1.3,0.5-1.9,0.7C94.6,159,94.6,159,94.5,159z M74.9,154.1c-0.1,0-0.1,0-0.1-0.1c-0.4-0.5-0.7-1.1-1.1-1.7
				c-0.1-0.1,0-0.3,0.1-0.3c0.1-0.1,0.3,0,0.3,0.1c0.3,0.6,0.6,1.1,1,1.6c0.1,0.1,0.1,0.3-0.1,0.3C75.1,154.1,75,154.1,74.9,154.1z
				 M128.7,167.4c-0.1,0-0.1-0.1-0.2-0.1c-0.3-0.6-0.5-1.2-0.7-1.8c0-0.1,0-0.3,0.2-0.3c0.1,0,0.3,0,0.3,0.2
				c0.2,0.6,0.5,1.2,0.7,1.8c0.1,0.1,0,0.3-0.1,0.3C128.8,167.4,128.8,167.4,128.7,167.4z M155.9,173.1c0,0-0.1,0-0.1-0.1
				c-0.1-0.1-0.1-0.2,0-0.3c0.4-0.5,0.9-1,1.2-1.5c0.1-0.1,0.2-0.1,0.3,0c0.1,0.1,0.1,0.2,0,0.3c-0.4,0.5-0.8,1-1.3,1.5
				C156.1,173.1,156,173.1,155.9,173.1z M12.1,137.1c-0.1,0-0.1-0.1-0.1-0.1c-0.4-0.6-0.7-1.1-1-1.7c-0.1-0.1,0-0.3,0.1-0.3
				c0.1-0.1,0.3,0,0.3,0.1c0.3,0.6,0.6,1.2,1,1.7c0.1,0.1,0,0.3-0.1,0.3C12.3,137.1,12.2,137.1,12.1,137.1z M34.9,142.2
				c-0.1,0-0.1-0.1-0.2-0.1c-0.1-0.1,0-0.3,0.1-0.3c0.6-0.3,1.2-0.6,1.7-0.9c0.1-0.1,0.3,0,0.3,0.1c0.1,0.1,0,0.3-0.1,0.3
				c-0.6,0.3-1.2,0.6-1.8,0.9C35.1,142.2,35,142.2,34.9,142.2z M98.2,157.6c-0.1,0-0.1-0.1-0.2-0.1c-0.1-0.1,0-0.3,0.1-0.3
				c0.6-0.3,1.2-0.6,1.8-0.9c0.1-0.1,0.3,0,0.3,0.1c0.1,0.1,0,0.3-0.1,0.3c-0.6,0.3-1.2,0.6-1.8,0.9
				C98.3,157.6,98.2,157.6,98.2,157.6z M73.1,150.6c-0.1,0-0.1-0.1-0.2-0.2c-0.2-0.6-0.4-1.3-0.6-1.9c0-0.1,0.1-0.3,0.2-0.3
				c0.1,0,0.3,0.1,0.3,0.2c0.1,0.6,0.3,1.3,0.5,1.9c0,0.1,0,0.3-0.1,0.3C73.2,150.6,73.1,150.6,73.1,150.6z M127.4,163.7
				c-0.1,0-0.2-0.1-0.2-0.2c-0.2-0.6-0.3-1.3-0.4-1.9c0-0.1,0.1-0.3,0.2-0.3c0.1,0,0.3,0.1,0.3,0.2c0.1,0.6,0.3,1.3,0.4,1.9
				c0,0.1,0,0.3-0.2,0.3C127.5,163.7,127.4,163.7,127.4,163.7z M10.4,133.5c-0.1,0-0.1-0.1-0.2-0.2c-0.2-0.6-0.4-1.3-0.6-1.9
				c0-0.1,0-0.3,0.2-0.3c0.1,0,0.3,0,0.3,0.2c0.2,0.6,0.4,1.3,0.6,1.9c0,0.1,0,0.3-0.1,0.3C10.5,133.5,10.4,133.5,10.4,133.5z
				 M38.4,140.2c-0.1,0-0.1,0-0.1-0.1c-0.1-0.1,0-0.3,0.1-0.3c0.5-0.4,1.1-0.8,1.6-1.2c0.1-0.1,0.3-0.1,0.3,0c0.1,0.1,0.1,0.3,0,0.3
				c-0.5,0.4-1,0.8-1.6,1.2C38.5,140.2,38.4,140.2,38.4,140.2z M158.3,170C158.3,170,158.2,169.9,158.3,170
				c-0.2-0.1-0.2-0.2-0.2-0.4c0.3-0.6,0.6-1.1,0.9-1.7c0.1-0.1,0.2-0.2,0.3-0.1c0.1,0.1,0.2,0.2,0.1,0.3c-0.3,0.6-0.6,1.2-0.9,1.8
				C158.5,169.9,158.4,170,158.3,170z M101.7,155.7c-0.1,0-0.1-0.1-0.2-0.1c-0.1-0.1,0-0.3,0.1-0.3c0.5-0.3,1.1-0.7,1.7-1
				c0.1-0.1,0.3,0,0.3,0.1c0.1,0.1,0,0.3-0.1,0.3c-0.6,0.4-1.1,0.7-1.7,1.1C101.8,155.7,101.7,155.7,101.7,155.7z M72.3,146.8
				c-0.1,0-0.2-0.1-0.2-0.2l0-0.2c0-0.6,0-1.2,0-1.8c0-0.1,0.1-0.2,0.3-0.2c0.1,0,0.2,0.1,0.2,0.3c0,0.6-0.1,1.2,0,1.7l0,0.2
				C72.6,146.6,72.5,146.8,72.3,146.8C72.3,146.8,72.3,146.8,72.3,146.8z M126.7,159.8c-0.1,0-0.2-0.1-0.2-0.2
				c-0.1-0.6-0.1-1.3-0.1-2c0-0.1,0.1-0.3,0.2-0.3c0.1,0,0.3,0.1,0.3,0.2c0,0.7,0.1,1.3,0.1,2C127,159.6,126.9,159.8,126.7,159.8
				C126.8,159.8,126.7,159.8,126.7,159.8z M9.3,129.7c-0.1,0-0.2-0.1-0.2-0.2c-0.1-0.6-0.2-1.3-0.3-2c0-0.1,0.1-0.3,0.2-0.3
				c0.1,0,0.3,0.1,0.3,0.2c0.1,0.6,0.1,1.3,0.3,1.9c0,0.1-0.1,0.3-0.2,0.3C9.4,129.7,9.4,129.7,9.3,129.7z M41.4,137.7
				c0,0-0.1,0-0.1-0.1c-0.1-0.1-0.1-0.3,0-0.3c0.4-0.4,0.9-0.9,1.4-1.4c0.1-0.1,0.2-0.1,0.3,0c0.1,0.1,0.1,0.2,0,0.3
				c-0.5,0.5-0.9,1-1.4,1.4C41.6,137.7,41.5,137.7,41.4,137.7z M105,153.6c-0.1,0-0.1,0-0.1-0.1c-0.1-0.1,0-0.3,0.1-0.3
				c0.5-0.4,1.1-0.8,1.6-1.1c0.1-0.1,0.3-0.1,0.3,0.1c0.1,0.1,0.1,0.3-0.1,0.3c-0.5,0.4-1.1,0.8-1.6,1.1
				C105.1,153.6,105,153.6,105,153.6z M159.9,166.4C159.9,166.4,159.9,166.4,159.9,166.4c-0.1,0-0.2-0.2-0.2-0.3
				c0.1-0.4,0.2-0.8,0.3-1.2c0.1-0.2,0.1-0.5,0.2-0.7c0-0.1,0.2-0.2,0.3-0.2c0.1,0,0.2,0.2,0.2,0.3c0,0.2-0.1,0.5-0.2,0.7
				c-0.1,0.4-0.2,0.8-0.4,1.2C160.2,166.4,160.1,166.4,159.9,166.4z M72.6,142.9c-0.1,0-0.2-0.2-0.2-0.3c0-0.1,0.1-0.3,0.1-0.4
				c0.1-0.5,0.3-1,0.5-1.5c0-0.1,0.2-0.2,0.3-0.1c0.1,0,0.2,0.2,0.1,0.3c-0.2,0.5-0.3,1-0.5,1.5c0,0.1-0.1,0.3-0.1,0.4
				C72.8,142.8,72.7,142.9,72.6,142.9C72.6,142.9,72.6,142.9,72.6,142.9z M108.2,151.3c-0.1,0-0.1,0-0.1-0.1
				c-0.1-0.1-0.1-0.3,0.1-0.3c0.5-0.3,0.9-0.7,1.4-1l0.2-0.1c0.1-0.1,0.3-0.1,0.3,0.1c0.1,0.1,0.1,0.3-0.1,0.3l-0.2,0.1
				c-0.5,0.3-0.9,0.7-1.4,1C108.3,151.3,108.2,151.3,108.2,151.3z M126.5,155.8c-0.1,0-0.2-0.1-0.2-0.2c0-0.6,0-1.3,0.1-2
				c0-0.1,0.1-0.2,0.3-0.2c0.1,0,0.2,0.1,0.2,0.3c0,0.7-0.1,1.3-0.1,2C126.8,155.7,126.7,155.9,126.5,155.8
				C126.6,155.8,126.6,155.8,126.5,155.8z M44.1,134.8C44,134.8,44,134.8,44.1,134.8c-0.2-0.1-0.2-0.3-0.1-0.4
				c0.4-0.5,0.8-1,1.2-1.5c0.1-0.1,0.2-0.1,0.3,0c0.1,0.1,0.1,0.2,0,0.3c-0.4,0.5-0.8,1-1.3,1.5C44.2,134.8,44.1,134.8,44.1,134.8z
				 M9,125.8c-0.1,0-0.2-0.1-0.2-0.2c0-0.7,0-1.3,0.1-2c0-0.1,0.1-0.2,0.3-0.2c0.1,0,0.2,0.1,0.2,0.3c0,0.6-0.1,1.3-0.1,2
				C9.3,125.7,9.2,125.8,9,125.8C9,125.8,9,125.8,9,125.8z M81.6,142.8L81.6,142.8c-0.2-0.1-0.3-0.2-0.3-0.3c0-0.1,0.2-0.2,0.3-0.2
				l0.1,0c0.6,0.1,1.2,0.2,1.8,0.2c0.1,0,0.2,0.1,0.2,0.2c0,0.1-0.1,0.2-0.2,0.2C82.8,143,82.2,142.9,81.6,142.8z M160.7,162.5
				c-0.1,0-0.2-0.1-0.2-0.3c0-0.1,0-0.3,0-0.4c0-0.5,0-1,0-1.5c0-0.1,0.1-0.3,0.2-0.3c0.1,0,0.3,0.1,0.3,0.2c0,0.5,0,1,0,1.5
				c0,0.2,0,0.3,0,0.5C161,162.5,160.9,162.6,160.7,162.5C160.8,162.5,160.7,162.5,160.7,162.5z M79.7,142
				C79.7,142,79.7,142,79.7,142c-0.6-0.3-1.2-0.7-1.7-1.2c-0.1-0.1-0.1-0.2,0-0.3c0.1-0.1,0.2-0.1,0.3,0c0.5,0.4,1,0.8,1.6,1.1
				c0.1,0.1,0.2,0.2,0.1,0.3C79.9,142,79.8,142,79.7,142z M85.4,142.8c-0.1,0-0.2-0.1-0.2-0.2c0-0.1,0-0.3,0.2-0.3
				c0.6-0.2,1.2-0.4,1.8-0.7c0.1-0.1,0.3,0,0.3,0.1c0.1,0.1,0,0.3-0.1,0.3c-0.6,0.3-1.2,0.5-1.9,0.7
				C85.5,142.8,85.4,142.8,85.4,142.8z M111.3,148.9c-0.1,0-0.1,0-0.1-0.1c-0.1-0.1-0.1-0.3,0.1-0.3c0.5-0.4,1.1-0.8,1.6-1.2
				c0.1-0.1,0.3-0.1,0.3,0.1c0.1,0.1,0.1,0.3-0.1,0.3c-0.5,0.4-1.1,0.8-1.6,1.2C111.5,148.9,111.4,148.9,111.3,148.9z M73.9,139.2
				C73.9,139.2,73.9,139.1,73.9,139.2c-0.2-0.1-0.2-0.2-0.2-0.4c0.3-0.6,0.7-1.2,1.1-1.7c0.1-0.1,0.2-0.1,0.3-0.1
				c0.1,0.1,0.1,0.2,0.1,0.3c-0.4,0.5-0.7,1.1-1,1.6C74.1,139.1,74,139.2,73.9,139.2z M76.6,139.5c0,0-0.1,0-0.1-0.1
				c-0.4-0.5-0.8-1-1.3-1.5c-0.1-0.1-0.1-0.3,0.1-0.3c0.1-0.1,0.3-0.1,0.3,0.1c0.4,0.6,0.8,1.1,1.2,1.5c0.1,0.1,0.1,0.3,0,0.3
				C76.8,139.5,76.7,139.6,76.6,139.5z M126.8,151.9c-0.1,0-0.2-0.1-0.2-0.3c0.1-0.6,0.2-1.3,0.3-2c0-0.1,0.1-0.2,0.3-0.2
				c0.1,0,0.2,0.1,0.2,0.3c-0.1,0.7-0.2,1.3-0.3,1.9C127.1,151.8,127,151.9,126.8,151.9C126.8,151.9,126.8,151.9,126.8,151.9z
				 M46.5,131.7C46.5,131.7,46.5,131.7,46.5,131.7c-0.2-0.1-0.2-0.3-0.1-0.4c0.4-0.5,0.8-1,1.3-1.5c0.1-0.1,0.2-0.1,0.3,0
				c0.1,0.1,0.1,0.2,0,0.3c-0.4,0.5-0.8,1-1.3,1.5C46.7,131.7,46.6,131.8,46.5,131.7z M9.3,121.9c-0.1,0-0.2-0.1-0.2-0.3
				c0-0.2,0.1-0.5,0.1-0.7c0.1-0.4,0.2-0.8,0.3-1.3c0-0.1,0.2-0.2,0.3-0.2c0.2,0,0.2,0.2,0.2,0.3c-0.1,0.4-0.2,0.8-0.3,1.2
				c0,0.2-0.1,0.5-0.1,0.7C9.5,121.8,9.4,121.9,9.3,121.9C9.3,121.9,9.3,121.9,9.3,121.9z M88.8,140.9c0,0-0.1,0-0.1-0.1
				c-0.1-0.1-0.1-0.3,0-0.3c0.5-0.5,0.8-1,1-1.5c0.1-0.1,0.2-0.2,0.3-0.1c0.1,0,0.2,0.2,0.1,0.3c-0.2,0.6-0.6,1.2-1.1,1.7
				C89,140.9,88.9,140.9,88.8,140.9z M160.6,158.6c-0.1,0-0.2-0.1-0.2-0.2c-0.1-0.6-0.2-1.3-0.4-1.9c0-0.1,0-0.3,0.2-0.3
				c0.1,0,0.3,0,0.3,0.2c0.2,0.6,0.3,1.3,0.4,2C160.9,158.5,160.8,158.6,160.6,158.6C160.7,158.6,160.6,158.6,160.6,158.6z
				 M114.5,146.6c-0.1,0-0.1,0-0.1-0.1c-0.1-0.1,0-0.3,0.1-0.3c0.5-0.4,1.1-0.7,1.6-1.1c0.1-0.1,0.3,0,0.3,0.1
				c0.1,0.1,0,0.3-0.1,0.3c-0.5,0.4-1.1,0.7-1.6,1.1C114.7,146.6,114.6,146.6,114.5,146.6z M74.3,136.4c-0.1,0-0.1-0.1-0.1-0.1
				c-0.3-0.5-0.7-1.1-1-1.7c-0.1-0.1,0-0.3,0.1-0.3c0.1-0.1,0.3,0,0.3,0.1c0.4,0.6,0.7,1.2,1,1.7c0.1,0.1,0,0.3-0.1,0.3
				C74.4,136.4,74.4,136.4,74.3,136.4z M76.2,136c0,0-0.1,0-0.1-0.1c-0.1-0.1-0.1-0.2,0-0.3c0.5-0.5,1-0.9,1.5-1.4
				c0.1-0.1,0.3-0.1,0.3,0c0.1,0.1,0.1,0.3,0,0.3c-0.5,0.4-1,0.8-1.4,1.3C76.4,136,76.3,136,76.2,136z M49.1,128.8
				c0,0-0.1,0-0.1-0.1c-0.1-0.1-0.1-0.2,0-0.3c0.4-0.5,0.9-0.9,1.3-1.3l0.1-0.1c0.1-0.1,0.3-0.1,0.3,0c0.1,0.1,0.1,0.3,0,0.3
				l-0.1,0.1c-0.4,0.4-0.8,0.8-1.3,1.3C49.3,128.8,49.2,128.8,49.1,128.8z M127.5,148c-0.1,0-0.2-0.2-0.2-0.3
				c0.1-0.6,0.3-1.3,0.4-1.9c0-0.1,0.2-0.2,0.3-0.2c0,0,0,0,0,0c0.1,0,0.2,0.2,0.2,0.3c-0.2,0.6-0.3,1.3-0.4,1.9
				C127.7,148,127.6,148,127.5,148C127.5,148,127.5,148,127.5,148z M10.1,118C10.1,118,10.1,118,10.1,118c-0.1,0-0.2-0.2-0.2-0.3
				c0.2-0.6,0.4-1.3,0.6-1.9c0-0.1,0.2-0.2,0.3-0.1c0.1,0,0.2,0.2,0.1,0.3c-0.2,0.6-0.4,1.2-0.6,1.9C10.4,118,10.3,118.1,10.1,118z
				 M117.9,144.5c-0.1,0-0.1-0.1-0.2-0.1c-0.1-0.1,0-0.3,0.1-0.3c0.4-0.2,0.8-0.5,1.2-0.7c0.2-0.1,0.3-0.2,0.5-0.3
				c0.1-0.1,0.3,0,0.3,0.1c0.1,0.1,0,0.3-0.1,0.3c-0.2,0.1-0.3,0.2-0.5,0.3c-0.4,0.2-0.8,0.5-1.2,0.7
				C118,144.5,117.9,144.5,117.9,144.5z M72.3,133c-0.1,0-0.1-0.1-0.2-0.1l-0.2-0.4c-0.2-0.4-0.5-0.8-0.7-1.3
				c-0.1-0.1,0-0.3,0.1-0.3c0.1-0.1,0.3,0,0.3,0.1c0.2,0.4,0.5,0.9,0.7,1.3l0.2,0.4c0.1,0.1,0,0.3-0.1,0.3
				C72.5,133,72.4,133,72.3,133z M159.6,154.8c-0.1,0-0.1-0.1-0.2-0.2c-0.2-0.6-0.5-1.2-0.7-1.8c-0.1-0.1,0-0.3,0.1-0.3
				c0.1-0.1,0.3,0,0.3,0.1c0.3,0.6,0.5,1.2,0.8,1.8c0,0.1,0,0.3-0.1,0.3C159.7,154.8,159.7,154.8,159.6,154.8z M90.2,137.4
				c-0.1,0-0.2-0.1-0.2-0.2c0-0.6-0.2-1.2-0.5-1.8c-0.1-0.1,0-0.3,0.1-0.3c0.1-0.1,0.3,0,0.3,0.1c0.3,0.6,0.5,1.3,0.6,2
				C90.5,137.2,90.4,137.4,90.2,137.4C90.3,137.4,90.2,137.4,90.2,137.4z M79.3,133.5c-0.1,0-0.1-0.1-0.2-0.1
				c-0.1-0.1,0-0.3,0.1-0.3c0.6-0.3,1.2-0.6,1.8-0.8c0.1,0,0.3,0,0.3,0.2c0,0.1,0,0.3-0.2,0.3c-0.6,0.2-1.2,0.5-1.8,0.8
				C79.4,133.5,79.3,133.5,79.3,133.5z M52,126.1c-0.1,0-0.1,0-0.1-0.1c-0.1-0.1-0.1-0.3,0-0.3c0.5-0.4,1.1-0.8,1.6-1.1
				c0.1-0.1,0.3,0,0.3,0.1c0.1,0.1,0,0.3-0.1,0.3c-0.5,0.3-1.1,0.7-1.6,1.1C52.2,126.1,52.1,126.1,52,126.1z M121.3,142.6
				c-0.1,0-0.1-0.1-0.2-0.1c-0.1-0.1,0-0.3,0.1-0.3c0.6-0.3,1.2-0.5,1.8-0.8c0.1-0.1,0.3,0,0.3,0.1c0.1,0.1,0,0.3-0.1,0.3
				c-0.6,0.2-1.2,0.5-1.8,0.8C121.4,142.6,121.4,142.6,121.3,142.6z M128.4,144.2C128.4,144.2,128.4,144.2,128.4,144.2
				c-0.1,0-0.2-0.2-0.2-0.3c0.1-0.4,0.2-0.8,0.3-1.2c0.1-0.2,0.1-0.5,0.2-0.7c0-0.1,0.2-0.2,0.3-0.2c0.1,0,0.2,0.2,0.2,0.3
				c-0.1,0.2-0.2,0.5-0.2,0.7c-0.1,0.4-0.2,0.8-0.3,1.1C128.7,144.1,128.5,144.2,128.4,144.2z M70.4,129.5c-0.1,0-0.1-0.1-0.1-0.1
				c-0.4-0.6-0.7-1.1-1.1-1.6c-0.1-0.1-0.1-0.3,0-0.3c0.1-0.1,0.3-0.1,0.3,0c0.4,0.5,0.8,1,1.1,1.6c0.1,0.1,0,0.3-0.1,0.3
				C70.5,129.6,70.4,129.6,70.4,129.5z M88.5,133.9c0,0-0.1,0-0.1-0.1c-0.5-0.4-1-0.8-1.6-1.1c-0.1-0.1-0.2-0.2-0.1-0.3
				c0.1-0.1,0.2-0.2,0.3-0.1c0.6,0.3,1.2,0.7,1.7,1.1c0.1,0.1,0.1,0.2,0,0.3C88.6,133.9,88.6,133.9,88.5,133.9z M158,151.2
				c-0.1,0-0.1-0.1-0.2-0.1c-0.3-0.6-0.7-1.1-1.1-1.6c-0.1-0.1-0.1-0.3,0.1-0.3c0.1-0.1,0.3-0.1,0.3,0.1c0.4,0.5,0.7,1.1,1.1,1.7
				c0.1,0.1,0,0.3-0.1,0.3C158.1,151.2,158,151.2,158,151.2z M83,132.3c-0.1,0-0.2-0.1-0.2-0.2c0-0.1,0.1-0.3,0.2-0.3
				c0.7-0.1,1.4-0.1,2,0c0.1,0,0.2,0.1,0.2,0.3c0,0.1-0.1,0.2-0.3,0.2C84.4,132.2,83.7,132.2,83,132.3C83.1,132.3,83,132.3,83,132.3
				z M11.5,114.3C11.5,114.3,11.4,114.3,11.5,114.3c-0.2-0.1-0.2-0.2-0.2-0.3c0.3-0.6,0.5-1.2,0.8-1.8c0.1-0.1,0.2-0.2,0.3-0.1
				c0.1,0.1,0.2,0.2,0.1,0.3c-0.3,0.6-0.6,1.2-0.8,1.8C11.7,114.3,11.6,114.4,11.5,114.3z M55.4,124.1c-0.1,0-0.1-0.1-0.2-0.1
				c-0.1-0.1,0-0.3,0.1-0.3c0.6-0.3,1.3-0.5,1.9-0.7c0.1,0,0.3,0,0.3,0.2c0,0.1,0,0.3-0.2,0.3c-0.6,0.2-1.2,0.4-1.8,0.7
				C55.5,124.1,55.4,124.1,55.4,124.1z M125,141.2c-0.1,0-0.1-0.1-0.2-0.2c0-0.1,0-0.3,0.2-0.3c0.6-0.2,1.3-0.4,1.9-0.6
				c0.1,0,0.3,0,0.3,0.2c0,0.1,0,0.3-0.2,0.3c-0.6,0.2-1.3,0.4-1.9,0.6C125.1,141.2,125,141.2,125,141.2z M68,126.4
				c0,0-0.1,0-0.1-0.1c-0.5-0.5-0.9-0.9-1.4-1.3c-0.1-0.1-0.1-0.2,0-0.3c0.1-0.1,0.2-0.1,0.3,0c0.5,0.4,1,0.9,1.5,1.4
				c0.1,0.1,0.1,0.3,0,0.3C68.1,126.4,68,126.4,68,126.4z M155.7,148c0,0-0.1,0-0.1-0.1c-0.4-0.5-0.9-1-1.3-1.4
				c-0.1-0.1-0.1-0.3,0-0.3c0.1-0.1,0.3-0.1,0.3,0c0.5,0.5,0.9,1,1.3,1.5c0.1,0.1,0.1,0.3,0,0.3C155.8,148,155.8,148,155.7,148z
				 M59.2,122.9c-0.1,0-0.2-0.1-0.2-0.2c0-0.1,0.1-0.3,0.2-0.3c0.7-0.1,1.4-0.1,2-0.1c0.1,0,0.2,0.1,0.2,0.3c0,0.1-0.1,0.2-0.3,0.2
				C60.5,122.9,59.9,122.9,59.2,122.9C59.2,123,59.2,123,59.2,122.9z M129.6,140.4C129.6,140.4,129.5,140.4,129.6,140.4
				c-0.2-0.1-0.2-0.2-0.2-0.3c0-0.1,0-0.1,0.1-0.2c-0.2,0-0.4,0.1-0.6,0.1c-0.1,0-0.3-0.1-0.3-0.2c0-0.1,0.1-0.3,0.2-0.3
				c0.3-0.1,0.6-0.1,0.9-0.2c0.1-0.4,0.3-0.8,0.4-1.2c0.1-0.1,0.2-0.2,0.3-0.1c0.1,0.1,0.2,0.2,0.1,0.3c-0.1,0.3-0.2,0.6-0.3,0.9
				c0.2,0,0.3-0.1,0.5-0.1c0.1,0,0.3,0.1,0.3,0.2c0,0.1-0.1,0.3-0.2,0.3c-0.3,0-0.5,0.1-0.8,0.1c-0.1,0.1-0.1,0.3-0.2,0.4
				C129.8,140.4,129.7,140.5,129.6,140.4z M64.9,124C64.9,124,64.8,124,64.9,124c-0.6-0.3-1.1-0.5-1.7-0.7l-0.1,0
				c-0.1,0-0.2-0.2-0.2-0.3c0-0.1,0.2-0.2,0.3-0.2l0.1,0c0.6,0.2,1.2,0.4,1.7,0.7c0.1,0.1,0.2,0.2,0.1,0.3C65.1,124,65,124,64.9,124
				z M13.2,110.8C13.2,110.8,13.2,110.8,13.2,110.8c-0.2-0.1-0.2-0.2-0.2-0.4c0.3-0.6,0.6-1.1,1-1.7c0.1-0.1,0.2-0.2,0.3-0.1
				c0.1,0.1,0.2,0.2,0.1,0.3c-0.3,0.6-0.7,1.1-1,1.7C13.4,110.8,13.3,110.8,13.2,110.8z M152.9,145.2c0,0-0.1,0-0.1-0.1
				c-0.5-0.4-1-0.8-1.5-1.2c-0.1-0.1-0.1-0.2-0.1-0.3c0.1-0.1,0.2-0.1,0.3-0.1c0.5,0.4,1.1,0.8,1.6,1.2c0.1,0.1,0.1,0.2,0,0.3
				C153.1,145.2,153,145.2,152.9,145.2z M132.7,139.4c-0.1,0-0.2-0.1-0.2-0.2c0-0.1,0.1-0.3,0.2-0.3c0.7-0.1,1.3-0.1,2-0.2
				c0.1,0,0.3,0.1,0.3,0.2c0,0.1-0.1,0.3-0.2,0.3C134.1,139.3,133.4,139.4,132.7,139.4C132.7,139.4,132.7,139.4,132.7,139.4z
				 M149.7,142.9C149.7,142.9,149.7,142.9,149.7,142.9c-0.6-0.4-1.2-0.7-1.8-1c-0.1-0.1-0.2-0.2-0.1-0.3c0.1-0.1,0.2-0.2,0.3-0.1
				c0.6,0.3,1.2,0.6,1.7,1c0.1,0.1,0.2,0.2,0.1,0.3C150,142.9,149.8,142.9,149.7,142.9z M136.6,139.2c-0.1,0-0.2-0.1-0.2-0.2
				c0-0.1,0.1-0.2,0.3-0.2c0.7,0,1.3,0,2,0.1c0.1,0,0.2,0.1,0.2,0.3c0,0.1-0.1,0.2-0.3,0.2C138,139.3,137.3,139.3,136.6,139.2
				C136.6,139.2,136.6,139.2,136.6,139.2z M146.2,141.1C146.2,141.1,146.2,141.1,146.2,141.1c-0.2-0.1-0.3-0.1-0.5-0.2
				c-0.5-0.2-0.9-0.3-1.4-0.5c-0.1,0-0.2-0.2-0.2-0.3c0-0.1,0.2-0.2,0.3-0.2c0.5,0.1,1,0.3,1.4,0.5c0.1,0.1,0.3,0.1,0.4,0.2
				c0.1,0.1,0.2,0.2,0.1,0.3C146.5,141.1,146.3,141.1,146.2,141.1z M140.5,139.6c-0.1,0-0.2-0.1-0.2-0.3c0-0.1,0.1-0.2,0.3-0.2
				c0.7,0.1,1.3,0.2,2,0.4c0.1,0,0.2,0.2,0.2,0.3c0,0.1-0.2,0.2-0.3,0.2C141.8,139.8,141.2,139.7,140.5,139.6
				C140.5,139.6,140.5,139.6,140.5,139.6z M131,136.8C131,136.8,131,136.8,131,136.8c-0.2-0.1-0.2-0.2-0.2-0.3
				c0.3-0.6,0.6-1.2,0.9-1.8c0.1-0.1,0.2-0.2,0.3-0.1c0.1,0.1,0.2,0.2,0.1,0.3c-0.3,0.6-0.6,1.2-0.9,1.8
				C131.3,136.7,131.1,136.8,131,136.8z M15.2,107.4C15.2,107.4,15.1,107.4,15.2,107.4c-0.2-0.1-0.2-0.3-0.1-0.4
				c0.4-0.6,0.7-1.1,1.1-1.7c0.1-0.1,0.2-0.1,0.3-0.1c0.1,0.1,0.1,0.2,0.1,0.3c-0.4,0.5-0.7,1.1-1.1,1.6
				C15.4,107.4,15.3,107.4,15.2,107.4z M132.8,133.3C132.8,133.3,132.8,133.2,132.8,133.3c-0.2-0.1-0.2-0.2-0.2-0.4
				c0.3-0.6,0.7-1.1,1.1-1.7c0.1-0.1,0.2-0.1,0.3-0.1c0.1,0.1,0.1,0.2,0.1,0.3c-0.4,0.5-0.7,1.1-1,1.7
				C133.1,133.2,132.9,133.3,132.8,133.3z M17.4,104.1C17.4,104.1,17.3,104.1,17.4,104.1c-0.2-0.1-0.2-0.3-0.1-0.4
				c0.4-0.5,0.8-1.1,1.2-1.6c0.1-0.1,0.2-0.1,0.3-0.1c0.1,0.1,0.1,0.2,0.1,0.3c-0.4,0.5-0.8,1.1-1.2,1.6
				C17.6,104.1,17.5,104.1,17.4,104.1z M135,130C135,130,135,130,135,130c-0.2-0.1-0.2-0.3-0.1-0.4c0.4-0.5,0.9-1,1.3-1.5
				c0.1-0.1,0.2-0.1,0.3,0c0.1,0.1,0.1,0.2,0,0.3c-0.4,0.5-0.9,1-1.3,1.5C135.2,130,135.1,130,135,130z M19.7,101
				C19.7,100.9,19.7,100.9,19.7,101c-0.2-0.1-0.2-0.3-0.1-0.4c0.4-0.5,0.8-1,1.2-1.6c0.1-0.1,0.2-0.1,0.3,0c0.1,0.1,0.1,0.2,0,0.3
				c-0.4,0.5-0.8,1-1.2,1.6C19.9,100.9,19.8,101,19.7,101z M137.7,127.1c0,0-0.1,0-0.1-0.1c-0.1-0.1-0.1-0.3,0-0.3
				c0.5-0.5,1-0.9,1.5-1.3c0.1-0.1,0.3-0.1,0.3,0.1c0.1,0.1,0.1,0.3-0.1,0.3c-0.5,0.4-1,0.8-1.5,1.2
				C137.9,127.1,137.8,127.1,137.7,127.1z M22.2,97.8C22.1,97.8,22.1,97.8,22.2,97.8c-0.2-0.1-0.2-0.3-0.1-0.4l1.2-1.6
				c0.1-0.1,0.2-0.1,0.3,0c0.1,0.1,0.1,0.2,0,0.3l-1.2,1.6C22.3,97.8,22.2,97.9,22.2,97.8z M140.9,124.8c-0.1,0-0.1-0.1-0.2-0.1
				c-0.1-0.1,0-0.3,0.1-0.3c0.6-0.3,1.2-0.6,1.8-0.9c0.1-0.1,0.3,0,0.3,0.1c0.1,0.1,0,0.3-0.1,0.3c-0.6,0.3-1.2,0.5-1.7,0.9
				C141,124.8,141,124.8,140.9,124.8z M24.6,94.7C24.5,94.7,24.5,94.7,24.6,94.7c-0.2-0.1-0.2-0.3-0.1-0.4c0.4-0.5,0.8-1,1.2-1.6
				c0.1-0.1,0.2-0.1,0.3-0.1c0.1,0.1,0.1,0.2,0.1,0.3c-0.4,0.5-0.8,1.1-1.2,1.6C24.8,94.7,24.7,94.7,24.6,94.7z M144.5,123.2
				c-0.1,0-0.2-0.1-0.2-0.2c0-0.1,0-0.3,0.2-0.3c0.6-0.2,1.3-0.3,1.9-0.5c0.1,0,0.3,0.1,0.3,0.2c0,0.1-0.1,0.3-0.2,0.3
				c-0.6,0.1-1.3,0.3-1.9,0.4C144.6,123.2,144.6,123.2,144.5,123.2z M148.4,122.5c-0.1,0-0.2-0.1-0.2-0.2c0-0.1,0.1-0.3,0.2-0.3
				c0.6,0,1.3-0.1,2-0.1c0.1,0,0.2,0.1,0.2,0.3c0,0.1-0.1,0.2-0.2,0.2C149.7,122.5,149.1,122.5,148.4,122.5
				C148.4,122.5,148.4,122.5,148.4,122.5z M26.9,91.6C26.9,91.5,26.9,91.5,26.9,91.6c-0.2-0.1-0.2-0.3-0.1-0.4
				c0.4-0.5,0.8-1.1,1.1-1.6c0.1-0.1,0.2-0.1,0.3-0.1c0.1,0.1,0.1,0.2,0.1,0.3c-0.4,0.5-0.8,1.1-1.1,1.6
				C27.1,91.5,27,91.6,26.9,91.6z M152.3,122.6c-0.1,0-0.2-0.1-0.2-0.3c0-0.1,0.1-0.2,0.3-0.2c0.6,0.1,1.3,0.1,2,0.2
				c0.1,0,0.2,0.1,0.2,0.3c0,0.1-0.1,0.2-0.3,0.2C153.6,122.7,153,122.6,152.3,122.6C152.3,122.6,152.3,122.6,152.3,122.6z
				 M156.2,123.1c-0.1,0-0.2-0.2-0.2-0.3c0-0.1,0.2-0.2,0.3-0.2c0.6,0.1,1.3,0.2,1.9,0.4c0.1,0,0.2,0.2,0.2,0.3
				c0,0.1-0.2,0.2-0.3,0.2C157.5,123.3,156.9,123.2,156.2,123.1C156.2,123.1,156.2,123.1,156.2,123.1z M160.1,123.8
				c-0.1,0-0.2-0.2-0.2-0.3c0-0.1,0.2-0.2,0.3-0.2l0,0c0.6,0.1,1.3,0.3,1.9,0.4c0.1,0,0.2,0.2,0.2,0.3c0,0.1-0.2,0.2-0.3,0.2
				C161.4,124.1,160.8,124,160.1,123.8C160.1,123.8,160.1,123.8,160.1,123.8z M164,124.6c-0.1,0-0.2-0.2-0.2-0.3
				c0-0.1,0.2-0.2,0.3-0.2c0.7,0.1,1.3,0.2,1.9,0.3c0.1,0,0.2,0.1,0.2,0.3c0,0.1-0.1,0.2-0.3,0.2C165.3,124.8,164.7,124.7,164,124.6
				C164,124.6,164,124.6,164,124.6z M167.9,125.1c-0.1,0-0.2-0.1-0.2-0.3c0-0.1,0.1-0.2,0.3-0.2c0.2,0,0.4,0,0.6,0
				c0.4,0,0.9,0,1.3,0.1c0.1,0,0.2,0.1,0.2,0.3c0,0.1-0.1,0.2-0.3,0.2c-0.4,0-0.9,0-1.3-0.1C168.4,125.1,168.1,125.1,167.9,125.1
				C167.9,125.1,167.9,125.1,167.9,125.1z M171.8,125.2c-0.1,0-0.2-0.1-0.2-0.2c0-0.1,0.1-0.3,0.2-0.3c0.7,0,1.3-0.1,1.9-0.2
				c0.1,0,0.3,0.1,0.3,0.2c0,0.1-0.1,0.3-0.2,0.3C173.2,125.1,172.6,125.1,171.8,125.2C171.9,125.2,171.8,125.2,171.8,125.2z
				 M29.2,88.3C29.1,88.3,29.1,88.3,29.2,88.3C29,88.2,28.9,88,29,87.9c0.4-0.5,0.7-1.1,1-1.7c0.1-0.1,0.2-0.2,0.3-0.1
				c0.1,0.1,0.2,0.2,0.1,0.3c-0.3,0.6-0.7,1.1-1,1.7C29.4,88.3,29.3,88.3,29.2,88.3z M175.7,124.6c-0.1,0-0.2-0.1-0.2-0.2
				c0-0.1,0.1-0.3,0.2-0.3c0.6-0.2,1.3-0.3,1.9-0.5c0.1,0,0.3,0,0.3,0.2c0,0.1,0,0.3-0.2,0.3c-0.6,0.2-1.3,0.4-1.9,0.6
				C175.8,124.6,175.8,124.6,175.7,124.6z M18.8,84.3C18.8,84.3,18.8,84.3,18.8,84.3c-0.6-0.2-1.3-0.4-1.9-0.6
				c-0.1,0-0.2-0.2-0.1-0.3c0-0.1,0.2-0.2,0.3-0.1c0.6,0.2,1.2,0.4,1.9,0.6c0.1,0,0.2,0.2,0.2,0.3C19,84.3,18.9,84.4,18.8,84.3z
				 M20.7,84.8c-0.1,0-0.2-0.2-0.2-0.3c0-0.1,0.2-0.2,0.3-0.2c0.6,0.1,1.3,0.2,1.9,0.3c0.1,0,0.2,0.1,0.2,0.3c0,0.1-0.1,0.2-0.3,0.2
				C22,85,21.4,84.9,20.7,84.8C20.7,84.8,20.7,84.8,20.7,84.8z M15.1,83C15.1,83,15.1,83,15.1,83c-0.6-0.3-1.2-0.6-1.8-0.9
				c-0.1-0.1-0.2-0.2-0.1-0.3c0.1-0.1,0.2-0.2,0.3-0.1c0.6,0.3,1.2,0.6,1.7,0.9c0.1,0.1,0.2,0.2,0.1,0.3C15.3,83,15.2,83,15.1,83z
				 M24.6,85.3c-0.1,0-0.2-0.1-0.2-0.2c0-0.1,0.1-0.2,0.3-0.2c0.7,0,1.3,0,2,0c0.1,0,0.3,0.1,0.3,0.2c0,0.1-0.1,0.3-0.2,0.3
				C26,85.3,25.3,85.3,24.6,85.3C24.6,85.3,24.6,85.3,24.6,85.3z M179.4,123.3c-0.1,0-0.1-0.1-0.2-0.1c-0.1-0.1,0-0.3,0.1-0.3
				c0.6-0.3,1.2-0.6,1.7-0.9c0.1-0.1,0.3,0,0.3,0.1c0.1,0.1,0,0.3-0.1,0.3c-0.5,0.4-1.1,0.7-1.7,1
				C179.5,123.3,179.5,123.3,179.4,123.3z M11.6,81.1C11.6,81.1,11.6,81.1,11.6,81.1c-0.6-0.4-1.2-0.8-1.7-1.2
				c-0.1-0.1-0.1-0.2,0-0.3c0.1-0.1,0.2-0.1,0.3,0c0.5,0.4,1,0.8,1.6,1.1c0.1,0.1,0.1,0.2,0.1,0.3C11.8,81.1,11.7,81.1,11.6,81.1z
				 M28.5,85.1c-0.1,0-0.2-0.1-0.2-0.2c0-0.1,0.1-0.3,0.2-0.3c0.6-0.1,1.3-0.2,1.9-0.4c0.1,0,0.3,0.1,0.3,0.2c0,0.1-0.1,0.3-0.2,0.3
				C30,84.8,29.3,85,28.5,85.1C28.6,85.1,28.6,85.1,28.5,85.1z M31.2,84.9C31.2,84.9,31.1,84.9,31.2,84.9C31,84.8,31,84.7,31,84.6
				c0.3-0.6,0.6-1.2,0.9-1.7c0.1-0.1,0.2-0.2,0.3-0.1c0.1,0.1,0.2,0.2,0.1,0.3c-0.3,0.6-0.6,1.2-0.9,1.8
				C31.4,84.9,31.3,84.9,31.2,84.9z M8.5,78.7c0,0-0.1,0-0.1-0.1c-0.5-0.5-1-0.9-1.4-1.4c-0.1-0.1-0.1-0.3,0-0.3
				c0.1-0.1,0.3-0.1,0.3,0c0.4,0.5,0.9,0.9,1.4,1.4c0.1,0.1,0.1,0.2,0,0.3C8.7,78.6,8.6,78.7,8.5,78.7z M32.4,84.1
				c-0.1,0-0.1-0.1-0.2-0.2c0-0.1,0-0.3,0.2-0.3c0.6-0.2,1.2-0.4,1.8-0.7c0.1-0.1,0.3,0,0.3,0.1c0.1,0.1,0,0.3-0.1,0.3
				c-0.6,0.3-1.2,0.5-1.9,0.7C32.5,84.2,32.4,84.2,32.4,84.1z M182.7,121.2c0,0-0.1,0-0.1-0.1c-0.1-0.1-0.1-0.3,0-0.3
				c0.5-0.4,1-0.9,1.4-1.4c0.1-0.1,0.2-0.1,0.3,0c0.1,0.1,0.1,0.2,0,0.3c-0.4,0.5-0.9,1-1.4,1.4
				C182.9,121.2,182.8,121.2,182.7,121.2z M5.9,75.8c-0.1,0-0.1,0-0.1-0.1c-0.4-0.5-0.8-1.1-1.2-1.6c-0.1-0.1,0-0.3,0.1-0.3
				c0.1-0.1,0.3,0,0.3,0.1c0.4,0.5,0.7,1.1,1.1,1.6c0.1,0.1,0.1,0.3,0,0.3C6,75.8,5.9,75.8,5.9,75.8z M36,82.5
				c-0.1,0-0.1-0.1-0.2-0.1c-0.1-0.1,0-0.3,0.1-0.3c0.6-0.3,1.1-0.7,1.7-1c0.1-0.1,0.3,0,0.3,0.1c0.1,0.1,0,0.3-0.1,0.3
				c-0.5,0.4-1.1,0.7-1.7,1.1C36.1,82.5,36,82.6,36,82.5z M32.9,81.4C32.9,81.4,32.9,81.4,32.9,81.4c-0.2-0.1-0.2-0.2-0.2-0.3
				c0.3-0.6,0.5-1.2,0.7-1.8c0-0.1,0.2-0.2,0.3-0.1c0.1,0,0.2,0.2,0.1,0.3c-0.2,0.6-0.5,1.2-0.8,1.8C33.2,81.4,33.1,81.4,32.9,81.4z
				 M185.3,118.2C185.3,118.2,185.2,118.2,185.3,118.2c-0.2-0.1-0.2-0.2-0.2-0.4c0.3-0.5,0.6-1.1,0.8-1.7c0-0.1,0.2-0.2,0.3-0.1
				c0.1,0,0.2,0.2,0.1,0.3c-0.2,0.6-0.5,1.3-0.9,1.8C185.5,118.2,185.4,118.2,185.3,118.2z M3.7,72.5c-0.1,0-0.1-0.1-0.2-0.1
				c-0.3-0.6-0.6-1.2-0.9-1.8c-0.1-0.1,0-0.3,0.1-0.3c0.1-0.1,0.3,0,0.3,0.1C3.4,71,3.6,71.5,4,72.1c0.1,0.1,0,0.3-0.1,0.3
				C3.8,72.5,3.7,72.5,3.7,72.5z M39.2,80.3c0,0-0.1,0-0.1-0.1c-0.1-0.1-0.1-0.3,0-0.3c0.5-0.4,1-0.8,1.5-1.3c0.1-0.1,0.3-0.1,0.3,0
				c0.1,0.1,0.1,0.3,0,0.3c-0.5,0.5-1,0.9-1.5,1.3C39.4,80.3,39.3,80.3,39.2,80.3z M34.4,77.7C34.4,77.7,34.4,77.7,34.4,77.7
				c-0.1,0-0.2-0.2-0.2-0.3c0.2-0.6,0.4-1.2,0.6-1.9c0-0.1,0.2-0.2,0.3-0.2c0.1,0,0.2,0.2,0.2,0.3c-0.2,0.6-0.4,1.3-0.6,1.9
				C34.6,77.7,34.5,77.7,34.4,77.7z M2,68.9c-0.1,0-0.1-0.1-0.2-0.2c-0.2-0.6-0.4-1.2-0.6-1.9c0-0.1,0-0.3,0.2-0.3
				c0.1,0,0.3,0,0.3,0.2c0.2,0.6,0.4,1.2,0.6,1.9c0,0.1,0,0.3-0.1,0.3C2.1,68.9,2.1,68.9,2,68.9z M186.6,114.5
				c-0.1,0-0.2-0.2-0.2-0.3c0.1-0.6,0.2-1.3,0.2-1.9c0-0.1,0.1-0.2,0.3-0.2c0.1,0,0.2,0.1,0.2,0.3c0,0.7-0.1,1.3-0.2,2
				C186.9,114.4,186.8,114.5,186.6,114.5C186.6,114.5,186.6,114.5,186.6,114.5z M42,77.6c0,0-0.1,0-0.1-0.1c-0.1-0.1-0.1-0.2,0-0.3
				c0.4-0.5,0.8-1,1.2-1.5c0.1-0.1,0.2-0.1,0.3-0.1c0.1,0.1,0.1,0.2,0.1,0.3c-0.4,0.5-0.8,1.1-1.2,1.6C42.2,77.6,42.1,77.6,42,77.6z
				 M35.4,73.9c-0.1,0-0.2-0.2-0.2-0.3c0.2-0.6,0.3-1.3,0.4-1.9c0-0.1,0.2-0.2,0.3-0.2c0.1,0,0.2,0.2,0.2,0.3
				c-0.1,0.6-0.3,1.3-0.4,1.9C35.7,73.9,35.6,74,35.4,73.9C35.4,73.9,35.4,73.9,35.4,73.9z M0.9,65.1c-0.1,0-0.2-0.1-0.2-0.2
				c-0.1-0.6-0.3-1.3-0.4-2c0-0.1,0.1-0.3,0.2-0.3c0.1,0,0.3,0.1,0.3,0.2c0.1,0.6,0.2,1.3,0.4,1.9c0,0.1-0.1,0.3-0.2,0.3
				C1,65.1,0.9,65.1,0.9,65.1z M186.7,110.6c-0.1,0-0.2-0.1-0.2-0.2c-0.1-0.6-0.3-1.3-0.5-1.9c0-0.1,0-0.3,0.2-0.3
				c0.1,0,0.3,0,0.3,0.2c0.2,0.6,0.4,1.3,0.5,2C187,110.4,186.9,110.5,186.7,110.6C186.8,110.6,186.7,110.6,186.7,110.6z M44.4,74.4
				C44.3,74.4,44.3,74.4,44.4,74.4c-0.2-0.1-0.2-0.2-0.2-0.4c0.3-0.6,0.6-1.1,0.9-1.7c0.1-0.1,0.2-0.2,0.3-0.1
				c0.1,0.1,0.2,0.2,0.1,0.3c-0.3,0.6-0.6,1.2-0.9,1.8C44.6,74.4,44.5,74.4,44.4,74.4z M0.3,61.2c-0.1,0-0.2-0.1-0.2-0.2
				C0,60.4,0,59.7,0,59c0-0.1,0.1-0.2,0.2-0.3c0.1,0,0.2,0.1,0.3,0.2c0,0.7,0,1.3,0.1,2C0.6,61.1,0.5,61.2,0.3,61.2
				C0.3,61.2,0.3,61.2,0.3,61.2z M36.2,70c-0.1,0-0.2-0.1-0.2-0.3c0.1-0.6,0.2-1.3,0.2-1.9c0-0.1,0.1-0.2,0.3-0.2
				c0.1,0,0.2,0.1,0.2,0.3c-0.1,0.7-0.1,1.3-0.2,2C36.5,70,36.3,70.1,36.2,70C36.2,70.1,36.2,70.1,36.2,70z M166.8,102.4
				c-0.5-0.1-1.1-0.3-1.6-0.5c-0.1,0-0.2-0.2-0.1-0.3c0-0.1,0.2-0.2,0.3-0.1c0.6,0.2,1.2,0.4,1.9,0.6c0.1,0,0.2,0.2,0.2,0.3
				s-0.2,0.2-0.3,0.2C167,102.4,166.9,102.4,166.8,102.4z M169,102.8c-0.1,0-0.2-0.1-0.2-0.3c0-0.1,0.1-0.2,0.3-0.2
				c0.6,0.1,1.2,0.1,1.9,0.1c0.1,0,0.2,0.1,0.2,0.2c0,0.1-0.1,0.2-0.2,0.2C170.3,102.9,169.7,102.8,169,102.8
				C169.1,102.8,169,102.8,169,102.8z M185.4,106.9c-0.1,0-0.1-0.1-0.1-0.1c-0.3-0.6-0.7-1.1-1.2-1.5c-0.1-0.1-0.1-0.3,0-0.3
				c0.1-0.1,0.3-0.1,0.3,0c0.5,0.5,0.9,1,1.3,1.6c0.1,0.1,0,0.3-0.1,0.3C185.5,106.9,185.5,106.9,185.4,106.9z M163.4,101.1
				C163.4,101.1,163.4,101.1,163.4,101.1c-0.6-0.3-1.2-0.7-1.7-1.1c-0.1-0.1-0.1-0.2-0.1-0.3c0.1-0.1,0.2-0.1,0.3-0.1
				c0.5,0.4,1.1,0.7,1.6,1c0.1,0.1,0.2,0.2,0.1,0.3C163.6,101.1,163.5,101.1,163.4,101.1z M173,102.8c-0.1,0-0.2-0.1-0.2-0.2
				c0-0.1,0.1-0.2,0.2-0.3l0.6,0c0.4,0,0.9,0,1.3,0c0.1,0,0.2,0.1,0.3,0.2c0,0.1-0.1,0.2-0.2,0.3c-0.4,0-0.9,0-1.3,0L173,102.8
				C173,102.8,173,102.8,173,102.8z M46.1,70.8C46.1,70.8,46,70.8,46.1,70.8c-0.2-0.1-0.2-0.2-0.2-0.3c0.2-0.6,0.4-1.2,0.6-1.9
				c0-0.1,0.2-0.2,0.3-0.2c0,0,0,0,0,0c0.1,0,0.2,0.2,0.2,0.3c-0.2,0.6-0.4,1.3-0.6,1.9C46.3,70.8,46.2,70.9,46.1,70.8z M160.2,98.7
				c0,0-0.1,0-0.1-0.1c-0.5-0.5-0.9-1-1.3-1.5c-0.1-0.1-0.1-0.3,0.1-0.3c0.1-0.1,0.3-0.1,0.3,0.1c0.4,0.5,0.8,1,1.3,1.5
				c0.1,0.1,0.1,0.3,0,0.3C160.4,98.7,160.3,98.8,160.2,98.7z M176.9,102.8c-0.1,0-0.2-0.1-0.2-0.2c0-0.1,0.1-0.2,0.3-0.2
				c0.7,0,1.4,0.1,2,0.2c0.1,0,0.2,0.1,0.2,0.3c0,0.1-0.1,0.2-0.3,0.2C178.3,102.9,177.7,102.8,176.9,102.8
				C176.9,102.8,176.9,102.8,176.9,102.8z M182.6,104.1C182.6,104.1,182.6,104.1,182.6,104.1c-0.6-0.3-1.2-0.6-1.8-0.8
				c-0.1,0-0.2-0.2-0.2-0.3c0-0.1,0.2-0.2,0.3-0.2c0.7,0.2,1.3,0.5,1.9,0.8c0.1,0.1,0.2,0.2,0.1,0.3
				C182.8,104.1,182.7,104.2,182.6,104.1z M0.2,57.3C0.1,57.3,0,57.2,0,57c0-0.7,0.1-1.3,0.2-2c0-0.1,0.1-0.2,0.3-0.2
				c0.1,0,0.2,0.1,0.2,0.3c-0.1,0.6-0.1,1.3-0.2,1.9C0.5,57.2,0.4,57.3,0.2,57.3C0.2,57.3,0.2,57.3,0.2,57.3z M36.6,66.1
				c-0.1,0-0.2-0.1-0.2-0.3c0-0.6,0.1-1.3,0.1-2c0-0.1,0.1-0.2,0.2-0.2c0.1,0,0.2,0.1,0.2,0.2c0,0.7,0,1.3-0.1,2
				C36.9,66,36.7,66.1,36.6,66.1C36.6,66.1,36.6,66.1,36.6,66.1z M160.7,97C160.7,97,160.7,97,160.7,97c-0.7-0.2-1.3-0.5-1.9-0.8
				c-0.1-0.1-0.2-0.2-0.1-0.3c0.1-0.1,0.2-0.2,0.3-0.1c0.6,0.3,1.1,0.6,1.8,0.8c0.1,0,0.2,0.2,0.2,0.3C160.9,97,160.8,97.1,160.7,97
				z M162.6,97.5c-0.1,0-0.2-0.1-0.2-0.3c0-0.1,0.1-0.2,0.3-0.2c0.6,0.1,1.3,0.1,1.9,0.1c0.1,0,0.2,0.1,0.3,0.2
				c0,0.1-0.1,0.2-0.2,0.3C163.9,97.6,163.3,97.6,162.6,97.5C162.6,97.5,162.6,97.5,162.6,97.5z M158,95.6c-0.1,0-0.1-0.1-0.2-0.1
				l-0.1-0.2c-0.1-0.1-0.1-0.2-0.2-0.3c0,0,0,0.1-0.1,0.1c-0.1,0.1-0.2,0.1-0.3,0c-0.5-0.4-1-0.9-1.4-1.4c-0.1-0.1-0.1-0.3,0-0.3
				c0.1-0.1,0.3-0.1,0.3,0c0.4,0.5,0.9,1,1.3,1.4c-0.1-0.4-0.3-0.8-0.4-1.1c0-0.1,0-0.3,0.2-0.3c0.1,0,0.3,0,0.3,0.2
				c0.2,0.6,0.4,1.1,0.6,1.6l0.1,0.2c0.1,0.1,0,0.3-0.1,0.3C158.1,95.6,158,95.6,158,95.6z M166.5,97.4c-0.1,0-0.2-0.1-0.2-0.2
				c0-0.1,0.1-0.3,0.2-0.3c0.6-0.1,1.3-0.3,1.9-0.4c0.1,0,0.3,0,0.3,0.2c0,0.1,0,0.3-0.2,0.3C167.9,97.2,167.3,97.3,166.5,97.4
				C166.6,97.4,166.6,97.4,166.5,97.4z M47.1,67c-0.1,0-0.2-0.2-0.2-0.3c0.1-0.6,0.2-1.1,0.2-1.7l0-0.3c0-0.1,0.1-0.2,0.3-0.2
				c0.1,0,0.2,0.1,0.2,0.3l0,0.3c0,0.6-0.1,1.1-0.2,1.7C47.4,67,47.2,67.1,47.1,67C47.1,67,47.1,67,47.1,67z M170.3,96.2
				c-0.1,0-0.1-0.1-0.2-0.1c-0.1-0.1,0-0.3,0.1-0.3l0.1,0c0.5-0.3,1-0.6,1.4-1.1c0.1-0.1,0.2-0.1,0.3,0c0.1,0.1,0.1,0.2,0,0.3
				c-0.5,0.5-1,0.9-1.6,1.2l-0.1,0C170.4,96.2,170.3,96.2,170.3,96.2z M154.8,92.1c-0.1,0-0.1-0.1-0.2-0.1c-0.3-0.5-0.5-1-0.8-1.6
				c0-0.1-0.1-0.2-0.1-0.2c-0.1-0.1,0-0.3,0.1-0.3c0.1-0.1,0.3,0,0.3,0.1l0.1,0.2c0.2,0.5,0.5,1,0.7,1.5c0.1,0.1,0,0.3-0.1,0.3
				C154.9,92.1,154.8,92.1,154.8,92.1z M0.7,53.4c-0.1,0-0.2-0.2-0.2-0.3c0.1-0.5,0.2-1,0.3-1.5c0-0.2,0.1-0.3,0.1-0.4
				C1,51,1.1,51,1.3,51c0.1,0,0.2,0.2,0.2,0.3c0,0.1-0.1,0.3-0.1,0.4c-0.1,0.5-0.2,1-0.3,1.5C1,53.3,0.8,53.4,0.7,53.4
				C0.7,53.4,0.7,53.4,0.7,53.4z M36.6,62.2c-0.1,0-0.2-0.1-0.2-0.2c0-0.7-0.1-1.3-0.1-2c0-0.1,0.1-0.3,0.2-0.3
				c0.1,0,0.3,0.1,0.3,0.2c0.1,0.7,0.1,1.3,0.1,2C36.9,62.1,36.8,62.2,36.6,62.2C36.6,62.2,36.6,62.2,36.6,62.2z M156.9,91.8
				c-0.1,0-0.2-0.1-0.2-0.2c-0.1-0.7-0.1-1.3,0-2c0-0.1,0.1-0.2,0.3-0.2c0.1,0,0.2,0.1,0.2,0.3c-0.1,0.6,0,1.3,0,1.9
				C157.2,91.7,157.1,91.8,156.9,91.8C157,91.8,156.9,91.8,156.9,91.8z M47.3,63.1c-0.1,0-0.2-0.1-0.2-0.2c0-0.6-0.1-1.3-0.1-2
				c0-0.1,0.1-0.3,0.2-0.3c0.1,0,0.3,0.1,0.3,0.2c0.1,0.7,0.1,1.4,0.1,2C47.6,63,47.5,63.1,47.3,63.1C47.3,63.1,47.3,63.1,47.3,63.1
				z M173,93.4C172.9,93.4,172.9,93.4,173,93.4c-0.2-0.1-0.2-0.2-0.2-0.4c0.3-0.5,0.5-1.2,0.7-1.8c0-0.1,0.2-0.2,0.3-0.2
				c0.1,0,0.2,0.2,0.2,0.3c-0.2,0.7-0.4,1.3-0.7,1.9C173.2,93.4,173.1,93.5,173,93.4z M153.3,88.5c-0.1,0-0.2-0.1-0.2-0.2
				c-0.2-0.6-0.3-1.3-0.5-1.9c0-0.1,0.1-0.3,0.2-0.3c0.1,0,0.3,0.1,0.3,0.2c0.1,0.6,0.3,1.3,0.5,1.9c0,0.1,0,0.3-0.2,0.3
				C153.3,88.5,153.3,88.5,153.3,88.5z M36.3,58.3c-0.1,0-0.2-0.1-0.2-0.2c-0.1-0.6-0.2-1.3-0.3-1.9c0-0.1,0.1-0.3,0.2-0.3
				c0.1,0,0.3,0.1,0.3,0.2c0.1,0.6,0.2,1.3,0.3,2C36.6,58.1,36.5,58.2,36.3,58.3C36.3,58.3,36.3,58.3,36.3,58.3z M1.7,49.6
				C1.7,49.6,1.7,49.6,1.7,49.6c-0.2-0.1-0.2-0.2-0.2-0.3C1.8,48.6,2,48,2.3,47.4c0.1-0.1,0.2-0.2,0.3-0.1c0.1,0.1,0.2,0.2,0.1,0.3
				c-0.3,0.6-0.5,1.2-0.7,1.8C2,49.5,1.8,49.6,1.7,49.6z M157.2,87.9C157.2,87.9,157.2,87.9,157.2,87.9c-0.1,0-0.2-0.2-0.2-0.3
				c0.2-0.7,0.4-1.3,0.7-1.9c0.1-0.1,0.2-0.2,0.3-0.1c0.1,0.1,0.2,0.2,0.1,0.3c-0.3,0.6-0.5,1.2-0.7,1.8
				C157.5,87.8,157.4,87.9,157.2,87.9z M46.9,59.2c-0.1,0-0.2-0.1-0.2-0.2c-0.1-0.6-0.2-1.3-0.3-1.9c0-0.1,0.1-0.3,0.2-0.3
				c0.1,0,0.3,0.1,0.3,0.2c0.1,0.7,0.2,1.3,0.3,2C47.2,59,47.1,59.2,46.9,59.2C47,59.2,46.9,59.2,46.9,59.2z M152.5,84.6
				c-0.1,0-0.2-0.1-0.2-0.2c-0.1-0.7-0.1-1.3-0.2-2c0-0.1,0.1-0.3,0.2-0.3c0.1,0,0.3,0.1,0.3,0.2c0,0.6,0.1,1.3,0.2,1.9
				C152.8,84.5,152.7,84.6,152.5,84.6C152.5,84.6,152.5,84.6,152.5,84.6z M174,89.7c-0.1,0-0.2-0.1-0.2-0.3c0-0.6,0-1.3,0-1.9
				c0-0.1,0.1-0.3,0.2-0.3c0.1,0,0.3,0.1,0.3,0.2c0.1,0.7,0.1,1.3,0,2C174.3,89.6,174.2,89.7,174,89.7C174,89.7,174,89.7,174,89.7z
				 M35.6,54.4c-0.1,0-0.2-0.1-0.2-0.2c-0.1-0.6-0.3-1.3-0.5-1.9c0-0.1,0-0.3,0.2-0.3c0.1,0,0.3,0,0.3,0.2c0.2,0.6,0.4,1.3,0.5,1.9
				c0,0.1-0.1,0.3-0.2,0.3C35.6,54.4,35.6,54.4,35.6,54.4z M3.4,46C3.4,46,3.3,46,3.4,46c-0.2-0.1-0.2-0.2-0.2-0.4
				c0.3-0.6,0.7-1.2,1.1-1.7c0.1-0.1,0.2-0.1,0.3-0.1c0.1,0.1,0.1,0.2,0.1,0.3c-0.4,0.5-0.7,1.1-1,1.7C3.6,46,3.5,46,3.4,46z
				 M158.9,84.3C158.9,84.3,158.9,84.3,158.9,84.3c-0.2-0.1-0.2-0.3-0.1-0.4c0.4-0.5,0.8-0.9,1.2-1.3c0.1-0.1,0.1-0.1,0.2-0.2
				c0.1-0.1,0.3-0.1,0.3,0c0.1,0.1,0.1,0.3,0,0.3c-0.1,0-0.1,0.1-0.2,0.2c-0.4,0.4-0.8,0.8-1.1,1.2C159.1,84.3,159,84.4,158.9,84.3z
				 M46.2,55.3c-0.1,0-0.2-0.1-0.2-0.2l-0.4-1.9c0-0.1,0.1-0.3,0.2-0.3c0.1,0,0.3,0.1,0.3,0.2l0.4,1.9c0,0.1-0.1,0.3-0.2,0.3
				C46.3,55.3,46.3,55.3,46.2,55.3z M152.3,80.7c-0.1,0-0.2-0.1-0.2-0.3c0-0.7,0.1-1.3,0.2-2c0-0.1,0.1-0.2,0.3-0.2
				c0.1,0,0.2,0.1,0.2,0.3c-0.1,0.6-0.2,1.3-0.2,1.9C152.6,80.6,152.5,80.7,152.3,80.7C152.4,80.7,152.4,80.7,152.3,80.7z
				 M173.5,85.8c-0.1,0-0.1-0.1-0.2-0.2c-0.2-0.6-0.5-1.2-0.8-1.7c-0.1-0.1-0.1-0.3,0.1-0.3c0.1-0.1,0.3-0.1,0.3,0.1
				c0.4,0.5,0.7,1.1,0.9,1.8c0,0.1,0,0.3-0.2,0.3C173.6,85.8,173.6,85.8,173.5,85.8z M34.4,50.6c-0.1,0-0.1-0.1-0.2-0.2
				c-0.2-0.6-0.5-1.2-0.8-1.8c-0.1-0.1,0-0.3,0.1-0.3c0.1-0.1,0.3,0,0.3,0.1c0.3,0.6,0.5,1.2,0.8,1.8c0,0.1,0,0.3-0.1,0.3
				C34.5,50.6,34.5,50.6,34.4,50.6z M5.6,42.7C5.6,42.7,5.5,42.7,5.6,42.7c-0.2-0.1-0.2-0.3-0.1-0.4c0.4-0.5,0.9-1,1.3-1.5
				c0.1-0.1,0.3-0.1,0.3,0c0.1,0.1,0.1,0.3,0,0.3c-0.5,0.5-0.9,0.9-1.3,1.4C5.8,42.7,5.7,42.8,5.6,42.7z M161.9,81.8
				c-0.1,0-0.1-0.1-0.2-0.1c-0.1-0.1,0-0.3,0.1-0.3c0.6-0.3,1.2-0.5,1.9-0.7c0.1,0,0.3,0,0.3,0.2c0,0.1,0,0.3-0.2,0.3
				c-0.6,0.2-1.2,0.4-1.8,0.7C162.1,81.9,162,81.9,161.9,81.8z M45.5,51.4c-0.1,0-0.2-0.1-0.2-0.2c-0.1-0.7-0.2-1.4-0.3-2
				c0-0.1,0.1-0.3,0.2-0.3c0.1,0,0.3,0.1,0.3,0.2c0.1,0.6,0.2,1.2,0.3,1.9c0,0.1-0.1,0.3-0.2,0.3C45.6,51.4,45.5,51.4,45.5,51.4z
				 M171.3,82.6C171.3,82.6,171.2,82.6,171.3,82.6c-0.6-0.4-1.1-0.8-1.7-1c-0.1-0.1-0.2-0.2-0.1-0.3c0.1-0.1,0.2-0.2,0.3-0.1
				c0.6,0.3,1.2,0.6,1.8,1c0.1,0.1,0.1,0.2,0,0.3C171.5,82.6,171.4,82.6,171.3,82.6z M165.7,80.9c-0.1,0-0.2-0.1-0.2-0.2
				c0-0.1,0.1-0.3,0.2-0.3c0.7,0,1.4,0,2,0.1c0.1,0,0.2,0.2,0.2,0.3c0,0.1-0.2,0.2-0.3,0.2C167.1,80.9,166.5,80.9,165.7,80.9
				C165.8,80.9,165.8,80.9,165.7,80.9z M32.8,47c-0.1,0-0.1-0.1-0.2-0.1c-0.3-0.6-0.6-1.1-1-1.7c-0.1-0.1,0-0.3,0.1-0.3
				c0.1-0.1,0.3,0,0.3,0.1c0.4,0.6,0.7,1.1,1,1.7c0.1,0.1,0,0.3-0.1,0.3C32.9,47,32.8,47,32.8,47z M152.9,76.8
				C152.9,76.8,152.9,76.8,152.9,76.8c-0.1,0-0.2-0.2-0.2-0.3c0.1-0.6,0.3-1.1,0.5-1.6l0.1-0.3c0.1-0.1,0.2-0.2,0.3-0.1
				c0.1,0.1,0.2,0.2,0.1,0.3l-0.1,0.3c-0.2,0.5-0.4,1-0.5,1.6C153.2,76.7,153,76.8,152.9,76.8z M8.4,40c0,0-0.1,0-0.1-0.1
				c-0.1-0.1-0.1-0.3,0-0.3c0.5-0.4,1.1-0.8,1.6-1.2c0.1-0.1,0.3,0,0.3,0.1c0.1,0.1,0,0.3-0.1,0.3c-0.5,0.3-1.1,0.7-1.6,1.2
				C8.5,40,8.4,40,8.4,40z M45,47.5c-0.1,0-0.2-0.1-0.2-0.2c-0.1-0.7-0.1-1.4-0.1-2c0-0.1,0.1-0.2,0.2-0.2c0.1,0,0.2,0.1,0.2,0.2
				c0,0.6,0,1.3,0.1,1.9C45.3,47.4,45.2,47.5,45,47.5C45,47.5,45,47.5,45,47.5z M30.7,43.7c-0.1,0-0.1,0-0.1-0.1
				c-0.4-0.5-0.8-1-1.2-1.5c-0.1-0.1-0.1-0.3,0-0.3c0.1-0.1,0.3-0.1,0.3,0c0.4,0.5,0.9,1,1.3,1.5c0.1,0.1,0.1,0.3,0,0.3
				C30.8,43.7,30.7,43.7,30.7,43.7z M11.7,37.8c-0.1,0-0.1-0.1-0.2-0.1c-0.1-0.1,0-0.3,0.1-0.3c0.6-0.3,1.2-0.5,1.9-0.8
				c0.1,0,0.3,0,0.3,0.2c0,0.1,0,0.3-0.2,0.3c-0.6,0.2-1.2,0.4-1.8,0.7C11.8,37.8,11.7,37.8,11.7,37.8z M154.3,73.1
				C154.3,73.1,154.3,73.1,154.3,73.1c-0.2-0.1-0.2-0.2-0.2-0.3c0.3-0.6,0.6-1.2,0.8-1.8c0.1-0.1,0.2-0.2,0.3-0.1
				c0.1,0.1,0.2,0.2,0.1,0.3c-0.3,0.5-0.5,1.1-0.8,1.8C154.5,73,154.4,73.1,154.3,73.1z M28,40.8c0,0-0.1,0-0.1-0.1
				c-0.5-0.5-1-0.9-1.5-1.3c-0.1-0.1-0.1-0.2,0-0.3c0.1-0.1,0.2-0.1,0.3,0c0.5,0.4,1,0.8,1.5,1.3c0.1,0.1,0.1,0.2,0,0.3
				C28.2,40.8,28.1,40.8,28,40.8z M15.4,36.6c-0.1,0-0.2-0.1-0.2-0.2c0-0.1,0.1-0.3,0.2-0.3c0.7-0.1,1.3-0.2,2-0.2
				c0.1,0,0.2,0.1,0.3,0.2c0,0.1-0.1,0.2-0.2,0.3c-0.6,0-1.3,0.1-1.9,0.2C15.5,36.6,15.4,36.6,15.4,36.6z M44.9,43.6
				c-0.1,0-0.2-0.1-0.2-0.3c0.1-0.7,0.2-1.3,0.3-2c0-0.1,0.2-0.2,0.3-0.2c0.1,0,0.2,0.2,0.2,0.3c-0.1,0.6-0.2,1.3-0.3,1.9
				C45.2,43.5,45.1,43.6,44.9,43.6C45,43.6,45,43.6,44.9,43.6z M24.9,38.4C24.9,38.4,24.8,38.4,24.9,38.4c-0.6-0.4-1.2-0.7-1.8-0.9
				c-0.1-0.1-0.2-0.2-0.1-0.3C23,37,23.2,37,23.3,37c0.6,0.3,1.2,0.6,1.8,0.9c0.1,0.1,0.2,0.2,0.1,0.3C25.1,38.4,25,38.4,24.9,38.4z
				 M19.3,36.5c-0.1,0-0.2-0.1-0.2-0.3c0-0.1,0.1-0.2,0.3-0.2c0.7,0.1,1.3,0.2,2,0.4c0.1,0,0.2,0.2,0.2,0.3c0,0.1-0.2,0.2-0.3,0.2
				C20.6,36.7,20,36.6,19.3,36.5C19.4,36.5,19.3,36.5,19.3,36.5z M156,69.5C156,69.5,156,69.5,156,69.5c-0.2-0.1-0.2-0.2-0.2-0.4
				c0.3-0.6,0.7-1.2,1-1.7c0.1-0.1,0.2-0.1,0.3-0.1c0.1,0.1,0.1,0.2,0.1,0.3c-0.3,0.5-0.7,1.1-1,1.7C156.2,69.5,156.1,69.6,156,69.5
				z M45.7,39.7C45.7,39.7,45.7,39.7,45.7,39.7c-0.1,0-0.2-0.2-0.2-0.3c0.2-0.6,0.5-1.2,0.8-1.9c0.1-0.1,0.2-0.2,0.3-0.1
				c0.1,0.1,0.2,0.2,0.1,0.3c-0.3,0.6-0.5,1.2-0.7,1.8C46,39.7,45.8,39.8,45.7,39.7z M158.2,66.3C158.2,66.3,158.1,66.2,158.2,66.3
				c-0.2-0.1-0.2-0.3-0.1-0.4c0.4-0.5,0.9-1,1.4-1.4c0.1-0.1,0.3-0.1,0.3,0c0.1,0.1,0.1,0.3,0,0.3c-0.5,0.4-0.9,0.9-1.3,1.4
				C158.4,66.3,158.3,66.3,158.2,66.3z M61.6,40.1c-0.1,0-0.2-0.2-0.2-0.3c0-0.1,0.1-0.2,0.3-0.2c0.7,0.1,1.3,0.1,1.9,0.1
				c0.1,0,0.3,0.1,0.3,0.2c0,0.1-0.1,0.3-0.2,0.3C63,40.3,62.3,40.2,61.6,40.1C61.6,40.1,61.6,40.1,61.6,40.1z M59.7,39.6
				C59.7,39.6,59.7,39.6,59.7,39.6c-0.7-0.2-1.3-0.5-1.8-0.9c-0.1-0.1-0.2-0.2-0.1-0.3c0.1-0.1,0.2-0.2,0.3-0.1
				c0.5,0.3,1.1,0.6,1.7,0.8c0.1,0,0.2,0.2,0.1,0.3C59.9,39.6,59.8,39.6,59.7,39.6z M47.4,36.2C47.4,36.2,47.4,36.2,47.4,36.2
				c-0.2-0.1-0.2-0.3-0.1-0.4c0.4-0.6,0.8-1.1,1.2-1.6c0.1-0.1,0.2-0.1,0.3,0c0.1,0.1,0.1,0.2,0,0.3c-0.4,0.5-0.8,1-1.1,1.6
				C47.6,36.2,47.5,36.2,47.4,36.2z M56.3,37.6c0,0-0.1,0-0.1-0.1c-0.5-0.4-1-0.9-1.4-1.4c-0.1-0.1-0.1-0.3,0-0.3
				c0.1-0.1,0.3-0.1,0.3,0c0.4,0.5,0.9,0.9,1.4,1.4c0.1,0.1,0.1,0.2,0,0.3C56.5,37.6,56.4,37.6,56.3,37.6z M65.5,39.8
				c-0.1,0-0.1-0.1-0.2-0.2c0-0.1,0-0.3,0.1-0.3c0.6-0.2,1.2-0.5,1.6-0.9c0.1-0.1,0.3-0.1,0.3,0c0.1,0.1,0.1,0.3,0,0.3
				c-0.5,0.4-1.1,0.8-1.8,1C65.6,39.9,65.5,39.9,65.5,39.8z M161.1,63.6c-0.1,0-0.1,0-0.1-0.1c-0.1-0.1-0.1-0.3,0-0.3
				c0.2-0.1,0.4-0.3,0.5-0.4c0.4-0.3,0.7-0.5,1.1-0.8c0.1-0.1,0.3,0,0.3,0.1c0.1,0.1,0,0.3-0.1,0.3c-0.3,0.2-0.7,0.5-1,0.7
				c-0.2,0.1-0.4,0.3-0.5,0.4C161.2,63.6,161.2,63.6,161.1,63.6z M177.7,67.3c-0.1,0-0.2-0.1-0.2-0.3c0.1-0.6,0-1.2-0.1-1.9
				c0-0.1,0-0.3,0.2-0.3c0.1,0,0.3,0,0.3,0.2c0.2,0.7,0.2,1.4,0.1,2C178,67.2,177.8,67.3,177.7,67.3
				C177.7,67.3,177.7,67.3,177.7,67.3z M53.7,34.6c-0.1,0-0.1,0-0.1-0.1c-0.4-0.6-0.7-1.1-1-1.7c-0.1-0.1,0-0.3,0.1-0.3
				c0.1-0.1,0.3,0,0.3,0.1c0.3,0.6,0.6,1.2,1,1.7c0.1,0.1,0,0.3-0.1,0.3C53.9,34.6,53.8,34.6,53.7,34.6z M49.9,33.1
				c0,0-0.1,0-0.1-0.1c-0.1-0.1-0.1-0.3,0-0.3c0.5-0.5,1-0.9,1.5-1.3c0.1-0.1,0.3-0.1,0.3,0c0.1,0.1,0.1,0.3,0,0.3
				c-0.5,0.4-1,0.8-1.5,1.3C50.1,33.1,50,33.2,49.9,33.1z M164.4,61.4c-0.1,0-0.1-0.1-0.2-0.1c-0.1-0.1,0-0.3,0.1-0.3
				c0.6-0.4,1.2-0.6,1.8-0.8c0.1,0,0.3,0,0.3,0.1c0,0.1,0,0.3-0.1,0.3c-0.6,0.2-1.1,0.5-1.7,0.8C164.5,61.4,164.4,61.4,164.4,61.4z
				 M68.3,37.3C68.3,37.3,68.3,37.3,68.3,37.3c-0.2-0.1-0.2-0.2-0.2-0.3c0.1-0.2,0.2-0.5,0.2-0.7c0.1-0.4,0.1-0.7,0.1-1.1
				c0-0.1,0.1-0.2,0.2-0.2c0.1,0,0.2,0.1,0.2,0.2c0,0.4-0.1,0.8-0.2,1.2c-0.1,0.3-0.2,0.5-0.3,0.8C68.5,37.2,68.4,37.3,68.3,37.3z
				 M176.7,63.5c-0.1,0-0.1-0.1-0.1-0.1c-0.3-0.5-0.8-1-1.2-1.4c-0.1-0.1-0.1-0.2,0-0.3c0.1-0.1,0.2-0.1,0.3,0c0.5,0.5,1,1,1.3,1.5
				c0.1,0.1,0,0.3-0.1,0.3C176.9,63.5,176.8,63.5,176.7,63.5z M52,31.1c-0.1,0-0.1-0.1-0.2-0.2c-0.2-0.6-0.4-1.3-0.5-1.9
				c0-0.1,0.1-0.3,0.2-0.3c0.1,0,0.3,0.1,0.3,0.2c0.1,0.6,0.3,1.3,0.5,1.9c0,0.1,0,0.3-0.2,0.3C52.1,31.1,52,31.1,52,31.1z
				 M168,60.1c-0.1,0-0.2-0.1-0.2-0.2c0-0.1,0.1-0.3,0.2-0.3c0.6-0.1,1.3-0.1,2,0c0.1,0,0.2,0.1,0.2,0.3c0,0.1-0.1,0.2-0.3,0.2
				C169.3,60,168.7,60,168,60.1C168.1,60.1,168.1,60.1,168,60.1z M53.1,30.8c-0.1,0-0.1-0.1-0.2-0.1c-0.1-0.1,0-0.3,0.1-0.3
				c0.6-0.3,1.2-0.6,1.8-0.9c0.1-0.1,0.3,0,0.3,0.1c0.1,0.1,0,0.3-0.1,0.3c-0.6,0.3-1.2,0.6-1.7,0.9C53.2,30.8,53.1,30.8,53.1,30.8z
				 M173.8,60.9C173.8,60.9,173.8,60.9,173.8,60.9c-0.6-0.3-1.2-0.5-1.8-0.6c-0.1,0-0.2-0.1-0.2-0.3c0-0.1,0.1-0.2,0.3-0.2
				c0.7,0.1,1.3,0.3,1.9,0.6c0.1,0.1,0.2,0.2,0.1,0.3C174.1,60.9,173.9,60.9,173.8,60.9z M68.4,33.4c-0.1,0-0.1-0.1-0.2-0.2
				c-0.2-0.6-0.5-1.2-0.9-1.7c-0.1-0.1-0.1-0.3,0.1-0.3c0.1-0.1,0.3-0.1,0.3,0.1c0.4,0.6,0.7,1.2,0.9,1.8c0,0.1,0,0.3-0.2,0.3
				C68.5,33.4,68.4,33.4,68.4,33.4z M56.7,29.2c-0.1,0-0.2-0.1-0.2-0.2c0-0.1,0-0.3,0.2-0.3c0.5-0.2,1-0.3,1.6-0.4
				c0.1,0,0.3,0,0.4-0.1c0.1,0,0.3,0.1,0.3,0.2c0,0.1-0.1,0.3-0.2,0.3c-0.1,0-0.2,0-0.4,0.1c-0.5,0.1-1,0.2-1.5,0.4
				C56.8,29.2,56.7,29.2,56.7,29.2z M51.1,27.3C51,27.2,51,27.1,51,27c-0.1-0.7-0.1-1.3-0.1-2c0-0.1,0.1-0.2,0.2-0.2
				c0.1,0,0.2,0.1,0.2,0.2c0,0.6,0,1.3,0.1,1.9C51.5,27.1,51.4,27.2,51.1,27.3C51.2,27.3,51.2,27.3,51.1,27.3z M66.1,30.3
				C66.1,30.3,66.1,30.2,66.1,30.3c-0.6-0.4-1.1-0.7-1.7-1c-0.1-0.1-0.2-0.2-0.1-0.3c0.1-0.1,0.2-0.2,0.3-0.1c0.6,0.3,1.2,0.6,1.8,1
				c0.1,0.1,0.1,0.2,0.1,0.3C66.3,30.3,66.2,30.3,66.1,30.3z M60.6,28.6c-0.1,0-0.2-0.1-0.2-0.2c0-0.1,0.1-0.2,0.2-0.2
				c0.7,0,1.4,0.1,2,0.2c0.1,0,0.2,0.2,0.2,0.3c0,0.1-0.2,0.2-0.3,0.2C61.9,28.7,61.3,28.6,60.6,28.6C60.6,28.6,60.6,28.6,60.6,28.6
				z M84.2,33.4C84.2,33.4,84.2,33.4,84.2,33.4c-0.1,0-0.2-0.2-0.2-0.3c0.1-0.3,0.2-0.7,0.3-1c0.1-0.3,0.1-0.6,0.2-0.8
				c0-0.1,0.2-0.2,0.3-0.2c0.1,0,0.2,0.2,0.2,0.3c-0.1,0.3-0.1,0.6-0.2,0.9c-0.1,0.4-0.2,0.7-0.3,1.1C84.5,33.4,84.4,33.4,84.2,33.4
				z M51.2,23.3c-0.1,0-0.2-0.1-0.2-0.3c0.1-0.7,0.2-1.3,0.4-2c0-0.1,0.2-0.2,0.3-0.2c0.1,0,0.2,0.2,0.2,0.3l0,0
				c-0.2,0.6-0.3,1.3-0.4,1.9C51.5,23.2,51.3,23.3,51.2,23.3C51.2,23.3,51.2,23.3,51.2,23.3z M85,29.6c-0.1,0-0.2-0.1-0.2-0.3
				c0.1-0.6,0.1-1.3,0.1-1.9c0-0.1,0.1-0.2,0.2-0.3c0.1,0,0.2,0.1,0.3,0.2c0,0.7,0,1.3-0.1,2C85.3,29.5,85.2,29.6,85,29.6
				C85,29.6,85,29.6,85,29.6z M52.1,19.5C52.1,19.5,52.1,19.5,52.1,19.5c-0.2-0.1-0.2-0.2-0.2-0.3c0.2-0.6,0.5-1.2,0.9-1.8
				c0.1-0.1,0.2-0.2,0.3-0.1c0.1,0.1,0.2,0.2,0.1,0.3c-0.3,0.6-0.6,1.1-0.8,1.8C52.4,19.5,52.3,19.5,52.1,19.5z M84.9,25.6
				c-0.1,0-0.2-0.1-0.2-0.2c-0.1-0.6-0.2-1.3-0.3-1.9c0-0.1,0.1-0.3,0.2-0.3c0.1,0,0.3,0.1,0.3,0.2c0.1,0.6,0.3,1.3,0.3,2
				C85.2,25.5,85.1,25.6,84.9,25.6C85,25.6,84.9,25.6,84.9,25.6z M54.1,16.1C54,16.1,54,16.1,54.1,16.1c-0.2-0.1-0.2-0.3-0.1-0.4
				c0.4-0.5,0.8-1,1.3-1.5c0.1-0.1,0.3-0.1,0.3,0c0.1,0.1,0.1,0.3,0,0.3c-0.5,0.5-0.9,1-1.3,1.5C54.2,16.1,54.1,16.1,54.1,16.1z
				 M84,21.8c-0.1,0-0.1-0.1-0.2-0.2c-0.2-0.6-0.4-1.2-0.7-1.8c-0.1-0.1,0-0.3,0.1-0.3c0.1-0.1,0.3,0,0.3,0.1
				c0.3,0.6,0.5,1.2,0.7,1.9c0,0.1,0,0.3-0.2,0.3C84.1,21.8,84.1,21.8,84,21.8z M56.8,13.3c-0.1,0-0.1,0-0.1-0.1
				c-0.1-0.1-0.1-0.3,0-0.3c0.5-0.4,1.1-0.8,1.6-1.1c0.1-0.1,0.3,0,0.3,0.1c0.1,0.1,0,0.3-0.1,0.3c-0.6,0.3-1.1,0.7-1.6,1.1
				C57,13.3,56.9,13.3,56.8,13.3z M82.4,18.2c-0.1,0-0.1-0.1-0.2-0.1c-0.3-0.6-0.7-1.1-1.1-1.6c-0.1-0.1-0.1-0.3,0.1-0.3
				c0.1-0.1,0.3-0.1,0.3,0.1c0.4,0.5,0.8,1.1,1.1,1.7c0.1,0.1,0,0.3-0.1,0.3C82.6,18.2,82.5,18.2,82.4,18.2z M60.2,11.2
				c-0.1,0-0.1-0.1-0.2-0.1c-0.1-0.1,0-0.3,0.1-0.3c0.6-0.3,1.2-0.5,1.9-0.7c0.1,0,0.3,0,0.3,0.2c0,0.1,0,0.3-0.2,0.3
				c-0.6,0.2-1.2,0.4-1.8,0.7C60.3,11.3,60.2,11.3,60.2,11.2z M80.1,15c0,0-0.1,0-0.1-0.1c-0.4-0.5-0.9-0.9-1.4-1.4
				c-0.1-0.1-0.1-0.2,0-0.3c0.1-0.1,0.2-0.1,0.3,0c0.5,0.4,1,0.9,1.4,1.4c0.1,0.1,0.1,0.3,0,0.3C80.3,15,80.2,15,80.1,15z M63.9,10
				c-0.1,0-0.2-0.1-0.2-0.2c0-0.1,0.1-0.3,0.2-0.3c0.6-0.1,1.3-0.2,2-0.3c0.1,0,0.3,0.1,0.3,0.2c0,0.1-0.1,0.3-0.2,0.3
				C65.3,9.8,64.7,9.9,64,10C64,10,64,10,63.9,10z M77.1,12.4C77.1,12.4,77.1,12.4,77.1,12.4c-0.4-0.2-0.7-0.5-1-0.6
				c-0.2-0.1-0.5-0.3-0.7-0.4c-0.1-0.1-0.2-0.2-0.1-0.3c0.1-0.1,0.2-0.2,0.3-0.1c0.2,0.1,0.5,0.3,0.7,0.4c0.3,0.2,0.7,0.4,1,0.6
				c0.1,0.1,0.1,0.2,0.1,0.3C77.3,12.4,77.2,12.4,77.1,12.4z M67.8,9.6c-0.1,0-0.2-0.1-0.2-0.2c0-0.1,0.1-0.2,0.2-0.2
				c0.7,0,1.3,0,2,0.1c0.1,0,0.2,0.1,0.2,0.3c0,0.1-0.1,0.2-0.3,0.2C69.2,9.7,68.5,9.6,67.8,9.6C67.9,9.6,67.9,9.6,67.8,9.6z
				 M73.6,10.6C73.6,10.6,73.6,10.6,73.6,10.6c-0.6-0.2-1.3-0.4-1.9-0.6c-0.1,0-0.2-0.2-0.2-0.3c0-0.1,0.2-0.2,0.3-0.2
				c0.7,0.2,1.3,0.3,1.9,0.6c0.1,0,0.2,0.2,0.1,0.3C73.9,10.6,73.8,10.7,73.6,10.6z"/>
		</g>
		<g>
			<path class="st15" d="M112,55.2c6.1-11.2,12.2-16.4,23-23.6c4.5,5.1,8.7,10.2,12.7,15.5c-9.3,6.3-14.8,13-19.8,22.6
				C122.5,65.5,116.7,60.3,112,55.2z"/>
		</g>
		<g>
			<path class="st3" d="M126.9,47.8c7.8-7.6,14.1-10.2,24.8-13.3c2.3,5.3,4.4,10.5,6.3,15.9c-9.2,2.7-15.3,6.8-21.9,13.3
				C132.9,58.9,129.5,53.2,126.9,47.8z"/>
		</g>
		<g>
			<path class="st3" d="M20.5,0C22.8,8.4,35.1,10.3,39,17.5c-4.2,3.8-8.5,7.6-12.9,11.5c-2.4-8.4-15.4-10.2-19.8-17.6
				C10.9,7.6,15.7,3.8,20.5,0z"/>
		</g>
		<g>
			<g>
				<g>
					<ellipse class="st16" cx="60.1" cy="214" rx="22.7" ry="3.4"/>
				</g>
			</g>
		</g>
		<g>
			<g>
				<g>
					<ellipse class="st16" cx="161.7" cy="214" rx="22.7" ry="3.4"/>
				</g>
			</g>
		</g>
		<g>
			<g>
				<g>
					<ellipse class="st16" cx="107.3" cy="206.4" rx="22.7" ry="3.4"/>
				</g>
			</g>
		</g>
		<g>
			<g>
				<g>
					<g>
						<g>
							<path class="st17" d="M83.8,179.1c0.8-1.5,2.4-0.1,3.5,0.3c-0.4,0-0.9,0-0.5,0.4c0.5,0.6,2,1.3,2.7,1.1
								c-0.1,0.4-0.3,0.9-0.6,1.3C88.6,182.6,83.6,179.5,83.8,179.1z"/>
						</g>
					</g>
				</g>
				<g>
					<g>
						<g>
							<path class="st17" d="M86.8,179.8c-0.3-0.4-0.3-0.8,0.4-0.5c0.6,0.3,1.3,0.4,1.4,0.4c0.4,0.1,0.8-0.3,0.8-0.3l0.5,0.3
								c0,0-0.4,1-0.4,1.1C88.8,181.1,87.3,180.4,86.8,179.8z"/>
						</g>
					</g>
				</g>
			</g>
			<g>
				<g>
					<g>
						<g>
							<path class="st17" d="M103.8,164.1c1.7-0.3,1-2.2,1-3.4c-0.1,0.4-0.3,0.8-0.6,0.3c-0.4-0.7-0.5-2.4,0-3c-0.4-0.1-1,0-1.4,0.1
								C102.4,158.2,103.4,164.1,103.8,164.1z"/>
						</g>
					</g>
				</g>
				<g>
					<g>
						<g>
							<path class="st17" d="M104.2,161c0.2,0.5,0.6,0.6,0.6-0.2c0-0.7,0.1-1.3,0.1-1.5c0.1-0.4,0.6-0.6,0.6-0.6l-0.1-0.6
								c0,0-1.1,0-1.2-0.1C103.8,158.6,103.9,160.3,104.2,161z"/>
						</g>
					</g>
				</g>
			</g>
			<g>
				<g>
					<g>
						<path class="st18" d="M102.1,122.6c1.2-3.3,5.4-8.8,6.2-9c4.2-1.2,11.9-3.3,12.6-3c0.7,0.5,3.2,8.8,5.3,12.7
							c2.2,4.1,8,15.4,7.2,19.5c-1.4,7.1-27.8,16.6-28,16.4c-0.2-0.2-0.2-1.3-0.2-1.4c1.2-1.3,18.9-16.6,18.9-16.6l-10.3-14.6
							c-0.2,3.4-20,45.7-22.9,53.1c-0.3,0.8-2-0.2-1.9-1.3c0.6-4.5,4.5-17.8,8.3-34.4C99.7,133.4,100.4,127.3,102.1,122.6z"/>
					</g>
				</g>
			</g>
			<g>
				<g>
					<g>
						<path class="st17" d="M102.1,122.6c1.2-3.3,5.4-8.8,6.2-9c1.6-0.5,5.7,0,7.8-0.5c1.1-0.3-6.4,7.7-10.1,17.7
							c-12.7,34.2-16.1,49.2-16.5,49c-0.4-0.3-0.7-0.8-0.6-1.2c0.6-4.5,4.5-17.8,8.3-34.4C99.7,133.4,100.4,127.3,102.1,122.6z"/>
					</g>
				</g>
			</g>
			<g>
				<path class="st18" d="M110,92.1c0.3-0.2,1.5-3.4-1.1-5.7c-2.6-2.3-5.5-1.7-6.3-0.8c0,0,0.9-0.2,1.6,0.5c0,0-4-0.9-4.8,2.3
					c-0.2,0.6-0.3,1.7,1.1,2.4c0,0,0-0.1-0.1-0.2c-0.2-1.1,1.4-1.6,1.8-0.5c0.1,0.2,0.1,0.4,0.1,0.6c0,1.4,0.2,4,4.9,4L110,92.1z"/>
			</g>
			<g>
				<path class="st19" d="M110,92.1c0.4-0.4,0.5-1,0.6-1.5c0.1-0.6,0.1-1.1,0-1.7c-0.2-1.1-0.9-2.2-1.8-2.9c-0.9-0.7-2-1.3-3.1-1.4
					c-0.6-0.1-1.2-0.1-1.8,0c-0.6,0.1-1.2,0.3-1.6,0.8c-0.1,0.1-0.1,0.3,0,0.5c0.1,0.1,0.2,0.1,0.3,0.1l0,0c0.1,0,0.2,0,0.3,0
					c0.1,0,0.2,0,0.4,0.1c0.2,0.1,0.4,0.2,0.6,0.4l0.3-0.5c-0.5-0.1-1-0.1-1.5-0.1c-0.5,0-1,0.1-1.5,0.3c-0.5,0.2-0.9,0.5-1.2,0.9
					c-0.3,0.4-0.5,0.9-0.6,1.4c0.2-0.5,0.4-0.9,0.7-1.2c0.3-0.3,0.8-0.5,1.2-0.7c0.9-0.3,1.9-0.2,2.8-0.1c0.2,0,0.3-0.1,0.4-0.2
					c0-0.1,0-0.2-0.1-0.3c-0.2-0.3-0.5-0.5-0.8-0.6c-0.2-0.1-0.3-0.1-0.5-0.1c-0.2,0-0.3,0-0.5,0l0.3,0.5c0.3-0.3,0.8-0.5,1.3-0.6
					c0.5-0.1,1-0.1,1.5,0c1,0.1,2,0.6,2.8,1.2c0.8,0.6,1.5,1.5,1.8,2.5C110.5,89.9,110.5,91.1,110,92.1z"/>
			</g>
			<g>
				<g>
					<path class="st20" d="M119.3,85.1c-0.3,0.3-0.4,0.7-0.2,1.1c1.3,2.6,6.4,13.2,7.4,14.3c0.9,0.9,3.1,3.1,3.9,0.3
						c0.3-1.1,0-5.2-0.4-6.8C128.3,87.5,123.6,80.6,119.3,85.1z"/>
				</g>
			</g>
			<g>
				<g>
					<path class="st21" d="M85.2,83.3c0.3-0.2,0.8-0.1,1.1,0.2c2,2,10.5,11,12.2,12.7c1,1,3.8,3.9,0.2,4.1c-1.6,0.1-7.7-3.5-9.2-4.5
						C84.6,92.9,77.7,87.3,85.2,83.3z"/>
				</g>
			</g>
			<g>
				<g>
					<path class="st22" d="M83.6,85.3c-0.2,0.1-0.4,0-0.5-0.2c-0.3-0.4-0.9-1.4-1.4-2.1c0,0-0.8-1.2-0.5-1.9c0,0,0.2-0.1,0.4,0.3
						c0,0-0.2-1.1,0.1-1.3c0.3-0.2,0.5,0.3,0.5,0.3s0.1-0.3,0.4-0.2s1.1,1.6,1.2,2.4c0,0-0.1-0.8,0.2-0.8c0.3,0,0.6,1.7,0.4,2.1
						c0,0,0,0.6,0,0.9C84.4,84.9,84,85.2,83.6,85.3z"/>
				</g>
			</g>
			<g>
				<g>
					<path class="st22" d="M121.2,84.9c0.1-0.1,0.2-0.3,0.1-0.5c-0.2-0.4-0.8-1.4-1.2-2.2c0,0-0.7-1.2-1.4-1.3c0,0-0.2,0.1,0.1,0.4
						c0,0-0.9-0.7-1.2-0.5c-0.3,0.2,0,0.6,0,0.6s-0.3-0.1-0.3,0.2c0,0.3,1,1.7,1.6,2.2c0,0-0.7-0.5-0.8-0.2
						c-0.1,0.3,1.2,1.3,1.7,1.3c0,0,0.5,0.2,0.8,0.4C120.5,85.4,120.9,85.2,121.2,84.9z"/>
				</g>
			</g>
			<g>
				<path class="st20" d="M95.6,94c0,0,2.8,2.3,6.1,3.5c1.3,0.5,2.8,0.5,4.1,0.1c2.8-0.9,7.9-3.7,10.6-3.5c2.6,0.2,9,2.6,9,2.6
					l3.1,5.4l-8.1-2.6c0,0,1.1,2.2,1.6,5.2c0.7,4.7,0,6.8-0.2,8.3c-3.1,2.7-12,0.8-13.7,0.8c0-0.1-0.5-2.5-1.4-4.8
					c-0.7-1.9-1.1-3.1-2.6-5.3c-0.5-0.5-1.3-1.1-1.8-1.4c-0.5-0.3-1.1-0.5-1.7-0.8c-6.4-2.3-8.8-6.1-8.8-6.1L95.6,94z"/>
			</g>
			<g>
				<g>
					<g>
						<path class="st22" d="M108.3,94.4c0,0,1.2,2.5,1.6,2.6c0.4,0.1,1.3-0.1,1.2-0.9c0-0.8-1.8-2.5-1.8-2.5L108.3,94.4z"/>
					</g>
				</g>
				<g>
					<g>
						<path class="st23" d="M109.2,96.2c0.5-0.1,1.1-0.4,1.5-1c-0.3-0.4-0.7-0.8-0.9-1.1l-1.2,0.9C108.7,95.3,109,95.8,109.2,96.2z"
							/>
					</g>
				</g>
			</g>
			<g>
				<g>
					<path class="st22" d="M110.8,92.9c0-0.4-0.5-1.4-0.9-2.3c-0.4-0.7-1.3-1-2-0.6c-1.1,0.6-2.4,1.3-2.6,1.7c-0.4,0.6,0,1.4,0.2,2
						c0.2,0.6,0.9,1.6,1.5,1.9c0.5,0.3,1.7,0.3,2.2,0C110.7,94.8,110.9,94.2,110.8,92.9z"/>
				</g>
			</g>
			<g>
				<path class="st21" d="M95.6,94c0,0,2.8,2.3,6.1,3.5c2.4,0.9,6-0.6,6-0.6s-0.3,4.2,2.1,8.4c2.5,4.4,6.1,9.1,6.1,9.1
					s-1.7,0.1-4-0.2c-1.6-0.2-3.3-0.4-3.7-0.4c0-0.1-0.5-2.5-1.4-4.8c-0.7-1.9-1.1-3.1-2.6-5.3c-0.5-0.5-1.3-1.1-1.8-1.4
					c-0.5-0.3-1.1-0.5-1.7-0.8c-6.4-2.3-8.8-6.1-8.8-6.1L95.6,94z"/>
			</g>
		</g>
		<g>
			<g>
				<g>
					<path class="st17" d="M66.5,208.7c0.4-0.7-1-2.9-1.5-3.4c0.1,0.2,0.3,0.7,0,0.7c-0.5,0-1.2-0.6-1.4-1.2c-0.2,0.3-0.4,0.7-0.5,1
						C62.9,206.3,65.8,209.6,66.5,208.7z"/>
				</g>
				<g>
					<path class="st22" d="M64.7,202.5c-0.1,0.2-0.1,2.4,0.3,2.9c0.1,0.2,0.5,1.1,0.2,1.1c-0.5,0-1.5-1.1-1.6-1.7
						c0,0,0.2-0.1,0.3-0.4c0.1-0.3,0-1.7,0-2.1C63.8,202,64.6,202.5,64.7,202.5z"/>
				</g>
			</g>
			<g>
				<g>
					<path class="st17" d="M55,192.3c-0.3-0.1-0.3-1.8-0.2-2.6c0,0.3,0.1,0.6,0.4,0.4c0.4-0.4,0.8-1.6,0.6-2.1
						c0.4,0,0.8,0.2,1.1,0.4C57.3,188.5,55.7,192.6,55,192.3z"/>
				</g>
				<g>
					<path class="st22" d="M55.3,190c-0.3,0.3-0.4-0.1-0.4-0.4c0.1-0.5,0.3-1.2,0.3-1.3c0-0.3-0.4-0.8-0.4-0.8l0.5-0.4
						c0,0,0.3,0.7,0.6,0.7C56.1,188.4,55.7,189.6,55.3,190z"/>
				</g>
			</g>
			<g>
				<path class="st22" d="M66.4,150.6c0,0.1,1.7,1.5,2.8,5.2c1.9,5.8-3.4,42.5-4.5,48.5c-0.1,0.6-0.3,0.1-0.6-0.1
					c-0.2-0.1-0.2,0.3-0.3,0.1l-7-43.8l-12.2,7l10.9,20l-0.3,0.9c0,0-18.4-15.8-18.6-24.1c-0.1-7,12.7-16,13.8-17.5
					C52.4,146.7,63.5,150.2,66.4,150.6z"/>
			</g>
			<g>
				<path class="st18" d="M64.8,147.3c0,0,4.9,4.7,4.8,10.9c-0.2,12.1,5,14,7.8,15.2c2.8,1.2-16,15.1-33.2-7.6
					c-1.4-1.8-4.9-3.6-7.9-4.6c0,0,12.1-15.9,16.6-17.3C57.5,142.5,64.8,147.3,64.8,147.3z"/>
			</g>
			<g>
				<g>
					<path class="st22" d="M89.4,126.3c0.1,0.1,0.3,0.1,0.4,0c0.3-0.3,0.9-0.9,1.5-1.4c0,0,0.8-0.8,0.7-1.4c0,0-0.1-0.2-0.3,0.1
						c0,0,0.3-0.8,0.2-1c-0.2-0.2-0.5,0.1-0.5,0.1s0-0.2-0.3-0.2c-0.2,0-1.1,1.1-1.4,1.6c0,0,0.2-0.6,0-0.6c-0.2,0-0.7,1.2-0.7,1.6
						c0,0-0.1,0.5-0.2,0.7C88.8,125.9,89.1,126.2,89.4,126.3z"/>
				</g>
			</g>
			<g>
				<g>
					<path class="st22" d="M59,102.7c-0.1,0-0.3-0.2-0.3-0.3c0-0.4-0.1-1.3-0.2-2c0,0-0.1-1.1,0.3-1.5c0,0,0.2,0,0.2,0.3
						c0,0,0.3-0.9,0.6-0.9c0.3,0,0.3,0.4,0.3,0.4s0.2-0.2,0.3,0c0.2,0.2,0.2,1.6,0,2.1c0,0,0.2-0.6,0.4-0.5c0.2,0.1-0.2,1.4-0.5,1.6
						c0,0-0.2,0.4-0.3,0.6C59.6,102.7,59.3,102.7,59,102.7z"/>
				</g>
			</g>
			<g>
				<path class="st17" d="M54.9,175.5c0,0-5.1-2.1-10.7-9.8c-1.3-1.8-4.9-3.6-7.9-4.6c0,0,12.1-15.9,16.6-17.3
					c1.5-0.5,5.2,2.6,7,3.1c1.7,0.5-6.2,3.9-7.5,12.2C50.4,170.5,54.9,175.5,54.9,175.5z"/>
			</g>
			<g>
				<path class="st18" d="M69.7,124.4c-0.6,0.1,0-2.3-3.3-3.2c-2.4-0.6-4.4,2.6-2.5,5.1c0,0-2.7,2.2-0.9,8.4c0,0,0.5,11,4.9,13.5
					c4.4,2.5,12.2,2.9,13.6-5.2c1.4-8.1-5-8.7-5-8.7s0.7-2.8-2-3.1C74.4,131.2,75.9,123.4,69.7,124.4z"/>
			</g>
			<g>
				<path class="st19" d="M81.4,143l0.3-1.4c0-0.5,0.1-1,0.1-1.4c0-1-0.2-1.9-0.6-2.8c-0.4-0.9-1.1-1.7-1.9-2.3
					c-0.8-0.6-1.7-1-2.8-1.1l0.4,0.5c0.1-0.4,0.1-0.8,0.1-1.2c0-0.4-0.1-0.8-0.4-1.2c-0.2-0.4-0.5-0.7-0.9-0.9
					c-0.4-0.2-0.8-0.3-1.2-0.3l0.4,0.5c0.2-1.3,0.2-2.6,0-3.9c-0.2-0.6-0.4-1.3-0.8-1.8c-0.2-0.3-0.4-0.5-0.7-0.8
					c-0.3-0.2-0.6-0.4-0.9-0.5c-0.6-0.2-1.3-0.3-2-0.2l-0.5,0.1c-0.1,0-0.4,0-0.3,0c0,0-0.1-0.2-0.1-0.3c-0.1-0.1-0.1-0.3-0.2-0.4
					c-0.3-0.6-0.7-1.1-1.2-1.5c-0.5-0.4-1.1-0.6-1.8-0.7c0.6,0.2,1.2,0.5,1.6,0.9c0.5,0.4,0.8,0.9,1,1.5l0.1,0.4
					c0.1,0.2,0.1,0.3,0.3,0.5c0.1,0.1,0.1,0.1,0.2,0.1c0.1,0,0.1,0,0.2,0l0.2,0l0.4,0c0.6,0,1.2,0.1,1.7,0.3c1,0.5,1.6,1.6,1.8,2.7
					c0.2,1.2,0.2,2.4,0,3.6c0,0.2,0.1,0.5,0.3,0.5l0,0c0.3,0.1,0.6,0.1,0.9,0.3c0.3,0.1,0.5,0.3,0.6,0.6c0.1,0.2,0.2,0.5,0.3,0.8
					c0,0.3,0,0.6,0,0.9l0,0c0,0.2,0.1,0.4,0.3,0.5l0,0c0.8,0.1,1.7,0.4,2.5,0.9c0.8,0.5,1.4,1.2,1.8,1.9c0.4,0.8,0.6,1.7,0.8,2.6
					c0.1,0.5,0.1,0.9,0.1,1.4L81.4,143z"/>
			</g>
			<g>
				<path class="st20" d="M66.9,149.9c-2.6,0.1-10.7-2.5-14-6c0,0-0.6-4.8,1.1-8.1c1.6-3.1,2.1-3.8,3.2-4.8
					c-1.5-4.1-3.2-11.3-3.7-14.2c-1-6.1,2.7-13.6,4.2-14.8c0.2-0.2,0.5-0.2,0.7-0.2c0.5,0.1,1.8,1,2,1.7c0.1,0.3-1.3,13-1.3,13
					s1.7,13.9,2.3,14.3c2.3,1.6,8.8,4.7,10.9,5.1c4,0.7,9.4,0,9.4,0s4.1-6.8,5.1-8.5c0.3-0.5,0.9-1.2,1.2-1.6
					c0.2-0.2,0.5-0.3,0.8-0.2c0.7,0.2,2.1,0.5,2.5,0.9c0.2,0.2,0.3,0.5,0.2,0.7c-0.3,1.9-1.7,10-7.5,12.1c-3.3,1.2-9.7,1.6-13.9,0.8
					"/>
			</g>
			<g>
				<g>
					<g>
						<path class="st22" d="M66,130.8c0,0-0.7,2.8-1,3.1c-0.3,0.2-1.1,0.4-1.2-0.5c-0.1-0.8,1.2-3,1.2-3L66,130.8z"/>
					</g>
				</g>
				<g>
					<g>
						<path class="st23" d="M65.4,132.8c-0.5,0.1-1,0-1.4-0.4c0.2-0.5,0.4-1,0.7-1.4l1.2,0.5C65.7,131.8,65.6,132.4,65.4,132.8z"/>
					</g>
				</g>
			</g>
			<g>
				<path class="st22" d="M65.4,126.3c1.4-0.6,3.6,1.3,3.8,1.9c0.3,0.6-0.2,1.3-0.5,1.8c-0.3,0.5-2,2.4-3.8,1.7
					C61.6,130.2,65.4,126.3,65.4,126.3z"/>
			</g>
			<g>
				<path class="st21" d="M57.7,102c0.2-0.2,0.5-0.2,0.7-0.2c0.5,0.1,1.8,1,2,1.7c0.1,0.3-1.3,13-1.3,13s1.7,13.9,2.3,14.3
					c0.4,0.3,1.1,0.7,1.1,0.7s-3.2,2-4.6,7.8c-0.9,3.8,1.1,8.5,1.1,8.5s-1.5-0.6-3-1.5c-1.3-0.8-2.5-1.7-3.2-2.4
					c0,0-0.6-4.8,1.1-8.1c1.6-3.1,2.1-3.8,3.2-4.8c-1.5-4.1-3.2-11.3-3.7-14.2C52.6,110.7,56.2,103.2,57.7,102z"/>
			</g>
		</g>
		<g>
			<g>
				<path class="st18" d="M154.9,117.1c0,0-4.7,2.1-0.8,5.9L154.9,117.1z"/>
			</g>
			<g>
				<g>
					<path class="st17" d="M168.6,209.5c-0.4-0.8,0-1.4,0.6-2.4c-0.1,0.3-0.2,0.8,0.2,0.5c0.6-0.3,1.5-1.5,1.5-2.2
						c0.4,0.1,0.7,0.4,0.9,0.7C172.2,206.5,168.8,209.8,168.6,209.5z"/>
				</g>
				<g>
					<path class="st22" d="M169.5,207.7c-0.4,0.2-0.7,0.1-0.3-0.4c0.4-0.5,0.6-1,0.7-1.1c0.1-0.3-0.1-1-0.1-1l0.4-0.1
						c0,0,0.8,0.5,0.9,0.5C171,206.1,170.1,207.3,169.5,207.7z"/>
				</g>
			</g>
			<g>
				<g>
					<path class="st17" d="M155.2,185.3c-0.2-0.5,0.3-1.4,1-2.2c-0.2,0.3-0.3,0.7,0.1,0.5c0.6-0.2,1.8-1.1,1.9-1.7
						c0.3,0.2,0.6,0.6,0.8,0.8C159.2,183.1,155.3,185.6,155.2,185.3z"/>
				</g>
				<g>
					<path class="st22" d="M156.3,183.7c-0.4,0.1-0.7,0-0.2-0.5c0.5-0.4,0.8-0.8,0.8-0.9c0.2-0.3,0-0.7,0-0.7l0.5-0.3
						c0,0,0.6,0.6,0.7,0.7C158.1,182.5,157,183.5,156.3,183.7z"/>
				</g>
			</g>
			<g>
				<path class="st22" d="M169.9,144.7c-2-4.1-5-5.3-5.9-5.6c-2.4,0.2-8.2,2-9.2,2c-0.8,0.5-4.1,3.9-7.4,8.2
					c-2.7,3.5-9.6,10.2-8.7,13.3c1.7,6.2,17.9,19,18.4,19.2c0.8,0.3,1,0.1,0.8-0.5c-1.9-5-11.5-17.4-11.5-17.4s13.7-6.1,14.5-7.9
					c0.6,1.6,0.4,11.1,1.5,16.6c3.9,19.2,7.5,33,7.5,33l0.8-0.2c0,0,0.4-21,0.5-28.4C171.3,167.6,174.2,153.6,169.9,144.7z"/>
			</g>
			<g>
				<g>
					<path class="st22" d="M177.6,105.7c0.1,0.1,0.1,0.2,0.2,0.2c0.3-0.2,1-0.4,1.5-0.6c0,0,0.5-0.3,0.7-0.7c0.1-0.2,0.2-0.7,0-0.5
						c0,0,0.2-0.5,0.2-0.7c0-0.2-0.2-0.1-0.2-0.1s0.1-0.6-0.1-0.6c-0.1,0-0.4,0.3-0.8,0.8c-0.2,0.3-0.6,0.5-0.8,0.6
						c0,0-0.1-0.1-0.1-0.3c0-0.3,0.2-0.8,0-0.8c-0.2,0-0.6,1-0.7,1.4c0,0,0,0.4-0.1,0.6C177.5,105.2,177.5,105.5,177.6,105.7z"/>
				</g>
			</g>
			<g>
				<path class="st18" d="M153.7,141.8l-4.6,5.3l-6.2,7.5c0,0,0.2,2.5,1.8,3.8l5.5-4.6l-4.2,5.6c0,0,8.2,10.4,21,9.1
					c0,0,6.8-1.4,11-5.8c0,0-5.4-13.8-7.2-17.4c-2.5-5.1-7.2-6.4-7.2-6.4L153.7,141.8z"/>
			</g>
			<g>
				<path class="st17" d="M149.4,162.5c0,0,0.7,0.6,0.9,0.7c3.6,2.8,9.5,5.9,16.8,5.2c0,0,6.8-1.4,11-5.8c0,0-5.4-13.8-7.2-17.4
					c-2.5-5.1-7.2-6.4-7.2-6.4l-4.4,1.3c0,0,4.3,6.6,1.2,12.7C158.1,157.7,149.4,162.5,149.4,162.5z"/>
			</g>
			<g>
				<g>
					<path class="st22" d="M136.5,120.9c-0.1,0-0.3,0-0.3-0.1c-0.2-0.3-0.5-0.2-0.8-0.7c0,0-0.5-0.7-0.5-1.2c0-0.1,0.1-0.4,0.2-0.2
						c0,0-0.2-0.4,0-0.7c0.1-0.2,0.3-0.2,0.3-0.2s0-0.3,0.1-0.3c0.1,0,0.4,0.6,0.6,1c0.2,0.2,0.3,0.4,0.6,0.4c0,0-0.1-0.6,0.1-0.5
						c0.2,0,0.4,1.1,0.2,1.5c0,0,0.1,0.4,0,0.6C136.9,120.7,136.7,120.8,136.5,120.9z"/>
				</g>
			</g>
			<g>
				<g>
					<path class="st20" d="M172.6,107.5c-1.9,3.2-3.1,5.3-4.4,8.7c-1.7,4.3,0.2,4.7,1.5,4.3c1.6-0.5,3.1-2.8,4-3.9
						c2-2.3,4.7-5.3,5.5-6.5c1.2-1.5-1.3-5.1-1.3-5.1S174.3,104.5,172.6,107.5z"/>
				</g>
			</g>
			<g>
				<g>
					<path class="st20" d="M171.8,118.6c-6,7-7.2,9.2-9.6,10.3c-1.1,0.5-4.3-0.1-3.2-1.5c3.1-2.1,8.9-11,10.5-11.3
						C170.6,116,173.7,116.4,171.8,118.6z"/>
				</g>
			</g>
			<g>
				<g>
					<path class="st22" d="M156,122.1c0,0,0.9,2.4,0.8,2.7c-0.1,0.4-0.6,1.1-1.2,0.4c-0.5-0.6-0.6-2.9-0.6-2.9L156,122.1z"/>
				</g>
				<g>
					<path class="st23" d="M156.5,123.6c-0.2,0.4-0.8,0.8-1.3,0.6c-0.1-0.5-0.1-0.7-0.2-1.2l1.2-0.3
						C156.3,123.2,156.3,123.1,156.5,123.6z"/>
				</g>
			</g>
			<g>
				<path class="st22" d="M157.7,119.3c-0.3-0.3-1.6-0.6-2.7-0.9c-0.7-0.2-1.5,0.3-1.6,1c-0.2,0.9-0.4,1.9-0.3,2.2
					c0.2,1.1,0.5,1.6,2.1,1.9c0.5,0.1,1.5-0.2,1.9-0.5c0.4-0.4,0.8-1.4,0.9-2C158.1,120.5,158.2,119.7,157.7,119.3z"/>
			</g>
			<g>
				<g>
					<path class="st21" d="M165.2,127.5l0.4,7.2l0,4.9c0,0-0.1,0.6-5.4,2.2c-4.6,1.4-7.2,0.8-7.2,1c0.4,0.9-5.8-12.8-3.6-15
						c1.7-1.7,4.2-2.6,9.1-3.3C160.9,124,164.5,125.1,165.2,127.5z"/>
				</g>
			</g>
			<g>
				<path class="st21" d="M153.7,129.9c0,0-9.2,5.3-14,4.5c-3.8-0.6-7.2-8.9-5-12.9c0.8-1.5,2.6-0.9,2.6-0.9l3.9,9.9l9.4-3.9
					L153.7,129.9z"/>
			</g>
			<g>
				<g>
					<path class="st20" d="M165.2,127.5l0.4,7.2l0,4.9c0,0-0.1,0.6-5,2.1c-0.1,0-0.4,0.1-0.4,0.1s1.1-6,0.6-10.4
						c-0.5-4.5-2.3-7-2.3-7s4.6-0.3,4.8-0.3C165.7,124,164.5,125.3,165.2,127.5z"/>
				</g>
			</g>
			<g>
				<path class="st18" d="M154.4,116.6c0,0-2.2,1-0.5,3.6c1.7,2.5,2.6,3.9,4.3,2.9c1.7-1,2.6-4.2,1.4-5.1c0,0,2.8-0.5,3,1.9
					c0,0-2.2,2.3-1.1,4.7c1.1,2.4,4.6,1.9,5.1,1.3c0,0-1.8,3.4,2.1,5.8c1.5,1,3.4,1.4,5.2,1c1.2-0.3,2.4-0.9,3-2.5
					c0,0-3.6,0.4-4-1.7c-0.4-2.1,2.5-9.1-1.5-11.5c0,0-1.9-1.3-4-1c0,0-0.7-3.6-3.4-3.6c-2.7,0-4.6,2.4-4.6,5.1
					C159.3,117.4,156.7,115.4,154.4,116.6z"/>
			</g>
			<g>
				<path class="st19" d="M156.7,123.3c-0.5-0.1-0.9-0.4-1.2-0.8c-0.3-0.4-0.6-0.7-0.9-1.1c-0.6-0.7-1.2-1.5-1.5-2.5
					c-0.1-0.5-0.1-1,0.2-1.5c0.3-0.4,0.7-0.8,1.1-1c0.9-0.4,2-0.2,2.8,0.1c-0.9-0.2-1.9-0.3-2.7,0.1c-0.4,0.2-0.7,0.5-0.9,0.9
					c-0.2,0.4-0.2,0.8-0.1,1.3c0.2,0.9,0.8,1.6,1.3,2.4C155.3,122,155.7,122.9,156.7,123.3z"/>
			</g>
			<g>
				<path class="st19" d="M159.3,116.7c0-0.5,0.1-1.1,0.3-1.6c0.2-0.5,0.5-1,0.9-1.4c0.4-0.4,0.8-0.8,1.3-1c0.5-0.3,1.1-0.4,1.6-0.5
					l0,0c0.6-0.1,1.1,0,1.6,0.2c0.5,0.2,0.9,0.6,1.2,1c-0.2-0.2-0.4-0.3-0.6-0.5c-0.2-0.1-0.4-0.2-0.7-0.3c-0.4-0.2-1-0.2-1.4-0.1
					l0,0c-0.5,0.1-1,0.2-1.5,0.5c-0.5,0.2-0.9,0.5-1.2,0.9c-0.4,0.4-0.7,0.8-0.9,1.3C159.6,115.7,159.4,116.2,159.3,116.7z"/>
			</g>
			<g>
				<path class="st19" d="M162.7,119.7c-1,1.1-1.5,2.6-1.3,4c0.1,0.7,0.5,1.3,1,1.8c0.6,0.4,1.3,0.6,2.1,0.7
					c-0.8,0.1-1.5-0.1-2.2-0.5c-0.7-0.4-1.2-1.2-1.3-2c-0.1-0.8,0-1.6,0.3-2.3C161.6,120.8,162.1,120.2,162.7,119.7z"/>
			</g>
			<g>
				<path class="st19" d="M166.5,125.8c-0.2,0.7-0.3,1.5-0.2,2.2c0.1,0.7,0.4,1.4,0.8,2c0.4,0.6,1,1,1.6,1.5c0.3,0.2,0.6,0.4,1,0.6
					c0.3,0.2,0.7,0.3,1,0.5c-0.4-0.1-0.7-0.2-1.1-0.3c-0.4-0.1-0.7-0.3-1.1-0.5c-0.7-0.4-1.3-0.9-1.8-1.5c-0.5-0.6-0.8-1.4-0.8-2.2
					C165.9,127.3,166.1,126.5,166.5,125.8z"/>
			</g>
		</g>
		<g>
			<g>
				<path class="st24" d="M155.4,89.9c-2.3,3.5-6.8,4.6-10.2,2.4c-3.4-2.2-4.3-6.8-2.1-10.3c2.3-3.5,6.8-4.6,10.2-2.4
					C156.8,81.7,157.7,86.4,155.4,89.9z"/>
			</g>
			<g>
				<path class="st25" d="M147.5,92.6c-0.7-0.2-1.3-0.5-2-0.9c-1.5-1-2.5-2.5-2.9-4.3c-0.4-1.8,0-3.6,1-5.2c1-1.6,2.5-2.6,4.3-3.1
					c1.8-0.4,3.6-0.1,5.1,0.9c1.5,1,2.5,2.5,2.9,4.3c0.4,1.8,0,3.6-1,5.2l0,0C153.3,92.1,150.3,93.3,147.5,92.6z M151,79.8
					c-0.9-0.2-1.9-0.2-2.9,0c-1.6,0.4-3,1.4-3.9,2.8c-0.9,1.4-1.2,3.1-0.9,4.7c0.3,1.6,1.3,3,2.6,3.9c2.8,1.8,6.7,0.9,8.6-2
					c0.9-1.4,1.2-3.1,0.9-4.7c-0.3-1.6-1.3-3-2.6-3.9C152.2,80.2,151.6,79.9,151,79.8z"/>
			</g>
			<g>
				<g>
					<g>
						<path class="st25" d="M152.7,85.4c0.4-0.7,0.5-1.7,0.1-2.5c-0.3-0.6-0.9-1-1.5-1.2c-0.7-0.2-1.4-0.4-2.1-0.3
							c-0.8,0.1-1.2,0.9-1.4,1.7c-0.1,0.8,0.1,1.5,0.6,2.2c0.6,0.7,1.3,1.3,1.6,2.3c0.5,1.6-1.3,2.4-2.5,1.5c-1-0.8-1.8-2.3-0.8-3.4
							c0.2-0.2-0.6-0.5-0.8-0.3c-1.4,1.6,0.3,3.6,1.8,4.3c0.7,0.3,1.6,0.4,2.3,0c0.8-0.4,0.9-1.3,0.6-2.1c-0.3-0.8-1-1.4-1.5-2
							c-0.7-0.8-1-1.9-0.4-2.9c0.5-1,2-1,2.8-0.3c0.8,0.6,0.7,2.1,0.2,2.8C151.8,85.3,152.6,85.7,152.7,85.4L152.7,85.4z"/>
					</g>
				</g>
				<g>
					<g>
						<path class="st25" d="M151.1,80.7c-2,3.1-4,6.2-6,9.3c-0.1,0.2,0.7,0.5,0.8,0.3c2-3.1,4-6.2,6-9.3
							C152,80.8,151.2,80.5,151.1,80.7L151.1,80.7z"/>
					</g>
				</g>
				<g>
					<g>
						<path class="st25" d="M152.3,81.3c-2,3.1-4,6.2-6,9.3c-0.1,0.2,0.7,0.5,0.8,0.3c2-3.1,4-6.2,6-9.3
							C153.2,81.4,152.4,81,152.3,81.3L152.3,81.3z"/>
					</g>
				</g>
			</g>
		</g>
		<g>
			<g>
				<path class="st24" d="M96.8,30.7c-2.3,3.5-6.8,4.6-10.2,2.4c-3.4-2.2-4.3-6.8-2.1-10.3c2.3-3.5,6.8-4.6,10.2-2.4
					C98.2,22.5,99.1,27.2,96.8,30.7z"/>
			</g>
			<g>
				<path class="st25" d="M88.9,33.4c-0.7-0.2-1.3-0.5-2-0.9c-1.5-1-2.5-2.5-2.9-4.3c-0.4-1.8,0-3.6,1-5.2c1-1.6,2.5-2.6,4.3-3.1
					c1.8-0.4,3.6-0.1,5.1,0.9c1.5,1,2.5,2.5,2.9,4.3c0.4,1.8,0,3.6-1,5.2l0,0C94.7,32.9,91.7,34.1,88.9,33.4z M92.3,20.6
					c-0.9-0.2-1.9-0.2-2.9,0c-1.6,0.4-3,1.4-3.9,2.8c-0.9,1.4-1.2,3.1-0.9,4.7c0.3,1.6,1.3,3,2.6,3.9c2.8,1.8,6.7,0.9,8.6-2
					c0.9-1.4,1.2-3.1,0.9-4.7c-0.3-1.6-1.3-3-2.6-3.9C93.6,21,93,20.7,92.3,20.6z"/>
			</g>
			<g>
				<g>
					<g>
						<path class="st25" d="M94.1,26.2c0.4-0.7,0.5-1.7,0.1-2.5c-0.3-0.6-0.9-1-1.5-1.2c-0.7-0.2-1.4-0.4-2.1-0.3
							c-0.8,0.1-1.2,0.9-1.4,1.7c-0.1,0.8,0.1,1.5,0.6,2.2c0.6,0.7,1.3,1.3,1.6,2.3c0.5,1.6-1.3,2.4-2.5,1.5c-1-0.8-1.8-2.3-0.8-3.4
							c0.2-0.2-0.6-0.5-0.8-0.3c-1.4,1.6,0.3,3.6,1.8,4.3c0.7,0.3,1.6,0.4,2.3,0c0.8-0.4,0.9-1.3,0.6-2.1c-0.3-0.8-1-1.4-1.5-2
							c-0.7-0.8-1-1.9-0.4-2.9c0.5-1,2-1,2.8-0.3c0.8,0.6,0.7,2.1,0.2,2.8C93.2,26.1,94,26.5,94.1,26.2L94.1,26.2z"/>
					</g>
				</g>
				<g>
					<g>
						<path class="st25" d="M92.5,21.5c-2,3.1-4,6.2-6,9.3c-0.1,0.2,0.7,0.5,0.8,0.3c2-3.1,4-6.2,6-9.3
							C93.4,21.6,92.6,21.3,92.5,21.5L92.5,21.5z"/>
					</g>
				</g>
				<g>
					<g>
						<path class="st25" d="M93.7,22.1c-2,3.1-4,6.2-6,9.3c-0.1,0.2,0.7,0.5,0.8,0.3c2-3.1,4-6.2,6-9.3
							C94.6,22.2,93.8,21.8,93.7,22.1L93.7,22.1z"/>
					</g>
				</g>
			</g>
		</g>
		<g>
			<g>
				<path class="st24" d="M188.8,74.9c-2.3,3.5-6.8,4.6-10.2,2.4c-3.4-2.2-4.3-6.8-2.1-10.3c2.3-3.5,6.8-4.6,10.2-2.4
					C190.1,66.8,191,71.4,188.8,74.9z"/>
			</g>
			<g>
				<path class="st25" d="M180.8,77.6c-0.7-0.2-1.3-0.5-2-0.9c-1.5-1-2.5-2.5-2.9-4.3c-0.4-1.8,0-3.6,1-5.2c1-1.6,2.5-2.6,4.3-3.1
					c1.8-0.4,3.6-0.1,5.1,0.9c1.5,1,2.5,2.5,2.9,4.3c0.4,1.8,0,3.6-1,5.2l0,0C186.6,77.1,183.6,78.3,180.8,77.6z M184.3,64.8
					c-0.9-0.2-1.9-0.2-2.9,0c-1.6,0.4-3,1.4-3.9,2.8c-0.9,1.4-1.2,3.1-0.9,4.7c0.3,1.6,1.3,3,2.6,3.9c2.8,1.8,6.7,0.9,8.6-2
					c0.9-1.4,1.2-3.1,0.9-4.7c-0.3-1.6-1.3-3-2.6-3.9C185.5,65.2,184.9,65,184.3,64.8z"/>
			</g>
			<g>
				<g>
					<g>
						<path class="st25" d="M186,70.5c0.4-0.7,0.5-1.7,0.1-2.5c-0.3-0.6-0.9-1-1.5-1.2c-0.7-0.2-1.4-0.4-2.1-0.3
							c-0.8,0.1-1.2,0.9-1.4,1.7c-0.1,0.8,0.1,1.5,0.6,2.2c0.6,0.7,1.3,1.3,1.6,2.3c0.5,1.6-1.3,2.4-2.5,1.5c-1-0.8-1.8-2.3-0.8-3.4
							c0.2-0.2-0.6-0.5-0.8-0.3c-1.4,1.6,0.3,3.6,1.8,4.3c0.7,0.3,1.6,0.4,2.3,0c0.8-0.4,0.9-1.3,0.6-2.1c-0.3-0.8-1-1.4-1.5-2
							c-0.7-0.8-1-1.9-0.4-2.9c0.5-1,2-1,2.8-0.3c0.8,0.6,0.7,2.1,0.2,2.8C185.1,70.3,185.9,70.7,186,70.5L186,70.5z"/>
					</g>
				</g>
				<g>
					<g>
						<path class="st25" d="M184.4,65.7c-2,3.1-4,6.2-6,9.3c-0.1,0.2,0.7,0.5,0.8,0.3c2-3.1,4-6.2,6-9.3
							C185.3,65.8,184.5,65.5,184.4,65.7L184.4,65.7z"/>
					</g>
				</g>
				<g>
					<g>
						<path class="st25" d="M185.6,66.3c-2,3.1-4,6.2-6,9.3c-0.1,0.2,0.7,0.5,0.8,0.3c2-3.1,4-6.2,6-9.3
							C186.5,66.4,185.7,66,185.6,66.3L185.6,66.3z"/>
					</g>
				</g>
			</g>
		</g>
		<g>
			<g>
				<path class="st24" d="M21.8,129.6c-1.1-4,1.2-8.1,5.1-9.2c3.9-1,7.9,1.4,9,5.4c1.1,4-1.2,8.1-5.1,9.2
					C26.9,136,22.8,133.6,21.8,129.6z"/>
			</g>
			<g>
				<path class="st25" d="M25.1,121.9c0.6-0.4,1.2-0.7,2-0.9c1.7-0.5,3.6-0.2,5.1,0.7c1.6,0.9,2.7,2.4,3.2,4.2
					c0.5,1.8,0.3,3.7-0.6,5.3c-0.9,1.6-2.3,2.7-4.1,3.2c-1.7,0.5-3.6,0.2-5.1-0.7c-1.6-0.9-2.7-2.4-3.2-4.2l0,0
					C21.5,126.5,22.7,123.5,25.1,121.9z M32.2,133c0.8-0.5,1.4-1.2,1.9-2.1c0.8-1.5,1-3.2,0.6-4.8c-0.4-1.6-1.5-3-2.9-3.9
					c-1.4-0.9-3.1-1.1-4.7-0.7c-3.3,0.9-5.2,4.3-4.3,7.7c0.4,1.6,1.5,3,2.9,3.9c1.4,0.9,3.1,1.1,4.7,0.7
					C31.1,133.7,31.7,133.4,32.2,133z"/>
			</g>
			<g>
				<g>
					<g>
						<path class="st25" d="M26.9,130.5c0.2,0.8,1,1.5,1.8,1.8c0.7,0.2,1.3,0,1.9-0.3c0.6-0.3,1.2-0.8,1.6-1.4
							c0.5-0.7,0.2-1.5-0.3-2.1c-0.5-0.7-1.2-0.9-2-1c-0.9-0.1-1.9,0.1-2.8-0.3c-1.5-0.7-1-2.6,0.5-2.9c1.3-0.2,2.8,0.2,3,1.7
							c0,0.2,0.8-0.1,0.8-0.3c-0.3-2.1-2.9-2.2-4.4-1.5c-0.7,0.3-1.4,0.9-1.6,1.7c-0.2,0.9,0.3,1.6,1.1,1.9c0.8,0.3,1.7,0.2,2.5,0.3
							c1.1,0,2.1,0.6,2.5,1.6c0.4,1-0.6,2.1-1.6,2.2c-1,0.1-2-0.9-2.3-1.8C27.6,129.9,26.8,130.3,26.9,130.5L26.9,130.5z"/>
					</g>
				</g>
				<g>
					<g>
						<path class="st25" d="M31.5,132.5c-0.9-3.5-1.9-7.1-2.8-10.6c-0.1-0.2-0.8,0.2-0.7,0.4c0.9,3.5,1.9,7.1,2.8,10.6
							C30.8,133.1,31.6,132.8,31.5,132.5L31.5,132.5z"/>
					</g>
				</g>
				<g>
					<g>
						<path class="st25" d="M30.3,133c-0.9-3.5-1.9-7.1-2.8-10.6c-0.1-0.2-0.8,0.2-0.7,0.4c0.9,3.5,1.9,7.1,2.8,10.6
							C29.6,133.6,30.3,133.3,30.3,133L30.3,133z"/>
					</g>
				</g>
			</g>
		</g>
		<g>
			<circle class="st24" cx="186.5" cy="142.7" r="5.2"/>
			<path class="st3" d="M188.5,144.4c-0.3,1.3-1.6,2-2.9,1.7s-2-1.6-1.7-2.9L188.5,144.4z"/>
			<g>
				<path class="st3" d="M189.8,142.8c-0.4-0.7-1.2-0.9-1.9-0.5l-0.2-0.4c0.9-0.5,2-0.2,2.5,0.6L189.8,142.8z"/>
			</g>
			<g>
				<path class="st3" d="M183.6,141.2c0.7-0.4,1.5-0.2,1.9,0.5l0.4-0.2c-0.5-0.9-1.6-1.1-2.5-0.6L183.6,141.2z"/>
			</g>
		</g>
		<g>
			<circle class="st24" cx="65" cy="66.5" r="5.2"/>
			<path class="st3" d="M67,68.3c-0.3,1.3-1.6,2-2.9,1.7c-1.3-0.3-2-1.6-1.7-2.9L67,68.3z"/>
			<g>
				<path class="st3" d="M68.3,66.6c-0.4-0.7-1.2-0.9-1.9-0.5l-0.2-0.4c0.9-0.5,2-0.2,2.5,0.6L68.3,66.6z"/>
			</g>
			<g>
				<path class="st3" d="M62.1,65.1c0.7-0.4,1.5-0.2,1.9,0.5l0.4-0.2c-0.5-0.9-1.6-1.1-2.5-0.6L62.1,65.1z"/>
			</g>
		</g>
	</g>
</g>
<g id="Footer">
</g>
<g id="Header">
</g>
<g id="Men">
</g>
<g id="Bootstrap_x5F_grid" class="st26">
</g>
<g id="Capa_8">
</g>
</svg>
