<?xml version="1.0" encoding="utf-8"?>
<!-- Generator: Adobe Illustrator 23.0.3, SVG Export Plug-In . SVG Version: 6.00 Build 0)  -->
<svg version="1.1" id="Capa_1" xmlns="http://www.w3.org/2000/svg" xmlns:xlink="http://www.w3.org/1999/xlink" x="0px" y="0px"
	 viewBox="0 0 1331.5 725.5" style="enable-background:new 0 0 1331.5 725.5;" xml:space="preserve">
<style type="text/css">
	.st0{fill:url(#SVGID_1_);}
</style>
<title>home_bk</title>
<linearGradient id="SVGID_1_" gradientUnits="userSpaceOnUse" x1="83.1147" y1="903.3227" x2="889.2016" y2="375.8445" gradientTransform="matrix(1 0 0 -1 0 728)">
	<stop  offset="0" style="stop-color:#406EB3"/>
	<stop  offset="0.6274" style="stop-color:#2D5298"/>
	<stop  offset="1" style="stop-color:#26478D"/>
</linearGradient>
<path class="st0" d="M1312.9,0.1L54.2,0c18.2,58.5-3.1,120.8-10.7,181.6C31,282.3,59.2,388.7,125,466s169.2,122.8,270.2,112.9
	c72.8-7.2,143.2-41.3,215.8-33.4c75.1,8.2,133.1,58.4,199.2,89.1c17.6,8.2,34.5,17.7,53.2,23.4c64.8,19.7,133,3.4,189.1-31.8
	c14.6-9.2,28.7-19.3,42.1-30.2c27-21.9,51.5-46.7,73.2-73.8c35.7-44.4,64.3-94.5,85.5-147.4c47.4-118.1,60-247.4,60-374.7
	L1312.9,0.1z M32.1,131.6c-0.3-0.3-0.7-0.6-1.1-0.8l-0.9-0.2h-0.2c-0.7-0.1-1.3,0-1.9,0.2c-0.4,0.2-0.8,0.4-1.1,0.8
	c-0.3,0.3-0.6,0.7-0.8,1.1l-0.2,0.9v0.9c0,0.5,0.2,0.9,0.5,1.3c0.1,0.3,0.3,0.5,0.6,0.7c0.3,0.3,0.7,0.6,1.1,0.8l0.9,0.3
	c0.7,0.1,1.3,0,1.9-0.3l0.2-0.1c0.4-0.2,0.8-0.4,1.1-0.8c0.3-0.3,0.6-0.7,0.8-1.1l0.2-0.9v-0.9c0-0.5-0.2-0.9-0.5-1.3
	C32.5,132,32.3,131.8,32.1,131.6z M37.4,0.1H16.8c7.4,19.2,10.7,42.6,6.9,68.8c-1.8,13.3-10.1,29-8,42c0.7,4,5,6.3,8.9,5.3
	c15.2-3.9,23.5-32.2,24.9-45.1C53.8,36,45,12.9,37.4,0.1z M574.4,588.7l0.4-0.1C574.4,588.7,573.8,588.8,574.4,588.7z M519.1,589
	c-0.1-0.5-0.2-1-0.3-1.6c-0.2-0.7-0.6-1.4-1.2-2c-0.3-0.4-0.7-0.8-1.1-1c-0.6-0.5-1.3-0.9-2.1-1l-1.5-0.1l-1.4,0.3
	c-0.7,0.2-1.3,0.6-1.8,1.2c-0.6,0.5-1.1,1.1-1.3,1.8c0,0.1-0.1,0.2-0.1,0.3c-0.5,1.1-0.7,2.2-0.6,3.4l0.3,1.6c0.2,0.8,0.6,1.4,1.2,2
	c0.3,0.5,0.7,0.8,1.1,1.1c0.6,0.5,1.3,0.9,2.1,1l1.6,0.1l1.5-0.3c0.7-0.2,1.4-0.6,1.9-1.2c0.6-0.5,1.1-1.1,1.4-1.8
	c0.5-1.1,0.7-2.2,0.6-3.4C519.1,589.2,519.1,589.1,519.1,589z M747.7,651.5l-0.6-0.7l-0.8-0.6c-0.4-0.2-0.8-0.4-1.3-0.4
	c-0.3-0.1-0.6-0.1-0.9,0c-0.4,0-0.9,0.2-1.3,0.4l-0.7,0.5l-0.1,0.1c-0.5,0.5-0.8,1.1-1,1.7c-0.2,0.9,0,1.8,0.4,2.6l0.6,0.7l0.8,0.6
	c0.4,0.2,0.9,0.4,1.3,0.4c0.3,0.1,0.6,0.1,0.9,0c0.5,0,0.9-0.2,1.3-0.4l0.7-0.6c0.5-0.5,0.8-1.1,1-1.7v-0.2c0.1-0.4,0.1-0.9,0-1.3
	C747.9,652.4,747.8,651.9,747.7,651.5z M689.7,587.1c-8.7-5.8-17.9-10.8-27.5-15c-35.9-15.6-77-19.3-115-9.6
	c-7.1,1.8-14.4,4.2-20,8.9c-2,1.7-3.9,4-3.4,6.6c0.4,2,2,3.4,3.8,4.3c3.7,1.9,8.1,2.2,12.3,2.4c27.4,1.2,55,0,82,4.3
	s54.3,15.1,71.9,36c5.6,6.6,10.2,14.2,16.3,20.4c4.3,4.4,11.4,9.3,15.9,3c3.9-5.5,2.1-14.2,0-20
	C719.3,610.9,705.1,597.4,689.7,587.1z"/>
</svg>
