<?xml version="1.0" encoding="utf-8"?>
<!-- Generator: Adobe Illustrator 23.0.3, SVG Export Plug-In . SVG Version: 6.00 Build 0)  -->
<svg version="1.1" id="Capa_1" xmlns="http://www.w3.org/2000/svg" xmlns:xlink="http://www.w3.org/1999/xlink" x="0px" y="0px"
	 viewBox="0 0 635.1 502" style="enable-background:new 0 0 635.1 502;" xml:space="preserve">
<style type="text/css">
	.st0{opacity:0.3;}
	.st1{opacity:0.8;}
	.st2{fill:#FFFFFF;}
	.st3{fill:#CCEAF5;}
	.st4{fill:#9BCBE9;}
	.st5{fill:#3E275C;}
	.st6{fill:#406EB3;}
	.st7{opacity:0.91;}
	.st8{fill:#331239;}
	.st9{fill:#FF97A7;}
	.st10{fill:#FFCB37;}
	.st11{fill:#E45D79;}
	.st12{fill:#FFE5AE;}
	.st13{opacity:0.27;fill:#CCEAF5;}
	.st14{fill:#C698F8;}
	.st15{fill:#DFB3FF;}
	.st16{fill:#C2A5FF;}
	.st17{fill:#8865C4;}
</style>
<title>home_people</title>
<g>
	<g class="st0">
		<g>
			<g>
				<g class="st1">
					
						<rect x="158.2" y="90.1" transform="matrix(-1 4.485911e-11 -4.485911e-11 -1 458.7807 256.0065)" class="st2" width="142.4" height="75.8"/>
				</g>
				<g>
					<g class="st1">
						<polygon class="st2" points="185.7,38.7 299.7,38.7 299.7,88.5 285.4,68.7 185.7,68.7 						"/>
					</g>
					<g>
						<rect x="190.1" y="48.1" class="st3" width="103.4" height="5.3"/>
					</g>
					<g>
						<rect x="190.1" y="57.9" class="st3" width="19.7" height="5.3"/>
					</g>
					<g>
						<rect x="217.4" y="57.9" class="st3" width="19.7" height="5.3"/>
					</g>
					<g>
						<rect x="245.3" y="57.9" class="st3" width="38.8" height="5.3"/>
					</g>
				</g>
				<g>
					<g>
						<path class="st4" d="M272.7,119c-1.6-1.7-3.9-2.8-6.4-2.8c-2,0-3.8,0.7-5.3,1.8l-7.5-10.2c3.6-2.7,8-4.2,12.8-4.2
							c6.1,0,11.7,2.6,15.6,6.7L272.7,119z"/>
					</g>
					<g>
						<path class="st5" d="M275,126c0-0.3,0.1-0.7,0.1-1c0-1.7-0.5-3.3-1.3-4.6l9.2-8.8c3,3.7,4.7,8.4,4.7,13.5c0,0.3,0,0.7,0,1H275
							z"/>
					</g>
					<g>
						<path class="st4" d="M268.9,133.5c2.7-0.8,4.8-3,5.7-5.6h13c-1.2,9-7.9,16.3-16.7,18.2L268.9,133.5z"/>
						<path class="st2" d="M270.9,146.1C270.8,146.1,270.8,146.1,270.9,146.1l-2.1-12.6c0,0,0-0.1,0.1-0.1c2.7-0.8,4.8-2.9,5.7-5.6
							c0,0,0-0.1,0.1-0.1h13c0,0,0.1,0,0.1,0c0,0,0,0,0,0.1C286.5,136.8,279.8,144.2,270.9,146.1
							C270.9,146.1,270.9,146.1,270.9,146.1C270.9,146.1,270.9,146.1,270.9,146.1z M274.7,127.9c-0.9,2.7-3,4.7-5.7,5.6l2,12.4
							c8.7-2,15.3-9.2,16.5-18H274.7z"/>
					</g>
					<g>
						<path class="st6" d="M252.1,108.9l7.6,10.3c-1.4,1.6-2.2,3.6-2.2,5.8c0,4.9,4,8.8,8.8,8.8c0.3,0,0.6,0,0.9,0l2,12.5
							c-0.9,0.1-1.9,0.2-2.9,0.2c-11.9,0-21.5-9.7-21.5-21.5C244.7,118.6,247.6,112.8,252.1,108.9z"/>
					</g>
				</g>
				<g>
					<g>
						<path class="st4" d="M192.7,121.7c-1.9,1.3-3.3,3.4-3.7,5.9c-0.3,2,0.1,3.9,1,5.5l-11.2,5.9c-2.1-3.9-3-8.5-2.3-13.3
							c0.9-6.1,4.3-11.2,8.9-14.4L192.7,121.7z"/>
					</g>
					<g>
						<path class="st5" d="M200.1,120.4c-0.3-0.1-0.6-0.2-1-0.2c-1.7-0.2-3.3,0-4.8,0.6l-7.4-10.4c4.1-2.4,9-3.5,14-2.7
							c0.3,0,0.7,0.1,1,0.2L200.1,120.4z"/>
					</g>
					<g>
						<path class="st4" d="M206.5,127.6c-0.4-2.8-2.2-5.2-4.7-6.5l1.9-12.8c8.7,2.5,14.9,10.2,15.6,19.1L206.5,127.6z"/>
						<path class="st2" d="M219.3,127.5C219.3,127.5,219.3,127.5,219.3,127.5l-12.8,0.2c0,0-0.1,0-0.1-0.1c-0.4-2.8-2.2-5.2-4.7-6.4
							c0,0-0.1-0.1,0-0.1l1.9-12.8c0,0,0-0.1,0-0.1c0,0,0,0,0.1,0C212.4,110.6,218.7,118.4,219.3,127.5
							C219.3,127.4,219.3,127.4,219.3,127.5C219.3,127.4,219.3,127.4,219.3,127.5z M201.9,121c2.5,1.3,4.2,3.7,4.7,6.5l12.5-0.2
							c-0.7-8.9-6.8-16.5-15.4-18.9L201.9,121z"/>
					</g>
					<g>
						<path class="st6" d="M179.7,140.6l11.3-6c1.3,1.6,3.2,2.7,5.4,3c4.8,0.7,9.3-2.6,10-7.4c0-0.3,0.1-0.6,0.1-0.9l12.7-0.2
							c0,1-0.1,1.9-0.2,2.9c-1.7,11.7-12.7,19.9-24.4,18.1C188.3,149.3,183,145.6,179.7,140.6z"/>
					</g>
				</g>
				<g>
					<g class="st1">
						<polygon class="st2" points="126.5,182.3 276.6,182.3 276.6,248.9 257.7,224.8 126.5,224.8 						"/>
					</g>
					<g>
						<g>
							
								<rect x="134.6" y="189.4" transform="matrix(-1 4.490129e-11 -4.490129e-11 -1 404.3142 384.089)" class="st3" width="135.2" height="5.3"/>
						</g>
						<g>
							
								<rect x="158.3" y="199.9" transform="matrix(-1 4.493327e-11 -4.493327e-11 -1 428.0113 405.0605)" class="st3" width="111.5" height="5.3"/>
						</g>
						<g>
							
								<rect x="190.3" y="210.2" transform="matrix(-1 4.496746e-11 -4.496746e-11 -1 460.0936 425.7428)" class="st3" width="79.4" height="5.3"/>
						</g>
					</g>
				</g>
			</g>
		</g>
		<g>
			<g>
				<g>
					<g class="st1">
						<polygon class="st2" points="463.4,234.1 321.2,232.6 322.2,26 465.6,27.3 						"/>
					</g>
					<g class="st7">
						<polygon class="st8" points="465.1,27.6 321.7,26.3 321.7,48.2 464.8,49.7 						"/>
					</g>
					<g>
						
							<rect x="333.7" y="39.1" transform="matrix(0.9999 1.040477e-02 -1.040477e-02 0.9999 0.4508 -3.947)" class="st4" width="91.7" height="4.5"/>
					</g>
					<g>
						
							<rect x="326.7" y="53.7" transform="matrix(0.9999 1.040457e-02 -1.040457e-02 0.9999 0.8109 -4.0885)" class="st6" width="133.3" height="44.4"/>
					</g>
					<g>
						
							<rect x="325" y="211.4" transform="matrix(0.9999 1.040492e-02 -1.040492e-02 0.9999 2.3099 -4.0632)" class="st6" width="133.3" height="17.2"/>
					</g>
					<g>
						
							<rect x="369.2" y="72.1" transform="matrix(0.9999 1.040455e-02 -1.040455e-02 0.9999 0.796 -4.2749)" class="st2" width="84" height="4.5"/>
					</g>
					<g>
						
							<rect x="368.7" y="81.7" transform="matrix(0.9999 1.040422e-02 -1.040422e-02 0.9999 0.8946 -4.1028)" class="st2" width="52.1" height="4.4"/>
					</g>
					<g>
						<polygon class="st2" points="363.5,122.4 329.8,121 332.6,60 364.1,60.3 						"/>
					</g>
					<g>
						<path class="st2" d="M435.9,41.9c0,1.2-1,2.3-2.3,2.2c-1.2,0-2.3-1-2.2-2.3c0-1.2,1-2.3,2.3-2.2
							C434.9,39.6,435.9,40.6,435.9,41.9z"/>
					</g>
					<g>
						<path class="st4" d="M444.5,42c0,1.2-1,2.3-2.3,2.2c-1.2,0-2.3-1-2.2-2.3c0-1.2,1-2.3,2.3-2.2C443.5,39.7,444.5,40.7,444.5,42
							z"/>
					</g>
					<g>
						<path class="st6" d="M453.2,42.1c0,1.2-1,2.3-2.3,2.2c-1.2,0-2.3-1-2.2-2.3c0-1.2,1-2.3,2.3-2.2
							C452.2,39.8,453.2,40.8,453.2,42.1z"/>
					</g>
					<g>
						<g>
							
								<rect x="367.5" y="100.8" transform="matrix(0.9999 1.040491e-02 -1.040491e-02 0.9999 1.194 -4.247)" class="st2" width="82.4" height="23.6"/>
						</g>
						<g>
							
								<rect x="372" y="104.1" transform="matrix(0.9999 1.040452e-02 -1.040452e-02 0.9999 1.1873 -3.9745)" class="st4" width="21.1" height="16.1"/>
						</g>
						<g>
							
								<rect x="398.7" y="105.6" transform="matrix(0.9999 1.040402e-02 -1.040402e-02 0.9999 1.1445 -4.3726)" class="st5" width="44.2" height="4.5"/>
						</g>
						<g>
							
								<rect x="398.4" y="115.3" transform="matrix(0.9999 1.040339e-02 -1.040339e-02 0.9999 1.2444 -4.2812)" class="st4" width="27.4" height="4.4"/>
						</g>
					</g>
					<g>
						<g>
							
								<rect x="367" y="128.1" transform="matrix(0.9999 1.040491e-02 -1.040491e-02 0.9999 1.4778 -4.2399)" class="st2" width="82.4" height="23.6"/>
						</g>
						<g>
							
								<rect x="371.5" y="131.3" transform="matrix(0.9999 1.040452e-02 -1.040452e-02 0.9999 1.4711 -3.9674)" class="st4" width="21.1" height="16.1"/>
						</g>
						<g>
							
								<rect x="398.2" y="132.8" transform="matrix(0.9999 1.040402e-02 -1.040402e-02 0.9999 1.4283 -4.3655)" class="st5" width="44.2" height="4.5"/>
						</g>
						<g>
							
								<rect x="397.9" y="142.5" transform="matrix(0.9999 1.040339e-02 -1.040339e-02 0.9999 1.5282 -4.274)" class="st4" width="27.4" height="4.4"/>
						</g>
					</g>
					<g>
						<g>
							
								<rect x="366.4" y="155.9" transform="matrix(0.9999 1.040491e-02 -1.040491e-02 0.9999 1.7667 -4.2326)" class="st2" width="82.4" height="23.6"/>
						</g>
						<g>
							
								<rect x="370.9" y="159.1" transform="matrix(0.9999 1.040452e-02 -1.040452e-02 0.9999 1.7599 -3.9602)" class="st4" width="21.1" height="16.1"/>
						</g>
						<g>
							
								<rect x="397.7" y="160.6" transform="matrix(0.9999 1.040402e-02 -1.040402e-02 0.9999 1.7172 -4.3583)" class="st5" width="44.2" height="4.5"/>
						</g>
						<g>
							
								<rect x="397.3" y="170.3" transform="matrix(0.9999 1.040339e-02 -1.040339e-02 0.9999 1.817 -4.2668)" class="st4" width="27.4" height="4.4"/>
						</g>
					</g>
					<g>
						<g>
							
								<rect x="365.9" y="183.2" transform="matrix(0.9999 1.040491e-02 -1.040491e-02 0.9999 2.0505 -4.2255)" class="st2" width="82.4" height="23.6"/>
						</g>
						<g>
							
								<rect x="370.4" y="186.4" transform="matrix(0.9999 1.040452e-02 -1.040452e-02 0.9999 2.0437 -3.953)" class="st4" width="21.1" height="16.1"/>
						</g>
						<g>
							
								<rect x="397.1" y="187.9" transform="matrix(0.9999 1.040402e-02 -1.040402e-02 0.9999 2.001 -4.3512)" class="st5" width="44.2" height="4.5"/>
						</g>
						<g>
							
								<rect x="396.8" y="197.6" transform="matrix(0.9999 1.040339e-02 -1.040339e-02 0.9999 2.1008 -4.2597)" class="st4" width="27.4" height="4.4"/>
						</g>
					</g>
					<g>
						
							<rect x="337.2" y="71.1" transform="matrix(0.9999 1.040275e-02 -1.040275e-02 0.9999 0.7823 -3.6116)" class="st4" width="20.6" height="4.5"/>
					</g>
					<g>
						
							<rect x="337.1" y="78.8" transform="matrix(0.9999 1.040275e-02 -1.040275e-02 0.9999 0.8622 -3.6096)" class="st4" width="20.6" height="4.5"/>
					</g>
					<g>
						
							<rect x="336.8" y="91.8" transform="matrix(0.9999 1.040275e-02 -1.040275e-02 0.9999 0.9975 -3.6062)" class="st4" width="20.6" height="4.5"/>
					</g>
					<g>
						
							<rect x="336.7" y="99.5" transform="matrix(0.9999 1.040275e-02 -1.040275e-02 0.9999 1.0773 -3.6042)" class="st4" width="20.6" height="4.5"/>
					</g>
					<g>
						
							<rect x="336.4" y="111.8" transform="matrix(0.9999 1.040275e-02 -1.040275e-02 0.9999 1.2057 -3.601)" class="st4" width="20.6" height="4.5"/>
					</g>
				</g>
			</g>
		</g>
	</g>
	<g id="XMLID_14_">
		<g>
			<g>
				<g>
					<g>
						<path class="st2" d="M2.1,81C0,83.4-0.6,87,0.6,90l87.8-1.6c2.5-3.9,0.8-9.8-3.4-11.8c-4.2-2-9.9,0.3-11.4,4.7
							c0.3-6.5-0.7-13.3-3.6-19.1c-2.9-5.9-8-10.8-14.3-12.8c-6.2-2-13.6-0.7-18.3,3.8c-5.6,5.4-6.5,13.9-7,21.7
							c-2.1-3.8-6.7-6-10.9-5.3c-4.3,0.7-7.9,4.3-8.6,8.6C7.8,77.5,4.3,78.5,2.1,81z"/>
					</g>
				</g>
			</g>
		</g>
	</g>
	<g id="XMLID_3_">
		<g>
			<g>
				<g>
					<g>
						<path class="st2" d="M512.2,53.9c-3,3.4-3.9,8.5-2.2,12.7l123.5-2.2c3.5-5.5,1.1-13.8-4.8-16.7c-5.9-2.8-13.9,0.5-16,6.7
							c0.4-9.2-0.9-18.6-5.1-26.9c-4.1-8.2-11.3-15.2-20-18c-8.8-2.8-19.2-1-25.8,5.4c-7.9,7.6-9.2,19.6-9.8,30.5
							c-2.9-5.3-9.4-8.4-15.4-7.4c-6,1-11.1,6.1-12.1,12.1C520.2,49,515.2,50.5,512.2,53.9z"/>
					</g>
				</g>
			</g>
		</g>
	</g>
	<g>
		<g>
			<g>
				<g>
					<g>
						<g>
							<path class="st8" d="M376.3,364.1c3.1,0,2.2-4,2.4-6.4c-0.3,0.7-0.8,1.5-1.2,0.6c-0.6-1.4-0.6-4.6,0.3-5.7
								c-0.8-0.2-1.9-0.2-2.7-0.1C374.2,352.7,375.4,364.1,376.3,364.1z"/>
						</g>
					</g>
				</g>
				<g>
					<g>
						<g>
							<path class="st9" d="M377.5,358.3c0.4,0.9,1.2,1.2,1.2-0.4c0-1.4,0.4-2.5,0.4-2.8c0.2-0.7,1.2-1.1,1.2-1.1l-0.1-1.2
								c0,0-2.1-0.2-2.4-0.2C376.9,353.7,376.9,356.9,377.5,358.3z"/>
						</g>
					</g>
				</g>
			</g>
			<g>
				<path class="st4" d="M486.7,213.2c-7.4,3.9-2.1,17.9,28.1,29.7c3.3,1.3,9-1.5,10.8-4.5l2.7-5.6c0,0-6.9-1.4-11.5-3.4
					C504.7,223.9,491.2,215.1,486.7,213.2z"/>
			</g>
			<g>
				<path class="st4" d="M520.8,241.9c0,0,27.7-9.5,32.3-15.1c0.3-0.4,0.5-0.9,0.5-1.5c0-3.8-1.3-12.2-15.3-5.6
					c-15.8,7.4-24.7,17.1-24.7,17.1S516.6,235,520.8,241.9z"/>
			</g>
			<g>
				<g>
					<g>
						<path class="st8" d="M435,253.9c-9,8.2-5.8,50.5-5.3,56.9c0,0.5-0.3,0.9-0.8,0.9c-6.7,0.4-42.3,38.6-49.2,39.7
							c-0.5,0.1-0.8,0.6-0.7,1l1.3,4.6c0.1,0.3,0.3,0.5,0.6,0.6c5.5,1.5,49.9-21.6,64.6-33.5c9-7.3,23.3-56.1,30.8-71
							C479.8,246.2,441.4,248.1,435,253.9z"/>
					</g>
				</g>
			</g>
			<g>
				<g>
					<g>
						<g>
							<path class="st8" d="M495.4,386.2c1.1-2.9-2.9-3.6-5.1-4.6c0.5,0.5,1.1,1.3,0.1,1.3c-1.5,0.1-4.5-1.1-5.2-2.4
								c-0.5,0.7-0.9,1.7-1,2.5C484,383.9,495.1,386.9,495.4,386.2z"/>
						</g>
					</g>
				</g>
				<g>
					<g>
						<g>
							<path class="st9" d="M490.4,382.9c1,0,1.5-0.6,0.1-1.2c-1.3-0.5-2.2-1.3-2.4-1.4c-0.6-0.4-0.5-1.5-0.5-1.5l-1.2-0.3
								c0,0-0.9,1.9-1.1,2.1C485.9,381.8,488.9,383,490.4,382.9z"/>
						</g>
					</g>
				</g>
			</g>
			<g>
				<g>
					<g>
						<path class="st5" d="M430.5,273.4c2,13,35.7,42.8,35.7,42.8l19.8,62.1c-0.2,0.9,0.7,1.7,1.7,1.4l2.8-0.9
							c0.3-0.1,0.5-0.3,0.7-0.5c2.9-4.6-2.2-51.1-5.5-71.5c-1.2-7.3-19.1-42.4-19.1-42.4s0.8-14-0.5-15.8
							c-3.4-0.4-13.2-10.1-24.2-3.4C431.2,251.7,429.7,267.5,430.5,273.4z"/>
					</g>
				</g>
			</g>
			<g>
				<g>
					<g>
						<path class="st4" d="M465.9,206.2c4.8,0.2,16,5,17.1,5.4c4.8,1.9,8.5,3.2,8.7,10.7c0.1,4.3-3.1,8.1-4.1,10.4
							c-4.8,10.9-12.6,23.4-12.6,23.4s-5.9-1.3-14.7-4.9c-13.2-5.5-15.9-7.1-15.9-7.1s2-9.2,9.6-29.8
							C454.4,213,460.2,205.9,465.9,206.2z"/>
					</g>
				</g>
			</g>
			<path class="st8" d="M460.2,251.2l8.4,17.2l2.9-13.2C471.5,255.2,463.1,252.7,460.2,251.2z"/>
			<g>
				<g>
					<g>
						<path class="st2" d="M466.6,205.6c2,0.1,10.7,3.9,13.6,4.9c1.5,0.5-2,12.5-5.1,20.7c-5,13.3-14.1,20.4-14.1,20.4l-16.8-7.4
							c0,0,2-9.2,9.6-29.8C454.4,213,460.9,205.3,466.6,205.6z"/>
					</g>
				</g>
			</g>
			<g>
				<path class="st3" d="M551.4,218.2l-120.5-52.8c-8.7-3.8-12.6-13.9-8.8-22.6l16.1-36.7c3.8-8.7,13.9-12.6,22.6-8.8L581.2,150
					c8.7,3.8,12.6,13.9,8.8,22.6L574,209.3C570.2,218,560.1,222,551.4,218.2z"/>
				<g>
					<path class="st8" d="M589.1,174.9l-152-66.6l1-2.3c3.8-8.7,13.9-12.6,22.6-8.8L581.2,150c8.7,3.8,12.6,13.9,8.8,22.6
						L589.1,174.9z"/>
					<g>
						<g>
							<path class="st4" d="M545.8,139.6c-0.1,0-0.2,0-0.3-0.1c-0.4-0.2-0.5-0.6-0.4-1l1.2-2.7c0.2-0.4,0.6-0.5,1-0.4
								c0.4,0.2,0.5,0.6,0.4,1l-1.2,2.7C546.4,139.5,546.1,139.6,545.8,139.6z"/>
						</g>
						<g>
							<path class="st4" d="M522.1,193.8c-0.1,0-0.2,0-0.3-0.1c-0.4-0.2-0.5-0.6-0.4-1l2.4-5.4c0.2-0.4,0.6-0.5,1-0.4
								c0.4,0.2,0.5,0.6,0.4,1l-2.4,5.4C522.7,193.6,522.4,193.8,522.1,193.8z M526.9,183c-0.1,0-0.2,0-0.3-0.1
								c-0.4-0.2-0.5-0.6-0.4-1l2.4-5.4c0.2-0.4,0.6-0.5,1-0.4c0.4,0.2,0.5,0.6,0.4,1l-2.4,5.4C527.4,182.8,527.1,183,526.9,183z
								 M531.6,172.1c-0.1,0-0.2,0-0.3-0.1c-0.4-0.2-0.5-0.6-0.4-1l2.4-5.4c0.2-0.4,0.6-0.5,1-0.4c0.4,0.2,0.5,0.6,0.4,1l-2.4,5.4
								C532.2,172,531.9,172.1,531.6,172.1z M536.3,161.3c-0.1,0-0.2,0-0.3-0.1c-0.4-0.2-0.5-0.6-0.4-1l2.4-5.4
								c0.2-0.4,0.6-0.5,1-0.4c0.4,0.2,0.5,0.6,0.4,1l-2.4,5.4C536.9,161.1,536.6,161.3,536.3,161.3z M541.1,150.5
								c-0.1,0-0.2,0-0.3-0.1c-0.4-0.2-0.5-0.6-0.4-1l2.4-5.4c0.2-0.4,0.6-0.5,1-0.4c0.4,0.2,0.5,0.6,0.4,1l-2.4,5.4
								C541.6,150.3,541.4,150.5,541.1,150.5z"/>
						</g>
						<g>
							<path class="st4" d="M518.6,201.9c-0.1,0-0.2,0-0.3-0.1c-0.4-0.2-0.5-0.6-0.4-1l1.2-2.7c0.2-0.4,0.6-0.5,1-0.4
								c0.4,0.2,0.5,0.6,0.4,1l-1.2,2.7C519.1,201.8,518.8,201.9,518.6,201.9z"/>
						</g>
					</g>
					
						<rect x="438.9" y="118.3" transform="matrix(0.916 0.4011 -0.4011 0.916 85.8629 -169.6398)" class="st4" width="18.5" height="4"/>
					
						<rect x="432.8" y="132" transform="matrix(0.916 0.4011 -0.4011 0.916 90.8791 -166.0705)" class="st4" width="18.5" height="4"/>
					
						<rect x="426.7" y="146" transform="matrix(0.916 0.4011 -0.4011 0.916 95.9862 -162.4387)" class="st4" width="18.5" height="4"/>
					
						<rect x="472.1" y="167.2" transform="matrix(0.916 0.4011 -0.4011 0.916 108.2902 -178.8531)" class="st4" width="18.5" height="4"/>
					
						<rect x="435.1" y="128.9" transform="matrix(0.916 0.4011 -0.4011 0.916 91.2761 -172.7376)" class="st4" width="46.1" height="5.5"/>
					
						<rect x="541.6" y="165.4" transform="matrix(0.916 0.4011 -0.4011 0.916 114.0785 -208.6241)" class="st4" width="27.5" height="5.5"/>
					
						<rect x="431" y="134.7" transform="matrix(0.916 0.4011 -0.4011 0.916 91.3851 -162.6578)" class="st4" width="6.3" height="4.4"/>
					
						<rect x="476.3" y="156" transform="matrix(0.916 0.4011 -0.4011 0.916 103.7312 -179.0373)" class="st4" width="6.3" height="4.4"/>
					
						<rect x="470.3" y="170.5" transform="matrix(0.916 0.4011 -0.4011 0.916 109.3244 -176.7548)" class="st4" width="13.1" height="4.4"/>
					
						<rect x="494.4" y="163.9" transform="matrix(0.916 0.4011 -0.4011 0.916 108.397 -185.5923)" class="st4" width="6.3" height="4.4"/>
					
						<rect x="439.4" y="139.7" transform="matrix(0.916 0.4011 -0.4011 0.916 93.8028 -165.5791)" class="st4" width="6" height="3.1"/>
					
						<rect x="449.6" y="143.7" transform="matrix(0.916 0.4011 -0.4011 0.916 96.7351 -170.1684)" class="st4" width="10.3" height="4.4"/>
					
						<rect x="424.5" y="149.9" transform="matrix(0.916 0.4011 -0.4011 0.916 97.0933 -159.5883)" class="st4" width="10.3" height="4.4"/>
					
						<rect x="435.9" y="154.9" transform="matrix(0.916 0.4011 -0.4011 0.916 100.0299 -163.7145)" class="st4" width="10.3" height="4.4"/>
					
						<rect x="479" y="150.2" transform="matrix(0.916 0.4011 -0.4011 0.916 101.805 -181.4044)" class="st4" width="10.3" height="4.4"/>
					
						<rect x="497.1" y="158.1" transform="matrix(0.916 0.4011 -0.4011 0.916 106.4876 -187.9779)" class="st4" width="10.3" height="4.4"/>
					
						<rect x="461.5" y="149.4" transform="matrix(0.916 0.4011 -0.4011 0.916 99.5329 -173.6241)" class="st4" width="6" height="3.1"/>
					
						<rect x="538.9" y="170.3" transform="matrix(0.916 0.4011 -0.4011 0.916 114.6382 -203.2045)" class="st4" width="7.5" height="3.8"/>
					
						<rect x="547.8" y="175.7" transform="matrix(0.916 0.4011 -0.4011 0.916 118.0242 -207.587)" class="st4" width="14.2" height="4.8"/>
					
						<rect x="532.5" y="185" transform="matrix(0.916 0.4011 -0.4011 0.916 119.9765 -199.4009)" class="st4" width="7.5" height="3.8"/>
					
						<rect x="541.6" y="189.7" transform="matrix(0.916 0.4011 -0.4011 0.916 123.1417 -203.9617)" class="st4" width="14.2" height="4.8"/>
					
						<rect x="528.9" y="193.3" transform="matrix(0.916 0.4011 -0.4011 0.916 122.9885 -197.2379)" class="st4" width="7.5" height="3.8"/>
					
						<rect x="538.1" y="197.7" transform="matrix(0.916 0.4011 -0.4011 0.916 126.032 -201.9023)" class="st4" width="14.2" height="4.8"/>
					
						<rect x="536.1" y="176.7" transform="matrix(0.916 0.4011 -0.4011 0.916 116.9549 -201.5539)" class="st4" width="7.5" height="3.8"/>
					
						<rect x="544.9" y="182.9" transform="matrix(0.916 0.4011 -0.4011 0.916 120.888 -206.9149)" class="st4" width="19.6" height="4.8"/>
					<g>
						
							<rect x="573.4" y="173.5" transform="matrix(0.916 0.4011 -0.4011 0.916 118.6217 -218.4523)" class="st8" width="15.3" height="1.2"/>
						
							<rect x="572" y="176" transform="matrix(0.916 0.4011 -0.4011 0.916 119.8413 -217.6116)" class="st8" width="15.3" height="2.8"/>
						
							<rect x="570.5" y="180.1" transform="matrix(0.916 0.4011 -0.4011 0.916 121.0247 -216.7288)" class="st8" width="15.3" height="1.1"/>
						
							<rect x="569.1" y="182.7" transform="matrix(0.916 0.4011 -0.4011 0.916 122.2395 -215.8823)" class="st8" width="15.3" height="2.7"/>
						
							<rect x="567.6" y="187" transform="matrix(0.916 0.4011 -0.4011 0.916 123.4442 -215.024)" class="st8" width="15.3" height="0.7"/>
						
							<rect x="566.2" y="189" transform="matrix(0.916 0.4011 -0.4011 0.916 124.6488 -214.1658)" class="st8" width="15.3" height="3.2"/>
						<polygon class="st8" points="579.1,197.7 565.1,191.6 565.7,190.2 579.7,196.3 						"/>
						
							<rect x="563.3" y="195.3" transform="matrix(0.916 0.4011 -0.4011 0.916 127.0579 -212.4491)" class="st8" width="15.3" height="3.9"/>
						
							<rect x="561.8" y="200.1" transform="matrix(0.916 0.4011 -0.4011 0.916 128.2469 -211.5716)" class="st8" width="15.4" height="0.9"/>
						
							<rect x="560.4" y="202.7" transform="matrix(0.916 0.4011 -0.4011 0.916 129.4556 -210.7205)" class="st8" width="15.3" height="2.3"/>
						
							<rect x="559" y="206.8" transform="matrix(0.916 0.4011 -0.4011 0.916 130.6552 -209.8571)" class="st8" width="15.3" height="0.7"/>
						
							<rect x="557.5" y="208.5" transform="matrix(0.916 0.4011 -0.4011 0.916 131.8762 -209.016)" class="st8" width="15.3" height="3.9"/>
						
							<rect x="556.1" y="212.9" transform="matrix(0.916 0.4011 -0.4011 0.916 133.0692 -208.1459)" class="st8" width="15.3" height="1.8"/>
						
							<rect x="554.6" y="216.4" transform="matrix(0.916 0.4011 -0.4011 0.916 134.281 -207.2949)" class="st8" width="15.3" height="1.4"/>
					</g>
					
						<rect x="465.6" y="114.8" transform="matrix(0.916 0.4011 -0.4011 0.916 88.5686 -184.9929)" class="st4" width="41" height="8.6"/>
					
						<rect x="548" y="147.4" transform="matrix(0.916 0.4011 -0.4011 0.916 107.8168 -212.2442)" class="st4" width="25.8" height="7.9"/>
					
						<rect x="574.4" y="156" transform="matrix(0.916 0.4011 -0.4011 0.916 112.8864 -219.3575)" class="st4" width="11.8" height="7.9"/>
					<g>
						<path class="st2" d="M456.7,103.3c0,0,1,0.1,1.2,0.3c0.2,0.2,0.1,0.8-0.2,0.8c-0.3,0-1.1-0.5-1.1-0.5L456.7,103.3z"/>
						<path class="st2" d="M450.2,111c0.2,0.1,0.5,0,0.7-0.1c1.2-0.9,5.7-4,5.7-4c0,0,2.1,0.9,3.3,1.4c0.5,0.2,1.1,0.2,1.7,0l0.1,0
							l0-0.1c-0.2-0.5-0.6-1-1.2-1.2c-1.2-0.6-3.3-1.5-3.3-1.5c-0.1,0-0.8-5.4-1-6.9c0-0.2-0.2-0.5-0.4-0.6l-0.2-0.1
							c-0.1,0-0.1,0-0.1,0.1l-0.7,6.5l-2.7-1.1c-0.1,0-0.2-0.1-0.2-0.1l-0.8-0.2c-0.2-0.1-0.4-0.3-0.5-0.5l-0.3-1.7
							c0-0.2-0.2-0.4-0.3-0.5l-0.3-0.2l-0.4,2.5l-0.5,0l0.3,0.4l-1.6,2l0.3,0.1c0.2,0,0.4,0,0.6-0.1l1.5-0.9c0.2-0.1,0.5-0.1,0.7,0
							l0.7,0.4c0.1,0,0.1,0.1,0.2,0.1l2.7,1.2l-4.3,4.9c0,0,0,0.1,0,0.1L450.2,111z"/>
						<path class="st2" d="M454.5,108.2c0,0,0.8,0.7,1,0.7c0.2,0,0.6-0.5,0.5-0.7c-0.2-0.2-1.1-0.5-1.1-0.5L454.5,108.2z"/>
					</g>
				</g>
			</g>
			<g>
				<path class="st2" d="M471.5,208.1c-3.1,7.1-16.7,7.8-37.8-10.3c-2.3-2-3.1-7.3-1.1-10.1l4-4.8c0,0,2.9,5.4,6.4,8.1
					C452,197.9,468.2,205.5,471.5,208.1z"/>
			</g>
			<g>
				<path class="st2" d="M432.7,196.3c0,0-13.8-23.8-13.6-31c0-0.5,0.2-1.1,0.6-1.5c2.4-2.9,9-8.4,15.3,5.7
					c7.1,15.9,7.5,29.1,7.5,29.1S440.4,193.8,432.7,196.3z"/>
			</g>
			<g>
				<g>
					<path class="st9" d="M422.5,162.6c-0.1,0.1-0.3,0.2-0.5,0.1c-0.9-0.4-4-1.6-5-2.6c-1.5-1.5-1.8-3.5-1.9-4.2
						c-0.1-1.1,0.3-0.7,1.1,0c0.5,0.4,1.8,1.7,2.4,2.2C419.2,158.7,424.8,160.1,422.5,162.6z"/>
				</g>
				<path class="st9" d="M420.4,159c0-0.4-1.1-1.6-0.3-2.1c0.8-0.4,2.8,3.8,2.6,3.9C422.6,161,420.4,159,420.4,159z"/>
			</g>
			<g>
				<g>
					<path class="st9" d="M550.2,219.4c0,0.2,0.1,0.3,0.3,0.4c0.9,0.4,4,1.6,5.4,1.6c2.2,0,3.7-1.3,4.3-1.8c0.9-0.7,0.2-0.7-0.8-0.8
						c-0.7,0-2.5,0-3.3,0C555.3,218.8,550.3,216,550.2,219.4z"/>
				</g>
				<path class="st9" d="M554.2,218.2c0.3-0.3,2-0.4,1.6-1.3c-0.3-0.9-4.6,0.8-4.6,1C551.3,218.1,554.2,218.2,554.2,218.2z"/>
			</g>
			<g>
				<path class="st10" d="M478.6,204.6c0,0-3.8-6.6-4.6-10.7c-0.8-4.1-2.2-7.6,0.6-7.7c2.8-0.2,10.6-0.6,12.5-8
					c0.3-1-0.3-2.9-0.8-4.4c-0.1-0.4,0.3-0.7,0.6-0.5c2.1,1.2,6.6,4.1,7.9,8.8c1.8,6.2-0.1,10.6-1,13.3c-0.5,1.5-4.2,8-4.2,8
					L478.6,204.6z"/>
			</g>
			<g>
				<g>
					<g>
						<g>
							<path class="st9" d="M479.9,202.4c0,0-3.2,7.4-2.8,8.4c0.4,1,2.2,2.7,3.9,1.1c1.7-1.6,2.2-8.6,2.2-8.6L479.9,202.4z"/>
						</g>
					</g>
				</g>
				<g>
					<g>
						<g>
							<path class="st11" d="M480.5,199.9c0,0-2.7,7.4-2.9,8.3c-0.2,0.7,3.9,2.3,4.4,1.4c1.1-1.9,1.8-8.9,1.8-8.9L480.5,199.9z"/>
						</g>
					</g>
				</g>
			</g>
			<g>
				<g>
					<g>
						<path class="st9" d="M489.7,204.7c0.3-0.7,0.2-3.4,0.1-5.7c-0.1-1.9-1.8-3.3-3.6-3.1c-2.9,0.3-6.1,0.7-6.9,1.3
							c-1.3,0.9-1.3,2.9-1.3,4.4c0,1.5,0.5,4.1,1.4,5.2c0.8,1.1,3.2,2,4.5,1.9C487.8,208.6,488.9,207.6,489.7,204.7z"/>
					</g>
				</g>
			</g>
			<path class="st12" d="M478.2,203.8c-2-2.6-3.5-5.7-4.5-8.9c-0.5-1.6-0.7-3.3-1-4.9c-0.1-0.8-0.3-1.6-0.3-2.6c0-0.3,0-0.5,0.2-1
				c0.3-0.4,0.5-0.5,0.6-0.6l0.2-0.1c0.1-0.1,0.2-0.1,0.3-0.2c0.2-0.1,0.3-0.1,0.4-0.1c0.3,0,0.5-0.1,0.7-0.1
				c1.7-0.1,3.3-0.1,4.8-0.5c1.5-0.3,2.9-1,4.1-2c0.6-0.5,1-1.2,1.5-1.8c0.5-0.6,0.9-1.3,1.3-2c0.4-0.7,0.6-1.5,0.6-2.3
				c0-0.8-0.3-1.6-0.5-2.4c0.4,0.7,0.8,1.5,0.9,2.3c0.1,0.9-0.1,1.8-0.3,2.6c-0.3,0.8-0.7,1.6-1.1,2.3c-0.4,0.7-0.9,1.4-1.5,2.1
				c-1.2,1.3-2.9,2.1-4.5,2.6c-1.7,0.5-3.4,0.5-5,0.6c-0.4,0-0.8,0.1-0.8,0.1c-0.2,0.2-0.4,0.3-0.3,0.2c0-0.1,0,0.1,0,0.2
				c0,0.7,0.1,1.5,0.2,2.3c0.2,1.6,0.4,3.3,0.8,4.8c0.3,1.6,0.8,3.1,1.4,4.7C476.7,200.9,477.4,202.4,478.2,203.8z"/>
		</g>
		<g>
			<g>
				<g>
					<g>
						<path class="st2" d="M256.3,107.2C256.3,107.2,256.3,107.2,256.3,107.2l0.2-0.4c2.1,0.4,4.1,1.8,5.3,3.9
							c1.1,2,1.3,4.3,0.6,6.3c-0.8,2-2.5,3.6-4.8,4.4c-1.5,0.5-3,0.5-4.4,0.2c-0.7-0.2-1.3-0.5-2-0.9c-1.8-1.2-3-3.3-3.2-5.7
							c-0.2-2.3,0.6-4.6,2.2-6C251.6,107.4,253.9,106.8,256.3,107.2z"/>
						<path class="st2" d="M271.1,121.3c1.6-0.1,3.1,0.9,4,2.3c0.9,1.5,1.1,3.3,0.3,4.8c-0.8,1.4-2.3,2.3-4.1,2.3
							c-0.5,0-1,0-1.5-0.2c-1.1-0.3-2.1-1-2.7-1.9c-0.8-1.3-0.8-3.1,0-4.7C268,122.3,269.5,121.3,271.1,121.3z"/>
						<path class="st2" d="M202.3,18.4c-1.9,1.8-3.6,3.8-5.1,6c-9.2,12.8-11.6,30.1-6.2,44.9c2.4,6.6,6.2,12.4,11,17.3
							c-13-9.7-20.3-24.9-17.2-42.2c3.8-20.6,21.9-44.2,44.6-43.7c0.5,0,0.5-0.8,0-0.8c-21-0.7-38.6,18.3-44.9,36.9
							c-7.3,21.5,0.7,43,20.2,54.7c2.8,1.7,5.8,3.1,8.8,4.3c19.7,11.8,46.6,12.7,64.3-2.3C332.7,47,249.1-27.8,202.3,18.4z"/>
					</g>
					<path class="st2" d="M299,50.4c-0.1-0.6-1.1-0.4-1.1,0.1c-0.4,14.6-4.3,26.4-13.3,38c-0.4,0.6,0.3,1.3,0.8,0.8
						C295.7,79.9,301.3,64.2,299,50.4z"/>
				</g>
				<g>
					<path class="st4" d="M209.8,46.7l-3.3,0c-0.7,0-1.3-0.6-1.3-1.3l0,0c0-0.7,0.6-1.3,1.3-1.3l3.3,0L209.8,46.7z"/>
					<path class="st4" d="M267,73l-53.6-0.4c-1.5,0-2.7-1.2-2.7-2.7l0.2-30.4c0-0.9,0.8-1.7,1.7-1.7l26.5,0.2l0.1-1.6
						c0.1-1.1,1-1.9,2-1.9l26.4,0.4c1.1,0,2,0.9,2,2l0.1,33.3C269.7,71.8,268.5,73,267,73z"/>
					<polygon class="st5" points="269.6,69 210.7,69 210.8,47.2 269.6,47.3 					"/>
					<path class="st3" d="M226.2,47.2c0,1.2-1,2.2-2.2,2.2s-2.2-1-2.2-2.2c0-1.2,1-2.2,2.2-2.2S226.3,46,226.2,47.2z"/>
					<path class="st4" d="M225.4,47.2c0,0.7-0.6,1.3-1.3,1.3c-0.7,0-1.3-0.6-1.3-1.3c0-0.7,0.6-1.3,1.3-1.3
						C224.8,45.9,225.4,46.5,225.4,47.2z"/>
					<path class="st8" d="M232.7,45l-4.1,0c-1.3,0-2.4-1.1-2.4-2.4l0,0c0-1.3,1.1-2.4,2.4-2.4l4.1,0c1.3,0,2.4,1.1,2.4,2.4l0,0
						C235.1,43.9,234,45,232.7,45z"/>
					<path class="st8" d="M210.8,50.1L210.8,50.1c-1.3,0-2.4-1.1-2.4-2.4l0-2.7c0-1.3,1.1-2.4,2.4-2.4l0,0L210.8,50.1z"/>
					<path class="st3" d="M244.4,38.2c0,1.1-0.9,2-2,2c-1.1,0-2-0.9-2-2c0-1.1,0.9-2,2-2C243.5,36.2,244.4,37.1,244.4,38.2z"/>
					<path class="st8" d="M255,55.1c0,6.5-5.3,11.7-11.8,11.7c-6.5,0-11.7-5.3-11.7-11.8c0-6.5,5.3-11.7,11.8-11.7
						C249.8,43.3,255,48.6,255,55.1z"/>
					<path class="st8" d="M252.2,55.1c0,5-4.1,9-9.1,8.9c-5,0-9-4.1-8.9-9.1c0-5,4.1-9,9.1-8.9C248.2,46,252.2,50.1,252.2,55.1z"/>
					<path class="st4" d="M248.1,55c0,2.7-2.2,4.9-5,4.9c-2.7,0-4.9-2.2-4.9-5c0-2.7,2.2-4.9,5-4.9S248.1,52.3,248.1,55z"/>
					<path class="st8" d="M244.8,55c0,0.9-0.7,1.6-1.6,1.6s-1.6-0.7-1.6-1.6c0-0.9,0.7-1.6,1.6-1.6S244.8,54.1,244.8,55z"/>
					<path class="st5" d="M237.1,37.9l-8.1-0.1l0,0c0-1.1,0.9-2,2-2l4.1,0C236.2,35.9,237.1,36.8,237.1,37.9L237.1,37.9z"/>
					<path class="st8" d="M226.3,37.9l-12.5-0.1l0,0c0-0.6,0.5-1.1,1.2-1.1l10.2,0.1C225.8,36.7,226.3,37.2,226.3,37.9L226.3,37.9z"
						/>
					<path class="st5" d="M223.8,36.7l-7.1,0l0,0c0-1.3,1-2.3,2.3-2.3l2.5,0C222.8,34.4,223.8,35.4,223.8,36.7L223.8,36.7z"/>
					<path class="st8" d="M222.3,34.4l-4,0l0,0c0-0.6,0.5-1,1-1l1.9,0C221.9,33.4,222.3,33.8,222.3,34.4L222.3,34.4z"/>
					<path class="st13" d="M241.4,53.1c-1,2-2.9,3.2-4.1,2.5c-1.2-0.6-1.4-2.8-0.4-4.8c1-2,2.9-3.2,4.1-2.5
						C242.3,48.9,242.4,51.1,241.4,53.1z"/>
				</g>
			</g>
			<g>
				<g>
					
						<rect x="296" y="244.6" transform="matrix(0.9813 -0.1927 0.1927 0.9813 -50.125 63.147)" class="st4" width="6.9" height="89.1"/>
					
						<rect x="375" y="244.6" transform="matrix(-0.9813 -0.1927 0.1927 -0.9813 694.129 645.9338)" class="st4" width="6.9" height="89.1"/>
					
						<rect x="255.7" y="331.4" transform="matrix(-0.9813 -0.1927 0.1927 -0.9813 436.948 836.8381)" class="st4" width="6.9" height="131.6"/>
					<path class="st8" d="M275.9,250.8L275.9,250.8c-4.7-22.7,15.4-42.9,38.2-38.2l20.8,4.3c4.3,0.9,8.8,0.9,13.1,0l16.5-3.4
						c23.6-4.9,43.8,17.3,36.8,40.4l0,0c-4.4,14.4-17.7,24.3-32.8,24.3h-58.9C293.3,278.2,279.2,266.8,275.9,250.8z"/>
					
						<rect x="373.3" y="331.4" transform="matrix(0.9812 -0.1928 0.1928 0.9812 -69.4889 80.0734)" class="st4" width="6.9" height="131.6"/>
					<path class="st8" d="M372.5,337.9h-109c-3.3,0-6-2.7-6-6l0,0c0-3.3,2.7-6,6-6h109c3.3,0,6,2.7,6,6l0,0
						C378.5,335.2,375.8,337.9,372.5,337.9z"/>
				</g>
				<g>
					<path class="st14" d="M329.6,188c0,0,49.6,39.2,53.5,61.8c6,35.2-26.5,36.4-35.5,31.1c-19.7-11.4-19-75.5-19-75.5L329.6,188z"
						/>
					<g>
						<g>
							<path class="st5" d="M442.7,498.8c-0.3-2.8-5.8-7.3-10.2-10.6c1.1,1.5,2.1,3.3-0.4,3.2c-3.8-0.3-10.8-4-12.2-7.3
								c-1.5,1.5-2.6,4-3.2,5.8C415.9,492.1,443.2,503.4,442.7,498.8z"/>
						</g>
						<g>
							<path class="st8" d="M432.1,491.3c2.6,0.2,1.6-1.7,0.4-3.2c-2.7-2.1-4.5-3.4-5-3.9c-1.3-1.2-1.8-3-1.8-3l-1.4-0.9
								c0,0-4,3.1-4.4,3.6C421.2,487.3,428.3,491.1,432.1,491.3z"/>
						</g>
					</g>
					<g>
						<g>
							<path class="st5" d="M501.4,494.6c-0.6-2.8-13.4-4.9-17.4-4.3c1.5,0.3,3.9,1.2,2.9,2.8c-1.6,2.3-6.9,3.4-9.7,1.9
								c0.6,2.1,1.9,4.6,3,6.3C481.5,503.4,502.8,501,501.4,494.6z"/>
						</g>
						<g>
							<path class="st8" d="M490.6,493.5c1.1-1.6-4.4-2.9-5.9-3.2c-3.6-0.2-4.4,0-4.9,0c-1.3,0-1.9-2.1-1.9-2.1l-2.3,1.7
								c0,0,1.3,1.1,1.3,3.4c0,0.5,0.1,1.1,0.3,1.7C480,496.4,489,495.8,490.6,493.5z"/>
						</g>
					</g>
					<g>
						<path class="st15" d="M333.1,191c-5.5-6.5-31.4-11.3-56.1-7.5c-12.7,2-29.2,9.7-31.6,17.7c-5,16,13.6,59.2,19.2,66.2
							c13.5,6,62.8-4.6,69.6-7.9C334.2,259,343.2,203,333.1,191z"/>
					</g>
					<path class="st8" d="M334.3,259.6c0,0,58.3,15.2,77.2,59.5c18.9,44.3,15.1,164.6,15.1,164.6l-5.3-0.3
						c0,0-65.3-206.4-120.9-220.2L334.3,259.6z"/>
					<path class="st5" d="M300.4,263.1c18.7,0.6,68.8,45.3,94.8,75.9c44.3,52.4,84.7,151.3,84.7,151.3L477,492
						c0,0-117.9-118.9-176-149.6c-46.1-24.3-43.4-57-36.4-75C264.6,267.4,289.5,262.8,300.4,263.1z"/>
					<g>
						<g>
							<g>
								<g>
									<path class="st9" d="M285.9,178.8c0,0-0.6,9.1,0.5,10c1,0.8,4.5,1.6,6.1-0.9c1.6-2.5-1.5-9.9-1.5-9.9L285.9,178.8z"/>
								</g>
							</g>
							<g>
								<g>
									<path class="st11" d="M285.8,185.4c2.1,0.4,4.8,0.4,7.1-0.8c-0.2-1.6-0.7-3.4-1.1-4.7l-5.9,1
										C285.8,182.2,285.7,183.9,285.8,185.4z"/>
								</g>
							</g>
						</g>
						<g>
							<path class="st9" d="M300.3,156.6c-2.6-4.7-12.9-4.3-14.8-3.3c-2.1,1.1-2.4,3.9-2.6,6c-0.3,2.1,0.3,11.2,6.9,13
								C302.2,175.7,300.3,156.6,300.3,156.6z"/>
						</g>
						<g>
							<g>
								<path class="st5" d="M314.1,144.2c0-0.3,0.1-0.6,0.1-0.9c0,0,0-0.1,0-0.1c0,0,0,0,0,0c0-0.1,0-0.2,0-0.3
									c0-0.2-0.1-0.3-0.2-0.5c0-0.4,0-0.8-0.2-1.3c0-0.1-0.1-0.1-0.1-0.2c-0.1-0.6-1.1-0.7-1.4-0.1c-3.7,6.7-12.9-1.5-18.6-0.5
									c-1.9,0.3-3.6,1.3-4.7,2.8c-3.4-0.8-7.2,0.3-9.2,3.5c-3.3,5-2.4,14.6-0.5,20c0.1,0.5,0.2,1,0.3,1.5c0.1,0.2,0.1,0.5,0.2,0.7
									c-0.5,2.2-0.8,4.4,0.2,6.9c1.3,3.3,4.2,6.1,7.5,7.2c2.7,0.9,7.8,1.2,10.5-0.3c2.5-1.4,4.9-5.7,5-8.6c0-2.3-2.8-10.7-2.9-9.1
									c-0.1,0.7-1.3,3.8-1.5,4.2c-0.3,0.5-1.1,1.5-1.1,1.5c-4,4.3-8.9,0.5-10.8-1.6c0,0-0.1-0.1-0.1-0.2c-0.5-0.7-1-1.5-1.5-2.2
									c-1-1.8-2-3.7-1.7-5.7c0.5-3.1,1.4-6.3,5.5-6.7c0.4,0,0.7,0,1,0c5,0.7,9.5,4.4,14.7,3.9c0.2,0,0.4-0.1,0.6-0.1
									C311.4,157.3,313.7,150.2,314.1,144.2z"/>
							</g>
						</g>
						<g>
							<g>
								<path class="st16" d="M312.2,140.9c-0.5,0.9-1.1,1.9-2.2,2.3c-1,0.5-2.1,0.7-3.2,0.6c-2.2-0.1-4.3-0.9-6.3-1.6
									c-2-0.6-4.1-1.3-6-1.2c-1.9,0.1-3.8,1.1-4.9,2.6c-0.2,0.2-0.5,0.3-0.8,0.3c-2.3-0.5-4.9-0.1-6.8,1.3
									c-1.9,1.4-2.9,3.8-3.4,6.2c-0.5,2.5-0.6,5-0.5,7.6c0.2,2.5,0.5,5.1,1.2,7.6l0,0l0,0c0.1,0.7,0.2,1.5,0.4,2.2
									c-0.3-0.7-0.5-1.4-0.7-2.1l0,0c-0.9-2.4-1.6-5-1.8-7.6c-0.3-2.6-0.4-5.3,0.1-7.9c0.2-1.3,0.6-2.6,1.2-3.9
									c0.6-1.3,1.5-2.4,2.6-3.3c2.3-1.8,5.3-2.2,8-1.6l-0.8,0.3c1.5-1.9,3.7-3,6.1-3.1c2.4-0.1,4.4,0.8,6.4,1.6c2,0.8,4,1.6,6,1.9
									c1,0.2,2.1,0.1,3-0.2C310.8,142.6,311.5,141.8,312.2,140.9z"/>
							</g>
						</g>
					</g>
					<g>
						<path class="st14" d="M333.1,191c-3.4-4.1-14.8-7.5-28.8-8.5c3,6.2,8.2,18.8,9.8,34.3c1.4,13.7-2.2,31.5-3.3,45.2
							c10.1-2,20.9-1.2,23.4-2.4C334.2,259,343.2,203,333.1,191z"/>
					</g>
					<g>
						<path class="st15" d="M262.9,202.8c1.1,5.6,0.8,11.1,0.6,18.1c-0.2,6.3-0.4,12.6-0.5,18.9c-0.2,6.8,1.1,15.5-0.6,22.1
							c0,0-10.2,39.8-23.9,22c-9-11.6-7.1-30.6-4.8-44c3-17.8,4.5-30.6,15.6-45.1c0.5-0.6,1.1-1.3,1.8-1.4c1.1-0.1,6.4-0.7,7,0.2
							C260.5,197.3,262,198.6,262.9,202.8z"/>
					</g>
					<g>
						<path class="st15" d="M247.4,256.6l38.4-41.8c1.8-1.9,4.5-2.6,6.9-1.8c5.9,2,16.1,6.4,17.2,11.9c4.3,22.1-35.5,62.7-57.9,63.9
							C229.1,290.1,247.4,256.6,247.4,256.6z"/>
					</g>
					<g>
						<path class="st9" d="M295.9,213.9c0,0,3.2-6.5,5.1-7.5c1.9-1,4.5,2.8,4.5,2.8L295.9,213.9z"/>
					</g>
					<g>
						<g>
							<path class="st8" d="M308.4,205.6l-2.7,3.7l-21-15.7c-1-0.8-1.2-2.2-0.5-3.2l0,0c0.8-1,2.2-1.2,3.2-0.5L308.4,205.6z"/>
						</g>
						<g>
							<path class="st17" d="M284.9,189.6l-1.4,1.8c0,0-3.5-1.6-3.7-2.8c-0.1-0.6,0.8-1.8,1.4-1.8
								C282.3,186.7,284.9,189.6,284.9,189.6z"/>
						</g>
						<g>
							<path class="st17" d="M294,200.5l-0.8,1.1c0,0-9-4.9-10.3-7.7c-0.2-0.3,0.8-1.1,0.8-1.1L294,200.5z"/>
						</g>
					</g>
					<g>
						<path class="st9" d="M295.9,213.9c0,0,7.6-6.6,14-8.9c6.4-2.4,8,0.8,7,3.6c0,0,2.5,4.5,0.3,8.8c-2,3.9-13.8,5-16.7,4.9
							c-1.8-0.1-5.9-1.3-6.7-3.8C293.4,217.1,295.9,213.9,295.9,213.9z"/>
					</g>
					<g>
						<path class="st14" d="M309.9,225c0.9,3.8,0.5,7.8-0.4,11.5c-1,3.8-2.6,7.4-4.4,10.8c-3.7,6.9-8.5,13.1-13.8,18.7
							c-5.3,5.6-11.3,10.7-17.8,14.9c-6.5,4.1-13.8,7.8-21.6,7.9c3.8-0.5,7.4-1.8,10.8-3.5c3.4-1.6,6.7-3.7,9.7-5.9
							c6.2-4.4,11.9-9.5,17.1-15c5.2-5.5,10-11.5,13.9-18c1.9-3.3,3.7-6.7,4.8-10.3C309.6,232.6,310.3,228.8,309.9,225z"/>
					</g>
					<g>
						<path class="st14" d="M247.4,256.6c3.3-4.3,6.7-8.4,10.2-12.5c3.5-4.1,7.1-8.1,10.7-12c3.6-3.9,7.3-7.9,11.1-11.7l5.7-5.7
							c1.9-2.1,5.2-2.9,7.7-1.7c-2.6-0.6-5.4,0.4-6.8,2.5l-5.2,6.1c-3.5,4.1-7.1,8.1-10.7,12c-3.6,3.9-7.3,7.9-11.1,11.7
							C255.2,249.2,251.4,253,247.4,256.6z"/>
					</g>
					<g>
						<polygon class="st2" points="325.6,200.7 309.3,271.3 353.6,275.6 371.5,206.3 						"/>
					</g>
					<g>
						<path class="st14" d="M321.2,258.8c3.1,17.1,35.5,22.4,43.3,23.5c14.8,2.2,19.7-10,20.2-19.2c0.1-2.8-2.2-20.8-3.8-22.4
							c-5.4-5.3-14.3,6.2-21.4,3.3C337.3,234.9,315.6,227.3,321.2,258.8z"/>
					</g>
					<g>
						<g>
							<path class="st9" d="M330.9,252.4c0.4-0.5,0.5-1.2,0.4-1.9c-0.5-2.2-1.9-7.5-3.1-9.6c-1.5-2.6-8.7-8.1-10.4-7.7
								c-1.6,0.4,1.2,3.6,1.2,3.6s-2.9-3.7-4.8-2.6c-1.8,1-0.9,3.3-0.9,3.3s0.8,4.2,1.4,5.6c0.5,1.1,1.7,3.6,3.3,5.6
								c0.5,0.6,2.9,2.2,3.6,2.7c2,1.3,6.5,3.9,6.9,3.7C328.9,255.1,330.1,253.5,330.9,252.4z"/>
						</g>
					</g>
				</g>
			</g>
		</g>
		<g>
			<g>
				<g>
					<g>
						<path class="st2" d="M52.4,134.5c-0.9,1.6-1.7,3.4-2.3,5.2c-3.7,10.7-1.9,23.4,4.6,32.9c2.9,4.2,6.6,7.6,10.8,10.2
							c-10.6-4.4-18.5-13.8-19.8-26.6C44.2,141,51.8,121,67.1,117c0.3-0.1,0.2-0.6-0.2-0.6c-14.2,3.4-22.3,20.1-22.9,34.4
							c-0.7,16.6,8.9,30.2,24.3,34.8c2.2,0.7,4.5,1.1,6.8,1.4c15.6,4.6,33.8,0.3,42.7-13.6C145.6,130.5,74.8,93.2,52.4,134.5z"/>
					</g>
					<path class="st2" d="M123.6,139.1c-0.2-0.4-0.8-0.1-0.7,0.3c2.6,10.4,2.3,19.5-1.5,29.3c-0.2,0.5,0.4,0.9,0.7,0.4
						C127.1,160.6,127.8,148.4,123.6,139.1z"/>
					<path class="st2" d="M96.8,181c0,0,10,19,27,14c0,0-14,2-11-18C112.8,177,106.8,173,96.8,181z"/>
				</g>
				<g>
					<polygon class="st8" points="98.7,139.5 73.1,135.8 71.7,128.2 102.6,130.9 					"/>
					<path class="st9" d="M77.4,135.6c2.8-4.2,12.2-2.9,13.9-1.9c1.8,1.2,1.9,3.8,2,5.7c0.1,1.9-1.2,10.3-7.4,11.4
						C74.2,153.1,77.4,135.6,77.4,135.6z"/>
					<path class="st5" d="M93.9,140.6c-0.1-2-0.4-5.9-2.1-7c-1.8-1.2-12-2.5-15.1,2c0,0-0.3,1.4-0.4,3.5
						C82.2,138.7,88.4,139.2,93.9,140.6z"/>
					<path class="st8" d="M91.4,149.4c0,0,7.4,5.2,10.7,10.6c3.2,5.4,3.2,9.3,3.2,9.3s-19.3,9.5-38.6,1c0,0,2.7-15.5,10-20.9
						c0,0,2.3,3.1,7.2,3.3C88.9,152.9,91.4,149.4,91.4,149.4z"/>
					<path class="st8" d="M76.1,144.7c1.3,0.3,2.7-0.5,3-1.8c0.1-0.2,0.1-0.5,0-0.7c0,0,0,0,0.1,0c0.8-0.7,2.3-0.4,2.7,0.6
						c0,0,0,0.1,0.1,0.1c0.1,1.1,1,2.1,2,2.3c1.3,0.3,2.7-0.5,3-1.8c0.3-1.2-0.3-2.3-1.4-2.8c0-0.1-0.1-0.1-0.1-0.1
						c-1.3-0.2-3.2,0.2-3.5,1.7c0,0,0,0,0,0.1c-0.7-0.8-2.1-1-2.9-0.4c-0.2-0.7-0.7-1.4-1.4-1.7c0,0-0.1-0.1-0.1-0.1
						c-1.3-0.2-3.2,0.2-3.5,1.7C73.9,143,74.8,144.4,76.1,144.7z M82.4,142.4c0.1-1.4,1.6-1.9,2.8-1.7c0,0,0,0,0.1,0.1
						c2.5,0.7,1.5,4.3-1,4C83.2,144.6,82.3,143.5,82.4,142.4z M74.5,142c0.1-1.4,1.6-1.9,2.8-1.7c0,0,0,0,0.1,0.1
						c2.5,0.7,1.5,4.3-1,4C75.3,144.2,74.4,143.1,74.5,142z"/>
				</g>
			</g>
			<g>
				<g>
					
						<rect x="162.7" y="244.9" transform="matrix(-0.9812 -0.1928 0.1928 -0.9812 274.0605 577.4805)" class="st4" width="4.7" height="61"/>
					
						<rect x="108.7" y="244.9" transform="matrix(0.9813 -0.1927 0.1927 0.9813 -50.9999 26.5625)" class="st4" width="4.7" height="61"/>
					
						<rect x="190.4" y="304.3" transform="matrix(0.9813 -0.1927 0.1927 0.9813 -63.7192 43.6976)" class="st4" width="4.7" height="90.1"/>
					<path class="st8" d="M181.3,249.1L181.3,249.1c3.2-15.6-10.6-29.3-26.1-26.1l-14.3,2.9c-3,0.6-6,0.6-8.9,0l-11.3-2.3
						c-16.2-3.3-30,11.9-25.2,27.6l0,0c3,9.9,12.1,16.6,22.5,16.6h40.4C169.4,267.9,179,260,181.3,249.1z"/>
					
						<rect x="109.8" y="304.3" transform="matrix(-0.9812 -0.1928 0.1928 -0.9812 154.9374 713.7755)" class="st4" width="4.7" height="90.1"/>
					<path class="st8" d="M115.1,308.8h74.7c2.3,0,4.1-1.9,4.1-4.1l0,0c0-2.3-1.9-4.1-4.1-4.1h-74.7c-2.3,0-4.1,1.9-4.1,4.1l0,0
						C111,306.9,112.9,308.8,115.1,308.8z"/>
				</g>
				<path class="st5" d="M145,197.5c0,0-8-1.9-10.1-7.3s3.8-12.3,11.1-13c7.3-0.6,17.6,0.7,19.6,10.3c2.1,9.6-9.1,13.5-13.6,13.4
					C147.5,200.8,145,197.5,145,197.5z"/>
				<path class="st16" d="M163.5,188.4c-2.1-9.6-12.3-10.9-19.6-10.3c-1.1,0.1-2.2,0.3-3.2,0.7c1.6-0.9,3.4-1.5,5.3-1.6
					c7.3-0.6,17.6,0.7,19.6,10.3c1.4,6.6-3.5,10.5-8.1,12.3C161.3,197.8,164.7,194.1,163.5,188.4z"/>
				<path class="st17" d="M122.5,213.7c0,0-13.4,6-24,30.5s19.4,31.3,29.4,27.8C137.9,268.4,122.5,213.7,122.5,213.7z"/>
				<path class="st5" d="M180.1,220.5c6.5,10.9-7.2,43.4-6.9,46.1c-8.2,3.6-44.5,1.2-48.6-0.8c0-0.1-2.2-11.5-3.8-24.1
					c-1.7-13.3-4.8-25.3,1.7-28C153.1,201,175.6,212.8,180.1,220.5z"/>
				<g>
					<path class="st8" d="M122.5,213.7c7.5-3.1,14.4-4.7,20.8-5.3c-0.7,4.1-2.6,16.1-3.1,37.2c-0.2,7.2-0.5,14.9-0.9,22.3
						c-7.2-0.5-13.1-1.3-14.7-2.1c0-0.1-2.2-11.5-3.8-24.1C119.1,228.4,116,216.4,122.5,213.7z"/>
				</g>
				<polygon class="st5" points="152,204.6 152,204.6 152,204.6 				"/>
				<g>
					<path class="st8" d="M145,197.5c0,0-8-1.9-10.1-7.3s3.8-12.3,11.1-13c0.9-0.1,1.8-0.1,2.7-0.1c-1.8,2.2-4.5,6.1-3.9,8.4
						c0.9,3.4,8.4,2.6,10.4,5.1c1.6,1.9,2.5,6-0.4,10c-1.1,0.2-2.1,0.4-2.9,0.3C147.5,200.8,145,197.5,145,197.5z"/>
				</g>
				<g>
					<path class="st9" d="M153.9,202.4c0,0,1.2,9.3,0.1,10.3c-1,0.9-4.6,1.9-6.3-0.5c-1.8-2.5,0.9-10.3,0.9-10.3L153.9,202.4z"/>
					<path class="st11" d="M154.4,209.2c-2.1,0.6-5,0.7-7.4-0.4c0.1-1.7,0.5-3.5,0.9-4.9l6.2,0.6
						C154.2,205.9,154.4,207.6,154.4,209.2z"/>
				</g>
				<path class="st9" d="M144,194c2.3-3.4,10.1-2.4,11.4-1.5c1.5,1,1.5,3.1,1.6,4.7c0.1,1.6-1,8.5-6.1,9.4
					C141.3,208.4,144,194,144,194z"/>
				<g>
					<g>
						<path class="st5" d="M88,427.2c1.9,0.3,6.7-8.3,7.3-11c-0.6,0.9-1.8,2.2-2.5,1.1c-1.1-1.6-0.4-5.2,1.2-6.7
							c-1.5-0.2-3.4,0.1-4.7,0.3C87.6,411.3,83.5,426.4,88,427.2z"/>
					</g>
					<g>
						<path class="st8" d="M91.6,419.6c0.7,1.1,3-2.1,3.5-3c1.1-2.2,1.1-2.8,1.2-3.1c0.3-0.8,1.3-1.3,1.3-1.3l0-1.3
							c0,0-1.1,0.6-2.5,0c-0.3-0.1-0.7-0.2-1.1-0.3C92.4,412.1,90.5,418,91.6,419.6z"/>
					</g>
				</g>
				<g>
					<g>
						<g>
							<path class="st8" d="M70.7,411c-0.7-1.8,6.4-8.2,8.9-9.3c-0.7,0.7-1.8,2.1-0.6,2.6c1.7,0.7,5-0.6,6.1-2.4
								c0.4,1.4,0.6,3.3,0.6,4.6C85.7,408.1,72.2,415.1,70.7,411z"/>
						</g>
						<path class="st8" d="M79.2,401.9c1.9-1.4,2.9-1.8,3.2-2c-0.1-0.8-0.2-1.8-0.4-2.8l2.4-0.4c0,3.3,0.2,4.1,0.2,4.1
							c0.2,0.3,0.3,0.6,0.5,1c-1.1,1.8-6.3,4.7-8,4C75.9,405.4,78.5,402.6,79.2,401.9z"/>
					</g>
					<path class="st4" d="M85.7,399.2c0,0,6.7-52.5,6.2-69.7c-0.1-4.6-1.7-15-1.7-15s24.4,3.9,42.3-3.2
						c16.8-6.7,23.5-18.7,19.5-38.5c-14.5,0.3-21.3-4.3-30.7,0c-23.1,4.9-53.3,4.2-57.4,28c-2.3,13.3,17.7,98.4,17.7,98.4H85.7z"/>
				</g>
				<g>
					<path class="st2" d="M116.1,260l5.8-0.8c4-0.6,6.8-4.3,6.2-8.3l-2-14.2c-0.6-4-4.3-6.8-8.3-6.2l-5.8,0.8
						c-4,0.6-6.8,4.3-6.2,8.3l2,14.2C108.4,257.8,112.1,260.6,116.1,260z"/>
					<path class="st4" d="M114.6,241.4c0.1,0.9,1,1.6,2,1.5c0.9-0.1,1.6-1,1.5-2c-0.1-0.9-1-1.6-2-1.5
						C115.1,239.5,114.5,240.4,114.6,241.4z"/>
				</g>
				<path class="st2" d="M143.6,200.2c1.5,0.2,3-0.7,3.2-2.2c0-0.3,0-0.5,0-0.8c0,0,0,0,0.1,0c0.8-0.8,2.5-0.5,3,0.5
					c0,0,0.1,0.1,0.1,0.1c0.2,1.2,1.2,2.3,2.4,2.5c1.5,0.2,3-0.7,3.2-2.2c0.2-1.3-0.5-2.6-1.7-3c0-0.1-0.1-0.1-0.1-0.1
					c-1.5-0.2-3.5,0.4-3.7,2.1c0,0,0,0.1,0,0.1c-0.8-0.9-2.3-1-3.3-0.3c-0.2-0.8-0.8-1.5-1.7-1.8c0-0.1-0.1-0.1-0.1-0.1
					c-1.5-0.2-3.5,0.4-3.7,2.1C141,198.4,142.1,199.9,143.6,200.2z M150.4,197.3c0-1.5,1.7-2.1,3-2c0,0,0.1,0,0.1,0.1
					c2.8,0.7,1.9,4.7-0.9,4.5C151.4,199.7,150.4,198.5,150.4,197.3z M141.6,197.3c0-1.5,1.7-2.1,3-2c0,0,0.1,0,0.1,0.1
					c2.8,0.7,1.9,4.7-0.9,4.5C142.6,199.6,141.6,198.5,141.6,197.3z"/>
				<g>
					<path class="st4" d="M170,270c3,1.1,5.7,3,7.5,5.9c8.4,13.1-5.1,57.2-12.7,70.5c-17.8,31.6-65.8,67.1-65.8,67.1l-3.1-1.7
						c9.9-10.3,40-41.9,54.7-59.9C164.5,335.1,168.7,289.8,170,270z"/>
					<path class="st3" d="M126.7,338.8c5.1-14.7,16.6-67.9,16.6-67.9s15.8-5,26.7-0.9c-1.2,19.8-5.5,65-19.2,81.8
						c-14.7,18-44.8,49.6-54.7,59.9l-3.3-1.8C92.8,410,119.7,359.2,126.7,338.8z"/>
				</g>
				<path class="st17" d="M184.5,275.8c-16.3,16.9-44.8,8.2-57.5-2.6c-7.7-6.5,1.4-19,1.4-19l42.5,8.9c0,0-5.5-38.2-0.1-42.8
					c4-3.4,6.9-2.3,9.8-0.1C189,226.7,192.5,267.5,184.5,275.8z"/>
				<path class="st9" d="M106.6,257.5c0,0-2.5-4.7-1.1-5.9s3.6-3.1,4.2-2.7c0.7,0.4-1,1.9-1,1.9s1.9-0.2,2.3-0.1
					c0.4,0.1-0.3,1-0.3,1s0.5-0.1,0.9,0.5c0.4,0.6-1.3,0.9-1.8,1.5c-0.5,0.6-0.1,3.7-1.1,5C108.3,259.2,107.2,258.9,106.6,257.5z"/>
				<path class="st9" d="M129.7,254.2c0,0,1.1-5.2-0.6-6c-1.6-0.7-4.3-2-4.8-1.4c-0.5,0.6,1.5,1.5,1.5,1.5s-1.9,0.4-2.2,0.6
					c-0.3,0.2,0.6,0.9,0.6,0.9s-0.6,0.1-0.7,0.7c-0.2,0.6,1.5,0.5,2.1,0.9c0.7,0.5,1.2,3.5,2.5,4.5
					C128.5,256.3,129.5,255.6,129.7,254.2z"/>
			</g>
		</g>
	</g>
</g>
</svg>
