<svg xmlns="http://www.w3.org/2000/svg" viewBox="0 0 663 641"><defs><style>.cls-1{fill:#00c2b9;}.cls-2{opacity:0.3;}.cls-3{opacity:0.8;}.cls-4{fill:#fff;}.cls-15,.cls-5{fill:#cceaf5;}.cls-6{fill:#9bcbe9;}.cls-7{fill:#3e275c;}.cls-8{fill:#00928b;}.cls-9{opacity:0.91;}.cls-10{fill:#331239;}.cls-11{fill:#ff97a7;}.cls-12{fill:#ffcb37;}.cls-13{fill:#e45d79;}.cls-14{fill:#ffe5ae;}.cls-15{opacity:0.27;}.cls-16{fill:#c698f8;}.cls-17{fill:#dfb3ff;}.cls-18{fill:#c2a5ff;}.cls-19{fill:#8865c4;}</style></defs><title>home</title><g id="Capa_2" data-name="Capa 2"><g id="Assets"><path class="cls-1" d="M12.2,125.37l.24-.88a2.61,2.61,0,0,1,.78-1.09,2.55,2.55,0,0,1,1.1-.78,3.78,3.78,0,0,1,1.94-.25l.17,0,.86.24a2.69,2.69,0,0,1,1.08.76,1.66,1.66,0,0,1,.53.7,2.65,2.65,0,0,1,.47,1.28v.93l-.24.86a2.59,2.59,0,0,1-.76,1.08,2.63,2.63,0,0,1-1.09.76l-.16.08a3.74,3.74,0,0,1-1.93.25l-.88-.25a2.65,2.65,0,0,1-1.09-.77,1.78,1.78,0,0,1-.55-.72,2.59,2.59,0,0,1-.47-1.3Z"/><path class="cls-1" d="M662.54,0H32.13S42.87,24.86,42.87,60.42c0,34-15.73,64.76-21.52,98.07-32.55,187.12,87,377.7,258.43,416.23,53.26,12,109.2,9.07,161.33-7.58,33.3-10.64,64.17-24.6,100.3-24.46,50.79.19,121.13,53.84,121.13,53.84Z"/><path class="cls-1" d="M663,609.13c-12.6-12.9-30.53-25.43-51-35.33a168.51,168.51,0,0,0-52.56-15.28c-19.5-2.95-48.51-2.75-57.56,6.61-3.31,3.32.19,8.45,8.07,11.08,16.84,5.59,35.55,7.47,50.72,10.91l3.79.88c19.4,5.56,36.45,10.88,51,18.52C632.23,615,652.75,629.6,663,641Z"/><path class="cls-1" d="M548.58,588.29c-.62,0-.06,0,.46,0Z"/><path class="cls-1" d="M491.23,583.26a4.1,4.1,0,0,1-2.06.83l-1.49,0-1.5-.42a4.31,4.31,0,0,1-1.87-1.4,3.14,3.14,0,0,1-.9-1.27,4.86,4.86,0,0,1-.76-2.22c0-.54,0-1.08,0-1.62a6.86,6.86,0,0,1,1.2-3.2l.19-.23a4.41,4.41,0,0,1,1.67-1.52,4,4,0,0,1,2-.81l1.47,0,1.47.41a4.32,4.32,0,0,1,1.84,1.38,3.06,3.06,0,0,1,.88,1.24,4.85,4.85,0,0,1,.75,2.19c0,.53,0,1.06,0,1.59,0,.1,0,.21,0,.31a6.81,6.81,0,0,1-1.2,3.2A4.47,4.47,0,0,1,491.23,583.26Z"/><g class="cls-2"><g class="cls-3"><rect class="cls-4" x="169.79" y="195.12" width="142.45" height="75.77" transform="translate(482.04 466.01) rotate(180)"/></g><g class="cls-3"><polygon class="cls-4" points="197.36 143.67 311.31 143.67 311.31 193.53 296.98 173.74 197.36 173.74 197.36 143.67"/></g><rect class="cls-5" x="201.75" y="153.05" width="103.36" height="5.31"/><rect class="cls-5" x="201.75" y="162.95" width="19.66" height="5.31"/><rect class="cls-5" x="229.05" y="162.95" width="19.66" height="5.31"/><rect class="cls-5" x="256.9" y="162.95" width="38.8" height="5.31"/><path class="cls-6" d="M284.3,224a8.79,8.79,0,0,0-11.72-1l-7.49-10.23a21.46,21.46,0,0,1,28.37,2.47Z"/><path class="cls-7" d="M286.66,231a8.22,8.22,0,0,0,.06-1,8.88,8.88,0,0,0-1.31-4.62l9.24-8.84a21.39,21.39,0,0,1,4.74,13.46c0,.33,0,.66,0,1Z"/><path class="cls-6" d="M280.52,238.48a8.82,8.82,0,0,0,5.73-5.63h13A21.56,21.56,0,0,1,282.54,251Z"/><path class="cls-4" d="M282.49,251.12s0,0,0-.06l-2-12.56a.11.11,0,0,1,.07-.11,8.79,8.79,0,0,0,5.68-5.57.08.08,0,0,1,.08-.06h13a.07.07,0,0,1,.06,0,.11.11,0,0,1,0,.07,21.68,21.68,0,0,1-16.74,18.28h0Zm3.83-18.18a9,9,0,0,1-5.7,5.61l2,12.38a21.48,21.48,0,0,0,16.48-18Z"/><path class="cls-8" d="M263.68,213.9l7.57,10.32a8.82,8.82,0,0,0,6.63,14.66,8.12,8.12,0,0,0,.86,0l2,12.52a21,21,0,0,1-2.88.2,21.51,21.51,0,0,1-14.2-37.66Z"/><path class="cls-6" d="M204.37,226.7a8.77,8.77,0,0,0-2.7,11.44l-11.22,5.91a21.46,21.46,0,0,1,6.6-27.7Z"/><path class="cls-7" d="M211.7,225.39c-.32-.08-.65-.15-1-.2a8.75,8.75,0,0,0-4.75.62l-7.39-10.44a21.37,21.37,0,0,1,14-2.72l1,.17Z"/><path class="cls-6" d="M218.16,232.56a8.87,8.87,0,0,0-4.73-6.5l1.89-12.81a21.55,21.55,0,0,1,15.56,19.14Z"/><path class="cls-4" d="M231,232.45a.09.09,0,0,1-.07,0l-12.72.17a.08.08,0,0,1-.09-.08,8.81,8.81,0,0,0-4.68-6.43.09.09,0,0,1,0-.1l1.89-12.81s0,0,0-.06a.08.08,0,0,1,.08,0A21.66,21.66,0,0,1,231,232.38s0,0,0,0A.08.08,0,0,1,231,232.45ZM213.53,226a9,9,0,0,1,4.71,6.46l12.54-.16a21.47,21.47,0,0,0-15.38-18.94Z"/><path class="cls-8" d="M191.38,245.61l11.32-6a8.82,8.82,0,0,0,15.47-4.41,8.6,8.6,0,0,0,.08-.86l12.69-.17a23.6,23.6,0,0,1-.23,2.88,21.5,21.5,0,0,1-39.33,8.53Z"/><g class="cls-3"><polygon class="cls-4" points="138.08 287.31 288.24 287.31 288.24 353.89 269.36 329.76 138.08 329.76 138.08 287.31"/></g><rect class="cls-5" x="146.19" y="294.39" width="135.18" height="5.31" transform="translate(427.57 594.09) rotate(180)"/><rect class="cls-5" x="169.89" y="304.87" width="111.49" height="5.31" transform="translate(451.27 615.06) rotate(180)"/><rect class="cls-5" x="201.97" y="315.21" width="79.41" height="5.31" transform="translate(483.35 635.74) rotate(180)"/><g class="cls-3"><polygon class="cls-4" points="475.05 339.08 332.8 337.6 333.86 131 477.2 132.26 475.05 339.08"/></g><g class="cls-9"><polygon class="cls-10" points="476.71 132.58 333.37 131.32 333.33 153.25 476.48 154.74 476.71 132.58"/></g><rect class="cls-6" x="345.36" y="144.09" width="91.65" height="4.52" transform="translate(1.54 -4.06) rotate(0.6)"/><rect class="cls-8" x="338.31" y="158.67" width="133.33" height="44.43" transform="translate(1.9 -4.2) rotate(0.6)"/><rect class="cls-8" x="336.62" y="316.36" width="133.33" height="17.2" transform="matrix(1, 0.01, -0.01, 1, 3.4, -4.18)"/><rect class="cls-4" x="380.88" y="177.09" width="84.02" height="4.54" transform="translate(1.89 -4.39) rotate(0.6)"/><rect class="cls-4" x="380.35" y="186.73" width="52.11" height="4.41" transform="translate(1.99 -4.22) rotate(0.6)"/><polygon class="cls-4" points="375.12 227.4 341.47 225.99 344.18 164.99 375.77 165.32 375.12 227.4"/><path class="cls-4" d="M447.49,146.89a2.27,2.27,0,1,1-2.24-2.29A2.26,2.26,0,0,1,447.49,146.89Z"/><path class="cls-6" d="M456.14,147a2.26,2.26,0,1,1-2.24-2.29A2.26,2.26,0,0,1,456.14,147Z"/><path class="cls-8" d="M464.8,147.07a2.27,2.27,0,1,1-2.24-2.29A2.26,2.26,0,0,1,464.8,147.07Z"/><rect class="cls-4" x="379.17" y="205.83" width="82.44" height="23.6" transform="translate(2.29 -4.36) rotate(0.6)"/><rect class="cls-6" x="383.65" y="209.06" width="21.11" height="16.11" transform="translate(2.28 -4.09) rotate(0.6)"/><rect class="cls-7" x="410.38" y="210.55" width="44.19" height="4.54" transform="translate(2.24 -4.49) rotate(0.6)"/><rect class="cls-6" x="410.05" y="220.27" width="27.41" height="4.41" transform="translate(2.34 -4.4) rotate(0.6)"/><rect class="cls-4" x="378.63" y="233.11" width="82.44" height="23.6" transform="translate(2.57 -4.36) rotate(0.6)"/><rect class="cls-6" x="383.11" y="236.34" width="21.11" height="16.11" transform="translate(2.56 -4.08) rotate(0.6)"/><rect class="cls-7" x="409.84" y="237.83" width="44.19" height="4.54" transform="translate(2.52 -4.48) rotate(0.6)"/><rect class="cls-6" x="409.51" y="247.55" width="27.41" height="4.41" transform="translate(2.62 -4.39) rotate(0.6)"/><rect class="cls-4" x="378.07" y="260.87" width="82.44" height="23.6" transform="translate(2.86 -4.35) rotate(0.6)"/><rect class="cls-6" x="382.56" y="264.11" width="21.11" height="16.11" transform="translate(2.85 -4.08) rotate(0.6)"/><rect class="cls-7" x="409.28" y="265.6" width="44.19" height="4.54" transform="translate(2.81 -4.47) rotate(0.6)"/><rect class="cls-6" x="408.96" y="275.31" width="27.41" height="4.41" transform="translate(2.91 -4.38) rotate(0.6)"/><rect class="cls-4" x="377.53" y="288.15" width="82.44" height="23.6" transform="translate(3.14 -4.34) rotate(0.6)"/><rect class="cls-6" x="382.02" y="291.39" width="21.11" height="16.11" transform="translate(3.14 -4.07) rotate(0.6)"/><rect class="cls-7" x="408.74" y="292.88" width="44.19" height="4.54" transform="translate(3.09 -4.47) rotate(0.6)"/><rect class="cls-6" x="408.42" y="302.59" width="27.41" height="4.41" transform="matrix(1, 0.01, -0.01, 1, 3.19, -4.37)"/><rect class="cls-6" x="348.87" y="176.13" width="20.65" height="4.54" transform="translate(1.88 -3.73) rotate(0.6)"/><rect class="cls-6" x="348.71" y="183.8" width="20.65" height="4.54" transform="translate(1.96 -3.72) rotate(0.6)"/><rect class="cls-6" x="348.45" y="196.81" width="20.65" height="4.54" transform="translate(2.09 -3.72) rotate(0.6)"/><rect class="cls-6" x="348.3" y="204.49" width="20.65" height="4.54" transform="translate(2.17 -3.72) rotate(0.6)"/><rect class="cls-6" x="348.06" y="216.83" width="20.65" height="4.54" transform="translate(2.3 -3.72) rotate(0.6)"/></g><path class="cls-4" d="M13.77,186A9,9,0,0,0,12.21,195L100,193.45a8.27,8.27,0,1,0-14.81-7.12,38.78,38.78,0,0,0-3.61-19.11c-3-5.86-8-10.79-14.26-12.79s-13.62-.74-18.33,3.82c-5.59,5.41-6.52,13.92-7,21.69a10.75,10.75,0,0,0-10.93-5.27,10.74,10.74,0,0,0-8.57,8.59A9,9,0,0,0,13.77,186Z"/><path class="cls-4" d="M523.83,158.93a12.63,12.63,0,0,0-2.2,12.73l123.51-2.21c3.47-5.52,1.08-13.83-4.81-16.66s-13.86.49-16,6.65c.41-9.21-.94-18.64-5.08-26.88s-11.26-15.17-20-18-19.15-1-25.78,5.37c-7.86,7.61-9.17,19.58-9.81,30.51a14.73,14.73,0,0,0-27.43,4.66A12.62,12.62,0,0,0,523.83,158.93Z"/><path class="cls-10" d="M387.9,469.14c3.13,0,2.23-4,2.4-6.43-.31.68-.77,1.53-1.19.58-.62-1.39-.6-4.63.31-5.72a6.71,6.71,0,0,0-2.67-.06C385.8,457.65,387.07,469.15,387.9,469.14Z"/><path class="cls-11" d="M389.11,463.29c.42.95,1.15,1.16,1.18-.39a11.53,11.53,0,0,1,.44-2.8c.2-.68,1.18-1.06,1.18-1.06l-.14-1.22s-2.11-.17-2.35-.25C388.51,458.66,388.49,461.9,389.11,463.29Z"/><path class="cls-6" d="M498.29,318.17c-7.43,3.87-2.06,17.94,28.14,29.67,3.27,1.27,9-1.47,10.76-4.49l2.73-5.64a65.83,65.83,0,0,1-11.52-3.45C516.35,328.86,502.83,320.09,498.29,318.17Z"/><path class="cls-6" d="M532.39,346.88s27.68-9.52,32.3-15.08a2.32,2.32,0,0,0,.52-1.5c0-3.76-1.31-12.18-15.3-5.61-15.81,7.42-24.66,17.13-24.66,17.13S528.18,340,532.39,346.88Z"/><path class="cls-10" d="M446.62,358.91c-9,8.17-5.8,50.45-5.26,56.91a.81.81,0,0,1-.76.88c-6.73.4-42.31,38.65-49.21,39.73a.81.81,0,0,0-.65,1L392,462a.82.82,0,0,0,.56.57c5.47,1.5,49.92-21.62,64.62-33.47,9-7.25,23.34-56.09,30.76-71C491.42,351.21,453,353.07,446.62,358.91Z"/><path class="cls-10" d="M507.07,491.17c1.12-2.93-2.93-3.56-5.09-4.6.52.54,1.14,1.29.1,1.33-1.52.06-4.53-1.15-5.2-2.39a6.82,6.82,0,0,0-1.05,2.45C495.62,488.9,506.77,492,507.07,491.17Z"/><path class="cls-11" d="M502.08,487.9c1,0,1.5-.65.07-1.25a11.17,11.17,0,0,1-2.44-1.44,2.12,2.12,0,0,1-.55-1.48l-1.19-.32s-.94,1.9-1.09,2.1C497.55,486.75,500.56,488,502.08,487.9Z"/><path class="cls-7" d="M442.18,378.44c2,13,35.7,42.78,35.7,42.78l19.79,62.06a1.28,1.28,0,0,0,1.65,1.44l2.84-.92a1.26,1.26,0,0,0,.68-.52c3-4.59-2.16-51.08-5.51-71.54-1.19-7.29-19.14-42.38-19.14-42.38s.83-14-.54-15.77c-3.41-.37-13.23-10.1-24.19-3.39C442.81,356.72,441.28,372.5,442.18,378.44Z"/><path class="cls-6" d="M477.48,311.2c4.82.24,16,4.95,17.14,5.4,4.83,1.88,8.52,3.25,8.67,10.7.08,4.3-3.13,8.06-4.15,10.36a230.26,230.26,0,0,1-12.58,23.42,96.59,96.59,0,0,1-14.7-4.91c-13.21-5.46-15.94-7.06-15.94-7.06s2-9.2,9.59-29.83C466,318,471.81,310.9,477.48,311.2Z"/><path class="cls-10" d="M471.86,356.17l8.35,17.2,2.9-13.21S474.77,357.66,471.86,356.17Z"/><path class="cls-4" d="M478.23,310.57c2,.1,10.66,3.9,13.64,4.9,1.48.49-2,12.46-5.08,20.66a49.69,49.69,0,0,1-14.12,20.4l-16.75-7.42s2-9.2,9.59-29.83C466,318,472.56,310.28,478.23,310.57Z"/><path class="cls-5" d="M563,323.19,442.47,270.41a17.18,17.18,0,0,1-8.84-22.62l16.08-36.72a17.18,17.18,0,0,1,22.62-8.85L592.86,255a17.17,17.17,0,0,1,8.84,22.62l-16.08,36.73A17.18,17.18,0,0,1,563,323.19Z"/><path class="cls-10" d="M600.68,280l-152-66.55,1-2.33a17.18,17.18,0,0,1,22.62-8.85L592.86,255a17.17,17.17,0,0,1,8.84,22.62Z"/><path class="cls-6" d="M557.46,244.63a.66.66,0,0,1-.3-.07.74.74,0,0,1-.38-1l1.19-2.7a.74.74,0,1,1,1.35.59l-1.19,2.7A.74.74,0,0,1,557.46,244.63Z"/><path class="cls-6" d="M533.74,298.8a.8.8,0,0,1-.3-.06.74.74,0,0,1-.38-1l2.37-5.42a.75.75,0,0,1,1-.38.74.74,0,0,1,.38,1l-2.38,5.42A.73.73,0,0,1,533.74,298.8ZM538.48,288a.59.59,0,0,1-.29-.07.72.72,0,0,1-.38-1l2.37-5.41a.73.73,0,0,1,1-.39.75.75,0,0,1,.38,1l-2.37,5.41A.74.74,0,0,1,538.48,288Zm4.75-10.84a.8.8,0,0,1-.3-.06.74.74,0,0,1-.38-1l2.37-5.42a.74.74,0,0,1,1-.38.73.73,0,0,1,.37,1l-2.37,5.42A.73.73,0,0,1,543.23,277.13ZM548,266.3a.66.66,0,0,1-.3-.07.73.73,0,0,1-.37-1l2.37-5.42a.74.74,0,0,1,1-.38.75.75,0,0,1,.38,1l-2.37,5.41A.76.76,0,0,1,548,266.3Zm4.74-10.84a.79.79,0,0,1-.29-.06.74.74,0,0,1-.38-1l2.37-5.42a.73.73,0,0,1,1-.38.72.72,0,0,1,.38,1L553.39,255A.73.73,0,0,1,552.71,255.46Z"/><path class="cls-6" d="M530.18,306.92a.72.72,0,0,1-.29-.06.72.72,0,0,1-.38-1l1.18-2.7a.72.72,0,0,1,1-.38.74.74,0,0,1,.38,1l-1.18,2.7A.73.73,0,0,1,530.18,306.92Z"/><rect class="cls-6" x="450.49" y="223.25" width="18.51" height="4.02" transform="translate(128.95 -165.49) rotate(23.65)"/><rect class="cls-6" x="444.47" y="237.01" width="18.51" height="4.02" transform="translate(133.97 -161.92) rotate(23.65)"/><rect class="cls-6" x="438.33" y="251.02" width="18.51" height="4.02" transform="translate(139.08 -158.29) rotate(23.65)"/><rect class="cls-6" x="483.68" y="272.19" width="18.51" height="4.02" transform="translate(151.38 -174.7) rotate(23.65)"/><rect class="cls-6" x="446.78" y="233.89" width="46.14" height="5.5" transform="translate(134.37 -168.59) rotate(23.65)"/><rect class="cls-6" x="553.22" y="270.42" width="27.5" height="5.5" transform="translate(157.17 -204.47) rotate(23.65)"/><rect class="cls-6" x="442.64" y="239.71" width="6.3" height="4.43" transform="translate(134.48 -158.5) rotate(23.65)"/><rect class="cls-6" x="487.93" y="261.01" width="6.3" height="4.43" transform="translate(146.83 -174.88) rotate(23.65)"/><rect class="cls-6" x="481.89" y="275.53" width="13.14" height="4.43" transform="matrix(0.92, 0.4, -0.4, 0.92, 152.42, -172.6)"/><rect class="cls-6" x="505.99" y="268.92" width="6.3" height="4.43" transform="translate(151.49 -181.44) rotate(23.65)"/><rect class="cls-6" x="450.98" y="244.71" width="6.04" height="3.09" transform="translate(136.9 -161.43) rotate(23.65)"/><rect class="cls-6" x="461.27" y="248.75" width="10.33" height="4.43" transform="translate(139.83 -166.02) rotate(23.65)"/><rect class="cls-6" x="436.18" y="254.89" width="10.33" height="4.43" transform="translate(140.19 -155.44) rotate(23.65)"/><rect class="cls-6" x="447.54" y="259.87" width="10.33" height="4.43" transform="translate(143.12 -159.56) rotate(23.64)"/><rect class="cls-6" x="490.64" y="255.24" width="10.33" height="4.43" transform="translate(144.9 -177.25) rotate(23.65)"/><rect class="cls-6" x="508.7" y="263.15" width="10.33" height="4.43" transform="translate(149.58 -183.83) rotate(23.65)"/><rect class="cls-6" x="473.1" y="254.39" width="6.04" height="3.09" transform="translate(142.62 -169.47) rotate(23.65)"/><rect class="cls-6" x="550.54" y="275.33" width="7.51" height="3.76" transform="translate(157.73 -199.05) rotate(23.65)"/><rect class="cls-6" x="559.38" y="280.72" width="14.22" height="4.81" transform="translate(161.11 -203.44) rotate(23.65)"/><rect class="cls-6" x="544.12" y="289.98" width="7.51" height="3.76" transform="translate(163.07 -195.25) rotate(23.65)"/><rect class="cls-6" x="553.24" y="294.73" width="14.22" height="4.81" transform="translate(166.23 -199.81) rotate(23.65)"/><rect class="cls-6" x="540.49" y="298.27" width="7.51" height="3.76" transform="translate(166.08 -193.09) rotate(23.65)"/><rect class="cls-6" x="549.77" y="302.67" width="14.22" height="4.81" transform="translate(169.12 -197.75) rotate(23.65)"/><rect class="cls-6" x="547.75" y="281.69" width="7.51" height="3.76" transform="translate(160.05 -197.4) rotate(23.65)"/><rect class="cls-6" x="556.49" y="287.88" width="19.58" height="4.81" transform="matrix(0.92, 0.4, -0.4, 0.92, 163.98, -202.76)"/><rect class="cls-10" x="585.06" y="278.49" width="15.29" height="1.22" transform="translate(161.71 -214.3) rotate(23.65)"/><rect class="cls-10" x="583.61" y="281" width="15.29" height="2.8" transform="translate(162.94 -213.46) rotate(23.65)"/><rect class="cls-10" x="582.16" y="285.14" width="15.29" height="1.15" transform="translate(164.12 -212.58) rotate(23.65)"/><rect class="cls-10" x="580.72" y="287.69" width="15.29" height="2.66" transform="translate(165.33 -211.73) rotate(23.65)"/><rect class="cls-10" x="579.27" y="291.96" width="15.29" height="0.72" transform="translate(166.54 -210.87) rotate(23.65)"/><rect class="cls-10" x="577.82" y="294.05" width="15.29" height="3.16" transform="translate(167.74 -210.01) rotate(23.65)"/><polygon class="cls-10" points="590.72 302.69 576.69 296.62 577.29 295.24 591.33 301.31 590.72 302.69"/><rect class="cls-10" x="574.93" y="300.3" width="15.29" height="3.88" transform="translate(170.15 -208.3) rotate(23.65)"/><rect class="cls-10" x="573.41" y="305.07" width="15.36" height="0.93" transform="translate(171.34 -207.42) rotate(23.65)"/><rect class="cls-10" x="572.03" y="307.7" width="15.29" height="2.3" transform="matrix(0.92, 0.4, -0.4, 0.92, 172.55, -206.57)"/><rect class="cls-10" x="570.58" y="311.82" width="15.29" height="0.68" transform="translate(173.74 -205.71) rotate(23.65)"/><rect class="cls-10" x="569.14" y="313.49" width="15.29" height="3.95" transform="translate(174.97 -204.86) rotate(23.65)"/><rect class="cls-10" x="567.69" y="317.87" width="15.29" height="1.79" transform="translate(176.16 -203.99) rotate(23.65)"/><rect class="cls-10" x="566.24" y="321.36" width="15.29" height="1.44" transform="translate(177.37 -203.14) rotate(23.65)"/><rect class="cls-6" x="477.24" y="219.76" width="41.04" height="8.58" transform="translate(131.66 -180.84) rotate(23.65)"/><rect class="cls-6" x="559.6" y="252.44" width="25.75" height="7.91" transform="translate(150.91 -208.09) rotate(23.65)"/><rect class="cls-6" x="586.05" y="260.98" width="11.84" height="7.91" transform="translate(155.98 -215.2) rotate(23.65)"/><path class="cls-4" d="M468.28,208.3a3.83,3.83,0,0,1,1.19.26c.19.16.1.77-.18.78a4.08,4.08,0,0,1-1.13-.5Z"/><path class="cls-4" d="M461.82,216a.87.87,0,0,0,.7-.12c1.23-.87,5.67-4,5.72-4s2.09.9,3.34,1.42a2.29,2.29,0,0,0,1.69,0l.11,0,0-.11a2.29,2.29,0,0,0-1.17-1.22l-3.3-1.5c-.07,0-.78-5.38-1-6.88a.8.8,0,0,0-.38-.59l-.21-.13c-.06,0-.13,0-.13.06l-.72,6.45-2.74-1.13-.24-.08-.77-.18a.66.66,0,0,1-.49-.51l-.33-1.72a.71.71,0,0,0-.31-.46l-.27-.18-.38,2.51h-.49l.33.36-1.58,2,.3.07A.73.73,0,0,0,460,210l1.49-.92a.64.64,0,0,1,.7,0l.65.44.23.13,2.69,1.24-4.25,4.9a.08.08,0,0,0,0,.14Z"/><path class="cls-4" d="M466.15,213.16a4.13,4.13,0,0,0,1,.7c.25,0,.64-.46.46-.67a4.27,4.27,0,0,0-1.14-.49Z"/><path class="cls-4" d="M483.11,313.13c-3.14,7.1-16.67,7.79-37.78-10.28-2.28-2-3.14-7.3-1.13-10.11l4-4.78s2.92,5.43,6.41,8.08C463.64,302.91,479.8,310.49,483.11,313.13Z"/><path class="cls-4" d="M444.36,301.33s-13.78-23.77-13.64-31a2.33,2.33,0,0,1,.58-1.48c2.45-2.85,8.95-8.36,15.25,5.75,7.13,15.94,7.49,29.07,7.49,29.07S452.06,298.84,444.36,301.33Z"/><path class="cls-11" d="M434.14,267.64a.4.4,0,0,1-.46.1c-.92-.36-4-1.64-5-2.56a6.93,6.93,0,0,1-1.87-4.23c-.12-1.11.35-.66,1.1,0,.51.43,1.83,1.72,2.38,2.23S436.38,265.13,434.14,267.64Z"/><path class="cls-11" d="M432.05,264c0-.43-1.13-1.65-.3-2.06s2.79,3.79,2.63,3.93S432.05,264,432.05,264Z"/><path class="cls-11" d="M561.83,324.4a.41.41,0,0,0,.26.39c.91.37,4,1.58,5.36,1.56a6.91,6.91,0,0,0,4.27-1.77c.85-.71.2-.72-.79-.77-.66,0-2.51,0-3.26,0S561.93,321,561.83,324.4Z"/><path class="cls-11" d="M565.86,323.18c.32-.28,2-.41,1.64-1.27s-4.63.82-4.61,1A14.29,14.29,0,0,0,565.86,323.18Z"/><path class="cls-12" d="M490.25,309.63s-3.84-6.63-4.61-10.69-2.19-7.57.56-7.75,10.59-.55,12.48-8c.26-1-.25-2.95-.82-4.44a.44.44,0,0,1,.63-.54c2.12,1.18,6.58,4.14,7.9,8.77,1.75,6.16-.08,10.62-1,13.35-.51,1.52-4.21,8-4.21,8Z"/><path class="cls-11" d="M491.54,307.42s-3.19,7.39-2.84,8.4,2.17,2.67,3.89,1.06,2.25-8.64,2.25-8.64Z"/><path class="cls-13" d="M492.12,304.94s-2.71,7.39-2.91,8.35c-.16.74,3.93,2.28,4.43,1.4,1.1-1.94,1.78-8.93,1.78-8.93Z"/><path class="cls-11" d="M501.32,309.73c.33-.71.24-3.42.09-5.67a3.33,3.33,0,0,0-3.63-3.11c-2.89.26-6.08.72-6.93,1.32-1.33.94-1.29,2.89-1.3,4.35a10.62,10.62,0,0,0,1.42,5.25,6.76,6.76,0,0,0,4.53,1.94C499.47,313.61,500.57,312.55,501.32,309.73Z"/><path class="cls-14" d="M489.81,308.84a27.9,27.9,0,0,1-4.53-8.89,41.17,41.17,0,0,1-1-4.9,19.87,19.87,0,0,1-.3-2.58,1.81,1.81,0,0,1,.24-1,2.19,2.19,0,0,1,.63-.59l.15-.12a.94.94,0,0,1,.31-.15,1.93,1.93,0,0,1,.43-.11,6.2,6.2,0,0,1,.69-.07,24.61,24.61,0,0,0,4.79-.48,8.83,8.83,0,0,0,4.08-2.05,11.79,11.79,0,0,0,1.53-1.8,12.84,12.84,0,0,0,1.26-2.05,5,5,0,0,0,.61-2.25,8.93,8.93,0,0,0-.55-2.37,7.17,7.17,0,0,1,.93,2.34,5.44,5.44,0,0,1-.33,2.56,13.53,13.53,0,0,1-1.15,2.28,12.12,12.12,0,0,1-1.51,2.09,9.34,9.34,0,0,1-4.53,2.6,24,24,0,0,1-5,.6c-.39,0-.79.06-.78.13-.22.15-.36.27-.3.21s0,.07,0,.22c0,.69.15,1.55.24,2.35.22,1.64.43,3.26.76,4.83a32.11,32.11,0,0,0,1.43,4.66A37.73,37.73,0,0,0,489.81,308.84Z"/><path class="cls-4" d="M267.88,212.16h.06l.09-.42a7.74,7.74,0,0,1,5.27,3.94,7.15,7.15,0,0,1-4.23,10.65,7.79,7.79,0,0,1-4.45.15,6.9,6.9,0,0,1-5.14-6.53,7,7,0,0,1,8.4-7.79Z"/><path class="cls-4" d="M282.74,226.3a4.7,4.7,0,1,1,.21,9.4,4.75,4.75,0,0,1-1.51-.19,4.39,4.39,0,0,1-2.67-1.93,5,5,0,0,1,4-7.28Z"/><path class="cls-4" d="M213.93,123.45a46.79,46.79,0,0,0-5.15,6,49.62,49.62,0,0,0-6.24,44.93,48,48,0,0,0,11,17.3c-13-9.67-20.33-24.94-17.17-42.15,3.78-20.6,21.92-44.17,44.64-43.74a.4.4,0,0,0,0-.79c-21-.71-38.56,18.27-44.88,36.86-7.32,21.51.74,43,20.2,54.65a54.91,54.91,0,0,0,8.81,4.26c19.73,11.76,46.64,12.69,64.29-2.26C344.33,152,260.71,77.23,213.93,123.45Z"/><path class="cls-4" d="M310.61,155.36c-.11-.63-1.07-.45-1.08.15-.42,14.64-4.32,26.4-13.33,38-.44.57.26,1.33.82.81C307.32,184.9,312.93,169.21,310.61,155.36Z"/><path class="cls-6" d="M221.38,151.72l-3.31,0a1.27,1.27,0,0,1-1.27-1.28h0a1.27,1.27,0,0,1,1.28-1.27l3.32,0Z"/><path class="cls-6" d="M278.61,178l-53.6-.36a2.72,2.72,0,0,1-2.71-2.74l.21-30.45a1.67,1.67,0,0,1,1.68-1.66l26.5.18.09-1.55a2,2,0,0,1,2.05-1.89l26.43.43a2,2,0,0,1,2,2l.11,33.3A2.72,2.72,0,0,1,278.61,178Z"/><polygon class="cls-7" points="281.24 173.95 222.31 173.97 222.46 152.18 281.28 152.31 281.24 173.95"/><path class="cls-5" d="M237.87,152.19a2.21,2.21,0,1,1-2.19-2.22A2.2,2.2,0,0,1,237.87,152.19Z"/><path class="cls-6" d="M237,152.18a1.31,1.31,0,0,1-1.32,1.31,1.32,1.32,0,1,1,0-2.63A1.31,1.31,0,0,1,237,152.18Z"/><path class="cls-10" d="M244.36,150l-4.12,0a2.38,2.38,0,0,1-2.37-2.4h0a2.39,2.39,0,0,1,2.4-2.38l4.12,0a2.39,2.39,0,0,1,2.37,2.41h0A2.38,2.38,0,0,1,244.36,150Z"/><path class="cls-10" d="M222.44,155.07h0a2.42,2.42,0,0,1-2.4-2.43l0-2.67a2.41,2.41,0,0,1,2.43-2.39h0Z"/><path class="cls-5" d="M256,143.25a2,2,0,1,1-2-2A2,2,0,0,1,256,143.25Z"/><path class="cls-10" d="M266.58,160.08a11.77,11.77,0,1,1-11.69-11.85A11.76,11.76,0,0,1,266.58,160.08Z"/><path class="cls-10" d="M263.82,160.06a9,9,0,1,1-8.94-9.07A9,9,0,0,1,263.82,160.06Z"/><path class="cls-6" d="M259.74,160a4.93,4.93,0,1,1-4.89-5A4.93,4.93,0,0,1,259.74,160Z"/><path class="cls-10" d="M256.39,160a1.58,1.58,0,1,1-1.56-1.59A1.57,1.57,0,0,1,256.39,160Z"/><path class="cls-7" d="M248.72,142.94l-8.11-.05h0a2,2,0,0,1,2-2l4.11,0a2,2,0,0,1,2,2Z"/><path class="cls-10" d="M237.9,142.87l-12.53-.09h0a1.16,1.16,0,0,1,1.16-1.14l10.23.07a1.15,1.15,0,0,1,1.14,1.16Z"/><path class="cls-7" d="M235.42,141.7l-7.11,0h0a2.31,2.31,0,0,1,2.32-2.29l2.5,0a2.3,2.3,0,0,1,2.29,2.32Z"/><path class="cls-10" d="M234,139.39l-4,0h0a1,1,0,0,1,1-1h1.9a1,1,0,0,1,1,1Z"/><path class="cls-15" d="M253,158.13c-1,2-2.88,3.15-4.12,2.52s-1.43-2.79-.4-4.82,2.88-3.15,4.13-2.52S254.06,156.1,253,158.13Z"/><rect class="cls-6" x="307.66" y="349.64" width="6.93" height="89.14" transform="translate(-70.14 67.36) rotate(-11.11)"/><rect class="cls-6" x="386.65" y="349.64" width="6.93" height="89.14" transform="translate(696.93 856.21) rotate(-168.89)"/><rect class="cls-6" x="267.34" y="436.38" width="6.93" height="131.57" transform="matrix(-0.98, -0.19, 0.19, -0.98, 439.75, 1047.11)"/><path class="cls-10" d="M287.57,355.81h0a32.3,32.3,0,0,1,38.16-38.16L346.57,322a32.32,32.32,0,0,0,13.07,0l16.52-3.41a31.73,31.73,0,0,1,36.77,40.35h0a34.34,34.34,0,0,1-32.83,24.29H321.19A34.34,34.34,0,0,1,287.57,355.81Z"/><rect class="cls-6" x="384.95" y="436.38" width="6.93" height="131.57" transform="translate(-89.51 84.28) rotate(-11.11)"/><path class="cls-10" d="M384.11,443h-109a6,6,0,0,1-6-6h0a6,6,0,0,1,6-6h109a6,6,0,0,1,6,6h0A6,6,0,0,1,384.11,443Z"/><path class="cls-16" d="M341.28,293s49.64,39.17,53.5,61.84c6,35.15-26.46,36.38-35.55,31.14-19.73-11.37-19-75.5-19-75.5Z"/><path class="cls-7" d="M454.31,603.8c-.32-2.84-5.75-7.33-10.16-10.63,1.14,1.47,2.12,3.33-.45,3.15-3.76-.26-10.84-4-12.16-7.3a16.63,16.63,0,0,0-3.24,5.76C427.51,597.05,454.82,608.4,454.31,603.8Z"/><path class="cls-13" d="M443.7,596.32c2.57.18,1.59-1.68.45-3.15-2.74-2.06-4.48-3.42-5-3.88a7.67,7.67,0,0,1-1.78-3l-1.44-.88s-4,3.14-4.43,3.59C432.86,592.28,439.94,596.06,443.7,596.32Z"/><path class="cls-7" d="M513.06,599.56c-.57-2.76-13.37-4.89-17.39-4.3,1.48.28,3.93,1.22,2.85,2.8-1.58,2.32-6.87,3.35-9.72,1.92a25.56,25.56,0,0,0,3,6.25C493.11,608.36,514.41,606,513.06,599.56Z"/><path class="cls-11" d="M502.22,598.53c1.09-1.59-4.39-2.95-5.88-3.23a24.37,24.37,0,0,0-4.9,0c-1.33,0-1.91-2.08-1.91-2.08l-2.3,1.68a4.6,4.6,0,0,1,1.32,3.39,6.33,6.33,0,0,0,.25,1.68C491.65,601.41,500.64,600.84,502.22,598.53Z"/><path class="cls-17" d="M344.76,296c-5.48-6.54-31.39-11.34-56.09-7.47-12.69,2-29.15,9.72-31.62,17.7-5,16,13.64,59.24,19.22,66.24,13.46,6,62.79-4.6,69.63-7.87C345.78,364,354.85,308,344.76,296Z"/><path class="cls-10" d="M345.9,364.58s58.32,15.2,77.17,59.53,15.15,164.56,15.15,164.56l-5.29-.32S367.59,382,312,368.13Z"/><path class="cls-7" d="M312,368.13c18.74.57,68.84,45.29,94.75,75.92,44.34,52.41,84.68,151.26,84.68,151.26L488.67,597s-117.89-118.86-176-149.55c-46.08-24.35-43.37-57-36.43-75C276.27,372.45,301.09,367.8,312,368.13Z"/><path class="cls-11" d="M297.54,283.84s-.56,9.12.49,10,4.53,1.61,6.11-.9-1.47-9.9-1.47-9.9Z"/><path class="cls-13" d="M297.42,290.44a10.76,10.76,0,0,0,7.09-.79,24.71,24.71,0,0,0-1.13-4.7l-5.94,1C297.4,287.23,297.37,288.94,297.42,290.44Z"/><path class="cls-11" d="M312,261.55c-2.63-4.73-12.9-4.28-14.78-3.26-2.07,1.11-2.36,3.92-2.63,6s.35,11.2,6.92,13C313.83,280.71,312,261.55,312,261.55Z"/><path class="cls-7" d="M325.73,249.17a4.74,4.74,0,0,0,0-.85s0-.08,0-.12h0c0-.1,0-.2,0-.3a.9.9,0,0,0-.16-.45,2.17,2.17,0,0,0-.25-1.28.56.56,0,0,0-.14-.16c-.11-.64-1.1-.68-1.43-.09-3.69,6.7-12.89-1.49-18.58-.46a7.59,7.59,0,0,0-4.71,2.8,8.62,8.62,0,0,0-9.25,3.5c-3.25,5-2.36,14.63-.52,20a12.07,12.07,0,0,0,.34,1.45c.06.21.14.45.21.69a11.63,11.63,0,0,0,.19,6.94,12.5,12.5,0,0,0,7.54,7.23c2.74.89,7.8,1.16,10.48-.35s4.94-5.71,5-8.64c0-2.28-2.75-10.68-3-9.07a29.56,29.56,0,0,1-1.52,4.16c-.32.46-1.05,1.48-1.09,1.52-4,4.25-8.92.54-10.78-1.64l-.12-.15c-.49-.74-1-1.46-1.5-2.17-1-1.77-2-3.73-1.72-5.72.48-3.13,1.39-6.26,5.5-6.72a9.13,9.13,0,0,1,1,0c5,.66,9.5,4.36,14.72,3.89l.64-.09C323,262.31,325.29,255.2,325.73,249.17Z"/><path class="cls-18" d="M323.8,245.92a5,5,0,0,1-2.19,2.35,6,6,0,0,1-3.24.57,27.53,27.53,0,0,1-6.3-1.55,18.32,18.32,0,0,0-6-1.21,6.88,6.88,0,0,0-4.95,2.62.74.74,0,0,1-.76.29,8.38,8.38,0,0,0-6.77,1.35c-1.91,1.41-2.9,3.78-3.42,6.21a29.45,29.45,0,0,0-.49,7.58,37.81,37.81,0,0,0,1.19,7.6h0v0c.14.71.22,1.45.42,2.16-.28-.68-.47-1.4-.69-2.12v0a31,31,0,0,1-1.84-7.61,27.9,27.9,0,0,1,.1-7.9,16.4,16.4,0,0,1,1.19-3.88,9.11,9.11,0,0,1,2.62-3.27,9.6,9.6,0,0,1,8-1.62l-.76.29a8,8,0,0,1,6.09-3.1c2.37-.06,4.41.84,6.42,1.56a30,30,0,0,0,6,1.9,5.44,5.44,0,0,0,3-.23A5.2,5.2,0,0,0,323.8,245.92Z"/><path class="cls-16" d="M344.76,296c-3.41-4.07-14.76-7.47-28.8-8.52a107.3,107.3,0,0,1,9.83,34.33c1.44,13.75-2.24,31.5-3.27,45.19,10.07-2,20.87-1.2,23.38-2.4C345.78,364,354.85,308,344.76,296Z"/><path class="cls-17" d="M274.49,307.83c1.1,5.62.81,11.14.61,18.11l-.54,18.89c-.19,6.78,1.05,15.53-.63,22.14,0,0-10.15,39.85-23.91,22-9-11.62-7.05-30.55-4.82-44,3-17.82,4.49-30.65,15.6-45.06a3.11,3.11,0,0,1,1.84-1.39c1.06-.15,6.43-.72,7,.16C272.15,302.28,273.67,303.58,274.49,307.83Z"/><path class="cls-17" d="M259.05,361.65l38.37-41.81a6.46,6.46,0,0,1,6.9-1.76c5.88,2,16.13,6.36,17.19,11.89,4.28,22.1-35.45,62.69-57.93,63.88C240.73,395.06,259.05,361.65,259.05,361.65Z"/><path class="cls-11" d="M307.5,318.94s3.24-6.53,5.12-7.51,4.47,2.76,4.47,2.76Z"/><path class="cls-10" d="M320.07,310.62l-2.74,3.66-21-15.68a2.27,2.27,0,0,1-.46-3.19h0a2.27,2.27,0,0,1,3.19-.46Z"/><path class="cls-19" d="M296.5,294.58l-1.37,1.84s-3.53-1.62-3.69-2.76a2.31,2.31,0,0,1,1.37-1.83C294,291.66,296.5,294.58,296.5,294.58Z"/><path class="cls-19" d="M305.59,305.51l-.85,1.13s-9-4.94-10.29-7.68c-.15-.32.85-1.13.85-1.13Z"/><path class="cls-11" d="M307.5,318.94s7.59-6.57,14-8.94,8,.78,7,3.6c0,0,2.53,4.52.3,8.84-2,3.9-13.84,5-16.74,4.86-1.84-.09-5.92-1.35-6.67-3.78C305,322.11,307.5,318.94,307.5,318.94Z"/><path class="cls-16" d="M321.51,330a24.52,24.52,0,0,1-.4,11.54,53.36,53.36,0,0,1-4.38,10.81A89,89,0,0,1,303,371a96.63,96.63,0,0,1-17.81,14.9c-6.5,4.09-13.78,7.76-21.58,7.91a34.72,34.72,0,0,0,10.82-3.53,65.74,65.74,0,0,0,9.75-5.88,118.62,118.62,0,0,0,17.11-15,105.74,105.74,0,0,0,13.9-18A52.21,52.21,0,0,0,320,341.18,25.83,25.83,0,0,0,321.51,330Z"/><path class="cls-16" d="M259.05,361.65c3.26-4.28,6.72-8.38,10.2-12.45s7.07-8.06,10.67-12,7.29-7.85,11.07-11.66l5.67-5.7a6.76,6.76,0,0,1,7.67-1.73,6.4,6.4,0,0,0-6.82,2.51l-5.19,6.14c-3.47,4.1-7.07,8.06-10.67,12s-7.29,7.85-11.07,11.66S263,358,259.05,361.65Z"/><polygon class="cls-4" points="337.27 305.71 320.96 376.29 365.23 380.58 383.08 311.29 337.27 305.71"/><path class="cls-16" d="M332.84,363.84c3.07,17.1,35.53,22.36,43.31,23.5,14.83,2.16,19.7-10,20.17-19.23.14-2.81-2.16-20.8-3.79-22.42-5.35-5.31-14.28,6.21-21.42,3.3C348.91,339.94,327.18,332.3,332.84,363.84Z"/><path class="cls-11" d="M342.51,357.43a2.25,2.25,0,0,0,.37-1.88c-.54-2.24-1.9-7.54-3.07-9.61-1.51-2.64-8.73-8.06-10.37-7.67s1.22,3.64,1.22,3.64-2.93-3.69-4.78-2.64-.9,3.28-.9,3.28a37.35,37.35,0,0,0,1.42,5.64,30,30,0,0,0,3.28,5.64,23.1,23.1,0,0,0,3.6,2.66c2.05,1.26,6.49,3.93,6.89,3.75A17.82,17.82,0,0,0,342.51,357.43Z"/><path class="cls-4" d="M64,239.54a34.35,34.35,0,0,0-2.28,5.21,38,38,0,0,0,4.59,32.89,35.46,35.46,0,0,0,10.8,10.17,31.64,31.64,0,0,1-19.78-26.57C55.84,246,63.42,226,78.77,222.05c.34-.09.19-.65-.16-.57-14.24,3.41-22.33,20.08-22.94,34.38-.71,16.56,8.9,30.24,24.25,34.84a38.45,38.45,0,0,0,6.76,1.38c15.55,4.63,33.81.28,42.74-13.56C157.2,235.48,86.39,198.2,64,239.54Z"/><path class="cls-4" d="M135.19,244.1c-.2-.42-.8-.12-.7.3,2.59,10.42,2.26,19.46-1.51,29.34-.19.49.43.9.7.43A34,34,0,0,0,135.19,244.1Z"/><path class="cls-4" d="M108.41,286s10,19,27,14c0,0-14,2-11-18C124.41,282,118.41,278,108.41,286Z"/><polygon class="cls-10" points="110.3 244.51 84.71 240.81 83.29 233.22 114.18 235.87 110.3 244.51"/><path class="cls-11" d="M89,240.59c2.79-4.15,12.21-2.94,13.87-1.86,1.81,1.18,1.86,3.79,2,5.73s-1.18,10.27-7.37,11.43C85.81,258.07,89,240.59,89,240.59Z"/><path class="cls-7" d="M105.49,245.59c-.1-2-.37-5.92-2.08-7s-12-2.48-15.06,2a30.68,30.68,0,0,0-.39,3.49A58.46,58.46,0,0,1,105.49,245.59Z"/><path class="cls-10" d="M103.08,254.38s7.44,5.24,10.68,10.65S117,274.3,117,274.3s-19.35,9.51-38.58,1c0,0,2.67-15.48,10-20.89a9.57,9.57,0,0,0,7.19,3.31A9.28,9.28,0,0,0,103.08,254.38Z"/><path class="cls-10" d="M87.77,249.72a2.54,2.54,0,0,0,3-1.84,2.79,2.79,0,0,0,0-.7l.06,0a1.87,1.87,0,0,1,2.7.56.2.2,0,0,0,.08.08,2.7,2.7,0,0,0,2,2.31,2.55,2.55,0,0,0,3-1.84,2.41,2.41,0,0,0-1.44-2.79.15.15,0,0,0-.12-.11c-1.33-.24-3.16.2-3.46,1.73a.22.22,0,0,1,0,.08,2.29,2.29,0,0,0-2.91-.4,2.4,2.4,0,0,0-1.43-1.67.13.13,0,0,0-.12-.1c-1.32-.25-3.15.19-3.45,1.73A2.66,2.66,0,0,0,87.77,249.72ZM94,247.41c.08-1.38,1.62-1.86,2.79-1.72l.08.05c2.5.71,1.48,4.32-1,4A2.27,2.27,0,0,1,94,247.41ZM86.09,247c.08-1.37,1.62-1.86,2.79-1.72a.19.19,0,0,0,.09.05c2.49.71,1.47,4.33-1,4A2.29,2.29,0,0,1,86.09,247Z"/><rect class="cls-6" x="174.38" y="349.88" width="4.74" height="61.05" transform="translate(276.86 787.75) rotate(-168.89)"/><rect class="cls-6" x="120.28" y="349.88" width="4.74" height="61.05" transform="translate(-71.02 30.77) rotate(-11.11)"/><rect class="cls-6" x="201.99" y="409.29" width="4.74" height="90.11" transform="translate(-83.74 47.91) rotate(-11.11)"/><path class="cls-10" d="M192.88,354.11h0A22.11,22.11,0,0,0,166.75,328l-14.28,2.95a22.11,22.11,0,0,1-8.95,0l-11.31-2.34A21.73,21.73,0,0,0,107,356.23h0a23.5,23.5,0,0,0,22.48,16.63h40.35A23.51,23.51,0,0,0,192.88,354.11Z"/><rect class="cls-6" x="121.45" y="409.29" width="4.74" height="90.11" transform="matrix(-0.98, -0.19, 0.19, -0.98, 157.74, 924.05)"/><path class="cls-10" d="M126.77,413.79h74.65a4.12,4.12,0,0,0,4.11-4.11h0a4.12,4.12,0,0,0-4.11-4.11H126.77a4.12,4.12,0,0,0-4.12,4.11h0A4.12,4.12,0,0,0,126.77,413.79Z"/><path class="cls-7" d="M156.58,302.49s-8-1.93-10.12-7.31,3.83-12.33,11.1-13,17.56.73,19.62,10.29-9.13,13.53-13.6,13.42A9.61,9.61,0,0,1,156.58,302.49Z"/><path class="cls-18" d="M175.12,293.45c-2.06-9.57-12.34-10.93-19.61-10.3a13,13,0,0,0-3.24.71,13.36,13.36,0,0,1,5.29-1.64c7.28-.63,17.56.73,19.62,10.29,1.42,6.62-3.46,10.54-8.09,12.31C173,302.76,176.33,299.08,175.12,293.45Z"/><path class="cls-19" d="M134.15,318.71s-13.36,6-24,30.47,19.43,31.3,29.4,27.77S134.15,318.71,134.15,318.71Z"/><path class="cls-7" d="M191.77,325.5c6.49,10.86-7.15,43.38-6.89,46.15-8.17,3.64-44.46,1.16-48.62-.83,0-.14-2.17-11.48-3.83-24.13-1.74-13.26-4.79-25.27,1.72-28C164.74,306,187.2,317.84,191.77,325.5Z"/><path class="cls-10" d="M134.15,318.71A71.26,71.26,0,0,1,155,313.36c-.75,4.08-2.62,16.15-3.14,37.2-.17,7.19-.5,14.9-.88,22.33-7.24-.54-13.15-1.34-14.68-2.07,0-.14-2.17-11.48-3.83-24.13C130.69,333.43,127.64,321.42,134.15,318.71Z"/><path class="cls-10" d="M156.58,302.49s-8-1.93-10.12-7.31,3.83-12.33,11.1-13c.87-.08,1.79-.12,2.72-.13-1.78,2.22-4.5,6.11-3.85,8.42.95,3.38,8.4,2.64,10.42,5.06,1.59,1.9,2.51,6-.37,10a12.66,12.66,0,0,1-2.9.33A9.61,9.61,0,0,1,156.58,302.49Z"/><path class="cls-11" d="M165.5,307.4s1.16,9.35.14,10.29-4.56,1.94-6.35-.54.87-10.28.87-10.28Z"/><path class="cls-13" d="M166,314.19a11.15,11.15,0,0,1-7.35-.36,25.29,25.29,0,0,1,.87-4.91l6.17.62C165.86,310.88,166,312.64,166,314.19Z"/><path class="cls-11" d="M155.6,299c2.3-3.43,10.07-2.43,11.43-1.54s1.55,3.13,1.61,4.72-1,8.48-6.07,9.43C153,313.42,155.6,299,155.6,299Z"/><path class="cls-7" d="M99.64,532.21c1.91.32,6.66-8.28,7.29-11-.55.88-1.76,2.21-2.51,1.12-1.08-1.59-.42-5.23,1.21-6.69a18,18,0,0,0-4.74.34C99.2,516.31,95.17,531.45,99.64,532.21Z"/><path class="cls-11" d="M103.2,524.58c.75,1.09,3-2.07,3.53-3A17.27,17.27,0,0,0,108,518.5a2.72,2.72,0,0,1,1.35-1.26l0-1.33a3.11,3.11,0,0,1-2.48,0,4.45,4.45,0,0,0-1.14-.26C104,517.1,102.12,523,103.2,524.58Z"/><path class="cls-10" d="M82.29,516c-.67-1.75,6.45-8.22,8.91-9.34-.73.69-1.76,2.1-.59,2.6,1.72.72,5-.61,6.13-2.43a17.36,17.36,0,0,1,.59,4.56C97.34,513.09,83.87,520.13,82.29,516Z"/><path class="cls-13" d="M90.84,506.94a25,25,0,0,1,3.16-2c-.1-.83-.23-1.78-.37-2.81l2.42-.42a17.17,17.17,0,0,0,.22,4.14,4.1,4.1,0,0,1,.47,1c-1.08,1.82-6.31,4.74-8,4C87.54,510.37,90.11,507.64,90.84,506.94Z"/><path class="cls-6" d="M97.32,504.18s6.7-52.46,6.21-69.73c-.13-4.58-1.71-15-1.71-15s24.43,3.94,42.26-3.18c16.81-6.71,23.48-18.69,19.46-38.49-14.5.3-21.34-4.31-30.71,0-23.06,4.86-53.33,4.16-57.4,28-2.27,13.33,17.67,98.4,17.67,98.4Z"/><rect class="cls-4" x="118.31" y="335.72" width="20.5" height="29.06" rx="7.34" transform="translate(305.73 678.61) rotate(171.81)"/><path class="cls-6" d="M126.26,346.35a1.73,1.73,0,1,0,1.46-2A1.71,1.71,0,0,0,126.26,346.35Z"/><path class="cls-4" d="M155.22,305.15a2.84,2.84,0,0,0,3.24-2.19,3.5,3.5,0,0,0,0-.79l.06,0a2.07,2.07,0,0,1,3,.48.14.14,0,0,0,.09.08,3,3,0,0,0,2.38,2.46,2.82,2.82,0,0,0,3.23-2.19,2.66,2.66,0,0,0-1.73-3,.15.15,0,0,0-.14-.11c-1.48-.21-3.49.37-3.75,2.09a.22.22,0,0,1,0,.08,2.55,2.55,0,0,0-3.25-.3,2.64,2.64,0,0,0-1.67-1.77.15.15,0,0,0-.14-.11c-1.48-.21-3.49.37-3.75,2.09A3,3,0,0,0,155.22,305.15Zm6.83-2.88c0-1.53,1.71-2.14,3-2l.1,0c2.8.67,1.85,4.73-.89,4.49A2.54,2.54,0,0,1,162.05,302.27Zm-8.82,0c0-1.53,1.71-2.14,3-2.05a.19.19,0,0,0,.09.05c2.8.67,1.85,4.73-.89,4.49A2.55,2.55,0,0,1,153.23,302.26Z"/><path class="cls-6" d="M181.61,375.05a14.83,14.83,0,0,1,7.55,5.85c8.4,13.11-5.14,57.2-12.65,70.54-17.82,31.63-65.8,67.06-65.8,67.06l-3.06-1.67c9.91-10.33,40-41.91,54.71-60C176.1,440.06,180.38,394.82,181.61,375.05Z"/><path class="cls-5" d="M138.37,443.85C143.47,429.11,155,376,155,376s15.76-5,26.65-.92c-1.23,19.77-5.51,65-19.25,81.83-14.73,18-44.8,49.62-54.71,60l-3.26-1.78S131.31,464.22,138.37,443.85Z"/><path class="cls-19" d="M196.08,380.79c-16.32,16.9-44.81,8.15-57.52-2.58-7.68-6.48,1.41-19,1.41-19l42.46,8.91s-5.49-38.22-.12-42.8c4-3.43,6.93-2.25,9.83-.06C200.66,331.72,204.11,372.47,196.08,380.79Z"/><path class="cls-11" d="M118.2,362.52s-2.48-4.74-1.11-5.91,3.56-3.14,4.21-2.69-1,1.86-1,1.86a15.79,15.79,0,0,1,2.29-.06c.36.1-.29,1-.29,1a.93.93,0,0,1,.91.46c.36.55-1.28.85-1.79,1.49s-.15,3.68-1.11,5C120,364.21,118.82,363.86,118.2,362.52Z"/><path class="cls-11" d="M141.36,359.18s1.07-5.24-.58-6-4.29-2-4.79-1.42,1.46,1.52,1.46,1.52a15.39,15.39,0,0,0-2.22.58c-.32.19.57.9.57.9a.92.92,0,0,0-.75.69c-.19.63,1.47.46,2.13.93s1.17,3.5,2.46,4.52C140.12,361.3,141.13,360.64,141.36,359.18Z"/><path class="cls-1" d="M22,0H1.41C8.8,19.16,12.14,42.57,8.33,68.78c-1.85,13.34-10.14,29-8,42,.68,4,4.95,6.3,8.89,5.25C24.41,112.13,32.71,83.83,34.1,71,38.37,36,29.57,12.88,22,0Z"/></g></g></svg>