<svg xmlns="http://www.w3.org/2000/svg" xmlns:xlink="http://www.w3.org/1999/xlink" viewBox="0 0 2374.19 1116.77"><defs><style>.cls-1{fill:none;}.cls-2{isolation:isolate;}.cls-3{fill:#d0d0d0;}.cls-4{opacity:0.5;mix-blend-mode:multiply;}.cls-5{clip-path:url(#clip-path);}.cls-6{fill:url(#linear-gradient);}.cls-7{clip-path:url(#clip-path-2);}.cls-8{fill:url(#linear-gradient-2);}.cls-9{fill:url(#linear-gradient-3);}.cls-10{fill:url(#linear-gradient-4);}.cls-11{fill:url(#linear-gradient-5);}.cls-12{fill:url(#linear-gradient-6);}.cls-13{fill:#fff;}.cls-14{fill:url(#linear-gradient-7);}.cls-15{fill:url(#linear-gradient-8);}.cls-16{fill:url(#linear-gradient-9);}.cls-17{fill:url(#linear-gradient-10);}.cls-18{fill:url(#linear-gradient-11);}.cls-19{fill:url(#linear-gradient-12);}.cls-20{fill:url(#linear-gradient-13);}.cls-21{fill:url(#linear-gradient-14);}.cls-22{fill:url(#linear-gradient-15);}.cls-23{fill:url(#linear-gradient-16);}.cls-24{fill:url(#linear-gradient-17);}.cls-25{fill:url(#linear-gradient-18);}.cls-26{fill:url(#linear-gradient-19);}.cls-27{fill:url(#linear-gradient-20);}.cls-28{fill:url(#linear-gradient-21);}.cls-29{fill:url(#linear-gradient-22);}.cls-30{fill:url(#linear-gradient-23);}.cls-31{fill:url(#linear-gradient-24);}.cls-32{fill:url(#linear-gradient-25);}.cls-33{fill:url(#linear-gradient-26);}.cls-34{fill:url(#linear-gradient-27);}.cls-35{fill:url(#linear-gradient-28);}.cls-36{fill:url(#linear-gradient-29);}.cls-37{fill:url(#linear-gradient-30);}.cls-38{fill:url(#linear-gradient-31);}.cls-39{fill:url(#linear-gradient-32);}</style><clipPath id="clip-path"><rect class="cls-1" x="905.97" y="357.92" width="1280" height="595.64"/></clipPath><linearGradient id="linear-gradient" x1="1008.41" y1="1692.19" x2="2664.85" y2="1692.19" gradientTransform="translate(-290.66 -1129.22)" gradientUnits="userSpaceOnUse"><stop offset="0" stop-color="#d4d4d4"/><stop offset="1" stop-color="#fff"/></linearGradient><clipPath id="clip-path-2"><rect class="cls-1" x="717.76" y="10.83" width="1656.44" height="1104.29" transform="translate(3091.95 1125.95) rotate(-180)"/></clipPath><linearGradient id="linear-gradient-2" x1="9669.41" y1="7889.91" x2="9328.8" y2="6995.82" gradientTransform="translate(-8420.03 -7167.21)" gradientUnits="userSpaceOnUse"><stop offset="0" stop-color="#fff"/><stop offset="1" stop-color="#d4d4d4"/></linearGradient><linearGradient id="linear-gradient-3" x1="1883.26" y1="1494.79" x2="1946.59" y2="1431.46" gradientTransform="translate(3382.61 2255.17) rotate(180)" gradientUnits="userSpaceOnUse"><stop offset="0.01" stop-color="#fff"/><stop offset="1" stop-color="#d2d2d2"/></linearGradient><linearGradient id="linear-gradient-4" x1="2461.06" y1="1548.51" x2="2567.15" y2="1442.42" gradientTransform="translate(3382.61 2255.17) rotate(180)" xlink:href="#linear-gradient"/><linearGradient id="linear-gradient-5" x1="-359.85" y1="3978.32" x2="-129.84" y2="3978.32" gradientTransform="matrix(-0.63, -0.37, -0.37, -0.63, 2956.67, 2681.1)" xlink:href="#linear-gradient-3"/><linearGradient id="linear-gradient-6" x1="1694.69" y1="1599.53" x2="1434.06" y2="1842.49" gradientTransform="matrix(-1.16, 0.16, 0.16, -1.16, 3603.15, 2034.62)" xlink:href="#linear-gradient-3"/><linearGradient id="linear-gradient-7" x1="1661.98" y1="1837.13" x2="1696.82" y2="1837.13" xlink:href="#linear-gradient-3"/><linearGradient id="linear-gradient-8" x1="2019.85" y1="1356.01" x2="2037.27" y2="1356.01" xlink:href="#linear-gradient-3"/><linearGradient id="linear-gradient-9" x1="2259.11" y1="1756.32" x2="2276.53" y2="1756.32" xlink:href="#linear-gradient-3"/><linearGradient id="linear-gradient-10" x1="1083.1" y1="1595.43" x2="1137.25" y2="1595.43" xlink:href="#linear-gradient-3"/><linearGradient id="linear-gradient-11" x1="2095.2" y1="1916.09" x2="2248.73" y2="1916.09" xlink:href="#linear-gradient-3"/><linearGradient id="linear-gradient-12" x1="1474.59" y1="1340.75" x2="1628.12" y2="1340.75" xlink:href="#linear-gradient-3"/><linearGradient id="linear-gradient-13" x1="1905.21" y1="2090.57" x2="2097.36" y2="2333.52" gradientTransform="translate(3382.61 2255.17) rotate(180)" xlink:href="#linear-gradient-2"/><linearGradient id="linear-gradient-14" x1="2260.25" y1="1983.1" x2="2419.27" y2="2327.64" gradientTransform="translate(3382.61 2255.17) rotate(180)" xlink:href="#linear-gradient-2"/><linearGradient id="linear-gradient-15" x1="1092.7" y1="1689.53" x2="1207.88" y2="1689.53" gradientTransform="translate(3382.61 2255.17) rotate(180)" xlink:href="#linear-gradient"/><linearGradient id="linear-gradient-16" x1="1445.73" y1="1530.06" x2="1200.59" y2="1797.28" gradientTransform="matrix(-1.03, 0.03, 0.03, -1.03, 3392.77, 2245)" xlink:href="#linear-gradient-2"/><linearGradient id="linear-gradient-17" x1="4645.15" y1="3667.33" x2="4391.72" y2="3900.25" gradientTransform="matrix(-1.57, -0.57, -0.57, -1.57, 10158.72, 9031.27)" xlink:href="#linear-gradient-3"/><linearGradient id="linear-gradient-18" x1="1915.81" y1="833.91" x2="1615.44" y2="1109.99" gradientTransform="matrix(-0.91, 0.09, 0.09, -0.91, 2324.49, 1197.05)" xlink:href="#linear-gradient"/><linearGradient id="linear-gradient-19" x1="1624.79" y1="2067.22" x2="1576.57" y2="2108.81" gradientTransform="translate(3382.61 2255.17) rotate(180)" xlink:href="#linear-gradient"/><linearGradient id="linear-gradient-20" x1="2343.98" y1="1609.85" x2="2295.76" y2="1651.44" xlink:href="#linear-gradient-3"/><linearGradient id="linear-gradient-21" x1="1426.83" y1="1679.7" x2="1486.7" y2="1679.7" xlink:href="#linear-gradient-3"/><linearGradient id="linear-gradient-22" x1="1507.69" y1="1428.85" x2="1371.58" y2="1071.55" gradientTransform="translate(3382.61 2255.17) rotate(180)" xlink:href="#linear-gradient-2"/><linearGradient id="linear-gradient-23" x1="1474.2" y1="1281.01" x2="1423.16" y2="1093.85" gradientTransform="translate(3382.61 2255.17) rotate(180)" xlink:href="#linear-gradient-2"/><linearGradient id="linear-gradient-24" x1="1212.96" y1="2218.27" x2="1387.44" y2="1858.27" gradientTransform="translate(3382.61 2255.17) rotate(180)" xlink:href="#linear-gradient"/><linearGradient id="linear-gradient-25" x1="1220.98" y1="2306.9" x2="1393.25" y2="2024.21" gradientTransform="translate(3382.61 2255.17) rotate(180)" xlink:href="#linear-gradient"/><linearGradient id="linear-gradient-26" x1="2325.61" y1="1491" x2="2354.69" y2="1491" xlink:href="#linear-gradient-3"/><linearGradient id="linear-gradient-27" x1="1645.67" y1="1512.82" x2="1674.75" y2="1512.82" xlink:href="#linear-gradient-3"/><linearGradient id="linear-gradient-28" x1="2347.1" y1="1132.87" x2="2243.29" y2="1313.97" xlink:href="#linear-gradient-3"/><linearGradient id="linear-gradient-29" x1="2380.33" y1="1137.87" x2="2368.37" y2="1260.47" gradientTransform="translate(3382.61 2255.17) rotate(180)" xlink:href="#linear-gradient"/><linearGradient id="linear-gradient-30" x1="1068.06" y1="1708.59" x2="1008.06" y2="1752.43" gradientTransform="translate(3382.61 2255.17) rotate(180)" xlink:href="#linear-gradient-2"/><linearGradient id="linear-gradient-31" x1="2610.5" y1="1874.64" x2="2678.53" y2="1972.68" gradientTransform="translate(3382.61 2255.17) rotate(180)" xlink:href="#linear-gradient-2"/><linearGradient id="linear-gradient-32" x1="2666.83" y1="1285.76" x2="2524.03" y2="1305.1" gradientTransform="translate(3382.61 2255.17) rotate(180)" xlink:href="#linear-gradient"/></defs><title>text_02</title><g class="cls-2"><g id="Capa_2" data-name="Capa 2"><g id="Assets"><rect class="cls-3" x="905.97" y="357.92" width="1280" height="595.64"/><g class="cls-4"><g class="cls-5"><g id="ELEMENT"><rect id="RECTANGLE" class="cls-6" x="717.76" y="10.83" width="1656.44" height="1104.29" transform="translate(3091.95 1125.95) rotate(-180)"/><g id="ELEMENT-2" data-name="ELEMENT"><g class="cls-7"><path class="cls-8" d="M2300.74,0s86.11,469.32-646.34,366.55C1150.64,295.86,1282.06,723,921.72,891.82,570.22,1056.5,304,551.54,0,925.6V3.43Z"/><path class="cls-9" d="M1425.51,816.89l27-27a12,12,0,0,1,17,0h0a12,12,0,0,1,0,16.94l-14.75,14.75a12,12,0,0,0,0,16.94l1.19,1.19a12,12,0,0,0,16.94,0l51.52-50.77a12,12,0,0,0,0-16.94l-1.19-1.19a12,12,0,0,0-16.94,0l-8.44,8.44a12,12,0,0,1-16.94,0h0a12,12,0,0,1,0-16.94l9.81-9.81a12,12,0,0,0,0-16.94l-1.19-1.19a12,12,0,0,0-16.94,0l-65.16,64.4a12,12,0,0,0,0,16.94l1.19,1.19A12,12,0,0,0,1425.51,816.89Z"/><path class="cls-10" d="M797.86,801.34l45.26-45.26a20.05,20.05,0,0,1,28.37,0h0a20.06,20.06,0,0,1,0,28.38l-24.7,24.71a20.05,20.05,0,0,0,0,28.37l2,2a20.08,20.08,0,0,0,28.38,0l86.32-85a20.06,20.06,0,0,0,0-28.38l-2-2a20.05,20.05,0,0,0-28.37,0L919,738.27a20.05,20.05,0,0,1-28.37,0h0a20.06,20.06,0,0,1,0-28.38L907,693.45a20.06,20.06,0,0,0,0-28.38l-2-2a20.08,20.08,0,0,0-28.38,0L767.48,771a20.08,20.08,0,0,0,0,28.38l2,2A20.06,20.06,0,0,0,797.86,801.34Z"/><path class="cls-11" d="M1618.06,250l23.25-23.26a25.64,25.64,0,0,1,36.26,0h0a25.66,25.66,0,0,1,0,36.27l-23.25,23.25a25.64,25.64,0,0,1-36.26,0h0A25.63,25.63,0,0,1,1618.06,250Z"/><path class="cls-12" d="M1909,366.68,2204.6,71.12a55.36,55.36,0,0,1,78.29,0h0a55.36,55.36,0,0,1,0,78.29L1987.33,445a55.38,55.38,0,0,1-78.29,0h0A55.36,55.36,0,0,1,1909,366.68Z"/><path class="cls-13" d="M1894.44,188.39h0a3.83,3.83,0,0,1,3.83,3.83v17.61a3.84,3.84,0,0,1-3.83,3.83h-13.78a3.82,3.82,0,0,0-3.83,3.83v13.78a3.84,3.84,0,0,1-3.83,3.83h-13.78a3.82,3.82,0,0,0-3.83,3.83v13.78a3.84,3.84,0,0,1-3.83,3.83h-13.78a3.82,3.82,0,0,0-3.83,3.83v13.78a3.84,3.84,0,0,1-3.83,3.83h-13.78a3.82,3.82,0,0,0-3.83,3.83v13.78a3.84,3.84,0,0,1-3.83,3.83h-17.61a3.83,3.83,0,0,1-3.83-3.83h0a3.82,3.82,0,0,1,3.83-3.83h10a3.82,3.82,0,0,0,3.83-3.83V274.15a3.83,3.83,0,0,1,3.83-3.83h13.78a3.82,3.82,0,0,0,3.83-3.83V252.71a3.83,3.83,0,0,1,3.83-3.83h13.78a3.82,3.82,0,0,0,3.83-3.83V231.27a3.83,3.83,0,0,1,3.83-3.83h13.78a3.82,3.82,0,0,0,3.83-3.83V209.83A3.83,3.83,0,0,1,1873,206h13.78a3.82,3.82,0,0,0,3.83-3.83v-9.95A3.83,3.83,0,0,1,1894.44,188.39Z"/><path class="cls-14" d="M1702.9,400.61a17.42,17.42,0,1,1-17.11,17.73A17.45,17.45,0,0,1,1702.9,400.61Zm.47,26.77a9.35,9.35,0,1,0-9.51-9.19A9.36,9.36,0,0,0,1703.37,427.38Z"/><path class="cls-15" d="M1353.9,890.45a8.71,8.71,0,1,1-8.56,8.86A8.72,8.72,0,0,1,1353.9,890.45Zm.23,13.38a4.67,4.67,0,1,0-4.75-4.59A4.67,4.67,0,0,0,1354.13,903.83Z"/><path class="cls-16" d="M1114.63,490.14a8.71,8.71,0,1,1-8.55,8.86A8.72,8.72,0,0,1,1114.63,490.14Zm.24,13.38a4.67,4.67,0,1,0-4.76-4.59A4.68,4.68,0,0,0,1114.87,503.52Z"/><path class="cls-17" d="M2272,632.67a27.07,27.07,0,1,1-26.6,27.54A27.1,27.1,0,0,1,2272,632.67Zm.72,41.59A14.52,14.52,0,1,0,2257.91,660,14.54,14.54,0,0,0,2272.68,674.26Z"/><path class="cls-13" d="M1252.82,757.75a27.07,27.07,0,1,1-26.59,27.54A27.1,27.1,0,0,1,1252.82,757.75Zm.73,41.59a14.52,14.52,0,1,0-14.78-14.27A14.54,14.54,0,0,0,1253.55,799.34Z"/><path class="cls-13" d="M1520.42,163.51a27.07,27.07,0,1,1-26.6,27.54A27.11,27.11,0,0,1,1520.42,163.51Zm.72,41.59a14.52,14.52,0,1,0-14.77-14.27A14.54,14.54,0,0,0,1521.14,205.1Z"/><path class="cls-13" d="M1580.07,859.43a14.51,14.51,0,1,1-14.26,14.76A14.53,14.53,0,0,1,1580.07,859.43Zm.39,22.29a7.79,7.79,0,1,0-7.92-7.65A7.79,7.79,0,0,0,1580.46,881.72Z"/><path class="cls-18" d="M1209.31,262.32a76.77,76.77,0,1,1-75.42,78.09A76.85,76.85,0,0,1,1209.31,262.32Zm2,117.93a41.18,41.18,0,1,0-41.89-40.46A41.24,41.24,0,0,0,1211.36,380.25Z"/><path class="cls-19" d="M1829.92,837.66a76.76,76.76,0,1,1-75.42,78.08A76.83,76.83,0,0,1,1829.92,837.66Zm2,117.93a41.18,41.18,0,1,0-41.89-40.47A41.24,41.24,0,0,0,1832,955.59Z"/><polygon class="cls-13" points="1267.63 914.23 1287.47 934.08 1267.63 953.92 1262.02 948.32 1276.26 934.08 1262.02 919.84 1267.63 914.23"/><polygon class="cls-13" points="1243.06 914.23 1262.9 934.08 1243.06 953.92 1237.46 948.32 1251.7 934.08 1237.46 919.84 1243.06 914.23"/><polygon class="cls-13" points="1218.49 914.23 1238.34 934.08 1218.49 953.92 1212.89 948.32 1227.13 934.08 1212.89 919.84 1218.49 914.23"/><polygon class="cls-13" points="1193.93 914.23 1213.77 934.08 1193.93 953.92 1188.32 948.32 1202.57 934.08 1188.32 919.84 1193.93 914.23"/><polygon class="cls-13" points="1540.39 415.09 1560.23 434.94 1540.39 454.78 1534.78 449.18 1549.02 434.94 1534.78 420.7 1540.39 415.09"/><polygon class="cls-13" points="1515.82 415.09 1535.66 434.94 1515.82 454.78 1510.22 449.18 1524.46 434.94 1510.22 420.7 1515.82 415.09"/><polygon class="cls-13" points="1491.25 415.09 1511.1 434.94 1491.25 454.78 1485.65 449.18 1499.89 434.94 1485.65 420.7 1491.25 415.09"/><polygon class="cls-13" points="1466.69 415.09 1486.53 434.94 1466.69 454.78 1461.08 449.18 1475.33 434.94 1461.08 420.7 1466.69 415.09"/><path class="cls-20" d="M1760.87,10.86s-19.73,173-185.46,130.07c-248.75-64.39-190.49,72.84-386,63.58-181.62-8.61-180.77-193.65-180.77-193.65Z"/><path class="cls-21" d="M1362.23,10.86s6.19,93.29-97,93.29-183.45,3.38-206.46,143.35C1040,361.61,863,363,824.22,269.68s-106.46-93.33-106.46-93.33V10.83Z"/><path class="cls-22" d="M2285.93,508.05h0a4,4,0,0,1,4,4v18.27a4,4,0,0,1-4,4h-14.3a4,4,0,0,0-4,4v14.3a4,4,0,0,1-4,4h-14.3a4,4,0,0,0-4,4v14.29a4,4,0,0,1-4,4h-14.3a4,4,0,0,0-4,4V597a4,4,0,0,1-4,4h-14.3a4,4,0,0,0-4,4v14.3a4,4,0,0,1-4,4H2178.7a4,4,0,0,1-4-4h0a4,4,0,0,1,4-4H2189a4,4,0,0,0,4-4V597a4,4,0,0,1,4-4h14.29a4,4,0,0,0,4-4v-14.3a4,4,0,0,1,4-4h14.3a4,4,0,0,0,4-4v-14.3a4,4,0,0,1,4-4h14.3a4,4,0,0,0,4-4v-14.3a4,4,0,0,1,4-4H2278a4,4,0,0,0,4-4V512A4,4,0,0,1,2285.93,508.05Z"/><path class="cls-23" d="M1961.92,652.67l203.92-203.93a25.66,25.66,0,0,1,36.27,0h0a25.66,25.66,0,0,1,0,36.27L1998.18,688.93a25.64,25.64,0,0,1-36.26,0h0A25.64,25.64,0,0,1,1961.92,652.67Z"/><path class="cls-24" d="M793,567.58,917.54,443A46.28,46.28,0,0,1,983,443h0a46.29,46.29,0,0,1,0,65.45L858.43,633A46.29,46.29,0,0,1,793,633h0A46.28,46.28,0,0,1,793,567.58Z"/><path class="cls-25" d="M663.36,575.76,858.75,380.37a21.09,21.09,0,0,1,29.82,0h0a21.09,21.09,0,0,1,0,29.82L693.18,605.57a21.08,21.08,0,0,1-29.82,0h0A21.08,21.08,0,0,1,663.36,575.76Z"/><polygon class="cls-26" points="1750.72 149.76 1769.2 168.25 1750.72 186.73 1762.17 198.18 1780.65 179.7 1799.14 198.18 1810.59 186.73 1792.11 168.25 1810.59 149.76 1799.14 138.31 1780.65 156.79 1762.17 138.31 1750.72 149.76"/><polygon class="cls-27" points="1031.52 607.14 1050.01 625.62 1031.52 644.1 1042.98 655.56 1061.46 637.08 1079.94 655.56 1091.39 644.1 1072.91 625.62 1091.39 607.14 1079.94 595.69 1061.46 614.17 1042.98 595.69 1031.52 607.14"/><polygon class="cls-28" points="1895.91 593.95 1907.36 605.4 1925.84 586.92 1944.33 605.4 1955.78 593.95 1937.3 575.47 1955.78 556.99 1944.33 545.53 1925.84 564.01 1907.36 545.53 1895.91 556.99 1914.39 575.47 1895.91 593.95"/><path class="cls-29" d="M1454.77,1115.12s-34.41-187.55,258.29-146.48c201.32,28.25,148.8-142.45,292.8-209.91,140.46-65.81,246.86,136,368.33-13.5v368.52Z"/><path class="cls-30" d="M1592.74,1113.9s-5.8-141,198.74-83.94c153.41,42.79,192.46-138.3,314-138.3,89.12,0,197.76,52.71,165.51,222.24Z"/><path class="cls-31" d="M2374.19,335.49s-131.39,53.42-170.69-60.41-237.41,57.3-237.41-117.9c0-100.28-179.7-29.29-133.07-146.35h541.17Z"/><path class="cls-32" d="M1934.92,10.83c14.74,86.66,90.14,152.66,181,152.66s166.26-66,181-152.66Z"/><path class="cls-13" d="M1356.8,1050.31l5.44-5.45,5.44,5.45a3.42,3.42,0,0,0,4.84-4.84l-5.44-5.44,5.44-5.45a3.42,3.42,0,0,0-4.84-4.83l-5.44,5.44-5.44-5.44a3.42,3.42,0,0,0-4.84,4.83l5.44,5.45-5.44,5.44a3.42,3.42,0,0,0,4.84,4.84Z"/><path class="cls-13" d="M1411.1,281.11h7.7v7.7a3.42,3.42,0,0,0,6.84,0v-7.7h7.7a3.42,3.42,0,1,0,0-6.84h-7.7v-7.7a3.42,3.42,0,1,0-6.84,0v7.7h-7.7a3.42,3.42,0,1,0,0,6.84Z"/><path class="cls-33" d="M1031.34,767.58h7.7v7.7a3.42,3.42,0,0,0,6.84,0v-7.7h7.7a3.42,3.42,0,1,0,0-6.84h-7.7V753a3.42,3.42,0,0,0-6.84,0v7.7h-7.7a3.42,3.42,0,1,0,0,6.84Z"/><path class="cls-34" d="M1711.28,745.77h7.7v7.69a3.42,3.42,0,1,0,6.84,0v-7.69h7.7a3.43,3.43,0,0,0,0-6.85h-7.7v-7.69a3.42,3.42,0,1,0-6.84,0v7.69h-7.7a3.43,3.43,0,0,0,0,6.85Z"/><path class="cls-35" d="M1276.51,1115.67s6.48-98-98.28-79.51c-112.64,19.88-97.06-95.57-195.4-95.57-80.68,0-42,109.94-112.65,119.31s-54.66,56.87-54.66,56.87Z"/><path class="cls-36" d="M1125.33,1115.12a125.21,125.21,0,0,0-245.69,0Z"/><path class="cls-37" d="M2374.19,575.27V445a65.17,65.17,0,0,0,0,130.3Z"/><path class="cls-38" d="M717.76,391.22a65.18,65.18,0,0,0,0-130.34Z"/><path class="cls-39" d="M717.76,1068.76a100,100,0,0,0,0-200Z"/></g></g></g></g></g></g></g></g></svg>