<svg xmlns="http://www.w3.org/2000/svg" xmlns:xlink="http://www.w3.org/1999/xlink" viewBox="0 0 2374.19 1116.77"><defs><style>.cls-1{fill:none;}.cls-2{isolation:isolate;}.cls-3{opacity:0.5;mix-blend-mode:multiply;}.cls-4{clip-path:url(#clip-path);}.cls-5{fill:url(#linear-gradient);}.cls-6{clip-path:url(#clip-path-2);}.cls-7{fill:url(#linear-gradient-2);}.cls-8{fill:url(#linear-gradient-3);}.cls-9{fill:url(#linear-gradient-4);}.cls-10{fill:url(#linear-gradient-5);}.cls-11{fill:url(#linear-gradient-6);}.cls-12{fill:#fff;}.cls-13{fill:url(#linear-gradient-7);}.cls-14{fill:url(#linear-gradient-8);}.cls-15{fill:url(#linear-gradient-9);}.cls-16{fill:url(#linear-gradient-10);}.cls-17{fill:url(#linear-gradient-11);}.cls-18{fill:url(#linear-gradient-12);}.cls-19{fill:url(#linear-gradient-13);}.cls-20{fill:url(#linear-gradient-14);}.cls-21{fill:url(#linear-gradient-15);}.cls-22{fill:url(#linear-gradient-16);}.cls-23{fill:url(#linear-gradient-17);}.cls-24{fill:url(#linear-gradient-18);}.cls-25{fill:url(#linear-gradient-19);}.cls-26{fill:url(#linear-gradient-20);}.cls-27{fill:url(#linear-gradient-21);}.cls-28{fill:url(#linear-gradient-22);}.cls-29{fill:url(#linear-gradient-23);}.cls-30{fill:url(#linear-gradient-24);}.cls-31{fill:url(#linear-gradient-25);}.cls-32{fill:url(#linear-gradient-26);}.cls-33{fill:url(#linear-gradient-27);}.cls-34{fill:url(#linear-gradient-28);}.cls-35{fill:url(#linear-gradient-29);}.cls-36{fill:url(#linear-gradient-30);}.cls-37{fill:url(#linear-gradient-31);}.cls-38{fill:url(#linear-gradient-32);}</style><clipPath id="clip-path"><rect class="cls-1" x="188.22" y="57.92" width="1280" height="595.64"/></clipPath><linearGradient id="linear-gradient" x1="290.66" y1="-1281.01" x2="1947.09" y2="-1281.01" gradientTransform="matrix(1, 0, 0, -1, -290.66, -718.04)" gradientUnits="userSpaceOnUse"><stop offset="0" stop-color="#d4d4d4"/><stop offset="1" stop-color="#fff"/></linearGradient><clipPath id="clip-path-2"><rect class="cls-1" y="10.83" width="1656.44" height="1104.29"/></clipPath><linearGradient id="linear-gradient-2" x1="8951.65" y1="8929.82" x2="8611.04" y2="8035.73" gradientTransform="matrix(-1, 0, 0, 1, 10076.46, -8207.12)" gradientUnits="userSpaceOnUse"><stop offset="0" stop-color="#fff"/><stop offset="1" stop-color="#d4d4d4"/></linearGradient><linearGradient id="linear-gradient-3" x1="1165.5" y1="-1478.41" x2="1228.83" y2="-1541.74" gradientTransform="matrix(1, 0, 0, -1, -290.66, -718.04)" gradientUnits="userSpaceOnUse"><stop offset="0.01" stop-color="#fff"/><stop offset="1" stop-color="#d2d2d2"/></linearGradient><linearGradient id="linear-gradient-4" x1="1743.3" y1="-1424.7" x2="1849.39" y2="-1530.79" xlink:href="#linear-gradient"/><linearGradient id="linear-gradient-5" x1="1716.54" y1="-1789.02" x2="1946.54" y2="-1789.02" gradientTransform="matrix(0.63, -0.37, 0.37, -0.63, 226.84, -200.54)" xlink:href="#linear-gradient-3"/><linearGradient id="linear-gradient-6" x1="729.37" y1="-1126.1" x2="468.73" y2="-883.14" gradientTransform="matrix(1.16, 0.16, -0.16, -1.16, -551.97, -979.35)" xlink:href="#linear-gradient-3"/><linearGradient id="linear-gradient-7" x1="944.22" y1="-1136.07" x2="979.07" y2="-1136.07" xlink:href="#linear-gradient-3"/><linearGradient id="linear-gradient-8" x1="1302.09" y1="-1617.2" x2="1319.51" y2="-1617.2" xlink:href="#linear-gradient-3"/><linearGradient id="linear-gradient-9" x1="1541.35" y1="-1216.89" x2="1558.78" y2="-1216.89" xlink:href="#linear-gradient-3"/><linearGradient id="linear-gradient-10" x1="365.35" y1="-1377.78" x2="419.49" y2="-1377.78" xlink:href="#linear-gradient-3"/><linearGradient id="linear-gradient-11" x1="1377.45" y1="-1057.11" x2="1530.97" y2="-1057.11" xlink:href="#linear-gradient-3"/><linearGradient id="linear-gradient-12" x1="756.83" y1="-1632.45" x2="910.36" y2="-1632.45" xlink:href="#linear-gradient-3"/><linearGradient id="linear-gradient-13" x1="1187.46" y1="-882.63" x2="1379.6" y2="-639.69" gradientTransform="matrix(1, 0, 0, -1, -290.66, -718.04)" xlink:href="#linear-gradient-2"/><linearGradient id="linear-gradient-14" x1="1542.49" y1="-990.1" x2="1701.51" y2="-645.56" gradientTransform="matrix(1, 0, 0, -1, -290.66, -718.04)" xlink:href="#linear-gradient-2"/><linearGradient id="linear-gradient-15" x1="374.95" y1="-1283.68" x2="490.12" y2="-1283.68" xlink:href="#linear-gradient"/><linearGradient id="linear-gradient-16" x1="665.32" y1="-1380.49" x2="420.19" y2="-1113.27" gradientTransform="matrix(1.03, 0.03, -0.03, -1.03, -309.11, -736.49)" xlink:href="#linear-gradient-2"/><linearGradient id="linear-gradient-17" x1="4461.67" y1="1228.4" x2="4208.25" y2="1461.33" gradientTransform="matrix(1.57, -0.57, 0.57, -1.57, -6107.33, 5098.63)" xlink:href="#linear-gradient-3"/><linearGradient id="linear-gradient-18" x1="981.1" y1="-2356.25" x2="680.72" y2="-2080.17" gradientTransform="matrix(0.91, 0.09, -0.09, -0.91, 617.72, -1626.42)" xlink:href="#linear-gradient"/><linearGradient id="linear-gradient-19" x1="907.03" y1="-905.98" x2="858.81" y2="-864.39" xlink:href="#linear-gradient"/><linearGradient id="linear-gradient-20" x1="1626.23" y1="-1363.36" x2="1578.01" y2="-1321.76" xlink:href="#linear-gradient-3"/><linearGradient id="linear-gradient-21" x1="709.07" y1="-1293.51" x2="768.94" y2="-1293.51" xlink:href="#linear-gradient-3"/><linearGradient id="linear-gradient-22" x1="789.93" y1="-1544.35" x2="653.82" y2="-1901.65" gradientTransform="matrix(1, 0, 0, -1, -290.66, -718.04)" xlink:href="#linear-gradient-2"/><linearGradient id="linear-gradient-23" x1="756.45" y1="-1692.2" x2="705.4" y2="-1879.35" gradientTransform="matrix(1, 0, 0, -1, -290.66, -718.04)" xlink:href="#linear-gradient-2"/><linearGradient id="linear-gradient-24" x1="495.2" y1="-754.93" x2="669.68" y2="-1114.93" xlink:href="#linear-gradient"/><linearGradient id="linear-gradient-25" x1="503.22" y1="-666.3" x2="675.49" y2="-949" xlink:href="#linear-gradient"/><linearGradient id="linear-gradient-26" x1="1607.85" y1="-1482.2" x2="1636.93" y2="-1482.2" xlink:href="#linear-gradient-3"/><linearGradient id="linear-gradient-27" x1="927.91" y1="-1460.38" x2="956.99" y2="-1460.38" xlink:href="#linear-gradient-3"/><linearGradient id="linear-gradient-28" x1="1629.34" y1="-1840.34" x2="1525.54" y2="-1659.24" xlink:href="#linear-gradient-3"/><linearGradient id="linear-gradient-29" x1="1662.58" y1="-1835.33" x2="1650.62" y2="-1712.73" xlink:href="#linear-gradient"/><linearGradient id="linear-gradient-30" x1="350.3" y1="-1264.61" x2="290.31" y2="-1220.77" gradientTransform="matrix(1, 0, 0, -1, -290.66, -718.04)" xlink:href="#linear-gradient-2"/><linearGradient id="linear-gradient-31" x1="1892.74" y1="-1098.57" x2="1960.77" y2="-1000.52" gradientTransform="matrix(1, 0, 0, -1, -290.66, -718.04)" xlink:href="#linear-gradient-2"/><linearGradient id="linear-gradient-32" x1="1949.08" y1="-1687.44" x2="1806.27" y2="-1668.1" xlink:href="#linear-gradient"/></defs><title>text_03</title><g class="cls-2"><g id="Capa_2" data-name="Capa 2"><g id="Assets"><g class="cls-3"><g class="cls-4"><g id="ELEMENT"><rect id="RECTANGLE" class="cls-5" y="10.83" width="1656.44" height="1104.29"/><g id="ELEMENT-2" data-name="ELEMENT"><g class="cls-6"><path class="cls-7" d="M73.45,0s-86.1,469.32,646.34,366.55c503.77-70.69,372.34,356.45,732.69,525.27C1804,1056.5,2070.22,551.54,2374.19,925.6V3.43Z"/><path class="cls-8" d="M948.69,816.89l-27-27a12,12,0,0,0-16.94,0h0a12,12,0,0,0,0,16.94l14.75,14.75a12,12,0,0,1,0,16.94l-1.19,1.19a12,12,0,0,1-16.94,0l-51.53-50.77a12,12,0,0,1,0-16.94L851,770.8a12,12,0,0,1,16.94,0l8.45,8.44a12,12,0,0,0,16.94,0h0a12,12,0,0,0,0-16.94l-9.82-9.81a12,12,0,0,1,0-16.94l1.19-1.19a12,12,0,0,1,16.94,0l65.17,64.4a12,12,0,0,1,0,16.94l-1.19,1.19A12,12,0,0,1,948.69,816.89Z"/><path class="cls-9" d="M1576.34,801.34l-45.26-45.26a20.06,20.06,0,0,0-28.38,0h0a20.06,20.06,0,0,0,0,28.38l24.7,24.71a20.05,20.05,0,0,1,0,28.37l-2,2a20.08,20.08,0,0,1-28.38,0l-86.32-85a20.08,20.08,0,0,1,0-28.38l2-2a20.06,20.06,0,0,1,28.38,0l14.15,14.15a20.06,20.06,0,0,0,28.38,0h0a20.08,20.08,0,0,0,0-28.38l-16.45-16.44a20.08,20.08,0,0,1,0-28.38l2-2a20.07,20.07,0,0,1,28.37,0L1606.71,771a20.06,20.06,0,0,1,0,28.38l-2,2A20.05,20.05,0,0,1,1576.34,801.34Z"/><path class="cls-10" d="M756.14,250l-23.25-23.26a25.66,25.66,0,0,0-36.27,0h0a25.66,25.66,0,0,0,0,36.27l23.26,23.25a25.64,25.64,0,0,0,36.26,0h0A25.64,25.64,0,0,0,756.14,250Z"/><path class="cls-11" d="M465.15,366.68,169.59,71.12a55.35,55.35,0,0,0-78.28,0h0a55.38,55.38,0,0,0,0,78.29L386.87,445a55.36,55.36,0,0,0,78.28,0h0A55.36,55.36,0,0,0,465.15,366.68Z"/><path class="cls-12" d="M479.75,188.39h0a3.83,3.83,0,0,0-3.83,3.83v17.61a3.84,3.84,0,0,0,3.83,3.83h13.79a3.82,3.82,0,0,1,3.82,3.83v13.78a3.84,3.84,0,0,0,3.83,3.83H515a3.82,3.82,0,0,1,3.82,3.83v13.78a3.84,3.84,0,0,0,3.83,3.83h13.78a3.82,3.82,0,0,1,3.83,3.83v13.78a3.84,3.84,0,0,0,3.83,3.83h13.78a3.82,3.82,0,0,1,3.83,3.83v13.78a3.84,3.84,0,0,0,3.83,3.83h17.61a3.83,3.83,0,0,0,3.83-3.83h0a3.82,3.82,0,0,0-3.83-3.83h-10a3.82,3.82,0,0,1-3.83-3.83V274.15a3.82,3.82,0,0,0-3.83-3.83H551.73a3.82,3.82,0,0,1-3.83-3.83V252.71a3.82,3.82,0,0,0-3.83-3.83H530.29a3.82,3.82,0,0,1-3.83-3.83V231.27a3.82,3.82,0,0,0-3.83-3.83H508.85a3.82,3.82,0,0,1-3.83-3.83V209.83a3.82,3.82,0,0,0-3.83-3.83H487.41a3.83,3.83,0,0,1-3.83-3.83v-9.95A3.82,3.82,0,0,0,479.75,188.39Z"/><path class="cls-13" d="M688.4,418.34a17.42,17.42,0,1,1-17.11-17.73A17.43,17.43,0,0,1,688.4,418.34Zm-8.07-.15a9.35,9.35,0,1,0-9.51,9.19A9.35,9.35,0,0,0,680.33,418.19Z"/><path class="cls-14" d="M1028.85,899.31a8.71,8.71,0,1,1-8.55-8.86A8.72,8.72,0,0,1,1028.85,899.31Zm-4-.07a4.68,4.68,0,1,0-4.76,4.59A4.68,4.68,0,0,0,1024.82,899.24Z"/><path class="cls-15" d="M1268.12,499a8.71,8.71,0,1,1-8.56-8.86A8.73,8.73,0,0,1,1268.12,499Zm-4-.07a4.68,4.68,0,1,0-4.75,4.59A4.68,4.68,0,0,0,1264.08,498.93Z"/><path class="cls-16" d="M128.83,660.21a27.07,27.07,0,1,1-26.6-27.54A27.1,27.1,0,0,1,128.83,660.21ZM116.28,660a14.52,14.52,0,1,0-14.77,14.27A14.53,14.53,0,0,0,116.28,660Z"/><path class="cls-12" d="M1148,785.29a27.07,27.07,0,1,1-26.6-27.54A27.11,27.11,0,0,1,1148,785.29Zm-12.55-.22a14.52,14.52,0,1,0-14.77,14.27A14.53,14.53,0,0,0,1135.42,785.07Z"/><path class="cls-12" d="M880.37,191.05a27.07,27.07,0,1,1-26.6-27.54A27.1,27.1,0,0,1,880.37,191.05Zm-12.55-.22a14.52,14.52,0,1,0-14.77,14.27A14.53,14.53,0,0,0,867.82,190.83Z"/><path class="cls-12" d="M808.38,874.19a14.51,14.51,0,1,1-14.26-14.76A14.53,14.53,0,0,1,808.38,874.19Zm-6.73-.12a7.78,7.78,0,1,0-7.91,7.65A7.79,7.79,0,0,0,801.65,874.07Z"/><path class="cls-17" d="M1240.3,340.41a76.76,76.76,0,1,1-75.41-78.09A76.85,76.85,0,0,1,1240.3,340.41Zm-35.57-.62a41.18,41.18,0,1,0-41.9,40.46A41.23,41.23,0,0,0,1204.73,339.79Z"/><path class="cls-18" d="M619.69,915.74a76.76,76.76,0,1,1-75.42-78.08A76.84,76.84,0,0,1,619.69,915.74Zm-35.57-.62a41.18,41.18,0,1,0-41.9,40.47A41.23,41.23,0,0,0,584.12,915.12Z"/><polygon class="cls-12" points="1106.57 914.23 1086.72 934.08 1106.57 953.92 1112.17 948.32 1097.93 934.08 1112.17 919.84 1106.57 914.23"/><polygon class="cls-12" points="1131.13 914.23 1111.29 934.08 1131.13 953.92 1136.74 948.32 1122.49 934.08 1136.74 919.84 1131.13 914.23"/><polygon class="cls-12" points="1155.7 914.23 1135.85 934.08 1155.7 953.92 1161.3 948.32 1147.06 934.08 1161.3 919.84 1155.7 914.23"/><polygon class="cls-12" points="1180.27 914.23 1160.42 934.08 1180.27 953.92 1185.87 948.32 1171.63 934.08 1185.87 919.84 1180.27 914.23"/><polygon class="cls-12" points="833.81 415.09 813.96 434.94 833.81 454.78 839.41 449.18 825.17 434.94 839.41 420.7 833.81 415.09"/><polygon class="cls-12" points="858.37 415.09 838.53 434.94 858.37 454.78 863.98 449.18 849.74 434.94 863.98 420.7 858.37 415.09"/><polygon class="cls-12" points="882.94 415.09 863.09 434.94 882.94 454.78 888.54 449.18 874.3 434.94 888.54 420.7 882.94 415.09"/><polygon class="cls-12" points="907.51 415.09 887.66 434.94 907.51 454.78 913.11 449.18 898.87 434.94 913.11 420.7 907.51 415.09"/><path class="cls-19" d="M613.33,10.86s19.72,173,185.45,130.07c248.75-64.39,190.49,72.84,386,63.58C1366.36,195.9,1365.5,10.86,1365.5,10.86Z"/><path class="cls-20" d="M1012,10.86s-6.19,93.29,97,93.29,183.45,3.38,206.46,143.35C1334.17,361.61,1511.24,363,1550,269.68s106.47-93.33,106.47-93.33V10.83Z"/><path class="cls-21" d="M88.26,508.05h0a4,4,0,0,0-4,4v18.27a4,4,0,0,0,4,4h14.3a4,4,0,0,1,4,4v14.3a4,4,0,0,0,4,4h14.3a4,4,0,0,1,4,4v14.29a4,4,0,0,0,4,4H147a4,4,0,0,1,4,4V597a4,4,0,0,0,4,4h14.3a4,4,0,0,1,4,4v14.3a4,4,0,0,0,4,4H195.5a4,4,0,0,0,4-4h0a4,4,0,0,0-4-4H185.17a4,4,0,0,1-4-4V597a4,4,0,0,0-4-4h-14.3a4,4,0,0,1-4-4v-14.3a4,4,0,0,0-4-4H140.69a4,4,0,0,1-4-4v-14.3a4,4,0,0,0-4-4H118.45a4,4,0,0,1-4-4v-14.3a4,4,0,0,0-4-4H96.21a4,4,0,0,1-4-4V512A4,4,0,0,0,88.26,508.05Z"/><path class="cls-22" d="M412.27,652.67,208.35,448.74a25.64,25.64,0,0,0-36.26,0h0a25.64,25.64,0,0,0,0,36.27L376,688.93a25.64,25.64,0,0,0,36.26,0h0A25.64,25.64,0,0,0,412.27,652.67Z"/><path class="cls-23" d="M1581.22,567.58,1456.65,443a46.28,46.28,0,0,0-65.46,0h0a46.29,46.29,0,0,0,0,65.45L1515.76,633a46.3,46.3,0,0,0,65.46,0h0A46.3,46.3,0,0,0,1581.22,567.58Z"/><path class="cls-24" d="M1710.83,575.76,1515.44,380.37a21.08,21.08,0,0,0-29.81,0h0a21.08,21.08,0,0,0,0,29.82L1681,605.57a21.08,21.08,0,0,0,29.82,0h0A21.08,21.08,0,0,0,1710.83,575.76Z"/><polygon class="cls-25" points="623.47 149.76 604.99 168.25 623.47 186.73 612.02 198.18 593.54 179.7 575.06 198.18 563.6 186.73 582.09 168.25 563.6 149.76 575.06 138.31 593.54 156.79 612.02 138.31 623.47 149.76"/><polygon class="cls-26" points="1342.67 607.14 1324.19 625.62 1342.67 644.1 1331.22 655.56 1312.73 637.08 1294.25 655.56 1282.8 644.1 1301.28 625.62 1282.8 607.14 1294.25 595.69 1312.73 614.17 1331.22 595.69 1342.67 607.14"/><polygon class="cls-27" points="478.28 593.95 466.83 605.4 448.35 586.92 429.87 605.4 418.42 593.95 436.9 575.47 418.42 556.99 429.87 545.53 448.35 564.01 466.83 545.53 478.28 556.99 459.8 575.47 478.28 593.95"/><path class="cls-28" d="M919.42,1115.12s34.41-187.55-258.29-146.48C459.82,996.89,512.34,826.19,368.34,758.73,227.87,692.92,121.47,894.71,0,745.23v368.52Z"/><path class="cls-29" d="M781.45,1113.9s5.8-141-198.74-83.94c-153.4,42.79-192.46-138.3-314-138.3-89.12,0-197.75,52.71-165.51,222.24Z"/><path class="cls-30" d="M0,335.49s131.39,53.42,170.7-60.41,237.41,57.3,237.41-117.9c0-100.28,179.7-29.29,133.06-146.35H0Z"/><path class="cls-31" d="M439.27,10.83c-14.74,86.66-90.14,152.66-181,152.66S92,97.49,77.28,10.83Z"/><path class="cls-12" d="M1017.39,1050.31l-5.44-5.45-5.44,5.45a3.42,3.42,0,0,1-4.84-4.84l5.44-5.44-5.44-5.45a3.42,3.42,0,1,1,4.84-4.83l5.44,5.44,5.44-5.44a3.42,3.42,0,0,1,4.84,4.83l-5.44,5.45,5.44,5.44a3.42,3.42,0,0,1-4.84,4.84Z"/><path class="cls-12" d="M963.09,281.11H955.4v7.7a3.43,3.43,0,0,1-6.85,0v-7.7h-7.69a3.42,3.42,0,1,1,0-6.84h7.69v-7.7a3.43,3.43,0,0,1,6.85,0v7.7h7.69a3.42,3.42,0,0,1,0,6.84Z"/><path class="cls-32" d="M1342.85,767.58h-7.7v7.7a3.42,3.42,0,1,1-6.84,0v-7.7h-7.7a3.42,3.42,0,1,1,0-6.84h7.7V753a3.42,3.42,0,1,1,6.84,0v7.7h7.7a3.42,3.42,0,1,1,0,6.84Z"/><path class="cls-33" d="M662.91,745.77h-7.7v7.69a3.42,3.42,0,0,1-6.84,0v-7.69h-7.7a3.43,3.43,0,0,1,0-6.85h7.7v-7.69a3.42,3.42,0,1,1,6.84,0v7.69h7.7a3.43,3.43,0,0,1,0,6.85Z"/><path class="cls-34" d="M1097.68,1115.67s-6.47-98,98.29-79.51c112.63,19.88,97-95.57,195.39-95.57,80.68,0,42,109.94,112.65,119.31s54.67,56.87,54.67,56.87Z"/><path class="cls-35" d="M1248.86,1115.12a125.21,125.21,0,0,1,245.69,0Z"/><path class="cls-36" d="M0,575.27V445a65.19,65.19,0,0,1,63.4,65.15A65.18,65.18,0,0,1,0,575.27Z"/><path class="cls-37" d="M1656.44,391.22a65.18,65.18,0,0,1,0-130.34Z"/><path class="cls-38" d="M1656.44,1068.76a100,100,0,0,1,0-200Z"/></g></g></g></g></g></g></g></g></svg>