<?xml version="1.0" encoding="utf-8"?>
<!-- Generator: Adobe Illustrator 23.0.3, SVG Export Plug-In . SVG Version: 6.00 Build 0)  -->
<svg version="1.1" id="Capa_1" xmlns="http://www.w3.org/2000/svg" xmlns:xlink="http://www.w3.org/1999/xlink" x="0px" y="0px"
	 viewBox="0 0 20 225.1" style="enable-background:new 0 0 20 225.1;" xml:space="preserve">
<style type="text/css">
	.st0{fill:#CCCCCC;}
</style>
<title>alerta_mail</title>
<g>
	<g>
		<g>
			<path class="st0" d="M7,139.8c-0.2,0-0.4,0.1-0.6,0.3c-0.1,0.2-0.3,0.5-0.4,0.9c-0.1,0.5-0.3,0.8-0.4,1.1
				c-0.4,0.7-0.9,1.1-1.6,1.1c-0.3,0-0.6-0.1-0.9-0.3c-0.3-0.2-0.5-0.5-0.6-0.8c-0.2-0.4-0.2-0.8-0.2-1.2c0-0.5,0.1-0.9,0.2-1.2
				c0.2-0.4,0.4-0.6,0.7-0.8c0.3-0.2,0.6-0.3,1-0.3v1.3c-0.3,0-0.5,0.1-0.7,0.3c-0.2,0.2-0.2,0.4-0.2,0.8c0,0.3,0.1,0.6,0.2,0.7
				c0.1,0.2,0.3,0.3,0.5,0.3c0.2,0,0.4-0.1,0.5-0.3c0.1-0.2,0.3-0.5,0.4-0.9c0.2-0.7,0.5-1.3,0.8-1.6c0.3-0.3,0.7-0.5,1.2-0.5
				c0.5,0,1,0.2,1.3,0.6c0.3,0.4,0.5,1,0.5,1.7c0,0.5-0.1,0.9-0.3,1.3c-0.2,0.4-0.4,0.7-0.7,0.9c-0.3,0.2-0.7,0.3-1.1,0.3v-1.3
				c0.7,0,1-0.4,1-1.2c0-0.3-0.1-0.6-0.2-0.7C7.4,139.9,7.2,139.8,7,139.8z"/>
			<path class="st0" d="M2.3,132.6h4.2c0.7,0,1.2,0.2,1.6,0.6c0.4,0.4,0.6,1,0.6,1.8c0,0.7-0.2,1.3-0.6,1.8
				c-0.4,0.4-0.9,0.7-1.6,0.7H2.3v-1.3h4.2c0.4,0,0.7-0.1,0.9-0.3c0.2-0.2,0.3-0.5,0.3-0.8c0-0.7-0.4-1.1-1.2-1.1H2.3V132.6z"/>
			<path class="st0" d="M6.4,130h2.2v1.3H2.3v-2.5c0-0.5,0.1-0.9,0.3-1.3s0.4-0.6,0.7-0.8c0.3-0.2,0.7-0.3,1.1-0.3
				c0.6,0,1.1,0.2,1.5,0.6c0.4,0.4,0.5,1,0.5,1.8V130z M5.4,130v-1.2c0-0.3-0.1-0.6-0.2-0.8c-0.2-0.2-0.4-0.3-0.7-0.3
				c-0.3,0-0.6,0.1-0.7,0.3c-0.2,0.2-0.3,0.4-0.3,0.8v1.2H5.4z"/>
			<path class="st0" d="M5.9,121.6v2.5h1.7v-2.9h1v4.2H2.3v-4.2h1.1v2.9h1.5v-2.5H5.9z"/>
			<path class="st0" d="M6.3,117.8v1h2.3v1.3H2.3v-2.3c0-0.7,0.2-1.3,0.5-1.7c0.3-0.4,0.8-0.6,1.4-0.6c0.4,0,0.8,0.1,1.1,0.3
				c0.3,0.2,0.5,0.5,0.7,0.8l2.6-1.4h0.1v1.4L6.3,117.8z M5.3,118.9v-1c0-0.3-0.1-0.6-0.2-0.8c-0.2-0.2-0.4-0.3-0.7-0.3
				c-0.3,0-0.5,0.1-0.7,0.3c-0.2,0.2-0.3,0.4-0.3,0.8v1H5.3z"/>
			<path class="st0" d="M8.6,112.9v1.3H2.3v-1.3H8.6z"/>
			<path class="st0" d="M8.6,106.4v1.3l-4.2,2.5h4.2v1.3H2.3v-1.3l4.2-2.5H2.3v-1.3H8.6z"/>
			<path class="st0" d="M3.4,100.2v1.9h5.3v1.3H3.4v1.9H2.3v-5.1H3.4z"/>
			<path class="st0" d="M5.9,95.5V98h1.7V95h1v4.2H2.3v-4.2h1.1V98h1.5v-2.5H5.9z"/>
			<path class="st0" d="M8.6,88.9v1.3l-4.2,2.5h4.2v1.3H2.3v-1.3l4.2-2.5H2.3v-1.3H8.6z"/>
			<path class="st0" d="M8.6,87.6H2.3v-1.9c0-0.6,0.1-1.1,0.4-1.5c0.3-0.4,0.6-0.8,1.1-1s1-0.4,1.6-0.4h0.3c0.6,0,1.1,0.1,1.6,0.4
				c0.5,0.2,0.8,0.6,1.1,1c0.3,0.4,0.4,0.9,0.4,1.5V87.6z M3.4,86.3h4.2v-0.6c0-0.5-0.2-0.9-0.5-1.2c-0.3-0.3-0.8-0.4-1.4-0.4H5.3
				c-0.6,0-1.1,0.1-1.5,0.4c-0.3,0.3-0.5,0.7-0.5,1.2V86.3z"/>
			<path class="st0" d="M5.9,77.8v2.5h1.7v-2.9h1v4.2H2.3v-4.2h1.1v2.9h1.5v-2.5H5.9z"/>
			<path class="st0" d="M8.6,71.2v1.3l-4.2,2.5h4.2v1.3H2.3v-1.3l4.2-2.5H2.3v-1.3H8.6z"/>
			<path class="st0" d="M6.5,64.9c0.7,0,1.2,0.3,1.6,0.8c0.4,0.5,0.6,1,0.6,1.8c0,0.8-0.3,1.4-0.8,1.9c-0.5,0.5-1.3,0.7-2.2,0.7H5.3
				c-0.6,0-1.1-0.1-1.6-0.3s-0.8-0.5-1.1-0.9c-0.2-0.4-0.4-0.9-0.4-1.4c0-0.7,0.2-1.3,0.6-1.8c0.4-0.4,0.9-0.7,1.6-0.8v1.3
				c-0.4,0-0.7,0.1-0.9,0.3c-0.2,0.2-0.3,0.5-0.3,0.9c0,0.4,0.2,0.8,0.5,1c0.3,0.2,0.8,0.3,1.4,0.3h0.5c0.7,0,1.2-0.1,1.5-0.3
				c0.3-0.2,0.5-0.5,0.5-1c0-0.4-0.1-0.7-0.3-0.9c-0.2-0.2-0.5-0.3-0.9-0.3V64.9z"/>
			<path class="st0" d="M8.6,62.5v1.3H2.3v-1.3H8.6z"/>
			<path class="st0" d="M7.3,57.5v2.3l1.3,0.4v1.4l-6.3-2.3V58l6.3-2.4V57L7.3,57.5z M6.3,59.4v-1.6l-2.4,0.8L6.3,59.4z"/>
			<path class="st0" d="M6.1,48.6v2.5h2.6v1.3H2.3v-4.1h1.1v2.8H5v-2.5H6.1z"/>
			<path class="st0" d="M8.6,45.9v1.3H2.3v-1.3H8.6z"/>
			<path class="st0" d="M8.6,39.4v1.3l-4.2,2.5h4.2v1.3H2.3v-1.3l4.2-2.5H2.3v-1.3H8.6z"/>
			<path class="st0" d="M7.3,34.5v2.3l1.3,0.4v1.4l-6.3-2.3V35l6.3-2.4V34L7.3,34.5z M6.3,36.4v-1.6l-2.4,0.8L6.3,36.4z"/>
			<path class="st0" d="M8.6,26.7V28l-4.2,2.5h4.2v1.3H2.3v-1.3L6.5,28H2.3v-1.3H8.6z"/>
			<path class="st0" d="M6.5,20.4c0.7,0,1.2,0.3,1.6,0.8c0.4,0.5,0.6,1,0.6,1.8c0,0.8-0.3,1.4-0.8,1.9c-0.5,0.5-1.3,0.7-2.2,0.7H5.3
				c-0.6,0-1.1-0.1-1.6-0.3c-0.5-0.2-0.8-0.5-1.1-0.9c-0.2-0.4-0.4-0.9-0.4-1.4c0-0.7,0.2-1.3,0.6-1.8c0.4-0.4,0.9-0.7,1.6-0.8v1.3
				c-0.4,0-0.7,0.1-0.9,0.3c-0.2,0.2-0.3,0.5-0.3,0.9c0,0.4,0.2,0.8,0.5,1c0.3,0.2,0.8,0.3,1.4,0.3h0.5c0.7,0,1.2-0.1,1.5-0.3
				c0.3-0.2,0.5-0.5,0.5-1c0-0.4-0.1-0.7-0.3-0.9c-0.2-0.2-0.5-0.3-0.9-0.3V20.4z"/>
			<path class="st0" d="M8.6,17.9v1.3H2.3v-1.3H8.6z"/>
			<path class="st0" d="M5.9,12.7v2.5h1.7v-2.9h1v4.2H2.3v-4.2h1.1v2.9h1.5v-2.5H5.9z"/>
			<path class="st0" d="M6.3,8.9v1h2.3v1.3H2.3V8.9c0-0.7,0.2-1.3,0.5-1.7c0.3-0.4,0.8-0.6,1.4-0.6c0.4,0,0.8,0.1,1.1,0.3
				C5.6,7.1,5.8,7.3,6,7.7l2.6-1.4h0.1v1.4L6.3,8.9z M5.3,10v-1c0-0.3-0.1-0.6-0.2-0.8C4.9,8,4.6,7.9,4.3,7.9C4,7.9,3.8,8,3.6,8.1
				C3.5,8.3,3.4,8.6,3.4,8.9v1H5.3z"/>
			<path class="st0" d="M7.3,1.8v2.3l1.3,0.4v1.4L2.3,3.6V2.4L8.6,0v1.4L7.3,1.8z M6.3,3.7V2.2L3.9,3L6.3,3.7z"/>
			<path class="st0" d="M17.1,101.2h-6.3v-1.9c0-0.6,0.1-1.1,0.4-1.5c0.3-0.4,0.6-0.8,1.1-1c0.5-0.2,1-0.4,1.6-0.4h0.3
				c0.6,0,1.1,0.1,1.6,0.4c0.5,0.2,0.8,0.6,1.1,1c0.3,0.4,0.4,0.9,0.4,1.5V101.2z M11.8,99.8H16v-0.6c0-0.5-0.2-0.9-0.5-1.2
				c-0.3-0.3-0.8-0.4-1.4-0.4h-0.3c-0.6,0-1.1,0.1-1.5,0.4c-0.3,0.3-0.5,0.7-0.5,1.2V99.8z"/>
			<path class="st0" d="M14.3,91.4v2.5H16v-2.9h1v4.2h-6.3v-4.2h1.1v2.9h1.5v-2.5H14.3z"/>
			<path class="st0" d="M15,82.6c0.7,0,1.2,0.3,1.6,0.8c0.4,0.5,0.6,1,0.6,1.8c0,0.8-0.3,1.4-0.8,1.9c-0.5,0.5-1.3,0.7-2.2,0.7h-0.4
				c-0.6,0-1.1-0.1-1.6-0.3s-0.8-0.5-1.1-0.9c-0.2-0.4-0.4-0.9-0.4-1.4c0-0.7,0.2-1.3,0.6-1.8c0.4-0.4,0.9-0.7,1.6-0.8v1.3
				c-0.4,0-0.7,0.1-0.9,0.3c-0.2,0.2-0.3,0.5-0.3,0.9c0,0.4,0.2,0.8,0.5,1c0.3,0.2,0.8,0.3,1.4,0.3h0.5c0.7,0,1.2-0.1,1.5-0.3
				c0.3-0.2,0.5-0.5,0.5-1c0-0.4-0.1-0.7-0.3-0.9c-0.2-0.2-0.5-0.3-0.9-0.3V82.6z"/>
			<path class="st0" d="M14.1,76.3c0.6,0,1.2,0.1,1.6,0.3c0.5,0.2,0.8,0.5,1.1,0.9c0.3,0.4,0.4,0.9,0.4,1.4c0,0.5-0.1,1-0.4,1.4
				c-0.3,0.4-0.6,0.7-1.1,1c-0.5,0.2-1,0.3-1.6,0.3h-0.3c-0.6,0-1.2-0.1-1.6-0.3c-0.5-0.2-0.8-0.5-1.1-0.9c-0.3-0.4-0.4-0.9-0.4-1.4
				c0-0.5,0.1-1,0.4-1.4c0.3-0.4,0.6-0.7,1.1-0.9c0.5-0.2,1-0.3,1.6-0.3H14.1z M13.8,77.6c-0.7,0-1.2,0.1-1.5,0.4
				c-0.3,0.2-0.5,0.6-0.5,1c0,0.4,0.2,0.8,0.5,1c0.3,0.2,0.8,0.4,1.5,0.4h0.3c0.6,0,1.1-0.1,1.5-0.4c0.4-0.2,0.5-0.6,0.5-1
				c0-0.4-0.2-0.8-0.5-1c-0.3-0.2-0.8-0.4-1.5-0.4H13.8z"/>
			<path class="st0" d="M16,73.8v-2.8h1v4.1h-6.3v-1.3H16z"/>
			<path class="st0" d="M14.1,65.2c0.6,0,1.2,0.1,1.6,0.3c0.5,0.2,0.8,0.5,1.1,0.9c0.3,0.4,0.4,0.9,0.4,1.4c0,0.5-0.1,1-0.4,1.4
				c-0.3,0.4-0.6,0.7-1.1,1c-0.5,0.2-1,0.3-1.6,0.3h-0.3c-0.6,0-1.2-0.1-1.6-0.3c-0.5-0.2-0.8-0.5-1.1-0.9c-0.3-0.4-0.4-0.9-0.4-1.4
				c0-0.5,0.1-1,0.4-1.4c0.3-0.4,0.6-0.7,1.1-0.9c0.5-0.2,1-0.3,1.6-0.3H14.1z M13.8,66.5c-0.7,0-1.2,0.1-1.5,0.4
				c-0.3,0.2-0.5,0.6-0.5,1c0,0.4,0.2,0.8,0.5,1c0.3,0.2,0.8,0.4,1.5,0.4h0.3c0.6,0,1.1-0.1,1.5-0.4c0.4-0.2,0.5-0.6,0.5-1
				c0-0.4-0.2-0.8-0.5-1c-0.3-0.2-0.8-0.4-1.5-0.4H13.8z"/>
			<path class="st0" d="M10.8,62.3l4.6-1.6l-4.6-1.6v-1.7h6.3v1.3h-1.7l-3-0.1l4.7,1.7v0.9l-4.7,1.7l3-0.1h1.7V64h-6.3V62.3z"/>
			<path class="st0" d="M17.1,56h-6.3v-2.2c0-0.8,0.1-1.3,0.4-1.7c0.3-0.4,0.7-0.6,1.3-0.6c0.3,0,0.6,0.1,0.8,0.2s0.4,0.4,0.5,0.7
				c0.1-0.3,0.2-0.6,0.5-0.8c0.2-0.2,0.5-0.3,0.9-0.3c0.6,0,1.1,0.2,1.4,0.6c0.3,0.4,0.5,0.9,0.5,1.7V56z M13.4,54.7v-1
				c0-0.7-0.3-1-0.8-1c-0.3,0-0.5,0.1-0.6,0.2c-0.1,0.2-0.2,0.4-0.2,0.8v0.9H13.4z M14.3,54.7H16v-1.1c0-0.3-0.1-0.5-0.2-0.7
				c-0.1-0.2-0.3-0.3-0.6-0.3c-0.6,0-0.9,0.3-0.9,0.9V54.7z"/>
			<path class="st0" d="M17.1,48.8v1.3h-6.3v-1.3H17.1z"/>
			<path class="st0" d="M15.8,43.8V46l1.3,0.4v1.4l-6.3-2.3v-1.2l6.3-2.4v1.4L15.8,43.8z M14.7,45.7v-1.6l-2.4,0.8L14.7,45.7z"/>
		</g>
		<g>
			<g>
				<path class="st0" d="M13.1,218.8l-8-2.4V214l10.6,3.7v2.3l-10.6,3.7v-2.4L13.1,218.8z"/>
				<path class="st0" d="M15.7,210.3v2.2H5.1v-2.2H15.7z"/>
				<path class="st0" d="M14.4,199.5c0.5,0.4,0.8,0.9,1.1,1.7c0.3,0.7,0.4,1.5,0.4,2.4c0,0.9-0.2,1.7-0.6,2.4
					c-0.4,0.7-1,1.2-1.7,1.6c-0.8,0.4-1.7,0.6-2.7,0.6h-0.7c-1.1,0-2-0.2-2.7-0.5c-0.8-0.4-1.4-0.9-1.8-1.5
					c-0.4-0.7-0.6-1.5-0.6-2.4c0-1.3,0.3-2.2,0.9-2.9c0.6-0.7,1.5-1.1,2.6-1.3v2.1c-0.6,0.1-1,0.3-1.3,0.6c-0.3,0.3-0.4,0.8-0.4,1.4
					c0,0.7,0.3,1.3,0.8,1.7c0.6,0.4,1.4,0.6,2.5,0.6h0.7c1.1,0,1.9-0.2,2.5-0.6c0.6-0.4,0.9-1,0.9-1.9c0-0.8-0.2-1.4-0.5-1.8h-1.8v2
					h-1.6v-4.2H14.4z"/>
				<path class="st0" d="M15.7,195v2.2H5.1V195H15.7z"/>
				<path class="st0" d="M14,190.5v-4.6h1.8v6.8H5.1v-2.2H14z"/>
				<path class="st0" d="M13.5,178.1v3.8l2.2,0.7v2.3L5.1,181v-2l10.6-4v2.3L13.5,178.1z M11.8,181.3v-2.6l-4,1.3L11.8,181.3z"/>
				<path class="st0" d="M15.7,173.7H5.1v-3.3c0-0.9,0.2-1.8,0.6-2.5c0.4-0.7,1-1.3,1.8-1.7c0.8-0.4,1.7-0.6,2.6-0.6h0.5
					c1,0,1.9,0.2,2.6,0.6c0.8,0.4,1.4,1,1.8,1.7c0.4,0.7,0.6,1.6,0.6,2.5V173.7z M6.9,171.5H14v-1.1c0-0.9-0.3-1.5-0.8-2
					c-0.6-0.5-1.4-0.7-2.4-0.7h-0.6c-1.1,0-1.9,0.2-2.4,0.7c-0.6,0.4-0.8,1.1-0.8,2V171.5z"/>
				<path class="st0" d="M10.7,155c1,0,2,0.2,2.7,0.6c0.8,0.4,1.4,0.9,1.8,1.6c0.4,0.7,0.6,1.5,0.6,2.4c0,0.9-0.2,1.7-0.6,2.3
					c-0.4,0.7-1,1.2-1.8,1.6c-0.8,0.4-1.7,0.6-2.7,0.6h-0.5c-1,0-2-0.2-2.8-0.6c-0.8-0.4-1.4-0.9-1.8-1.6c-0.4-0.7-0.6-1.5-0.6-2.4
					c0-0.9,0.2-1.7,0.6-2.4c0.4-0.7,1-1.2,1.8-1.6c0.8-0.4,1.7-0.6,2.7-0.6H10.7z M10.2,157.2c-1.1,0-2,0.2-2.5,0.6
					c-0.6,0.4-0.9,1-0.9,1.7c0,0.7,0.3,1.3,0.9,1.7c0.6,0.4,1.4,0.6,2.5,0.6h0.5c1.1,0,1.9-0.2,2.5-0.6c0.6-0.4,0.9-1,0.9-1.7
					c0-0.7-0.3-1.3-0.9-1.7c-0.6-0.4-1.4-0.6-2.5-0.6H10.2z"/>
			</g>
			<g>
				<rect y="152.5" class="st0" width="1.6" height="72.7"/>
			</g>
			<g>
				<rect x="18.4" y="152.5" class="st0" width="1.6" height="72.7"/>
			</g>
		</g>
	</g>
</g>
</svg>
