<svg xmlns="http://www.w3.org/2000/svg" viewBox="0 0 72.32 47.17"><defs><style>.cls-1{fill:#d0d0d0;}</style></defs><title>img-clildpi</title><g id="Capa_2" data-name="Capa 2"><g id="Header"><path class="cls-1" d="M31.44,42.45A14.15,14.15,0,1,0,17.29,28.3,14.16,14.16,0,0,0,31.44,42.45Zm0-25.16a11,11,0,1,1-11,11A11,11,0,0,1,31.44,17.29Z"/><path class="cls-1" d="M28.3,31.44H25.16a4.71,4.71,0,0,0,4.71,4.72v1.57H33V36.16a4.72,4.72,0,0,0,0-9.43V23.58a1.57,1.57,0,0,1,1.57,1.58h3.14A4.71,4.71,0,0,0,33,20.44V18.87H29.87v1.57a4.72,4.72,0,0,0,0,9.43V33A1.57,1.57,0,0,1,28.3,31.44Zm0-6.28a1.57,1.57,0,0,1,1.57-1.58v3.15A1.57,1.57,0,0,1,28.3,25.16ZM33,29.87A1.58,1.58,0,0,1,33,33Z"/><path class="cls-1" d="M70.75,0H6.29A1.57,1.57,0,0,0,4.72,1.57V4.72H3.14A1.57,1.57,0,0,0,1.57,6.29V9.43A1.57,1.57,0,0,0,0,11V45.6a1.57,1.57,0,0,0,1.57,1.57H61.32a1.57,1.57,0,0,0,1.57-1.57H66A1.58,1.58,0,0,0,67.61,44V40.88h3.14a1.57,1.57,0,0,0,1.57-1.57V1.57A1.57,1.57,0,0,0,70.75,0ZM3.14,12.58h4.5a6.29,6.29,0,0,1-4.5,4.49ZM3.14,44V39.53A6.29,6.29,0,0,1,7.64,44Zm56.61,0H55.23a6.28,6.28,0,0,1,4.52-4.51Zm0-7.72A9.45,9.45,0,0,0,52,44H10.86A9.44,9.44,0,0,0,3.14,36.3v-16a9.44,9.44,0,0,0,7.72-7.72H52a9.45,9.45,0,0,0,7.72,7.72Zm0-19.21a6.31,6.31,0,0,1-4.52-4.51h4.52Zm4.71,25.36H62.89V11a1.57,1.57,0,0,0-1.57-1.58H4.72V7.86H64.46Zm4.72-4.72H67.61V6.29A1.57,1.57,0,0,0,66,4.72H7.86V3.14H69.18Z"/></g></g></svg>