<svg xmlns="http://www.w3.org/2000/svg" viewBox="0 0 68.01 68.01"><defs><style>.cls-1{fill:#0c9;}.cls-2{fill:none;}</style></defs><g id="Capa_2" data-name="Capa 2"><g id="Contenido"><path class="cls-1" d="M26.73,10.5H42a1.79,1.79,0,0,0,1.2-3.11l-3.61-3.3a1.78,1.78,0,1,0-2.41,2.63l.22.21H26.73a1.79,1.79,0,0,0,0,3.57Z"/><path class="cls-1" d="M42,57.51H26.73a1.78,1.78,0,0,0-1.2,3.1l3.61,3.31a1.79,1.79,0,0,0,2.42-2.64l-.22-.2H42a1.79,1.79,0,0,0,0-3.57Z"/><path class="cls-1" d="M62.6,14.1H5.41a1.79,1.79,0,0,0-1.79,1.79V52.11A1.79,1.79,0,0,0,5.41,53.9H62.6a1.79,1.79,0,0,0,1.79-1.79V15.89A1.79,1.79,0,0,0,62.6,14.1ZM60.81,50.33H7.19V17.68H60.81Z"/><path class="cls-1" d="M12.83,42.09a2.72,2.72,0,0,1,2.72,2.72,1.79,1.79,0,0,0,1.79,1.78H50.67a1.79,1.79,0,0,0,1.79-1.78,2.72,2.72,0,0,1,2.71-2.72A1.79,1.79,0,0,0,57,40.3V27.7a1.78,1.78,0,0,0-1.79-1.78,2.72,2.72,0,0,1-2.71-2.72,1.79,1.79,0,0,0-1.79-1.79H17.34a1.79,1.79,0,0,0-1.79,1.79,2.72,2.72,0,0,1-2.72,2.72,1.78,1.78,0,0,0-1.78,1.78V40.3a1.79,1.79,0,0,0,1.78,1.79Zm1.79-12.86A6.31,6.31,0,0,0,18.86,25H49.14a6.32,6.32,0,0,0,4.25,4.24v9.55A6.32,6.32,0,0,0,49.14,43H18.86a6.31,6.31,0,0,0-4.24-4.24Z"/><path class="cls-1" d="M21.17,37.05A1.79,1.79,0,0,0,23,35.27V32.74a1.79,1.79,0,1,0-3.57,0v2.53a1.78,1.78,0,0,0,1.78,1.78Z"/><path class="cls-1" d="M46.83,37.05a1.79,1.79,0,0,0,1.79-1.78V32.74a1.79,1.79,0,1,0-3.58,0v2.53a1.79,1.79,0,0,0,1.79,1.78Z"/><path class="cls-1" d="M34,39.37A5.37,5.37,0,1,0,28.64,34,5.38,5.38,0,0,0,34,39.37Zm0-7.15A1.79,1.79,0,1,1,32.22,34,1.79,1.79,0,0,1,34,32.22Z"/><rect class="cls-2" width="68.01" height="68.01"/></g></g></svg>