<svg xmlns="http://www.w3.org/2000/svg" viewBox="0 0 68.01 68.01"><defs><style>.cls-1{fill:#0c9;}.cls-2{fill:none;}</style></defs><g id="Capa_2" data-name="Capa 2"><g id="Contenido"><path class="cls-1" d="M59.85,8,34.75,2.45a1.91,1.91,0,0,0-.79,0L8.17,8A1.85,1.85,0,0,0,6.7,9.78V41.29c0,15.22,25.63,23.86,26.72,24.22a2,2,0,0,0,1.17,0c1.09-.36,26.71-9,26.71-24.22V9.78A1.86,1.86,0,0,0,59.85,8ZM57.59,41.29c0,11.44-19.9,19.15-23.59,20.48C25,58.53,10.42,50.9,10.42,41.29v-30L34.34,6.16l23.25,5.11Z"/><path class="cls-1" d="M33.86,11.28,17.29,14.6a1.86,1.86,0,0,0-1.49,1.83V39.29c0,7.9,10.31,13.18,17.73,15.15a1.91,1.91,0,0,0,.95,0c7.43-2,17.73-7.24,17.73-15.15V16.43a1.85,1.85,0,0,0-1.48-1.82L34.6,11.28a1.84,1.84,0,0,0-.74,0Zm14.63,6.66V39.29c0,5.7-9.05,9.79-14.49,11.42C28.54,49.08,19.52,45,19.52,39.29V18L34.22,15Z"/><path class="cls-1" d="M32.14,22v1.53a5.35,5.35,0,1,0-.08,10.69h3.88a1.63,1.63,0,0,1,0,3.26h0l-4.06,0A2.51,2.51,0,0,1,30.49,37a1.86,1.86,0,1,0-2.12,3,6.18,6.18,0,0,0,3.77,1.11v1.55a1.86,1.86,0,0,0,3.72,0V41.14a5.35,5.35,0,1,0,.08-10.69H32.06a1.63,1.63,0,1,1,0-3.25h0l3.73,0a2.48,2.48,0,0,1,1.77.78,1.86,1.86,0,0,0,2.71-2.54,6.18,6.18,0,0,0-4.42-1.95V22a1.86,1.86,0,0,0-3.72,0Z"/><rect class="cls-2" width="68.01" height="68.01"/></g></g></svg>