<svg xmlns="http://www.w3.org/2000/svg" viewBox="0 0 68.01 68.01"><defs><style>.cls-1{fill:#0c9;}.cls-2{fill:none;}</style></defs><g id="Capa_2" data-name="Capa 2"><g id="Contenido"><path class="cls-1" d="M17.37,55.91,16.4,49a1.8,1.8,0,0,0-3.57.51l.22,1.55A27.11,27.11,0,0,1,8.66,43.3C1.36,23.34,19,3.2,39.55,7.59a1.8,1.8,0,1,0,.75-3.52C17.09-.89-3,21.77,5.27,44.54a30.6,30.6,0,0,0,5,8.76L8.5,53a1.8,1.8,0,1,0-.68,3.54L15.1,57.9a1.8,1.8,0,0,0,2.27-2Z"/><path class="cls-1" d="M62.77,23.49a31,31,0,0,0-5-8.77l1.74.34a1.8,1.8,0,1,0,.68-3.54L53,10.12a1.81,1.81,0,0,0-2.28,2l1,6.92a1.8,1.8,0,0,0,3.57-.5L55,17A27,27,0,0,1,28.5,60.44,1.8,1.8,0,0,0,27.74,64a30.58,30.58,0,0,0,35-40.47Z"/><path class="cls-1" d="M52.69,34.11A18.67,18.67,0,1,0,34,52.81a18.71,18.71,0,0,0,18.67-18.7ZM19,34.11A15.07,15.07,0,1,1,34,49.21,15.1,15.1,0,0,1,19,34.11Z"/><path class="cls-1" d="M35.82,44.22v-1.5a5.21,5.21,0,1,0,.1-10.41H32.13a1.61,1.61,0,1,1,0-3.21h3.63a2.4,2.4,0,0,1,1.73.78,1.8,1.8,0,1,0,2.63-2.46,6,6,0,0,0-4.32-1.93V24a1.8,1.8,0,1,0-3.6,0v1.5a5.21,5.21,0,1,0-.09,10.42h3.79a1.61,1.61,0,0,1,0,3.21h-4a2.52,2.52,0,0,1-1.35-.46,1.8,1.8,0,0,0-2.06,3,6,6,0,0,0,3.69,1.1v1.5a1.8,1.8,0,1,0,3.6,0Z"/><rect class="cls-2" width="68.01" height="68.01"/></g></g></svg>