<svg xmlns="http://www.w3.org/2000/svg" viewBox="0 0 66.73 66.73"><defs><style>.cls-1{fill:#0c9;}.cls-2{fill:none;}</style></defs><g id="Capa_2" data-name="Capa 2"><g id="Contenido"><path class="cls-1" d="M36.3,19.5a5.32,5.32,0,0,0,5.32,5.31h4a1.85,1.85,0,1,1,0,3.69h-4.2A2.66,2.66,0,0,1,39.9,28a1.73,1.73,0,0,0-2,2.84,6.36,6.36,0,0,0,4,1.13v1.36a1.73,1.73,0,0,0,3.46,0V32a5.31,5.31,0,1,0,.27-10.61h-4a1.85,1.85,0,1,1,0-3.69h3.85a2.68,2.68,0,0,1,1.94.88,1.72,1.72,0,0,0,2.44.07,1.7,1.7,0,0,0,.08-2.43,6.19,6.19,0,0,0-4.59-2V12.84a1.73,1.73,0,0,0-3.46,0V14.2a5.32,5.32,0,0,0-5.58,5.3Z"/><path class="cls-1" d="M61.22,45.12a5.37,5.37,0,0,0-7.57,0l-5.32,5.3a1.4,1.4,0,0,1-1,.4H33.53a1.89,1.89,0,1,1,0-3.78h4.21a5.09,5.09,0,0,0,5.1-4.85A19.13,19.13,0,1,0,38.53,4.64,19.12,19.12,0,0,0,21.11,37.71,15.24,15.24,0,0,0,14,42.51l0,0-1.61,2H5.68A1.72,1.72,0,0,0,4,46.31V61.05a1.72,1.72,0,0,0,1.73,1.73h43a5.64,5.64,0,0,0,4-1.67l8.47-8.44a5.34,5.34,0,0,0,0-7.55Zm-1.9-22A15.71,15.71,0,0,1,41.49,38.61C39.81,36.79,38,37,36.41,37A15.68,15.68,0,1,1,59.32,23.08Zm-41.58,0A15.7,15.7,0,0,1,32.6,7.43,19.09,19.09,0,0,0,30.48,37H26.24a15.58,15.58,0,0,1-8.5-13.93Zm41,27.14L50.3,58.67a2.22,2.22,0,0,1-1.59.66H7.41V48h5.75a1.72,1.72,0,0,0,1.36-.66l2.11-2.67a11.78,11.78,0,0,1,9.08-4.24H36c1.21,0,3.42-.33,3.38,1.6a1.61,1.61,0,0,1-1.64,1.52H33.53a5.35,5.35,0,1,0,0,10.69H47.36a4.85,4.85,0,0,0,3.42-1.41l5.31-5.3a1.89,1.89,0,1,1,2.68,2.66Z"/><rect class="cls-2" width="66.73" height="66.73"/></g></g></svg>