<svg xmlns="http://www.w3.org/2000/svg" viewBox="0 0 364.64 288.2"><defs><style>.cls-1{opacity:0.3;}.cls-2{opacity:0.8;}.cls-3{fill:#fff;}.cls-14,.cls-4{fill:#cceaf5;}.cls-5{fill:#9bcbe9;}.cls-6{fill:#3e275c;}.cls-7{fill:#406eb3;}.cls-8{opacity:0.91;}.cls-9{fill:#331239;}.cls-10{fill:#ff97a7;}.cls-11{fill:#ffcb37;}.cls-12{fill:#e45d79;}.cls-13{fill:#ffe5ae;}.cls-14{opacity:0.27;}.cls-15{fill:#c698f8;}.cls-16{fill:#dfb3ff;}.cls-17{fill:#c2a5ff;}.cls-18{fill:#8865c4;}</style></defs><g id="Capa_2" data-name="Capa 2"><g id="Contenido"><g class="cls-1"><g class="cls-2"><rect class="cls-3" x="90.82" y="51.74" width="81.78" height="43.5" transform="translate(263.41 146.97) rotate(180)"/></g><g class="cls-2"><polygon class="cls-3" points="106.64 22.2 172.06 22.2 172.06 50.83 163.83 39.46 106.64 39.46 106.64 22.2"/></g><rect class="cls-4" x="109.16" y="27.59" width="59.34" height="3.05"/><rect class="cls-4" x="109.16" y="33.27" width="11.29" height="3.05"/><rect class="cls-4" x="124.83" y="33.27" width="11.29" height="3.05"/><rect class="cls-4" x="140.82" y="33.27" width="22.27" height="3.05"/><path class="cls-5" d="M156.55,68.31a5,5,0,0,0-6.72-.57l-4.3-5.88a12.33,12.33,0,0,1,16.28,1.42Z"/><path class="cls-6" d="M157.91,72.36a5.44,5.44,0,0,0,0-.57,5.08,5.08,0,0,0-.75-2.65l5.31-5.07a12.27,12.27,0,0,1,2.72,7.72c0,.19,0,.38,0,.57Z"/><path class="cls-5" d="M154.38,76.63a5.09,5.09,0,0,0,3.3-3.23h7.43a12.37,12.37,0,0,1-9.56,10.44Z"/><path class="cls-3" d="M155.52,83.89s0,0,0,0l-1.16-7.21s0,0,0-.06a5.07,5.07,0,0,0,3.26-3.2s0,0,.05,0h7.47s0,0,0,0a12.44,12.44,0,0,1-9.6,10.49h0Zm2.19-10.44a5.11,5.11,0,0,1-3.27,3.22l1.15,7.11a12.33,12.33,0,0,0,9.46-10.33Z"/><path class="cls-7" d="M144.72,62.52l4.34,5.93a5,5,0,0,0-1.27,3.34,5.08,5.08,0,0,0,5.08,5.07l.49,0L154.52,84a12.82,12.82,0,0,1-1.65.11,12.34,12.34,0,0,1-8.15-21.62Z"/><path class="cls-5" d="M110.67,69.87a5,5,0,0,0-1.55,6.56l-6.44,3.4a12.3,12.3,0,0,1,3.79-15.9Z"/><path class="cls-6" d="M114.87,69.12a4.92,4.92,0,0,0-3.29.24l-4.24-6a12.29,12.29,0,0,1,8-1.56l.56.1Z"/><path class="cls-5" d="M118.58,73.23a5.08,5.08,0,0,0-2.71-3.73L117,62.14a12.4,12.4,0,0,1,8.94,11Z"/><path class="cls-3" d="M125.93,73.17l0,0-7.31.09s0,0,0,0a5,5,0,0,0-2.69-3.69.07.07,0,0,1,0-.06l1.09-7.35s0,0,0,0h0a12.44,12.44,0,0,1,9,11h0S125.93,73.16,125.93,73.17Zm-10-3.7a5.14,5.14,0,0,1,2.71,3.71l7.2-.1A12.33,12.33,0,0,0,117,62.21Z"/><path class="cls-7" d="M103.21,80.73l6.5-3.43A5,5,0,0,0,112.83,79a5.08,5.08,0,0,0,5.76-4.28c0-.16,0-.33,0-.49l7.28-.1a13.4,13.4,0,0,1-.13,1.66,12.34,12.34,0,0,1-22.58,4.9Z"/><g class="cls-2"><polygon class="cls-3" points="72.61 104.66 158.82 104.66 158.82 142.89 147.97 129.04 72.61 129.04 72.61 104.66"/></g><rect class="cls-4" x="77.27" y="108.73" width="77.61" height="3.05" transform="translate(232.14 220.51) rotate(180)"/><rect class="cls-4" x="90.87" y="114.75" width="64.01" height="3.05" transform="translate(245.75 232.55) rotate(180)"/><rect class="cls-4" x="109.29" y="120.68" width="45.59" height="3.05" transform="translate(264.17 244.42) rotate(180)"/><g class="cls-2"><polygon class="cls-3" points="266.06 134.38 184.4 133.53 185.01 14.93 267.3 15.65 266.06 134.38"/></g><g class="cls-8"><polygon class="cls-9" points="267.01 15.84 184.72 15.11 184.7 27.7 266.88 28.55 267.01 15.84"/></g><rect class="cls-5" x="191.61" y="22.44" width="52.62" height="2.6" transform="translate(0.26 -2.27) rotate(0.6)"/><rect class="cls-7" x="187.56" y="30.81" width="76.55" height="25.51" transform="translate(0.47 -2.35) rotate(0.6)"/><rect class="cls-7" x="186.59" y="121.34" width="76.55" height="9.88" transform="translate(1.33 -2.33) rotate(0.6)"/><rect class="cls-3" x="212" y="41.39" width="48.24" height="2.6" transform="matrix(1, 0.01, -0.01, 1, 0.46, -2.45)"/><rect class="cls-3" x="211.7" y="46.92" width="29.92" height="2.53" transform="translate(0.51 -2.36) rotate(0.6)"/><polygon class="cls-3" points="208.69 70.27 189.37 69.46 190.93 34.44 209.07 34.63 208.69 70.27"/><path class="cls-3" d="M250.24,24.05A1.3,1.3,0,1,1,249,22.73,1.3,1.3,0,0,1,250.24,24.05Z"/><path class="cls-5" d="M255.21,24.1a1.3,1.3,0,1,1-1.29-1.31A1.3,1.3,0,0,1,255.21,24.1Z"/><path class="cls-7" d="M260.18,24.15a1.3,1.3,0,1,1-1.29-1.31A1.3,1.3,0,0,1,260.18,24.15Z"/><rect class="cls-3" x="211.02" y="57.89" width="47.33" height="13.55" transform="translate(0.69 -2.44) rotate(0.6)"/><rect class="cls-5" x="213.59" y="59.74" width="12.12" height="9.25" transform="translate(0.68 -2.28) rotate(0.6)"/><rect class="cls-6" x="228.94" y="60.6" width="25.37" height="2.6" transform="translate(0.66 -2.51) rotate(0.6)"/><rect class="cls-5" x="228.75" y="66.18" width="15.73" height="2.53" transform="matrix(1, 0.01, -0.01, 1, 0.71, -2.46)"/><rect class="cls-3" x="210.71" y="73.55" width="47.33" height="13.55" transform="translate(0.85 -2.43) rotate(0.6)"/><rect class="cls-5" x="213.28" y="75.4" width="12.12" height="9.25" transform="translate(0.84 -2.28) rotate(0.6)"/><rect class="cls-6" x="228.62" y="76.26" width="25.37" height="2.6" transform="translate(0.82 -2.51) rotate(0.6)"/><rect class="cls-5" x="228.44" y="81.84" width="15.73" height="2.53" transform="translate(0.88 -2.45) rotate(0.6)"/><rect class="cls-3" x="210.39" y="89.49" width="47.33" height="13.55" transform="translate(1.01 -2.43) rotate(0.6)"/><rect class="cls-5" x="212.97" y="91.34" width="12.12" height="9.25" transform="translate(1.01 -2.27) rotate(0.6)"/><rect class="cls-6" x="228.31" y="92.2" width="25.37" height="2.6" transform="translate(0.99 -2.5) rotate(0.6)"/><rect class="cls-5" x="228.12" y="97.78" width="15.73" height="2.53" transform="translate(1.04 -2.45) rotate(0.6)"/><rect class="cls-3" x="210.08" y="105.15" width="47.33" height="13.55" transform="translate(1.18 -2.43) rotate(0.6)"/><rect class="cls-5" x="212.65" y="107.01" width="12.12" height="9.25" transform="translate(1.17 -2.27) rotate(0.6)"/><rect class="cls-6" x="228" y="107.86" width="25.37" height="2.6" transform="translate(1.15 -2.5) rotate(0.6)"/><rect class="cls-5" x="227.81" y="113.44" width="15.73" height="2.53" transform="translate(1.21 -2.45) rotate(0.6)"/><rect class="cls-5" x="193.62" y="40.84" width="11.85" height="2.6" transform="translate(0.45 -2.07) rotate(0.6)"/><rect class="cls-5" x="193.53" y="45.24" width="11.85" height="2.6" transform="translate(0.49 -2.07) rotate(0.6)"/><rect class="cls-5" x="193.39" y="52.71" width="11.85" height="2.6" transform="translate(0.57 -2.07) rotate(0.6)"/><rect class="cls-5" x="193.3" y="57.12" width="11.85" height="2.6" transform="translate(0.62 -2.07) rotate(0.6)"/><rect class="cls-5" x="193.16" y="64.2" width="11.85" height="2.6" transform="translate(0.69 -2.07) rotate(0.6)"/></g><path class="cls-3" d="M1.24,46.48a5.18,5.18,0,0,0-.9,5.2l50.43-.9a4.75,4.75,0,1,0-8.5-4.09,22.32,22.32,0,0,0-2.08-11A14.36,14.36,0,0,0,32,28.38a10.67,10.67,0,0,0-10.52,2.19c-3.21,3.11-3.75,8-4,12.45a6.18,6.18,0,0,0-6.27-3,6.17,6.17,0,0,0-4.93,4.93A5.15,5.15,0,0,0,1.24,46.48Z"/><path class="cls-3" d="M294.07,31a7.23,7.23,0,0,0-1.26,7.31L363.72,37a6.68,6.68,0,1,0-12-5.75,31.21,31.21,0,0,0-2.92-15.43A20.19,20.19,0,0,0,337.34,5.5c-5-1.61-11-.6-14.8,3.08C318,13,317.28,19.82,316.91,26.1a8.46,8.46,0,0,0-15.75,2.67A7.28,7.28,0,0,0,294.07,31Z"/><path class="cls-9" d="M216,209.05c1.8,0,1.28-2.31,1.38-3.69-.18.4-.44.88-.68.34a4.24,4.24,0,0,1,.17-3.29,3.77,3.77,0,0,0-1.53,0C214.82,202.46,215.55,209.06,216,209.05Z"/><path class="cls-10" d="M216.73,205.7c.24.54.66.66.68-.23a6.37,6.37,0,0,1,.25-1.61c.11-.39.67-.6.67-.6l-.08-.7s-1.21-.11-1.35-.15A4.24,4.24,0,0,0,216.73,205.7Z"/><path class="cls-5" d="M279.4,122.38c-4.26,2.22-1.18,10.3,16.16,17,1.88.73,5.16-.85,6.18-2.58l1.57-3.24a37.36,37.36,0,0,1-6.62-2C289.77,128.52,282,123.49,279.4,122.38Z"/><path class="cls-5" d="M299,138.86s15.89-5.46,18.55-8.65a1.36,1.36,0,0,0,.3-.86c0-2.16-.76-7-8.79-3.23A48.63,48.63,0,0,0,294.88,136S296.57,134.89,299,138.86Z"/><path class="cls-9" d="M249.74,145.77c-5.14,4.69-3.33,29-3,32.67a.46.46,0,0,1-.43.51c-3.87.23-24.29,22.18-28.26,22.81a.46.46,0,0,0-.37.59l.75,2.62a.43.43,0,0,0,.32.32c3.14.86,28.66-12.41,37.1-19.21,5.16-4.17,13.4-32.2,17.66-40.77C275.46,141.35,253.42,142.42,249.74,145.77Z"/><path class="cls-9" d="M284.45,221.7c.64-1.68-1.69-2-2.93-2.64.3.31.66.74.06.76a4.17,4.17,0,0,1-3-1.37,3.69,3.69,0,0,0-.6,1.41C277.87,220.4,284.28,222.15,284.45,221.7Z"/><path class="cls-9" d="M281.58,219.82c.6,0,.86-.37,0-.71a7,7,0,0,1-1.4-.83,1.21,1.21,0,0,1-.31-.85l-.68-.18s-.55,1.09-.63,1.2A4.17,4.17,0,0,0,281.58,219.82Z"/><path class="cls-6" d="M247.19,157c1.13,7.46,20.5,24.56,20.5,24.56l11.36,35.63a.74.74,0,0,0,.95.83l1.63-.53a.73.73,0,0,0,.39-.3c1.69-2.63-1.24-29.32-3.16-41.07-.69-4.19-11-24.33-11-24.33s.49-8.05-.3-9.05c-2-.21-7.6-5.8-13.89-1.95C247.55,144.51,246.68,153.58,247.19,157Z"/><path class="cls-5" d="M267.46,118.38c2.77.14,9.18,2.84,9.84,3.1,2.77,1.08,4.89,1.86,5,6.14,0,2.47-1.8,4.63-2.38,5.95A130.78,130.78,0,0,1,272.67,147a55.54,55.54,0,0,1-8.44-2.81,97.6,97.6,0,0,1-9.15-4.06s1.14-5.28,5.51-17.12C260.87,122.26,264.2,118.21,267.46,118.38Z"/><path class="cls-9" d="M264.23,144.2l4.8,9.87,1.66-7.58A61.78,61.78,0,0,1,264.23,144.2Z"/><path class="cls-3" d="M267.89,118c1.13.06,6.12,2.24,7.83,2.81.85.29-1.16,7.16-2.91,11.86a28.57,28.57,0,0,1-8.11,11.71l-9.62-4.26s1.14-5.28,5.51-17.12C260.87,122.26,264.64,117.85,267.89,118Z"/><path class="cls-4" d="M316.56,125.26,247.36,95a9.84,9.84,0,0,1-5.07-13l9.23-21.09a9.84,9.84,0,0,1,13-5.07l69.2,30.29a9.86,9.86,0,0,1,5.07,13l-9.23,21.09A9.85,9.85,0,0,1,316.56,125.26Z"/><path class="cls-9" d="M338.19,100.44,250.93,62.23l.59-1.34a9.84,9.84,0,0,1,13-5.07l69.2,30.29a9.86,9.86,0,0,1,5.07,13Z"/><path class="cls-5" d="M313.38,80.16a.33.33,0,0,1-.17,0,.41.41,0,0,1-.22-.55l.68-1.55a.42.42,0,1,1,.77.34l-.68,1.55A.41.41,0,0,1,313.38,80.16Z"/><path class="cls-5" d="M299.76,111.26a.47.47,0,0,1-.17,0,.43.43,0,0,1-.22-.56l1.36-3.11a.42.42,0,0,1,.56-.22.43.43,0,0,1,.22.56L300.15,111A.42.42,0,0,1,299.76,111.26Zm2.72-6.22a.51.51,0,0,1-.17,0,.44.44,0,0,1-.22-.56l1.37-3.11a.41.41,0,0,1,.55-.22.42.42,0,0,1,.22.56l-1.36,3.11A.42.42,0,0,1,302.48,105Zm2.72-6.22-.17,0a.42.42,0,0,1-.21-.56l1.36-3.11a.42.42,0,1,1,.77.34l-1.36,3.11A.41.41,0,0,1,305.2,98.82Zm2.73-6.22a.33.33,0,0,1-.17,0,.41.41,0,0,1-.22-.55l1.36-3.11a.43.43,0,0,1,.56-.22.43.43,0,0,1,.22.56l-1.36,3.11A.42.42,0,0,1,307.93,92.6Zm2.72-6.22a.38.38,0,0,1-.17,0,.42.42,0,0,1-.22-.55l1.37-3.11a.41.41,0,0,1,.55-.22.41.41,0,0,1,.22.56L311,86.13A.41.41,0,0,1,310.65,86.38Z"/><path class="cls-5" d="M297.72,115.92a.47.47,0,0,1-.17,0,.42.42,0,0,1-.22-.56l.68-1.55a.42.42,0,1,1,.77.34l-.68,1.55A.41.41,0,0,1,297.72,115.92Z"/><rect class="cls-5" x="251.97" y="67.89" width="10.63" height="2.31" transform="translate(49.3 -97.4) rotate(23.65)"/><rect class="cls-5" x="248.51" y="75.79" width="10.63" height="2.31" transform="translate(52.18 -95.35) rotate(23.65)"/><rect class="cls-5" x="244.99" y="83.83" width="10.63" height="2.31" transform="translate(55.11 -93.26) rotate(23.65)"/><rect class="cls-5" x="271.02" y="95.99" width="10.63" height="2.31" transform="translate(62.17 -102.69) rotate(23.65)"/><rect class="cls-5" x="249.83" y="74" width="26.49" height="3.16" transform="translate(52.4 -99.17) rotate(23.65)"/><rect class="cls-5" x="310.94" y="94.97" width="15.79" height="3.16" transform="translate(65.49 -119.78) rotate(23.65)"/><rect class="cls-5" x="247.46" y="77.34" width="3.62" height="2.54" transform="translate(52.47 -93.39) rotate(23.65)"/><rect class="cls-5" x="273.46" y="89.56" width="3.62" height="2.54" transform="translate(59.55 -102.79) rotate(23.65)"/><rect class="cls-5" x="269.99" y="97.9" width="7.55" height="2.54" transform="translate(62.76 -101.48) rotate(23.65)"/><rect class="cls-5" x="283.83" y="94.1" width="3.62" height="2.54" transform="translate(62.23 -106.55) rotate(23.65)"/><rect class="cls-5" x="252.25" y="80.21" width="3.47" height="1.77" transform="translate(53.85 -95.06) rotate(23.65)"/><rect class="cls-5" x="258.15" y="82.53" width="5.93" height="2.54" transform="translate(55.54 -97.7) rotate(23.65)"/><rect class="cls-5" x="243.75" y="86.05" width="5.93" height="2.54" transform="translate(55.74 -91.63) rotate(23.65)"/><rect class="cls-5" x="250.27" y="88.91" width="5.93" height="2.54" transform="translate(57.43 -93.99) rotate(23.64)"/><rect class="cls-5" x="275.02" y="86.25" width="5.93" height="2.54" transform="translate(58.45 -104.15) rotate(23.65)"/><rect class="cls-5" x="285.38" y="90.79" width="5.93" height="2.54" transform="translate(61.14 -107.92) rotate(23.65)"/><rect class="cls-5" x="264.94" y="85.77" width="3.46" height="1.77" transform="translate(57.14 -99.68) rotate(23.65)"/><rect class="cls-5" x="309.4" y="97.79" width="4.31" height="2.16" transform="translate(65.82 -116.67) rotate(23.65)"/><rect class="cls-5" x="314.48" y="100.88" width="8.16" height="2.76" transform="translate(67.76 -119.18) rotate(23.65)"/><rect class="cls-5" x="305.72" y="106.2" width="4.31" height="2.16" transform="translate(68.88 -114.48) rotate(23.65)"/><rect class="cls-5" x="310.96" y="108.93" width="8.16" height="2.76" transform="translate(70.7 -117.1) rotate(23.65)"/><rect class="cls-5" x="303.63" y="110.96" width="4.31" height="2.16" transform="translate(70.61 -113.24) rotate(23.65)"/><rect class="cls-5" x="308.96" y="113.48" width="8.16" height="2.76" transform="translate(72.36 -115.92) rotate(23.65)"/><rect class="cls-5" x="307.8" y="101.44" width="4.31" height="2.16" transform="translate(67.15 -115.72) rotate(23.65)"/><rect class="cls-5" x="312.82" y="104.99" width="11.24" height="2.76" transform="translate(69.4 -118.8) rotate(23.65)"/><rect class="cls-9" x="329.22" y="99.6" width="8.78" height="0.7" transform="translate(68.1 -125.42) rotate(23.65)"/><rect class="cls-9" x="328.39" y="101.04" width="8.78" height="1.61" transform="translate(68.8 -124.94) rotate(23.65)"/><rect class="cls-9" x="327.56" y="103.42" width="8.78" height="0.66" transform="translate(69.48 -124.43) rotate(23.65)"/><rect class="cls-9" x="326.73" y="104.88" width="8.78" height="1.53" transform="translate(70.18 -123.94) rotate(23.65)"/><rect class="cls-9" x="325.9" y="107.34" width="8.78" height="0.41" transform="translate(70.87 -123.45) rotate(23.65)"/><rect class="cls-9" x="325.07" y="108.53" width="8.78" height="1.81" transform="translate(71.56 -122.96) rotate(23.65)"/><polygon class="cls-9" points="332.47 113.5 324.42 110.01 324.76 109.22 332.82 112.7 332.47 113.5"/><rect class="cls-9" x="323.4" y="112.12" width="8.78" height="2.23" transform="translate(72.95 -121.97) rotate(23.65)"/><rect class="cls-9" x="322.54" y="114.86" width="8.82" height="0.54" transform="translate(73.63 -121.47) rotate(23.65)"/><rect class="cls-9" x="321.74" y="116.37" width="8.78" height="1.32" transform="translate(74.32 -120.98) rotate(23.65)"/><rect class="cls-9" x="320.91" y="118.74" width="8.78" height="0.39" transform="translate(75.01 -120.48) rotate(23.65)"/><rect class="cls-9" x="320.08" y="119.7" width="8.78" height="2.27" transform="translate(75.71 -120) rotate(23.65)"/><rect class="cls-9" x="319.25" y="122.21" width="8.78" height="1.03" transform="translate(76.4 -119.5) rotate(23.65)"/><rect class="cls-9" x="318.42" y="124.21" width="8.78" height="0.82" transform="translate(77.09 -119.01) rotate(23.65)"/><rect class="cls-5" x="267.32" y="65.88" width="23.56" height="4.93" transform="translate(50.85 -106.21) rotate(23.65)"/><rect class="cls-5" x="314.61" y="84.65" width="14.78" height="4.54" transform="translate(61.9 -121.86) rotate(23.65)"/><rect class="cls-5" x="329.79" y="89.55" width="6.8" height="4.54" transform="translate(64.81 -125.94) rotate(23.65)"/><path class="cls-3" d="M262.18,59.3a2.48,2.48,0,0,1,.68.15c.11.1.06.45-.1.45a2.26,2.26,0,0,1-.65-.28Z"/><path class="cls-3" d="M258.47,63.73a.47.47,0,0,0,.4-.07c.71-.5,3.25-2.29,3.28-2.27l1.92.81a1.3,1.3,0,0,0,1,0l.07,0,0-.07a1.28,1.28,0,0,0-.67-.7l-1.9-.86s-.44-3.09-.56-4a.44.44,0,0,0-.22-.34l-.12-.08s-.07,0-.07,0l-.41,3.7-1.57-.65-.14,0-.45-.11a.34.34,0,0,1-.27-.29l-.2-1a.39.39,0,0,0-.18-.27l-.15-.1L258,58.94h-.28l.19.21L257,60.28l.18,0a.4.4,0,0,0,.32,0l.85-.53a.36.36,0,0,1,.4,0l.38.25.13.08,1.54.71-2.44,2.81a.05.05,0,0,0,0,.08Z"/><path class="cls-3" d="M261,62.1a2.49,2.49,0,0,0,.57.4c.14,0,.37-.26.26-.39a2.33,2.33,0,0,0-.65-.28Z"/><path class="cls-3" d="M270.69,119.49c-1.8,4.07-9.57,4.47-21.69-5.9a5,5,0,0,1-.64-5.81l2.28-2.74a16.92,16.92,0,0,0,3.68,4.64C259.52,113.62,268.79,118,270.69,119.49Z"/><path class="cls-3" d="M248.45,112.71s-7.91-13.64-7.84-17.8a1.33,1.33,0,0,1,.34-.84c1.4-1.64,5.13-4.8,8.75,3.3a48.56,48.56,0,0,1,4.3,16.69S252.87,111.28,248.45,112.71Z"/><path class="cls-10" d="M242.58,93.37a.23.23,0,0,1-.27.06A12.43,12.43,0,0,1,239.47,92a4,4,0,0,1-1.08-2.43c-.07-.63.2-.38.63,0s1.06,1,1.37,1.28S243.86,91.93,242.58,93.37Z"/><path class="cls-10" d="M241.38,91.27c0-.24-.65-1-.18-1.18s1.61,2.18,1.51,2.26S241.38,91.27,241.38,91.27Z"/><path class="cls-10" d="M315.88,126a.24.24,0,0,0,.15.22,12.48,12.48,0,0,0,3.08.9,4,4,0,0,0,2.45-1c.49-.41.12-.41-.45-.44-.38,0-1.44,0-1.87,0S316,124,315.88,126Z"/><path class="cls-10" d="M318.2,125.26c.18-.16,1.12-.24.94-.73s-2.66.47-2.65.59A8.28,8.28,0,0,0,318.2,125.26Z"/><path class="cls-11" d="M274.79,117.48a27.36,27.36,0,0,1-2.65-6.14c-.44-2.33-1.26-4.35.32-4.45s6.08-.31,7.17-4.59a5.27,5.27,0,0,0-.47-2.54.25.25,0,0,1,.36-.31c1.22.67,3.78,2.38,4.54,5a11.81,11.81,0,0,1-.57,7.67c-.29.87-2.42,4.6-2.42,4.6Z"/><path class="cls-10" d="M275.53,116.21s-1.83,4.24-1.63,4.82a1.37,1.37,0,0,0,2.23.61c1-.93,1.29-5,1.29-5Z"/><path class="cls-12" d="M275.87,114.79s-1.56,4.24-1.68,4.79,2.26,1.31,2.54.8c.64-1.11,1-5.12,1-5.12Z"/><path class="cls-10" d="M281.14,117.54a11.52,11.52,0,0,0,.06-3.26,1.91,1.91,0,0,0-2.09-1.78,12.91,12.91,0,0,0-4,.75c-.77.54-.75,1.67-.75,2.5a6,6,0,0,0,.82,3,3.84,3.84,0,0,0,2.59,1.12C280.08,119.77,280.72,119.16,281.14,117.54Z"/><path class="cls-13" d="M274.54,117a16,16,0,0,1-2.6-5.11,23.47,23.47,0,0,1-.6-2.81,11,11,0,0,1-.17-1.48,1,1,0,0,1,.13-.56,1.33,1.33,0,0,1,.37-.34l.09-.07a1,1,0,0,1,.17-.09l.25-.06.39,0a13.6,13.6,0,0,0,2.76-.27,5.15,5.15,0,0,0,2.34-1.18,6.52,6.52,0,0,0,.88-1,7.82,7.82,0,0,0,.72-1.17,2.93,2.93,0,0,0,.35-1.29,4.88,4.88,0,0,0-.32-1.36,3.94,3.94,0,0,1,.54,1.34,3.18,3.18,0,0,1-.19,1.47,8.45,8.45,0,0,1-.66,1.31,7.45,7.45,0,0,1-.87,1.2,5.33,5.33,0,0,1-2.6,1.49,13.9,13.9,0,0,1-2.89.35c-.23,0-.46,0-.45.07s-.21.16-.17.12,0,0,0,.13c0,.4.08.89.13,1.35.13.94.25,1.87.44,2.77a18.38,18.38,0,0,0,.82,2.68A23.77,23.77,0,0,0,274.54,117Z"/><path class="cls-3" d="M147.13,61.52h0l.06-.24a4.43,4.43,0,0,1,3,2.26,4.11,4.11,0,0,1-2.43,6.12,4.45,4.45,0,0,1-2.55.08,4.21,4.21,0,0,1-1.13-.49A4.41,4.41,0,0,1,142.3,66a4.29,4.29,0,0,1,1.24-3.46A4.24,4.24,0,0,1,147.13,61.52Z"/><path class="cls-3" d="M155.66,69.64a2.7,2.7,0,1,1,.12,5.39,2.8,2.8,0,0,1-.87-.1,2.57,2.57,0,0,1-1.53-1.11,2.85,2.85,0,0,1,2.28-4.18Z"/><path class="cls-3" d="M116.15,10.59a28.17,28.17,0,0,0-3,3.46,28.48,28.48,0,0,0-3.58,25.79A27.55,27.55,0,0,0,116,49.78c-7.44-5.56-11.67-14.32-9.86-24.2C108.26,13.75,118.67.22,131.72.47a.23.23,0,0,0,0-.46C119.67-.4,109.58,10.5,106,21.17c-4.2,12.35.43,24.69,11.6,31.38A32.28,32.28,0,0,0,122.61,55c11.32,6.74,26.78,7.28,36.91-1.3C191,27,143-15.94,116.15,10.59Z"/><path class="cls-3" d="M171.66,28.91c-.06-.36-.61-.25-.62.09a35.12,35.12,0,0,1-7.65,21.83.33.33,0,0,0,.47.47A25.88,25.88,0,0,0,171.66,28.91Z"/><path class="cls-5" d="M120.43,26.82h-1.9a.73.73,0,0,1-.73-.74h0a.74.74,0,0,1,.74-.73l1.9,0Z"/><path class="cls-5" d="M153.29,41.9l-30.78-.21A1.56,1.56,0,0,1,121,40.12l.12-17.48a1,1,0,0,1,1-.95l15.22.1.05-.89a1.17,1.17,0,0,1,1.18-1.09l15.17.25a1.15,1.15,0,0,1,1.14,1.15l.06,19.12A1.56,1.56,0,0,1,153.29,41.9Z"/><polygon class="cls-6" points="154.8 39.59 120.96 39.6 121.05 27.08 154.82 27.16 154.8 39.59"/><path class="cls-4" d="M129.9,27.09a1.27,1.27,0,1,1-2.53,0,1.27,1.27,0,0,1,2.53,0Z"/><path class="cls-5" d="M129.39,27.09a.76.76,0,1,1-1.51,0,.76.76,0,0,1,1.51,0Z"/><path class="cls-9" d="M133.62,25.81l-2.36,0a1.36,1.36,0,0,1-1.36-1.38h0a1.36,1.36,0,0,1,1.38-1.36h2.36A1.37,1.37,0,0,1,135,24.44h0A1.37,1.37,0,0,1,133.62,25.81Z"/><path class="cls-9" d="M121,28.74h0a1.38,1.38,0,0,1-1.38-1.39V25.82a1.39,1.39,0,0,1,1.4-1.37h0Z"/><path class="cls-4" d="M140.33,22a1.15,1.15,0,0,1-2.3,0,1.16,1.16,0,0,1,1.16-1.14A1.14,1.14,0,0,1,140.33,22Z"/><path class="cls-9" d="M146.38,31.62a6.76,6.76,0,1,1-6.71-6.8A6.76,6.76,0,0,1,146.38,31.62Z"/><path class="cls-9" d="M144.8,31.61a5.17,5.17,0,1,1-5.14-5.21A5.17,5.17,0,0,1,144.8,31.61Z"/><path class="cls-5" d="M142.46,31.59a2.83,2.83,0,1,1-2.81-2.85A2.83,2.83,0,0,1,142.46,31.59Z"/><path class="cls-9" d="M140.53,31.58a.91.91,0,1,1-.9-.91A.9.9,0,0,1,140.53,31.58Z"/><path class="cls-6" d="M136.13,21.78l-4.66,0h0a1.14,1.14,0,0,1,1.16-1.14H135a1.16,1.16,0,0,1,1.14,1.16Z"/><path class="cls-9" d="M129.92,21.74l-7.2,0h0a.66.66,0,0,1,.67-.65l5.87,0a.67.67,0,0,1,.66.66Z"/><path class="cls-6" d="M128.49,21.07l-4.08,0h0a1.31,1.31,0,0,1,1.33-1.31h1.44a1.31,1.31,0,0,1,1.31,1.33Z"/><path class="cls-9" d="M127.65,19.74h-2.27a.58.58,0,0,1,.59-.59h1.1a.58.58,0,0,1,.58.59Z"/><path class="cls-14" d="M138.6,30.5C138,31.66,137,32.31,136.23,32s-.81-1.6-.22-2.77,1.65-1.81,2.37-1.44S139.19,29.34,138.6,30.5Z"/><rect class="cls-5" x="169.97" y="140.45" width="3.98" height="51.17" transform="translate(-28.78 36.26) rotate(-11.11)"/><rect class="cls-5" x="215.31" y="140.45" width="3.98" height="51.17" transform="translate(398.53 370.84) rotate(-168.89)"/><rect class="cls-5" x="146.82" y="190.25" width="3.98" height="75.54" transform="translate(250.88 480.43) rotate(-168.89)"/><path class="cls-9" d="M158.43,144h0a18.54,18.54,0,0,1,21.91-21.9l12,2.47a18.57,18.57,0,0,0,7.5,0l9.48-2a18.22,18.22,0,0,1,21.11,23.17h0a19.7,19.7,0,0,1-18.84,13.94H177.73A19.72,19.72,0,0,1,158.43,144Z"/><rect class="cls-5" x="214.34" y="190.25" width="3.98" height="75.54" transform="translate(-39.89 45.97) rotate(-11.11)"/><path class="cls-9" d="M213.85,194H151.28a3.46,3.46,0,0,1-3.45-3.45h0a3.46,3.46,0,0,1,3.45-3.45h62.57a3.46,3.46,0,0,1,3.45,3.45h0A3.46,3.46,0,0,1,213.85,194Z"/><path class="cls-15" d="M189.26,107.94s28.5,22.48,30.72,35.5c3.44,20.18-15.19,20.89-20.41,17.88C188.25,154.79,188.66,118,188.66,118Z"/><path class="cls-6" d="M254.16,286.36c-.19-1.63-3.31-4.2-5.84-6.1.66.84,1.22,1.91-.25,1.81-2.16-.15-6.23-2.32-7-4.19a9.51,9.51,0,0,0-1.85,3.31C238.77,282.49,254.45,289,254.16,286.36Z"/><path class="cls-9" d="M248.07,282.07c1.47.1.91-1,.25-1.81-1.57-1.18-2.57-2-2.85-2.23a4.4,4.4,0,0,1-1-1.71l-.82-.51s-2.3,1.81-2.55,2.07C241.84,279.75,245.91,281.92,248.07,282.07Z"/><path class="cls-6" d="M287.89,283.93c-.33-1.59-7.68-2.81-10-2.47.85.16,2.26.7,1.64,1.61-.91,1.33-4,1.92-5.58,1.1a14.67,14.67,0,0,0,1.7,3.59C276.44,289,288.66,287.65,287.89,283.93Z"/><path class="cls-9" d="M281.67,283.33c.62-.9-2.53-1.69-3.38-1.85a14,14,0,0,0-2.81,0c-.77,0-1.1-1.2-1.1-1.2l-1.32,1a2.62,2.62,0,0,1,.75,1.94,4,4,0,0,0,.15,1C275.59,285,280.76,284.67,281.67,283.33Z"/><path class="cls-16" d="M191.27,109.64c-3.15-3.75-18-6.51-32.21-4.28-7.28,1.14-16.73,5.57-18.15,10.16-2.84,9.2,7.83,34,11,38,7.73,3.44,36.05-2.63,40-4.51C191.85,148.67,197.05,116.55,191.27,109.64Z"/><path class="cls-9" d="M191.92,149s33.48,8.72,44.3,34.17,8.7,94.48,8.7,94.48l-3-.19S204.37,159,172.46,151.06Z"/><path class="cls-6" d="M172.46,151.06c10.76.33,39.52,26,54.4,43.59,25.46,30.09,48.62,86.84,48.62,86.84l-1.6,1s-67.68-68.24-101-85.86c-26.46-14-24.9-32.74-20.92-43.06C151.94,153.54,166.19,150.87,172.46,151.06Z"/><path class="cls-10" d="M164.15,102.67s-.31,5.24.28,5.72,2.61.93,3.51-.52-.84-5.68-.84-5.68Z"/><path class="cls-12" d="M164.09,106.46a6.22,6.22,0,0,0,4.07-.45,14.44,14.44,0,0,0-.65-2.7l-3.41.56C164.07,104.62,164.06,105.6,164.09,106.46Z"/><path class="cls-10" d="M172.43,89.88c-1.51-2.72-7.41-2.46-8.49-1.88s-1.35,2.25-1.51,3.45.2,6.43,4,7.47C173.51,100.87,172.43,89.88,172.43,89.88Z"/><path class="cls-6" d="M180.34,82.77a3.91,3.91,0,0,0,0-.49v-.07h0a1,1,0,0,0,0-.17.55.55,0,0,0-.1-.26,1.16,1.16,0,0,0-.14-.73.39.39,0,0,0-.08-.1c-.06-.36-.63-.39-.82,0-2.12,3.85-7.4-.85-10.67-.26a4.34,4.34,0,0,0-2.7,1.61,5,5,0,0,0-5.31,2c-1.87,2.87-1.35,8.4-.3,11.49a6.8,6.8,0,0,0,.2.84,3.43,3.43,0,0,0,.12.39,6.63,6.63,0,0,0,.11,4A7.11,7.11,0,0,0,165,105.1c1.57.52,4.47.67,6-.19a6.83,6.83,0,0,0,2.86-5c0-1.31-1.58-6.14-1.69-5.21a18.12,18.12,0,0,1-.87,2.39l-.63.87c-2.3,2.44-5.12.31-6.19-.94l-.07-.09c-.28-.42-.57-.84-.86-1.24a5.37,5.37,0,0,1-1-3.29c.28-1.79.8-3.59,3.16-3.85a4,4,0,0,1,.6,0c2.85.38,5.45,2.51,8.45,2.23l.36-.05C178.76,90.31,180.09,86.23,180.34,82.77Z"/><path class="cls-17" d="M179.23,80.9A2.87,2.87,0,0,1,178,82.25a3.45,3.45,0,0,1-1.87.33,15.51,15.51,0,0,1-3.61-.89,10.93,10.93,0,0,0-3.45-.7,4,4,0,0,0-2.84,1.51.43.43,0,0,1-.44.16,4.86,4.86,0,0,0-3.89.78,5.84,5.84,0,0,0-2,3.57,16.53,16.53,0,0,0-.28,4.34,21.6,21.6,0,0,0,.68,4.37h0c.08.41.13.83.25,1.24-.16-.39-.27-.8-.4-1.21h0a17.23,17.23,0,0,1-1.06-4.37,16.45,16.45,0,0,1,.06-4.54,9.55,9.55,0,0,1,.68-2.23,5.23,5.23,0,0,1,6.09-2.8l-.43.16A4.6,4.6,0,0,1,169,80.21a10.16,10.16,0,0,1,3.69.9,17.23,17.23,0,0,0,3.45,1.09,3.12,3.12,0,0,0,1.74-.13A3,3,0,0,0,179.23,80.9Z"/><path class="cls-15" d="M191.27,109.64c-2-2.34-8.48-4.29-16.54-4.89a61.45,61.45,0,0,1,5.64,19.71c.83,7.89-1.28,18.08-1.87,25.94,5.78-1.14,12-.68,13.42-1.37C191.85,148.67,197.05,116.55,191.27,109.64Z"/><path class="cls-16" d="M150.92,116.44c.63,3.23.47,6.4.35,10.4L151,137.69c-.11,3.89.61,8.91-.36,12.71,0,0-5.83,22.87-13.73,12.65-5.15-6.68-4.05-17.55-2.76-25.27,1.7-10.22,2.57-17.59,9-25.86a1.79,1.79,0,0,1,1.05-.81c.61-.08,3.69-.4,4,.1C149.58,113.26,150.45,114,150.92,116.44Z"/><path class="cls-16" d="M142.06,147.34l22-24a3.7,3.7,0,0,1,4-1c3.37,1.17,9.26,3.65,9.87,6.83,2.45,12.68-20.36,36-33.26,36.67C131.54,166.52,142.06,147.34,142.06,147.34Z"/><path class="cls-10" d="M169.87,122.82s1.86-3.74,2.94-4.31,2.57,1.59,2.57,1.59Z"/><path class="cls-9" d="M177.09,118.05l-1.57,2.1-12.05-9a1.32,1.32,0,0,1-.27-1.84h0a1.32,1.32,0,0,1,1.84-.26Z"/><path class="cls-18" d="M163.56,108.84l-.79,1s-2-.92-2.12-1.58a1.34,1.34,0,0,1,.79-1C162.09,107.16,163.56,108.84,163.56,108.84Z"/><path class="cls-18" d="M168.77,115.11l-.48.65s-5.15-2.83-5.91-4.41c-.08-.18.49-.65.49-.65Z"/><path class="cls-10" d="M169.87,122.82s4.36-3.77,8.06-5.13,4.62.45,4,2.07a5.8,5.8,0,0,1,.18,5.07c-1.17,2.24-7.94,2.87-9.61,2.79-1.06-.05-3.4-.77-3.83-2.17C168.43,124.64,169.87,122.82,169.87,122.82Z"/><path class="cls-15" d="M177.92,129.16a14.13,14.13,0,0,1-.23,6.62,30.18,30.18,0,0,1-2.52,6.21,50.78,50.78,0,0,1-7.9,10.74,55.09,55.09,0,0,1-10.22,8.56c-3.73,2.35-7.91,4.45-12.39,4.54a20.13,20.13,0,0,0,6.21-2,37,37,0,0,0,5.6-3.37,67.68,67.68,0,0,0,9.82-8.62,60.86,60.86,0,0,0,8-10.33,30.22,30.22,0,0,0,2.79-5.89A14.92,14.92,0,0,0,177.92,129.16Z"/><path class="cls-15" d="M142.06,147.34c1.87-2.45,3.86-4.81,5.86-7.14s4.05-4.63,6.12-6.91,4.18-4.51,6.35-6.69l3.26-3.28a3.88,3.88,0,0,1,4.4-1,3.68,3.68,0,0,0-3.91,1.44l-3,3.53c-2,2.35-4.06,4.63-6.13,6.9s-4.18,4.51-6.35,6.69S144.34,145.27,142.06,147.34Z"/><polygon class="cls-3" points="186.96 115.23 177.6 155.75 203.02 158.21 213.26 118.43 186.96 115.23"/><path class="cls-15" d="M184.42,148.6c1.76,9.82,20.4,12.84,24.87,13.49,8.51,1.24,11.3-5.76,11.57-11,.09-1.61-1.23-11.94-2.17-12.87-3.07-3.05-8.2,3.56-12.3,1.9C193.65,134.88,181.17,130.5,184.42,148.6Z"/><path class="cls-10" d="M190,144.92a1.3,1.3,0,0,0,.22-1.08,29.23,29.23,0,0,0-1.77-5.51c-.87-1.52-5-4.63-5.95-4.41s.7,2.09.7,2.09-1.68-2.12-2.74-1.51a1.51,1.51,0,0,0-.52,1.88,20.85,20.85,0,0,0,.82,3.24,17.06,17.06,0,0,0,1.88,3.23,13.58,13.58,0,0,0,2.06,1.53c1.18.72,3.73,2.26,4,2.15A9.88,9.88,0,0,0,190,144.92Z"/><path class="cls-3" d="M30.08,77.24a19.6,19.6,0,0,0-1.31,3,21.78,21.78,0,0,0,2.64,18.89A20.34,20.34,0,0,0,37.6,105,18.15,18.15,0,0,1,26.25,89.7c-.85-8.76,3.49-20.25,12.31-22.5.2,0,.11-.37-.09-.33-8.18,2-12.82,11.53-13.18,19.74-.4,9.51,5.12,17.36,13.93,20a21.21,21.21,0,0,0,3.88.79c8.92,2.66,19.41.17,24.54-7.78C83.58,74.91,42.93,53.51,30.08,77.24Z"/><path class="cls-3" d="M71,79.86c-.11-.24-.46-.07-.4.17a26.61,26.61,0,0,1-.87,16.85c-.11.27.25.51.41.24A19.53,19.53,0,0,0,71,79.86Z"/><path class="cls-3" d="M55.58,103.91s5.74,10.91,15.5,8c0,0-8,1.15-6.32-10.33C64.76,101.62,61.32,99.32,55.58,103.91Z"/><polygon class="cls-9" points="56.66 80.1 41.97 77.97 41.16 73.61 58.89 75.13 56.66 80.1"/><path class="cls-10" d="M44.44,77.84c1.6-2.38,7-1.69,8-1.07s1.07,2.18,1.12,3.29-.68,5.9-4.23,6.57C42.6,87.88,44.44,77.84,44.44,77.84Z"/><path class="cls-6" d="M53.9,80.71c-.06-1.12-.21-3.4-1.2-4s-6.9-1.43-8.64,1.16a16.37,16.37,0,0,0-.22,2A33.69,33.69,0,0,1,53.9,80.71Z"/><path class="cls-9" d="M52.51,85.76s4.28,3,6.13,6.11A11.48,11.48,0,0,1,60.5,97.2s-11.11,5.46-22.15.55c0,0,1.54-8.89,5.76-12a5.5,5.5,0,0,0,4.13,1.9A5.32,5.32,0,0,0,52.51,85.76Z"/><path class="cls-9" d="M43.72,83.09A1.46,1.46,0,0,0,45.44,82a1.42,1.42,0,0,0,0-.41h0a1.08,1.08,0,0,1,1.56.31.07.07,0,0,0,0,0,1.57,1.57,0,0,0,1.17,1.33A1.46,1.46,0,0,0,50,82.24a1.37,1.37,0,0,0-.82-1.6.09.09,0,0,0-.07-.06c-.76-.14-1.81.11-2,1a.08.08,0,0,0,0,0,1.33,1.33,0,0,0-1.68-.23,1.36,1.36,0,0,0-.81-.95.09.09,0,0,0-.07-.06c-.76-.14-1.81.11-2,1A1.54,1.54,0,0,0,43.72,83.09Zm3.59-1.33c0-.79.93-1.07,1.61-1l0,0a1.18,1.18,0,0,1-.56,2.29A1.31,1.31,0,0,1,47.31,81.76Zm-4.55-.21c.05-.79.93-1.07,1.61-1l0,0a1.18,1.18,0,0,1-.56,2.29A1.3,1.3,0,0,1,42.76,81.55Z"/><rect class="cls-5" x="93.45" y="140.59" width="2.72" height="35.05" transform="translate(157.36 331.54) rotate(-168.89)"/><rect class="cls-5" x="62.39" y="140.59" width="2.72" height="35.05" transform="translate(-29.28 15.25) rotate(-11.11)"/><rect class="cls-5" x="109.3" y="174.7" width="2.72" height="51.73" transform="translate(-36.58 25.09) rotate(-11.11)"/><path class="cls-9" d="M104.07,143h0a12.7,12.7,0,0,0-15-15l-8.2,1.7a12.71,12.71,0,0,1-5.14,0l-6.49-1.34a12.48,12.48,0,0,0-14.46,15.86h0a13.49,13.49,0,0,0,12.91,9.55H90.85A13.5,13.5,0,0,0,104.07,143Z"/><rect class="cls-5" x="63.06" y="174.7" width="2.72" height="51.73" transform="translate(88.97 409.78) rotate(-168.89)"/><path class="cls-9" d="M66.11,177.28H109a2.36,2.36,0,0,0,2.36-2.36h0a2.36,2.36,0,0,0-2.36-2.36H66.11a2.36,2.36,0,0,0-2.36,2.36h0A2.36,2.36,0,0,0,66.11,177.28Z"/><path class="cls-6" d="M83.23,113.38s-4.6-1.11-5.81-4.2,2.2-7.08,6.37-7.44,10.08.42,11.26,5.91-5.24,7.77-7.8,7.71A5.52,5.52,0,0,1,83.23,113.38Z"/><path class="cls-17" d="M93.87,108.19c-1.18-5.5-7.08-6.28-11.26-5.91a7.18,7.18,0,0,0-1.85.4,7.84,7.84,0,0,1,3-.94c4.18-.36,10.08.42,11.26,5.91.82,3.8-2,6-4.64,7.07C92.64,113.53,94.57,111.42,93.87,108.19Z"/><path class="cls-18" d="M70.36,122.69s-7.68,3.44-13.76,17.5,11.15,18,16.88,15.94S70.36,122.69,70.36,122.69Z"/><path class="cls-6" d="M103.44,126.59c3.72,6.23-4.11,24.9-4,26.5-4.69,2.08-25.53.66-27.92-.48,0-.08-1.24-6.6-2.19-13.86-1-7.61-2.76-14.5,1-16.06C87.91,115.37,100.81,122.19,103.44,126.59Z"/><path class="cls-9" d="M70.36,122.69a40.71,40.71,0,0,1,11.94-3.07A141.64,141.64,0,0,0,80.5,141c-.1,4.13-.29,8.55-.51,12.81-4.16-.3-7.55-.76-8.43-1.18,0-.08-1.24-6.6-2.19-13.86C68.37,131.14,66.61,124.25,70.36,122.69Z"/><path class="cls-9" d="M83.23,113.38s-4.6-1.11-5.81-4.2,2.2-7.08,6.37-7.44c.5,0,1-.07,1.57-.07-1,1.27-2.59,3.51-2.22,4.83.55,1.94,4.82,1.52,6,2.91a4.74,4.74,0,0,1-.22,5.75,7.28,7.28,0,0,1-1.66.2A5.52,5.52,0,0,1,83.23,113.38Z"/><path class="cls-10" d="M88.35,116.2s.66,5.37.08,5.9-2.62,1.12-3.64-.3.5-5.91.5-5.91Z"/><path class="cls-12" d="M88.66,120.1a6.43,6.43,0,0,1-4.22-.21,15.43,15.43,0,0,1,.5-2.82l3.54.36C88.56,118.2,88.64,119.21,88.66,120.1Z"/><path class="cls-10" d="M82.67,111.38c1.32-2,5.78-1.39,6.56-.88s.89,1.79.93,2.71-.56,4.86-3.49,5.41C81.15,119.66,82.67,111.38,82.67,111.38Z"/><path class="cls-6" d="M50.54,245.26c1.1.19,3.82-4.75,4.19-6.31-.32.5-1,1.27-1.44.64a3.55,3.55,0,0,1,.69-3.84,10.55,10.55,0,0,0-2.72.19C50.28,236.13,48,244.83,50.54,245.26Z"/><path class="cls-9" d="M52.59,240.88c.42.63,1.71-1.19,2-1.69a9.25,9.25,0,0,0,.7-1.8,1.53,1.53,0,0,1,.78-.72l0-.77a1.77,1.77,0,0,1-1.43,0,2.83,2.83,0,0,0-.65-.15C53,236.59,52,240,52.59,240.88Z"/><path class="cls-9" d="M40.58,236c-.39-1,3.7-4.72,5.11-5.36-.41.39-1,1.2-.33,1.49a3.46,3.46,0,0,0,3.51-1.4,9.63,9.63,0,0,1,.34,2.62C49.22,234.28,41.49,238.33,40.58,236Z"/><path class="cls-9" d="M45.49,230.76a15,15,0,0,1,1.81-1.17c-.06-.48-.13-1-.21-1.61l1.39-.24a8.83,8.83,0,0,0,.13,2.37,2.49,2.49,0,0,1,.26.59c-.61,1.05-3.62,2.73-4.6,2.31C43.59,232.72,45.07,231.16,45.49,230.76Z"/><path class="cls-5" d="M49.21,229.17s3.84-30.12,3.56-40c-.07-2.63-1-8.59-1-8.59s14,2.26,24.26-1.82c9.65-3.86,13.48-10.74,11.17-22.1-8.32.17-12.25-2.48-17.63,0C56.35,159.41,39,159,36.64,172.68c-1.3,7.65,10.15,56.49,10.15,56.49Z"/><rect class="cls-3" x="61.26" y="132.46" width="11.77" height="16.68" rx="5.88" transform="translate(153.67 270.59) rotate(171.81)"/><path class="cls-5" d="M65.82,138.56a1,1,0,1,0,.84-1.12A1,1,0,0,0,65.82,138.56Z"/><path class="cls-3" d="M82.45,114.91a1.64,1.64,0,0,0,1.86-1.26,2.26,2.26,0,0,0,0-.45l0,0a1.19,1.19,0,0,1,1.74.27.12.12,0,0,0,0,0,1.75,1.75,0,0,0,1.37,1.42,1.63,1.63,0,0,0,1.86-1.27,1.53,1.53,0,0,0-1-1.73.08.08,0,0,0-.08-.06c-.85-.12-2,.21-2.15,1.2v0a1.49,1.49,0,0,0-1.87-.17,1.55,1.55,0,0,0-1-1s0,0-.08-.06c-.85-.12-2,.22-2.15,1.2A1.7,1.7,0,0,0,82.45,114.91Zm3.92-1.66c0-.87,1-1.23,1.73-1.17l.05,0a1.31,1.31,0,0,1-.51,2.57A1.46,1.46,0,0,1,86.37,113.25Zm-5.06,0c0-.88,1-1.23,1.73-1.18a.09.09,0,0,0,0,0,1.32,1.32,0,0,1-.51,2.58A1.45,1.45,0,0,1,81.31,113.25Z"/><path class="cls-5" d="M97.6,155a8.5,8.5,0,0,1,4.34,3.36c4.81,7.52-3,32.83-7.27,40.49-10.23,18.16-37.77,38.5-37.77,38.5l-1.76-1c5.69-5.93,23-24.06,31.41-34.41C94.44,192.36,96.89,166.39,97.6,155Z"/><path class="cls-4" d="M72.77,194.53c2.94-8.46,9.53-39,9.53-39s9-2.86,15.3-.52c-.71,11.35-3.16,37.32-11,47-8.46,10.35-25.72,28.48-31.41,34.41l-1.87-1S68.72,206.23,72.77,194.53Z"/><path class="cls-18" d="M105.91,158.33c-9.37,9.71-25.73,4.68-33-1.48-4.41-3.72.81-10.89.81-10.89l24.37,5.11S94.92,129.12,98,126.5c2.32-2,4-1.29,5.65,0C108.53,130.16,110.52,153.56,105.91,158.33Z"/><path class="cls-10" d="M61.2,147.84s-1.43-2.72-.64-3.39,2-1.8,2.42-1.55-.57,1.07-.57,1.07a8.86,8.86,0,0,1,1.32,0c.2.06-.17.58-.17.58a.54.54,0,0,1,.52.27c.21.32-.73.48-1,.85s-.08,2.12-.63,2.89C62.21,148.81,61.55,148.61,61.2,147.84Z"/><path class="cls-10" d="M74.49,145.93s.61-3-.33-3.44-2.46-1.16-2.75-.81.84.87.84.87a9.73,9.73,0,0,0-1.28.33c-.18.11.33.52.33.52a.53.53,0,0,0-.43.39c-.11.37.84.27,1.22.54s.67,2,1.42,2.6C73.78,147.14,74.36,146.76,74.49,145.93Z"/></g></g></svg>